G75*
%MOIN*%
%OFA0B0*%
%FSLAX25Y25*%
%IPPOS*%
%LPD*%
%AMOC8*
5,1,8,0,0,1.08239X$1,22.5*
%
%ADD10C,0.00500*%
%ADD11C,0.00300*%
%ADD12C,0.00400*%
%ADD13C,0.01000*%
%ADD14C,0.00800*%
%ADD15C,0.05568*%
%ADD16C,0.00700*%
%ADD17C,0.00787*%
%ADD18C,0.01969*%
%ADD19R,0.02400X0.06200*%
%ADD20C,0.00600*%
D10*
X0072052Y0087644D02*
X0072056Y0087938D01*
X0072066Y0088233D01*
X0072085Y0088527D01*
X0072110Y0088820D01*
X0072142Y0089113D01*
X0072182Y0089405D01*
X0072229Y0089696D01*
X0072283Y0089985D01*
X0072344Y0090273D01*
X0072412Y0090560D01*
X0072487Y0090845D01*
X0072569Y0091127D01*
X0072658Y0091408D01*
X0072753Y0091687D01*
X0072856Y0091963D01*
X0072965Y0092236D01*
X0073081Y0092507D01*
X0073204Y0092775D01*
X0073333Y0093039D01*
X0073469Y0093301D01*
X0073611Y0093559D01*
X0073759Y0093813D01*
X0073914Y0094064D01*
X0074074Y0094311D01*
X0074241Y0094554D01*
X0074414Y0094792D01*
X0074592Y0095027D01*
X0074776Y0095257D01*
X0074965Y0095482D01*
X0075161Y0095703D01*
X0075361Y0095918D01*
X0075567Y0096129D01*
X0075778Y0096335D01*
X0075993Y0096535D01*
X0076214Y0096731D01*
X0076439Y0096920D01*
X0076669Y0097104D01*
X0076904Y0097282D01*
X0077142Y0097455D01*
X0077385Y0097622D01*
X0077632Y0097782D01*
X0077883Y0097937D01*
X0078137Y0098085D01*
X0078395Y0098227D01*
X0078657Y0098363D01*
X0078921Y0098492D01*
X0079189Y0098615D01*
X0079460Y0098731D01*
X0079733Y0098840D01*
X0080009Y0098943D01*
X0080288Y0099038D01*
X0080569Y0099127D01*
X0080851Y0099209D01*
X0081136Y0099284D01*
X0081423Y0099352D01*
X0081711Y0099413D01*
X0082000Y0099467D01*
X0082291Y0099514D01*
X0082583Y0099554D01*
X0082876Y0099586D01*
X0083169Y0099611D01*
X0083463Y0099630D01*
X0083758Y0099640D01*
X0084052Y0099644D01*
X0084346Y0099640D01*
X0084641Y0099630D01*
X0084935Y0099611D01*
X0085228Y0099586D01*
X0085521Y0099554D01*
X0085813Y0099514D01*
X0086104Y0099467D01*
X0086393Y0099413D01*
X0086681Y0099352D01*
X0086968Y0099284D01*
X0087253Y0099209D01*
X0087535Y0099127D01*
X0087816Y0099038D01*
X0088095Y0098943D01*
X0088371Y0098840D01*
X0088644Y0098731D01*
X0088915Y0098615D01*
X0089183Y0098492D01*
X0089447Y0098363D01*
X0089709Y0098227D01*
X0089967Y0098085D01*
X0090221Y0097937D01*
X0090472Y0097782D01*
X0090719Y0097622D01*
X0090962Y0097455D01*
X0091200Y0097282D01*
X0091435Y0097104D01*
X0091665Y0096920D01*
X0091890Y0096731D01*
X0092111Y0096535D01*
X0092326Y0096335D01*
X0092537Y0096129D01*
X0092743Y0095918D01*
X0092943Y0095703D01*
X0093139Y0095482D01*
X0093328Y0095257D01*
X0093512Y0095027D01*
X0093690Y0094792D01*
X0093863Y0094554D01*
X0094030Y0094311D01*
X0094190Y0094064D01*
X0094345Y0093813D01*
X0094493Y0093559D01*
X0094635Y0093301D01*
X0094771Y0093039D01*
X0094900Y0092775D01*
X0095023Y0092507D01*
X0095139Y0092236D01*
X0095248Y0091963D01*
X0095351Y0091687D01*
X0095446Y0091408D01*
X0095535Y0091127D01*
X0095617Y0090845D01*
X0095692Y0090560D01*
X0095760Y0090273D01*
X0095821Y0089985D01*
X0095875Y0089696D01*
X0095922Y0089405D01*
X0095962Y0089113D01*
X0095994Y0088820D01*
X0096019Y0088527D01*
X0096038Y0088233D01*
X0096048Y0087938D01*
X0096052Y0087644D01*
X0096048Y0087350D01*
X0096038Y0087055D01*
X0096019Y0086761D01*
X0095994Y0086468D01*
X0095962Y0086175D01*
X0095922Y0085883D01*
X0095875Y0085592D01*
X0095821Y0085303D01*
X0095760Y0085015D01*
X0095692Y0084728D01*
X0095617Y0084443D01*
X0095535Y0084161D01*
X0095446Y0083880D01*
X0095351Y0083601D01*
X0095248Y0083325D01*
X0095139Y0083052D01*
X0095023Y0082781D01*
X0094900Y0082513D01*
X0094771Y0082249D01*
X0094635Y0081987D01*
X0094493Y0081729D01*
X0094345Y0081475D01*
X0094190Y0081224D01*
X0094030Y0080977D01*
X0093863Y0080734D01*
X0093690Y0080496D01*
X0093512Y0080261D01*
X0093328Y0080031D01*
X0093139Y0079806D01*
X0092943Y0079585D01*
X0092743Y0079370D01*
X0092537Y0079159D01*
X0092326Y0078953D01*
X0092111Y0078753D01*
X0091890Y0078557D01*
X0091665Y0078368D01*
X0091435Y0078184D01*
X0091200Y0078006D01*
X0090962Y0077833D01*
X0090719Y0077666D01*
X0090472Y0077506D01*
X0090221Y0077351D01*
X0089967Y0077203D01*
X0089709Y0077061D01*
X0089447Y0076925D01*
X0089183Y0076796D01*
X0088915Y0076673D01*
X0088644Y0076557D01*
X0088371Y0076448D01*
X0088095Y0076345D01*
X0087816Y0076250D01*
X0087535Y0076161D01*
X0087253Y0076079D01*
X0086968Y0076004D01*
X0086681Y0075936D01*
X0086393Y0075875D01*
X0086104Y0075821D01*
X0085813Y0075774D01*
X0085521Y0075734D01*
X0085228Y0075702D01*
X0084935Y0075677D01*
X0084641Y0075658D01*
X0084346Y0075648D01*
X0084052Y0075644D01*
X0083758Y0075648D01*
X0083463Y0075658D01*
X0083169Y0075677D01*
X0082876Y0075702D01*
X0082583Y0075734D01*
X0082291Y0075774D01*
X0082000Y0075821D01*
X0081711Y0075875D01*
X0081423Y0075936D01*
X0081136Y0076004D01*
X0080851Y0076079D01*
X0080569Y0076161D01*
X0080288Y0076250D01*
X0080009Y0076345D01*
X0079733Y0076448D01*
X0079460Y0076557D01*
X0079189Y0076673D01*
X0078921Y0076796D01*
X0078657Y0076925D01*
X0078395Y0077061D01*
X0078137Y0077203D01*
X0077883Y0077351D01*
X0077632Y0077506D01*
X0077385Y0077666D01*
X0077142Y0077833D01*
X0076904Y0078006D01*
X0076669Y0078184D01*
X0076439Y0078368D01*
X0076214Y0078557D01*
X0075993Y0078753D01*
X0075778Y0078953D01*
X0075567Y0079159D01*
X0075361Y0079370D01*
X0075161Y0079585D01*
X0074965Y0079806D01*
X0074776Y0080031D01*
X0074592Y0080261D01*
X0074414Y0080496D01*
X0074241Y0080734D01*
X0074074Y0080977D01*
X0073914Y0081224D01*
X0073759Y0081475D01*
X0073611Y0081729D01*
X0073469Y0081987D01*
X0073333Y0082249D01*
X0073204Y0082513D01*
X0073081Y0082781D01*
X0072965Y0083052D01*
X0072856Y0083325D01*
X0072753Y0083601D01*
X0072658Y0083880D01*
X0072569Y0084161D01*
X0072487Y0084443D01*
X0072412Y0084728D01*
X0072344Y0085015D01*
X0072283Y0085303D01*
X0072229Y0085592D01*
X0072182Y0085883D01*
X0072142Y0086175D01*
X0072110Y0086468D01*
X0072085Y0086761D01*
X0072066Y0087055D01*
X0072056Y0087350D01*
X0072052Y0087644D01*
X0092294Y0165572D02*
X0092294Y0182501D01*
X0096625Y0182501D01*
X0096625Y0182895D01*
X0077727Y0175414D02*
X0077727Y0173052D01*
X0066310Y0173052D01*
X0066310Y0175414D02*
X0077727Y0175414D01*
X0092294Y0165572D02*
X0096625Y0165572D01*
X0175613Y0139533D02*
X0175613Y0134533D01*
X0186613Y0134533D01*
X0186613Y0139533D01*
X0175613Y0139533D01*
X0207269Y0165693D02*
X0207269Y0101914D01*
X0221049Y0101914D01*
X0221049Y0093646D01*
X0227742Y0093646D01*
X0227787Y0093633D02*
X0227787Y0173933D01*
X0227387Y0173933D01*
X0227348Y0173961D02*
X0221049Y0173961D01*
X0221049Y0165693D01*
X0207269Y0165693D01*
X0181887Y0180221D02*
X0181891Y0180511D01*
X0181901Y0180801D01*
X0181919Y0181090D01*
X0181944Y0181379D01*
X0181976Y0181667D01*
X0182015Y0181954D01*
X0182061Y0182240D01*
X0182114Y0182525D01*
X0182174Y0182809D01*
X0182241Y0183091D01*
X0182315Y0183371D01*
X0182396Y0183650D01*
X0182483Y0183926D01*
X0182577Y0184200D01*
X0182678Y0184472D01*
X0182786Y0184741D01*
X0182900Y0185007D01*
X0183021Y0185271D01*
X0183148Y0185531D01*
X0183282Y0185789D01*
X0183421Y0186043D01*
X0183567Y0186293D01*
X0183719Y0186540D01*
X0183878Y0186783D01*
X0184042Y0187022D01*
X0184211Y0187257D01*
X0184387Y0187488D01*
X0184568Y0187714D01*
X0184755Y0187936D01*
X0184947Y0188153D01*
X0185144Y0188365D01*
X0185346Y0188573D01*
X0185554Y0188775D01*
X0185766Y0188972D01*
X0185983Y0189164D01*
X0186205Y0189351D01*
X0186431Y0189532D01*
X0186662Y0189708D01*
X0186897Y0189877D01*
X0187136Y0190041D01*
X0187379Y0190200D01*
X0187626Y0190352D01*
X0187876Y0190498D01*
X0188130Y0190637D01*
X0188388Y0190771D01*
X0188648Y0190898D01*
X0188912Y0191019D01*
X0189178Y0191133D01*
X0189447Y0191241D01*
X0189719Y0191342D01*
X0189993Y0191436D01*
X0190269Y0191523D01*
X0190548Y0191604D01*
X0190828Y0191678D01*
X0191110Y0191745D01*
X0191394Y0191805D01*
X0191679Y0191858D01*
X0191965Y0191904D01*
X0192252Y0191943D01*
X0192540Y0191975D01*
X0192829Y0192000D01*
X0193118Y0192018D01*
X0193408Y0192028D01*
X0193698Y0192032D01*
X0193988Y0192028D01*
X0194278Y0192018D01*
X0194567Y0192000D01*
X0194856Y0191975D01*
X0195144Y0191943D01*
X0195431Y0191904D01*
X0195717Y0191858D01*
X0196002Y0191805D01*
X0196286Y0191745D01*
X0196568Y0191678D01*
X0196848Y0191604D01*
X0197127Y0191523D01*
X0197403Y0191436D01*
X0197677Y0191342D01*
X0197949Y0191241D01*
X0198218Y0191133D01*
X0198484Y0191019D01*
X0198748Y0190898D01*
X0199008Y0190771D01*
X0199266Y0190637D01*
X0199520Y0190498D01*
X0199770Y0190352D01*
X0200017Y0190200D01*
X0200260Y0190041D01*
X0200499Y0189877D01*
X0200734Y0189708D01*
X0200965Y0189532D01*
X0201191Y0189351D01*
X0201413Y0189164D01*
X0201630Y0188972D01*
X0201842Y0188775D01*
X0202050Y0188573D01*
X0202252Y0188365D01*
X0202449Y0188153D01*
X0202641Y0187936D01*
X0202828Y0187714D01*
X0203009Y0187488D01*
X0203185Y0187257D01*
X0203354Y0187022D01*
X0203518Y0186783D01*
X0203677Y0186540D01*
X0203829Y0186293D01*
X0203975Y0186043D01*
X0204114Y0185789D01*
X0204248Y0185531D01*
X0204375Y0185271D01*
X0204496Y0185007D01*
X0204610Y0184741D01*
X0204718Y0184472D01*
X0204819Y0184200D01*
X0204913Y0183926D01*
X0205000Y0183650D01*
X0205081Y0183371D01*
X0205155Y0183091D01*
X0205222Y0182809D01*
X0205282Y0182525D01*
X0205335Y0182240D01*
X0205381Y0181954D01*
X0205420Y0181667D01*
X0205452Y0181379D01*
X0205477Y0181090D01*
X0205495Y0180801D01*
X0205505Y0180511D01*
X0205509Y0180221D01*
X0205505Y0179931D01*
X0205495Y0179641D01*
X0205477Y0179352D01*
X0205452Y0179063D01*
X0205420Y0178775D01*
X0205381Y0178488D01*
X0205335Y0178202D01*
X0205282Y0177917D01*
X0205222Y0177633D01*
X0205155Y0177351D01*
X0205081Y0177071D01*
X0205000Y0176792D01*
X0204913Y0176516D01*
X0204819Y0176242D01*
X0204718Y0175970D01*
X0204610Y0175701D01*
X0204496Y0175435D01*
X0204375Y0175171D01*
X0204248Y0174911D01*
X0204114Y0174653D01*
X0203975Y0174399D01*
X0203829Y0174149D01*
X0203677Y0173902D01*
X0203518Y0173659D01*
X0203354Y0173420D01*
X0203185Y0173185D01*
X0203009Y0172954D01*
X0202828Y0172728D01*
X0202641Y0172506D01*
X0202449Y0172289D01*
X0202252Y0172077D01*
X0202050Y0171869D01*
X0201842Y0171667D01*
X0201630Y0171470D01*
X0201413Y0171278D01*
X0201191Y0171091D01*
X0200965Y0170910D01*
X0200734Y0170734D01*
X0200499Y0170565D01*
X0200260Y0170401D01*
X0200017Y0170242D01*
X0199770Y0170090D01*
X0199520Y0169944D01*
X0199266Y0169805D01*
X0199008Y0169671D01*
X0198748Y0169544D01*
X0198484Y0169423D01*
X0198218Y0169309D01*
X0197949Y0169201D01*
X0197677Y0169100D01*
X0197403Y0169006D01*
X0197127Y0168919D01*
X0196848Y0168838D01*
X0196568Y0168764D01*
X0196286Y0168697D01*
X0196002Y0168637D01*
X0195717Y0168584D01*
X0195431Y0168538D01*
X0195144Y0168499D01*
X0194856Y0168467D01*
X0194567Y0168442D01*
X0194278Y0168424D01*
X0193988Y0168414D01*
X0193698Y0168410D01*
X0193408Y0168414D01*
X0193118Y0168424D01*
X0192829Y0168442D01*
X0192540Y0168467D01*
X0192252Y0168499D01*
X0191965Y0168538D01*
X0191679Y0168584D01*
X0191394Y0168637D01*
X0191110Y0168697D01*
X0190828Y0168764D01*
X0190548Y0168838D01*
X0190269Y0168919D01*
X0189993Y0169006D01*
X0189719Y0169100D01*
X0189447Y0169201D01*
X0189178Y0169309D01*
X0188912Y0169423D01*
X0188648Y0169544D01*
X0188388Y0169671D01*
X0188130Y0169805D01*
X0187876Y0169944D01*
X0187626Y0170090D01*
X0187379Y0170242D01*
X0187136Y0170401D01*
X0186897Y0170565D01*
X0186662Y0170734D01*
X0186431Y0170910D01*
X0186205Y0171091D01*
X0185983Y0171278D01*
X0185766Y0171470D01*
X0185554Y0171667D01*
X0185346Y0171869D01*
X0185144Y0172077D01*
X0184947Y0172289D01*
X0184755Y0172506D01*
X0184568Y0172728D01*
X0184387Y0172954D01*
X0184211Y0173185D01*
X0184042Y0173420D01*
X0183878Y0173659D01*
X0183719Y0173902D01*
X0183567Y0174149D01*
X0183421Y0174399D01*
X0183282Y0174653D01*
X0183148Y0174911D01*
X0183021Y0175171D01*
X0182900Y0175435D01*
X0182786Y0175701D01*
X0182678Y0175970D01*
X0182577Y0176242D01*
X0182483Y0176516D01*
X0182396Y0176792D01*
X0182315Y0177071D01*
X0182241Y0177351D01*
X0182174Y0177633D01*
X0182114Y0177917D01*
X0182061Y0178202D01*
X0182015Y0178488D01*
X0181976Y0178775D01*
X0181944Y0179063D01*
X0181919Y0179352D01*
X0181901Y0179641D01*
X0181891Y0179931D01*
X0181887Y0180221D01*
X0197792Y0099551D02*
X0197794Y0099656D01*
X0197800Y0099762D01*
X0197810Y0099866D01*
X0197824Y0099971D01*
X0197842Y0100075D01*
X0197863Y0100178D01*
X0197889Y0100280D01*
X0197919Y0100381D01*
X0197952Y0100481D01*
X0197989Y0100580D01*
X0198030Y0100677D01*
X0198074Y0100772D01*
X0198122Y0100866D01*
X0198174Y0100958D01*
X0198229Y0101048D01*
X0198287Y0101136D01*
X0198349Y0101221D01*
X0198414Y0101304D01*
X0198481Y0101385D01*
X0198552Y0101463D01*
X0198626Y0101538D01*
X0198703Y0101610D01*
X0198782Y0101680D01*
X0198864Y0101746D01*
X0198948Y0101809D01*
X0199035Y0101869D01*
X0199124Y0101926D01*
X0199215Y0101979D01*
X0199307Y0102029D01*
X0199402Y0102075D01*
X0199498Y0102118D01*
X0199596Y0102157D01*
X0199696Y0102192D01*
X0199796Y0102224D01*
X0199898Y0102251D01*
X0200001Y0102275D01*
X0200104Y0102295D01*
X0200208Y0102311D01*
X0200313Y0102323D01*
X0200418Y0102331D01*
X0200523Y0102335D01*
X0200629Y0102335D01*
X0200734Y0102331D01*
X0200839Y0102323D01*
X0200944Y0102311D01*
X0201048Y0102295D01*
X0201151Y0102275D01*
X0201254Y0102251D01*
X0201356Y0102224D01*
X0201456Y0102192D01*
X0201556Y0102157D01*
X0201654Y0102118D01*
X0201750Y0102075D01*
X0201845Y0102029D01*
X0201937Y0101979D01*
X0202028Y0101926D01*
X0202117Y0101869D01*
X0202204Y0101809D01*
X0202288Y0101746D01*
X0202370Y0101680D01*
X0202449Y0101610D01*
X0202526Y0101538D01*
X0202600Y0101463D01*
X0202671Y0101385D01*
X0202738Y0101304D01*
X0202803Y0101221D01*
X0202865Y0101136D01*
X0202923Y0101048D01*
X0202978Y0100958D01*
X0203030Y0100866D01*
X0203078Y0100772D01*
X0203122Y0100677D01*
X0203163Y0100580D01*
X0203200Y0100481D01*
X0203233Y0100381D01*
X0203263Y0100280D01*
X0203289Y0100178D01*
X0203310Y0100075D01*
X0203328Y0099971D01*
X0203342Y0099866D01*
X0203352Y0099762D01*
X0203358Y0099656D01*
X0203360Y0099551D01*
X0203358Y0099446D01*
X0203352Y0099340D01*
X0203342Y0099236D01*
X0203328Y0099131D01*
X0203310Y0099027D01*
X0203289Y0098924D01*
X0203263Y0098822D01*
X0203233Y0098721D01*
X0203200Y0098621D01*
X0203163Y0098522D01*
X0203122Y0098425D01*
X0203078Y0098330D01*
X0203030Y0098236D01*
X0202978Y0098144D01*
X0202923Y0098054D01*
X0202865Y0097966D01*
X0202803Y0097881D01*
X0202738Y0097798D01*
X0202671Y0097717D01*
X0202600Y0097639D01*
X0202526Y0097564D01*
X0202449Y0097492D01*
X0202370Y0097422D01*
X0202288Y0097356D01*
X0202204Y0097293D01*
X0202117Y0097233D01*
X0202028Y0097176D01*
X0201937Y0097123D01*
X0201845Y0097073D01*
X0201750Y0097027D01*
X0201654Y0096984D01*
X0201556Y0096945D01*
X0201456Y0096910D01*
X0201356Y0096878D01*
X0201254Y0096851D01*
X0201151Y0096827D01*
X0201048Y0096807D01*
X0200944Y0096791D01*
X0200839Y0096779D01*
X0200734Y0096771D01*
X0200629Y0096767D01*
X0200523Y0096767D01*
X0200418Y0096771D01*
X0200313Y0096779D01*
X0200208Y0096791D01*
X0200104Y0096807D01*
X0200001Y0096827D01*
X0199898Y0096851D01*
X0199796Y0096878D01*
X0199696Y0096910D01*
X0199596Y0096945D01*
X0199498Y0096984D01*
X0199402Y0097027D01*
X0199307Y0097073D01*
X0199215Y0097123D01*
X0199124Y0097176D01*
X0199035Y0097233D01*
X0198948Y0097293D01*
X0198864Y0097356D01*
X0198782Y0097422D01*
X0198703Y0097492D01*
X0198626Y0097564D01*
X0198552Y0097639D01*
X0198481Y0097717D01*
X0198414Y0097798D01*
X0198349Y0097881D01*
X0198287Y0097966D01*
X0198229Y0098054D01*
X0198174Y0098144D01*
X0198122Y0098236D01*
X0198074Y0098330D01*
X0198030Y0098425D01*
X0197989Y0098522D01*
X0197952Y0098621D01*
X0197919Y0098721D01*
X0197889Y0098822D01*
X0197863Y0098924D01*
X0197842Y0099027D01*
X0197824Y0099131D01*
X0197810Y0099236D01*
X0197800Y0099340D01*
X0197794Y0099446D01*
X0197792Y0099551D01*
D11*
X0198531Y0091486D02*
X0199498Y0090518D01*
X0199498Y0088583D01*
X0200510Y0088583D02*
X0201477Y0088583D01*
X0200994Y0088583D02*
X0200994Y0091486D01*
X0201477Y0091486D02*
X0200510Y0091486D01*
X0199498Y0090035D02*
X0197563Y0090035D01*
X0197563Y0090518D02*
X0198531Y0091486D01*
X0197563Y0090518D02*
X0197563Y0088583D01*
X0202474Y0088583D02*
X0202474Y0091486D01*
X0204409Y0088583D01*
X0204409Y0091486D01*
X0193024Y0082754D02*
X0191089Y0082754D01*
X0192057Y0082754D02*
X0192057Y0079851D01*
X0190078Y0080335D02*
X0190078Y0080819D01*
X0189594Y0081303D01*
X0188626Y0081303D01*
X0188143Y0081786D01*
X0188143Y0082270D01*
X0188626Y0082754D01*
X0189594Y0082754D01*
X0190078Y0082270D01*
X0190078Y0080335D02*
X0189594Y0079851D01*
X0188626Y0079851D01*
X0188143Y0080335D01*
X0187131Y0080335D02*
X0187131Y0082754D01*
X0185196Y0082754D02*
X0185196Y0080335D01*
X0185680Y0079851D01*
X0186647Y0079851D01*
X0187131Y0080335D01*
X0183701Y0080335D02*
X0183701Y0082754D01*
X0183217Y0082754D02*
X0184185Y0082754D01*
X0183701Y0080335D02*
X0183217Y0079851D01*
X0182733Y0079851D01*
X0182250Y0080335D01*
X0181238Y0080335D02*
X0181238Y0082270D01*
X0180754Y0082754D01*
X0179303Y0082754D01*
X0179303Y0079851D01*
X0180754Y0079851D01*
X0181238Y0080335D01*
X0178292Y0079851D02*
X0178292Y0081786D01*
X0177324Y0082754D01*
X0176357Y0081786D01*
X0176357Y0079851D01*
X0176357Y0081303D02*
X0178292Y0081303D01*
X0170146Y0082618D02*
X0167677Y0082618D01*
X0168912Y0083852D02*
X0168912Y0081383D01*
X0159345Y0088002D02*
X0159345Y0088486D01*
X0157410Y0088486D01*
X0156398Y0088002D02*
X0155914Y0088486D01*
X0154947Y0088486D01*
X0154463Y0088002D01*
X0154463Y0086067D01*
X0154947Y0085583D01*
X0155914Y0085583D01*
X0156398Y0086067D01*
X0157410Y0086067D02*
X0157410Y0085583D01*
X0157410Y0086067D02*
X0159345Y0088002D01*
X0146945Y0087051D02*
X0146461Y0087535D01*
X0145010Y0087535D01*
X0145010Y0086567D01*
X0145494Y0086083D01*
X0146461Y0086083D01*
X0146945Y0086567D01*
X0146945Y0087051D01*
X0145977Y0088502D02*
X0145010Y0087535D01*
X0143998Y0087535D02*
X0143514Y0087051D01*
X0142063Y0087051D01*
X0142063Y0086083D02*
X0142063Y0088986D01*
X0143514Y0088986D01*
X0143998Y0088502D01*
X0143998Y0087535D01*
X0143031Y0087051D02*
X0143998Y0086083D01*
X0145977Y0088502D02*
X0146945Y0088986D01*
X0146896Y0094483D02*
X0146896Y0095935D01*
X0146412Y0096418D01*
X0145445Y0096418D01*
X0144961Y0095935D01*
X0144961Y0094483D01*
X0147863Y0094483D01*
X0146896Y0095451D02*
X0147863Y0096418D01*
X0147863Y0097430D02*
X0147863Y0099365D01*
X0147863Y0098397D02*
X0144961Y0098397D01*
X0145928Y0097430D01*
X0139363Y0095181D02*
X0138880Y0095665D01*
X0138396Y0095665D01*
X0137912Y0095181D01*
X0137912Y0093730D01*
X0138880Y0093730D01*
X0139363Y0094214D01*
X0139363Y0095181D01*
X0137912Y0093730D02*
X0136945Y0094697D01*
X0136461Y0095665D01*
X0133963Y0095181D02*
X0131061Y0095181D01*
X0132512Y0093730D01*
X0132512Y0095665D01*
X0131545Y0092718D02*
X0131061Y0092235D01*
X0131061Y0091267D01*
X0131545Y0090783D01*
X0133480Y0090783D01*
X0133963Y0091267D01*
X0133963Y0092235D01*
X0133480Y0092718D01*
X0136461Y0092235D02*
X0136461Y0091267D01*
X0136945Y0090783D01*
X0138880Y0090783D01*
X0139363Y0091267D01*
X0139363Y0092235D01*
X0138880Y0092718D01*
X0136945Y0092718D02*
X0136461Y0092235D01*
X0133661Y0089186D02*
X0132210Y0087735D01*
X0134145Y0087735D01*
X0133661Y0089186D02*
X0133661Y0086283D01*
X0131198Y0086283D02*
X0130231Y0087251D01*
X0130714Y0087251D02*
X0129263Y0087251D01*
X0129263Y0086283D02*
X0129263Y0089186D01*
X0130714Y0089186D01*
X0131198Y0088702D01*
X0131198Y0087735D01*
X0130714Y0087251D01*
X0127980Y0090783D02*
X0126045Y0090783D01*
X0125561Y0091267D01*
X0125561Y0092235D01*
X0126045Y0092718D01*
X0126045Y0093730D02*
X0125561Y0094214D01*
X0125561Y0095181D01*
X0126045Y0095665D01*
X0126528Y0095665D01*
X0128463Y0093730D01*
X0128463Y0095665D01*
X0127980Y0092718D02*
X0128463Y0092235D01*
X0128463Y0091267D01*
X0127980Y0090783D01*
X0113045Y0110083D02*
X0111110Y0110083D01*
X0112077Y0110083D02*
X0112077Y0112986D01*
X0111110Y0112018D01*
X0110098Y0112502D02*
X0109614Y0112986D01*
X0108647Y0112986D01*
X0108163Y0112502D01*
X0108163Y0110567D01*
X0108647Y0110083D01*
X0109614Y0110083D01*
X0110098Y0110567D01*
X0110045Y0116383D02*
X0108110Y0116383D01*
X0109077Y0116383D02*
X0109077Y0119286D01*
X0108110Y0118318D01*
X0107098Y0118802D02*
X0106614Y0119286D01*
X0105647Y0119286D01*
X0105163Y0118802D01*
X0105163Y0116867D01*
X0105647Y0116383D01*
X0106614Y0116383D01*
X0107098Y0116867D01*
X0111056Y0116867D02*
X0111540Y0116383D01*
X0112508Y0116383D01*
X0112991Y0116867D01*
X0112991Y0118802D01*
X0111056Y0116867D01*
X0111056Y0118802D01*
X0111540Y0119286D01*
X0112508Y0119286D01*
X0112991Y0118802D01*
X0121263Y0123383D02*
X0121263Y0126286D01*
X0122714Y0125318D02*
X0121263Y0124351D01*
X0122714Y0123383D01*
X0109591Y0132683D02*
X0107656Y0132683D01*
X0108624Y0132683D02*
X0108624Y0135586D01*
X0107656Y0134618D01*
X0106645Y0132683D02*
X0104710Y0132683D01*
X0105677Y0132683D02*
X0105677Y0135586D01*
X0104710Y0134618D01*
X0103698Y0135102D02*
X0103214Y0135586D01*
X0102247Y0135586D01*
X0101763Y0135102D01*
X0101763Y0133167D01*
X0102247Y0132683D01*
X0103214Y0132683D01*
X0103698Y0133167D01*
X0097563Y0132465D02*
X0097563Y0130530D01*
X0095628Y0132465D01*
X0095145Y0132465D01*
X0094661Y0131981D01*
X0094661Y0131014D01*
X0095145Y0130530D01*
X0095628Y0129518D02*
X0097563Y0129518D01*
X0096112Y0129518D02*
X0096112Y0127583D01*
X0095628Y0127583D02*
X0097563Y0127583D01*
X0095628Y0127583D02*
X0094661Y0128551D01*
X0095628Y0129518D01*
X0099763Y0126586D02*
X0099763Y0123683D01*
X0101214Y0123683D01*
X0101698Y0124167D01*
X0101698Y0126102D01*
X0101214Y0126586D01*
X0099763Y0126586D01*
X0102710Y0126102D02*
X0103194Y0126586D01*
X0104161Y0126586D01*
X0104645Y0126102D01*
X0104645Y0125618D01*
X0102710Y0123683D01*
X0104645Y0123683D01*
X0097563Y0116265D02*
X0097563Y0114330D01*
X0097563Y0115297D02*
X0094661Y0115297D01*
X0095628Y0114330D01*
X0095628Y0113318D02*
X0097563Y0113318D01*
X0096112Y0113318D02*
X0096112Y0111383D01*
X0095628Y0111383D02*
X0097563Y0111383D01*
X0095628Y0111383D02*
X0094661Y0112351D01*
X0095628Y0113318D01*
X0096112Y0135383D02*
X0096112Y0136835D01*
X0096596Y0137318D01*
X0097080Y0137318D01*
X0097563Y0136835D01*
X0097563Y0135383D01*
X0094661Y0135383D01*
X0094661Y0136835D01*
X0095145Y0137318D01*
X0095628Y0137318D01*
X0096112Y0136835D01*
X0095145Y0138330D02*
X0094661Y0138814D01*
X0094661Y0139781D01*
X0095145Y0140265D01*
X0095628Y0140265D01*
X0097563Y0138330D01*
X0097563Y0140265D01*
X0098923Y0142920D02*
X0100374Y0142920D01*
X0100858Y0143404D01*
X0100858Y0145339D01*
X0100374Y0145823D01*
X0098923Y0145823D01*
X0098923Y0142920D01*
X0101870Y0142920D02*
X0102837Y0142920D01*
X0102353Y0142920D02*
X0102353Y0145823D01*
X0101870Y0145823D02*
X0102837Y0145823D01*
X0103834Y0144855D02*
X0104801Y0145823D01*
X0105769Y0144855D01*
X0105769Y0142920D01*
X0106780Y0142920D02*
X0108715Y0142920D01*
X0107748Y0142920D02*
X0107748Y0145823D01*
X0106780Y0144855D01*
X0105769Y0144372D02*
X0103834Y0144372D01*
X0103834Y0144855D02*
X0103834Y0142920D01*
X0103834Y0148920D02*
X0103834Y0150855D01*
X0104801Y0151823D01*
X0105769Y0150855D01*
X0105769Y0148920D01*
X0106780Y0149404D02*
X0108715Y0151339D01*
X0108715Y0149404D01*
X0108232Y0148920D01*
X0107264Y0148920D01*
X0106780Y0149404D01*
X0106780Y0151339D01*
X0107264Y0151823D01*
X0108232Y0151823D01*
X0108715Y0151339D01*
X0105769Y0150372D02*
X0103834Y0150372D01*
X0102837Y0151823D02*
X0101870Y0151823D01*
X0102353Y0151823D02*
X0102353Y0148920D01*
X0101870Y0148920D02*
X0102837Y0148920D01*
X0100858Y0149404D02*
X0100858Y0151339D01*
X0100374Y0151823D01*
X0098923Y0151823D01*
X0098923Y0148920D01*
X0100374Y0148920D01*
X0100858Y0149404D01*
X0097563Y0151583D02*
X0097563Y0153035D01*
X0097080Y0153518D01*
X0096596Y0153518D01*
X0096112Y0153035D01*
X0096112Y0151583D01*
X0097563Y0151583D02*
X0094661Y0151583D01*
X0094661Y0153035D01*
X0095145Y0153518D01*
X0095628Y0153518D01*
X0096112Y0153035D01*
X0095628Y0154530D02*
X0094661Y0155497D01*
X0097563Y0155497D01*
X0097563Y0154530D02*
X0097563Y0156465D01*
X0098384Y0160027D02*
X0098868Y0160027D01*
X0099351Y0160511D01*
X0099351Y0161478D01*
X0099835Y0161962D01*
X0100319Y0161962D01*
X0100803Y0161478D01*
X0100803Y0160511D01*
X0100319Y0160027D01*
X0098384Y0160027D02*
X0097900Y0160511D01*
X0097900Y0161478D01*
X0098384Y0161962D01*
X0097900Y0162974D02*
X0097900Y0164909D01*
X0097900Y0163941D02*
X0100803Y0163941D01*
X0100319Y0165920D02*
X0100803Y0166404D01*
X0100803Y0167371D01*
X0100319Y0167855D01*
X0098384Y0167855D01*
X0097900Y0167371D01*
X0097900Y0166404D01*
X0098384Y0165920D01*
X0100319Y0165920D01*
X0100803Y0168867D02*
X0097900Y0168867D01*
X0097900Y0170318D01*
X0098384Y0170802D01*
X0099351Y0170802D01*
X0099835Y0170318D01*
X0099835Y0168867D01*
X0101447Y0174383D02*
X0100963Y0174867D01*
X0101447Y0174383D02*
X0102414Y0174383D01*
X0102898Y0174867D01*
X0102898Y0175351D01*
X0102414Y0175835D01*
X0101447Y0175835D01*
X0100963Y0176318D01*
X0100963Y0176802D01*
X0101447Y0177286D01*
X0102414Y0177286D01*
X0102898Y0176802D01*
X0103910Y0177286D02*
X0104877Y0176318D01*
X0105845Y0177286D01*
X0105845Y0174383D01*
X0106856Y0174383D02*
X0106856Y0176318D01*
X0107824Y0177286D01*
X0108791Y0176318D01*
X0108791Y0174383D01*
X0109803Y0174383D02*
X0111738Y0174383D01*
X0112749Y0174383D02*
X0114684Y0177286D01*
X0112749Y0177286D02*
X0114684Y0174383D01*
X0111738Y0177286D02*
X0109803Y0177286D01*
X0109803Y0174383D01*
X0109803Y0175835D02*
X0110770Y0175835D01*
X0108791Y0175835D02*
X0106856Y0175835D01*
X0103910Y0177286D02*
X0103910Y0174383D01*
X0120247Y0157186D02*
X0119763Y0156702D01*
X0119763Y0154767D01*
X0120247Y0154283D01*
X0121214Y0154283D01*
X0121698Y0154767D01*
X0122710Y0154767D02*
X0122710Y0155251D01*
X0123194Y0155735D01*
X0124161Y0155735D01*
X0124645Y0155251D01*
X0124645Y0154767D01*
X0124161Y0154283D01*
X0123194Y0154283D01*
X0122710Y0154767D01*
X0123194Y0155735D02*
X0122710Y0156218D01*
X0122710Y0156702D01*
X0123194Y0157186D01*
X0124161Y0157186D01*
X0124645Y0156702D01*
X0124645Y0156218D01*
X0124161Y0155735D01*
X0121698Y0156702D02*
X0121214Y0157186D01*
X0120247Y0157186D01*
X0126185Y0149650D02*
X0126669Y0149650D01*
X0127153Y0149166D01*
X0127637Y0149650D01*
X0128120Y0149650D01*
X0128604Y0149166D01*
X0128604Y0148199D01*
X0128120Y0147715D01*
X0128120Y0146703D02*
X0128604Y0146220D01*
X0128604Y0145252D01*
X0128120Y0144768D01*
X0126185Y0144768D01*
X0125702Y0145252D01*
X0125702Y0146220D01*
X0126185Y0146703D01*
X0126185Y0147715D02*
X0125702Y0148199D01*
X0125702Y0149166D01*
X0126185Y0149650D01*
X0127153Y0149166D02*
X0127153Y0148682D01*
X0126702Y0139692D02*
X0125735Y0139692D01*
X0126218Y0139692D02*
X0126218Y0136790D01*
X0125735Y0136790D02*
X0126702Y0136790D01*
X0127699Y0137273D02*
X0128183Y0136790D01*
X0129150Y0136790D01*
X0129634Y0137273D01*
X0130645Y0136790D02*
X0132580Y0136790D01*
X0131613Y0136790D02*
X0131613Y0139692D01*
X0130645Y0138725D01*
X0129634Y0139208D02*
X0129150Y0139692D01*
X0128183Y0139692D01*
X0127699Y0139208D01*
X0127699Y0137273D01*
X0138261Y0149083D02*
X0138261Y0150535D01*
X0138745Y0151018D01*
X0139712Y0151018D01*
X0140196Y0150535D01*
X0140196Y0149083D01*
X0141163Y0149083D02*
X0138261Y0149083D01*
X0140196Y0150051D02*
X0141163Y0151018D01*
X0141163Y0152030D02*
X0139228Y0153965D01*
X0138745Y0153965D01*
X0138261Y0153481D01*
X0138261Y0152514D01*
X0138745Y0152030D01*
X0141163Y0152030D02*
X0141163Y0153965D01*
X0165663Y0141886D02*
X0165663Y0138983D01*
X0165663Y0139951D02*
X0167114Y0140918D01*
X0165663Y0139951D02*
X0167114Y0138983D01*
X0167398Y0136175D02*
X0167398Y0134240D01*
X0167398Y0135208D02*
X0164495Y0135208D01*
X0165463Y0134240D01*
X0164979Y0133229D02*
X0164495Y0132745D01*
X0164495Y0131294D01*
X0167398Y0131294D01*
X0167398Y0132745D01*
X0166914Y0133229D01*
X0164979Y0133229D01*
X0168963Y0127574D02*
X0169647Y0127574D01*
X0169989Y0127232D01*
X0169989Y0126548D01*
X0170673Y0126548D01*
X0171015Y0126206D01*
X0171015Y0125522D01*
X0170331Y0124838D01*
X0169647Y0124838D01*
X0168932Y0124123D02*
X0168248Y0124807D01*
X0167563Y0124123D01*
X0166195Y0124123D02*
X0167563Y0122755D01*
X0168248Y0122755D01*
X0168932Y0123439D01*
X0168932Y0124123D01*
X0167563Y0125491D02*
X0166879Y0125491D01*
X0166195Y0124807D01*
X0166195Y0124123D01*
X0165138Y0123750D02*
X0163770Y0122381D01*
X0165822Y0120329D01*
X0164765Y0119956D02*
X0164765Y0119272D01*
X0164080Y0118588D01*
X0163396Y0118588D01*
X0162028Y0119956D01*
X0162028Y0120640D01*
X0162712Y0121324D01*
X0163396Y0121324D01*
X0164796Y0121355D02*
X0165480Y0122039D01*
X0168279Y0126206D02*
X0168279Y0126890D01*
X0168963Y0127574D01*
X0169989Y0126548D02*
X0169647Y0126206D01*
X0172870Y0122381D02*
X0174238Y0123750D01*
X0175295Y0124123D02*
X0176663Y0122755D01*
X0177348Y0122755D01*
X0178032Y0123439D01*
X0178032Y0124123D01*
X0177348Y0124807D01*
X0176663Y0124123D01*
X0175295Y0124123D02*
X0175295Y0124807D01*
X0175979Y0125491D01*
X0176663Y0125491D01*
X0177379Y0126206D02*
X0177379Y0126890D01*
X0178063Y0127574D01*
X0178747Y0127574D01*
X0179089Y0127232D01*
X0179089Y0124496D01*
X0180457Y0125864D01*
X0183438Y0124250D02*
X0182070Y0122881D01*
X0184122Y0120829D01*
X0183065Y0120456D02*
X0183065Y0119772D01*
X0182380Y0119088D01*
X0181696Y0119088D01*
X0180328Y0120456D01*
X0180328Y0121140D01*
X0181012Y0121824D01*
X0181696Y0121824D01*
X0183096Y0121855D02*
X0183780Y0122539D01*
X0185863Y0123255D02*
X0184495Y0124623D01*
X0184495Y0125307D01*
X0185179Y0125991D01*
X0185863Y0125991D01*
X0186548Y0125307D02*
X0185863Y0124623D01*
X0186548Y0125307D02*
X0187232Y0124623D01*
X0187232Y0123939D01*
X0186548Y0123255D01*
X0185863Y0123255D01*
X0188289Y0124996D02*
X0189657Y0126364D01*
X0188973Y0125680D02*
X0186921Y0127732D01*
X0186921Y0126364D01*
X0187947Y0129783D02*
X0188914Y0129783D01*
X0189398Y0130267D01*
X0190410Y0130267D02*
X0190894Y0129783D01*
X0191861Y0129783D01*
X0192345Y0130267D01*
X0192345Y0132202D01*
X0191861Y0132686D01*
X0190894Y0132686D01*
X0190410Y0132202D01*
X0190410Y0131718D01*
X0190894Y0131235D01*
X0192345Y0131235D01*
X0189398Y0132202D02*
X0188914Y0132686D01*
X0187947Y0132686D01*
X0187463Y0132202D01*
X0187463Y0130267D01*
X0187947Y0129783D01*
X0187663Y0135783D02*
X0189598Y0135783D01*
X0190610Y0135783D02*
X0192545Y0135783D01*
X0191577Y0135783D02*
X0191577Y0138686D01*
X0190610Y0137718D01*
X0187663Y0138686D02*
X0187663Y0135783D01*
X0174580Y0122039D02*
X0173896Y0121355D01*
X0173865Y0119956D02*
X0173865Y0119272D01*
X0173180Y0118588D01*
X0172496Y0118588D01*
X0171128Y0119956D01*
X0171128Y0120640D01*
X0171812Y0121324D01*
X0172496Y0121324D01*
X0172870Y0122381D02*
X0174922Y0120329D01*
X0190163Y0116186D02*
X0190163Y0113283D01*
X0190163Y0114251D02*
X0191614Y0114251D01*
X0192098Y0114735D01*
X0192098Y0115702D01*
X0191614Y0116186D01*
X0190163Y0116186D01*
X0191131Y0114251D02*
X0192098Y0113283D01*
X0193110Y0113767D02*
X0193594Y0113283D01*
X0194561Y0113283D01*
X0195045Y0113767D01*
X0195045Y0114251D01*
X0194561Y0114735D01*
X0194077Y0114735D01*
X0194561Y0114735D02*
X0195045Y0115218D01*
X0195045Y0115702D01*
X0194561Y0116186D01*
X0193594Y0116186D01*
X0193110Y0115702D01*
X0168312Y0100052D02*
X0168312Y0097583D01*
X0169897Y0151883D02*
X0170864Y0151883D01*
X0171348Y0152367D01*
X0172360Y0151883D02*
X0172360Y0154786D01*
X0174295Y0154786D01*
X0175306Y0154302D02*
X0175306Y0152367D01*
X0175790Y0151883D01*
X0176758Y0151883D01*
X0177241Y0152367D01*
X0177241Y0153335D01*
X0176274Y0153335D01*
X0177241Y0154302D02*
X0176758Y0154786D01*
X0175790Y0154786D01*
X0175306Y0154302D01*
X0173327Y0153335D02*
X0172360Y0153335D01*
X0171348Y0154302D02*
X0170864Y0154786D01*
X0169897Y0154786D01*
X0169413Y0154302D01*
X0169413Y0152367D01*
X0169897Y0151883D01*
X0178253Y0152367D02*
X0178737Y0151883D01*
X0179704Y0151883D01*
X0180188Y0152367D01*
X0180188Y0152851D01*
X0179704Y0153335D01*
X0178253Y0153335D01*
X0178253Y0152367D01*
X0178253Y0153335D02*
X0179220Y0154302D01*
X0180188Y0154786D01*
X0160352Y0184546D02*
X0159385Y0184546D01*
X0158901Y0185030D01*
X0158901Y0185998D02*
X0159869Y0186481D01*
X0160352Y0186481D01*
X0160836Y0185998D01*
X0160836Y0185030D01*
X0160352Y0184546D01*
X0158901Y0185998D02*
X0158901Y0187449D01*
X0160836Y0187449D01*
X0157890Y0186965D02*
X0157406Y0187449D01*
X0156438Y0187449D01*
X0155955Y0186965D01*
X0155955Y0185030D01*
X0156438Y0184546D01*
X0157406Y0184546D01*
X0157890Y0185030D01*
D12*
X0155349Y0187307D02*
X0155349Y0164866D01*
X0152199Y0161717D01*
X0159910Y0161320D02*
X0159910Y0164390D01*
X0161444Y0165924D01*
X0162979Y0164390D01*
X0162979Y0161320D01*
X0164514Y0161320D02*
X0167583Y0165924D01*
X0169118Y0165924D02*
X0170652Y0165924D01*
X0169885Y0165924D02*
X0169885Y0161320D01*
X0169118Y0161320D02*
X0170652Y0161320D01*
X0172187Y0162088D02*
X0172954Y0161320D01*
X0174489Y0161320D01*
X0175256Y0162088D01*
X0175256Y0162855D01*
X0174489Y0163622D01*
X0172954Y0163622D01*
X0172187Y0164390D01*
X0172187Y0165157D01*
X0172954Y0165924D01*
X0174489Y0165924D01*
X0175256Y0165157D01*
X0169118Y0168820D02*
X0166048Y0173424D01*
X0169118Y0173424D02*
X0166048Y0168820D01*
X0164514Y0165924D02*
X0167583Y0161320D01*
X0162979Y0163622D02*
X0159910Y0163622D01*
X0145899Y0162799D02*
X0146185Y0162884D01*
X0146468Y0162975D01*
X0146749Y0163074D01*
X0147027Y0163179D01*
X0147303Y0163291D01*
X0147576Y0163410D01*
X0147846Y0163536D01*
X0148112Y0163668D01*
X0148376Y0163806D01*
X0148636Y0163951D01*
X0148892Y0164103D01*
X0149145Y0164260D01*
X0149393Y0164424D01*
X0149638Y0164593D01*
X0149878Y0164769D01*
X0150114Y0164950D01*
X0150346Y0165137D01*
X0150573Y0165330D01*
X0150795Y0165528D01*
X0151012Y0165731D01*
X0151224Y0165940D01*
X0151431Y0166154D01*
X0151633Y0166373D01*
X0151829Y0166596D01*
X0152020Y0166825D01*
X0152205Y0167058D01*
X0152385Y0167295D01*
X0152558Y0167537D01*
X0152726Y0167783D01*
X0152887Y0168033D01*
X0153043Y0168287D01*
X0153192Y0168545D01*
X0153335Y0168806D01*
X0153471Y0169070D01*
X0153601Y0169338D01*
X0153724Y0169609D01*
X0153841Y0169883D01*
X0153951Y0170159D01*
X0154054Y0170439D01*
X0154150Y0170720D01*
X0154239Y0171004D01*
X0154322Y0171290D01*
X0154397Y0171578D01*
X0154466Y0171868D01*
X0154527Y0172159D01*
X0154581Y0172452D01*
X0154628Y0172746D01*
X0154668Y0173041D01*
X0154700Y0173336D01*
X0154726Y0173633D01*
X0154744Y0173930D01*
X0154754Y0174228D01*
X0154758Y0174525D01*
X0154754Y0174823D01*
X0154743Y0175120D01*
X0154725Y0175417D01*
X0154699Y0175714D01*
X0154667Y0176010D01*
X0154627Y0176305D01*
X0154580Y0176598D01*
X0154525Y0176891D01*
X0154464Y0177182D01*
X0154395Y0177472D01*
X0154320Y0177760D01*
X0154237Y0178046D01*
X0154148Y0178330D01*
X0154051Y0178611D01*
X0153948Y0178890D01*
X0153838Y0179167D01*
X0153721Y0179441D01*
X0153597Y0179711D01*
X0153467Y0179979D01*
X0153331Y0180244D01*
X0153188Y0180505D01*
X0153038Y0180762D01*
X0152883Y0181016D01*
X0152721Y0181266D01*
X0152553Y0181511D01*
X0152380Y0181753D01*
X0152200Y0181991D01*
X0152015Y0182223D01*
X0151824Y0182452D01*
X0151627Y0182675D01*
X0151425Y0182894D01*
X0151218Y0183108D01*
X0151006Y0183316D01*
X0150789Y0183520D01*
X0150566Y0183718D01*
X0150339Y0183910D01*
X0150108Y0184097D01*
X0149872Y0184278D01*
X0149631Y0184454D01*
X0149386Y0184623D01*
X0149138Y0184786D01*
X0148885Y0184944D01*
X0148629Y0185095D01*
X0148368Y0185240D01*
X0148105Y0185378D01*
X0147838Y0185510D01*
X0147568Y0185635D01*
X0147295Y0185754D01*
X0147019Y0185866D01*
X0146741Y0185971D01*
X0146460Y0186069D01*
X0146177Y0186161D01*
X0145892Y0186245D01*
X0145604Y0186323D01*
X0145703Y0187307D02*
X0155349Y0187307D01*
X0139798Y0187307D02*
X0129758Y0187307D01*
X0129758Y0164866D01*
X0132908Y0161717D01*
X0139502Y0162701D02*
X0139214Y0162779D01*
X0138929Y0162863D01*
X0138646Y0162955D01*
X0138365Y0163053D01*
X0138087Y0163158D01*
X0137811Y0163270D01*
X0137538Y0163389D01*
X0137268Y0163514D01*
X0137001Y0163646D01*
X0136738Y0163784D01*
X0136477Y0163929D01*
X0136221Y0164080D01*
X0135968Y0164238D01*
X0135720Y0164401D01*
X0135475Y0164570D01*
X0135234Y0164746D01*
X0134998Y0164927D01*
X0134767Y0165114D01*
X0134540Y0165306D01*
X0134317Y0165504D01*
X0134100Y0165708D01*
X0133888Y0165916D01*
X0133681Y0166130D01*
X0133479Y0166349D01*
X0133282Y0166572D01*
X0133091Y0166801D01*
X0132906Y0167033D01*
X0132726Y0167271D01*
X0132553Y0167513D01*
X0132385Y0167758D01*
X0132223Y0168008D01*
X0132068Y0168262D01*
X0131918Y0168519D01*
X0131775Y0168780D01*
X0131639Y0169045D01*
X0131509Y0169313D01*
X0131385Y0169583D01*
X0131268Y0169857D01*
X0131158Y0170134D01*
X0131055Y0170413D01*
X0130958Y0170694D01*
X0130869Y0170978D01*
X0130786Y0171264D01*
X0130711Y0171552D01*
X0130642Y0171842D01*
X0130581Y0172133D01*
X0130526Y0172426D01*
X0130479Y0172719D01*
X0130439Y0173014D01*
X0130407Y0173310D01*
X0130381Y0173607D01*
X0130363Y0173904D01*
X0130352Y0174201D01*
X0130348Y0174499D01*
X0130352Y0174796D01*
X0130362Y0175094D01*
X0130380Y0175391D01*
X0130406Y0175688D01*
X0130438Y0175983D01*
X0130478Y0176278D01*
X0130525Y0176572D01*
X0130579Y0176865D01*
X0130640Y0177156D01*
X0130709Y0177446D01*
X0130784Y0177734D01*
X0130867Y0178020D01*
X0130956Y0178304D01*
X0131052Y0178585D01*
X0131155Y0178865D01*
X0131265Y0179141D01*
X0131382Y0179415D01*
X0131505Y0179686D01*
X0131635Y0179954D01*
X0131771Y0180218D01*
X0131914Y0180479D01*
X0132063Y0180737D01*
X0132219Y0180991D01*
X0132380Y0181241D01*
X0132548Y0181487D01*
X0132721Y0181729D01*
X0132901Y0181966D01*
X0133086Y0182199D01*
X0133277Y0182428D01*
X0133473Y0182651D01*
X0133675Y0182870D01*
X0133882Y0183084D01*
X0134094Y0183293D01*
X0134311Y0183496D01*
X0134533Y0183694D01*
X0134760Y0183887D01*
X0134992Y0184074D01*
X0135228Y0184255D01*
X0135468Y0184431D01*
X0135713Y0184600D01*
X0135961Y0184764D01*
X0136214Y0184921D01*
X0136470Y0185073D01*
X0136730Y0185218D01*
X0136994Y0185356D01*
X0137260Y0185488D01*
X0137530Y0185614D01*
X0137803Y0185733D01*
X0138079Y0185845D01*
X0138357Y0185950D01*
X0138638Y0186049D01*
X0138921Y0186140D01*
X0139207Y0186225D01*
D13*
X0158070Y0166433D02*
X0158073Y0166675D01*
X0158082Y0166916D01*
X0158097Y0167157D01*
X0158117Y0167398D01*
X0158144Y0167638D01*
X0158177Y0167877D01*
X0158215Y0168116D01*
X0158259Y0168353D01*
X0158309Y0168590D01*
X0158365Y0168825D01*
X0158427Y0169058D01*
X0158494Y0169290D01*
X0158567Y0169521D01*
X0158645Y0169749D01*
X0158730Y0169975D01*
X0158819Y0170200D01*
X0158914Y0170422D01*
X0159015Y0170641D01*
X0159121Y0170859D01*
X0159232Y0171073D01*
X0159349Y0171285D01*
X0159470Y0171493D01*
X0159597Y0171699D01*
X0159729Y0171901D01*
X0159866Y0172101D01*
X0160007Y0172296D01*
X0160153Y0172489D01*
X0160304Y0172677D01*
X0160460Y0172862D01*
X0160620Y0173043D01*
X0160784Y0173220D01*
X0160953Y0173393D01*
X0161126Y0173562D01*
X0161303Y0173726D01*
X0161484Y0173886D01*
X0161669Y0174042D01*
X0161857Y0174193D01*
X0162050Y0174339D01*
X0162245Y0174480D01*
X0162445Y0174617D01*
X0162647Y0174749D01*
X0162853Y0174876D01*
X0163061Y0174997D01*
X0163273Y0175114D01*
X0163487Y0175225D01*
X0163705Y0175331D01*
X0163924Y0175432D01*
X0164146Y0175527D01*
X0164371Y0175616D01*
X0164597Y0175701D01*
X0164825Y0175779D01*
X0165056Y0175852D01*
X0165288Y0175919D01*
X0165521Y0175981D01*
X0165756Y0176037D01*
X0165993Y0176087D01*
X0166230Y0176131D01*
X0166469Y0176169D01*
X0166708Y0176202D01*
X0166948Y0176229D01*
X0167189Y0176249D01*
X0167430Y0176264D01*
X0167671Y0176273D01*
X0167913Y0176276D01*
X0168155Y0176273D01*
X0168396Y0176264D01*
X0168637Y0176249D01*
X0168878Y0176229D01*
X0169118Y0176202D01*
X0169357Y0176169D01*
X0169596Y0176131D01*
X0169833Y0176087D01*
X0170070Y0176037D01*
X0170305Y0175981D01*
X0170538Y0175919D01*
X0170770Y0175852D01*
X0171001Y0175779D01*
X0171229Y0175701D01*
X0171455Y0175616D01*
X0171680Y0175527D01*
X0171902Y0175432D01*
X0172121Y0175331D01*
X0172339Y0175225D01*
X0172553Y0175114D01*
X0172765Y0174997D01*
X0172973Y0174876D01*
X0173179Y0174749D01*
X0173381Y0174617D01*
X0173581Y0174480D01*
X0173776Y0174339D01*
X0173969Y0174193D01*
X0174157Y0174042D01*
X0174342Y0173886D01*
X0174523Y0173726D01*
X0174700Y0173562D01*
X0174873Y0173393D01*
X0175042Y0173220D01*
X0175206Y0173043D01*
X0175366Y0172862D01*
X0175522Y0172677D01*
X0175673Y0172489D01*
X0175819Y0172296D01*
X0175960Y0172101D01*
X0176097Y0171901D01*
X0176229Y0171699D01*
X0176356Y0171493D01*
X0176477Y0171285D01*
X0176594Y0171073D01*
X0176705Y0170859D01*
X0176811Y0170641D01*
X0176912Y0170422D01*
X0177007Y0170200D01*
X0177096Y0169975D01*
X0177181Y0169749D01*
X0177259Y0169521D01*
X0177332Y0169290D01*
X0177399Y0169058D01*
X0177461Y0168825D01*
X0177517Y0168590D01*
X0177567Y0168353D01*
X0177611Y0168116D01*
X0177649Y0167877D01*
X0177682Y0167638D01*
X0177709Y0167398D01*
X0177729Y0167157D01*
X0177744Y0166916D01*
X0177753Y0166675D01*
X0177756Y0166433D01*
X0177753Y0166191D01*
X0177744Y0165950D01*
X0177729Y0165709D01*
X0177709Y0165468D01*
X0177682Y0165228D01*
X0177649Y0164989D01*
X0177611Y0164750D01*
X0177567Y0164513D01*
X0177517Y0164276D01*
X0177461Y0164041D01*
X0177399Y0163808D01*
X0177332Y0163576D01*
X0177259Y0163345D01*
X0177181Y0163117D01*
X0177096Y0162891D01*
X0177007Y0162666D01*
X0176912Y0162444D01*
X0176811Y0162225D01*
X0176705Y0162007D01*
X0176594Y0161793D01*
X0176477Y0161581D01*
X0176356Y0161373D01*
X0176229Y0161167D01*
X0176097Y0160965D01*
X0175960Y0160765D01*
X0175819Y0160570D01*
X0175673Y0160377D01*
X0175522Y0160189D01*
X0175366Y0160004D01*
X0175206Y0159823D01*
X0175042Y0159646D01*
X0174873Y0159473D01*
X0174700Y0159304D01*
X0174523Y0159140D01*
X0174342Y0158980D01*
X0174157Y0158824D01*
X0173969Y0158673D01*
X0173776Y0158527D01*
X0173581Y0158386D01*
X0173381Y0158249D01*
X0173179Y0158117D01*
X0172973Y0157990D01*
X0172765Y0157869D01*
X0172553Y0157752D01*
X0172339Y0157641D01*
X0172121Y0157535D01*
X0171902Y0157434D01*
X0171680Y0157339D01*
X0171455Y0157250D01*
X0171229Y0157165D01*
X0171001Y0157087D01*
X0170770Y0157014D01*
X0170538Y0156947D01*
X0170305Y0156885D01*
X0170070Y0156829D01*
X0169833Y0156779D01*
X0169596Y0156735D01*
X0169357Y0156697D01*
X0169118Y0156664D01*
X0168878Y0156637D01*
X0168637Y0156617D01*
X0168396Y0156602D01*
X0168155Y0156593D01*
X0167913Y0156590D01*
X0167671Y0156593D01*
X0167430Y0156602D01*
X0167189Y0156617D01*
X0166948Y0156637D01*
X0166708Y0156664D01*
X0166469Y0156697D01*
X0166230Y0156735D01*
X0165993Y0156779D01*
X0165756Y0156829D01*
X0165521Y0156885D01*
X0165288Y0156947D01*
X0165056Y0157014D01*
X0164825Y0157087D01*
X0164597Y0157165D01*
X0164371Y0157250D01*
X0164146Y0157339D01*
X0163924Y0157434D01*
X0163705Y0157535D01*
X0163487Y0157641D01*
X0163273Y0157752D01*
X0163061Y0157869D01*
X0162853Y0157990D01*
X0162647Y0158117D01*
X0162445Y0158249D01*
X0162245Y0158386D01*
X0162050Y0158527D01*
X0161857Y0158673D01*
X0161669Y0158824D01*
X0161484Y0158980D01*
X0161303Y0159140D01*
X0161126Y0159304D01*
X0160953Y0159473D01*
X0160784Y0159646D01*
X0160620Y0159823D01*
X0160460Y0160004D01*
X0160304Y0160189D01*
X0160153Y0160377D01*
X0160007Y0160570D01*
X0159866Y0160765D01*
X0159729Y0160965D01*
X0159597Y0161167D01*
X0159470Y0161373D01*
X0159349Y0161581D01*
X0159232Y0161793D01*
X0159121Y0162007D01*
X0159015Y0162225D01*
X0158914Y0162444D01*
X0158819Y0162666D01*
X0158730Y0162891D01*
X0158645Y0163117D01*
X0158567Y0163345D01*
X0158494Y0163576D01*
X0158427Y0163808D01*
X0158365Y0164041D01*
X0158309Y0164276D01*
X0158259Y0164513D01*
X0158215Y0164750D01*
X0158177Y0164989D01*
X0158144Y0165228D01*
X0158117Y0165468D01*
X0158097Y0165709D01*
X0158082Y0165950D01*
X0158073Y0166191D01*
X0158070Y0166433D01*
X0172713Y0101033D02*
X0175113Y0099233D01*
X0173313Y0097433D01*
X0175113Y0099233D02*
X0174969Y0099247D01*
X0174825Y0099257D01*
X0174680Y0099263D01*
X0174536Y0099266D01*
X0174391Y0099265D01*
X0174246Y0099259D01*
X0174102Y0099250D01*
X0173958Y0099238D01*
X0173814Y0099221D01*
X0173671Y0099200D01*
X0173529Y0099176D01*
X0173387Y0099148D01*
X0173246Y0099116D01*
X0173105Y0099080D01*
X0172966Y0099041D01*
X0172828Y0098998D01*
X0172691Y0098951D01*
X0172556Y0098901D01*
X0172421Y0098847D01*
X0172289Y0098790D01*
X0172157Y0098729D01*
X0172028Y0098664D01*
X0171900Y0098597D01*
X0171774Y0098525D01*
X0171650Y0098451D01*
X0171529Y0098373D01*
X0171409Y0098292D01*
X0171291Y0098208D01*
X0171176Y0098120D01*
X0171063Y0098030D01*
X0170952Y0097937D01*
X0170844Y0097840D01*
X0170739Y0097741D01*
X0170636Y0097639D01*
X0170536Y0097535D01*
X0170439Y0097428D01*
X0170345Y0097318D01*
X0170254Y0097206D01*
X0170165Y0097091D01*
X0170080Y0096974D01*
X0169998Y0096855D01*
X0169919Y0096734D01*
X0169844Y0096611D01*
X0169771Y0096485D01*
X0169702Y0096358D01*
X0169637Y0096229D01*
X0169575Y0096099D01*
X0169516Y0095966D01*
X0169461Y0095833D01*
X0169410Y0095697D01*
X0169362Y0095561D01*
X0169318Y0095423D01*
X0169277Y0095284D01*
X0169241Y0095144D01*
X0169208Y0095004D01*
X0169178Y0094862D01*
X0169153Y0094720D01*
X0169131Y0094577D01*
X0169113Y0094433D01*
X0169113Y0088433D02*
X0169115Y0088287D01*
X0169121Y0088141D01*
X0169131Y0087995D01*
X0169145Y0087849D01*
X0169162Y0087704D01*
X0169184Y0087559D01*
X0169210Y0087415D01*
X0169239Y0087272D01*
X0169273Y0087130D01*
X0169310Y0086988D01*
X0169351Y0086848D01*
X0169396Y0086709D01*
X0169444Y0086571D01*
X0169497Y0086434D01*
X0169552Y0086299D01*
X0169612Y0086166D01*
X0169675Y0086034D01*
X0169742Y0085904D01*
X0169812Y0085775D01*
X0169886Y0085649D01*
X0169963Y0085525D01*
X0170043Y0085403D01*
X0170127Y0085283D01*
X0170214Y0085165D01*
X0170304Y0085050D01*
X0170397Y0084937D01*
X0170494Y0084827D01*
X0170593Y0084719D01*
X0170695Y0084615D01*
X0170799Y0084513D01*
X0170907Y0084414D01*
X0171017Y0084317D01*
X0171130Y0084224D01*
X0171245Y0084134D01*
X0171363Y0084047D01*
X0171483Y0083963D01*
X0171605Y0083883D01*
X0171729Y0083806D01*
X0171855Y0083732D01*
X0171984Y0083662D01*
X0172114Y0083595D01*
X0172246Y0083532D01*
X0172379Y0083472D01*
X0172514Y0083417D01*
X0172651Y0083364D01*
X0172789Y0083316D01*
X0172928Y0083271D01*
X0173068Y0083230D01*
X0173210Y0083193D01*
X0173352Y0083159D01*
X0173495Y0083130D01*
X0173639Y0083104D01*
X0173784Y0083082D01*
X0173929Y0083065D01*
X0174075Y0083051D01*
X0174221Y0083041D01*
X0174367Y0083035D01*
X0174513Y0083033D01*
X0172713Y0081833D01*
X0174513Y0083033D02*
X0173313Y0084833D01*
D14*
X0176572Y0084298D02*
X0176572Y0087615D01*
X0176572Y0084298D02*
X0187388Y0084298D01*
X0191138Y0089298D02*
X0191138Y0093865D01*
X0187388Y0098865D02*
X0176572Y0098865D01*
X0176572Y0095548D01*
X0178076Y0110984D02*
X0178076Y0117283D01*
X0178075Y0117283D02*
X0178090Y0117344D01*
X0178108Y0117405D01*
X0178130Y0117464D01*
X0178155Y0117522D01*
X0178185Y0117577D01*
X0178217Y0117631D01*
X0178253Y0117683D01*
X0178292Y0117733D01*
X0178334Y0117780D01*
X0178379Y0117824D01*
X0178427Y0117865D01*
X0178477Y0117903D01*
X0178530Y0117938D01*
X0178584Y0117970D01*
X0178641Y0117998D01*
X0178699Y0118023D01*
X0178758Y0118044D01*
X0178819Y0118061D01*
X0178881Y0118074D01*
X0178943Y0118083D01*
X0179006Y0118089D01*
X0179069Y0118090D01*
X0179132Y0118087D01*
X0179195Y0118081D01*
X0179257Y0118071D01*
X0176750Y0117383D02*
X0176750Y0111084D01*
X0176751Y0111084D02*
X0176737Y0111025D01*
X0176720Y0110967D01*
X0176699Y0110910D01*
X0176675Y0110854D01*
X0176647Y0110800D01*
X0176617Y0110748D01*
X0176583Y0110697D01*
X0176546Y0110649D01*
X0176507Y0110603D01*
X0176464Y0110560D01*
X0176420Y0110519D01*
X0176372Y0110481D01*
X0176323Y0110446D01*
X0176271Y0110414D01*
X0176218Y0110385D01*
X0176163Y0110359D01*
X0176107Y0110337D01*
X0176049Y0110318D01*
X0175990Y0110302D01*
X0175931Y0110291D01*
X0175871Y0110282D01*
X0175810Y0110278D01*
X0175750Y0110277D01*
X0175689Y0110280D01*
X0175629Y0110286D01*
X0175569Y0110296D01*
X0170057Y0110296D02*
X0169995Y0110286D01*
X0169932Y0110280D01*
X0169869Y0110277D01*
X0169806Y0110278D01*
X0169743Y0110284D01*
X0169681Y0110293D01*
X0169619Y0110306D01*
X0169558Y0110323D01*
X0169499Y0110344D01*
X0169441Y0110369D01*
X0169384Y0110397D01*
X0169330Y0110429D01*
X0169277Y0110464D01*
X0169227Y0110502D01*
X0169179Y0110543D01*
X0169134Y0110587D01*
X0169092Y0110634D01*
X0169053Y0110684D01*
X0169017Y0110736D01*
X0168985Y0110790D01*
X0168955Y0110845D01*
X0168930Y0110903D01*
X0168908Y0110962D01*
X0168890Y0111023D01*
X0168875Y0111084D01*
X0168876Y0111084D02*
X0168876Y0117383D01*
X0168875Y0117383D02*
X0168890Y0117444D01*
X0168908Y0117505D01*
X0168930Y0117564D01*
X0168955Y0117622D01*
X0168985Y0117677D01*
X0169017Y0117731D01*
X0169053Y0117783D01*
X0169092Y0117833D01*
X0169134Y0117880D01*
X0169179Y0117924D01*
X0169227Y0117965D01*
X0169277Y0118003D01*
X0169330Y0118038D01*
X0169384Y0118070D01*
X0169441Y0118098D01*
X0169499Y0118123D01*
X0169558Y0118144D01*
X0169619Y0118161D01*
X0169681Y0118174D01*
X0169743Y0118183D01*
X0169806Y0118189D01*
X0169869Y0118190D01*
X0169932Y0118187D01*
X0169995Y0118181D01*
X0170057Y0118171D01*
X0167650Y0117383D02*
X0167650Y0111084D01*
X0167651Y0111084D02*
X0167637Y0111025D01*
X0167620Y0110967D01*
X0167599Y0110910D01*
X0167575Y0110854D01*
X0167547Y0110800D01*
X0167517Y0110748D01*
X0167483Y0110697D01*
X0167446Y0110649D01*
X0167407Y0110603D01*
X0167364Y0110560D01*
X0167320Y0110519D01*
X0167272Y0110481D01*
X0167223Y0110446D01*
X0167171Y0110414D01*
X0167118Y0110385D01*
X0167063Y0110359D01*
X0167007Y0110337D01*
X0166949Y0110318D01*
X0166890Y0110302D01*
X0166831Y0110291D01*
X0166771Y0110282D01*
X0166710Y0110278D01*
X0166650Y0110277D01*
X0166589Y0110280D01*
X0166529Y0110286D01*
X0166469Y0110296D01*
X0160957Y0110296D02*
X0160895Y0110286D01*
X0160832Y0110280D01*
X0160769Y0110277D01*
X0160706Y0110278D01*
X0160643Y0110284D01*
X0160581Y0110293D01*
X0160519Y0110306D01*
X0160458Y0110323D01*
X0160399Y0110344D01*
X0160341Y0110369D01*
X0160284Y0110397D01*
X0160230Y0110429D01*
X0160177Y0110464D01*
X0160127Y0110502D01*
X0160079Y0110543D01*
X0160034Y0110587D01*
X0159992Y0110634D01*
X0159953Y0110684D01*
X0159917Y0110736D01*
X0159885Y0110790D01*
X0159855Y0110845D01*
X0159830Y0110903D01*
X0159808Y0110962D01*
X0159790Y0111023D01*
X0159775Y0111084D01*
X0159776Y0111084D02*
X0159776Y0117383D01*
X0159775Y0117383D02*
X0159790Y0117444D01*
X0159808Y0117505D01*
X0159830Y0117564D01*
X0159855Y0117622D01*
X0159885Y0117677D01*
X0159917Y0117731D01*
X0159953Y0117783D01*
X0159992Y0117833D01*
X0160034Y0117880D01*
X0160079Y0117924D01*
X0160127Y0117965D01*
X0160177Y0118003D01*
X0160230Y0118038D01*
X0160284Y0118070D01*
X0160341Y0118098D01*
X0160399Y0118123D01*
X0160458Y0118144D01*
X0160519Y0118161D01*
X0160581Y0118174D01*
X0160643Y0118183D01*
X0160706Y0118189D01*
X0160769Y0118190D01*
X0160832Y0118187D01*
X0160895Y0118181D01*
X0160957Y0118171D01*
X0166469Y0118171D02*
X0166529Y0118181D01*
X0166589Y0118187D01*
X0166650Y0118190D01*
X0166710Y0118189D01*
X0166771Y0118185D01*
X0166831Y0118176D01*
X0166890Y0118165D01*
X0166949Y0118149D01*
X0167007Y0118130D01*
X0167063Y0118108D01*
X0167118Y0118082D01*
X0167171Y0118053D01*
X0167223Y0118021D01*
X0167272Y0117986D01*
X0167320Y0117948D01*
X0167364Y0117907D01*
X0167407Y0117864D01*
X0167446Y0117818D01*
X0167483Y0117770D01*
X0167517Y0117719D01*
X0167547Y0117667D01*
X0167575Y0117613D01*
X0167599Y0117557D01*
X0167620Y0117500D01*
X0167637Y0117442D01*
X0167651Y0117383D01*
X0175569Y0118171D02*
X0175629Y0118181D01*
X0175689Y0118187D01*
X0175750Y0118190D01*
X0175810Y0118189D01*
X0175871Y0118185D01*
X0175931Y0118176D01*
X0175990Y0118165D01*
X0176049Y0118149D01*
X0176107Y0118130D01*
X0176163Y0118108D01*
X0176218Y0118082D01*
X0176271Y0118053D01*
X0176323Y0118021D01*
X0176372Y0117986D01*
X0176420Y0117948D01*
X0176464Y0117907D01*
X0176507Y0117864D01*
X0176546Y0117818D01*
X0176583Y0117770D01*
X0176617Y0117719D01*
X0176647Y0117667D01*
X0176675Y0117613D01*
X0176699Y0117557D01*
X0176720Y0117500D01*
X0176737Y0117442D01*
X0176751Y0117383D01*
X0184769Y0118071D02*
X0184829Y0118081D01*
X0184889Y0118087D01*
X0184950Y0118090D01*
X0185010Y0118089D01*
X0185071Y0118085D01*
X0185131Y0118076D01*
X0185190Y0118065D01*
X0185249Y0118049D01*
X0185307Y0118030D01*
X0185363Y0118008D01*
X0185418Y0117982D01*
X0185471Y0117953D01*
X0185523Y0117921D01*
X0185572Y0117886D01*
X0185620Y0117848D01*
X0185664Y0117807D01*
X0185707Y0117764D01*
X0185746Y0117718D01*
X0185783Y0117670D01*
X0185817Y0117619D01*
X0185847Y0117567D01*
X0185875Y0117513D01*
X0185899Y0117457D01*
X0185920Y0117400D01*
X0185937Y0117342D01*
X0185951Y0117283D01*
X0185950Y0117283D02*
X0185950Y0110984D01*
X0185951Y0110984D02*
X0185937Y0110925D01*
X0185920Y0110867D01*
X0185899Y0110810D01*
X0185875Y0110754D01*
X0185847Y0110700D01*
X0185817Y0110648D01*
X0185783Y0110597D01*
X0185746Y0110549D01*
X0185707Y0110503D01*
X0185664Y0110460D01*
X0185620Y0110419D01*
X0185572Y0110381D01*
X0185523Y0110346D01*
X0185471Y0110314D01*
X0185418Y0110285D01*
X0185363Y0110259D01*
X0185307Y0110237D01*
X0185249Y0110218D01*
X0185190Y0110202D01*
X0185131Y0110191D01*
X0185071Y0110182D01*
X0185010Y0110178D01*
X0184950Y0110177D01*
X0184889Y0110180D01*
X0184829Y0110186D01*
X0184769Y0110196D01*
X0179257Y0110196D02*
X0179195Y0110186D01*
X0179132Y0110180D01*
X0179069Y0110177D01*
X0179006Y0110178D01*
X0178943Y0110184D01*
X0178881Y0110193D01*
X0178819Y0110206D01*
X0178758Y0110223D01*
X0178699Y0110244D01*
X0178641Y0110269D01*
X0178584Y0110297D01*
X0178530Y0110329D01*
X0178477Y0110364D01*
X0178427Y0110402D01*
X0178379Y0110443D01*
X0178334Y0110487D01*
X0178292Y0110534D01*
X0178253Y0110584D01*
X0178217Y0110636D01*
X0178185Y0110690D01*
X0178155Y0110745D01*
X0178130Y0110803D01*
X0178108Y0110862D01*
X0178090Y0110923D01*
X0178075Y0110984D01*
X0178063Y0142533D02*
X0171563Y0142533D01*
X0171503Y0142535D01*
X0171442Y0142540D01*
X0171383Y0142549D01*
X0171324Y0142562D01*
X0171265Y0142578D01*
X0171208Y0142598D01*
X0171153Y0142621D01*
X0171098Y0142648D01*
X0171046Y0142677D01*
X0170995Y0142710D01*
X0170946Y0142746D01*
X0170900Y0142784D01*
X0170856Y0142826D01*
X0170814Y0142870D01*
X0170776Y0142916D01*
X0170740Y0142965D01*
X0170707Y0143016D01*
X0170678Y0143068D01*
X0170651Y0143123D01*
X0170628Y0143178D01*
X0170608Y0143235D01*
X0170592Y0143294D01*
X0170579Y0143353D01*
X0170570Y0143412D01*
X0170565Y0143473D01*
X0170563Y0143533D01*
X0170563Y0149533D02*
X0170565Y0149593D01*
X0170570Y0149654D01*
X0170579Y0149713D01*
X0170592Y0149772D01*
X0170608Y0149831D01*
X0170628Y0149888D01*
X0170651Y0149943D01*
X0170678Y0149998D01*
X0170707Y0150050D01*
X0170740Y0150101D01*
X0170776Y0150150D01*
X0170814Y0150196D01*
X0170856Y0150240D01*
X0170900Y0150282D01*
X0170946Y0150320D01*
X0170995Y0150356D01*
X0171046Y0150389D01*
X0171098Y0150418D01*
X0171153Y0150445D01*
X0171208Y0150468D01*
X0171265Y0150488D01*
X0171324Y0150504D01*
X0171383Y0150517D01*
X0171442Y0150526D01*
X0171503Y0150531D01*
X0171563Y0150533D01*
X0178063Y0150533D01*
X0178123Y0150531D01*
X0178184Y0150526D01*
X0178243Y0150517D01*
X0178302Y0150504D01*
X0178361Y0150488D01*
X0178418Y0150468D01*
X0178473Y0150445D01*
X0178528Y0150418D01*
X0178580Y0150389D01*
X0178631Y0150356D01*
X0178680Y0150320D01*
X0178726Y0150282D01*
X0178770Y0150240D01*
X0178812Y0150196D01*
X0178850Y0150150D01*
X0178886Y0150101D01*
X0178919Y0150050D01*
X0178948Y0149998D01*
X0178975Y0149943D01*
X0178998Y0149888D01*
X0179018Y0149831D01*
X0179034Y0149772D01*
X0179047Y0149713D01*
X0179056Y0149654D01*
X0179061Y0149593D01*
X0179063Y0149533D01*
X0179063Y0143533D02*
X0179061Y0143473D01*
X0179056Y0143412D01*
X0179047Y0143353D01*
X0179034Y0143294D01*
X0179018Y0143235D01*
X0178998Y0143178D01*
X0178975Y0143123D01*
X0178948Y0143068D01*
X0178919Y0143016D01*
X0178886Y0142965D01*
X0178850Y0142916D01*
X0178812Y0142870D01*
X0178770Y0142826D01*
X0178726Y0142784D01*
X0178680Y0142746D01*
X0178631Y0142710D01*
X0178580Y0142677D01*
X0178528Y0142648D01*
X0178473Y0142621D01*
X0178418Y0142598D01*
X0178361Y0142578D01*
X0178302Y0142562D01*
X0178243Y0142549D01*
X0178184Y0142540D01*
X0178123Y0142535D01*
X0178063Y0142533D01*
X0219177Y0154731D02*
X0219177Y0156332D01*
X0219177Y0157677D02*
X0219177Y0159279D01*
X0219578Y0160624D02*
X0221179Y0160624D01*
X0221579Y0161024D01*
X0221579Y0161825D01*
X0221179Y0162225D01*
X0221579Y0163571D02*
X0219978Y0165172D01*
X0219578Y0165172D01*
X0219177Y0164772D01*
X0219177Y0163971D01*
X0219578Y0163571D01*
X0219578Y0162225D02*
X0219177Y0161825D01*
X0219177Y0161024D01*
X0219578Y0160624D01*
X0220378Y0158478D02*
X0220378Y0157677D01*
X0221579Y0157677D02*
X0219177Y0157677D01*
X0220378Y0155532D02*
X0220378Y0154731D01*
X0221579Y0154731D02*
X0219177Y0154731D01*
X0221579Y0163571D02*
X0221579Y0165172D01*
X0128513Y0182533D02*
X0126013Y0180033D01*
X0121013Y0180033D01*
X0118513Y0182533D01*
X0116013Y0180033D01*
X0111013Y0180033D01*
X0108513Y0182533D01*
X0106013Y0180033D01*
X0101013Y0180033D01*
X0098513Y0182533D01*
X0098513Y0187533D01*
X0101013Y0190033D01*
X0106013Y0190033D01*
X0108513Y0187533D01*
X0111013Y0190033D01*
X0116013Y0190033D01*
X0118513Y0187533D01*
X0121013Y0190033D01*
X0126013Y0190033D01*
X0128513Y0187533D01*
X0128513Y0182533D01*
X0096212Y0161495D02*
X0096212Y0158936D01*
X0089913Y0158936D01*
X0096212Y0161495D02*
X0066291Y0161495D01*
X0066291Y0106408D01*
X0096212Y0106408D01*
X0096212Y0108967D01*
X0089913Y0108967D01*
X0113145Y0123065D02*
X0113145Y0127002D01*
X0117082Y0125033D01*
X0113145Y0123065D01*
D15*
X0200576Y0099551D03*
D16*
X0098198Y0178131D02*
X0094928Y0178131D01*
X0096563Y0176497D02*
X0096563Y0179766D01*
X0095776Y0172227D02*
X0095776Y0168957D01*
D17*
X0133471Y0135644D02*
X0133471Y0134463D01*
X0133471Y0135644D02*
X0134652Y0135644D01*
X0151975Y0135644D02*
X0153156Y0135644D01*
X0153156Y0134463D01*
X0153156Y0113203D02*
X0153156Y0112022D01*
X0151975Y0112022D01*
X0134652Y0112022D02*
X0133471Y0112022D01*
X0133471Y0113203D01*
D18*
X0154337Y0110841D02*
X0154339Y0110880D01*
X0154345Y0110919D01*
X0154355Y0110957D01*
X0154368Y0110994D01*
X0154385Y0111029D01*
X0154405Y0111063D01*
X0154429Y0111094D01*
X0154456Y0111123D01*
X0154485Y0111149D01*
X0154517Y0111172D01*
X0154551Y0111192D01*
X0154587Y0111208D01*
X0154624Y0111220D01*
X0154663Y0111229D01*
X0154702Y0111234D01*
X0154741Y0111235D01*
X0154780Y0111232D01*
X0154819Y0111225D01*
X0154856Y0111214D01*
X0154893Y0111200D01*
X0154928Y0111182D01*
X0154961Y0111161D01*
X0154992Y0111136D01*
X0155020Y0111109D01*
X0155045Y0111079D01*
X0155067Y0111046D01*
X0155086Y0111012D01*
X0155101Y0110976D01*
X0155113Y0110938D01*
X0155121Y0110900D01*
X0155125Y0110861D01*
X0155125Y0110821D01*
X0155121Y0110782D01*
X0155113Y0110744D01*
X0155101Y0110706D01*
X0155086Y0110670D01*
X0155067Y0110636D01*
X0155045Y0110603D01*
X0155020Y0110573D01*
X0154992Y0110546D01*
X0154961Y0110521D01*
X0154928Y0110500D01*
X0154893Y0110482D01*
X0154856Y0110468D01*
X0154819Y0110457D01*
X0154780Y0110450D01*
X0154741Y0110447D01*
X0154702Y0110448D01*
X0154663Y0110453D01*
X0154624Y0110462D01*
X0154587Y0110474D01*
X0154551Y0110490D01*
X0154517Y0110510D01*
X0154485Y0110533D01*
X0154456Y0110559D01*
X0154429Y0110588D01*
X0154405Y0110619D01*
X0154385Y0110653D01*
X0154368Y0110688D01*
X0154355Y0110725D01*
X0154345Y0110763D01*
X0154339Y0110802D01*
X0154337Y0110841D01*
D19*
X0117313Y0125033D03*
D20*
X0198313Y0084933D02*
X0198313Y0079933D01*
X0200813Y0077433D01*
X0205813Y0077433D01*
X0208313Y0079933D01*
X0208313Y0084933D01*
X0205813Y0087433D01*
X0200813Y0087433D01*
X0198313Y0084933D01*
M02*
