G75*
%MOIN*%
%OFA0B0*%
%FSLAX25Y25*%
%IPPOS*%
%LPD*%
%AMOC8*
5,1,8,0,0,1.08239X$1,22.5*
%
%ADD10C,0.00000*%
D10*
X0072713Y0075833D02*
X0220194Y0075833D01*
X0220334Y0075835D01*
X0220474Y0075841D01*
X0220614Y0075851D01*
X0220754Y0075864D01*
X0220893Y0075882D01*
X0221032Y0075904D01*
X0221169Y0075929D01*
X0221307Y0075958D01*
X0221443Y0075991D01*
X0221578Y0076028D01*
X0221712Y0076069D01*
X0221845Y0076114D01*
X0221977Y0076162D01*
X0222107Y0076214D01*
X0222236Y0076269D01*
X0222363Y0076328D01*
X0222489Y0076391D01*
X0222613Y0076457D01*
X0222734Y0076526D01*
X0222854Y0076599D01*
X0222972Y0076676D01*
X0223087Y0076755D01*
X0223201Y0076838D01*
X0223311Y0076924D01*
X0223420Y0077013D01*
X0223526Y0077105D01*
X0223629Y0077200D01*
X0223730Y0077297D01*
X0223827Y0077398D01*
X0223922Y0077501D01*
X0224014Y0077607D01*
X0224103Y0077716D01*
X0224189Y0077826D01*
X0224272Y0077940D01*
X0224351Y0078055D01*
X0224428Y0078173D01*
X0224501Y0078293D01*
X0224570Y0078414D01*
X0224636Y0078538D01*
X0224699Y0078664D01*
X0224758Y0078791D01*
X0224813Y0078920D01*
X0224865Y0079050D01*
X0224913Y0079182D01*
X0224958Y0079315D01*
X0224999Y0079449D01*
X0225036Y0079584D01*
X0225069Y0079720D01*
X0225098Y0079858D01*
X0225123Y0079995D01*
X0225145Y0080134D01*
X0225163Y0080273D01*
X0225176Y0080413D01*
X0225186Y0080553D01*
X0225192Y0080693D01*
X0225194Y0080833D01*
X0225194Y0186975D01*
X0225192Y0187115D01*
X0225186Y0187255D01*
X0225176Y0187395D01*
X0225163Y0187535D01*
X0225145Y0187674D01*
X0225123Y0187813D01*
X0225098Y0187950D01*
X0225069Y0188088D01*
X0225036Y0188224D01*
X0224999Y0188359D01*
X0224958Y0188493D01*
X0224913Y0188626D01*
X0224865Y0188758D01*
X0224813Y0188888D01*
X0224758Y0189017D01*
X0224699Y0189144D01*
X0224636Y0189270D01*
X0224570Y0189394D01*
X0224501Y0189515D01*
X0224428Y0189635D01*
X0224351Y0189753D01*
X0224272Y0189868D01*
X0224189Y0189982D01*
X0224103Y0190092D01*
X0224014Y0190201D01*
X0223922Y0190307D01*
X0223827Y0190410D01*
X0223730Y0190511D01*
X0223629Y0190608D01*
X0223526Y0190703D01*
X0223420Y0190795D01*
X0223311Y0190884D01*
X0223201Y0190970D01*
X0223087Y0191053D01*
X0222972Y0191132D01*
X0222854Y0191209D01*
X0222734Y0191282D01*
X0222613Y0191351D01*
X0222489Y0191417D01*
X0222363Y0191480D01*
X0222236Y0191539D01*
X0222107Y0191594D01*
X0221977Y0191646D01*
X0221845Y0191694D01*
X0221712Y0191739D01*
X0221578Y0191780D01*
X0221443Y0191817D01*
X0221307Y0191850D01*
X0221169Y0191879D01*
X0221032Y0191904D01*
X0220893Y0191926D01*
X0220754Y0191944D01*
X0220614Y0191957D01*
X0220474Y0191967D01*
X0220334Y0191973D01*
X0220194Y0191975D01*
X0072713Y0191975D01*
X0072573Y0191973D01*
X0072433Y0191967D01*
X0072293Y0191957D01*
X0072153Y0191944D01*
X0072014Y0191926D01*
X0071875Y0191904D01*
X0071738Y0191879D01*
X0071600Y0191850D01*
X0071464Y0191817D01*
X0071329Y0191780D01*
X0071195Y0191739D01*
X0071062Y0191694D01*
X0070930Y0191646D01*
X0070800Y0191594D01*
X0070671Y0191539D01*
X0070544Y0191480D01*
X0070418Y0191417D01*
X0070294Y0191351D01*
X0070173Y0191282D01*
X0070053Y0191209D01*
X0069935Y0191132D01*
X0069820Y0191053D01*
X0069706Y0190970D01*
X0069596Y0190884D01*
X0069487Y0190795D01*
X0069381Y0190703D01*
X0069278Y0190608D01*
X0069177Y0190511D01*
X0069080Y0190410D01*
X0068985Y0190307D01*
X0068893Y0190201D01*
X0068804Y0190092D01*
X0068718Y0189982D01*
X0068635Y0189868D01*
X0068556Y0189753D01*
X0068479Y0189635D01*
X0068406Y0189515D01*
X0068337Y0189394D01*
X0068271Y0189270D01*
X0068208Y0189144D01*
X0068149Y0189017D01*
X0068094Y0188888D01*
X0068042Y0188758D01*
X0067994Y0188626D01*
X0067949Y0188493D01*
X0067908Y0188359D01*
X0067871Y0188224D01*
X0067838Y0188088D01*
X0067809Y0187950D01*
X0067784Y0187813D01*
X0067762Y0187674D01*
X0067744Y0187535D01*
X0067731Y0187395D01*
X0067721Y0187255D01*
X0067715Y0187115D01*
X0067713Y0186975D01*
X0067713Y0080833D01*
X0067715Y0080693D01*
X0067721Y0080553D01*
X0067731Y0080413D01*
X0067744Y0080273D01*
X0067762Y0080134D01*
X0067784Y0079995D01*
X0067809Y0079858D01*
X0067838Y0079720D01*
X0067871Y0079584D01*
X0067908Y0079449D01*
X0067949Y0079315D01*
X0067994Y0079182D01*
X0068042Y0079050D01*
X0068094Y0078920D01*
X0068149Y0078791D01*
X0068208Y0078664D01*
X0068271Y0078538D01*
X0068337Y0078414D01*
X0068406Y0078293D01*
X0068479Y0078173D01*
X0068556Y0078055D01*
X0068635Y0077940D01*
X0068718Y0077826D01*
X0068804Y0077716D01*
X0068893Y0077607D01*
X0068985Y0077501D01*
X0069080Y0077398D01*
X0069177Y0077297D01*
X0069278Y0077200D01*
X0069381Y0077105D01*
X0069487Y0077013D01*
X0069596Y0076924D01*
X0069706Y0076838D01*
X0069820Y0076755D01*
X0069935Y0076676D01*
X0070053Y0076599D01*
X0070173Y0076526D01*
X0070294Y0076457D01*
X0070418Y0076391D01*
X0070544Y0076328D01*
X0070671Y0076269D01*
X0070800Y0076214D01*
X0070930Y0076162D01*
X0071062Y0076114D01*
X0071195Y0076069D01*
X0071329Y0076028D01*
X0071464Y0075991D01*
X0071600Y0075958D01*
X0071738Y0075929D01*
X0071875Y0075904D01*
X0072014Y0075882D01*
X0072153Y0075864D01*
X0072293Y0075851D01*
X0072433Y0075841D01*
X0072573Y0075835D01*
X0072713Y0075833D01*
X0077162Y0087644D02*
X0077164Y0087813D01*
X0077170Y0087982D01*
X0077181Y0088151D01*
X0077195Y0088319D01*
X0077214Y0088487D01*
X0077237Y0088655D01*
X0077263Y0088822D01*
X0077294Y0088988D01*
X0077329Y0089154D01*
X0077368Y0089318D01*
X0077412Y0089482D01*
X0077459Y0089644D01*
X0077510Y0089805D01*
X0077565Y0089965D01*
X0077624Y0090124D01*
X0077686Y0090281D01*
X0077753Y0090436D01*
X0077824Y0090590D01*
X0077898Y0090742D01*
X0077976Y0090892D01*
X0078057Y0091040D01*
X0078142Y0091186D01*
X0078231Y0091330D01*
X0078323Y0091472D01*
X0078419Y0091611D01*
X0078518Y0091748D01*
X0078620Y0091883D01*
X0078726Y0092015D01*
X0078835Y0092144D01*
X0078947Y0092271D01*
X0079062Y0092395D01*
X0079180Y0092516D01*
X0079301Y0092634D01*
X0079425Y0092749D01*
X0079552Y0092861D01*
X0079681Y0092970D01*
X0079813Y0093076D01*
X0079948Y0093178D01*
X0080085Y0093277D01*
X0080224Y0093373D01*
X0080366Y0093465D01*
X0080510Y0093554D01*
X0080656Y0093639D01*
X0080804Y0093720D01*
X0080954Y0093798D01*
X0081106Y0093872D01*
X0081260Y0093943D01*
X0081415Y0094010D01*
X0081572Y0094072D01*
X0081731Y0094131D01*
X0081891Y0094186D01*
X0082052Y0094237D01*
X0082214Y0094284D01*
X0082378Y0094328D01*
X0082542Y0094367D01*
X0082708Y0094402D01*
X0082874Y0094433D01*
X0083041Y0094459D01*
X0083209Y0094482D01*
X0083377Y0094501D01*
X0083545Y0094515D01*
X0083714Y0094526D01*
X0083883Y0094532D01*
X0084052Y0094534D01*
X0084221Y0094532D01*
X0084390Y0094526D01*
X0084559Y0094515D01*
X0084727Y0094501D01*
X0084895Y0094482D01*
X0085063Y0094459D01*
X0085230Y0094433D01*
X0085396Y0094402D01*
X0085562Y0094367D01*
X0085726Y0094328D01*
X0085890Y0094284D01*
X0086052Y0094237D01*
X0086213Y0094186D01*
X0086373Y0094131D01*
X0086532Y0094072D01*
X0086689Y0094010D01*
X0086844Y0093943D01*
X0086998Y0093872D01*
X0087150Y0093798D01*
X0087300Y0093720D01*
X0087448Y0093639D01*
X0087594Y0093554D01*
X0087738Y0093465D01*
X0087880Y0093373D01*
X0088019Y0093277D01*
X0088156Y0093178D01*
X0088291Y0093076D01*
X0088423Y0092970D01*
X0088552Y0092861D01*
X0088679Y0092749D01*
X0088803Y0092634D01*
X0088924Y0092516D01*
X0089042Y0092395D01*
X0089157Y0092271D01*
X0089269Y0092144D01*
X0089378Y0092015D01*
X0089484Y0091883D01*
X0089586Y0091748D01*
X0089685Y0091611D01*
X0089781Y0091472D01*
X0089873Y0091330D01*
X0089962Y0091186D01*
X0090047Y0091040D01*
X0090128Y0090892D01*
X0090206Y0090742D01*
X0090280Y0090590D01*
X0090351Y0090436D01*
X0090418Y0090281D01*
X0090480Y0090124D01*
X0090539Y0089965D01*
X0090594Y0089805D01*
X0090645Y0089644D01*
X0090692Y0089482D01*
X0090736Y0089318D01*
X0090775Y0089154D01*
X0090810Y0088988D01*
X0090841Y0088822D01*
X0090867Y0088655D01*
X0090890Y0088487D01*
X0090909Y0088319D01*
X0090923Y0088151D01*
X0090934Y0087982D01*
X0090940Y0087813D01*
X0090942Y0087644D01*
X0090940Y0087475D01*
X0090934Y0087306D01*
X0090923Y0087137D01*
X0090909Y0086969D01*
X0090890Y0086801D01*
X0090867Y0086633D01*
X0090841Y0086466D01*
X0090810Y0086300D01*
X0090775Y0086134D01*
X0090736Y0085970D01*
X0090692Y0085806D01*
X0090645Y0085644D01*
X0090594Y0085483D01*
X0090539Y0085323D01*
X0090480Y0085164D01*
X0090418Y0085007D01*
X0090351Y0084852D01*
X0090280Y0084698D01*
X0090206Y0084546D01*
X0090128Y0084396D01*
X0090047Y0084248D01*
X0089962Y0084102D01*
X0089873Y0083958D01*
X0089781Y0083816D01*
X0089685Y0083677D01*
X0089586Y0083540D01*
X0089484Y0083405D01*
X0089378Y0083273D01*
X0089269Y0083144D01*
X0089157Y0083017D01*
X0089042Y0082893D01*
X0088924Y0082772D01*
X0088803Y0082654D01*
X0088679Y0082539D01*
X0088552Y0082427D01*
X0088423Y0082318D01*
X0088291Y0082212D01*
X0088156Y0082110D01*
X0088019Y0082011D01*
X0087880Y0081915D01*
X0087738Y0081823D01*
X0087594Y0081734D01*
X0087448Y0081649D01*
X0087300Y0081568D01*
X0087150Y0081490D01*
X0086998Y0081416D01*
X0086844Y0081345D01*
X0086689Y0081278D01*
X0086532Y0081216D01*
X0086373Y0081157D01*
X0086213Y0081102D01*
X0086052Y0081051D01*
X0085890Y0081004D01*
X0085726Y0080960D01*
X0085562Y0080921D01*
X0085396Y0080886D01*
X0085230Y0080855D01*
X0085063Y0080829D01*
X0084895Y0080806D01*
X0084727Y0080787D01*
X0084559Y0080773D01*
X0084390Y0080762D01*
X0084221Y0080756D01*
X0084052Y0080754D01*
X0083883Y0080756D01*
X0083714Y0080762D01*
X0083545Y0080773D01*
X0083377Y0080787D01*
X0083209Y0080806D01*
X0083041Y0080829D01*
X0082874Y0080855D01*
X0082708Y0080886D01*
X0082542Y0080921D01*
X0082378Y0080960D01*
X0082214Y0081004D01*
X0082052Y0081051D01*
X0081891Y0081102D01*
X0081731Y0081157D01*
X0081572Y0081216D01*
X0081415Y0081278D01*
X0081260Y0081345D01*
X0081106Y0081416D01*
X0080954Y0081490D01*
X0080804Y0081568D01*
X0080656Y0081649D01*
X0080510Y0081734D01*
X0080366Y0081823D01*
X0080224Y0081915D01*
X0080085Y0082011D01*
X0079948Y0082110D01*
X0079813Y0082212D01*
X0079681Y0082318D01*
X0079552Y0082427D01*
X0079425Y0082539D01*
X0079301Y0082654D01*
X0079180Y0082772D01*
X0079062Y0082893D01*
X0078947Y0083017D01*
X0078835Y0083144D01*
X0078726Y0083273D01*
X0078620Y0083405D01*
X0078518Y0083540D01*
X0078419Y0083677D01*
X0078323Y0083816D01*
X0078231Y0083958D01*
X0078142Y0084102D01*
X0078057Y0084248D01*
X0077976Y0084396D01*
X0077898Y0084546D01*
X0077824Y0084698D01*
X0077753Y0084852D01*
X0077686Y0085007D01*
X0077624Y0085164D01*
X0077565Y0085323D01*
X0077510Y0085483D01*
X0077459Y0085644D01*
X0077412Y0085806D01*
X0077368Y0085970D01*
X0077329Y0086134D01*
X0077294Y0086300D01*
X0077263Y0086466D01*
X0077237Y0086633D01*
X0077214Y0086801D01*
X0077195Y0086969D01*
X0077181Y0087137D01*
X0077170Y0087306D01*
X0077164Y0087475D01*
X0077162Y0087644D01*
X0177162Y0149140D02*
X0177164Y0149233D01*
X0177170Y0149325D01*
X0177180Y0149417D01*
X0177194Y0149508D01*
X0177211Y0149599D01*
X0177233Y0149689D01*
X0177258Y0149778D01*
X0177287Y0149866D01*
X0177320Y0149952D01*
X0177357Y0150037D01*
X0177397Y0150121D01*
X0177441Y0150202D01*
X0177488Y0150282D01*
X0177538Y0150360D01*
X0177592Y0150435D01*
X0177649Y0150508D01*
X0177709Y0150578D01*
X0177772Y0150646D01*
X0177838Y0150711D01*
X0177906Y0150773D01*
X0177977Y0150833D01*
X0178051Y0150889D01*
X0178127Y0150942D01*
X0178205Y0150991D01*
X0178285Y0151038D01*
X0178367Y0151080D01*
X0178451Y0151120D01*
X0178536Y0151155D01*
X0178623Y0151187D01*
X0178711Y0151216D01*
X0178800Y0151240D01*
X0178890Y0151261D01*
X0178981Y0151277D01*
X0179073Y0151290D01*
X0179165Y0151299D01*
X0179258Y0151304D01*
X0179350Y0151305D01*
X0179443Y0151302D01*
X0179535Y0151295D01*
X0179627Y0151284D01*
X0179718Y0151269D01*
X0179809Y0151251D01*
X0179899Y0151228D01*
X0179987Y0151202D01*
X0180075Y0151172D01*
X0180161Y0151138D01*
X0180245Y0151101D01*
X0180328Y0151059D01*
X0180409Y0151015D01*
X0180489Y0150967D01*
X0180566Y0150916D01*
X0180640Y0150861D01*
X0180713Y0150803D01*
X0180783Y0150743D01*
X0180850Y0150679D01*
X0180914Y0150613D01*
X0180976Y0150543D01*
X0181034Y0150472D01*
X0181089Y0150398D01*
X0181141Y0150321D01*
X0181190Y0150242D01*
X0181236Y0150162D01*
X0181278Y0150079D01*
X0181316Y0149995D01*
X0181351Y0149909D01*
X0181382Y0149822D01*
X0181409Y0149734D01*
X0181432Y0149644D01*
X0181452Y0149554D01*
X0181468Y0149463D01*
X0181480Y0149371D01*
X0181488Y0149279D01*
X0181492Y0149186D01*
X0181492Y0149094D01*
X0181488Y0149001D01*
X0181480Y0148909D01*
X0181468Y0148817D01*
X0181452Y0148726D01*
X0181432Y0148636D01*
X0181409Y0148546D01*
X0181382Y0148458D01*
X0181351Y0148371D01*
X0181316Y0148285D01*
X0181278Y0148201D01*
X0181236Y0148118D01*
X0181190Y0148038D01*
X0181141Y0147959D01*
X0181089Y0147882D01*
X0181034Y0147808D01*
X0180976Y0147737D01*
X0180914Y0147667D01*
X0180850Y0147601D01*
X0180783Y0147537D01*
X0180713Y0147477D01*
X0180640Y0147419D01*
X0180566Y0147364D01*
X0180489Y0147313D01*
X0180410Y0147265D01*
X0180328Y0147221D01*
X0180245Y0147179D01*
X0180161Y0147142D01*
X0180075Y0147108D01*
X0179987Y0147078D01*
X0179899Y0147052D01*
X0179809Y0147029D01*
X0179718Y0147011D01*
X0179627Y0146996D01*
X0179535Y0146985D01*
X0179443Y0146978D01*
X0179350Y0146975D01*
X0179258Y0146976D01*
X0179165Y0146981D01*
X0179073Y0146990D01*
X0178981Y0147003D01*
X0178890Y0147019D01*
X0178800Y0147040D01*
X0178711Y0147064D01*
X0178623Y0147093D01*
X0178536Y0147125D01*
X0178451Y0147160D01*
X0178367Y0147200D01*
X0178285Y0147242D01*
X0178205Y0147289D01*
X0178127Y0147338D01*
X0178051Y0147391D01*
X0177977Y0147447D01*
X0177906Y0147507D01*
X0177838Y0147569D01*
X0177772Y0147634D01*
X0177709Y0147702D01*
X0177649Y0147772D01*
X0177592Y0147845D01*
X0177538Y0147920D01*
X0177488Y0147998D01*
X0177441Y0148078D01*
X0177397Y0148159D01*
X0177357Y0148243D01*
X0177320Y0148328D01*
X0177287Y0148414D01*
X0177258Y0148502D01*
X0177233Y0148591D01*
X0177211Y0148681D01*
X0177194Y0148772D01*
X0177180Y0148863D01*
X0177170Y0148955D01*
X0177164Y0149047D01*
X0177162Y0149140D01*
X0186808Y0180164D02*
X0186810Y0180333D01*
X0186816Y0180502D01*
X0186827Y0180671D01*
X0186841Y0180839D01*
X0186860Y0181007D01*
X0186883Y0181175D01*
X0186909Y0181342D01*
X0186940Y0181508D01*
X0186975Y0181674D01*
X0187014Y0181838D01*
X0187058Y0182002D01*
X0187105Y0182164D01*
X0187156Y0182325D01*
X0187211Y0182485D01*
X0187270Y0182644D01*
X0187332Y0182801D01*
X0187399Y0182956D01*
X0187470Y0183110D01*
X0187544Y0183262D01*
X0187622Y0183412D01*
X0187703Y0183560D01*
X0187788Y0183706D01*
X0187877Y0183850D01*
X0187969Y0183992D01*
X0188065Y0184131D01*
X0188164Y0184268D01*
X0188266Y0184403D01*
X0188372Y0184535D01*
X0188481Y0184664D01*
X0188593Y0184791D01*
X0188708Y0184915D01*
X0188826Y0185036D01*
X0188947Y0185154D01*
X0189071Y0185269D01*
X0189198Y0185381D01*
X0189327Y0185490D01*
X0189459Y0185596D01*
X0189594Y0185698D01*
X0189731Y0185797D01*
X0189870Y0185893D01*
X0190012Y0185985D01*
X0190156Y0186074D01*
X0190302Y0186159D01*
X0190450Y0186240D01*
X0190600Y0186318D01*
X0190752Y0186392D01*
X0190906Y0186463D01*
X0191061Y0186530D01*
X0191218Y0186592D01*
X0191377Y0186651D01*
X0191537Y0186706D01*
X0191698Y0186757D01*
X0191860Y0186804D01*
X0192024Y0186848D01*
X0192188Y0186887D01*
X0192354Y0186922D01*
X0192520Y0186953D01*
X0192687Y0186979D01*
X0192855Y0187002D01*
X0193023Y0187021D01*
X0193191Y0187035D01*
X0193360Y0187046D01*
X0193529Y0187052D01*
X0193698Y0187054D01*
X0193867Y0187052D01*
X0194036Y0187046D01*
X0194205Y0187035D01*
X0194373Y0187021D01*
X0194541Y0187002D01*
X0194709Y0186979D01*
X0194876Y0186953D01*
X0195042Y0186922D01*
X0195208Y0186887D01*
X0195372Y0186848D01*
X0195536Y0186804D01*
X0195698Y0186757D01*
X0195859Y0186706D01*
X0196019Y0186651D01*
X0196178Y0186592D01*
X0196335Y0186530D01*
X0196490Y0186463D01*
X0196644Y0186392D01*
X0196796Y0186318D01*
X0196946Y0186240D01*
X0197094Y0186159D01*
X0197240Y0186074D01*
X0197384Y0185985D01*
X0197526Y0185893D01*
X0197665Y0185797D01*
X0197802Y0185698D01*
X0197937Y0185596D01*
X0198069Y0185490D01*
X0198198Y0185381D01*
X0198325Y0185269D01*
X0198449Y0185154D01*
X0198570Y0185036D01*
X0198688Y0184915D01*
X0198803Y0184791D01*
X0198915Y0184664D01*
X0199024Y0184535D01*
X0199130Y0184403D01*
X0199232Y0184268D01*
X0199331Y0184131D01*
X0199427Y0183992D01*
X0199519Y0183850D01*
X0199608Y0183706D01*
X0199693Y0183560D01*
X0199774Y0183412D01*
X0199852Y0183262D01*
X0199926Y0183110D01*
X0199997Y0182956D01*
X0200064Y0182801D01*
X0200126Y0182644D01*
X0200185Y0182485D01*
X0200240Y0182325D01*
X0200291Y0182164D01*
X0200338Y0182002D01*
X0200382Y0181838D01*
X0200421Y0181674D01*
X0200456Y0181508D01*
X0200487Y0181342D01*
X0200513Y0181175D01*
X0200536Y0181007D01*
X0200555Y0180839D01*
X0200569Y0180671D01*
X0200580Y0180502D01*
X0200586Y0180333D01*
X0200588Y0180164D01*
X0200586Y0179995D01*
X0200580Y0179826D01*
X0200569Y0179657D01*
X0200555Y0179489D01*
X0200536Y0179321D01*
X0200513Y0179153D01*
X0200487Y0178986D01*
X0200456Y0178820D01*
X0200421Y0178654D01*
X0200382Y0178490D01*
X0200338Y0178326D01*
X0200291Y0178164D01*
X0200240Y0178003D01*
X0200185Y0177843D01*
X0200126Y0177684D01*
X0200064Y0177527D01*
X0199997Y0177372D01*
X0199926Y0177218D01*
X0199852Y0177066D01*
X0199774Y0176916D01*
X0199693Y0176768D01*
X0199608Y0176622D01*
X0199519Y0176478D01*
X0199427Y0176336D01*
X0199331Y0176197D01*
X0199232Y0176060D01*
X0199130Y0175925D01*
X0199024Y0175793D01*
X0198915Y0175664D01*
X0198803Y0175537D01*
X0198688Y0175413D01*
X0198570Y0175292D01*
X0198449Y0175174D01*
X0198325Y0175059D01*
X0198198Y0174947D01*
X0198069Y0174838D01*
X0197937Y0174732D01*
X0197802Y0174630D01*
X0197665Y0174531D01*
X0197526Y0174435D01*
X0197384Y0174343D01*
X0197240Y0174254D01*
X0197094Y0174169D01*
X0196946Y0174088D01*
X0196796Y0174010D01*
X0196644Y0173936D01*
X0196490Y0173865D01*
X0196335Y0173798D01*
X0196178Y0173736D01*
X0196019Y0173677D01*
X0195859Y0173622D01*
X0195698Y0173571D01*
X0195536Y0173524D01*
X0195372Y0173480D01*
X0195208Y0173441D01*
X0195042Y0173406D01*
X0194876Y0173375D01*
X0194709Y0173349D01*
X0194541Y0173326D01*
X0194373Y0173307D01*
X0194205Y0173293D01*
X0194036Y0173282D01*
X0193867Y0173276D01*
X0193698Y0173274D01*
X0193529Y0173276D01*
X0193360Y0173282D01*
X0193191Y0173293D01*
X0193023Y0173307D01*
X0192855Y0173326D01*
X0192687Y0173349D01*
X0192520Y0173375D01*
X0192354Y0173406D01*
X0192188Y0173441D01*
X0192024Y0173480D01*
X0191860Y0173524D01*
X0191698Y0173571D01*
X0191537Y0173622D01*
X0191377Y0173677D01*
X0191218Y0173736D01*
X0191061Y0173798D01*
X0190906Y0173865D01*
X0190752Y0173936D01*
X0190600Y0174010D01*
X0190450Y0174088D01*
X0190302Y0174169D01*
X0190156Y0174254D01*
X0190012Y0174343D01*
X0189870Y0174435D01*
X0189731Y0174531D01*
X0189594Y0174630D01*
X0189459Y0174732D01*
X0189327Y0174838D01*
X0189198Y0174947D01*
X0189071Y0175059D01*
X0188947Y0175174D01*
X0188826Y0175292D01*
X0188708Y0175413D01*
X0188593Y0175537D01*
X0188481Y0175664D01*
X0188372Y0175793D01*
X0188266Y0175925D01*
X0188164Y0176060D01*
X0188065Y0176197D01*
X0187969Y0176336D01*
X0187877Y0176478D01*
X0187788Y0176622D01*
X0187703Y0176768D01*
X0187622Y0176916D01*
X0187544Y0177066D01*
X0187470Y0177218D01*
X0187399Y0177372D01*
X0187332Y0177527D01*
X0187270Y0177684D01*
X0187211Y0177843D01*
X0187156Y0178003D01*
X0187105Y0178164D01*
X0187058Y0178326D01*
X0187014Y0178490D01*
X0186975Y0178654D01*
X0186940Y0178820D01*
X0186909Y0178986D01*
X0186883Y0179153D01*
X0186860Y0179321D01*
X0186841Y0179489D01*
X0186827Y0179657D01*
X0186816Y0179826D01*
X0186810Y0179995D01*
X0186808Y0180164D01*
M02*
