G75*
%MOIN*%
%OFA0B0*%
%FSLAX25Y25*%
%IPPOS*%
%LPD*%
%AMOC8*
5,1,8,0,0,1.08239X$1,22.5*
%
%ADD10C,0.00600*%
%ADD11C,0.06000*%
%ADD12C,0.04134*%
%ADD13C,0.04724*%
%ADD14C,0.02384*%
%ADD15C,0.02364*%
%ADD16C,0.02584*%
%ADD17C,0.08268*%
%ADD18C,0.01000*%
%ADD19C,0.01200*%
D10*
X0235813Y0124933D02*
X0237948Y0124933D01*
X0236881Y0124933D02*
X0236881Y0131339D01*
X0237948Y0131339D02*
X0235813Y0131339D01*
X0240110Y0129204D02*
X0240110Y0124933D01*
X0244381Y0124933D02*
X0244381Y0128136D01*
X0243313Y0129204D01*
X0240110Y0129204D01*
X0246556Y0129204D02*
X0246556Y0124933D01*
X0250826Y0124933D02*
X0250826Y0128136D01*
X0249758Y0129204D01*
X0246556Y0129204D01*
X0253001Y0128136D02*
X0253001Y0126001D01*
X0254069Y0124933D01*
X0256204Y0124933D01*
X0257272Y0127068D02*
X0253001Y0127068D01*
X0253001Y0128136D02*
X0254069Y0129204D01*
X0256204Y0129204D01*
X0257272Y0128136D01*
X0257272Y0127068D01*
X0259447Y0127068D02*
X0261582Y0129204D01*
X0262649Y0129204D01*
X0264818Y0130271D02*
X0265886Y0131339D01*
X0268021Y0131339D01*
X0269088Y0130271D01*
X0269088Y0129204D01*
X0264818Y0124933D01*
X0269088Y0124933D01*
X0277709Y0128136D02*
X0281979Y0128136D01*
X0290600Y0127068D02*
X0292735Y0124933D01*
X0294870Y0127068D01*
X0294870Y0131339D01*
X0297045Y0131339D02*
X0299181Y0129204D01*
X0301316Y0131339D01*
X0301316Y0124933D01*
X0303491Y0126001D02*
X0304559Y0124933D01*
X0306694Y0124933D01*
X0307761Y0126001D01*
X0307761Y0130271D01*
X0306694Y0131339D01*
X0304559Y0131339D01*
X0303491Y0130271D01*
X0303491Y0126001D01*
X0309936Y0131339D02*
X0314207Y0131339D01*
X0312072Y0131339D02*
X0312072Y0124933D01*
X0297045Y0124933D02*
X0297045Y0131339D01*
X0290600Y0131339D02*
X0290600Y0127068D01*
X0259447Y0124933D02*
X0259447Y0129204D01*
D11*
X0203313Y0082433D03*
X0123513Y0185033D03*
X0113513Y0185033D03*
X0103513Y0185033D03*
D12*
X0089913Y0153581D03*
X0089913Y0145581D03*
X0089913Y0137707D03*
X0089913Y0129833D03*
X0089913Y0121959D03*
X0089913Y0114085D03*
D13*
X0091113Y0170296D03*
X0091113Y0178170D03*
D14*
X0080913Y0180433D03*
X0072513Y0180433D03*
X0072513Y0168433D03*
X0080913Y0168433D03*
X0074313Y0157033D03*
X0074313Y0153433D03*
X0074313Y0149233D03*
X0078513Y0143833D03*
X0078513Y0139033D03*
X0078513Y0134233D03*
X0078513Y0130633D03*
X0078513Y0126433D03*
X0078513Y0121033D03*
X0103113Y0105433D03*
X0106713Y0101833D03*
X0109713Y0097033D03*
X0113313Y0093433D03*
X0116913Y0090433D03*
X0111513Y0082633D03*
X0107313Y0087433D03*
X0103113Y0091633D03*
X0098913Y0095833D03*
X0130713Y0090433D03*
X0135513Y0090433D03*
X0140313Y0090433D03*
X0146913Y0090233D03*
X0150513Y0089233D03*
X0154113Y0089233D03*
X0157713Y0090433D03*
X0161313Y0093233D03*
X0164913Y0093233D03*
X0168513Y0093233D03*
X0174513Y0096233D03*
X0171513Y0099233D03*
X0167313Y0099233D03*
X0163713Y0099233D03*
X0160113Y0099233D03*
X0179913Y0098633D03*
X0182913Y0096233D03*
X0188313Y0091433D03*
X0192513Y0091433D03*
X0196113Y0091433D03*
X0184113Y0086633D03*
X0189013Y0080633D03*
X0209313Y0108233D03*
X0209313Y0111833D03*
X0209313Y0115433D03*
X0209313Y0119033D03*
X0220713Y0118433D03*
X0220713Y0114433D03*
X0220713Y0110033D03*
X0220713Y0105833D03*
X0207513Y0131633D03*
X0207513Y0138833D03*
X0194913Y0141233D03*
X0191913Y0145433D03*
X0191913Y0149633D03*
X0187713Y0149633D03*
X0187713Y0145433D03*
X0187713Y0153833D03*
X0187713Y0158033D03*
X0187713Y0161633D03*
X0191913Y0161633D03*
X0191913Y0158033D03*
X0191913Y0153833D03*
X0180513Y0160033D03*
X0180513Y0163633D03*
X0164313Y0154033D03*
X0160713Y0157033D03*
X0151113Y0157433D03*
X0147513Y0157433D03*
X0143913Y0157433D03*
X0140313Y0157433D03*
X0157713Y0175633D03*
X0161913Y0175633D03*
X0160113Y0179233D03*
X0172113Y0187633D03*
X0176913Y0187633D03*
X0176913Y0182833D03*
X0146913Y0181433D03*
X0146913Y0185633D03*
X0137913Y0185633D03*
X0137913Y0182033D03*
X0128313Y0179033D03*
X0110913Y0170233D03*
X0107313Y0166033D03*
X0103713Y0170233D03*
X0103713Y0161833D03*
X0110913Y0161833D03*
X0194913Y0134033D03*
X0210513Y0149233D03*
X0210513Y0153433D03*
X0210513Y0157633D03*
X0210513Y0161233D03*
X0215913Y0157633D03*
X0215913Y0153433D03*
X0215913Y0149233D03*
X0215313Y0181633D03*
X0211713Y0187033D03*
X0218913Y0187033D03*
D15*
X0158313Y0150233D03*
X0158313Y0146633D03*
X0154413Y0144533D03*
X0151613Y0143033D03*
X0151613Y0146133D03*
X0139713Y0146033D03*
X0137213Y0144333D03*
X0139713Y0142433D03*
X0128913Y0126833D03*
X0129813Y0123533D03*
X0126213Y0120033D03*
X0143113Y0105433D03*
X0143713Y0102533D03*
X0146913Y0101333D03*
X0149313Y0107633D03*
X0152313Y0107633D03*
X0155313Y0107633D03*
X0164913Y0083633D03*
X0164913Y0080633D03*
X0167913Y0081833D03*
X0123113Y0089733D03*
X0121113Y0092033D03*
X0118713Y0094433D03*
X0193113Y0126233D03*
X0146313Y0170633D03*
X0143913Y0173033D03*
X0140913Y0173033D03*
X0138513Y0170633D03*
X0133113Y0162233D03*
X0130113Y0160433D03*
X0130113Y0164033D03*
D16*
X0158313Y0141233D03*
X0158313Y0137633D03*
X0162513Y0137633D03*
X0162513Y0141233D03*
X0162513Y0134033D03*
X0158313Y0134033D03*
X0148713Y0129233D03*
X0148713Y0125633D03*
X0148713Y0122033D03*
X0145113Y0122033D03*
X0141513Y0122033D03*
X0137913Y0122033D03*
X0137913Y0125633D03*
X0141513Y0125633D03*
X0145113Y0125633D03*
X0145113Y0129233D03*
X0141513Y0129233D03*
X0137913Y0129233D03*
X0137913Y0118433D03*
X0141513Y0118433D03*
X0145113Y0118433D03*
X0148713Y0118433D03*
X0190113Y0135833D03*
X0123513Y0078833D03*
D17*
X0162513Y0105633D03*
X0172013Y0105633D03*
X0181713Y0105633D03*
D18*
X0096513Y0094593D02*
X0096513Y0077318D01*
X0121119Y0077318D01*
X0120721Y0078278D01*
X0120721Y0079389D01*
X0121146Y0080415D01*
X0121932Y0081200D01*
X0122958Y0081625D01*
X0124069Y0081625D01*
X0125095Y0081200D01*
X0125880Y0080415D01*
X0126305Y0079389D01*
X0126305Y0078278D01*
X0125908Y0077318D01*
X0220194Y0077318D01*
X0220879Y0077385D01*
X0222147Y0077910D01*
X0223117Y0078880D01*
X0223642Y0080147D01*
X0223709Y0080833D01*
X0223709Y0186975D01*
X0223642Y0187661D01*
X0223117Y0188928D01*
X0222147Y0189898D01*
X0220879Y0190423D01*
X0220194Y0190491D01*
X0207513Y0190491D01*
X0207513Y0170833D01*
X0207267Y0169822D01*
X0206850Y0168870D01*
X0206273Y0168004D01*
X0205554Y0167251D01*
X0204716Y0166635D01*
X0203784Y0166174D01*
X0202785Y0165881D01*
X0201751Y0165767D01*
X0200713Y0165833D01*
X0184913Y0165833D01*
X0184045Y0165909D01*
X0183203Y0166135D01*
X0182413Y0166503D01*
X0181699Y0167003D01*
X0181083Y0167619D01*
X0180583Y0168333D01*
X0180215Y0169123D01*
X0179989Y0169965D01*
X0179913Y0170833D01*
X0179913Y0190491D01*
X0072713Y0190491D01*
X0072027Y0190423D01*
X0070760Y0189898D01*
X0069790Y0188928D01*
X0069265Y0187661D01*
X0069197Y0186975D01*
X0069197Y0100428D01*
X0094417Y0100335D01*
X0094979Y0100117D01*
X0095487Y0099791D01*
X0095920Y0099372D01*
X0096263Y0098876D01*
X0096500Y0098322D01*
X0096624Y0097731D01*
X0096626Y0097347D01*
X0096631Y0097358D01*
X0097388Y0098116D01*
X0098378Y0098525D01*
X0099449Y0098525D01*
X0100438Y0098116D01*
X0101196Y0097358D01*
X0101605Y0096369D01*
X0101605Y0095298D01*
X0101196Y0094308D01*
X0100438Y0093551D01*
X0099449Y0093141D01*
X0098378Y0093141D01*
X0097388Y0093551D01*
X0096631Y0094308D01*
X0096513Y0094593D01*
X0096513Y0093807D02*
X0097133Y0093807D01*
X0096513Y0092808D02*
X0100686Y0092808D01*
X0100831Y0093158D02*
X0100421Y0092169D01*
X0100421Y0091098D01*
X0100831Y0090108D01*
X0101588Y0089351D01*
X0102578Y0088941D01*
X0103649Y0088941D01*
X0104638Y0089351D01*
X0105396Y0090108D01*
X0105805Y0091098D01*
X0105805Y0092169D01*
X0105396Y0093158D01*
X0104638Y0093916D01*
X0103649Y0094325D01*
X0102578Y0094325D01*
X0101588Y0093916D01*
X0100831Y0093158D01*
X0100694Y0093807D02*
X0101479Y0093807D01*
X0101401Y0094805D02*
X0108134Y0094805D01*
X0108188Y0094751D02*
X0109178Y0094341D01*
X0110249Y0094341D01*
X0110884Y0094605D01*
X0110621Y0093969D01*
X0110621Y0092898D01*
X0111031Y0091908D01*
X0111788Y0091151D01*
X0112778Y0090741D01*
X0113849Y0090741D01*
X0114221Y0090895D01*
X0114221Y0089898D01*
X0114631Y0088908D01*
X0115388Y0088151D01*
X0116378Y0087741D01*
X0117449Y0087741D01*
X0118438Y0088151D01*
X0119196Y0088908D01*
X0119605Y0089898D01*
X0119605Y0090969D01*
X0119196Y0091958D01*
X0118438Y0092716D01*
X0117449Y0093125D01*
X0116378Y0093125D01*
X0116005Y0092971D01*
X0116005Y0093969D01*
X0115596Y0094958D01*
X0114838Y0095716D01*
X0113849Y0096125D01*
X0112778Y0096125D01*
X0112142Y0095862D01*
X0112405Y0096498D01*
X0112405Y0097569D01*
X0111996Y0098558D01*
X0111238Y0099316D01*
X0110249Y0099725D01*
X0109178Y0099725D01*
X0108188Y0099316D01*
X0107431Y0098558D01*
X0107021Y0097569D01*
X0107021Y0096498D01*
X0107431Y0095508D01*
X0108188Y0094751D01*
X0107309Y0095804D02*
X0101605Y0095804D01*
X0101426Y0096802D02*
X0107021Y0096802D01*
X0107117Y0097801D02*
X0100753Y0097801D01*
X0097073Y0097801D02*
X0096609Y0097801D01*
X0096296Y0098799D02*
X0107672Y0098799D01*
X0107249Y0099141D02*
X0108238Y0099551D01*
X0108996Y0100308D01*
X0109405Y0101298D01*
X0109405Y0102369D01*
X0108996Y0103358D01*
X0108238Y0104116D01*
X0107249Y0104525D01*
X0106178Y0104525D01*
X0105542Y0104262D01*
X0105805Y0104898D01*
X0105805Y0105969D01*
X0105396Y0106958D01*
X0104638Y0107716D01*
X0103649Y0108125D01*
X0102578Y0108125D01*
X0101588Y0107716D01*
X0100831Y0106958D01*
X0100421Y0105969D01*
X0100421Y0104898D01*
X0100831Y0103908D01*
X0101588Y0103151D01*
X0102578Y0102741D01*
X0103649Y0102741D01*
X0104284Y0103005D01*
X0104021Y0102369D01*
X0104021Y0101298D01*
X0104431Y0100308D01*
X0105188Y0099551D01*
X0106178Y0099141D01*
X0107249Y0099141D01*
X0108485Y0099798D02*
X0131979Y0099798D01*
X0130981Y0100796D02*
X0109198Y0100796D01*
X0109405Y0101795D02*
X0129982Y0101795D01*
X0128984Y0102793D02*
X0109230Y0102793D01*
X0108562Y0103792D02*
X0127985Y0103792D01*
X0127713Y0104063D02*
X0128943Y0102833D01*
X0137643Y0094133D01*
X0158772Y0094133D01*
X0158621Y0093769D01*
X0158621Y0092971D01*
X0158249Y0093125D01*
X0157178Y0093125D01*
X0156188Y0092716D01*
X0155431Y0091958D01*
X0155305Y0091654D01*
X0154649Y0091925D01*
X0153578Y0091925D01*
X0152588Y0091516D01*
X0152313Y0091241D01*
X0152038Y0091516D01*
X0151049Y0091925D01*
X0149978Y0091925D01*
X0149251Y0091624D01*
X0149196Y0091758D01*
X0148438Y0092516D01*
X0147449Y0092925D01*
X0146378Y0092925D01*
X0145388Y0092516D01*
X0144631Y0091758D01*
X0144221Y0090769D01*
X0144221Y0089698D01*
X0144631Y0088708D01*
X0145388Y0087951D01*
X0146378Y0087541D01*
X0147449Y0087541D01*
X0148176Y0087842D01*
X0148231Y0087708D01*
X0148988Y0086951D01*
X0149978Y0086541D01*
X0151049Y0086541D01*
X0152038Y0086951D01*
X0152313Y0087226D01*
X0152588Y0086951D01*
X0153578Y0086541D01*
X0154649Y0086541D01*
X0155638Y0086951D01*
X0156396Y0087708D01*
X0156522Y0088013D01*
X0157178Y0087741D01*
X0158249Y0087741D01*
X0159238Y0088151D01*
X0159996Y0088908D01*
X0160405Y0089898D01*
X0160405Y0090695D01*
X0160778Y0090541D01*
X0161849Y0090541D01*
X0162838Y0090951D01*
X0163113Y0091226D01*
X0163388Y0090951D01*
X0164378Y0090541D01*
X0165449Y0090541D01*
X0166438Y0090951D01*
X0166713Y0091226D01*
X0166988Y0090951D01*
X0167978Y0090541D01*
X0169049Y0090541D01*
X0170038Y0090951D01*
X0170796Y0091708D01*
X0171205Y0092698D01*
X0171205Y0093769D01*
X0171054Y0094133D01*
X0172806Y0094133D01*
X0172988Y0093951D01*
X0173978Y0093541D01*
X0175049Y0093541D01*
X0176038Y0093951D01*
X0176220Y0094133D01*
X0177843Y0094133D01*
X0182923Y0089054D01*
X0182588Y0088916D01*
X0181831Y0088158D01*
X0181421Y0087169D01*
X0181421Y0086098D01*
X0181831Y0085108D01*
X0182588Y0084351D01*
X0183578Y0083941D01*
X0184649Y0083941D01*
X0185638Y0084351D01*
X0186396Y0085108D01*
X0186534Y0085443D01*
X0188651Y0083325D01*
X0188478Y0083325D01*
X0187488Y0082916D01*
X0186731Y0082158D01*
X0186321Y0081169D01*
X0186321Y0080098D01*
X0186731Y0079108D01*
X0187488Y0078351D01*
X0188478Y0077941D01*
X0189549Y0077941D01*
X0190538Y0078351D01*
X0191296Y0079108D01*
X0191705Y0080098D01*
X0191705Y0080333D01*
X0199312Y0080333D01*
X0199498Y0079884D01*
X0200764Y0078618D01*
X0202418Y0077933D01*
X0204208Y0077933D01*
X0205862Y0078618D01*
X0207128Y0079884D01*
X0207813Y0081538D01*
X0207813Y0083328D01*
X0207128Y0084982D01*
X0205862Y0086248D01*
X0204208Y0086933D01*
X0202418Y0086933D01*
X0200764Y0086248D01*
X0199498Y0084982D01*
X0199312Y0084533D01*
X0193383Y0084533D01*
X0189080Y0088837D01*
X0189838Y0089151D01*
X0190413Y0089726D01*
X0190988Y0089151D01*
X0191978Y0088741D01*
X0193049Y0088741D01*
X0194038Y0089151D01*
X0194313Y0089426D01*
X0194588Y0089151D01*
X0195578Y0088741D01*
X0196649Y0088741D01*
X0197638Y0089151D01*
X0198396Y0089908D01*
X0198805Y0090898D01*
X0198805Y0091969D01*
X0198396Y0092958D01*
X0197638Y0093716D01*
X0196649Y0094125D01*
X0195578Y0094125D01*
X0194588Y0093716D01*
X0194313Y0093441D01*
X0194038Y0093716D01*
X0193049Y0094125D01*
X0191978Y0094125D01*
X0190988Y0093716D01*
X0190413Y0093141D01*
X0189838Y0093716D01*
X0188849Y0094125D01*
X0187778Y0094125D01*
X0186788Y0093716D01*
X0186031Y0092958D01*
X0185717Y0092200D01*
X0184104Y0093813D01*
X0184438Y0093951D01*
X0185196Y0094708D01*
X0185605Y0095698D01*
X0185605Y0096769D01*
X0185196Y0097758D01*
X0184438Y0098516D01*
X0183449Y0098925D01*
X0182605Y0098925D01*
X0182605Y0099169D01*
X0182261Y0099999D01*
X0182834Y0099999D01*
X0184905Y0100857D01*
X0186489Y0102442D01*
X0187347Y0104513D01*
X0187347Y0106754D01*
X0186489Y0108825D01*
X0184905Y0110409D01*
X0182834Y0111267D01*
X0180593Y0111267D01*
X0178522Y0110409D01*
X0176937Y0108825D01*
X0176863Y0108646D01*
X0176789Y0108825D01*
X0175205Y0110409D01*
X0173134Y0111267D01*
X0170893Y0111267D01*
X0168822Y0110409D01*
X0167263Y0108851D01*
X0165705Y0110409D01*
X0163634Y0111267D01*
X0161393Y0111267D01*
X0159322Y0110409D01*
X0157737Y0108825D01*
X0157730Y0108807D01*
X0157587Y0109153D01*
X0156833Y0109907D01*
X0155847Y0110315D01*
X0154780Y0110315D01*
X0153813Y0109915D01*
X0152847Y0110315D01*
X0151780Y0110315D01*
X0150813Y0109915D01*
X0149847Y0110315D01*
X0148780Y0110315D01*
X0147794Y0109907D01*
X0147039Y0109153D01*
X0146631Y0108167D01*
X0146631Y0107100D01*
X0147039Y0106114D01*
X0147794Y0105360D01*
X0148780Y0104951D01*
X0149847Y0104951D01*
X0150813Y0105352D01*
X0151780Y0104951D01*
X0152847Y0104951D01*
X0153813Y0105352D01*
X0154780Y0104951D01*
X0155847Y0104951D01*
X0156833Y0105360D01*
X0156879Y0105406D01*
X0156879Y0104513D01*
X0157737Y0102442D01*
X0158641Y0101538D01*
X0158588Y0101516D01*
X0157831Y0100758D01*
X0157421Y0099769D01*
X0157421Y0098698D01*
X0157572Y0098333D01*
X0139383Y0098333D01*
X0131913Y0105803D01*
X0131913Y0121840D01*
X0132087Y0122014D01*
X0132495Y0123000D01*
X0132495Y0124067D01*
X0132087Y0125053D01*
X0131374Y0125766D01*
X0131595Y0126300D01*
X0131595Y0127367D01*
X0131187Y0128353D01*
X0130433Y0129107D01*
X0129447Y0129515D01*
X0128802Y0129515D01*
X0128513Y0129900D01*
X0128513Y0142205D01*
X0134542Y0148233D01*
X0138120Y0148233D01*
X0137439Y0147553D01*
X0137217Y0147015D01*
X0136680Y0147015D01*
X0135694Y0146607D01*
X0134939Y0145853D01*
X0134531Y0144867D01*
X0134531Y0143800D01*
X0134939Y0142814D01*
X0135694Y0142060D01*
X0136680Y0141651D01*
X0137134Y0141651D01*
X0137439Y0140914D01*
X0138194Y0140160D01*
X0139180Y0139751D01*
X0140247Y0139751D01*
X0141233Y0140160D01*
X0141987Y0140914D01*
X0142395Y0141900D01*
X0142395Y0142967D01*
X0141987Y0143953D01*
X0141706Y0144233D01*
X0141987Y0144514D01*
X0142395Y0145500D01*
X0142395Y0146567D01*
X0141987Y0147553D01*
X0141306Y0148233D01*
X0149920Y0148233D01*
X0149339Y0147653D01*
X0148931Y0146667D01*
X0148931Y0145600D01*
X0149339Y0144614D01*
X0149370Y0144583D01*
X0149339Y0144553D01*
X0148931Y0143567D01*
X0148931Y0142500D01*
X0149339Y0141514D01*
X0150094Y0140760D01*
X0151080Y0140351D01*
X0152147Y0140351D01*
X0153133Y0140760D01*
X0153887Y0141514D01*
X0154027Y0141851D01*
X0154947Y0141851D01*
X0155671Y0142151D01*
X0155521Y0141789D01*
X0155521Y0140678D01*
X0155946Y0139652D01*
X0156165Y0139433D01*
X0155946Y0139215D01*
X0155521Y0138189D01*
X0155521Y0137078D01*
X0155946Y0136052D01*
X0156165Y0135833D01*
X0155946Y0135615D01*
X0155521Y0134589D01*
X0155521Y0133478D01*
X0155946Y0132452D01*
X0156732Y0131666D01*
X0157758Y0131241D01*
X0158869Y0131241D01*
X0159895Y0131666D01*
X0160413Y0132185D01*
X0160932Y0131666D01*
X0161958Y0131241D01*
X0163069Y0131241D01*
X0164095Y0131666D01*
X0164880Y0132452D01*
X0165305Y0133478D01*
X0165305Y0134589D01*
X0164880Y0135615D01*
X0164662Y0135833D01*
X0164880Y0136052D01*
X0165305Y0137078D01*
X0165305Y0138189D01*
X0164880Y0139215D01*
X0164662Y0139433D01*
X0164880Y0139652D01*
X0165305Y0140678D01*
X0165305Y0141789D01*
X0164880Y0142815D01*
X0164095Y0143600D01*
X0163069Y0144025D01*
X0161958Y0144025D01*
X0160932Y0143600D01*
X0160413Y0143082D01*
X0159895Y0143600D01*
X0158947Y0143993D01*
X0159833Y0144360D01*
X0160587Y0145114D01*
X0160995Y0146100D01*
X0160995Y0146487D01*
X0162142Y0147633D01*
X0163313Y0148805D01*
X0163313Y0151534D01*
X0163778Y0151341D01*
X0164849Y0151341D01*
X0165838Y0151751D01*
X0166596Y0152508D01*
X0167005Y0153498D01*
X0167005Y0154569D01*
X0166596Y0155558D01*
X0165838Y0156316D01*
X0164849Y0156725D01*
X0163778Y0156725D01*
X0163405Y0156571D01*
X0163405Y0157569D01*
X0162996Y0158558D01*
X0162238Y0159316D01*
X0161249Y0159725D01*
X0160178Y0159725D01*
X0159188Y0159316D01*
X0158431Y0158558D01*
X0158021Y0157569D01*
X0158021Y0156498D01*
X0158431Y0155508D01*
X0158706Y0155233D01*
X0156285Y0155233D01*
X0155085Y0154033D01*
X0132285Y0154033D01*
X0131113Y0152862D01*
X0131113Y0152862D01*
X0123885Y0145633D01*
X0122713Y0144462D01*
X0122713Y0121205D01*
X0123531Y0120387D01*
X0123531Y0119500D01*
X0123939Y0118514D01*
X0124694Y0117760D01*
X0125680Y0117351D01*
X0126747Y0117351D01*
X0127713Y0117752D01*
X0127713Y0104063D01*
X0127713Y0104790D02*
X0105761Y0104790D01*
X0105805Y0105789D02*
X0127713Y0105789D01*
X0127713Y0106787D02*
X0105466Y0106787D01*
X0104469Y0107786D02*
X0127713Y0107786D01*
X0127713Y0108784D02*
X0069197Y0108784D01*
X0069197Y0107786D02*
X0101758Y0107786D01*
X0100760Y0106787D02*
X0069197Y0106787D01*
X0069197Y0105789D02*
X0100421Y0105789D01*
X0100466Y0104790D02*
X0069197Y0104790D01*
X0069197Y0103792D02*
X0100948Y0103792D01*
X0102452Y0102793D02*
X0069197Y0102793D01*
X0069197Y0101795D02*
X0104021Y0101795D01*
X0104197Y0102793D02*
X0103774Y0102793D01*
X0104229Y0100796D02*
X0069197Y0100796D01*
X0069197Y0109783D02*
X0127713Y0109783D01*
X0127713Y0110781D02*
X0091257Y0110781D01*
X0090623Y0110518D02*
X0091934Y0111061D01*
X0092937Y0112065D01*
X0093480Y0113376D01*
X0093480Y0114795D01*
X0092937Y0116106D01*
X0091934Y0117109D01*
X0090623Y0117652D01*
X0089204Y0117652D01*
X0087893Y0117109D01*
X0086889Y0116106D01*
X0086346Y0114795D01*
X0086346Y0113376D01*
X0086889Y0112065D01*
X0087893Y0111061D01*
X0089204Y0110518D01*
X0090623Y0110518D01*
X0088569Y0110781D02*
X0069197Y0110781D01*
X0069197Y0111780D02*
X0087174Y0111780D01*
X0086594Y0112778D02*
X0069197Y0112778D01*
X0069197Y0113777D02*
X0086346Y0113777D01*
X0086346Y0114775D02*
X0069197Y0114775D01*
X0069197Y0115774D02*
X0086752Y0115774D01*
X0087556Y0116772D02*
X0069197Y0116772D01*
X0069197Y0117771D02*
X0124683Y0117771D01*
X0123834Y0118769D02*
X0091533Y0118769D01*
X0091934Y0118935D02*
X0092937Y0119939D01*
X0093480Y0121250D01*
X0093480Y0122669D01*
X0092937Y0123980D01*
X0091934Y0124983D01*
X0090623Y0125526D01*
X0089204Y0125526D01*
X0087893Y0124983D01*
X0086889Y0123980D01*
X0086346Y0122669D01*
X0086346Y0121250D01*
X0086889Y0119939D01*
X0087893Y0118935D01*
X0089204Y0118392D01*
X0090623Y0118392D01*
X0091934Y0118935D01*
X0092766Y0119768D02*
X0123531Y0119768D01*
X0123152Y0120766D02*
X0093280Y0120766D01*
X0093480Y0121765D02*
X0122713Y0121765D01*
X0122713Y0122763D02*
X0093441Y0122763D01*
X0093027Y0123762D02*
X0122713Y0123762D01*
X0122713Y0124760D02*
X0092157Y0124760D01*
X0091808Y0126757D02*
X0122713Y0126757D01*
X0122713Y0125759D02*
X0081148Y0125759D01*
X0081205Y0125898D02*
X0081205Y0126969D01*
X0080796Y0127958D01*
X0080220Y0128533D01*
X0080796Y0129108D01*
X0081205Y0130098D01*
X0081205Y0131169D01*
X0080796Y0132158D01*
X0080520Y0132433D01*
X0080796Y0132708D01*
X0081205Y0133698D01*
X0081205Y0134769D01*
X0080796Y0135758D01*
X0080038Y0136516D01*
X0079754Y0136633D01*
X0080038Y0136751D01*
X0080796Y0137508D01*
X0081205Y0138498D01*
X0081205Y0139569D01*
X0080796Y0140558D01*
X0080038Y0141316D01*
X0079754Y0141433D01*
X0080038Y0141551D01*
X0080796Y0142308D01*
X0081205Y0143298D01*
X0081205Y0144369D01*
X0080796Y0145358D01*
X0080038Y0146116D01*
X0079049Y0146525D01*
X0077978Y0146525D01*
X0076988Y0146116D01*
X0076231Y0145358D01*
X0075821Y0144369D01*
X0075821Y0143298D01*
X0076231Y0142308D01*
X0076988Y0141551D01*
X0077273Y0141433D01*
X0076988Y0141316D01*
X0076231Y0140558D01*
X0075821Y0139569D01*
X0075821Y0138498D01*
X0076231Y0137508D01*
X0076988Y0136751D01*
X0077273Y0136633D01*
X0076988Y0136516D01*
X0076231Y0135758D01*
X0075821Y0134769D01*
X0075821Y0133698D01*
X0076231Y0132708D01*
X0076506Y0132433D01*
X0076231Y0132158D01*
X0075821Y0131169D01*
X0075821Y0130098D01*
X0076231Y0129108D01*
X0076806Y0128533D01*
X0076231Y0127958D01*
X0075821Y0126969D01*
X0075821Y0125898D01*
X0076231Y0124908D01*
X0076988Y0124151D01*
X0077978Y0123741D01*
X0079049Y0123741D01*
X0080038Y0124151D01*
X0080796Y0124908D01*
X0081205Y0125898D01*
X0081205Y0126757D02*
X0088018Y0126757D01*
X0087893Y0126809D02*
X0089204Y0126266D01*
X0090623Y0126266D01*
X0091934Y0126809D01*
X0092937Y0127813D01*
X0093480Y0129124D01*
X0093480Y0130543D01*
X0092937Y0131854D01*
X0091934Y0132857D01*
X0090623Y0133400D01*
X0089204Y0133400D01*
X0087893Y0132857D01*
X0086889Y0131854D01*
X0086346Y0130543D01*
X0086346Y0129124D01*
X0086889Y0127813D01*
X0087893Y0126809D01*
X0086946Y0127756D02*
X0080879Y0127756D01*
X0080442Y0128754D02*
X0086499Y0128754D01*
X0086346Y0129753D02*
X0081063Y0129753D01*
X0081205Y0130751D02*
X0086433Y0130751D01*
X0086846Y0131750D02*
X0080965Y0131750D01*
X0080812Y0132748D02*
X0087784Y0132748D01*
X0087893Y0134683D02*
X0089204Y0134140D01*
X0090623Y0134140D01*
X0091934Y0134683D01*
X0092937Y0135687D01*
X0093480Y0136998D01*
X0093480Y0138417D01*
X0092937Y0139728D01*
X0091934Y0140731D01*
X0090623Y0141274D01*
X0089204Y0141274D01*
X0087893Y0140731D01*
X0086889Y0139728D01*
X0086346Y0138417D01*
X0086346Y0136998D01*
X0086889Y0135687D01*
X0087893Y0134683D01*
X0087831Y0134745D02*
X0081205Y0134745D01*
X0081205Y0133747D02*
X0122713Y0133747D01*
X0122713Y0134745D02*
X0091996Y0134745D01*
X0092961Y0135744D02*
X0122713Y0135744D01*
X0122713Y0136743D02*
X0093374Y0136743D01*
X0093480Y0137741D02*
X0122713Y0137741D01*
X0122713Y0138740D02*
X0093347Y0138740D01*
X0092927Y0139738D02*
X0122713Y0139738D01*
X0122713Y0140737D02*
X0091921Y0140737D01*
X0091934Y0142557D02*
X0092937Y0143561D01*
X0093480Y0144872D01*
X0093480Y0146291D01*
X0092937Y0147602D01*
X0091934Y0148605D01*
X0090623Y0149148D01*
X0089204Y0149148D01*
X0087893Y0148605D01*
X0086889Y0147602D01*
X0086346Y0146291D01*
X0086346Y0144872D01*
X0086889Y0143561D01*
X0087893Y0142557D01*
X0089204Y0142014D01*
X0090623Y0142014D01*
X0091934Y0142557D01*
X0092110Y0142734D02*
X0122713Y0142734D01*
X0122713Y0143732D02*
X0093008Y0143732D01*
X0093422Y0144731D02*
X0122982Y0144731D01*
X0123981Y0145729D02*
X0093480Y0145729D01*
X0093299Y0146728D02*
X0124979Y0146728D01*
X0125978Y0147726D02*
X0092813Y0147726D01*
X0091645Y0148725D02*
X0126976Y0148725D01*
X0127975Y0149723D02*
X0077005Y0149723D01*
X0077005Y0149769D02*
X0076596Y0150758D01*
X0076020Y0151333D01*
X0076596Y0151908D01*
X0077005Y0152898D01*
X0077005Y0153969D01*
X0076596Y0154958D01*
X0076320Y0155233D01*
X0076596Y0155508D01*
X0077005Y0156498D01*
X0077005Y0157569D01*
X0076596Y0158558D01*
X0075838Y0159316D01*
X0074849Y0159725D01*
X0073778Y0159725D01*
X0072788Y0159316D01*
X0072031Y0158558D01*
X0071621Y0157569D01*
X0071621Y0156498D01*
X0072031Y0155508D01*
X0072306Y0155233D01*
X0072031Y0154958D01*
X0071621Y0153969D01*
X0071621Y0152898D01*
X0072031Y0151908D01*
X0072606Y0151333D01*
X0072031Y0150758D01*
X0071621Y0149769D01*
X0071621Y0148698D01*
X0072031Y0147708D01*
X0072788Y0146951D01*
X0073778Y0146541D01*
X0074849Y0146541D01*
X0075838Y0146951D01*
X0076596Y0147708D01*
X0077005Y0148698D01*
X0077005Y0149769D01*
X0076611Y0150722D02*
X0087729Y0150722D01*
X0087893Y0150557D02*
X0089204Y0150014D01*
X0090623Y0150014D01*
X0091934Y0150557D01*
X0092937Y0151561D01*
X0093480Y0152872D01*
X0093480Y0154291D01*
X0092937Y0155602D01*
X0091934Y0156605D01*
X0090623Y0157148D01*
X0089204Y0157148D01*
X0087893Y0156605D01*
X0086889Y0155602D01*
X0086346Y0154291D01*
X0086346Y0152872D01*
X0086889Y0151561D01*
X0087893Y0150557D01*
X0086823Y0151720D02*
X0076407Y0151720D01*
X0076931Y0152719D02*
X0086410Y0152719D01*
X0086346Y0153717D02*
X0077005Y0153717D01*
X0076696Y0154716D02*
X0086522Y0154716D01*
X0087002Y0155714D02*
X0076681Y0155714D01*
X0077005Y0156713D02*
X0088152Y0156713D01*
X0091674Y0156713D02*
X0137698Y0156713D01*
X0137621Y0156898D02*
X0138031Y0155908D01*
X0138788Y0155151D01*
X0139778Y0154741D01*
X0140849Y0154741D01*
X0141838Y0155151D01*
X0142113Y0155426D01*
X0142388Y0155151D01*
X0143378Y0154741D01*
X0144449Y0154741D01*
X0145438Y0155151D01*
X0145713Y0155426D01*
X0145988Y0155151D01*
X0146978Y0154741D01*
X0148049Y0154741D01*
X0149038Y0155151D01*
X0149313Y0155426D01*
X0149588Y0155151D01*
X0150578Y0154741D01*
X0151649Y0154741D01*
X0152638Y0155151D01*
X0153396Y0155908D01*
X0153805Y0156898D01*
X0153805Y0157969D01*
X0153396Y0158958D01*
X0152638Y0159716D01*
X0151649Y0160125D01*
X0150578Y0160125D01*
X0149588Y0159716D01*
X0149313Y0159441D01*
X0149038Y0159716D01*
X0148049Y0160125D01*
X0146978Y0160125D01*
X0145988Y0159716D01*
X0145713Y0159441D01*
X0145438Y0159716D01*
X0144449Y0160125D01*
X0143378Y0160125D01*
X0142388Y0159716D01*
X0142113Y0159441D01*
X0141838Y0159716D01*
X0140849Y0160125D01*
X0139778Y0160125D01*
X0138788Y0159716D01*
X0138031Y0158958D01*
X0137621Y0157969D01*
X0137621Y0156898D01*
X0137621Y0157711D02*
X0076946Y0157711D01*
X0076444Y0158710D02*
X0137928Y0158710D01*
X0138781Y0159708D02*
X0112595Y0159708D01*
X0112438Y0159551D02*
X0113196Y0160308D01*
X0113605Y0161298D01*
X0113605Y0162369D01*
X0113196Y0163358D01*
X0112438Y0164116D01*
X0111449Y0164525D01*
X0110378Y0164525D01*
X0109388Y0164116D01*
X0108631Y0163358D01*
X0108221Y0162369D01*
X0108221Y0161298D01*
X0108631Y0160308D01*
X0109388Y0159551D01*
X0110378Y0159141D01*
X0111449Y0159141D01*
X0112438Y0159551D01*
X0113361Y0160707D02*
X0177878Y0160707D01*
X0177821Y0160569D02*
X0177821Y0159498D01*
X0178231Y0158508D01*
X0178988Y0157751D01*
X0179978Y0157341D01*
X0181049Y0157341D01*
X0182038Y0157751D01*
X0182796Y0158508D01*
X0183205Y0159498D01*
X0183205Y0160569D01*
X0182796Y0161558D01*
X0182520Y0161833D01*
X0182796Y0162108D01*
X0183205Y0163098D01*
X0183205Y0164169D01*
X0182796Y0165158D01*
X0182038Y0165916D01*
X0181049Y0166325D01*
X0179978Y0166325D01*
X0178988Y0165916D01*
X0178231Y0165158D01*
X0177821Y0164169D01*
X0177821Y0163098D01*
X0178231Y0162108D01*
X0178506Y0161833D01*
X0178231Y0161558D01*
X0177821Y0160569D01*
X0177821Y0159708D02*
X0161290Y0159708D01*
X0160136Y0159708D02*
X0152646Y0159708D01*
X0153498Y0158710D02*
X0158582Y0158710D01*
X0158080Y0157711D02*
X0153805Y0157711D01*
X0153729Y0156713D02*
X0158021Y0156713D01*
X0158346Y0155714D02*
X0153201Y0155714D01*
X0155767Y0154716D02*
X0093304Y0154716D01*
X0093480Y0153717D02*
X0131969Y0153717D01*
X0130970Y0152719D02*
X0093417Y0152719D01*
X0093003Y0151720D02*
X0129972Y0151720D01*
X0128973Y0150722D02*
X0092098Y0150722D01*
X0088181Y0148725D02*
X0077005Y0148725D01*
X0076603Y0147726D02*
X0087014Y0147726D01*
X0086527Y0146728D02*
X0075299Y0146728D01*
X0076602Y0145729D02*
X0069197Y0145729D01*
X0069197Y0144731D02*
X0075971Y0144731D01*
X0075821Y0143732D02*
X0069197Y0143732D01*
X0069197Y0142734D02*
X0076055Y0142734D01*
X0076804Y0141735D02*
X0069197Y0141735D01*
X0069197Y0140737D02*
X0076409Y0140737D01*
X0075891Y0139738D02*
X0069197Y0139738D01*
X0069197Y0138740D02*
X0075821Y0138740D01*
X0076135Y0137741D02*
X0069197Y0137741D01*
X0069197Y0136743D02*
X0077009Y0136743D01*
X0076225Y0135744D02*
X0069197Y0135744D01*
X0069197Y0134745D02*
X0075821Y0134745D01*
X0075821Y0133747D02*
X0069197Y0133747D01*
X0069197Y0132748D02*
X0076214Y0132748D01*
X0076062Y0131750D02*
X0069197Y0131750D01*
X0069197Y0130751D02*
X0075821Y0130751D01*
X0075964Y0129753D02*
X0069197Y0129753D01*
X0069197Y0128754D02*
X0076585Y0128754D01*
X0076147Y0127756D02*
X0069197Y0127756D01*
X0069197Y0126757D02*
X0075821Y0126757D01*
X0075879Y0125759D02*
X0069197Y0125759D01*
X0069197Y0124760D02*
X0076379Y0124760D01*
X0076988Y0123316D02*
X0076231Y0122558D01*
X0075821Y0121569D01*
X0075821Y0120498D01*
X0076231Y0119508D01*
X0076988Y0118751D01*
X0077978Y0118341D01*
X0079049Y0118341D01*
X0080038Y0118751D01*
X0080796Y0119508D01*
X0081205Y0120498D01*
X0081205Y0121569D01*
X0080796Y0122558D01*
X0080038Y0123316D01*
X0079049Y0123725D01*
X0077978Y0123725D01*
X0076988Y0123316D01*
X0076436Y0122763D02*
X0069197Y0122763D01*
X0069197Y0121765D02*
X0075902Y0121765D01*
X0075821Y0120766D02*
X0069197Y0120766D01*
X0069197Y0119768D02*
X0076123Y0119768D01*
X0076970Y0118769D02*
X0069197Y0118769D01*
X0069197Y0123762D02*
X0077928Y0123762D01*
X0079099Y0123762D02*
X0086799Y0123762D01*
X0086385Y0122763D02*
X0080590Y0122763D01*
X0081124Y0121765D02*
X0086346Y0121765D01*
X0086547Y0120766D02*
X0081205Y0120766D01*
X0080903Y0119768D02*
X0087060Y0119768D01*
X0088294Y0118769D02*
X0080056Y0118769D01*
X0080648Y0124760D02*
X0087670Y0124760D01*
X0092880Y0127756D02*
X0122713Y0127756D01*
X0122713Y0128754D02*
X0093327Y0128754D01*
X0093480Y0129753D02*
X0122713Y0129753D01*
X0122713Y0130751D02*
X0093394Y0130751D01*
X0092980Y0131750D02*
X0122713Y0131750D01*
X0122713Y0132748D02*
X0092042Y0132748D01*
X0086866Y0135744D02*
X0080801Y0135744D01*
X0080018Y0136743D02*
X0086452Y0136743D01*
X0086346Y0137741D02*
X0080892Y0137741D01*
X0081205Y0138740D02*
X0086480Y0138740D01*
X0086900Y0139738D02*
X0081135Y0139738D01*
X0080617Y0140737D02*
X0087906Y0140737D01*
X0087717Y0142734D02*
X0080972Y0142734D01*
X0081205Y0143732D02*
X0086818Y0143732D01*
X0086405Y0144731D02*
X0081056Y0144731D01*
X0080425Y0145729D02*
X0086346Y0145729D01*
X0080222Y0141735D02*
X0122713Y0141735D01*
X0124713Y0143633D02*
X0124713Y0122033D01*
X0126213Y0120533D01*
X0126213Y0120033D01*
X0127713Y0116772D02*
X0092271Y0116772D01*
X0093075Y0115774D02*
X0127713Y0115774D01*
X0127713Y0114775D02*
X0093480Y0114775D01*
X0093480Y0113777D02*
X0127713Y0113777D01*
X0127713Y0112778D02*
X0093233Y0112778D01*
X0092652Y0111780D02*
X0127713Y0111780D01*
X0131913Y0111780D02*
X0206621Y0111780D01*
X0206621Y0111298D02*
X0206621Y0112369D01*
X0207031Y0113358D01*
X0207306Y0113633D01*
X0207031Y0113908D01*
X0206621Y0114898D01*
X0206621Y0115969D01*
X0207031Y0116958D01*
X0207306Y0117233D01*
X0207031Y0117508D01*
X0206621Y0118498D01*
X0206621Y0119569D01*
X0207031Y0120558D01*
X0207788Y0121316D01*
X0208778Y0121725D01*
X0209849Y0121725D01*
X0210838Y0121316D01*
X0211596Y0120558D01*
X0212005Y0119569D01*
X0212005Y0118498D01*
X0211596Y0117508D01*
X0211320Y0117233D01*
X0211596Y0116958D01*
X0212005Y0115969D01*
X0212005Y0114898D01*
X0211596Y0113908D01*
X0211320Y0113633D01*
X0211596Y0113358D01*
X0212005Y0112369D01*
X0212005Y0111298D01*
X0211596Y0110308D01*
X0211320Y0110033D01*
X0211596Y0109758D01*
X0212005Y0108769D01*
X0212005Y0107698D01*
X0211596Y0106708D01*
X0210838Y0105951D01*
X0209849Y0105541D01*
X0208778Y0105541D01*
X0207788Y0105951D01*
X0207031Y0106708D01*
X0206621Y0107698D01*
X0206621Y0108769D01*
X0207031Y0109758D01*
X0207306Y0110033D01*
X0207031Y0110308D01*
X0206621Y0111298D01*
X0206835Y0110781D02*
X0184007Y0110781D01*
X0185531Y0109783D02*
X0207055Y0109783D01*
X0206627Y0108784D02*
X0186506Y0108784D01*
X0186920Y0107786D02*
X0206621Y0107786D01*
X0206998Y0106787D02*
X0187333Y0106787D01*
X0187347Y0105789D02*
X0208180Y0105789D01*
X0210446Y0105789D02*
X0218021Y0105789D01*
X0218021Y0105298D02*
X0218431Y0104308D01*
X0219188Y0103551D01*
X0220178Y0103141D01*
X0221249Y0103141D01*
X0222238Y0103551D01*
X0222996Y0104308D01*
X0223405Y0105298D01*
X0223405Y0106369D01*
X0222996Y0107358D01*
X0222420Y0107933D01*
X0222996Y0108508D01*
X0223405Y0109498D01*
X0223405Y0110569D01*
X0222996Y0111558D01*
X0222320Y0112233D01*
X0222996Y0112908D01*
X0223405Y0113898D01*
X0223405Y0114969D01*
X0222996Y0115958D01*
X0222520Y0116433D01*
X0222996Y0116908D01*
X0223405Y0117898D01*
X0223405Y0118969D01*
X0222996Y0119958D01*
X0222238Y0120716D01*
X0221249Y0121125D01*
X0220178Y0121125D01*
X0219188Y0120716D01*
X0218431Y0119958D01*
X0218021Y0118969D01*
X0218021Y0117898D01*
X0218431Y0116908D01*
X0218906Y0116433D01*
X0218431Y0115958D01*
X0218021Y0114969D01*
X0218021Y0113898D01*
X0218431Y0112908D01*
X0219106Y0112233D01*
X0218431Y0111558D01*
X0218021Y0110569D01*
X0218021Y0109498D01*
X0218431Y0108508D01*
X0219006Y0107933D01*
X0218431Y0107358D01*
X0218021Y0106369D01*
X0218021Y0105298D01*
X0218231Y0104790D02*
X0187347Y0104790D01*
X0187048Y0103792D02*
X0218948Y0103792D01*
X0218194Y0106787D02*
X0211628Y0106787D01*
X0212005Y0107786D02*
X0218858Y0107786D01*
X0218317Y0108784D02*
X0211999Y0108784D01*
X0211571Y0109783D02*
X0218021Y0109783D01*
X0218109Y0110781D02*
X0211791Y0110781D01*
X0212005Y0111780D02*
X0218652Y0111780D01*
X0218561Y0112778D02*
X0211836Y0112778D01*
X0211464Y0113777D02*
X0218071Y0113777D01*
X0218021Y0114775D02*
X0211955Y0114775D01*
X0212005Y0115774D02*
X0218355Y0115774D01*
X0218567Y0116772D02*
X0211673Y0116772D01*
X0211704Y0117771D02*
X0218074Y0117771D01*
X0218021Y0118769D02*
X0212005Y0118769D01*
X0211923Y0119768D02*
X0218352Y0119768D01*
X0219311Y0120766D02*
X0211387Y0120766D01*
X0207239Y0120766D02*
X0151211Y0120766D01*
X0151080Y0120452D02*
X0151505Y0121478D01*
X0151505Y0122589D01*
X0151080Y0123615D01*
X0150862Y0123833D01*
X0151080Y0124052D01*
X0151505Y0125078D01*
X0151505Y0126189D01*
X0151080Y0127215D01*
X0150862Y0127433D01*
X0151080Y0127652D01*
X0151505Y0128678D01*
X0151505Y0129789D01*
X0151080Y0130815D01*
X0150295Y0131600D01*
X0149269Y0132025D01*
X0148158Y0132025D01*
X0147132Y0131600D01*
X0146913Y0131382D01*
X0146695Y0131600D01*
X0145669Y0132025D01*
X0144558Y0132025D01*
X0143532Y0131600D01*
X0143313Y0131382D01*
X0143095Y0131600D01*
X0142069Y0132025D01*
X0140958Y0132025D01*
X0139932Y0131600D01*
X0139713Y0131382D01*
X0139495Y0131600D01*
X0138469Y0132025D01*
X0137358Y0132025D01*
X0136332Y0131600D01*
X0135546Y0130815D01*
X0135121Y0129789D01*
X0135121Y0128678D01*
X0135546Y0127652D01*
X0135765Y0127433D01*
X0135546Y0127215D01*
X0135121Y0126189D01*
X0135121Y0125078D01*
X0135546Y0124052D01*
X0135765Y0123833D01*
X0135546Y0123615D01*
X0135121Y0122589D01*
X0135121Y0121478D01*
X0135546Y0120452D01*
X0135765Y0120233D01*
X0135546Y0120015D01*
X0135121Y0118989D01*
X0135121Y0117878D01*
X0135546Y0116852D01*
X0136332Y0116066D01*
X0137358Y0115641D01*
X0138469Y0115641D01*
X0139495Y0116066D01*
X0139713Y0116285D01*
X0139932Y0116066D01*
X0140958Y0115641D01*
X0142069Y0115641D01*
X0143095Y0116066D01*
X0143313Y0116285D01*
X0143532Y0116066D01*
X0144558Y0115641D01*
X0145669Y0115641D01*
X0146695Y0116066D01*
X0146913Y0116285D01*
X0147132Y0116066D01*
X0148158Y0115641D01*
X0149269Y0115641D01*
X0150295Y0116066D01*
X0151080Y0116852D01*
X0151505Y0117878D01*
X0151505Y0118989D01*
X0151080Y0120015D01*
X0150862Y0120233D01*
X0151080Y0120452D01*
X0151183Y0119768D02*
X0206704Y0119768D01*
X0206621Y0118769D02*
X0151505Y0118769D01*
X0151461Y0117771D02*
X0206922Y0117771D01*
X0206954Y0116772D02*
X0151001Y0116772D01*
X0149589Y0115774D02*
X0206621Y0115774D01*
X0206672Y0114775D02*
X0131913Y0114775D01*
X0131913Y0113777D02*
X0207163Y0113777D01*
X0206791Y0112778D02*
X0131913Y0112778D01*
X0131913Y0110781D02*
X0160219Y0110781D01*
X0158695Y0109783D02*
X0156957Y0109783D01*
X0156879Y0104790D02*
X0145750Y0104790D01*
X0145795Y0104900D02*
X0145795Y0105967D01*
X0145387Y0106953D01*
X0144633Y0107707D01*
X0143647Y0108115D01*
X0142580Y0108115D01*
X0141594Y0107707D01*
X0140839Y0106953D01*
X0140431Y0105967D01*
X0140431Y0104900D01*
X0140839Y0103914D01*
X0141223Y0103530D01*
X0141031Y0103067D01*
X0141031Y0102000D01*
X0141439Y0101014D01*
X0142194Y0100260D01*
X0143180Y0099851D01*
X0144247Y0099851D01*
X0144569Y0099985D01*
X0144639Y0099814D01*
X0145394Y0099060D01*
X0146380Y0098651D01*
X0147447Y0098651D01*
X0148433Y0099060D01*
X0149187Y0099814D01*
X0149595Y0100800D01*
X0149595Y0101867D01*
X0149187Y0102853D01*
X0148433Y0103607D01*
X0147447Y0104015D01*
X0146380Y0104015D01*
X0146058Y0103882D01*
X0145987Y0104053D01*
X0145603Y0104436D01*
X0145795Y0104900D01*
X0145795Y0105789D02*
X0147365Y0105789D01*
X0146761Y0106787D02*
X0145456Y0106787D01*
X0144443Y0107786D02*
X0146631Y0107786D01*
X0146887Y0108784D02*
X0131913Y0108784D01*
X0131913Y0107786D02*
X0141784Y0107786D01*
X0140771Y0106787D02*
X0131913Y0106787D01*
X0131928Y0105789D02*
X0140431Y0105789D01*
X0140477Y0104790D02*
X0132926Y0104790D01*
X0133925Y0103792D02*
X0140962Y0103792D01*
X0141031Y0102793D02*
X0134923Y0102793D01*
X0135922Y0101795D02*
X0141116Y0101795D01*
X0141657Y0100796D02*
X0136920Y0100796D01*
X0137919Y0099798D02*
X0144656Y0099798D01*
X0146023Y0098799D02*
X0138917Y0098799D01*
X0134975Y0096802D02*
X0112405Y0096802D01*
X0112309Y0097801D02*
X0133976Y0097801D01*
X0132978Y0098799D02*
X0111755Y0098799D01*
X0114626Y0095804D02*
X0135973Y0095804D01*
X0136972Y0094805D02*
X0115659Y0094805D01*
X0116005Y0093807D02*
X0158637Y0093807D01*
X0156411Y0092808D02*
X0147732Y0092808D01*
X0146094Y0092808D02*
X0141615Y0092808D01*
X0141838Y0092716D02*
X0140849Y0093125D01*
X0139778Y0093125D01*
X0138788Y0092716D01*
X0138031Y0091958D01*
X0137913Y0091674D01*
X0137796Y0091958D01*
X0137038Y0092716D01*
X0136049Y0093125D01*
X0134978Y0093125D01*
X0133988Y0092716D01*
X0133231Y0091958D01*
X0133113Y0091674D01*
X0132996Y0091958D01*
X0132238Y0092716D01*
X0131249Y0093125D01*
X0130178Y0093125D01*
X0129188Y0092716D01*
X0128431Y0091958D01*
X0128021Y0090969D01*
X0128021Y0089898D01*
X0128431Y0088908D01*
X0129188Y0088151D01*
X0130178Y0087741D01*
X0131249Y0087741D01*
X0132238Y0088151D01*
X0132996Y0088908D01*
X0133113Y0089193D01*
X0133231Y0088908D01*
X0133988Y0088151D01*
X0134978Y0087741D01*
X0136049Y0087741D01*
X0137038Y0088151D01*
X0137796Y0088908D01*
X0137913Y0089193D01*
X0138031Y0088908D01*
X0138788Y0088151D01*
X0139778Y0087741D01*
X0140849Y0087741D01*
X0141838Y0088151D01*
X0142596Y0088908D01*
X0143005Y0089898D01*
X0143005Y0090969D01*
X0142596Y0091958D01*
X0141838Y0092716D01*
X0142657Y0091810D02*
X0144682Y0091810D01*
X0144239Y0090811D02*
X0143005Y0090811D01*
X0142970Y0089812D02*
X0144221Y0089812D01*
X0144587Y0088814D02*
X0142501Y0088814D01*
X0141028Y0087815D02*
X0145716Y0087815D01*
X0148111Y0087815D02*
X0148187Y0087815D01*
X0149312Y0086817D02*
X0109972Y0086817D01*
X0110005Y0086898D02*
X0109596Y0085908D01*
X0108838Y0085151D01*
X0107849Y0084741D01*
X0106778Y0084741D01*
X0105788Y0085151D01*
X0105031Y0085908D01*
X0104621Y0086898D01*
X0104621Y0087969D01*
X0105031Y0088958D01*
X0105788Y0089716D01*
X0106778Y0090125D01*
X0107849Y0090125D01*
X0108838Y0089716D01*
X0109596Y0088958D01*
X0110005Y0087969D01*
X0110005Y0086898D01*
X0110005Y0087815D02*
X0116198Y0087815D01*
X0117628Y0087815D02*
X0129998Y0087815D01*
X0131428Y0087815D02*
X0134798Y0087815D01*
X0136228Y0087815D02*
X0139598Y0087815D01*
X0138125Y0088814D02*
X0137701Y0088814D01*
X0137857Y0091810D02*
X0137969Y0091810D01*
X0139011Y0092808D02*
X0136815Y0092808D01*
X0134211Y0092808D02*
X0132015Y0092808D01*
X0133057Y0091810D02*
X0133169Y0091810D01*
X0133325Y0088814D02*
X0132901Y0088814D01*
X0128525Y0088814D02*
X0119101Y0088814D01*
X0119570Y0089812D02*
X0128056Y0089812D01*
X0128021Y0090811D02*
X0119605Y0090811D01*
X0119257Y0091810D02*
X0128369Y0091810D01*
X0129411Y0092808D02*
X0118215Y0092808D01*
X0114221Y0090811D02*
X0114017Y0090811D01*
X0114256Y0089812D02*
X0108604Y0089812D01*
X0109655Y0088814D02*
X0114725Y0088814D01*
X0112609Y0090811D02*
X0105687Y0090811D01*
X0105805Y0091810D02*
X0111130Y0091810D01*
X0110658Y0092808D02*
X0105541Y0092808D01*
X0104747Y0093807D02*
X0110621Y0093807D01*
X0106022Y0089812D02*
X0105100Y0089812D01*
X0104971Y0088814D02*
X0096513Y0088814D01*
X0096513Y0089812D02*
X0101127Y0089812D01*
X0100540Y0090811D02*
X0096513Y0090811D01*
X0096513Y0091810D02*
X0100421Y0091810D01*
X0096513Y0087815D02*
X0104621Y0087815D01*
X0104655Y0086817D02*
X0096513Y0086817D01*
X0096513Y0085818D02*
X0105121Y0085818D01*
X0106588Y0084820D02*
X0096513Y0084820D01*
X0096513Y0083821D02*
X0109091Y0083821D01*
X0109231Y0084158D02*
X0108821Y0083169D01*
X0108821Y0082098D01*
X0109231Y0081108D01*
X0109988Y0080351D01*
X0110978Y0079941D01*
X0112049Y0079941D01*
X0113038Y0080351D01*
X0113796Y0081108D01*
X0114205Y0082098D01*
X0114205Y0083169D01*
X0113796Y0084158D01*
X0113038Y0084916D01*
X0112049Y0085325D01*
X0110978Y0085325D01*
X0109988Y0084916D01*
X0109231Y0084158D01*
X0109893Y0084820D02*
X0108039Y0084820D01*
X0109506Y0085818D02*
X0163305Y0085818D01*
X0163394Y0085907D02*
X0162639Y0085153D01*
X0162231Y0084167D01*
X0162231Y0083100D01*
X0162631Y0082133D01*
X0162231Y0081167D01*
X0162231Y0080100D01*
X0162639Y0079114D01*
X0163394Y0078360D01*
X0164380Y0077951D01*
X0165447Y0077951D01*
X0166433Y0078360D01*
X0167187Y0079114D01*
X0167228Y0079214D01*
X0167380Y0079151D01*
X0168447Y0079151D01*
X0169433Y0079560D01*
X0170187Y0080314D01*
X0170595Y0081300D01*
X0170595Y0082367D01*
X0170187Y0083353D01*
X0169433Y0084107D01*
X0168447Y0084515D01*
X0167451Y0084515D01*
X0167187Y0085153D01*
X0166433Y0085907D01*
X0165447Y0086315D01*
X0164380Y0086315D01*
X0163394Y0085907D01*
X0162502Y0084820D02*
X0113134Y0084820D01*
X0113935Y0083821D02*
X0162231Y0083821D01*
X0162346Y0082823D02*
X0114205Y0082823D01*
X0114092Y0081824D02*
X0162504Y0081824D01*
X0162231Y0080826D02*
X0125469Y0080826D01*
X0126124Y0079827D02*
X0162344Y0079827D01*
X0162925Y0078829D02*
X0126305Y0078829D01*
X0126120Y0077830D02*
X0221954Y0077830D01*
X0223066Y0078829D02*
X0206073Y0078829D01*
X0207071Y0079827D02*
X0223509Y0079827D01*
X0223709Y0080826D02*
X0207518Y0080826D01*
X0207813Y0081824D02*
X0223709Y0081824D01*
X0223709Y0082823D02*
X0207813Y0082823D01*
X0207609Y0083821D02*
X0223709Y0083821D01*
X0223709Y0084820D02*
X0207195Y0084820D01*
X0206292Y0085818D02*
X0223709Y0085818D01*
X0223709Y0086817D02*
X0204489Y0086817D01*
X0202137Y0086817D02*
X0191099Y0086817D01*
X0190101Y0087815D02*
X0223709Y0087815D01*
X0223709Y0088814D02*
X0196824Y0088814D01*
X0195402Y0088814D02*
X0193224Y0088814D01*
X0191802Y0088814D02*
X0189102Y0088814D01*
X0192098Y0085818D02*
X0200334Y0085818D01*
X0199431Y0084820D02*
X0193096Y0084820D01*
X0188155Y0083821D02*
X0169718Y0083821D01*
X0170406Y0082823D02*
X0187396Y0082823D01*
X0186593Y0081824D02*
X0170595Y0081824D01*
X0170399Y0080826D02*
X0186321Y0080826D01*
X0186433Y0079827D02*
X0169700Y0079827D01*
X0166902Y0078829D02*
X0187010Y0078829D01*
X0191016Y0078829D02*
X0200554Y0078829D01*
X0199555Y0079827D02*
X0191593Y0079827D01*
X0187157Y0084820D02*
X0186107Y0084820D01*
X0182119Y0084820D02*
X0167325Y0084820D01*
X0166521Y0085818D02*
X0181537Y0085818D01*
X0181421Y0086817D02*
X0155314Y0086817D01*
X0156440Y0087815D02*
X0156998Y0087815D01*
X0158428Y0087815D02*
X0181689Y0087815D01*
X0182487Y0088814D02*
X0159901Y0088814D01*
X0160370Y0089812D02*
X0182164Y0089812D01*
X0181166Y0090811D02*
X0169700Y0090811D01*
X0170837Y0091810D02*
X0180167Y0091810D01*
X0179169Y0092808D02*
X0171205Y0092808D01*
X0171190Y0093807D02*
X0173337Y0093807D01*
X0175689Y0093807D02*
X0178170Y0093807D01*
X0184110Y0093807D02*
X0187008Y0093807D01*
X0185969Y0092808D02*
X0185108Y0092808D01*
X0185236Y0094805D02*
X0223709Y0094805D01*
X0223709Y0093807D02*
X0197419Y0093807D01*
X0198458Y0092808D02*
X0223709Y0092808D01*
X0223709Y0091810D02*
X0198805Y0091810D01*
X0198769Y0090811D02*
X0223709Y0090811D01*
X0223709Y0089812D02*
X0198300Y0089812D01*
X0194808Y0093807D02*
X0193819Y0093807D01*
X0191208Y0093807D02*
X0189619Y0093807D01*
X0185605Y0095804D02*
X0223709Y0095804D01*
X0223709Y0096802D02*
X0185592Y0096802D01*
X0185153Y0097801D02*
X0223709Y0097801D01*
X0223709Y0098799D02*
X0183754Y0098799D01*
X0182345Y0099798D02*
X0223709Y0099798D01*
X0223709Y0100796D02*
X0184757Y0100796D01*
X0185842Y0101795D02*
X0223709Y0101795D01*
X0223709Y0102793D02*
X0186635Y0102793D01*
X0179419Y0110781D02*
X0174307Y0110781D01*
X0175831Y0109783D02*
X0177895Y0109783D01*
X0176920Y0108784D02*
X0176806Y0108784D01*
X0169719Y0110781D02*
X0164807Y0110781D01*
X0166331Y0109783D02*
X0168195Y0109783D01*
X0157178Y0103792D02*
X0147987Y0103792D01*
X0149212Y0102793D02*
X0157592Y0102793D01*
X0158384Y0101795D02*
X0149595Y0101795D01*
X0149594Y0100796D02*
X0157869Y0100796D01*
X0157433Y0099798D02*
X0149171Y0099798D01*
X0147804Y0098799D02*
X0157421Y0098799D01*
X0155369Y0091810D02*
X0154929Y0091810D01*
X0153298Y0091810D02*
X0151329Y0091810D01*
X0149698Y0091810D02*
X0149144Y0091810D01*
X0151714Y0086817D02*
X0152912Y0086817D01*
X0162500Y0090811D02*
X0163726Y0090811D01*
X0166100Y0090811D02*
X0167326Y0090811D01*
X0147670Y0109783D02*
X0131913Y0109783D01*
X0131913Y0115774D02*
X0137038Y0115774D01*
X0135626Y0116772D02*
X0131913Y0116772D01*
X0131913Y0117771D02*
X0135165Y0117771D01*
X0135121Y0118769D02*
X0131913Y0118769D01*
X0131913Y0119768D02*
X0135444Y0119768D01*
X0135416Y0120766D02*
X0131913Y0120766D01*
X0131913Y0121765D02*
X0135121Y0121765D01*
X0135193Y0122763D02*
X0132397Y0122763D01*
X0132495Y0123762D02*
X0135693Y0123762D01*
X0135253Y0124760D02*
X0132208Y0124760D01*
X0131381Y0125759D02*
X0135121Y0125759D01*
X0135357Y0126757D02*
X0131595Y0126757D01*
X0131434Y0127756D02*
X0135503Y0127756D01*
X0135121Y0128754D02*
X0130785Y0128754D01*
X0128624Y0129753D02*
X0135121Y0129753D01*
X0135520Y0130751D02*
X0128513Y0130751D01*
X0128513Y0131750D02*
X0136693Y0131750D01*
X0139134Y0131750D02*
X0140293Y0131750D01*
X0142734Y0131750D02*
X0143893Y0131750D01*
X0146334Y0131750D02*
X0147493Y0131750D01*
X0149934Y0131750D02*
X0156648Y0131750D01*
X0155823Y0132748D02*
X0128513Y0132748D01*
X0128513Y0133747D02*
X0155521Y0133747D01*
X0155586Y0134745D02*
X0128513Y0134745D01*
X0128513Y0135744D02*
X0156075Y0135744D01*
X0155660Y0136743D02*
X0128513Y0136743D01*
X0128513Y0137741D02*
X0155521Y0137741D01*
X0155749Y0138740D02*
X0128513Y0138740D01*
X0128513Y0139738D02*
X0155910Y0139738D01*
X0155521Y0140737D02*
X0153077Y0140737D01*
X0153979Y0141735D02*
X0155521Y0141735D01*
X0159577Y0143732D02*
X0161250Y0143732D01*
X0160204Y0144731D02*
X0223709Y0144731D01*
X0223709Y0145729D02*
X0180629Y0145729D01*
X0180053Y0145491D02*
X0181395Y0146046D01*
X0182421Y0147073D01*
X0182977Y0148414D01*
X0182977Y0149866D01*
X0182421Y0151208D01*
X0181395Y0152234D01*
X0180053Y0152790D01*
X0178601Y0152790D01*
X0177260Y0152234D01*
X0176233Y0151208D01*
X0175678Y0149866D01*
X0175678Y0148414D01*
X0176233Y0147073D01*
X0177260Y0146046D01*
X0178601Y0145491D01*
X0180053Y0145491D01*
X0178026Y0145729D02*
X0160842Y0145729D01*
X0161236Y0146728D02*
X0176579Y0146728D01*
X0175963Y0147726D02*
X0162234Y0147726D01*
X0163233Y0148725D02*
X0175678Y0148725D01*
X0175678Y0149723D02*
X0163313Y0149723D01*
X0163313Y0150722D02*
X0176032Y0150722D01*
X0176746Y0151720D02*
X0165764Y0151720D01*
X0166683Y0152719D02*
X0178429Y0152719D01*
X0180226Y0152719D02*
X0207895Y0152719D01*
X0207821Y0152898D02*
X0208231Y0151908D01*
X0208806Y0151333D01*
X0208231Y0150758D01*
X0207821Y0149769D01*
X0207821Y0148698D01*
X0208231Y0147708D01*
X0208988Y0146951D01*
X0209978Y0146541D01*
X0211049Y0146541D01*
X0212038Y0146951D01*
X0212796Y0147708D01*
X0213205Y0148698D01*
X0213205Y0149769D01*
X0212796Y0150758D01*
X0212220Y0151333D01*
X0212796Y0151908D01*
X0213205Y0152898D01*
X0213205Y0153969D01*
X0212796Y0154958D01*
X0212220Y0155533D01*
X0212796Y0156108D01*
X0213205Y0157098D01*
X0213205Y0158169D01*
X0212796Y0159158D01*
X0212520Y0159433D01*
X0212796Y0159708D01*
X0213205Y0160698D01*
X0213205Y0161769D01*
X0212796Y0162758D01*
X0212038Y0163516D01*
X0211049Y0163925D01*
X0209978Y0163925D01*
X0208988Y0163516D01*
X0208231Y0162758D01*
X0207821Y0161769D01*
X0207821Y0160698D01*
X0208231Y0159708D01*
X0183205Y0159708D01*
X0183148Y0160707D02*
X0207821Y0160707D01*
X0207821Y0161705D02*
X0182648Y0161705D01*
X0183042Y0162704D02*
X0208208Y0162704D01*
X0209439Y0163702D02*
X0183205Y0163702D01*
X0182985Y0164701D02*
X0223709Y0164701D01*
X0223709Y0165699D02*
X0182254Y0165699D01*
X0182135Y0166698D02*
X0109952Y0166698D01*
X0110005Y0166569D02*
X0109596Y0167558D01*
X0108838Y0168316D01*
X0107849Y0168725D01*
X0106778Y0168725D01*
X0105788Y0168316D01*
X0105031Y0167558D01*
X0104621Y0166569D01*
X0104621Y0165498D01*
X0105031Y0164508D01*
X0105788Y0163751D01*
X0106778Y0163341D01*
X0107849Y0163341D01*
X0108838Y0163751D01*
X0109596Y0164508D01*
X0110005Y0165498D01*
X0110005Y0166569D01*
X0110005Y0165699D02*
X0178772Y0165699D01*
X0178041Y0164701D02*
X0109675Y0164701D01*
X0108975Y0163702D02*
X0108721Y0163702D01*
X0108360Y0162704D02*
X0106267Y0162704D01*
X0106405Y0162369D02*
X0105996Y0163358D01*
X0105238Y0164116D01*
X0104249Y0164525D01*
X0103178Y0164525D01*
X0102188Y0164116D01*
X0101431Y0163358D01*
X0101021Y0162369D01*
X0101021Y0161298D01*
X0101431Y0160308D01*
X0102188Y0159551D01*
X0103178Y0159141D01*
X0104249Y0159141D01*
X0105238Y0159551D01*
X0105996Y0160308D01*
X0106405Y0161298D01*
X0106405Y0162369D01*
X0106405Y0161705D02*
X0108221Y0161705D01*
X0108466Y0160707D02*
X0106161Y0160707D01*
X0105395Y0159708D02*
X0109231Y0159708D01*
X0113605Y0161705D02*
X0178378Y0161705D01*
X0177984Y0162704D02*
X0113467Y0162704D01*
X0112851Y0163702D02*
X0177821Y0163702D01*
X0181029Y0167696D02*
X0111823Y0167696D01*
X0111449Y0167541D02*
X0112438Y0167951D01*
X0113196Y0168708D01*
X0113605Y0169698D01*
X0113605Y0170769D01*
X0113196Y0171758D01*
X0112438Y0172516D01*
X0111449Y0172925D01*
X0110378Y0172925D01*
X0109388Y0172516D01*
X0108631Y0171758D01*
X0108221Y0170769D01*
X0108221Y0169698D01*
X0108631Y0168708D01*
X0109388Y0167951D01*
X0110378Y0167541D01*
X0111449Y0167541D01*
X0110003Y0167696D02*
X0109457Y0167696D01*
X0108644Y0168695D02*
X0107923Y0168695D01*
X0108223Y0169693D02*
X0106404Y0169693D01*
X0106405Y0169698D02*
X0105996Y0168708D01*
X0105238Y0167951D01*
X0104249Y0167541D01*
X0103178Y0167541D01*
X0102188Y0167951D01*
X0101431Y0168708D01*
X0101021Y0169698D01*
X0101021Y0170769D01*
X0101431Y0171758D01*
X0102188Y0172516D01*
X0103178Y0172925D01*
X0104249Y0172925D01*
X0105238Y0172516D01*
X0105996Y0171758D01*
X0106405Y0170769D01*
X0106405Y0169698D01*
X0106405Y0170692D02*
X0108221Y0170692D01*
X0108603Y0171690D02*
X0106024Y0171690D01*
X0104820Y0172689D02*
X0109807Y0172689D01*
X0112020Y0172689D02*
X0179913Y0172689D01*
X0179913Y0173687D02*
X0163775Y0173687D01*
X0163438Y0173351D02*
X0164196Y0174108D01*
X0164605Y0175098D01*
X0164605Y0176169D01*
X0164196Y0177158D01*
X0163438Y0177916D01*
X0162621Y0178254D01*
X0162805Y0178698D01*
X0162805Y0179769D01*
X0162396Y0180758D01*
X0161638Y0181516D01*
X0160649Y0181925D01*
X0159578Y0181925D01*
X0158588Y0181516D01*
X0157831Y0180758D01*
X0157421Y0179769D01*
X0157421Y0178698D01*
X0157575Y0178325D01*
X0157178Y0178325D01*
X0156188Y0177916D01*
X0155431Y0177158D01*
X0155021Y0176169D01*
X0155021Y0175098D01*
X0155431Y0174108D01*
X0156188Y0173351D01*
X0157178Y0172941D01*
X0158249Y0172941D01*
X0159238Y0173351D01*
X0159813Y0173926D01*
X0160388Y0173351D01*
X0161378Y0172941D01*
X0162449Y0172941D01*
X0163438Y0173351D01*
X0164435Y0174686D02*
X0179913Y0174686D01*
X0179913Y0175684D02*
X0164605Y0175684D01*
X0164392Y0176683D02*
X0179913Y0176683D01*
X0179913Y0177681D02*
X0163672Y0177681D01*
X0162798Y0178680D02*
X0179913Y0178680D01*
X0179913Y0179679D02*
X0162805Y0179679D01*
X0162429Y0180677D02*
X0175262Y0180677D01*
X0175388Y0180551D02*
X0176378Y0180141D01*
X0177449Y0180141D01*
X0178438Y0180551D01*
X0179196Y0181308D01*
X0179605Y0182298D01*
X0179605Y0183369D01*
X0179196Y0184358D01*
X0178438Y0185116D01*
X0178154Y0185233D01*
X0178438Y0185351D01*
X0179196Y0186108D01*
X0179605Y0187098D01*
X0179605Y0188169D01*
X0179196Y0189158D01*
X0178438Y0189916D01*
X0177449Y0190325D01*
X0176378Y0190325D01*
X0175388Y0189916D01*
X0174631Y0189158D01*
X0174513Y0188874D01*
X0174396Y0189158D01*
X0173638Y0189916D01*
X0172649Y0190325D01*
X0171578Y0190325D01*
X0170588Y0189916D01*
X0169831Y0189158D01*
X0169421Y0188169D01*
X0169421Y0187098D01*
X0169831Y0186108D01*
X0170588Y0185351D01*
X0171578Y0184941D01*
X0172649Y0184941D01*
X0173638Y0185351D01*
X0174396Y0186108D01*
X0174513Y0186393D01*
X0174631Y0186108D01*
X0175388Y0185351D01*
X0175673Y0185233D01*
X0175388Y0185116D01*
X0174631Y0184358D01*
X0174221Y0183369D01*
X0174221Y0182298D01*
X0174631Y0181308D01*
X0175388Y0180551D01*
X0174479Y0181676D02*
X0161252Y0181676D01*
X0158974Y0181676D02*
X0149605Y0181676D01*
X0149605Y0181969D02*
X0149196Y0182958D01*
X0148620Y0183533D01*
X0149196Y0184108D01*
X0149605Y0185098D01*
X0149605Y0186169D01*
X0149196Y0187158D01*
X0148438Y0187916D01*
X0147449Y0188325D01*
X0146378Y0188325D01*
X0145388Y0187916D01*
X0144631Y0187158D01*
X0144221Y0186169D01*
X0144221Y0185098D01*
X0144631Y0184108D01*
X0145206Y0183533D01*
X0144631Y0182958D01*
X0144221Y0181969D01*
X0144221Y0180898D01*
X0144631Y0179908D01*
X0145388Y0179151D01*
X0146378Y0178741D01*
X0147449Y0178741D01*
X0148438Y0179151D01*
X0149196Y0179908D01*
X0149605Y0180898D01*
X0149605Y0181969D01*
X0149313Y0182674D02*
X0174221Y0182674D01*
X0174347Y0183673D02*
X0148760Y0183673D01*
X0149429Y0184671D02*
X0174944Y0184671D01*
X0175070Y0185670D02*
X0173957Y0185670D01*
X0170270Y0185670D02*
X0149605Y0185670D01*
X0149399Y0186668D02*
X0169599Y0186668D01*
X0169421Y0187667D02*
X0148687Y0187667D01*
X0145139Y0187667D02*
X0139687Y0187667D01*
X0139438Y0187916D02*
X0138449Y0188325D01*
X0137378Y0188325D01*
X0136388Y0187916D01*
X0135631Y0187158D01*
X0135221Y0186169D01*
X0135221Y0185098D01*
X0135631Y0184108D01*
X0135906Y0183833D01*
X0135631Y0183558D01*
X0135221Y0182569D01*
X0135221Y0181498D01*
X0135631Y0180508D01*
X0136388Y0179751D01*
X0137378Y0179341D01*
X0138449Y0179341D01*
X0139438Y0179751D01*
X0140196Y0180508D01*
X0140605Y0181498D01*
X0140605Y0182569D01*
X0140196Y0183558D01*
X0139920Y0183833D01*
X0140196Y0184108D01*
X0140605Y0185098D01*
X0140605Y0186169D01*
X0140196Y0187158D01*
X0139438Y0187916D01*
X0140399Y0186668D02*
X0144428Y0186668D01*
X0144221Y0185670D02*
X0140605Y0185670D01*
X0140429Y0184671D02*
X0144398Y0184671D01*
X0145067Y0183673D02*
X0140081Y0183673D01*
X0140562Y0182674D02*
X0144513Y0182674D01*
X0144221Y0181676D02*
X0140605Y0181676D01*
X0140265Y0180677D02*
X0144313Y0180677D01*
X0144861Y0179679D02*
X0139263Y0179679D01*
X0136563Y0179679D02*
X0130960Y0179679D01*
X0131005Y0179569D02*
X0130596Y0180558D01*
X0129838Y0181316D01*
X0128849Y0181725D01*
X0127778Y0181725D01*
X0126788Y0181316D01*
X0126031Y0180558D01*
X0125621Y0179569D01*
X0125621Y0178498D01*
X0126031Y0177508D01*
X0126788Y0176751D01*
X0127778Y0176341D01*
X0128849Y0176341D01*
X0129838Y0176751D01*
X0130596Y0177508D01*
X0131005Y0178498D01*
X0131005Y0179569D01*
X0131005Y0178680D02*
X0157429Y0178680D01*
X0157421Y0179679D02*
X0148966Y0179679D01*
X0149514Y0180677D02*
X0157797Y0180677D01*
X0155954Y0177681D02*
X0130667Y0177681D01*
X0129674Y0176683D02*
X0155234Y0176683D01*
X0155021Y0175684D02*
X0094089Y0175684D01*
X0094387Y0175983D02*
X0094975Y0177402D01*
X0094975Y0178939D01*
X0094387Y0180358D01*
X0093301Y0181445D01*
X0091881Y0182033D01*
X0090345Y0182033D01*
X0088925Y0181445D01*
X0087839Y0180358D01*
X0087251Y0178939D01*
X0087251Y0177402D01*
X0087839Y0175983D01*
X0088925Y0174896D01*
X0090345Y0174308D01*
X0091881Y0174308D01*
X0093301Y0174896D01*
X0094387Y0175983D01*
X0094678Y0176683D02*
X0126953Y0176683D01*
X0125959Y0177681D02*
X0094975Y0177681D01*
X0094975Y0178680D02*
X0125621Y0178680D01*
X0125667Y0179679D02*
X0094669Y0179679D01*
X0094069Y0180677D02*
X0102271Y0180677D01*
X0102618Y0180533D02*
X0104408Y0180533D01*
X0106062Y0181218D01*
X0107328Y0182484D01*
X0108013Y0184138D01*
X0108013Y0185928D01*
X0107328Y0187582D01*
X0106062Y0188848D01*
X0104408Y0189533D01*
X0102618Y0189533D01*
X0100964Y0188848D01*
X0099698Y0187582D01*
X0099013Y0185928D01*
X0099013Y0184138D01*
X0099698Y0182484D01*
X0100964Y0181218D01*
X0102618Y0180533D01*
X0104755Y0180677D02*
X0112271Y0180677D01*
X0112618Y0180533D02*
X0114408Y0180533D01*
X0116062Y0181218D01*
X0117328Y0182484D01*
X0118013Y0184138D01*
X0118013Y0185928D01*
X0117328Y0187582D01*
X0116062Y0188848D01*
X0114408Y0189533D01*
X0112618Y0189533D01*
X0110964Y0188848D01*
X0109698Y0187582D01*
X0109013Y0185928D01*
X0109013Y0184138D01*
X0109698Y0182484D01*
X0110964Y0181218D01*
X0112618Y0180533D01*
X0114755Y0180677D02*
X0122271Y0180677D01*
X0122618Y0180533D02*
X0124408Y0180533D01*
X0126062Y0181218D01*
X0127328Y0182484D01*
X0128013Y0184138D01*
X0128013Y0185928D01*
X0127328Y0187582D01*
X0126062Y0188848D01*
X0124408Y0189533D01*
X0122618Y0189533D01*
X0120964Y0188848D01*
X0119698Y0187582D01*
X0119013Y0185928D01*
X0119013Y0184138D01*
X0119698Y0182484D01*
X0120964Y0181218D01*
X0122618Y0180533D01*
X0124755Y0180677D02*
X0126150Y0180677D01*
X0126519Y0181676D02*
X0127657Y0181676D01*
X0127407Y0182674D02*
X0135265Y0182674D01*
X0135221Y0181676D02*
X0128969Y0181676D01*
X0130477Y0180677D02*
X0135561Y0180677D01*
X0135745Y0183673D02*
X0127820Y0183673D01*
X0128013Y0184671D02*
X0135398Y0184671D01*
X0135221Y0185670D02*
X0128013Y0185670D01*
X0127707Y0186668D02*
X0135428Y0186668D01*
X0136139Y0187667D02*
X0127244Y0187667D01*
X0126245Y0188665D02*
X0169627Y0188665D01*
X0170336Y0189664D02*
X0070525Y0189664D01*
X0069681Y0188665D02*
X0100781Y0188665D01*
X0099783Y0187667D02*
X0069267Y0187667D01*
X0069197Y0186668D02*
X0099320Y0186668D01*
X0099013Y0185670D02*
X0069197Y0185670D01*
X0069197Y0184671D02*
X0099013Y0184671D01*
X0099206Y0183673D02*
X0069197Y0183673D01*
X0069197Y0182674D02*
X0070947Y0182674D01*
X0070988Y0182716D02*
X0070231Y0181958D01*
X0069821Y0180969D01*
X0069821Y0179898D01*
X0070231Y0178908D01*
X0070988Y0178151D01*
X0071978Y0177741D01*
X0073049Y0177741D01*
X0074038Y0178151D01*
X0074796Y0178908D01*
X0075205Y0179898D01*
X0075205Y0180969D01*
X0074796Y0181958D01*
X0074038Y0182716D01*
X0073049Y0183125D01*
X0071978Y0183125D01*
X0070988Y0182716D01*
X0070114Y0181676D02*
X0069197Y0181676D01*
X0069197Y0180677D02*
X0069821Y0180677D01*
X0069912Y0179679D02*
X0069197Y0179679D01*
X0069197Y0178680D02*
X0070459Y0178680D01*
X0069197Y0177681D02*
X0087251Y0177681D01*
X0087251Y0178680D02*
X0082967Y0178680D01*
X0083196Y0178908D02*
X0082438Y0178151D01*
X0081449Y0177741D01*
X0080378Y0177741D01*
X0079388Y0178151D01*
X0078631Y0178908D01*
X0078221Y0179898D01*
X0078221Y0180969D01*
X0078631Y0181958D01*
X0079388Y0182716D01*
X0080378Y0183125D01*
X0081449Y0183125D01*
X0082438Y0182716D01*
X0083196Y0181958D01*
X0083605Y0180969D01*
X0083605Y0179898D01*
X0083196Y0178908D01*
X0083515Y0179679D02*
X0087558Y0179679D01*
X0088158Y0180677D02*
X0083605Y0180677D01*
X0083313Y0181676D02*
X0089483Y0181676D01*
X0092743Y0181676D02*
X0100507Y0181676D01*
X0099620Y0182674D02*
X0082480Y0182674D01*
X0079347Y0182674D02*
X0074080Y0182674D01*
X0074913Y0181676D02*
X0078514Y0181676D01*
X0078221Y0180677D02*
X0075205Y0180677D01*
X0075115Y0179679D02*
X0078312Y0179679D01*
X0078859Y0178680D02*
X0074567Y0178680D01*
X0069197Y0176683D02*
X0087549Y0176683D01*
X0088137Y0175684D02*
X0069197Y0175684D01*
X0069197Y0174686D02*
X0089433Y0174686D01*
X0089208Y0173687D02*
X0069197Y0173687D01*
X0069197Y0172689D02*
X0088044Y0172689D01*
X0087839Y0172484D02*
X0087251Y0171065D01*
X0087251Y0169528D01*
X0087839Y0168109D01*
X0088925Y0167022D01*
X0090345Y0166434D01*
X0091881Y0166434D01*
X0093301Y0167022D01*
X0094387Y0168109D01*
X0094975Y0169528D01*
X0094975Y0171065D01*
X0094387Y0172484D01*
X0093301Y0173571D01*
X0091881Y0174159D01*
X0090345Y0174159D01*
X0088925Y0173571D01*
X0087839Y0172484D01*
X0087510Y0171690D02*
X0069197Y0171690D01*
X0069197Y0170692D02*
X0070965Y0170692D01*
X0070988Y0170716D02*
X0070231Y0169958D01*
X0069821Y0168969D01*
X0069821Y0167898D01*
X0070231Y0166908D01*
X0070988Y0166151D01*
X0071978Y0165741D01*
X0073049Y0165741D01*
X0074038Y0166151D01*
X0074796Y0166908D01*
X0075205Y0167898D01*
X0075205Y0168969D01*
X0074796Y0169958D01*
X0074038Y0170716D01*
X0073049Y0171125D01*
X0071978Y0171125D01*
X0070988Y0170716D01*
X0070121Y0169693D02*
X0069197Y0169693D01*
X0069197Y0168695D02*
X0069821Y0168695D01*
X0069905Y0167696D02*
X0069197Y0167696D01*
X0069197Y0166698D02*
X0070441Y0166698D01*
X0069197Y0165699D02*
X0104621Y0165699D01*
X0104675Y0166698D02*
X0092518Y0166698D01*
X0093975Y0167696D02*
X0102803Y0167696D01*
X0101444Y0168695D02*
X0094630Y0168695D01*
X0094975Y0169693D02*
X0101023Y0169693D01*
X0101021Y0170692D02*
X0094975Y0170692D01*
X0094716Y0171690D02*
X0101403Y0171690D01*
X0102607Y0172689D02*
X0094183Y0172689D01*
X0093019Y0173687D02*
X0155852Y0173687D01*
X0155192Y0174686D02*
X0092794Y0174686D01*
X0087251Y0170692D02*
X0082462Y0170692D01*
X0082438Y0170716D02*
X0081449Y0171125D01*
X0080378Y0171125D01*
X0079388Y0170716D01*
X0078631Y0169958D01*
X0078221Y0168969D01*
X0078221Y0167898D01*
X0078631Y0166908D01*
X0079388Y0166151D01*
X0080378Y0165741D01*
X0081449Y0165741D01*
X0082438Y0166151D01*
X0083196Y0166908D01*
X0083605Y0167898D01*
X0083605Y0168969D01*
X0083196Y0169958D01*
X0082438Y0170716D01*
X0083305Y0169693D02*
X0087251Y0169693D01*
X0087596Y0168695D02*
X0083605Y0168695D01*
X0083522Y0167696D02*
X0088251Y0167696D01*
X0089708Y0166698D02*
X0082985Y0166698D01*
X0078841Y0166698D02*
X0074585Y0166698D01*
X0075122Y0167696D02*
X0078305Y0167696D01*
X0078221Y0168695D02*
X0075205Y0168695D01*
X0074905Y0169693D02*
X0078521Y0169693D01*
X0079365Y0170692D02*
X0074062Y0170692D01*
X0069197Y0164701D02*
X0104951Y0164701D01*
X0105651Y0163702D02*
X0105906Y0163702D01*
X0105169Y0167696D02*
X0104623Y0167696D01*
X0105982Y0168695D02*
X0106704Y0168695D01*
X0113182Y0168695D02*
X0180415Y0168695D01*
X0180062Y0169693D02*
X0113604Y0169693D01*
X0113605Y0170692D02*
X0179926Y0170692D01*
X0179913Y0171690D02*
X0113224Y0171690D01*
X0110507Y0181676D02*
X0106519Y0181676D01*
X0107407Y0182674D02*
X0109620Y0182674D01*
X0109206Y0183673D02*
X0107820Y0183673D01*
X0108013Y0184671D02*
X0109013Y0184671D01*
X0109013Y0185670D02*
X0108013Y0185670D01*
X0107707Y0186668D02*
X0109320Y0186668D01*
X0109783Y0187667D02*
X0107244Y0187667D01*
X0106245Y0188665D02*
X0110781Y0188665D01*
X0116245Y0188665D02*
X0120781Y0188665D01*
X0119783Y0187667D02*
X0117244Y0187667D01*
X0117707Y0186668D02*
X0119320Y0186668D01*
X0119013Y0185670D02*
X0118013Y0185670D01*
X0118013Y0184671D02*
X0119013Y0184671D01*
X0119206Y0183673D02*
X0117820Y0183673D01*
X0117407Y0182674D02*
X0119620Y0182674D01*
X0120507Y0181676D02*
X0116519Y0181676D01*
X0101775Y0163702D02*
X0069197Y0163702D01*
X0069197Y0162704D02*
X0101160Y0162704D01*
X0101021Y0161705D02*
X0069197Y0161705D01*
X0069197Y0160707D02*
X0101266Y0160707D01*
X0102031Y0159708D02*
X0074890Y0159708D01*
X0073736Y0159708D02*
X0069197Y0159708D01*
X0069197Y0158710D02*
X0072182Y0158710D01*
X0071680Y0157711D02*
X0069197Y0157711D01*
X0069197Y0156713D02*
X0071621Y0156713D01*
X0071946Y0155714D02*
X0069197Y0155714D01*
X0069197Y0154716D02*
X0071931Y0154716D01*
X0071621Y0153717D02*
X0069197Y0153717D01*
X0069197Y0152719D02*
X0071695Y0152719D01*
X0072219Y0151720D02*
X0069197Y0151720D01*
X0069197Y0150722D02*
X0072016Y0150722D01*
X0071621Y0149723D02*
X0069197Y0149723D01*
X0069197Y0148725D02*
X0071621Y0148725D01*
X0072024Y0147726D02*
X0069197Y0147726D01*
X0069197Y0146728D02*
X0073328Y0146728D01*
X0092825Y0155714D02*
X0138225Y0155714D01*
X0141846Y0159708D02*
X0142381Y0159708D01*
X0145446Y0159708D02*
X0145981Y0159708D01*
X0149046Y0159708D02*
X0149581Y0159708D01*
X0157113Y0153233D02*
X0155913Y0152033D01*
X0133113Y0152033D01*
X0124713Y0143633D01*
X0126513Y0143033D02*
X0126513Y0129233D01*
X0128313Y0126833D01*
X0128913Y0126833D01*
X0138789Y0115774D02*
X0140638Y0115774D01*
X0142389Y0115774D02*
X0144238Y0115774D01*
X0145989Y0115774D02*
X0147838Y0115774D01*
X0151505Y0121765D02*
X0223709Y0121765D01*
X0223709Y0122763D02*
X0151433Y0122763D01*
X0150933Y0123762D02*
X0192071Y0123762D01*
X0191594Y0123960D02*
X0192580Y0123551D01*
X0193647Y0123551D01*
X0194633Y0123960D01*
X0195387Y0124714D01*
X0195795Y0125700D01*
X0195795Y0126767D01*
X0195387Y0127753D01*
X0194633Y0128507D01*
X0193647Y0128915D01*
X0192580Y0128915D01*
X0191594Y0128507D01*
X0190839Y0127753D01*
X0190431Y0126767D01*
X0190431Y0125700D01*
X0190839Y0124714D01*
X0191594Y0123960D01*
X0190820Y0124760D02*
X0151374Y0124760D01*
X0151505Y0125759D02*
X0190431Y0125759D01*
X0190431Y0126757D02*
X0151270Y0126757D01*
X0151123Y0127756D02*
X0190843Y0127756D01*
X0192191Y0128754D02*
X0151505Y0128754D01*
X0151505Y0129753D02*
X0205586Y0129753D01*
X0205231Y0130108D02*
X0205988Y0129351D01*
X0206978Y0128941D01*
X0208049Y0128941D01*
X0209038Y0129351D01*
X0209796Y0130108D01*
X0210205Y0131098D01*
X0210205Y0132169D01*
X0209796Y0133158D01*
X0209038Y0133916D01*
X0208049Y0134325D01*
X0206978Y0134325D01*
X0205988Y0133916D01*
X0205231Y0133158D01*
X0204821Y0132169D01*
X0204821Y0131098D01*
X0205231Y0130108D01*
X0204965Y0130751D02*
X0151107Y0130751D01*
X0159979Y0131750D02*
X0160848Y0131750D01*
X0164179Y0131750D02*
X0193391Y0131750D01*
X0193388Y0131751D02*
X0194378Y0131341D01*
X0195449Y0131341D01*
X0196438Y0131751D01*
X0197196Y0132508D01*
X0197605Y0133498D01*
X0197605Y0134569D01*
X0197196Y0135558D01*
X0196438Y0136316D01*
X0195449Y0136725D01*
X0194378Y0136725D01*
X0193388Y0136316D01*
X0192905Y0135833D01*
X0192905Y0136389D01*
X0192480Y0137415D01*
X0191695Y0138200D01*
X0190669Y0138625D01*
X0189558Y0138625D01*
X0188532Y0138200D01*
X0187746Y0137415D01*
X0187321Y0136389D01*
X0187321Y0135278D01*
X0187746Y0134252D01*
X0188532Y0133466D01*
X0189558Y0133041D01*
X0190669Y0133041D01*
X0191695Y0133466D01*
X0192221Y0133993D01*
X0192221Y0133498D01*
X0192631Y0132508D01*
X0193388Y0131751D01*
X0192532Y0132748D02*
X0165003Y0132748D01*
X0165305Y0133747D02*
X0188251Y0133747D01*
X0187542Y0134745D02*
X0165240Y0134745D01*
X0164751Y0135744D02*
X0187321Y0135744D01*
X0187468Y0136743D02*
X0165166Y0136743D01*
X0165305Y0137741D02*
X0188072Y0137741D01*
X0192154Y0137741D02*
X0205052Y0137741D01*
X0205231Y0137308D02*
X0204821Y0138298D01*
X0204821Y0139369D01*
X0205231Y0140358D01*
X0205988Y0141116D01*
X0206978Y0141525D01*
X0208049Y0141525D01*
X0209038Y0141116D01*
X0209796Y0140358D01*
X0210205Y0139369D01*
X0210205Y0138298D01*
X0209796Y0137308D01*
X0209038Y0136551D01*
X0208049Y0136141D01*
X0206978Y0136141D01*
X0205988Y0136551D01*
X0205231Y0137308D01*
X0205797Y0136743D02*
X0192759Y0136743D01*
X0193388Y0138951D02*
X0194378Y0138541D01*
X0195449Y0138541D01*
X0196438Y0138951D01*
X0197196Y0139708D01*
X0197605Y0140698D01*
X0197605Y0141769D01*
X0197196Y0142758D01*
X0196438Y0143516D01*
X0195449Y0143925D01*
X0194378Y0143925D01*
X0193388Y0143516D01*
X0192631Y0142758D01*
X0192221Y0141769D01*
X0192221Y0140698D01*
X0192631Y0139708D01*
X0193388Y0138951D01*
X0193899Y0138740D02*
X0165077Y0138740D01*
X0164916Y0139738D02*
X0192619Y0139738D01*
X0192221Y0140737D02*
X0165305Y0140737D01*
X0165305Y0141735D02*
X0192221Y0141735D01*
X0192621Y0142734D02*
X0164914Y0142734D01*
X0163777Y0143732D02*
X0193911Y0143732D01*
X0195916Y0143732D02*
X0223709Y0143732D01*
X0223709Y0142734D02*
X0197206Y0142734D01*
X0197605Y0141735D02*
X0223709Y0141735D01*
X0223709Y0140737D02*
X0209417Y0140737D01*
X0210052Y0139738D02*
X0223709Y0139738D01*
X0223709Y0138740D02*
X0210205Y0138740D01*
X0209975Y0137741D02*
X0223709Y0137741D01*
X0223709Y0136743D02*
X0209230Y0136743D01*
X0209207Y0133747D02*
X0223709Y0133747D01*
X0223709Y0134745D02*
X0197532Y0134745D01*
X0197605Y0133747D02*
X0205820Y0133747D01*
X0205061Y0132748D02*
X0197295Y0132748D01*
X0196436Y0131750D02*
X0204821Y0131750D01*
X0209440Y0129753D02*
X0223709Y0129753D01*
X0223709Y0130751D02*
X0210062Y0130751D01*
X0210205Y0131750D02*
X0223709Y0131750D01*
X0223709Y0132748D02*
X0209965Y0132748D01*
X0204821Y0138740D02*
X0195928Y0138740D01*
X0197208Y0139738D02*
X0204974Y0139738D01*
X0205609Y0140737D02*
X0197605Y0140737D01*
X0197010Y0135744D02*
X0223709Y0135744D01*
X0223709Y0128754D02*
X0194035Y0128754D01*
X0195384Y0127756D02*
X0223709Y0127756D01*
X0223709Y0126757D02*
X0195795Y0126757D01*
X0195795Y0125759D02*
X0223709Y0125759D01*
X0223709Y0124760D02*
X0195406Y0124760D01*
X0194155Y0123762D02*
X0223709Y0123762D01*
X0223709Y0120766D02*
X0222116Y0120766D01*
X0223074Y0119768D02*
X0223709Y0119768D01*
X0223709Y0118769D02*
X0223405Y0118769D01*
X0223353Y0117771D02*
X0223709Y0117771D01*
X0223709Y0116772D02*
X0222859Y0116772D01*
X0223072Y0115774D02*
X0223709Y0115774D01*
X0223709Y0114775D02*
X0223405Y0114775D01*
X0223355Y0113777D02*
X0223709Y0113777D01*
X0223709Y0112778D02*
X0222865Y0112778D01*
X0222774Y0111780D02*
X0223709Y0111780D01*
X0223709Y0110781D02*
X0223317Y0110781D01*
X0223405Y0109783D02*
X0223709Y0109783D01*
X0223709Y0108784D02*
X0223110Y0108784D01*
X0222568Y0107786D02*
X0223709Y0107786D01*
X0223709Y0106787D02*
X0223232Y0106787D01*
X0223405Y0105789D02*
X0223709Y0105789D01*
X0223709Y0104790D02*
X0223195Y0104790D01*
X0223709Y0103792D02*
X0222479Y0103792D01*
X0192221Y0133747D02*
X0191976Y0133747D01*
X0182076Y0146728D02*
X0209528Y0146728D01*
X0208224Y0147726D02*
X0182692Y0147726D01*
X0182977Y0148725D02*
X0207821Y0148725D01*
X0207821Y0149723D02*
X0182977Y0149723D01*
X0182623Y0150722D02*
X0208216Y0150722D01*
X0208419Y0151720D02*
X0181909Y0151720D01*
X0181942Y0157711D02*
X0207821Y0157711D01*
X0207821Y0158169D02*
X0207821Y0157098D01*
X0208231Y0156108D01*
X0208806Y0155533D01*
X0208231Y0154958D01*
X0207821Y0153969D01*
X0207821Y0152898D01*
X0207821Y0153717D02*
X0167005Y0153717D01*
X0166945Y0154716D02*
X0208131Y0154716D01*
X0208625Y0155714D02*
X0166440Y0155714D01*
X0164879Y0156713D02*
X0207981Y0156713D01*
X0207821Y0158169D02*
X0208231Y0159158D01*
X0208506Y0159433D01*
X0208231Y0159708D01*
X0208045Y0158710D02*
X0182879Y0158710D01*
X0179084Y0157711D02*
X0163346Y0157711D01*
X0163405Y0156713D02*
X0163747Y0156713D01*
X0162844Y0158710D02*
X0178148Y0158710D01*
X0161313Y0151433D02*
X0161313Y0149633D01*
X0158313Y0146633D01*
X0158313Y0150233D02*
X0133713Y0150233D01*
X0126513Y0143033D01*
X0128513Y0141735D02*
X0136477Y0141735D01*
X0137617Y0140737D02*
X0128513Y0140737D01*
X0129042Y0142734D02*
X0135020Y0142734D01*
X0134559Y0143732D02*
X0130040Y0143732D01*
X0131039Y0144731D02*
X0134531Y0144731D01*
X0134888Y0145729D02*
X0132037Y0145729D01*
X0133036Y0146728D02*
X0135985Y0146728D01*
X0137613Y0147726D02*
X0134034Y0147726D01*
X0141814Y0147726D02*
X0149413Y0147726D01*
X0148956Y0146728D02*
X0142329Y0146728D01*
X0142395Y0145729D02*
X0148931Y0145729D01*
X0149291Y0144731D02*
X0142077Y0144731D01*
X0142078Y0143732D02*
X0149000Y0143732D01*
X0148931Y0142734D02*
X0142395Y0142734D01*
X0142327Y0141735D02*
X0149248Y0141735D01*
X0150149Y0140737D02*
X0141810Y0140737D01*
X0157113Y0153233D02*
X0159513Y0153233D01*
X0161313Y0151433D01*
X0160052Y0173687D02*
X0159575Y0173687D01*
X0178564Y0180677D02*
X0179913Y0180677D01*
X0179913Y0181676D02*
X0179348Y0181676D01*
X0179605Y0182674D02*
X0179913Y0182674D01*
X0179913Y0183673D02*
X0179480Y0183673D01*
X0179913Y0184671D02*
X0178883Y0184671D01*
X0178757Y0185670D02*
X0179913Y0185670D01*
X0179913Y0186668D02*
X0179427Y0186668D01*
X0179605Y0187667D02*
X0179913Y0187667D01*
X0179913Y0188665D02*
X0179400Y0188665D01*
X0179913Y0189664D02*
X0178690Y0189664D01*
X0175136Y0189664D02*
X0173890Y0189664D01*
X0207513Y0189664D02*
X0211028Y0189664D01*
X0211178Y0189725D02*
X0210188Y0189316D01*
X0209431Y0188558D01*
X0209021Y0187569D01*
X0209021Y0186498D01*
X0209431Y0185508D01*
X0210188Y0184751D01*
X0211178Y0184341D01*
X0212249Y0184341D01*
X0213238Y0184751D01*
X0213996Y0185508D01*
X0214405Y0186498D01*
X0214405Y0187569D01*
X0213996Y0188558D01*
X0213238Y0189316D01*
X0212249Y0189725D01*
X0211178Y0189725D01*
X0212398Y0189664D02*
X0218228Y0189664D01*
X0218378Y0189725D02*
X0217388Y0189316D01*
X0216631Y0188558D01*
X0216221Y0187569D01*
X0216221Y0186498D01*
X0216631Y0185508D01*
X0217388Y0184751D01*
X0218378Y0184341D01*
X0219449Y0184341D01*
X0220438Y0184751D01*
X0221196Y0185508D01*
X0221605Y0186498D01*
X0221605Y0187569D01*
X0221196Y0188558D01*
X0220438Y0189316D01*
X0219449Y0189725D01*
X0218378Y0189725D01*
X0219598Y0189664D02*
X0222381Y0189664D01*
X0223226Y0188665D02*
X0221089Y0188665D01*
X0221565Y0187667D02*
X0223639Y0187667D01*
X0223709Y0186668D02*
X0221605Y0186668D01*
X0221262Y0185670D02*
X0223709Y0185670D01*
X0223709Y0184671D02*
X0220245Y0184671D01*
X0217581Y0184671D02*
X0213045Y0184671D01*
X0213788Y0183916D02*
X0213031Y0183158D01*
X0212621Y0182169D01*
X0212621Y0181098D01*
X0213031Y0180108D01*
X0213788Y0179351D01*
X0214778Y0178941D01*
X0215849Y0178941D01*
X0216838Y0179351D01*
X0217596Y0180108D01*
X0218005Y0181098D01*
X0218005Y0182169D01*
X0217596Y0183158D01*
X0216838Y0183916D01*
X0215849Y0184325D01*
X0214778Y0184325D01*
X0213788Y0183916D01*
X0213545Y0183673D02*
X0207513Y0183673D01*
X0207513Y0184671D02*
X0210381Y0184671D01*
X0209364Y0185670D02*
X0207513Y0185670D01*
X0207513Y0186668D02*
X0209021Y0186668D01*
X0209062Y0187667D02*
X0207513Y0187667D01*
X0207513Y0188665D02*
X0209538Y0188665D01*
X0213889Y0188665D02*
X0216738Y0188665D01*
X0216262Y0187667D02*
X0214365Y0187667D01*
X0214405Y0186668D02*
X0216221Y0186668D01*
X0216564Y0185670D02*
X0214062Y0185670D01*
X0212830Y0182674D02*
X0207513Y0182674D01*
X0207513Y0181676D02*
X0212621Y0181676D01*
X0212795Y0180677D02*
X0207513Y0180677D01*
X0207513Y0179679D02*
X0213461Y0179679D01*
X0217166Y0179679D02*
X0223709Y0179679D01*
X0223709Y0180677D02*
X0217831Y0180677D01*
X0218005Y0181676D02*
X0223709Y0181676D01*
X0223709Y0182674D02*
X0217796Y0182674D01*
X0217081Y0183673D02*
X0223709Y0183673D01*
X0223709Y0178680D02*
X0207513Y0178680D01*
X0207513Y0177681D02*
X0223709Y0177681D01*
X0223709Y0176683D02*
X0207513Y0176683D01*
X0207513Y0175684D02*
X0223709Y0175684D01*
X0223709Y0174686D02*
X0207513Y0174686D01*
X0207513Y0173687D02*
X0223709Y0173687D01*
X0223709Y0172689D02*
X0207513Y0172689D01*
X0207513Y0171690D02*
X0223709Y0171690D01*
X0223709Y0170692D02*
X0207479Y0170692D01*
X0207211Y0169693D02*
X0223709Y0169693D01*
X0223709Y0168695D02*
X0206733Y0168695D01*
X0205979Y0167696D02*
X0223709Y0167696D01*
X0223709Y0166698D02*
X0204802Y0166698D01*
X0211587Y0163702D02*
X0223709Y0163702D01*
X0223709Y0162704D02*
X0212818Y0162704D01*
X0213205Y0161705D02*
X0223709Y0161705D01*
X0223709Y0160707D02*
X0213205Y0160707D01*
X0212795Y0159708D02*
X0214181Y0159708D01*
X0214388Y0159916D02*
X0213631Y0159158D01*
X0213221Y0158169D01*
X0213221Y0157098D01*
X0213631Y0156108D01*
X0214206Y0155533D01*
X0213631Y0154958D01*
X0213221Y0153969D01*
X0213221Y0152898D01*
X0213631Y0151908D01*
X0214206Y0151333D01*
X0213631Y0150758D01*
X0213221Y0149769D01*
X0213221Y0148698D01*
X0213631Y0147708D01*
X0214388Y0146951D01*
X0215378Y0146541D01*
X0216449Y0146541D01*
X0217438Y0146951D01*
X0218196Y0147708D01*
X0218605Y0148698D01*
X0218605Y0149769D01*
X0218196Y0150758D01*
X0217620Y0151333D01*
X0218196Y0151908D01*
X0218605Y0152898D01*
X0218605Y0153969D01*
X0218196Y0154958D01*
X0217620Y0155533D01*
X0218196Y0156108D01*
X0218605Y0157098D01*
X0218605Y0158169D01*
X0218196Y0159158D01*
X0217438Y0159916D01*
X0216449Y0160325D01*
X0215378Y0160325D01*
X0214388Y0159916D01*
X0213445Y0158710D02*
X0212981Y0158710D01*
X0213205Y0157711D02*
X0213221Y0157711D01*
X0213381Y0156713D02*
X0213046Y0156713D01*
X0212401Y0155714D02*
X0214025Y0155714D01*
X0213531Y0154716D02*
X0212896Y0154716D01*
X0213205Y0153717D02*
X0213221Y0153717D01*
X0213295Y0152719D02*
X0213131Y0152719D01*
X0212607Y0151720D02*
X0213819Y0151720D01*
X0213616Y0150722D02*
X0212811Y0150722D01*
X0213205Y0149723D02*
X0213221Y0149723D01*
X0213205Y0148725D02*
X0213221Y0148725D01*
X0213624Y0147726D02*
X0212803Y0147726D01*
X0211499Y0146728D02*
X0214928Y0146728D01*
X0216899Y0146728D02*
X0223709Y0146728D01*
X0223709Y0147726D02*
X0218203Y0147726D01*
X0218605Y0148725D02*
X0223709Y0148725D01*
X0223709Y0149723D02*
X0218605Y0149723D01*
X0218211Y0150722D02*
X0223709Y0150722D01*
X0223709Y0151720D02*
X0218007Y0151720D01*
X0218531Y0152719D02*
X0223709Y0152719D01*
X0223709Y0153717D02*
X0218605Y0153717D01*
X0218296Y0154716D02*
X0223709Y0154716D01*
X0223709Y0155714D02*
X0217801Y0155714D01*
X0218446Y0156713D02*
X0223709Y0156713D01*
X0223709Y0157711D02*
X0218605Y0157711D01*
X0218381Y0158710D02*
X0223709Y0158710D01*
X0223709Y0159708D02*
X0217646Y0159708D01*
X0121557Y0080826D02*
X0113513Y0080826D01*
X0109513Y0080826D02*
X0096513Y0080826D01*
X0096513Y0081824D02*
X0108934Y0081824D01*
X0108821Y0082823D02*
X0096513Y0082823D01*
X0096513Y0079827D02*
X0120903Y0079827D01*
X0120721Y0078829D02*
X0096513Y0078829D01*
X0096513Y0077830D02*
X0120907Y0077830D01*
X0104942Y0099798D02*
X0095477Y0099798D01*
D19*
X0129813Y0104933D02*
X0129813Y0123533D01*
X0129813Y0104933D02*
X0138513Y0096233D01*
X0174513Y0096233D01*
X0178713Y0096233D01*
X0192513Y0082433D01*
X0203313Y0082433D01*
M02*
