G75*
%MOIN*%
%OFA0B0*%
%FSLAX25Y25*%
%IPPOS*%
%LPD*%
%AMOC8*
5,1,8,0,0,1.08239X$1,22.5*
%
%ADD10C,0.13780*%
%ADD11C,0.04331*%
%ADD12R,0.04252X0.04134*%
%ADD13R,0.03937X0.11024*%
%ADD14R,0.07874X0.03543*%
%ADD15R,0.07874X0.05118*%
%ADD16R,0.03937X0.04331*%
%ADD17R,0.04134X0.04252*%
%ADD18C,0.00500*%
%ADD19R,0.07874X0.02402*%
%ADD20R,0.14173X0.10551*%
%ADD21C,0.07400*%
%ADD22C,0.06299*%
%ADD23C,0.05600*%
%ADD24R,0.03150X0.00984*%
%ADD25R,0.00984X0.03150*%
%ADD26R,0.14370X0.16339*%
%ADD27R,0.10630X0.06299*%
%ADD28R,0.04331X0.07874*%
%ADD29R,0.03150X0.03150*%
%ADD30R,0.05512X0.07087*%
%ADD31R,0.05118X0.05906*%
%ADD32C,0.04724*%
%ADD33R,0.05906X0.05118*%
%ADD34R,0.04331X0.03937*%
%ADD35C,0.00875*%
%ADD36R,0.02500X0.05000*%
%ADD37R,0.05000X0.02500*%
%ADD38OC8,0.06000*%
%ADD39C,0.08268*%
D10*
X0084052Y0087644D03*
X0193698Y0180164D03*
D11*
X0179327Y0149140D03*
D12*
X0132128Y0151119D03*
X0132128Y0144229D03*
X0132513Y0105078D03*
X0137913Y0105078D03*
X0137913Y0098188D03*
X0132513Y0098188D03*
X0127013Y0098188D03*
X0127013Y0105078D03*
D13*
X0142553Y0165260D03*
X0142553Y0183764D03*
D14*
X0192516Y0097093D03*
X0192516Y0086070D03*
D15*
X0175194Y0091581D03*
D16*
X0147760Y0082233D03*
X0141067Y0082233D03*
X0134960Y0082233D03*
X0128267Y0082233D03*
D17*
X0153268Y0082233D03*
X0160158Y0082233D03*
X0122458Y0111333D03*
X0115568Y0111333D03*
X0114968Y0117833D03*
X0121858Y0117833D03*
X0177668Y0131633D03*
X0184558Y0131633D03*
D18*
X0214145Y0085843D02*
X0213583Y0085449D01*
X0213097Y0084964D01*
X0212704Y0084402D01*
X0212414Y0083780D01*
X0212236Y0083117D01*
X0212176Y0082433D01*
X0212236Y0081750D01*
X0212414Y0081087D01*
X0212704Y0080465D01*
X0213097Y0079903D01*
X0213583Y0079417D01*
X0214145Y0079024D01*
X0214767Y0078734D01*
X0215430Y0078556D01*
X0216113Y0078496D01*
X0216797Y0078556D01*
X0217460Y0078734D01*
X0218082Y0079024D01*
X0218644Y0079417D01*
X0219129Y0079903D01*
X0219523Y0080465D01*
X0219813Y0081087D01*
X0219990Y0081750D01*
X0220050Y0082433D01*
X0219990Y0083117D01*
X0219813Y0083780D01*
X0219523Y0084402D01*
X0219129Y0084964D01*
X0218644Y0085449D01*
X0218082Y0085843D01*
X0217460Y0086133D01*
X0216797Y0086311D01*
X0216113Y0086370D01*
X0215430Y0086311D01*
X0214767Y0086133D01*
X0214145Y0085843D01*
X0214089Y0085804D02*
X0218138Y0085804D01*
X0218788Y0085305D02*
X0213438Y0085305D01*
X0212987Y0084807D02*
X0219239Y0084807D01*
X0219567Y0084308D02*
X0212660Y0084308D01*
X0212427Y0083810D02*
X0219799Y0083810D01*
X0219938Y0083311D02*
X0212288Y0083311D01*
X0212209Y0082812D02*
X0220017Y0082812D01*
X0220040Y0082314D02*
X0212187Y0082314D01*
X0212230Y0081815D02*
X0219996Y0081815D01*
X0219874Y0081317D02*
X0212352Y0081317D01*
X0212539Y0080818D02*
X0219688Y0080818D01*
X0219421Y0080320D02*
X0212805Y0080320D01*
X0213179Y0079821D02*
X0219048Y0079821D01*
X0218509Y0079323D02*
X0213718Y0079323D01*
X0214572Y0078824D02*
X0217654Y0078824D01*
X0216828Y0086302D02*
X0215398Y0086302D01*
X0171682Y0178024D02*
X0172244Y0178417D01*
X0172729Y0178903D01*
X0173123Y0179465D01*
X0173413Y0180087D01*
X0173590Y0180750D01*
X0173650Y0181433D01*
X0173590Y0182117D01*
X0173413Y0182780D01*
X0173123Y0183402D01*
X0172729Y0183964D01*
X0172244Y0184449D01*
X0171682Y0184843D01*
X0171060Y0185133D01*
X0170397Y0185311D01*
X0169713Y0185370D01*
X0169030Y0185311D01*
X0168367Y0185133D01*
X0167745Y0184843D01*
X0167183Y0184449D01*
X0166697Y0183964D01*
X0166304Y0183402D01*
X0166014Y0182780D01*
X0165836Y0182117D01*
X0165776Y0181433D01*
X0165836Y0180750D01*
X0166014Y0180087D01*
X0166304Y0179465D01*
X0166697Y0178903D01*
X0167183Y0178417D01*
X0167745Y0178024D01*
X0168367Y0177734D01*
X0169030Y0177556D01*
X0169713Y0177496D01*
X0170397Y0177556D01*
X0171060Y0177734D01*
X0171682Y0178024D01*
X0171688Y0178028D02*
X0167739Y0178028D01*
X0167073Y0178527D02*
X0172353Y0178527D01*
X0172815Y0179025D02*
X0166612Y0179025D01*
X0166276Y0179524D02*
X0173150Y0179524D01*
X0173383Y0180022D02*
X0166044Y0180022D01*
X0165897Y0180521D02*
X0173529Y0180521D01*
X0173614Y0181019D02*
X0165812Y0181019D01*
X0165784Y0181518D02*
X0173643Y0181518D01*
X0173599Y0182016D02*
X0165827Y0182016D01*
X0165943Y0182515D02*
X0173484Y0182515D01*
X0173304Y0183013D02*
X0166123Y0183013D01*
X0166381Y0183512D02*
X0173046Y0183512D01*
X0172683Y0184010D02*
X0166744Y0184010D01*
X0167268Y0184509D02*
X0172159Y0184509D01*
X0171329Y0185007D02*
X0168097Y0185007D01*
X0169332Y0177530D02*
X0170094Y0177530D01*
X0078723Y0114202D02*
X0079013Y0113580D01*
X0079190Y0112917D01*
X0079250Y0112233D01*
X0079190Y0111550D01*
X0079013Y0110887D01*
X0078723Y0110265D01*
X0078329Y0109703D01*
X0077844Y0109217D01*
X0077282Y0108824D01*
X0076660Y0108534D01*
X0075997Y0108356D01*
X0075313Y0108296D01*
X0074630Y0108356D01*
X0073967Y0108534D01*
X0073345Y0108824D01*
X0072783Y0109217D01*
X0072297Y0109703D01*
X0071904Y0110265D01*
X0071614Y0110887D01*
X0071436Y0111550D01*
X0071376Y0112233D01*
X0071436Y0112917D01*
X0071614Y0113580D01*
X0071904Y0114202D01*
X0072297Y0114764D01*
X0072783Y0115249D01*
X0073345Y0115643D01*
X0073967Y0115933D01*
X0074630Y0116111D01*
X0075313Y0116170D01*
X0075997Y0116111D01*
X0076660Y0115933D01*
X0077282Y0115643D01*
X0077844Y0115249D01*
X0078329Y0114764D01*
X0078723Y0114202D01*
X0078711Y0114219D02*
X0071916Y0114219D01*
X0071679Y0113720D02*
X0078947Y0113720D01*
X0079109Y0113222D02*
X0071518Y0113222D01*
X0071419Y0112723D02*
X0079207Y0112723D01*
X0079249Y0112225D02*
X0071377Y0112225D01*
X0071421Y0111726D02*
X0079206Y0111726D01*
X0079104Y0111228D02*
X0071522Y0111228D01*
X0071687Y0110729D02*
X0078939Y0110729D01*
X0078699Y0110231D02*
X0071928Y0110231D01*
X0072277Y0109732D02*
X0078350Y0109732D01*
X0077860Y0109234D02*
X0072766Y0109234D01*
X0073535Y0108735D02*
X0077092Y0108735D01*
X0078362Y0114717D02*
X0072265Y0114717D01*
X0072749Y0115216D02*
X0077877Y0115216D01*
X0077129Y0115714D02*
X0073498Y0115714D01*
D19*
X0201364Y0114079D03*
X0201364Y0110142D03*
X0201364Y0106205D03*
X0201364Y0118016D03*
X0201364Y0121953D03*
X0201364Y0125890D03*
X0201364Y0129827D03*
X0201364Y0133764D03*
X0201364Y0137701D03*
X0201364Y0141638D03*
X0201364Y0145575D03*
X0201364Y0149512D03*
X0201364Y0153449D03*
X0201364Y0157386D03*
X0201364Y0161323D03*
D20*
X0212387Y0173173D03*
X0212387Y0094433D03*
D21*
X0123513Y0185033D03*
X0113513Y0185033D03*
X0103513Y0185033D03*
D22*
X0089913Y0153581D03*
X0089913Y0145581D03*
X0089913Y0137707D03*
X0089913Y0129833D03*
X0089913Y0121959D03*
X0089913Y0114085D03*
D23*
X0091113Y0170296D03*
X0091113Y0178170D03*
D24*
X0133668Y0132692D03*
X0133668Y0130723D03*
X0133668Y0128755D03*
X0133668Y0126786D03*
X0133668Y0124818D03*
X0133668Y0122849D03*
X0133668Y0120881D03*
X0133668Y0118912D03*
X0133668Y0116944D03*
X0133668Y0114975D03*
X0152959Y0114975D03*
X0152959Y0116944D03*
X0152959Y0118912D03*
X0152959Y0120881D03*
X0152959Y0122849D03*
X0152959Y0124818D03*
X0152959Y0126786D03*
X0152959Y0128755D03*
X0152959Y0130723D03*
X0152959Y0132692D03*
D25*
X0150203Y0135448D03*
X0148235Y0135448D03*
X0146266Y0135448D03*
X0144298Y0135448D03*
X0142329Y0135448D03*
X0140360Y0135448D03*
X0138392Y0135448D03*
X0136423Y0135448D03*
X0136423Y0112219D03*
X0138392Y0112219D03*
X0140360Y0112219D03*
X0142329Y0112219D03*
X0144298Y0112219D03*
X0146266Y0112219D03*
X0148235Y0112219D03*
X0150203Y0112219D03*
D26*
X0143313Y0123833D03*
D27*
X0122313Y0162122D03*
X0122313Y0173145D03*
D28*
X0170613Y0137386D03*
D29*
X0170613Y0129906D03*
D30*
X0121806Y0125033D03*
X0108420Y0125033D03*
D31*
X0113773Y0134033D03*
X0121253Y0134033D03*
D32*
X0113913Y0144233D03*
X0113913Y0150233D03*
D33*
X0145713Y0152173D03*
X0145713Y0144693D03*
X0152313Y0102273D03*
X0152313Y0094793D03*
D34*
X0192513Y0103087D03*
X0192513Y0109780D03*
D35*
X0185426Y0135720D02*
X0182800Y0135720D01*
X0182800Y0138346D01*
X0185426Y0138346D01*
X0185426Y0135720D01*
X0185426Y0136594D02*
X0182800Y0136594D01*
X0182800Y0137468D02*
X0185426Y0137468D01*
X0185426Y0138342D02*
X0182800Y0138342D01*
X0179426Y0135720D02*
X0176800Y0135720D01*
X0176800Y0138346D01*
X0179426Y0138346D01*
X0179426Y0135720D01*
X0179426Y0136594D02*
X0176800Y0136594D01*
X0176800Y0137468D02*
X0179426Y0137468D01*
X0179426Y0138342D02*
X0176800Y0138342D01*
D36*
X0176813Y0146533D03*
X0172813Y0146533D03*
D37*
X0172813Y0116005D03*
X0172813Y0112462D03*
X0182013Y0112362D03*
X0182013Y0115905D03*
X0163713Y0116005D03*
X0163713Y0112462D03*
D38*
X0203313Y0082433D03*
D39*
X0181713Y0105633D03*
X0172013Y0105633D03*
X0162513Y0105633D03*
M02*
