%
M48
M72
T01C0.0120
T02C0.0400
T03C0.0512
T04C0.1260
%
T01
X6836Y11116
X7836Y10340
X8111Y5440
X6811Y10316
X6764Y5416
X12571Y15586
X13971Y15586
X14071Y13786
X12971Y13786
X12471Y19786
X14271Y17786
X14271Y16786
X14271Y5686
X11871Y5386
X5671Y18786
X7483Y14781
X10483Y17281
X10083Y16581
X10483Y8881
X7083Y16381
X8783Y10181
X11283Y17381
X11283Y11581
T02
X13071Y8772
X13071Y7772
X6512Y18505
X7512Y18505
X8512Y18505
X9512Y18505
X10512Y18505
X11512Y18505
X13102Y17760
X13102Y16760
X13071Y10803
X13071Y9803
X13083Y6735
X13083Y5735
T03
X13500Y12832
X13500Y14800
T04
X5163Y6060
X13715Y19347
M30
