G75*
%MOIN*%
%OFA0B0*%
%FSLAX24Y24*%
%IPPOS*%
%LPD*%
%AMOC8*
5,1,8,0,0,1.08239X$1,22.5*
%
%ADD10C,0.0120*%
%ADD11C,0.0030*%
%ADD12C,0.0010*%
%ADD13C,0.0059*%
D10*
X004883Y004781D02*
X013883Y004781D01*
X013943Y004783D01*
X014004Y004788D01*
X014063Y004797D01*
X014122Y004810D01*
X014181Y004826D01*
X014238Y004846D01*
X014293Y004869D01*
X014348Y004896D01*
X014400Y004925D01*
X014451Y004958D01*
X014500Y004994D01*
X014546Y005032D01*
X014590Y005074D01*
X014632Y005118D01*
X014670Y005164D01*
X014706Y005213D01*
X014739Y005264D01*
X014768Y005316D01*
X014795Y005371D01*
X014818Y005426D01*
X014838Y005483D01*
X014854Y005542D01*
X014867Y005601D01*
X014876Y005660D01*
X014881Y005721D01*
X014883Y005781D01*
X014883Y019581D01*
X014881Y019641D01*
X014876Y019702D01*
X014867Y019761D01*
X014854Y019820D01*
X014838Y019879D01*
X014818Y019936D01*
X014795Y019991D01*
X014768Y020046D01*
X014739Y020098D01*
X014706Y020149D01*
X014670Y020198D01*
X014632Y020244D01*
X014590Y020288D01*
X014546Y020330D01*
X014500Y020368D01*
X014451Y020404D01*
X014400Y020437D01*
X014348Y020466D01*
X014293Y020493D01*
X014238Y020516D01*
X014181Y020536D01*
X014122Y020552D01*
X014063Y020565D01*
X014004Y020574D01*
X013943Y020579D01*
X013883Y020581D01*
X004883Y020581D01*
X004823Y020579D01*
X004762Y020574D01*
X004703Y020565D01*
X004644Y020552D01*
X004585Y020536D01*
X004528Y020516D01*
X004473Y020493D01*
X004418Y020466D01*
X004366Y020437D01*
X004315Y020404D01*
X004266Y020368D01*
X004220Y020330D01*
X004176Y020288D01*
X004134Y020244D01*
X004096Y020198D01*
X004060Y020149D01*
X004027Y020098D01*
X003998Y020046D01*
X003971Y019991D01*
X003948Y019936D01*
X003928Y019879D01*
X003912Y019820D01*
X003899Y019761D01*
X003890Y019702D01*
X003885Y019641D01*
X003883Y019581D01*
X003883Y005781D01*
X003885Y005721D01*
X003890Y005660D01*
X003899Y005601D01*
X003912Y005542D01*
X003928Y005483D01*
X003948Y005426D01*
X003971Y005371D01*
X003998Y005316D01*
X004027Y005264D01*
X004060Y005213D01*
X004096Y005164D01*
X004134Y005118D01*
X004176Y005074D01*
X004220Y005032D01*
X004266Y004994D01*
X004315Y004958D01*
X004366Y004925D01*
X004418Y004896D01*
X004473Y004869D01*
X004528Y004846D01*
X004585Y004826D01*
X004644Y004810D01*
X004703Y004797D01*
X004762Y004788D01*
X004823Y004783D01*
X004883Y004781D01*
D11*
X006121Y007009D02*
X006121Y007154D01*
X006170Y007202D01*
X006363Y007202D01*
X006411Y007154D01*
X006411Y007009D01*
X006121Y007009D01*
X006170Y007304D02*
X006266Y007304D01*
X006315Y007352D01*
X006315Y007449D01*
X006266Y007497D01*
X006218Y007497D01*
X006218Y007304D01*
X006170Y007304D02*
X006121Y007352D01*
X006121Y007449D01*
X006121Y007598D02*
X006121Y007743D01*
X006170Y007792D01*
X006218Y007743D01*
X006218Y007647D01*
X006266Y007598D01*
X006315Y007647D01*
X006315Y007792D01*
X006315Y007893D02*
X006315Y007941D01*
X006121Y007941D01*
X006121Y007893D02*
X006121Y007990D01*
X006170Y008089D02*
X006121Y008138D01*
X006121Y008283D01*
X006073Y008283D02*
X006315Y008283D01*
X006315Y008138D01*
X006266Y008089D01*
X006170Y008089D01*
X006024Y008186D02*
X006024Y008234D01*
X006073Y008283D01*
X006121Y008384D02*
X006315Y008384D01*
X006315Y008529D01*
X006266Y008577D01*
X006121Y008577D01*
X006170Y008679D02*
X006266Y008679D01*
X006315Y008727D01*
X006315Y008824D01*
X006266Y008872D01*
X006218Y008872D01*
X006218Y008679D01*
X006170Y008679D02*
X006121Y008727D01*
X006121Y008824D01*
X006170Y008973D02*
X006266Y008973D01*
X006315Y009022D01*
X006315Y009167D01*
X006411Y009167D02*
X006121Y009167D01*
X006121Y009022D01*
X006170Y008973D01*
X006601Y008922D02*
X006601Y008777D01*
X006891Y008777D01*
X006891Y008922D01*
X006843Y008970D01*
X006795Y008970D01*
X006746Y008922D01*
X006746Y008777D01*
X006746Y008676D02*
X006650Y008676D01*
X006601Y008627D01*
X006601Y008482D01*
X006504Y008482D02*
X006795Y008482D01*
X006795Y008627D01*
X006746Y008676D01*
X006746Y008922D02*
X006698Y008970D01*
X006650Y008970D01*
X006601Y008922D01*
X006650Y009071D02*
X006601Y009120D01*
X006601Y009217D01*
X006650Y009265D01*
X006601Y009366D02*
X006891Y009366D01*
X006601Y009560D01*
X006891Y009560D01*
X006843Y009265D02*
X006891Y009217D01*
X006891Y009120D01*
X006843Y009071D01*
X006650Y009071D01*
X006460Y009611D02*
X006411Y009611D01*
X006315Y009611D02*
X006121Y009611D01*
X006121Y009563D02*
X006121Y009659D01*
X006121Y009759D02*
X006315Y009759D01*
X006315Y009904D01*
X006266Y009953D01*
X006121Y009953D01*
X006121Y010348D02*
X006121Y010493D01*
X006170Y010542D01*
X006218Y010542D01*
X006266Y010493D01*
X006266Y010348D01*
X006121Y010348D02*
X006411Y010348D01*
X006411Y010493D01*
X006363Y010542D01*
X006315Y010542D01*
X006266Y010493D01*
X006170Y010643D02*
X006218Y010691D01*
X006218Y010836D01*
X006266Y010836D02*
X006121Y010836D01*
X006121Y010691D01*
X006170Y010643D01*
X006315Y010691D02*
X006315Y010788D01*
X006266Y010836D01*
X006218Y010938D02*
X006315Y011034D01*
X006315Y011083D01*
X006266Y011183D02*
X006170Y011183D01*
X006121Y011232D01*
X006121Y011377D01*
X006170Y011478D02*
X006266Y011478D01*
X006315Y011526D01*
X006315Y011623D01*
X006266Y011671D01*
X006218Y011671D01*
X006218Y011478D01*
X006170Y011478D02*
X006121Y011526D01*
X006121Y011623D01*
X006121Y011772D02*
X006121Y011869D01*
X006121Y011821D02*
X006411Y011821D01*
X006411Y011772D01*
X006266Y011969D02*
X006170Y011969D01*
X006121Y012017D01*
X006121Y012114D01*
X006170Y012162D01*
X006266Y012162D01*
X006315Y012114D01*
X006315Y012017D01*
X006266Y011969D01*
X006315Y012264D02*
X006121Y012264D01*
X006121Y012457D02*
X006266Y012457D01*
X006315Y012409D01*
X006315Y012264D01*
X006170Y012558D02*
X006218Y012607D01*
X006218Y012752D01*
X006266Y012752D02*
X006121Y012752D01*
X006121Y012607D01*
X006170Y012558D01*
X006315Y012607D02*
X006315Y012703D01*
X006266Y012752D01*
X006315Y011377D02*
X006315Y011232D01*
X006266Y011183D01*
X006315Y010938D02*
X006121Y010938D01*
X006315Y009611D02*
X006315Y009563D01*
X006601Y008381D02*
X006601Y008236D01*
X006650Y008188D01*
X006698Y008236D01*
X006698Y008381D01*
X006746Y008381D02*
X006601Y008381D01*
X006746Y008381D02*
X006795Y008333D01*
X006795Y008236D01*
X006843Y008086D02*
X006746Y008086D01*
X006698Y008038D01*
X006698Y007893D01*
X006698Y007990D02*
X006601Y008086D01*
X006601Y007893D02*
X006891Y007893D01*
X006891Y008038D01*
X006843Y008086D01*
X006746Y007792D02*
X006650Y007792D01*
X006601Y007743D01*
X006601Y007598D01*
X006504Y007598D02*
X006795Y007598D01*
X006795Y007743D01*
X006746Y007792D01*
X006746Y007497D02*
X006698Y007497D01*
X006698Y007304D01*
X006746Y007304D02*
X006795Y007352D01*
X006795Y007449D01*
X006746Y007497D01*
X006601Y007449D02*
X006601Y007352D01*
X006650Y007304D01*
X006746Y007304D01*
X006746Y007202D02*
X006698Y007154D01*
X006698Y007009D01*
X006698Y007106D02*
X006601Y007202D01*
X006746Y007202D02*
X006843Y007202D01*
X006891Y007154D01*
X006891Y007009D01*
X006601Y007009D01*
X006460Y007941D02*
X006411Y007941D01*
D12*
X005880Y007983D02*
X005880Y007883D01*
X005880Y007836D02*
X005880Y007736D01*
X005880Y007688D02*
X005880Y007588D01*
X005880Y007541D02*
X005880Y007441D01*
X005880Y007394D02*
X005880Y007294D01*
X005880Y007246D02*
X005880Y007146D01*
X005880Y007099D02*
X005880Y006999D01*
X005715Y007024D02*
X005690Y006999D01*
X005665Y006999D01*
X005640Y007024D01*
X005640Y007074D01*
X005615Y007099D01*
X005590Y007099D01*
X005565Y007074D01*
X005565Y007024D01*
X005590Y006999D01*
X005475Y006999D02*
X005425Y007049D01*
X005475Y007099D01*
X005325Y007099D01*
X005350Y007146D02*
X005375Y007171D01*
X005375Y007246D01*
X005400Y007246D02*
X005325Y007246D01*
X005325Y007171D01*
X005350Y007146D01*
X005425Y007171D02*
X005425Y007221D01*
X005400Y007246D01*
X005375Y007294D02*
X005425Y007344D01*
X005425Y007369D01*
X005400Y007416D02*
X005350Y007416D01*
X005325Y007441D01*
X005325Y007516D01*
X005425Y007516D02*
X005425Y007441D01*
X005400Y007416D01*
X005425Y007294D02*
X005325Y007294D01*
X005565Y007319D02*
X005590Y007294D01*
X005615Y007319D01*
X005615Y007394D01*
X005640Y007394D02*
X005565Y007394D01*
X005565Y007319D01*
X005565Y007246D02*
X005640Y007246D01*
X005665Y007221D01*
X005640Y007196D01*
X005565Y007196D01*
X005565Y007146D02*
X005665Y007146D01*
X005665Y007171D01*
X005640Y007196D01*
X005690Y007099D02*
X005715Y007074D01*
X005715Y007024D01*
X005475Y006999D02*
X005325Y006999D01*
X005665Y007319D02*
X005665Y007369D01*
X005640Y007394D01*
X005615Y007441D02*
X005665Y007491D01*
X005665Y007516D01*
X005665Y007564D02*
X005665Y007614D01*
X005690Y007589D02*
X005590Y007589D01*
X005565Y007614D01*
X005450Y007711D02*
X005350Y007711D01*
X005325Y007736D01*
X005325Y007786D01*
X005350Y007811D01*
X005350Y007858D02*
X005325Y007883D01*
X005325Y007933D01*
X005350Y007958D01*
X005400Y007958D01*
X005425Y007933D01*
X005425Y007883D01*
X005400Y007858D01*
X005350Y007858D01*
X005450Y007811D02*
X005475Y007786D01*
X005475Y007736D01*
X005450Y007711D01*
X005565Y007809D02*
X005565Y007909D01*
X005565Y007957D02*
X005665Y008057D01*
X005665Y008104D02*
X005665Y008154D01*
X005690Y008129D02*
X005590Y008129D01*
X005565Y008154D01*
X005565Y008202D02*
X005665Y008202D01*
X005615Y008202D02*
X005665Y008252D01*
X005665Y008277D01*
X005665Y008325D02*
X005590Y008325D01*
X005565Y008350D01*
X005565Y008425D01*
X005665Y008425D01*
X005640Y008472D02*
X005665Y008497D01*
X005665Y008572D01*
X005715Y008572D02*
X005565Y008572D01*
X005565Y008497D01*
X005590Y008472D01*
X005640Y008472D01*
X005640Y008620D02*
X005665Y008645D01*
X005665Y008695D01*
X005640Y008720D01*
X005615Y008720D01*
X005615Y008620D01*
X005590Y008620D02*
X005640Y008620D01*
X005590Y008620D02*
X005565Y008645D01*
X005565Y008695D01*
X005565Y008767D02*
X005665Y008767D01*
X005615Y008767D02*
X005665Y008817D01*
X005665Y008842D01*
X005475Y008816D02*
X005475Y008916D01*
X005475Y008963D02*
X005375Y008963D01*
X005325Y009013D01*
X005375Y009063D01*
X005475Y009063D01*
X005565Y009037D02*
X005565Y009112D01*
X005590Y009137D01*
X005615Y009137D01*
X005640Y009112D01*
X005640Y009037D01*
X005565Y009037D02*
X005715Y009037D01*
X005715Y009112D01*
X005690Y009137D01*
X005665Y009137D01*
X005640Y009112D01*
X005640Y009184D02*
X005590Y009184D01*
X005565Y009209D01*
X005565Y009259D01*
X005590Y009284D01*
X005640Y009284D01*
X005665Y009259D01*
X005665Y009209D01*
X005640Y009184D01*
X005590Y009332D02*
X005615Y009357D01*
X005615Y009432D01*
X005640Y009432D02*
X005565Y009432D01*
X005565Y009357D01*
X005590Y009332D01*
X005665Y009357D02*
X005665Y009407D01*
X005640Y009432D01*
X005615Y009479D02*
X005665Y009529D01*
X005665Y009554D01*
X005640Y009602D02*
X005665Y009627D01*
X005665Y009702D01*
X005715Y009702D02*
X005565Y009702D01*
X005565Y009627D01*
X005590Y009602D01*
X005640Y009602D01*
X005665Y009479D02*
X005565Y009479D01*
X005425Y009358D02*
X005325Y009358D01*
X005400Y009358D02*
X005400Y009258D01*
X005425Y009258D02*
X005475Y009308D01*
X005425Y009358D01*
X005425Y009258D02*
X005325Y009258D01*
X005300Y009211D02*
X005300Y009111D01*
X005325Y008916D02*
X005325Y008816D01*
X005475Y008816D01*
X005450Y008769D02*
X005400Y008769D01*
X005375Y008744D01*
X005375Y008669D01*
X005325Y008669D02*
X005475Y008669D01*
X005475Y008744D01*
X005450Y008769D01*
X005400Y008816D02*
X005400Y008866D01*
X005325Y008769D02*
X005375Y008719D01*
X005425Y008474D02*
X005425Y008449D01*
X005375Y008399D01*
X005375Y008351D02*
X005375Y008251D01*
X005350Y008251D02*
X005400Y008251D01*
X005425Y008276D01*
X005425Y008326D01*
X005400Y008351D01*
X005375Y008351D01*
X005325Y008326D02*
X005325Y008276D01*
X005350Y008251D01*
X005325Y008203D02*
X005325Y008153D01*
X005325Y008178D02*
X005475Y008178D01*
X005475Y008153D01*
X005425Y008081D02*
X005425Y008006D01*
X005475Y008006D02*
X005325Y008006D01*
X005325Y008081D01*
X005350Y008106D01*
X005400Y008106D01*
X005425Y008081D01*
X005565Y008057D02*
X005665Y007957D01*
X005715Y007909D02*
X005715Y007809D01*
X005565Y007809D01*
X005640Y007809D02*
X005640Y007859D01*
X005880Y008030D02*
X005880Y008130D01*
X005880Y008178D02*
X005880Y008278D01*
X005880Y008325D02*
X005880Y008425D01*
X005880Y008472D02*
X005880Y008572D01*
X005880Y008620D02*
X005880Y008720D01*
X005880Y008767D02*
X005880Y008867D01*
X005880Y008914D02*
X005880Y009014D01*
X005880Y009061D02*
X005880Y009162D01*
X005880Y009209D02*
X005880Y009309D01*
X005880Y009356D02*
X005880Y009456D01*
X005880Y009503D02*
X005880Y009604D01*
X005880Y009651D02*
X005880Y009751D01*
X005880Y009798D02*
X005880Y009898D01*
X005880Y009945D02*
X005880Y010046D01*
X005880Y010093D02*
X005880Y010193D01*
X005880Y010240D02*
X005880Y010340D01*
X005880Y010387D02*
X005880Y010488D01*
X005880Y010535D02*
X005880Y010635D01*
X005880Y010682D02*
X005880Y010782D01*
X006780Y010886D02*
X006930Y010886D01*
X006930Y010962D01*
X006905Y010987D01*
X006855Y010987D01*
X006830Y010962D01*
X006830Y010886D01*
X006830Y010839D02*
X006830Y010764D01*
X006855Y010739D01*
X006880Y010764D01*
X006880Y010839D01*
X006905Y010839D02*
X006830Y010839D01*
X006905Y010839D02*
X006930Y010814D01*
X006930Y010764D01*
X006930Y010691D02*
X006930Y010666D01*
X006880Y010616D01*
X006830Y010616D02*
X006930Y010616D01*
X006905Y010569D02*
X006855Y010569D01*
X006830Y010544D01*
X006830Y010469D01*
X006780Y010469D02*
X006930Y010469D01*
X006930Y010544D01*
X006905Y010569D01*
X006905Y010422D02*
X006880Y010422D01*
X006880Y010322D01*
X006855Y010322D02*
X006905Y010322D01*
X006930Y010347D01*
X006930Y010397D01*
X006905Y010422D01*
X006830Y010397D02*
X006830Y010347D01*
X006855Y010322D01*
X006930Y010274D02*
X006930Y010249D01*
X006880Y010199D01*
X006830Y010199D02*
X006930Y010199D01*
X006930Y011034D02*
X006930Y011109D01*
X006905Y011134D01*
X006855Y011134D01*
X006830Y011109D01*
X006830Y011034D01*
X006980Y011034D01*
X006905Y011181D02*
X006855Y011181D01*
X006830Y011206D01*
X006830Y011281D01*
X006830Y011328D02*
X006930Y011328D01*
X006930Y011403D01*
X006905Y011429D01*
X006830Y011429D01*
X006830Y011476D02*
X006830Y011501D01*
X006855Y011501D01*
X006855Y011476D01*
X006830Y011476D01*
X006855Y011549D02*
X006830Y011574D01*
X006830Y011650D01*
X006855Y011697D02*
X006830Y011722D01*
X006830Y011772D01*
X006855Y011797D01*
X006905Y011797D01*
X006930Y011772D01*
X006930Y011722D01*
X006905Y011697D01*
X006855Y011697D01*
X006930Y011650D02*
X006930Y011574D01*
X006905Y011549D01*
X006855Y011549D01*
X006930Y011281D02*
X006930Y011206D01*
X006905Y011181D01*
X006930Y011844D02*
X006830Y011844D01*
X006830Y011894D02*
X006905Y011894D01*
X006930Y011919D01*
X006905Y011944D01*
X006830Y011944D01*
X006905Y011894D02*
X006930Y011869D01*
X006930Y011844D01*
X005425Y008399D02*
X005325Y008399D01*
X005565Y007441D02*
X005665Y007441D01*
D13*
X005274Y011440D02*
X005130Y011440D01*
X005111Y011631D01*
X005047Y011651D01*
X004987Y011682D01*
X004839Y011561D01*
X004737Y011663D01*
X004858Y011811D01*
X004827Y011871D01*
X005032Y011956D01*
X005053Y011918D01*
X005082Y011886D01*
X005118Y011862D01*
X005159Y011847D01*
X005202Y011842D01*
X005246Y011847D01*
X005287Y011863D01*
X005324Y011887D01*
X005353Y011920D01*
X005374Y011959D01*
X005385Y012002D01*
X005386Y012046D01*
X005376Y012089D01*
X005356Y012129D01*
X005327Y012162D01*
X005291Y012188D01*
X005250Y012204D01*
X005206Y012211D01*
X005162Y012206D01*
X005121Y012192D01*
X005084Y012168D01*
X005053Y012135D01*
X005032Y012097D01*
X004827Y012182D01*
X004858Y012241D01*
X004737Y012390D01*
X004839Y012492D01*
X004987Y012371D01*
X005047Y012401D01*
X005111Y012422D01*
X005130Y012612D01*
X005274Y012612D01*
X005294Y012422D01*
X005358Y012401D01*
X005417Y012371D01*
X005566Y012492D01*
X005668Y012390D01*
X005547Y012241D01*
X005577Y012182D01*
X005598Y012118D01*
X005361Y012118D01*
X005382Y012061D02*
X005788Y012061D01*
X005788Y012098D02*
X005788Y011954D01*
X005598Y011935D01*
X005577Y011871D01*
X005547Y011811D01*
X005668Y011663D01*
X005566Y011561D01*
X005417Y011682D01*
X005358Y011651D01*
X005294Y011631D01*
X005274Y011440D01*
X005279Y011485D02*
X005126Y011485D01*
X005120Y011543D02*
X005285Y011543D01*
X005290Y011600D02*
X005114Y011600D01*
X005034Y011658D02*
X005370Y011658D01*
X005447Y011658D02*
X005663Y011658D01*
X005625Y011715D02*
X004780Y011715D01*
X004742Y011658D02*
X004957Y011658D01*
X004887Y011600D02*
X004799Y011600D01*
X004827Y011773D02*
X005578Y011773D01*
X005556Y011830D02*
X004848Y011830D01*
X004868Y011888D02*
X005081Y011888D01*
X005037Y011945D02*
X005007Y011945D01*
X004980Y012118D02*
X005044Y012118D01*
X005096Y012176D02*
X004842Y012176D01*
X004854Y012233D02*
X005551Y012233D01*
X005579Y012176D02*
X005308Y012176D01*
X005385Y012003D02*
X005788Y012003D01*
X005788Y012098D02*
X005598Y012118D01*
X005587Y012291D02*
X004818Y012291D01*
X004771Y012348D02*
X005634Y012348D01*
X005652Y012406D02*
X005461Y012406D01*
X005531Y012463D02*
X005594Y012463D01*
X005343Y012406D02*
X005061Y012406D01*
X005115Y012463D02*
X005289Y012463D01*
X005283Y012521D02*
X005121Y012521D01*
X005127Y012579D02*
X005278Y012579D01*
X004944Y012406D02*
X004753Y012406D01*
X004810Y012463D02*
X004873Y012463D01*
X005367Y011945D02*
X005702Y011945D01*
X005583Y011888D02*
X005324Y011888D01*
X005518Y011600D02*
X005605Y011600D01*
M02*
