G75*
%MOIN*%
%OFA0B0*%
%FSLAX24Y24*%
%IPPOS*%
%LPD*%
%AMOC8*
5,1,8,0,0,1.08239X$1,22.5*
%
%ADD10C,0.0120*%
%ADD11R,0.0512X0.0630*%
%ADD12R,0.0551X0.0551*%
%ADD13R,0.0472X0.0472*%
%ADD14R,0.0591X0.0512*%
%ADD15R,0.0630X0.0512*%
%ADD16R,0.2441X0.2126*%
%ADD17R,0.0630X0.0394*%
%ADD18R,0.0450X0.0400*%
D10*
X004883Y004781D02*
X013883Y004781D01*
X013943Y004783D01*
X014004Y004788D01*
X014063Y004797D01*
X014122Y004810D01*
X014181Y004826D01*
X014238Y004846D01*
X014293Y004869D01*
X014348Y004896D01*
X014400Y004925D01*
X014451Y004958D01*
X014500Y004994D01*
X014546Y005032D01*
X014590Y005074D01*
X014632Y005118D01*
X014670Y005164D01*
X014706Y005213D01*
X014739Y005264D01*
X014768Y005316D01*
X014795Y005371D01*
X014818Y005426D01*
X014838Y005483D01*
X014854Y005542D01*
X014867Y005601D01*
X014876Y005660D01*
X014881Y005721D01*
X014883Y005781D01*
X014883Y019581D01*
X014881Y019641D01*
X014876Y019702D01*
X014867Y019761D01*
X014854Y019820D01*
X014838Y019879D01*
X014818Y019936D01*
X014795Y019991D01*
X014768Y020046D01*
X014739Y020098D01*
X014706Y020149D01*
X014670Y020198D01*
X014632Y020244D01*
X014590Y020288D01*
X014546Y020330D01*
X014500Y020368D01*
X014451Y020404D01*
X014400Y020437D01*
X014348Y020466D01*
X014293Y020493D01*
X014238Y020516D01*
X014181Y020536D01*
X014122Y020552D01*
X014063Y020565D01*
X014004Y020574D01*
X013943Y020579D01*
X013883Y020581D01*
X004883Y020581D01*
X004823Y020579D01*
X004762Y020574D01*
X004703Y020565D01*
X004644Y020552D01*
X004585Y020536D01*
X004528Y020516D01*
X004473Y020493D01*
X004418Y020466D01*
X004366Y020437D01*
X004315Y020404D01*
X004266Y020368D01*
X004220Y020330D01*
X004176Y020288D01*
X004134Y020244D01*
X004096Y020198D01*
X004060Y020149D01*
X004027Y020098D01*
X003998Y020046D01*
X003971Y019991D01*
X003948Y019936D01*
X003928Y019879D01*
X003912Y019820D01*
X003899Y019761D01*
X003890Y019702D01*
X003885Y019641D01*
X003883Y019581D01*
X003883Y005781D01*
X003885Y005721D01*
X003890Y005660D01*
X003899Y005601D01*
X003912Y005542D01*
X003928Y005483D01*
X003948Y005426D01*
X003971Y005371D01*
X003998Y005316D01*
X004027Y005264D01*
X004060Y005213D01*
X004096Y005164D01*
X004134Y005118D01*
X004176Y005074D01*
X004220Y005032D01*
X004266Y004994D01*
X004315Y004958D01*
X004366Y004925D01*
X004418Y004896D01*
X004473Y004869D01*
X004528Y004846D01*
X004585Y004826D01*
X004644Y004810D01*
X004703Y004797D01*
X004762Y004788D01*
X004823Y004783D01*
X004883Y004781D01*
D11*
X009110Y007902D03*
X009858Y007902D03*
X009855Y008841D03*
X009107Y008841D03*
X008983Y011860D03*
X009731Y011860D03*
X006586Y014465D03*
X005838Y014465D03*
X005814Y015671D03*
X006562Y015671D03*
D12*
X008990Y012875D03*
X010486Y012875D03*
X011283Y009029D03*
X011283Y007533D03*
D13*
X007964Y012039D03*
X007964Y012866D03*
D14*
X011294Y010892D03*
X011294Y010144D03*
D15*
X010033Y010157D03*
X010033Y010905D03*
D16*
X010371Y014781D03*
D17*
X007497Y015678D03*
X007497Y013883D03*
D18*
X009958Y006909D03*
X009958Y006209D03*
X010758Y006559D03*
M02*
