G75*
%MOIN*%
%OFA0B0*%
%FSLAX24Y24*%
%IPPOS*%
%LPD*%
%AMOC8*
5,1,8,0,0,1.08239X$1,22.5*
%
%ADD10C,0.0120*%
%ADD11R,0.0552X0.0670*%
%ADD12R,0.0591X0.0591*%
%ADD13R,0.0840X0.0840*%
%ADD14C,0.0840*%
%ADD15R,0.0512X0.0512*%
%ADD16C,0.0640*%
%ADD17R,0.0631X0.0552*%
%ADD18R,0.0670X0.0552*%
%ADD19R,0.2481X0.2166*%
%ADD20R,0.0670X0.0434*%
%ADD21R,0.0490X0.0440*%
%ADD22R,0.0434X0.0434*%
%ADD23C,0.0500*%
%ADD24C,0.0434*%
%ADD25C,0.1700*%
D10*
X004883Y004781D02*
X013883Y004781D01*
X013943Y004783D01*
X014004Y004788D01*
X014063Y004797D01*
X014122Y004810D01*
X014181Y004826D01*
X014238Y004846D01*
X014293Y004869D01*
X014348Y004896D01*
X014400Y004925D01*
X014451Y004958D01*
X014500Y004994D01*
X014546Y005032D01*
X014590Y005074D01*
X014632Y005118D01*
X014670Y005164D01*
X014706Y005213D01*
X014739Y005264D01*
X014768Y005316D01*
X014795Y005371D01*
X014818Y005426D01*
X014838Y005483D01*
X014854Y005542D01*
X014867Y005601D01*
X014876Y005660D01*
X014881Y005721D01*
X014883Y005781D01*
X014883Y019581D01*
X014881Y019641D01*
X014876Y019702D01*
X014867Y019761D01*
X014854Y019820D01*
X014838Y019879D01*
X014818Y019936D01*
X014795Y019991D01*
X014768Y020046D01*
X014739Y020098D01*
X014706Y020149D01*
X014670Y020198D01*
X014632Y020244D01*
X014590Y020288D01*
X014546Y020330D01*
X014500Y020368D01*
X014451Y020404D01*
X014400Y020437D01*
X014348Y020466D01*
X014293Y020493D01*
X014238Y020516D01*
X014181Y020536D01*
X014122Y020552D01*
X014063Y020565D01*
X014004Y020574D01*
X013943Y020579D01*
X013883Y020581D01*
X004883Y020581D01*
X004823Y020579D01*
X004762Y020574D01*
X004703Y020565D01*
X004644Y020552D01*
X004585Y020536D01*
X004528Y020516D01*
X004473Y020493D01*
X004418Y020466D01*
X004366Y020437D01*
X004315Y020404D01*
X004266Y020368D01*
X004220Y020330D01*
X004176Y020288D01*
X004134Y020244D01*
X004096Y020198D01*
X004060Y020149D01*
X004027Y020098D01*
X003998Y020046D01*
X003971Y019991D01*
X003948Y019936D01*
X003928Y019879D01*
X003912Y019820D01*
X003899Y019761D01*
X003890Y019702D01*
X003885Y019641D01*
X003883Y019581D01*
X003883Y005781D01*
X003885Y005721D01*
X003890Y005660D01*
X003899Y005601D01*
X003912Y005542D01*
X003928Y005483D01*
X003948Y005426D01*
X003971Y005371D01*
X003998Y005316D01*
X004027Y005264D01*
X004060Y005213D01*
X004096Y005164D01*
X004134Y005118D01*
X004176Y005074D01*
X004220Y005032D01*
X004266Y004994D01*
X004315Y004958D01*
X004366Y004925D01*
X004418Y004896D01*
X004473Y004869D01*
X004528Y004846D01*
X004585Y004826D01*
X004644Y004810D01*
X004703Y004797D01*
X004762Y004788D01*
X004823Y004783D01*
X004883Y004781D01*
D11*
X009110Y007902D03*
X009858Y007902D03*
X009855Y008841D03*
X009107Y008841D03*
X008983Y011860D03*
X009731Y011860D03*
X006586Y014465D03*
X005838Y014465D03*
X005814Y015671D03*
X006562Y015671D03*
D12*
X008990Y012875D03*
X010486Y012875D03*
X011283Y009029D03*
X011283Y007533D03*
D13*
X013500Y012832D03*
D14*
X013500Y014800D03*
D15*
X007964Y012866D03*
X007964Y012039D03*
D16*
X012771Y010803D02*
X013371Y010803D01*
X013371Y009803D02*
X012771Y009803D01*
X012771Y008772D02*
X013371Y008772D01*
X013371Y007772D02*
X012771Y007772D01*
X012783Y006735D02*
X013383Y006735D01*
X013383Y005735D02*
X012783Y005735D01*
X012802Y016760D02*
X013402Y016760D01*
X013402Y017760D02*
X012802Y017760D01*
X011512Y018205D02*
X011512Y018805D01*
X010512Y018805D02*
X010512Y018205D01*
X009512Y018205D02*
X009512Y018805D01*
X008512Y018805D02*
X008512Y018205D01*
X007512Y018205D02*
X007512Y018805D01*
X006512Y018805D02*
X006512Y018205D01*
D17*
X011294Y010892D03*
X011294Y010144D03*
D18*
X010033Y010157D03*
X010033Y010905D03*
D19*
X010371Y014781D03*
D20*
X007497Y015678D03*
X007497Y013883D03*
D21*
X009958Y006909D03*
X009958Y006209D03*
X010758Y006559D03*
D22*
X005155Y017776D03*
X005155Y018463D03*
X005155Y019151D03*
D23*
X007395Y009102D02*
X007397Y009139D01*
X007403Y009176D01*
X007412Y009211D01*
X007426Y009246D01*
X007442Y009279D01*
X007463Y009310D01*
X007486Y009339D01*
X007512Y009365D01*
X007541Y009388D01*
X007572Y009409D01*
X007605Y009425D01*
X007640Y009439D01*
X007675Y009448D01*
X007712Y009454D01*
X007749Y009456D01*
X007786Y009454D01*
X007823Y009448D01*
X007858Y009439D01*
X007893Y009425D01*
X007926Y009409D01*
X007957Y009388D01*
X007986Y009365D01*
X008012Y009339D01*
X008035Y009310D01*
X008056Y009279D01*
X008072Y009246D01*
X008086Y009211D01*
X008095Y009176D01*
X008101Y009139D01*
X008103Y009102D01*
X008101Y009065D01*
X008095Y009028D01*
X008086Y008993D01*
X008072Y008958D01*
X008056Y008925D01*
X008035Y008894D01*
X008012Y008865D01*
X007986Y008839D01*
X007957Y008816D01*
X007926Y008795D01*
X007893Y008779D01*
X007858Y008765D01*
X007823Y008756D01*
X007786Y008750D01*
X007749Y008748D01*
X007712Y008750D01*
X007675Y008756D01*
X007640Y008765D01*
X007605Y008779D01*
X007572Y008795D01*
X007541Y008816D01*
X007512Y008839D01*
X007486Y008865D01*
X007463Y008894D01*
X007442Y008925D01*
X007426Y008958D01*
X007412Y008993D01*
X007403Y009028D01*
X007397Y009065D01*
X007395Y009102D01*
X004877Y007982D02*
X004879Y008019D01*
X004885Y008056D01*
X004894Y008091D01*
X004908Y008126D01*
X004924Y008159D01*
X004945Y008190D01*
X004968Y008219D01*
X004994Y008245D01*
X005023Y008268D01*
X005054Y008289D01*
X005087Y008305D01*
X005122Y008319D01*
X005157Y008328D01*
X005194Y008334D01*
X005231Y008336D01*
X005268Y008334D01*
X005305Y008328D01*
X005340Y008319D01*
X005375Y008305D01*
X005408Y008289D01*
X005439Y008268D01*
X005468Y008245D01*
X005494Y008219D01*
X005517Y008190D01*
X005538Y008159D01*
X005554Y008126D01*
X005568Y008091D01*
X005577Y008056D01*
X005583Y008019D01*
X005585Y007982D01*
X005583Y007945D01*
X005577Y007908D01*
X005568Y007873D01*
X005554Y007838D01*
X005538Y007805D01*
X005517Y007774D01*
X005494Y007745D01*
X005468Y007719D01*
X005439Y007696D01*
X005408Y007675D01*
X005375Y007659D01*
X005340Y007645D01*
X005305Y007636D01*
X005268Y007630D01*
X005231Y007628D01*
X005194Y007630D01*
X005157Y007636D01*
X005122Y007645D01*
X005087Y007659D01*
X005054Y007675D01*
X005023Y007696D01*
X004994Y007719D01*
X004968Y007745D01*
X004945Y007774D01*
X004924Y007805D01*
X004908Y007838D01*
X004894Y007873D01*
X004885Y007908D01*
X004879Y007945D01*
X004877Y007982D01*
D24*
X005231Y007982D03*
X007749Y009102D03*
D25*
X005163Y006060D03*
X013715Y019347D03*
M02*
