G75*
%MOIN*%
%OFA0B0*%
%FSLAX24Y24*%
%IPPOS*%
%LPD*%
%AMOC8*
5,1,8,0,0,1.08239X$1,22.5*
%
%ADD10C,0.0120*%
%ADD11R,0.0800X0.0800*%
%ADD12C,0.0800*%
%ADD13C,0.0600*%
%ADD14C,0.0240*%
%ADD15C,0.1660*%
%ADD16C,0.0160*%
D10*
X004332Y005229D02*
X004188Y005426D01*
X004113Y005659D01*
X004103Y005781D01*
X004103Y019581D01*
X004113Y019703D01*
X004188Y019935D01*
X004332Y020132D01*
X004529Y020276D01*
X004761Y020351D01*
X004883Y020361D01*
X013883Y020361D01*
X014005Y020351D01*
X014237Y020276D01*
X014435Y020132D01*
X014578Y019935D01*
X014654Y019703D01*
X014663Y019581D01*
X014663Y005781D01*
X014654Y005659D01*
X014578Y005426D01*
X014435Y005229D01*
X014237Y005086D01*
X014005Y005010D01*
X013883Y005001D01*
X004883Y005001D01*
X004761Y005010D01*
X004529Y005086D01*
X004332Y005229D01*
X004342Y005222D02*
X014425Y005222D01*
X014516Y005340D02*
X013621Y005340D01*
X013624Y005341D02*
X013682Y005384D01*
X013733Y005435D01*
X013776Y005494D01*
X013809Y005558D01*
X013831Y005627D01*
X013842Y005695D01*
X013123Y005695D01*
X013123Y005775D01*
X013842Y005775D01*
X013831Y005843D01*
X013809Y005911D01*
X013776Y005976D01*
X013733Y006035D01*
X013682Y006086D01*
X013624Y006128D01*
X013559Y006161D01*
X013490Y006184D01*
X013419Y006195D01*
X013123Y006195D01*
X013123Y005775D01*
X013043Y005775D01*
X013043Y006195D01*
X012746Y006195D01*
X012675Y006184D01*
X012606Y006161D01*
X012541Y006128D01*
X012483Y006086D01*
X012432Y006035D01*
X012389Y005976D01*
X012356Y005911D01*
X012334Y005843D01*
X012323Y005775D01*
X013043Y005775D01*
X013043Y005695D01*
X013123Y005695D01*
X013123Y005275D01*
X013419Y005275D01*
X013490Y005286D01*
X013559Y005309D01*
X013624Y005341D01*
X013750Y005459D02*
X014589Y005459D01*
X014627Y005577D02*
X013815Y005577D01*
X013883Y004781D02*
X013943Y004783D01*
X014004Y004788D01*
X014063Y004797D01*
X014122Y004810D01*
X014181Y004826D01*
X014238Y004846D01*
X014293Y004869D01*
X014348Y004896D01*
X014400Y004925D01*
X014451Y004958D01*
X014500Y004994D01*
X014546Y005032D01*
X014590Y005074D01*
X014632Y005118D01*
X014670Y005164D01*
X014706Y005213D01*
X014739Y005264D01*
X014768Y005316D01*
X014795Y005371D01*
X014818Y005426D01*
X014838Y005483D01*
X014854Y005542D01*
X014867Y005601D01*
X014876Y005660D01*
X014881Y005721D01*
X014883Y005781D01*
X014883Y019581D01*
X014663Y019560D02*
X004103Y019560D01*
X004103Y019442D02*
X014663Y019442D01*
X014663Y019323D02*
X004103Y019323D01*
X004103Y019205D02*
X006274Y019205D01*
X006251Y019195D02*
X006420Y019265D01*
X006603Y019265D01*
X006772Y019195D01*
X006902Y019066D01*
X006972Y018896D01*
X006972Y018113D01*
X006902Y017944D01*
X006772Y017815D01*
X006603Y017745D01*
X006420Y017745D01*
X006251Y017815D01*
X006122Y017944D01*
X006052Y018113D01*
X006052Y018896D01*
X006122Y019066D01*
X006251Y019195D01*
X006142Y019086D02*
X004103Y019086D01*
X004103Y018968D02*
X006081Y018968D01*
X006052Y018849D02*
X004103Y018849D01*
X004103Y018731D02*
X006052Y018731D01*
X006052Y018612D02*
X004103Y018612D01*
X004103Y018494D02*
X006052Y018494D01*
X006052Y018375D02*
X004103Y018375D01*
X004103Y018257D02*
X006052Y018257D01*
X006052Y018138D02*
X004103Y018138D01*
X004103Y018020D02*
X006091Y018020D01*
X006165Y017901D02*
X004103Y017901D01*
X004103Y017783D02*
X006329Y017783D01*
X006694Y017783D02*
X007329Y017783D01*
X007251Y017815D02*
X007420Y017745D01*
X007603Y017745D01*
X007772Y017815D01*
X007902Y017944D01*
X007972Y018113D01*
X007972Y018896D01*
X007902Y019066D01*
X007772Y019195D01*
X007603Y019265D01*
X007420Y019265D01*
X007251Y019195D01*
X007122Y019066D01*
X007052Y018896D01*
X007052Y018113D01*
X007122Y017944D01*
X007251Y017815D01*
X007165Y017901D02*
X006858Y017901D01*
X006933Y018020D02*
X007091Y018020D01*
X007052Y018138D02*
X006972Y018138D01*
X006972Y018257D02*
X007052Y018257D01*
X007052Y018375D02*
X006972Y018375D01*
X006972Y018494D02*
X007052Y018494D01*
X007052Y018612D02*
X006972Y018612D01*
X006972Y018731D02*
X007052Y018731D01*
X007052Y018849D02*
X006972Y018849D01*
X006942Y018968D02*
X007081Y018968D01*
X007142Y019086D02*
X006881Y019086D01*
X006749Y019205D02*
X007274Y019205D01*
X007749Y019205D02*
X008283Y019205D01*
X008271Y019198D02*
X008212Y019156D01*
X008161Y019105D01*
X008118Y019046D01*
X008085Y018982D01*
X008063Y018913D01*
X008052Y018841D01*
X008052Y018545D01*
X008472Y018545D01*
X008472Y019264D01*
X008404Y019254D01*
X008335Y019231D01*
X008271Y019198D01*
X008147Y019086D02*
X007881Y019086D01*
X007942Y018968D02*
X008081Y018968D01*
X008053Y018849D02*
X007972Y018849D01*
X007972Y018731D02*
X008052Y018731D01*
X008052Y018612D02*
X007972Y018612D01*
X007972Y018494D02*
X008472Y018494D01*
X008472Y018465D02*
X008052Y018465D01*
X008052Y018169D01*
X008063Y018097D01*
X008085Y018028D01*
X008118Y017964D01*
X008161Y017905D01*
X008212Y017854D01*
X008271Y017812D01*
X008335Y017779D01*
X008404Y017756D01*
X008472Y017746D01*
X008472Y018465D01*
X008552Y018465D01*
X008552Y018545D01*
X008972Y018545D01*
X008972Y018841D01*
X008960Y018913D01*
X008938Y018982D01*
X008905Y019046D01*
X008863Y019105D01*
X008811Y019156D01*
X008753Y019198D01*
X008688Y019231D01*
X008619Y019254D01*
X008552Y019264D01*
X008552Y018545D01*
X008472Y018545D01*
X008472Y018465D01*
X008552Y018465D02*
X008552Y017746D01*
X008619Y017756D01*
X008688Y017779D01*
X008753Y017812D01*
X008811Y017854D01*
X008863Y017905D01*
X008905Y017964D01*
X008938Y018028D01*
X008960Y018097D01*
X008972Y018169D01*
X008972Y018465D01*
X008552Y018465D01*
X008552Y018494D02*
X009052Y018494D01*
X009052Y018612D02*
X008972Y018612D01*
X008972Y018731D02*
X009052Y018731D01*
X009052Y018849D02*
X008970Y018849D01*
X009052Y018896D02*
X009122Y019066D01*
X009251Y019195D01*
X009420Y019265D01*
X009603Y019265D01*
X009772Y019195D01*
X009902Y019066D01*
X009972Y018896D01*
X009972Y018113D01*
X009902Y017944D01*
X009772Y017815D01*
X009603Y017745D01*
X009420Y017745D01*
X009251Y017815D01*
X009122Y017944D01*
X009052Y018113D01*
X009052Y018896D01*
X009081Y018968D02*
X008943Y018968D01*
X008876Y019086D02*
X009142Y019086D01*
X009274Y019205D02*
X008741Y019205D01*
X008552Y019205D02*
X008472Y019205D01*
X008472Y019086D02*
X008552Y019086D01*
X008552Y018968D02*
X008472Y018968D01*
X008472Y018849D02*
X008552Y018849D01*
X008552Y018731D02*
X008472Y018731D01*
X008472Y018612D02*
X008552Y018612D01*
X008552Y018375D02*
X008472Y018375D01*
X008472Y018257D02*
X008552Y018257D01*
X008552Y018138D02*
X008472Y018138D01*
X008472Y018020D02*
X008552Y018020D01*
X008552Y017901D02*
X008472Y017901D01*
X008472Y017783D02*
X008552Y017783D01*
X008696Y017783D02*
X009329Y017783D01*
X009165Y017901D02*
X008858Y017901D01*
X008933Y018020D02*
X009091Y018020D01*
X009052Y018138D02*
X008967Y018138D01*
X008972Y018257D02*
X009052Y018257D01*
X009052Y018375D02*
X008972Y018375D01*
X008327Y017783D02*
X007694Y017783D01*
X007858Y017901D02*
X008165Y017901D01*
X008090Y018020D02*
X007933Y018020D01*
X007972Y018138D02*
X008057Y018138D01*
X008052Y018257D02*
X007972Y018257D01*
X007972Y018375D02*
X008052Y018375D01*
X009345Y016953D02*
X004103Y016953D01*
X004103Y016835D02*
X009226Y016835D01*
X009108Y016716D02*
X004103Y016716D01*
X004103Y016598D02*
X006904Y016598D01*
X006925Y016618D02*
X006846Y016539D01*
X006803Y016436D01*
X006803Y016325D01*
X006843Y016228D01*
X006843Y011833D01*
X006880Y011745D01*
X008506Y010119D01*
X008546Y010022D01*
X008625Y009943D01*
X008728Y009901D01*
X008839Y009901D01*
X008942Y009943D01*
X009021Y010022D01*
X009063Y010125D01*
X009063Y010236D01*
X009021Y010339D01*
X008942Y010418D01*
X008845Y010458D01*
X007323Y011980D01*
X007323Y014545D01*
X007325Y014543D01*
X007428Y014501D01*
X007539Y014501D01*
X007642Y014543D01*
X007721Y014622D01*
X007763Y014725D01*
X007763Y014749D01*
X010074Y017061D01*
X010307Y017061D01*
X010325Y017043D01*
X010428Y017001D01*
X010539Y017001D01*
X010642Y017043D01*
X010721Y017122D01*
X010763Y017225D01*
X010763Y017336D01*
X010721Y017439D01*
X010642Y017518D01*
X010539Y017561D01*
X010428Y017561D01*
X010325Y017518D01*
X010307Y017501D01*
X009892Y017501D01*
X009763Y017372D01*
X007452Y015061D01*
X007428Y015061D01*
X007325Y015018D01*
X007323Y015017D01*
X007323Y016228D01*
X007363Y016325D01*
X007363Y016436D01*
X007321Y016539D01*
X007242Y016618D01*
X007139Y016661D01*
X007028Y016661D01*
X006925Y016618D01*
X006821Y016479D02*
X004103Y016479D01*
X004103Y016361D02*
X006803Y016361D01*
X006838Y016242D02*
X004103Y016242D01*
X004103Y016124D02*
X006843Y016124D01*
X006843Y016005D02*
X004103Y016005D01*
X004103Y015887D02*
X006843Y015887D01*
X006843Y015768D02*
X004103Y015768D01*
X004103Y015650D02*
X006843Y015650D01*
X006843Y015531D02*
X004103Y015531D01*
X004103Y015413D02*
X006843Y015413D01*
X006843Y015294D02*
X004103Y015294D01*
X004103Y015176D02*
X006843Y015176D01*
X006843Y015057D02*
X004103Y015057D01*
X004103Y014939D02*
X006843Y014939D01*
X006843Y014820D02*
X004103Y014820D01*
X004103Y014702D02*
X006843Y014702D01*
X006843Y014583D02*
X004103Y014583D01*
X004103Y014465D02*
X006843Y014465D01*
X006843Y014346D02*
X004103Y014346D01*
X004103Y014228D02*
X006843Y014228D01*
X006843Y014109D02*
X004103Y014109D01*
X004103Y013991D02*
X006843Y013991D01*
X006843Y013872D02*
X004103Y013872D01*
X004103Y013754D02*
X006843Y013754D01*
X006843Y013635D02*
X004103Y013635D01*
X004103Y013517D02*
X006843Y013517D01*
X006843Y013398D02*
X004103Y013398D01*
X004103Y013280D02*
X006843Y013280D01*
X006843Y013161D02*
X004103Y013161D01*
X004103Y013043D02*
X006843Y013043D01*
X006843Y012924D02*
X004103Y012924D01*
X004103Y012806D02*
X006843Y012806D01*
X006843Y012687D02*
X004103Y012687D01*
X004103Y012569D02*
X006843Y012569D01*
X006843Y012450D02*
X004103Y012450D01*
X004103Y012332D02*
X006843Y012332D01*
X006843Y012213D02*
X004103Y012213D01*
X004103Y012095D02*
X006843Y012095D01*
X006843Y011976D02*
X004103Y011976D01*
X004103Y011858D02*
X006843Y011858D01*
X006885Y011739D02*
X004103Y011739D01*
X004103Y011621D02*
X007004Y011621D01*
X007122Y011502D02*
X004103Y011502D01*
X004103Y011384D02*
X007241Y011384D01*
X007359Y011265D02*
X004103Y011265D01*
X004103Y011147D02*
X007478Y011147D01*
X007596Y011028D02*
X004103Y011028D01*
X004103Y010910D02*
X007715Y010910D01*
X007833Y010791D02*
X004103Y010791D01*
X004103Y010673D02*
X007952Y010673D01*
X008070Y010554D02*
X004103Y010554D01*
X004103Y010436D02*
X008189Y010436D01*
X008307Y010317D02*
X004103Y010317D01*
X004103Y010199D02*
X008426Y010199D01*
X008522Y010080D02*
X004103Y010080D01*
X004103Y009962D02*
X008606Y009962D01*
X008960Y009962D02*
X009863Y009962D01*
X009863Y010080D02*
X009045Y010080D01*
X009063Y010199D02*
X009863Y010199D01*
X009863Y010317D02*
X009030Y010317D01*
X008899Y010436D02*
X009863Y010436D01*
X009863Y010554D02*
X008749Y010554D01*
X008631Y010673D02*
X009863Y010673D01*
X009863Y010791D02*
X008512Y010791D01*
X008394Y010910D02*
X009863Y010910D01*
X009863Y011028D02*
X008275Y011028D01*
X008157Y011147D02*
X009863Y011147D01*
X009863Y011265D02*
X008038Y011265D01*
X007920Y011384D02*
X009863Y011384D01*
X009863Y011502D02*
X007801Y011502D01*
X007683Y011621D02*
X009863Y011621D01*
X009863Y011739D02*
X007564Y011739D01*
X007446Y011858D02*
X009863Y011858D01*
X009863Y011976D02*
X007327Y011976D01*
X007323Y012095D02*
X009863Y012095D01*
X009863Y012213D02*
X007323Y012213D01*
X007323Y012332D02*
X009863Y012332D01*
X009863Y012450D02*
X007323Y012450D01*
X007323Y012569D02*
X009863Y012569D01*
X009863Y012687D02*
X007323Y012687D01*
X007323Y012806D02*
X009863Y012806D01*
X009863Y012924D02*
X007323Y012924D01*
X007323Y013043D02*
X009863Y013043D01*
X009863Y013161D02*
X007323Y013161D01*
X007323Y013280D02*
X009863Y013280D01*
X009863Y013398D02*
X007323Y013398D01*
X007323Y013517D02*
X009863Y013517D01*
X009863Y013635D02*
X007323Y013635D01*
X007323Y013754D02*
X009863Y013754D01*
X009863Y013872D02*
X007323Y013872D01*
X007323Y013991D02*
X009863Y013991D01*
X009863Y014109D02*
X007323Y014109D01*
X007323Y014228D02*
X009863Y014228D01*
X009863Y014346D02*
X007323Y014346D01*
X007323Y014465D02*
X009863Y014465D01*
X009863Y014583D02*
X007682Y014583D01*
X007754Y014702D02*
X009863Y014702D01*
X009863Y014820D02*
X007834Y014820D01*
X007952Y014939D02*
X009863Y014939D01*
X009863Y015057D02*
X008071Y015057D01*
X008189Y015176D02*
X009863Y015176D01*
X009863Y015294D02*
X008308Y015294D01*
X008426Y015413D02*
X009863Y015413D01*
X009863Y015531D02*
X008545Y015531D01*
X008663Y015650D02*
X009863Y015650D01*
X009863Y015768D02*
X008782Y015768D01*
X008900Y015887D02*
X009863Y015887D01*
X009863Y016005D02*
X009019Y016005D01*
X009137Y016124D02*
X009863Y016124D01*
X009863Y016242D02*
X009256Y016242D01*
X009374Y016361D02*
X009863Y016361D01*
X009863Y016405D02*
X009863Y009189D01*
X010203Y008849D01*
X010203Y008825D01*
X010246Y008722D01*
X010325Y008643D01*
X010428Y008601D01*
X010539Y008601D01*
X010642Y008643D01*
X010721Y008722D01*
X010763Y008825D01*
X010763Y008936D01*
X010721Y009039D01*
X010642Y009118D01*
X010539Y009161D01*
X010514Y009161D01*
X010303Y009372D01*
X010303Y016405D01*
X010321Y016422D01*
X010363Y016525D01*
X010363Y016636D01*
X010321Y016739D01*
X010242Y016818D01*
X010139Y016861D01*
X010028Y016861D01*
X009925Y016818D01*
X009846Y016739D01*
X009803Y016636D01*
X009803Y016525D01*
X009846Y016422D01*
X009863Y016405D01*
X009822Y016479D02*
X009493Y016479D01*
X009611Y016598D02*
X009803Y016598D01*
X009836Y016716D02*
X009730Y016716D01*
X009848Y016835D02*
X009965Y016835D01*
X009967Y016953D02*
X011063Y016953D01*
X011063Y016835D02*
X010202Y016835D01*
X010330Y016716D02*
X011063Y016716D01*
X011063Y016598D02*
X010363Y016598D01*
X010344Y016479D02*
X011063Y016479D01*
X011063Y016361D02*
X010303Y016361D01*
X010303Y016242D02*
X011063Y016242D01*
X011063Y016124D02*
X010303Y016124D01*
X010303Y016005D02*
X011063Y016005D01*
X011063Y015887D02*
X010303Y015887D01*
X010303Y015768D02*
X011063Y015768D01*
X011063Y015650D02*
X010303Y015650D01*
X010303Y015531D02*
X011063Y015531D01*
X011063Y015413D02*
X010303Y015413D01*
X010303Y015294D02*
X011063Y015294D01*
X011063Y015176D02*
X010303Y015176D01*
X010303Y015057D02*
X011063Y015057D01*
X011063Y014939D02*
X010303Y014939D01*
X010303Y014820D02*
X011063Y014820D01*
X011063Y014702D02*
X010303Y014702D01*
X010303Y014583D02*
X011063Y014583D01*
X011063Y014465D02*
X010303Y014465D01*
X010303Y014346D02*
X011063Y014346D01*
X011063Y014228D02*
X010303Y014228D01*
X010303Y014109D02*
X011063Y014109D01*
X011063Y013991D02*
X010303Y013991D01*
X010303Y013872D02*
X011063Y013872D01*
X011063Y013754D02*
X010303Y013754D01*
X010303Y013635D02*
X011063Y013635D01*
X011063Y013517D02*
X010303Y013517D01*
X010303Y013398D02*
X011063Y013398D01*
X011063Y013280D02*
X010303Y013280D01*
X010303Y013161D02*
X011063Y013161D01*
X011063Y013043D02*
X010303Y013043D01*
X010303Y012924D02*
X011063Y012924D01*
X011063Y012806D02*
X010303Y012806D01*
X010303Y012687D02*
X011063Y012687D01*
X011063Y012569D02*
X010303Y012569D01*
X010303Y012450D02*
X011063Y012450D01*
X011063Y012332D02*
X010303Y012332D01*
X010303Y012213D02*
X011063Y012213D01*
X011063Y012095D02*
X010303Y012095D01*
X010303Y011976D02*
X011063Y011976D01*
X011063Y011858D02*
X010303Y011858D01*
X010303Y011739D02*
X011046Y011739D01*
X011003Y011636D01*
X011003Y011525D01*
X011046Y011422D01*
X011125Y011343D01*
X011228Y011301D01*
X011339Y011301D01*
X011442Y011343D01*
X011521Y011422D01*
X011563Y011525D01*
X011563Y011636D01*
X011521Y011739D01*
X014663Y011739D01*
X014663Y011621D02*
X011563Y011621D01*
X011554Y011502D02*
X014663Y011502D01*
X014663Y011384D02*
X011482Y011384D01*
X011283Y011581D02*
X011283Y017381D01*
X011063Y017205D02*
X011063Y011757D01*
X011046Y011739D01*
X011003Y011621D02*
X010303Y011621D01*
X010303Y011502D02*
X011013Y011502D01*
X011084Y011384D02*
X010303Y011384D01*
X010303Y011265D02*
X014663Y011265D01*
X014663Y011147D02*
X013678Y011147D01*
X013631Y011193D02*
X013462Y011263D01*
X012679Y011263D01*
X012510Y011193D01*
X012381Y011064D01*
X012311Y010895D01*
X012311Y010712D01*
X012381Y010543D01*
X012510Y010413D01*
X012679Y010343D01*
X013462Y010343D01*
X013631Y010413D01*
X013761Y010543D01*
X013831Y010712D01*
X013831Y010895D01*
X013761Y011064D01*
X013631Y011193D01*
X013776Y011028D02*
X014663Y011028D01*
X014663Y010910D02*
X013825Y010910D01*
X013831Y010791D02*
X014663Y010791D01*
X014663Y010673D02*
X013814Y010673D01*
X013765Y010554D02*
X014663Y010554D01*
X014663Y010436D02*
X013653Y010436D01*
X013547Y010230D02*
X013478Y010252D01*
X013407Y010263D01*
X013111Y010263D01*
X013111Y009843D01*
X014663Y009843D01*
X014663Y009725D02*
X013824Y009725D01*
X013819Y009696D02*
X013797Y009627D01*
X013764Y009562D01*
X013722Y009504D01*
X013670Y009453D01*
X013612Y009410D01*
X013547Y009377D01*
X013478Y009355D01*
X013407Y009343D01*
X013111Y009343D01*
X013111Y009763D01*
X013031Y009763D01*
X013031Y009343D01*
X012735Y009343D01*
X012663Y009355D01*
X012594Y009377D01*
X012530Y009410D01*
X012471Y009453D01*
X012420Y009504D01*
X012377Y009562D01*
X012344Y009627D01*
X012322Y009696D01*
X012311Y009763D01*
X013031Y009763D01*
X013031Y009843D01*
X010303Y009843D01*
X010303Y009725D02*
X012317Y009725D01*
X012311Y009843D02*
X012322Y009911D01*
X012344Y009980D01*
X012377Y010044D01*
X012420Y010103D01*
X012471Y010154D01*
X012530Y010197D01*
X012594Y010230D01*
X012663Y010252D01*
X012735Y010263D01*
X013031Y010263D01*
X013031Y009843D01*
X012311Y009843D01*
X012338Y009962D02*
X010303Y009962D01*
X010303Y010080D02*
X012403Y010080D01*
X012533Y010199D02*
X010303Y010199D01*
X010303Y010317D02*
X014663Y010317D01*
X014663Y010199D02*
X013608Y010199D01*
X013612Y010197D02*
X013547Y010230D01*
X013612Y010197D02*
X013670Y010154D01*
X013722Y010103D01*
X013764Y010044D01*
X013797Y009980D01*
X013819Y009911D01*
X013830Y009843D01*
X013111Y009843D01*
X013111Y009763D01*
X013830Y009763D01*
X013819Y009696D01*
X013786Y009606D02*
X014663Y009606D01*
X014663Y009488D02*
X013705Y009488D01*
X013523Y009369D02*
X014663Y009369D01*
X014663Y009251D02*
X010424Y009251D01*
X010306Y009369D02*
X012619Y009369D01*
X012679Y009232D02*
X012510Y009162D01*
X012381Y009032D01*
X012311Y008863D01*
X012311Y008680D01*
X012381Y008511D01*
X012510Y008382D01*
X012679Y008312D01*
X013462Y008312D01*
X013631Y008382D01*
X013761Y008511D01*
X013831Y008680D01*
X013831Y008863D01*
X013761Y009032D01*
X013631Y009162D01*
X013462Y009232D01*
X012679Y009232D01*
X012480Y009132D02*
X010608Y009132D01*
X010731Y009014D02*
X012373Y009014D01*
X012324Y008895D02*
X010763Y008895D01*
X010743Y008777D02*
X012311Y008777D01*
X012320Y008658D02*
X010657Y008658D01*
X010483Y008881D02*
X010083Y009281D01*
X010083Y016581D01*
X009983Y017281D02*
X010483Y017281D01*
X010391Y017546D02*
X004103Y017546D01*
X004103Y017664D02*
X012344Y017664D01*
X012342Y017669D02*
X012412Y017500D01*
X012542Y017370D01*
X012711Y017300D01*
X013494Y017300D01*
X013663Y017370D01*
X013792Y017500D01*
X013862Y017669D01*
X013862Y017852D01*
X013792Y018021D01*
X013663Y018150D01*
X013494Y018220D01*
X012711Y018220D01*
X012542Y018150D01*
X012412Y018021D01*
X012342Y017852D01*
X012342Y017669D01*
X012342Y017783D02*
X011694Y017783D01*
X011772Y017815D02*
X011902Y017944D01*
X011972Y018113D01*
X011972Y018896D01*
X011902Y019066D01*
X011772Y019195D01*
X011603Y019265D01*
X011420Y019265D01*
X011251Y019195D01*
X011122Y019066D01*
X011052Y018896D01*
X011052Y018113D01*
X011122Y017944D01*
X011251Y017815D01*
X011420Y017745D01*
X011603Y017745D01*
X011772Y017815D01*
X011858Y017901D02*
X012363Y017901D01*
X012412Y018020D02*
X011933Y018020D01*
X011972Y018138D02*
X012530Y018138D01*
X011972Y018257D02*
X014663Y018257D01*
X014663Y018375D02*
X011972Y018375D01*
X011972Y018494D02*
X014663Y018494D01*
X014663Y018612D02*
X011972Y018612D01*
X011972Y018731D02*
X014663Y018731D01*
X014663Y018849D02*
X011972Y018849D01*
X011942Y018968D02*
X014663Y018968D01*
X014663Y019086D02*
X011881Y019086D01*
X011749Y019205D02*
X014663Y019205D01*
X014656Y019679D02*
X004111Y019679D01*
X004144Y019797D02*
X014623Y019797D01*
X014585Y019916D02*
X004182Y019916D01*
X004261Y020034D02*
X014506Y020034D01*
X014407Y020153D02*
X004360Y020153D01*
X004523Y020271D02*
X014244Y020271D01*
X013883Y020581D02*
X004883Y020581D01*
X004823Y020579D01*
X004762Y020574D01*
X004703Y020565D01*
X004644Y020552D01*
X004585Y020536D01*
X004528Y020516D01*
X004473Y020493D01*
X004418Y020466D01*
X004366Y020437D01*
X004315Y020404D01*
X004266Y020368D01*
X004220Y020330D01*
X004176Y020288D01*
X004134Y020244D01*
X004096Y020198D01*
X004060Y020149D01*
X004027Y020098D01*
X003998Y020046D01*
X003971Y019991D01*
X003948Y019936D01*
X003928Y019879D01*
X003912Y019820D01*
X003899Y019761D01*
X003890Y019702D01*
X003885Y019641D01*
X003883Y019581D01*
X003883Y005781D01*
X004103Y005814D02*
X012329Y005814D01*
X012323Y005695D02*
X012334Y005627D01*
X012356Y005558D01*
X012389Y005494D01*
X012432Y005435D01*
X012483Y005384D01*
X012541Y005341D01*
X012606Y005309D01*
X012675Y005286D01*
X012746Y005275D01*
X013043Y005275D01*
X013043Y005695D01*
X012323Y005695D01*
X012350Y005577D02*
X004139Y005577D01*
X004110Y005696D02*
X013043Y005696D01*
X013123Y005696D02*
X014657Y005696D01*
X014663Y005814D02*
X013836Y005814D01*
X013798Y005933D02*
X014663Y005933D01*
X014663Y006051D02*
X013717Y006051D01*
X013533Y006170D02*
X014663Y006170D01*
X014663Y006288D02*
X013506Y006288D01*
X013474Y006275D02*
X013643Y006345D01*
X013773Y006474D01*
X013843Y006643D01*
X013843Y006826D01*
X013773Y006995D01*
X013643Y007125D01*
X013474Y007195D01*
X012691Y007195D01*
X012522Y007125D01*
X012393Y006995D01*
X012323Y006826D01*
X012323Y006643D01*
X012393Y006474D01*
X012522Y006345D01*
X012691Y006275D01*
X013474Y006275D01*
X013705Y006407D02*
X014663Y006407D01*
X014663Y006525D02*
X013794Y006525D01*
X013843Y006644D02*
X014663Y006644D01*
X014663Y006762D02*
X013843Y006762D01*
X013820Y006881D02*
X014663Y006881D01*
X014663Y006999D02*
X013769Y006999D01*
X013650Y007118D02*
X014663Y007118D01*
X014663Y007236D02*
X004103Y007236D01*
X004103Y007118D02*
X012515Y007118D01*
X012396Y006999D02*
X004103Y006999D01*
X004103Y006881D02*
X012345Y006881D01*
X012323Y006762D02*
X004103Y006762D01*
X004103Y006644D02*
X012323Y006644D01*
X012372Y006525D02*
X004103Y006525D01*
X004103Y006407D02*
X012460Y006407D01*
X012659Y006288D02*
X004103Y006288D01*
X004103Y006170D02*
X012632Y006170D01*
X012448Y006051D02*
X004103Y006051D01*
X004103Y005933D02*
X012367Y005933D01*
X012415Y005459D02*
X004178Y005459D01*
X004251Y005340D02*
X012544Y005340D01*
X013043Y005340D02*
X013123Y005340D01*
X013123Y005459D02*
X013043Y005459D01*
X013043Y005577D02*
X013123Y005577D01*
X013123Y005814D02*
X013043Y005814D01*
X013043Y005933D02*
X013123Y005933D01*
X013123Y006051D02*
X013043Y006051D01*
X013043Y006170D02*
X013123Y006170D01*
X013462Y007312D02*
X012679Y007312D01*
X012510Y007382D01*
X012381Y007511D01*
X012311Y007680D01*
X012311Y007863D01*
X012381Y008032D01*
X012510Y008162D01*
X012679Y008232D01*
X013462Y008232D01*
X013631Y008162D01*
X013761Y008032D01*
X013831Y007863D01*
X013831Y007680D01*
X013761Y007511D01*
X013631Y007382D01*
X013462Y007312D01*
X013565Y007355D02*
X014663Y007355D01*
X014663Y007473D02*
X013722Y007473D01*
X013794Y007592D02*
X014663Y007592D01*
X014663Y007710D02*
X013831Y007710D01*
X013831Y007829D02*
X014663Y007829D01*
X014663Y007947D02*
X013796Y007947D01*
X013728Y008066D02*
X014663Y008066D01*
X014663Y008184D02*
X013578Y008184D01*
X013670Y008421D02*
X014663Y008421D01*
X014663Y008303D02*
X004103Y008303D01*
X004103Y008421D02*
X012471Y008421D01*
X012369Y008540D02*
X004103Y008540D01*
X004103Y008658D02*
X010310Y008658D01*
X010223Y008777D02*
X004103Y008777D01*
X004103Y008895D02*
X010158Y008895D01*
X010039Y009014D02*
X004103Y009014D01*
X004103Y009132D02*
X009921Y009132D01*
X009863Y009251D02*
X004103Y009251D01*
X004103Y009369D02*
X009863Y009369D01*
X009863Y009488D02*
X004103Y009488D01*
X004103Y009606D02*
X009863Y009606D01*
X009863Y009725D02*
X004103Y009725D01*
X004103Y009843D02*
X009863Y009843D01*
X010303Y009606D02*
X012355Y009606D01*
X012436Y009488D02*
X010303Y009488D01*
X010303Y010436D02*
X012488Y010436D01*
X012376Y010554D02*
X010303Y010554D01*
X010303Y010673D02*
X012327Y010673D01*
X012311Y010791D02*
X010303Y010791D01*
X010303Y010910D02*
X012317Y010910D01*
X012366Y011028D02*
X010303Y011028D01*
X010303Y011147D02*
X012463Y011147D01*
X013031Y010199D02*
X013111Y010199D01*
X013111Y010080D02*
X013031Y010080D01*
X013031Y009962D02*
X013111Y009962D01*
X013111Y009843D02*
X013031Y009843D01*
X013031Y009725D02*
X013111Y009725D01*
X013111Y009606D02*
X013031Y009606D01*
X013031Y009488D02*
X013111Y009488D01*
X013111Y009369D02*
X013031Y009369D01*
X013661Y009132D02*
X014663Y009132D01*
X014663Y009014D02*
X013769Y009014D01*
X013818Y008895D02*
X014663Y008895D01*
X014663Y008777D02*
X013831Y008777D01*
X013821Y008658D02*
X014663Y008658D01*
X014663Y008540D02*
X013772Y008540D01*
X012564Y008184D02*
X004103Y008184D01*
X004103Y008066D02*
X012414Y008066D01*
X012345Y007947D02*
X004103Y007947D01*
X004103Y007829D02*
X012311Y007829D01*
X012311Y007710D02*
X004103Y007710D01*
X004103Y007592D02*
X012348Y007592D01*
X012419Y007473D02*
X004103Y007473D01*
X004103Y007355D02*
X012576Y007355D01*
X014262Y005103D02*
X004505Y005103D01*
X004883Y004781D02*
X013883Y004781D01*
X013803Y009962D02*
X014663Y009962D01*
X014663Y010080D02*
X013738Y010080D01*
X014663Y011858D02*
X011503Y011858D01*
X011503Y011757D02*
X011503Y017205D01*
X011521Y017222D01*
X011563Y017325D01*
X011563Y017436D01*
X011521Y017539D01*
X011442Y017618D01*
X011339Y017661D01*
X011228Y017661D01*
X011125Y017618D01*
X011046Y017539D01*
X011003Y017436D01*
X011003Y017325D01*
X011046Y017222D01*
X011063Y017205D01*
X011063Y017190D02*
X010749Y017190D01*
X010763Y017309D02*
X011010Y017309D01*
X011003Y017427D02*
X010726Y017427D01*
X010575Y017546D02*
X011052Y017546D01*
X011329Y017783D02*
X010694Y017783D01*
X010772Y017815D02*
X010902Y017944D01*
X010972Y018113D01*
X010972Y018896D01*
X010902Y019066D01*
X010772Y019195D01*
X010603Y019265D01*
X010420Y019265D01*
X010251Y019195D01*
X010122Y019066D01*
X010052Y018896D01*
X010052Y018113D01*
X010122Y017944D01*
X010251Y017815D01*
X010420Y017745D01*
X010603Y017745D01*
X010772Y017815D01*
X010858Y017901D02*
X011165Y017901D01*
X011091Y018020D02*
X010933Y018020D01*
X010972Y018138D02*
X011052Y018138D01*
X011052Y018257D02*
X010972Y018257D01*
X010972Y018375D02*
X011052Y018375D01*
X011052Y018494D02*
X010972Y018494D01*
X010972Y018612D02*
X011052Y018612D01*
X011052Y018731D02*
X010972Y018731D01*
X010972Y018849D02*
X011052Y018849D01*
X011081Y018968D02*
X010942Y018968D01*
X010881Y019086D02*
X011142Y019086D01*
X011274Y019205D02*
X010749Y019205D01*
X010274Y019205D02*
X009749Y019205D01*
X009881Y019086D02*
X010142Y019086D01*
X010081Y018968D02*
X009942Y018968D01*
X009972Y018849D02*
X010052Y018849D01*
X010052Y018731D02*
X009972Y018731D01*
X009972Y018612D02*
X010052Y018612D01*
X010052Y018494D02*
X009972Y018494D01*
X009972Y018375D02*
X010052Y018375D01*
X010052Y018257D02*
X009972Y018257D01*
X009972Y018138D02*
X010052Y018138D01*
X010091Y018020D02*
X009933Y018020D01*
X009858Y017901D02*
X010165Y017901D01*
X010329Y017783D02*
X009694Y017783D01*
X009819Y017427D02*
X004103Y017427D01*
X004103Y017309D02*
X009700Y017309D01*
X009582Y017190D02*
X004103Y017190D01*
X004103Y017072D02*
X009463Y017072D01*
X009983Y017281D02*
X007483Y014781D01*
X007419Y015057D02*
X007323Y015057D01*
X007323Y015176D02*
X007567Y015176D01*
X007686Y015294D02*
X007323Y015294D01*
X007323Y015413D02*
X007804Y015413D01*
X007923Y015531D02*
X007323Y015531D01*
X007323Y015650D02*
X008041Y015650D01*
X008160Y015768D02*
X007323Y015768D01*
X007323Y015887D02*
X008278Y015887D01*
X008397Y016005D02*
X007323Y016005D01*
X007323Y016124D02*
X008515Y016124D01*
X008634Y016242D02*
X007329Y016242D01*
X007363Y016361D02*
X008752Y016361D01*
X008871Y016479D02*
X007346Y016479D01*
X007262Y016598D02*
X008989Y016598D01*
X010670Y017072D02*
X011063Y017072D01*
X011503Y017072D02*
X012463Y017072D01*
X012451Y017060D02*
X012503Y017111D01*
X012561Y017154D01*
X012626Y017186D01*
X012695Y017209D01*
X012766Y017220D01*
X013062Y017220D01*
X013062Y016800D01*
X013062Y016720D01*
X012343Y016720D01*
X012354Y016652D01*
X012376Y016583D01*
X012409Y016519D01*
X012451Y016460D01*
X012503Y016409D01*
X012561Y016367D01*
X012626Y016334D01*
X012695Y016311D01*
X012766Y016300D01*
X013062Y016300D01*
X013062Y016720D01*
X013142Y016720D01*
X013142Y016300D01*
X013438Y016300D01*
X013510Y016311D01*
X013579Y016334D01*
X013643Y016367D01*
X013702Y016409D01*
X013753Y016460D01*
X013796Y016519D01*
X013829Y016583D01*
X013851Y016652D01*
X013862Y016720D01*
X013142Y016720D01*
X013142Y016800D01*
X013062Y016800D01*
X012343Y016800D01*
X012354Y016868D01*
X012376Y016937D01*
X012409Y017001D01*
X012451Y017060D01*
X012384Y016953D02*
X011503Y016953D01*
X011503Y016835D02*
X012348Y016835D01*
X012343Y016716D02*
X011503Y016716D01*
X011503Y016598D02*
X012371Y016598D01*
X012438Y016479D02*
X011503Y016479D01*
X011503Y016361D02*
X012573Y016361D01*
X013062Y016361D02*
X013142Y016361D01*
X013142Y016479D02*
X013062Y016479D01*
X013062Y016598D02*
X013142Y016598D01*
X013142Y016716D02*
X013062Y016716D01*
X013142Y016800D02*
X013142Y017220D01*
X013438Y017220D01*
X013510Y017209D01*
X013579Y017186D01*
X013643Y017154D01*
X013702Y017111D01*
X013753Y017060D01*
X013796Y017001D01*
X013829Y016937D01*
X013851Y016868D01*
X013862Y016800D01*
X013142Y016800D01*
X013142Y016835D02*
X013062Y016835D01*
X013062Y016953D02*
X013142Y016953D01*
X013142Y017072D02*
X013062Y017072D01*
X013062Y017190D02*
X013142Y017190D01*
X013514Y017309D02*
X014663Y017309D01*
X014663Y017427D02*
X013720Y017427D01*
X013811Y017546D02*
X014663Y017546D01*
X014663Y017664D02*
X013860Y017664D01*
X013862Y017783D02*
X014663Y017783D01*
X014663Y017901D02*
X013842Y017901D01*
X013793Y018020D02*
X014663Y018020D01*
X014663Y018138D02*
X013675Y018138D01*
X013567Y017190D02*
X014663Y017190D01*
X014663Y017072D02*
X013741Y017072D01*
X013820Y016953D02*
X014663Y016953D01*
X014663Y016835D02*
X013856Y016835D01*
X013861Y016716D02*
X014663Y016716D01*
X014663Y016598D02*
X013833Y016598D01*
X013767Y016479D02*
X014663Y016479D01*
X014663Y016361D02*
X013631Y016361D01*
X013611Y015360D02*
X013388Y015360D01*
X013183Y015275D01*
X013025Y015117D01*
X012940Y014912D01*
X012940Y014689D01*
X013025Y014483D01*
X013183Y014325D01*
X013388Y014240D01*
X013611Y014240D01*
X013817Y014325D01*
X013975Y014483D01*
X014060Y014689D01*
X014060Y014912D01*
X013975Y015117D01*
X013817Y015275D01*
X013611Y015360D01*
X013771Y015294D02*
X014663Y015294D01*
X014663Y015176D02*
X013916Y015176D01*
X014000Y015057D02*
X014663Y015057D01*
X014663Y014939D02*
X014049Y014939D01*
X014060Y014820D02*
X014663Y014820D01*
X014663Y014702D02*
X014060Y014702D01*
X014016Y014583D02*
X014663Y014583D01*
X014663Y014465D02*
X013956Y014465D01*
X013838Y014346D02*
X014663Y014346D01*
X014663Y014228D02*
X011503Y014228D01*
X011503Y014346D02*
X013162Y014346D01*
X013044Y014465D02*
X011503Y014465D01*
X011503Y014583D02*
X012984Y014583D01*
X012940Y014702D02*
X011503Y014702D01*
X011503Y014820D02*
X012940Y014820D01*
X012951Y014939D02*
X011503Y014939D01*
X011503Y015057D02*
X013000Y015057D01*
X013083Y015176D02*
X011503Y015176D01*
X011503Y015294D02*
X013229Y015294D01*
X014663Y015413D02*
X011503Y015413D01*
X011503Y015531D02*
X014663Y015531D01*
X014663Y015650D02*
X011503Y015650D01*
X011503Y015768D02*
X014663Y015768D01*
X014663Y015887D02*
X011503Y015887D01*
X011503Y016005D02*
X014663Y016005D01*
X014663Y016124D02*
X011503Y016124D01*
X011503Y016242D02*
X014663Y016242D01*
X014663Y014109D02*
X011503Y014109D01*
X011503Y013991D02*
X014663Y013991D01*
X014663Y013872D02*
X011503Y013872D01*
X011503Y013754D02*
X014663Y013754D01*
X014663Y013635D02*
X011503Y013635D01*
X011503Y013517D02*
X014663Y013517D01*
X014663Y013398D02*
X011503Y013398D01*
X011503Y013280D02*
X012940Y013280D01*
X012940Y013298D02*
X012940Y012365D01*
X013034Y012272D01*
X013966Y012272D01*
X014060Y012365D01*
X014060Y013298D01*
X013966Y013392D01*
X013034Y013392D01*
X012940Y013298D01*
X012940Y013161D02*
X011503Y013161D01*
X011503Y013043D02*
X012940Y013043D01*
X012940Y012924D02*
X011503Y012924D01*
X011503Y012806D02*
X012940Y012806D01*
X012940Y012687D02*
X011503Y012687D01*
X011503Y012569D02*
X012940Y012569D01*
X012940Y012450D02*
X011503Y012450D01*
X011503Y012332D02*
X012974Y012332D01*
X014026Y012332D02*
X014663Y012332D01*
X014663Y012450D02*
X014060Y012450D01*
X014060Y012569D02*
X014663Y012569D01*
X014663Y012687D02*
X014060Y012687D01*
X014060Y012806D02*
X014663Y012806D01*
X014663Y012924D02*
X014060Y012924D01*
X014060Y013043D02*
X014663Y013043D01*
X014663Y013161D02*
X014060Y013161D01*
X014060Y013280D02*
X014663Y013280D01*
X014663Y012213D02*
X011503Y012213D01*
X011503Y012095D02*
X014663Y012095D01*
X014663Y011976D02*
X011503Y011976D01*
X011503Y011757D02*
X011521Y011739D01*
X011503Y017190D02*
X012637Y017190D01*
X012690Y017309D02*
X011557Y017309D01*
X011563Y017427D02*
X012485Y017427D01*
X012393Y017546D02*
X011514Y017546D01*
X013883Y020581D02*
X013943Y020579D01*
X014004Y020574D01*
X014063Y020565D01*
X014122Y020552D01*
X014181Y020536D01*
X014238Y020516D01*
X014293Y020493D01*
X014348Y020466D01*
X014400Y020437D01*
X014451Y020404D01*
X014500Y020368D01*
X014546Y020330D01*
X014590Y020288D01*
X014632Y020244D01*
X014670Y020198D01*
X014706Y020149D01*
X014739Y020098D01*
X014768Y020046D01*
X014795Y019991D01*
X014818Y019936D01*
X014838Y019879D01*
X014854Y019820D01*
X014867Y019761D01*
X014876Y019702D01*
X014881Y019641D01*
X014883Y019581D01*
X003883Y005781D02*
X003885Y005721D01*
X003890Y005660D01*
X003899Y005601D01*
X003912Y005542D01*
X003928Y005483D01*
X003948Y005426D01*
X003971Y005371D01*
X003998Y005316D01*
X004027Y005264D01*
X004060Y005213D01*
X004096Y005164D01*
X004134Y005118D01*
X004176Y005074D01*
X004220Y005032D01*
X004266Y004994D01*
X004315Y004958D01*
X004366Y004925D01*
X004418Y004896D01*
X004473Y004869D01*
X004528Y004846D01*
X004585Y004826D01*
X004644Y004810D01*
X004703Y004797D01*
X004762Y004788D01*
X004823Y004783D01*
X004883Y004781D01*
D11*
X013500Y012832D03*
D12*
X013500Y014800D03*
D13*
X013402Y016760D02*
X012802Y016760D01*
X012802Y017760D02*
X013402Y017760D01*
X011512Y018205D02*
X011512Y018805D01*
X010512Y018805D02*
X010512Y018205D01*
X009512Y018205D02*
X009512Y018805D01*
X008512Y018805D02*
X008512Y018205D01*
X007512Y018205D02*
X007512Y018805D01*
X006512Y018805D02*
X006512Y018205D01*
X012771Y010803D02*
X013371Y010803D01*
X013371Y009803D02*
X012771Y009803D01*
X012771Y008772D02*
X013371Y008772D01*
X013371Y007772D02*
X012771Y007772D01*
X012783Y006735D02*
X013383Y006735D01*
X013383Y005735D02*
X012783Y005735D01*
D14*
X011871Y005386D03*
X014271Y005686D03*
X010483Y008881D03*
X008783Y010181D03*
X007836Y010340D03*
X006811Y010316D03*
X006836Y011116D03*
X007483Y014781D03*
X007083Y016381D03*
X005671Y018786D03*
X010083Y016581D03*
X010483Y017281D03*
X011283Y017381D03*
X012571Y015586D03*
X013971Y015586D03*
X014271Y016786D03*
X014271Y017786D03*
X012471Y019786D03*
X012971Y013786D03*
X014071Y013786D03*
X011283Y011581D03*
X008111Y005440D03*
X006764Y005416D03*
D15*
X005163Y006060D03*
X013715Y019347D03*
D16*
X007083Y016381D02*
X007083Y011881D01*
X008783Y010181D01*
M02*
