G75*
%MOIN*%
%OFA0B0*%
%FSLAX25Y25*%
%IPPOS*%
%LPD*%
%AMOC8*
5,1,8,0,0,1.08239X$1,22.5*
%
%ADD10R,0.05800X0.01100*%
%ADD11R,0.01100X0.05800*%
%ADD12R,0.05118X0.05906*%
%ADD13R,0.05906X0.05118*%
%ADD14R,0.40984X0.42520*%
%ADD15R,0.08500X0.04200*%
%ADD16R,0.12992X0.05118*%
%ADD17R,0.06299X0.05118*%
%ADD18R,0.05906X0.01575*%
%ADD19R,0.04724X0.04724*%
%ADD20R,0.05512X0.05512*%
%ADD21R,0.05118X0.06299*%
%ADD22R,0.03937X0.07087*%
%ADD23R,0.03937X0.05512*%
%ADD24R,0.07087X0.06299*%
%ADD25R,0.21260X0.11417*%
%ADD26R,0.03000X0.12800*%
%ADD27R,0.14961X0.11024*%
%ADD28R,0.08661X0.02362*%
%ADD29R,0.10236X0.07087*%
%ADD30R,0.07874X0.02402*%
%ADD31R,0.14173X0.10551*%
%ADD32R,0.02362X0.08661*%
%ADD33R,0.05000X0.05787*%
%ADD34R,0.05787X0.05000*%
%ADD35R,0.03543X0.03150*%
%ADD36R,0.05906X0.11417*%
%ADD37R,0.05512X0.04724*%
%ADD38R,0.12598X0.04724*%
%ADD39R,0.04724X0.03937*%
%ADD40R,0.03937X0.04724*%
%ADD41R,0.04724X0.02165*%
%ADD42R,0.07087X0.12598*%
D10*
X0178873Y0175203D03*
X0178873Y0177103D03*
X0178873Y0179103D03*
X0178873Y0181103D03*
X0178873Y0183103D03*
X0178873Y0185003D03*
X0178873Y0187003D03*
X0178873Y0189003D03*
X0178873Y0190903D03*
X0178873Y0192903D03*
X0178873Y0194903D03*
X0178873Y0196803D03*
X0178873Y0198803D03*
X0178873Y0200803D03*
X0178873Y0202703D03*
X0178873Y0204703D03*
X0178873Y0206703D03*
X0178873Y0208603D03*
X0178873Y0210603D03*
X0178873Y0212603D03*
X0178873Y0214503D03*
X0178873Y0216503D03*
X0178873Y0218503D03*
X0178873Y0220503D03*
X0178873Y0222403D03*
X0238873Y0222403D03*
X0238873Y0220503D03*
X0238873Y0218503D03*
X0238873Y0216503D03*
X0238873Y0214503D03*
X0238873Y0212603D03*
X0238873Y0210603D03*
X0238873Y0208603D03*
X0238873Y0206703D03*
X0238873Y0204703D03*
X0238873Y0202703D03*
X0238873Y0200803D03*
X0238873Y0198803D03*
X0238873Y0196803D03*
X0238873Y0194903D03*
X0238873Y0192903D03*
X0238873Y0190903D03*
X0238873Y0189003D03*
X0238873Y0187003D03*
X0238873Y0185003D03*
X0238873Y0183103D03*
X0238873Y0181103D03*
X0238873Y0179103D03*
X0238873Y0177103D03*
X0238873Y0175203D03*
D11*
X0232473Y0168803D03*
X0230573Y0168803D03*
X0228573Y0168803D03*
X0226573Y0168803D03*
X0224573Y0168803D03*
X0222673Y0168803D03*
X0220673Y0168803D03*
X0218673Y0168803D03*
X0216773Y0168803D03*
X0214773Y0168803D03*
X0212773Y0168803D03*
X0210873Y0168803D03*
X0208873Y0168803D03*
X0206873Y0168803D03*
X0204973Y0168803D03*
X0202973Y0168803D03*
X0200973Y0168803D03*
X0199073Y0168803D03*
X0197073Y0168803D03*
X0195073Y0168803D03*
X0193173Y0168803D03*
X0191173Y0168803D03*
X0189173Y0168803D03*
X0187173Y0168803D03*
X0185273Y0168803D03*
X0185273Y0228803D03*
X0187173Y0228803D03*
X0189173Y0228803D03*
X0191173Y0228803D03*
X0193173Y0228803D03*
X0195073Y0228803D03*
X0197073Y0228803D03*
X0199073Y0228803D03*
X0200973Y0228803D03*
X0202973Y0228803D03*
X0204973Y0228803D03*
X0206873Y0228803D03*
X0208873Y0228803D03*
X0210873Y0228803D03*
X0212773Y0228803D03*
X0214773Y0228803D03*
X0216773Y0228803D03*
X0218673Y0228803D03*
X0220673Y0228803D03*
X0222673Y0228803D03*
X0224573Y0228803D03*
X0226573Y0228803D03*
X0228573Y0228803D03*
X0230573Y0228803D03*
X0232473Y0228803D03*
D12*
X0232807Y0242808D03*
X0240288Y0242808D03*
X0231832Y0277607D03*
X0225139Y0277607D03*
X0213549Y0277607D03*
X0206857Y0277607D03*
X0178373Y0268420D03*
X0170893Y0268420D03*
X0219341Y0152034D03*
X0226822Y0152034D03*
X0229454Y0126256D03*
X0221973Y0126256D03*
X0197892Y0113866D03*
X0190411Y0113866D03*
X0282197Y0081430D03*
X0289677Y0081430D03*
X0250673Y0502489D03*
X0243192Y0502489D03*
X0243133Y0511810D03*
X0250613Y0511810D03*
D13*
X0165033Y0451166D03*
X0165033Y0444473D03*
X0148596Y0444080D03*
X0148596Y0451560D03*
X0094767Y0351927D03*
X0094767Y0344447D03*
X0092985Y0276631D03*
X0092985Y0269151D03*
X0167512Y0205886D03*
X0167512Y0198406D03*
X0252914Y0197634D03*
X0252914Y0190154D03*
X0261025Y0143760D03*
X0261025Y0136280D03*
X0269768Y0136673D03*
X0269768Y0143366D03*
X0278433Y0143366D03*
X0278433Y0136673D03*
X0286833Y0136673D03*
X0286833Y0143366D03*
X0298202Y0265080D03*
X0298202Y0272560D03*
X0302221Y0344280D03*
X0302221Y0351760D03*
D14*
X0199644Y0398385D03*
D15*
X0166844Y0398385D03*
X0166844Y0391685D03*
X0166844Y0384985D03*
X0166844Y0405085D03*
X0166844Y0411785D03*
D16*
X0182674Y0437991D03*
X0207281Y0437991D03*
X0118974Y0443529D03*
X0094368Y0443529D03*
X0094368Y0409896D03*
X0118974Y0409896D03*
D17*
X0140327Y0444080D03*
X0140327Y0451560D03*
X0156833Y0451560D03*
X0156833Y0444080D03*
X0172934Y0499880D03*
X0172934Y0507360D03*
X0181233Y0507360D03*
X0181233Y0499880D03*
X0189633Y0499880D03*
X0189633Y0507360D03*
X0220704Y0480984D03*
X0220704Y0473503D03*
X0229962Y0473308D03*
X0229962Y0480788D03*
X0228084Y0500984D03*
X0228084Y0508464D03*
X0310533Y0351760D03*
X0310533Y0344280D03*
X0318862Y0344280D03*
X0318862Y0351760D03*
X0314833Y0272560D03*
X0314833Y0265080D03*
X0306517Y0265080D03*
X0306517Y0272560D03*
X0283080Y0274918D03*
X0283080Y0267437D03*
X0274087Y0267474D03*
X0274087Y0274955D03*
X0252071Y0143760D03*
X0252071Y0136280D03*
X0243334Y0136280D03*
X0243334Y0143760D03*
X0280048Y0064713D03*
X0280048Y0057233D03*
X0292862Y0057233D03*
X0292862Y0064713D03*
X0159042Y0303528D03*
X0159042Y0311008D03*
X0149372Y0310960D03*
X0149372Y0303480D03*
X0116848Y0288960D03*
X0116848Y0281480D03*
X0108419Y0281532D03*
X0108419Y0289012D03*
X0084764Y0276689D03*
X0084764Y0269209D03*
X0076323Y0269209D03*
X0076323Y0276689D03*
X0078033Y0344480D03*
X0078033Y0351960D03*
X0086441Y0351996D03*
X0086441Y0344516D03*
D18*
X0265135Y0123413D03*
X0265135Y0120854D03*
X0265135Y0118295D03*
X0265135Y0115736D03*
X0265135Y0113177D03*
X0265135Y0110618D03*
X0265135Y0108059D03*
X0265135Y0105499D03*
X0265135Y0102940D03*
X0265135Y0100381D03*
X0265135Y0097822D03*
X0265135Y0095263D03*
X0265135Y0092704D03*
X0265135Y0090145D03*
X0293678Y0090145D03*
X0293678Y0092704D03*
X0293678Y0095263D03*
X0293678Y0097822D03*
X0293678Y0100381D03*
X0293678Y0102940D03*
X0293678Y0105499D03*
X0293678Y0108059D03*
X0293678Y0110618D03*
X0293678Y0113177D03*
X0293678Y0115736D03*
X0293678Y0118295D03*
X0293678Y0120854D03*
X0293678Y0123413D03*
D19*
X0300504Y0065101D03*
X0300504Y0056833D03*
X0271919Y0056833D03*
X0271919Y0065101D03*
X0229548Y0118661D03*
X0221281Y0118661D03*
X0293942Y0297292D03*
X0302210Y0297292D03*
X0267573Y0502390D03*
X0259306Y0502390D03*
X0259906Y0511853D03*
X0268173Y0511853D03*
X0227983Y0516530D03*
X0227983Y0524798D03*
X0099427Y0323574D03*
X0091159Y0323574D03*
D20*
X0173153Y0251020D03*
X0188114Y0251020D03*
X0297836Y0146536D03*
X0297836Y0131576D03*
D21*
X0285573Y0288022D03*
X0278093Y0288022D03*
X0278093Y0297148D03*
X0285573Y0297148D03*
X0181818Y0259210D03*
X0174338Y0259210D03*
X0161573Y0268420D03*
X0154093Y0268420D03*
X0115381Y0323574D03*
X0107901Y0323574D03*
X0107822Y0331992D03*
X0115302Y0331992D03*
X0181093Y0459820D03*
X0188573Y0459820D03*
X0197293Y0459820D03*
X0204773Y0459820D03*
X0213493Y0459820D03*
X0220973Y0459820D03*
X0121373Y0105820D03*
X0113893Y0105820D03*
X0113893Y0097420D03*
X0121373Y0097420D03*
X0105173Y0097420D03*
X0097693Y0097420D03*
X0097693Y0105820D03*
X0105173Y0105820D03*
X0088973Y0105820D03*
X0081493Y0105820D03*
X0081493Y0097420D03*
X0088973Y0097420D03*
D22*
X0078365Y0549598D03*
X0067341Y0549598D03*
D23*
X0080536Y0086616D03*
X0088016Y0086616D03*
X0094110Y0086627D03*
X0101590Y0086627D03*
X0107121Y0086597D03*
X0114601Y0086597D03*
X0110861Y0077936D03*
X0097850Y0077966D03*
X0084276Y0077955D03*
D24*
X0307999Y0132381D03*
X0307999Y0145405D03*
D25*
X0159542Y0329003D03*
X0159542Y0367192D03*
D26*
X0207212Y0364849D03*
X0207212Y0345849D03*
D27*
X0143770Y0390344D03*
X0143770Y0419478D03*
D28*
X0163197Y0475120D03*
X0163197Y0480120D03*
X0163197Y0485120D03*
X0163197Y0490120D03*
X0183670Y0490120D03*
X0183670Y0485120D03*
X0183670Y0480120D03*
X0183670Y0475120D03*
X0278366Y0324825D03*
X0278366Y0319825D03*
X0278366Y0314825D03*
X0278366Y0309825D03*
X0298838Y0309825D03*
X0298838Y0314825D03*
X0298838Y0319825D03*
X0298838Y0324825D03*
X0331777Y0325244D03*
X0331777Y0329181D03*
X0331777Y0333118D03*
X0331777Y0337055D03*
X0331777Y0340992D03*
X0331777Y0344929D03*
X0331777Y0348866D03*
X0331777Y0321307D03*
X0331777Y0317370D03*
X0331777Y0313433D03*
X0331777Y0309496D03*
X0331777Y0305559D03*
X0331777Y0301622D03*
X0331777Y0297685D03*
X0331777Y0293748D03*
X0331777Y0289810D03*
X0331777Y0285873D03*
X0331777Y0281936D03*
X0331777Y0277999D03*
X0331777Y0274062D03*
X0210918Y0136925D03*
X0210918Y0131925D03*
X0210918Y0126925D03*
X0210918Y0121925D03*
X0190446Y0121925D03*
X0190446Y0126925D03*
X0190446Y0131925D03*
X0190446Y0136925D03*
X0115862Y0297657D03*
X0115862Y0302657D03*
X0115862Y0307657D03*
X0115862Y0312657D03*
X0095389Y0312657D03*
X0095389Y0307657D03*
X0095389Y0302657D03*
X0095389Y0297657D03*
X0065402Y0297817D03*
X0065402Y0301754D03*
X0065402Y0305691D03*
X0065402Y0309628D03*
X0065402Y0313565D03*
X0065402Y0317502D03*
X0065402Y0321439D03*
X0065402Y0325376D03*
X0065402Y0329313D03*
X0065402Y0333250D03*
X0065402Y0337187D03*
X0065402Y0341124D03*
X0065402Y0345061D03*
X0065402Y0348998D03*
X0065402Y0293880D03*
X0065402Y0289943D03*
X0065402Y0286006D03*
X0065402Y0282069D03*
X0065402Y0278132D03*
X0065402Y0274195D03*
D29*
X0055953Y0263959D03*
X0055953Y0359234D03*
X0341225Y0359102D03*
X0341225Y0263826D03*
D30*
X0329022Y0234494D03*
X0329022Y0230557D03*
X0329022Y0226620D03*
X0329022Y0222683D03*
X0329022Y0218746D03*
X0329022Y0214809D03*
X0329022Y0210872D03*
X0329022Y0206935D03*
X0329022Y0202998D03*
X0329022Y0199061D03*
X0329022Y0195124D03*
X0329022Y0191187D03*
X0329022Y0187250D03*
X0329022Y0183313D03*
X0329022Y0179376D03*
X0329022Y0388037D03*
X0329022Y0391974D03*
X0329022Y0395911D03*
X0329022Y0399848D03*
X0329022Y0403785D03*
X0329022Y0407722D03*
X0329022Y0411659D03*
X0329022Y0415596D03*
X0329022Y0419533D03*
X0329022Y0423470D03*
X0329022Y0427407D03*
X0329022Y0431344D03*
X0329022Y0435281D03*
X0329022Y0439218D03*
X0329022Y0443155D03*
X0329022Y0489774D03*
X0329022Y0493711D03*
X0329022Y0497648D03*
X0329022Y0501585D03*
X0329022Y0505522D03*
X0329022Y0509459D03*
X0329022Y0513396D03*
X0329022Y0517333D03*
X0329022Y0521270D03*
X0329022Y0525207D03*
X0329022Y0529144D03*
X0329022Y0533081D03*
X0329022Y0537018D03*
X0329022Y0540955D03*
X0329022Y0544892D03*
X0067605Y0443234D03*
X0067605Y0439297D03*
X0067605Y0435360D03*
X0067605Y0431423D03*
X0067605Y0427486D03*
X0067605Y0423549D03*
X0067605Y0419612D03*
X0067605Y0415675D03*
X0067605Y0411738D03*
X0067605Y0407801D03*
X0067605Y0403864D03*
X0067605Y0399927D03*
X0067605Y0395990D03*
X0067605Y0392053D03*
X0067605Y0388116D03*
X0067605Y0234573D03*
X0067605Y0230636D03*
X0067605Y0226699D03*
X0067605Y0222762D03*
X0067605Y0218825D03*
X0067605Y0214888D03*
X0067605Y0210951D03*
X0067605Y0207014D03*
X0067605Y0203077D03*
X0067605Y0199140D03*
X0067605Y0195203D03*
X0067605Y0191266D03*
X0067605Y0187329D03*
X0067605Y0183392D03*
X0067605Y0179455D03*
X0067605Y0141259D03*
X0067605Y0137322D03*
X0067605Y0133385D03*
X0067605Y0129448D03*
X0067605Y0125511D03*
X0067605Y0121574D03*
X0067605Y0117637D03*
X0067605Y0113700D03*
X0067605Y0109763D03*
X0067605Y0105826D03*
X0067605Y0101889D03*
X0067605Y0097952D03*
X0067605Y0094015D03*
X0067605Y0090078D03*
X0067605Y0086141D03*
D31*
X0056581Y0074291D03*
X0056581Y0153031D03*
X0056581Y0167604D03*
X0056581Y0246344D03*
X0056581Y0376266D03*
X0056581Y0455006D03*
X0340046Y0455006D03*
X0340046Y0478003D03*
X0340046Y0556743D03*
X0340046Y0376266D03*
X0340046Y0246344D03*
X0340046Y0167604D03*
D32*
X0214362Y0485077D03*
X0209362Y0485077D03*
X0204362Y0485077D03*
X0199362Y0485077D03*
X0199362Y0505549D03*
X0204362Y0505549D03*
X0209362Y0505549D03*
X0214362Y0505549D03*
D33*
X0218070Y0520705D03*
X0201140Y0520705D03*
X0219059Y0438160D03*
X0235988Y0438160D03*
D34*
X0313643Y0330053D03*
X0313643Y0313124D03*
X0313643Y0305831D03*
X0313643Y0288902D03*
X0080589Y0291677D03*
X0080589Y0308606D03*
X0080589Y0315899D03*
X0080589Y0332828D03*
X0080408Y0442336D03*
X0080408Y0459266D03*
D35*
X0155654Y0504336D03*
X0163922Y0500596D03*
X0163922Y0508077D03*
X0099651Y0337507D03*
X0099651Y0330026D03*
X0091383Y0333766D03*
X0294750Y0288951D03*
X0294750Y0281470D03*
X0303018Y0285210D03*
D36*
X0266832Y0527075D03*
X0266810Y0539675D03*
X0254999Y0539675D03*
X0255021Y0527075D03*
D37*
X0307833Y0116751D03*
X0307833Y0108089D03*
X0307833Y0101751D03*
X0307833Y0093089D03*
X0307833Y0086751D03*
X0307833Y0078089D03*
D38*
X0183819Y0279146D03*
X0183819Y0294894D03*
X0157048Y0294894D03*
X0157048Y0279146D03*
D39*
X0104358Y0215020D03*
X0104358Y0207820D03*
X0104358Y0200620D03*
X0094909Y0200620D03*
X0094909Y0207820D03*
X0094909Y0215020D03*
X0132709Y0138820D03*
X0132709Y0131020D03*
X0132709Y0123220D03*
X0142158Y0123220D03*
X0142158Y0131020D03*
X0142158Y0138820D03*
X0297109Y0168220D03*
X0297109Y0175420D03*
X0297109Y0182620D03*
X0306558Y0182620D03*
X0306558Y0175420D03*
X0306558Y0168220D03*
X0307758Y0154420D03*
X0298309Y0154420D03*
X0320435Y0070420D03*
X0329884Y0070420D03*
D40*
X0307233Y0379496D03*
X0300033Y0379496D03*
X0292833Y0379496D03*
X0292833Y0388944D03*
X0300033Y0388944D03*
X0307233Y0388944D03*
X0308433Y0459296D03*
X0301233Y0459296D03*
X0301233Y0468744D03*
X0308433Y0468744D03*
X0315633Y0468744D03*
X0315633Y0459296D03*
X0118233Y0383544D03*
X0111033Y0383544D03*
X0103833Y0383544D03*
X0103833Y0374096D03*
X0111033Y0374096D03*
X0118233Y0374096D03*
D41*
X0161115Y0459680D03*
X0161115Y0467160D03*
X0171352Y0467160D03*
X0171352Y0463420D03*
X0171352Y0459680D03*
D42*
X0084257Y0536620D03*
X0062210Y0536620D03*
M02*
