G75*
%MOIN*%
%OFA0B0*%
%FSLAX25Y25*%
%IPPOS*%
%LPD*%
%AMOC8*
5,1,8,0,0,1.08239X$1,22.5*
%
%ADD10C,0.00000*%
%ADD11C,0.13780*%
%ADD12C,0.06500*%
%ADD13R,0.07400X0.07400*%
%ADD14OC8,0.07400*%
%ADD15C,0.07400*%
%ADD16C,0.06600*%
%ADD17C,0.13500*%
%ADD18C,0.07800*%
%ADD19C,0.11811*%
%ADD20C,0.10630*%
%ADD21OC8,0.05400*%
%ADD22C,0.10000*%
%ADD23C,0.06000*%
%ADD24C,0.05400*%
%ADD25R,0.04600X0.06300*%
%ADD26R,0.00600X0.07200*%
%ADD27C,0.08600*%
%ADD28C,0.25591*%
D10*
X0040833Y0051620D02*
X0040833Y0582801D01*
X0040836Y0583043D01*
X0040845Y0583284D01*
X0040859Y0583525D01*
X0040880Y0583766D01*
X0040906Y0584006D01*
X0040938Y0584246D01*
X0040976Y0584485D01*
X0041019Y0584722D01*
X0041069Y0584959D01*
X0041124Y0585194D01*
X0041184Y0585428D01*
X0041251Y0585660D01*
X0041322Y0585891D01*
X0041400Y0586120D01*
X0041483Y0586347D01*
X0041571Y0586572D01*
X0041665Y0586795D01*
X0041764Y0587015D01*
X0041869Y0587233D01*
X0041978Y0587448D01*
X0042093Y0587661D01*
X0042213Y0587871D01*
X0042338Y0588077D01*
X0042468Y0588281D01*
X0042603Y0588482D01*
X0042743Y0588679D01*
X0042887Y0588873D01*
X0043036Y0589063D01*
X0043190Y0589249D01*
X0043348Y0589432D01*
X0043510Y0589611D01*
X0043677Y0589786D01*
X0043848Y0589957D01*
X0044023Y0590124D01*
X0044202Y0590286D01*
X0044385Y0590444D01*
X0044571Y0590598D01*
X0044761Y0590747D01*
X0044955Y0590891D01*
X0045152Y0591031D01*
X0045353Y0591166D01*
X0045557Y0591296D01*
X0045763Y0591421D01*
X0045973Y0591541D01*
X0046186Y0591656D01*
X0046401Y0591765D01*
X0046619Y0591870D01*
X0046839Y0591969D01*
X0047062Y0592063D01*
X0047287Y0592151D01*
X0047514Y0592234D01*
X0047743Y0592312D01*
X0047974Y0592383D01*
X0048206Y0592450D01*
X0048440Y0592510D01*
X0048675Y0592565D01*
X0048912Y0592615D01*
X0049149Y0592658D01*
X0049388Y0592696D01*
X0049628Y0592728D01*
X0049868Y0592754D01*
X0050109Y0592775D01*
X0050350Y0592789D01*
X0050591Y0592798D01*
X0050833Y0592801D01*
X0345794Y0592801D01*
X0346036Y0592798D01*
X0346277Y0592789D01*
X0346518Y0592775D01*
X0346759Y0592754D01*
X0346999Y0592728D01*
X0347239Y0592696D01*
X0347478Y0592658D01*
X0347715Y0592615D01*
X0347952Y0592565D01*
X0348187Y0592510D01*
X0348421Y0592450D01*
X0348653Y0592383D01*
X0348884Y0592312D01*
X0349113Y0592234D01*
X0349340Y0592151D01*
X0349565Y0592063D01*
X0349788Y0591969D01*
X0350008Y0591870D01*
X0350226Y0591765D01*
X0350441Y0591656D01*
X0350654Y0591541D01*
X0350864Y0591421D01*
X0351070Y0591296D01*
X0351274Y0591166D01*
X0351475Y0591031D01*
X0351672Y0590891D01*
X0351866Y0590747D01*
X0352056Y0590598D01*
X0352242Y0590444D01*
X0352425Y0590286D01*
X0352604Y0590124D01*
X0352779Y0589957D01*
X0352950Y0589786D01*
X0353117Y0589611D01*
X0353279Y0589432D01*
X0353437Y0589249D01*
X0353591Y0589063D01*
X0353740Y0588873D01*
X0353884Y0588679D01*
X0354024Y0588482D01*
X0354159Y0588281D01*
X0354289Y0588077D01*
X0354414Y0587871D01*
X0354534Y0587661D01*
X0354649Y0587448D01*
X0354758Y0587233D01*
X0354863Y0587015D01*
X0354962Y0586795D01*
X0355056Y0586572D01*
X0355144Y0586347D01*
X0355227Y0586120D01*
X0355305Y0585891D01*
X0355376Y0585660D01*
X0355443Y0585428D01*
X0355503Y0585194D01*
X0355558Y0584959D01*
X0355608Y0584722D01*
X0355651Y0584485D01*
X0355689Y0584246D01*
X0355721Y0584006D01*
X0355747Y0583766D01*
X0355768Y0583525D01*
X0355782Y0583284D01*
X0355791Y0583043D01*
X0355794Y0582801D01*
X0355794Y0051620D01*
X0355791Y0051378D01*
X0355782Y0051137D01*
X0355768Y0050896D01*
X0355747Y0050655D01*
X0355721Y0050415D01*
X0355689Y0050175D01*
X0355651Y0049936D01*
X0355608Y0049699D01*
X0355558Y0049462D01*
X0355503Y0049227D01*
X0355443Y0048993D01*
X0355376Y0048761D01*
X0355305Y0048530D01*
X0355227Y0048301D01*
X0355144Y0048074D01*
X0355056Y0047849D01*
X0354962Y0047626D01*
X0354863Y0047406D01*
X0354758Y0047188D01*
X0354649Y0046973D01*
X0354534Y0046760D01*
X0354414Y0046550D01*
X0354289Y0046344D01*
X0354159Y0046140D01*
X0354024Y0045939D01*
X0353884Y0045742D01*
X0353740Y0045548D01*
X0353591Y0045358D01*
X0353437Y0045172D01*
X0353279Y0044989D01*
X0353117Y0044810D01*
X0352950Y0044635D01*
X0352779Y0044464D01*
X0352604Y0044297D01*
X0352425Y0044135D01*
X0352242Y0043977D01*
X0352056Y0043823D01*
X0351866Y0043674D01*
X0351672Y0043530D01*
X0351475Y0043390D01*
X0351274Y0043255D01*
X0351070Y0043125D01*
X0350864Y0043000D01*
X0350654Y0042880D01*
X0350441Y0042765D01*
X0350226Y0042656D01*
X0350008Y0042551D01*
X0349788Y0042452D01*
X0349565Y0042358D01*
X0349340Y0042270D01*
X0349113Y0042187D01*
X0348884Y0042109D01*
X0348653Y0042038D01*
X0348421Y0041971D01*
X0348187Y0041911D01*
X0347952Y0041856D01*
X0347715Y0041806D01*
X0347478Y0041763D01*
X0347239Y0041725D01*
X0346999Y0041693D01*
X0346759Y0041667D01*
X0346518Y0041646D01*
X0346277Y0041632D01*
X0346036Y0041623D01*
X0345794Y0041620D01*
X0050833Y0041620D01*
X0050591Y0041623D01*
X0050350Y0041632D01*
X0050109Y0041646D01*
X0049868Y0041667D01*
X0049628Y0041693D01*
X0049388Y0041725D01*
X0049149Y0041763D01*
X0048912Y0041806D01*
X0048675Y0041856D01*
X0048440Y0041911D01*
X0048206Y0041971D01*
X0047974Y0042038D01*
X0047743Y0042109D01*
X0047514Y0042187D01*
X0047287Y0042270D01*
X0047062Y0042358D01*
X0046839Y0042452D01*
X0046619Y0042551D01*
X0046401Y0042656D01*
X0046186Y0042765D01*
X0045973Y0042880D01*
X0045763Y0043000D01*
X0045557Y0043125D01*
X0045353Y0043255D01*
X0045152Y0043390D01*
X0044955Y0043530D01*
X0044761Y0043674D01*
X0044571Y0043823D01*
X0044385Y0043977D01*
X0044202Y0044135D01*
X0044023Y0044297D01*
X0043848Y0044464D01*
X0043677Y0044635D01*
X0043510Y0044810D01*
X0043348Y0044989D01*
X0043190Y0045172D01*
X0043036Y0045358D01*
X0042887Y0045548D01*
X0042743Y0045742D01*
X0042603Y0045939D01*
X0042468Y0046140D01*
X0042338Y0046344D01*
X0042213Y0046550D01*
X0042093Y0046760D01*
X0041978Y0046973D01*
X0041869Y0047188D01*
X0041764Y0047406D01*
X0041665Y0047626D01*
X0041571Y0047849D01*
X0041483Y0048074D01*
X0041400Y0048301D01*
X0041322Y0048530D01*
X0041251Y0048761D01*
X0041184Y0048993D01*
X0041124Y0049227D01*
X0041069Y0049462D01*
X0041019Y0049699D01*
X0040976Y0049936D01*
X0040938Y0050175D01*
X0040906Y0050415D01*
X0040880Y0050655D01*
X0040859Y0050896D01*
X0040845Y0051137D01*
X0040836Y0051378D01*
X0040833Y0051620D01*
X0047723Y0055399D02*
X0047725Y0055568D01*
X0047731Y0055737D01*
X0047742Y0055906D01*
X0047756Y0056074D01*
X0047775Y0056242D01*
X0047798Y0056410D01*
X0047824Y0056577D01*
X0047855Y0056743D01*
X0047890Y0056909D01*
X0047929Y0057073D01*
X0047973Y0057237D01*
X0048020Y0057399D01*
X0048071Y0057560D01*
X0048126Y0057720D01*
X0048185Y0057879D01*
X0048247Y0058036D01*
X0048314Y0058191D01*
X0048385Y0058345D01*
X0048459Y0058497D01*
X0048537Y0058647D01*
X0048618Y0058795D01*
X0048703Y0058941D01*
X0048792Y0059085D01*
X0048884Y0059227D01*
X0048980Y0059366D01*
X0049079Y0059503D01*
X0049181Y0059638D01*
X0049287Y0059770D01*
X0049396Y0059899D01*
X0049508Y0060026D01*
X0049623Y0060150D01*
X0049741Y0060271D01*
X0049862Y0060389D01*
X0049986Y0060504D01*
X0050113Y0060616D01*
X0050242Y0060725D01*
X0050374Y0060831D01*
X0050509Y0060933D01*
X0050646Y0061032D01*
X0050785Y0061128D01*
X0050927Y0061220D01*
X0051071Y0061309D01*
X0051217Y0061394D01*
X0051365Y0061475D01*
X0051515Y0061553D01*
X0051667Y0061627D01*
X0051821Y0061698D01*
X0051976Y0061765D01*
X0052133Y0061827D01*
X0052292Y0061886D01*
X0052452Y0061941D01*
X0052613Y0061992D01*
X0052775Y0062039D01*
X0052939Y0062083D01*
X0053103Y0062122D01*
X0053269Y0062157D01*
X0053435Y0062188D01*
X0053602Y0062214D01*
X0053770Y0062237D01*
X0053938Y0062256D01*
X0054106Y0062270D01*
X0054275Y0062281D01*
X0054444Y0062287D01*
X0054613Y0062289D01*
X0054782Y0062287D01*
X0054951Y0062281D01*
X0055120Y0062270D01*
X0055288Y0062256D01*
X0055456Y0062237D01*
X0055624Y0062214D01*
X0055791Y0062188D01*
X0055957Y0062157D01*
X0056123Y0062122D01*
X0056287Y0062083D01*
X0056451Y0062039D01*
X0056613Y0061992D01*
X0056774Y0061941D01*
X0056934Y0061886D01*
X0057093Y0061827D01*
X0057250Y0061765D01*
X0057405Y0061698D01*
X0057559Y0061627D01*
X0057711Y0061553D01*
X0057861Y0061475D01*
X0058009Y0061394D01*
X0058155Y0061309D01*
X0058299Y0061220D01*
X0058441Y0061128D01*
X0058580Y0061032D01*
X0058717Y0060933D01*
X0058852Y0060831D01*
X0058984Y0060725D01*
X0059113Y0060616D01*
X0059240Y0060504D01*
X0059364Y0060389D01*
X0059485Y0060271D01*
X0059603Y0060150D01*
X0059718Y0060026D01*
X0059830Y0059899D01*
X0059939Y0059770D01*
X0060045Y0059638D01*
X0060147Y0059503D01*
X0060246Y0059366D01*
X0060342Y0059227D01*
X0060434Y0059085D01*
X0060523Y0058941D01*
X0060608Y0058795D01*
X0060689Y0058647D01*
X0060767Y0058497D01*
X0060841Y0058345D01*
X0060912Y0058191D01*
X0060979Y0058036D01*
X0061041Y0057879D01*
X0061100Y0057720D01*
X0061155Y0057560D01*
X0061206Y0057399D01*
X0061253Y0057237D01*
X0061297Y0057073D01*
X0061336Y0056909D01*
X0061371Y0056743D01*
X0061402Y0056577D01*
X0061428Y0056410D01*
X0061451Y0056242D01*
X0061470Y0056074D01*
X0061484Y0055906D01*
X0061495Y0055737D01*
X0061501Y0055568D01*
X0061503Y0055399D01*
X0061501Y0055230D01*
X0061495Y0055061D01*
X0061484Y0054892D01*
X0061470Y0054724D01*
X0061451Y0054556D01*
X0061428Y0054388D01*
X0061402Y0054221D01*
X0061371Y0054055D01*
X0061336Y0053889D01*
X0061297Y0053725D01*
X0061253Y0053561D01*
X0061206Y0053399D01*
X0061155Y0053238D01*
X0061100Y0053078D01*
X0061041Y0052919D01*
X0060979Y0052762D01*
X0060912Y0052607D01*
X0060841Y0052453D01*
X0060767Y0052301D01*
X0060689Y0052151D01*
X0060608Y0052003D01*
X0060523Y0051857D01*
X0060434Y0051713D01*
X0060342Y0051571D01*
X0060246Y0051432D01*
X0060147Y0051295D01*
X0060045Y0051160D01*
X0059939Y0051028D01*
X0059830Y0050899D01*
X0059718Y0050772D01*
X0059603Y0050648D01*
X0059485Y0050527D01*
X0059364Y0050409D01*
X0059240Y0050294D01*
X0059113Y0050182D01*
X0058984Y0050073D01*
X0058852Y0049967D01*
X0058717Y0049865D01*
X0058580Y0049766D01*
X0058441Y0049670D01*
X0058299Y0049578D01*
X0058155Y0049489D01*
X0058009Y0049404D01*
X0057861Y0049323D01*
X0057711Y0049245D01*
X0057559Y0049171D01*
X0057405Y0049100D01*
X0057250Y0049033D01*
X0057093Y0048971D01*
X0056934Y0048912D01*
X0056774Y0048857D01*
X0056613Y0048806D01*
X0056451Y0048759D01*
X0056287Y0048715D01*
X0056123Y0048676D01*
X0055957Y0048641D01*
X0055791Y0048610D01*
X0055624Y0048584D01*
X0055456Y0048561D01*
X0055288Y0048542D01*
X0055120Y0048528D01*
X0054951Y0048517D01*
X0054782Y0048511D01*
X0054613Y0048509D01*
X0054444Y0048511D01*
X0054275Y0048517D01*
X0054106Y0048528D01*
X0053938Y0048542D01*
X0053770Y0048561D01*
X0053602Y0048584D01*
X0053435Y0048610D01*
X0053269Y0048641D01*
X0053103Y0048676D01*
X0052939Y0048715D01*
X0052775Y0048759D01*
X0052613Y0048806D01*
X0052452Y0048857D01*
X0052292Y0048912D01*
X0052133Y0048971D01*
X0051976Y0049033D01*
X0051821Y0049100D01*
X0051667Y0049171D01*
X0051515Y0049245D01*
X0051365Y0049323D01*
X0051217Y0049404D01*
X0051071Y0049489D01*
X0050927Y0049578D01*
X0050785Y0049670D01*
X0050646Y0049766D01*
X0050509Y0049865D01*
X0050374Y0049967D01*
X0050242Y0050073D01*
X0050113Y0050182D01*
X0049986Y0050294D01*
X0049862Y0050409D01*
X0049741Y0050527D01*
X0049623Y0050648D01*
X0049508Y0050772D01*
X0049396Y0050899D01*
X0049287Y0051028D01*
X0049181Y0051160D01*
X0049079Y0051295D01*
X0048980Y0051432D01*
X0048884Y0051571D01*
X0048792Y0051713D01*
X0048703Y0051857D01*
X0048618Y0052003D01*
X0048537Y0052151D01*
X0048459Y0052301D01*
X0048385Y0052453D01*
X0048314Y0052607D01*
X0048247Y0052762D01*
X0048185Y0052919D01*
X0048126Y0053078D01*
X0048071Y0053238D01*
X0048020Y0053399D01*
X0047973Y0053561D01*
X0047929Y0053725D01*
X0047890Y0053889D01*
X0047855Y0054055D01*
X0047824Y0054221D01*
X0047798Y0054388D01*
X0047775Y0054556D01*
X0047756Y0054724D01*
X0047742Y0054892D01*
X0047731Y0055061D01*
X0047725Y0055230D01*
X0047723Y0055399D01*
X0047723Y0579022D02*
X0047725Y0579191D01*
X0047731Y0579360D01*
X0047742Y0579529D01*
X0047756Y0579697D01*
X0047775Y0579865D01*
X0047798Y0580033D01*
X0047824Y0580200D01*
X0047855Y0580366D01*
X0047890Y0580532D01*
X0047929Y0580696D01*
X0047973Y0580860D01*
X0048020Y0581022D01*
X0048071Y0581183D01*
X0048126Y0581343D01*
X0048185Y0581502D01*
X0048247Y0581659D01*
X0048314Y0581814D01*
X0048385Y0581968D01*
X0048459Y0582120D01*
X0048537Y0582270D01*
X0048618Y0582418D01*
X0048703Y0582564D01*
X0048792Y0582708D01*
X0048884Y0582850D01*
X0048980Y0582989D01*
X0049079Y0583126D01*
X0049181Y0583261D01*
X0049287Y0583393D01*
X0049396Y0583522D01*
X0049508Y0583649D01*
X0049623Y0583773D01*
X0049741Y0583894D01*
X0049862Y0584012D01*
X0049986Y0584127D01*
X0050113Y0584239D01*
X0050242Y0584348D01*
X0050374Y0584454D01*
X0050509Y0584556D01*
X0050646Y0584655D01*
X0050785Y0584751D01*
X0050927Y0584843D01*
X0051071Y0584932D01*
X0051217Y0585017D01*
X0051365Y0585098D01*
X0051515Y0585176D01*
X0051667Y0585250D01*
X0051821Y0585321D01*
X0051976Y0585388D01*
X0052133Y0585450D01*
X0052292Y0585509D01*
X0052452Y0585564D01*
X0052613Y0585615D01*
X0052775Y0585662D01*
X0052939Y0585706D01*
X0053103Y0585745D01*
X0053269Y0585780D01*
X0053435Y0585811D01*
X0053602Y0585837D01*
X0053770Y0585860D01*
X0053938Y0585879D01*
X0054106Y0585893D01*
X0054275Y0585904D01*
X0054444Y0585910D01*
X0054613Y0585912D01*
X0054782Y0585910D01*
X0054951Y0585904D01*
X0055120Y0585893D01*
X0055288Y0585879D01*
X0055456Y0585860D01*
X0055624Y0585837D01*
X0055791Y0585811D01*
X0055957Y0585780D01*
X0056123Y0585745D01*
X0056287Y0585706D01*
X0056451Y0585662D01*
X0056613Y0585615D01*
X0056774Y0585564D01*
X0056934Y0585509D01*
X0057093Y0585450D01*
X0057250Y0585388D01*
X0057405Y0585321D01*
X0057559Y0585250D01*
X0057711Y0585176D01*
X0057861Y0585098D01*
X0058009Y0585017D01*
X0058155Y0584932D01*
X0058299Y0584843D01*
X0058441Y0584751D01*
X0058580Y0584655D01*
X0058717Y0584556D01*
X0058852Y0584454D01*
X0058984Y0584348D01*
X0059113Y0584239D01*
X0059240Y0584127D01*
X0059364Y0584012D01*
X0059485Y0583894D01*
X0059603Y0583773D01*
X0059718Y0583649D01*
X0059830Y0583522D01*
X0059939Y0583393D01*
X0060045Y0583261D01*
X0060147Y0583126D01*
X0060246Y0582989D01*
X0060342Y0582850D01*
X0060434Y0582708D01*
X0060523Y0582564D01*
X0060608Y0582418D01*
X0060689Y0582270D01*
X0060767Y0582120D01*
X0060841Y0581968D01*
X0060912Y0581814D01*
X0060979Y0581659D01*
X0061041Y0581502D01*
X0061100Y0581343D01*
X0061155Y0581183D01*
X0061206Y0581022D01*
X0061253Y0580860D01*
X0061297Y0580696D01*
X0061336Y0580532D01*
X0061371Y0580366D01*
X0061402Y0580200D01*
X0061428Y0580033D01*
X0061451Y0579865D01*
X0061470Y0579697D01*
X0061484Y0579529D01*
X0061495Y0579360D01*
X0061501Y0579191D01*
X0061503Y0579022D01*
X0061501Y0578853D01*
X0061495Y0578684D01*
X0061484Y0578515D01*
X0061470Y0578347D01*
X0061451Y0578179D01*
X0061428Y0578011D01*
X0061402Y0577844D01*
X0061371Y0577678D01*
X0061336Y0577512D01*
X0061297Y0577348D01*
X0061253Y0577184D01*
X0061206Y0577022D01*
X0061155Y0576861D01*
X0061100Y0576701D01*
X0061041Y0576542D01*
X0060979Y0576385D01*
X0060912Y0576230D01*
X0060841Y0576076D01*
X0060767Y0575924D01*
X0060689Y0575774D01*
X0060608Y0575626D01*
X0060523Y0575480D01*
X0060434Y0575336D01*
X0060342Y0575194D01*
X0060246Y0575055D01*
X0060147Y0574918D01*
X0060045Y0574783D01*
X0059939Y0574651D01*
X0059830Y0574522D01*
X0059718Y0574395D01*
X0059603Y0574271D01*
X0059485Y0574150D01*
X0059364Y0574032D01*
X0059240Y0573917D01*
X0059113Y0573805D01*
X0058984Y0573696D01*
X0058852Y0573590D01*
X0058717Y0573488D01*
X0058580Y0573389D01*
X0058441Y0573293D01*
X0058299Y0573201D01*
X0058155Y0573112D01*
X0058009Y0573027D01*
X0057861Y0572946D01*
X0057711Y0572868D01*
X0057559Y0572794D01*
X0057405Y0572723D01*
X0057250Y0572656D01*
X0057093Y0572594D01*
X0056934Y0572535D01*
X0056774Y0572480D01*
X0056613Y0572429D01*
X0056451Y0572382D01*
X0056287Y0572338D01*
X0056123Y0572299D01*
X0055957Y0572264D01*
X0055791Y0572233D01*
X0055624Y0572207D01*
X0055456Y0572184D01*
X0055288Y0572165D01*
X0055120Y0572151D01*
X0054951Y0572140D01*
X0054782Y0572134D01*
X0054613Y0572132D01*
X0054444Y0572134D01*
X0054275Y0572140D01*
X0054106Y0572151D01*
X0053938Y0572165D01*
X0053770Y0572184D01*
X0053602Y0572207D01*
X0053435Y0572233D01*
X0053269Y0572264D01*
X0053103Y0572299D01*
X0052939Y0572338D01*
X0052775Y0572382D01*
X0052613Y0572429D01*
X0052452Y0572480D01*
X0052292Y0572535D01*
X0052133Y0572594D01*
X0051976Y0572656D01*
X0051821Y0572723D01*
X0051667Y0572794D01*
X0051515Y0572868D01*
X0051365Y0572946D01*
X0051217Y0573027D01*
X0051071Y0573112D01*
X0050927Y0573201D01*
X0050785Y0573293D01*
X0050646Y0573389D01*
X0050509Y0573488D01*
X0050374Y0573590D01*
X0050242Y0573696D01*
X0050113Y0573805D01*
X0049986Y0573917D01*
X0049862Y0574032D01*
X0049741Y0574150D01*
X0049623Y0574271D01*
X0049508Y0574395D01*
X0049396Y0574522D01*
X0049287Y0574651D01*
X0049181Y0574783D01*
X0049079Y0574918D01*
X0048980Y0575055D01*
X0048884Y0575194D01*
X0048792Y0575336D01*
X0048703Y0575480D01*
X0048618Y0575626D01*
X0048537Y0575774D01*
X0048459Y0575924D01*
X0048385Y0576076D01*
X0048314Y0576230D01*
X0048247Y0576385D01*
X0048185Y0576542D01*
X0048126Y0576701D01*
X0048071Y0576861D01*
X0048020Y0577022D01*
X0047973Y0577184D01*
X0047929Y0577348D01*
X0047890Y0577512D01*
X0047855Y0577678D01*
X0047824Y0577844D01*
X0047798Y0578011D01*
X0047775Y0578179D01*
X0047756Y0578347D01*
X0047742Y0578515D01*
X0047731Y0578684D01*
X0047725Y0578853D01*
X0047723Y0579022D01*
X0095557Y0577132D02*
X0095559Y0577285D01*
X0095565Y0577439D01*
X0095575Y0577592D01*
X0095589Y0577744D01*
X0095607Y0577897D01*
X0095629Y0578048D01*
X0095654Y0578199D01*
X0095684Y0578350D01*
X0095718Y0578500D01*
X0095755Y0578648D01*
X0095796Y0578796D01*
X0095841Y0578942D01*
X0095890Y0579088D01*
X0095943Y0579232D01*
X0095999Y0579374D01*
X0096059Y0579515D01*
X0096123Y0579655D01*
X0096190Y0579793D01*
X0096261Y0579929D01*
X0096336Y0580063D01*
X0096413Y0580195D01*
X0096495Y0580325D01*
X0096579Y0580453D01*
X0096667Y0580579D01*
X0096758Y0580702D01*
X0096852Y0580823D01*
X0096950Y0580941D01*
X0097050Y0581057D01*
X0097154Y0581170D01*
X0097260Y0581281D01*
X0097369Y0581389D01*
X0097481Y0581494D01*
X0097595Y0581595D01*
X0097713Y0581694D01*
X0097832Y0581790D01*
X0097954Y0581883D01*
X0098079Y0581972D01*
X0098206Y0582059D01*
X0098335Y0582141D01*
X0098466Y0582221D01*
X0098599Y0582297D01*
X0098734Y0582370D01*
X0098871Y0582439D01*
X0099010Y0582504D01*
X0099150Y0582566D01*
X0099292Y0582624D01*
X0099435Y0582679D01*
X0099580Y0582730D01*
X0099726Y0582777D01*
X0099873Y0582820D01*
X0100021Y0582859D01*
X0100170Y0582895D01*
X0100320Y0582926D01*
X0100471Y0582954D01*
X0100622Y0582978D01*
X0100775Y0582998D01*
X0100927Y0583014D01*
X0101080Y0583026D01*
X0101233Y0583034D01*
X0101386Y0583038D01*
X0101540Y0583038D01*
X0101693Y0583034D01*
X0101846Y0583026D01*
X0101999Y0583014D01*
X0102151Y0582998D01*
X0102304Y0582978D01*
X0102455Y0582954D01*
X0102606Y0582926D01*
X0102756Y0582895D01*
X0102905Y0582859D01*
X0103053Y0582820D01*
X0103200Y0582777D01*
X0103346Y0582730D01*
X0103491Y0582679D01*
X0103634Y0582624D01*
X0103776Y0582566D01*
X0103916Y0582504D01*
X0104055Y0582439D01*
X0104192Y0582370D01*
X0104327Y0582297D01*
X0104460Y0582221D01*
X0104591Y0582141D01*
X0104720Y0582059D01*
X0104847Y0581972D01*
X0104972Y0581883D01*
X0105094Y0581790D01*
X0105213Y0581694D01*
X0105331Y0581595D01*
X0105445Y0581494D01*
X0105557Y0581389D01*
X0105666Y0581281D01*
X0105772Y0581170D01*
X0105876Y0581057D01*
X0105976Y0580941D01*
X0106074Y0580823D01*
X0106168Y0580702D01*
X0106259Y0580579D01*
X0106347Y0580453D01*
X0106431Y0580325D01*
X0106513Y0580195D01*
X0106590Y0580063D01*
X0106665Y0579929D01*
X0106736Y0579793D01*
X0106803Y0579655D01*
X0106867Y0579515D01*
X0106927Y0579374D01*
X0106983Y0579232D01*
X0107036Y0579088D01*
X0107085Y0578942D01*
X0107130Y0578796D01*
X0107171Y0578648D01*
X0107208Y0578500D01*
X0107242Y0578350D01*
X0107272Y0578199D01*
X0107297Y0578048D01*
X0107319Y0577897D01*
X0107337Y0577744D01*
X0107351Y0577592D01*
X0107361Y0577439D01*
X0107367Y0577285D01*
X0107369Y0577132D01*
X0107367Y0576979D01*
X0107361Y0576825D01*
X0107351Y0576672D01*
X0107337Y0576520D01*
X0107319Y0576367D01*
X0107297Y0576216D01*
X0107272Y0576065D01*
X0107242Y0575914D01*
X0107208Y0575764D01*
X0107171Y0575616D01*
X0107130Y0575468D01*
X0107085Y0575322D01*
X0107036Y0575176D01*
X0106983Y0575032D01*
X0106927Y0574890D01*
X0106867Y0574749D01*
X0106803Y0574609D01*
X0106736Y0574471D01*
X0106665Y0574335D01*
X0106590Y0574201D01*
X0106513Y0574069D01*
X0106431Y0573939D01*
X0106347Y0573811D01*
X0106259Y0573685D01*
X0106168Y0573562D01*
X0106074Y0573441D01*
X0105976Y0573323D01*
X0105876Y0573207D01*
X0105772Y0573094D01*
X0105666Y0572983D01*
X0105557Y0572875D01*
X0105445Y0572770D01*
X0105331Y0572669D01*
X0105213Y0572570D01*
X0105094Y0572474D01*
X0104972Y0572381D01*
X0104847Y0572292D01*
X0104720Y0572205D01*
X0104591Y0572123D01*
X0104460Y0572043D01*
X0104327Y0571967D01*
X0104192Y0571894D01*
X0104055Y0571825D01*
X0103916Y0571760D01*
X0103776Y0571698D01*
X0103634Y0571640D01*
X0103491Y0571585D01*
X0103346Y0571534D01*
X0103200Y0571487D01*
X0103053Y0571444D01*
X0102905Y0571405D01*
X0102756Y0571369D01*
X0102606Y0571338D01*
X0102455Y0571310D01*
X0102304Y0571286D01*
X0102151Y0571266D01*
X0101999Y0571250D01*
X0101846Y0571238D01*
X0101693Y0571230D01*
X0101540Y0571226D01*
X0101386Y0571226D01*
X0101233Y0571230D01*
X0101080Y0571238D01*
X0100927Y0571250D01*
X0100775Y0571266D01*
X0100622Y0571286D01*
X0100471Y0571310D01*
X0100320Y0571338D01*
X0100170Y0571369D01*
X0100021Y0571405D01*
X0099873Y0571444D01*
X0099726Y0571487D01*
X0099580Y0571534D01*
X0099435Y0571585D01*
X0099292Y0571640D01*
X0099150Y0571698D01*
X0099010Y0571760D01*
X0098871Y0571825D01*
X0098734Y0571894D01*
X0098599Y0571967D01*
X0098466Y0572043D01*
X0098335Y0572123D01*
X0098206Y0572205D01*
X0098079Y0572292D01*
X0097954Y0572381D01*
X0097832Y0572474D01*
X0097713Y0572570D01*
X0097595Y0572669D01*
X0097481Y0572770D01*
X0097369Y0572875D01*
X0097260Y0572983D01*
X0097154Y0573094D01*
X0097050Y0573207D01*
X0096950Y0573323D01*
X0096852Y0573441D01*
X0096758Y0573562D01*
X0096667Y0573685D01*
X0096579Y0573811D01*
X0096495Y0573939D01*
X0096413Y0574069D01*
X0096336Y0574201D01*
X0096261Y0574335D01*
X0096190Y0574471D01*
X0096123Y0574609D01*
X0096059Y0574749D01*
X0095999Y0574890D01*
X0095943Y0575032D01*
X0095890Y0575176D01*
X0095841Y0575322D01*
X0095796Y0575468D01*
X0095755Y0575616D01*
X0095718Y0575764D01*
X0095684Y0575914D01*
X0095654Y0576065D01*
X0095629Y0576216D01*
X0095607Y0576367D01*
X0095589Y0576520D01*
X0095575Y0576672D01*
X0095565Y0576825D01*
X0095559Y0576979D01*
X0095557Y0577132D01*
X0145164Y0577132D02*
X0145166Y0577285D01*
X0145172Y0577439D01*
X0145182Y0577592D01*
X0145196Y0577744D01*
X0145214Y0577897D01*
X0145236Y0578048D01*
X0145261Y0578199D01*
X0145291Y0578350D01*
X0145325Y0578500D01*
X0145362Y0578648D01*
X0145403Y0578796D01*
X0145448Y0578942D01*
X0145497Y0579088D01*
X0145550Y0579232D01*
X0145606Y0579374D01*
X0145666Y0579515D01*
X0145730Y0579655D01*
X0145797Y0579793D01*
X0145868Y0579929D01*
X0145943Y0580063D01*
X0146020Y0580195D01*
X0146102Y0580325D01*
X0146186Y0580453D01*
X0146274Y0580579D01*
X0146365Y0580702D01*
X0146459Y0580823D01*
X0146557Y0580941D01*
X0146657Y0581057D01*
X0146761Y0581170D01*
X0146867Y0581281D01*
X0146976Y0581389D01*
X0147088Y0581494D01*
X0147202Y0581595D01*
X0147320Y0581694D01*
X0147439Y0581790D01*
X0147561Y0581883D01*
X0147686Y0581972D01*
X0147813Y0582059D01*
X0147942Y0582141D01*
X0148073Y0582221D01*
X0148206Y0582297D01*
X0148341Y0582370D01*
X0148478Y0582439D01*
X0148617Y0582504D01*
X0148757Y0582566D01*
X0148899Y0582624D01*
X0149042Y0582679D01*
X0149187Y0582730D01*
X0149333Y0582777D01*
X0149480Y0582820D01*
X0149628Y0582859D01*
X0149777Y0582895D01*
X0149927Y0582926D01*
X0150078Y0582954D01*
X0150229Y0582978D01*
X0150382Y0582998D01*
X0150534Y0583014D01*
X0150687Y0583026D01*
X0150840Y0583034D01*
X0150993Y0583038D01*
X0151147Y0583038D01*
X0151300Y0583034D01*
X0151453Y0583026D01*
X0151606Y0583014D01*
X0151758Y0582998D01*
X0151911Y0582978D01*
X0152062Y0582954D01*
X0152213Y0582926D01*
X0152363Y0582895D01*
X0152512Y0582859D01*
X0152660Y0582820D01*
X0152807Y0582777D01*
X0152953Y0582730D01*
X0153098Y0582679D01*
X0153241Y0582624D01*
X0153383Y0582566D01*
X0153523Y0582504D01*
X0153662Y0582439D01*
X0153799Y0582370D01*
X0153934Y0582297D01*
X0154067Y0582221D01*
X0154198Y0582141D01*
X0154327Y0582059D01*
X0154454Y0581972D01*
X0154579Y0581883D01*
X0154701Y0581790D01*
X0154820Y0581694D01*
X0154938Y0581595D01*
X0155052Y0581494D01*
X0155164Y0581389D01*
X0155273Y0581281D01*
X0155379Y0581170D01*
X0155483Y0581057D01*
X0155583Y0580941D01*
X0155681Y0580823D01*
X0155775Y0580702D01*
X0155866Y0580579D01*
X0155954Y0580453D01*
X0156038Y0580325D01*
X0156120Y0580195D01*
X0156197Y0580063D01*
X0156272Y0579929D01*
X0156343Y0579793D01*
X0156410Y0579655D01*
X0156474Y0579515D01*
X0156534Y0579374D01*
X0156590Y0579232D01*
X0156643Y0579088D01*
X0156692Y0578942D01*
X0156737Y0578796D01*
X0156778Y0578648D01*
X0156815Y0578500D01*
X0156849Y0578350D01*
X0156879Y0578199D01*
X0156904Y0578048D01*
X0156926Y0577897D01*
X0156944Y0577744D01*
X0156958Y0577592D01*
X0156968Y0577439D01*
X0156974Y0577285D01*
X0156976Y0577132D01*
X0156974Y0576979D01*
X0156968Y0576825D01*
X0156958Y0576672D01*
X0156944Y0576520D01*
X0156926Y0576367D01*
X0156904Y0576216D01*
X0156879Y0576065D01*
X0156849Y0575914D01*
X0156815Y0575764D01*
X0156778Y0575616D01*
X0156737Y0575468D01*
X0156692Y0575322D01*
X0156643Y0575176D01*
X0156590Y0575032D01*
X0156534Y0574890D01*
X0156474Y0574749D01*
X0156410Y0574609D01*
X0156343Y0574471D01*
X0156272Y0574335D01*
X0156197Y0574201D01*
X0156120Y0574069D01*
X0156038Y0573939D01*
X0155954Y0573811D01*
X0155866Y0573685D01*
X0155775Y0573562D01*
X0155681Y0573441D01*
X0155583Y0573323D01*
X0155483Y0573207D01*
X0155379Y0573094D01*
X0155273Y0572983D01*
X0155164Y0572875D01*
X0155052Y0572770D01*
X0154938Y0572669D01*
X0154820Y0572570D01*
X0154701Y0572474D01*
X0154579Y0572381D01*
X0154454Y0572292D01*
X0154327Y0572205D01*
X0154198Y0572123D01*
X0154067Y0572043D01*
X0153934Y0571967D01*
X0153799Y0571894D01*
X0153662Y0571825D01*
X0153523Y0571760D01*
X0153383Y0571698D01*
X0153241Y0571640D01*
X0153098Y0571585D01*
X0152953Y0571534D01*
X0152807Y0571487D01*
X0152660Y0571444D01*
X0152512Y0571405D01*
X0152363Y0571369D01*
X0152213Y0571338D01*
X0152062Y0571310D01*
X0151911Y0571286D01*
X0151758Y0571266D01*
X0151606Y0571250D01*
X0151453Y0571238D01*
X0151300Y0571230D01*
X0151147Y0571226D01*
X0150993Y0571226D01*
X0150840Y0571230D01*
X0150687Y0571238D01*
X0150534Y0571250D01*
X0150382Y0571266D01*
X0150229Y0571286D01*
X0150078Y0571310D01*
X0149927Y0571338D01*
X0149777Y0571369D01*
X0149628Y0571405D01*
X0149480Y0571444D01*
X0149333Y0571487D01*
X0149187Y0571534D01*
X0149042Y0571585D01*
X0148899Y0571640D01*
X0148757Y0571698D01*
X0148617Y0571760D01*
X0148478Y0571825D01*
X0148341Y0571894D01*
X0148206Y0571967D01*
X0148073Y0572043D01*
X0147942Y0572123D01*
X0147813Y0572205D01*
X0147686Y0572292D01*
X0147561Y0572381D01*
X0147439Y0572474D01*
X0147320Y0572570D01*
X0147202Y0572669D01*
X0147088Y0572770D01*
X0146976Y0572875D01*
X0146867Y0572983D01*
X0146761Y0573094D01*
X0146657Y0573207D01*
X0146557Y0573323D01*
X0146459Y0573441D01*
X0146365Y0573562D01*
X0146274Y0573685D01*
X0146186Y0573811D01*
X0146102Y0573939D01*
X0146020Y0574069D01*
X0145943Y0574201D01*
X0145868Y0574335D01*
X0145797Y0574471D01*
X0145730Y0574609D01*
X0145666Y0574749D01*
X0145606Y0574890D01*
X0145550Y0575032D01*
X0145497Y0575176D01*
X0145448Y0575322D01*
X0145403Y0575468D01*
X0145362Y0575616D01*
X0145325Y0575764D01*
X0145291Y0575914D01*
X0145261Y0576065D01*
X0145236Y0576216D01*
X0145214Y0576367D01*
X0145196Y0576520D01*
X0145182Y0576672D01*
X0145172Y0576825D01*
X0145166Y0576979D01*
X0145164Y0577132D01*
X0174297Y0577132D02*
X0174299Y0577285D01*
X0174305Y0577439D01*
X0174315Y0577592D01*
X0174329Y0577744D01*
X0174347Y0577897D01*
X0174369Y0578048D01*
X0174394Y0578199D01*
X0174424Y0578350D01*
X0174458Y0578500D01*
X0174495Y0578648D01*
X0174536Y0578796D01*
X0174581Y0578942D01*
X0174630Y0579088D01*
X0174683Y0579232D01*
X0174739Y0579374D01*
X0174799Y0579515D01*
X0174863Y0579655D01*
X0174930Y0579793D01*
X0175001Y0579929D01*
X0175076Y0580063D01*
X0175153Y0580195D01*
X0175235Y0580325D01*
X0175319Y0580453D01*
X0175407Y0580579D01*
X0175498Y0580702D01*
X0175592Y0580823D01*
X0175690Y0580941D01*
X0175790Y0581057D01*
X0175894Y0581170D01*
X0176000Y0581281D01*
X0176109Y0581389D01*
X0176221Y0581494D01*
X0176335Y0581595D01*
X0176453Y0581694D01*
X0176572Y0581790D01*
X0176694Y0581883D01*
X0176819Y0581972D01*
X0176946Y0582059D01*
X0177075Y0582141D01*
X0177206Y0582221D01*
X0177339Y0582297D01*
X0177474Y0582370D01*
X0177611Y0582439D01*
X0177750Y0582504D01*
X0177890Y0582566D01*
X0178032Y0582624D01*
X0178175Y0582679D01*
X0178320Y0582730D01*
X0178466Y0582777D01*
X0178613Y0582820D01*
X0178761Y0582859D01*
X0178910Y0582895D01*
X0179060Y0582926D01*
X0179211Y0582954D01*
X0179362Y0582978D01*
X0179515Y0582998D01*
X0179667Y0583014D01*
X0179820Y0583026D01*
X0179973Y0583034D01*
X0180126Y0583038D01*
X0180280Y0583038D01*
X0180433Y0583034D01*
X0180586Y0583026D01*
X0180739Y0583014D01*
X0180891Y0582998D01*
X0181044Y0582978D01*
X0181195Y0582954D01*
X0181346Y0582926D01*
X0181496Y0582895D01*
X0181645Y0582859D01*
X0181793Y0582820D01*
X0181940Y0582777D01*
X0182086Y0582730D01*
X0182231Y0582679D01*
X0182374Y0582624D01*
X0182516Y0582566D01*
X0182656Y0582504D01*
X0182795Y0582439D01*
X0182932Y0582370D01*
X0183067Y0582297D01*
X0183200Y0582221D01*
X0183331Y0582141D01*
X0183460Y0582059D01*
X0183587Y0581972D01*
X0183712Y0581883D01*
X0183834Y0581790D01*
X0183953Y0581694D01*
X0184071Y0581595D01*
X0184185Y0581494D01*
X0184297Y0581389D01*
X0184406Y0581281D01*
X0184512Y0581170D01*
X0184616Y0581057D01*
X0184716Y0580941D01*
X0184814Y0580823D01*
X0184908Y0580702D01*
X0184999Y0580579D01*
X0185087Y0580453D01*
X0185171Y0580325D01*
X0185253Y0580195D01*
X0185330Y0580063D01*
X0185405Y0579929D01*
X0185476Y0579793D01*
X0185543Y0579655D01*
X0185607Y0579515D01*
X0185667Y0579374D01*
X0185723Y0579232D01*
X0185776Y0579088D01*
X0185825Y0578942D01*
X0185870Y0578796D01*
X0185911Y0578648D01*
X0185948Y0578500D01*
X0185982Y0578350D01*
X0186012Y0578199D01*
X0186037Y0578048D01*
X0186059Y0577897D01*
X0186077Y0577744D01*
X0186091Y0577592D01*
X0186101Y0577439D01*
X0186107Y0577285D01*
X0186109Y0577132D01*
X0186107Y0576979D01*
X0186101Y0576825D01*
X0186091Y0576672D01*
X0186077Y0576520D01*
X0186059Y0576367D01*
X0186037Y0576216D01*
X0186012Y0576065D01*
X0185982Y0575914D01*
X0185948Y0575764D01*
X0185911Y0575616D01*
X0185870Y0575468D01*
X0185825Y0575322D01*
X0185776Y0575176D01*
X0185723Y0575032D01*
X0185667Y0574890D01*
X0185607Y0574749D01*
X0185543Y0574609D01*
X0185476Y0574471D01*
X0185405Y0574335D01*
X0185330Y0574201D01*
X0185253Y0574069D01*
X0185171Y0573939D01*
X0185087Y0573811D01*
X0184999Y0573685D01*
X0184908Y0573562D01*
X0184814Y0573441D01*
X0184716Y0573323D01*
X0184616Y0573207D01*
X0184512Y0573094D01*
X0184406Y0572983D01*
X0184297Y0572875D01*
X0184185Y0572770D01*
X0184071Y0572669D01*
X0183953Y0572570D01*
X0183834Y0572474D01*
X0183712Y0572381D01*
X0183587Y0572292D01*
X0183460Y0572205D01*
X0183331Y0572123D01*
X0183200Y0572043D01*
X0183067Y0571967D01*
X0182932Y0571894D01*
X0182795Y0571825D01*
X0182656Y0571760D01*
X0182516Y0571698D01*
X0182374Y0571640D01*
X0182231Y0571585D01*
X0182086Y0571534D01*
X0181940Y0571487D01*
X0181793Y0571444D01*
X0181645Y0571405D01*
X0181496Y0571369D01*
X0181346Y0571338D01*
X0181195Y0571310D01*
X0181044Y0571286D01*
X0180891Y0571266D01*
X0180739Y0571250D01*
X0180586Y0571238D01*
X0180433Y0571230D01*
X0180280Y0571226D01*
X0180126Y0571226D01*
X0179973Y0571230D01*
X0179820Y0571238D01*
X0179667Y0571250D01*
X0179515Y0571266D01*
X0179362Y0571286D01*
X0179211Y0571310D01*
X0179060Y0571338D01*
X0178910Y0571369D01*
X0178761Y0571405D01*
X0178613Y0571444D01*
X0178466Y0571487D01*
X0178320Y0571534D01*
X0178175Y0571585D01*
X0178032Y0571640D01*
X0177890Y0571698D01*
X0177750Y0571760D01*
X0177611Y0571825D01*
X0177474Y0571894D01*
X0177339Y0571967D01*
X0177206Y0572043D01*
X0177075Y0572123D01*
X0176946Y0572205D01*
X0176819Y0572292D01*
X0176694Y0572381D01*
X0176572Y0572474D01*
X0176453Y0572570D01*
X0176335Y0572669D01*
X0176221Y0572770D01*
X0176109Y0572875D01*
X0176000Y0572983D01*
X0175894Y0573094D01*
X0175790Y0573207D01*
X0175690Y0573323D01*
X0175592Y0573441D01*
X0175498Y0573562D01*
X0175407Y0573685D01*
X0175319Y0573811D01*
X0175235Y0573939D01*
X0175153Y0574069D01*
X0175076Y0574201D01*
X0175001Y0574335D01*
X0174930Y0574471D01*
X0174863Y0574609D01*
X0174799Y0574749D01*
X0174739Y0574890D01*
X0174683Y0575032D01*
X0174630Y0575176D01*
X0174581Y0575322D01*
X0174536Y0575468D01*
X0174495Y0575616D01*
X0174458Y0575764D01*
X0174424Y0575914D01*
X0174394Y0576065D01*
X0174369Y0576216D01*
X0174347Y0576367D01*
X0174329Y0576520D01*
X0174315Y0576672D01*
X0174305Y0576825D01*
X0174299Y0576979D01*
X0174297Y0577132D01*
X0223904Y0577132D02*
X0223906Y0577285D01*
X0223912Y0577439D01*
X0223922Y0577592D01*
X0223936Y0577744D01*
X0223954Y0577897D01*
X0223976Y0578048D01*
X0224001Y0578199D01*
X0224031Y0578350D01*
X0224065Y0578500D01*
X0224102Y0578648D01*
X0224143Y0578796D01*
X0224188Y0578942D01*
X0224237Y0579088D01*
X0224290Y0579232D01*
X0224346Y0579374D01*
X0224406Y0579515D01*
X0224470Y0579655D01*
X0224537Y0579793D01*
X0224608Y0579929D01*
X0224683Y0580063D01*
X0224760Y0580195D01*
X0224842Y0580325D01*
X0224926Y0580453D01*
X0225014Y0580579D01*
X0225105Y0580702D01*
X0225199Y0580823D01*
X0225297Y0580941D01*
X0225397Y0581057D01*
X0225501Y0581170D01*
X0225607Y0581281D01*
X0225716Y0581389D01*
X0225828Y0581494D01*
X0225942Y0581595D01*
X0226060Y0581694D01*
X0226179Y0581790D01*
X0226301Y0581883D01*
X0226426Y0581972D01*
X0226553Y0582059D01*
X0226682Y0582141D01*
X0226813Y0582221D01*
X0226946Y0582297D01*
X0227081Y0582370D01*
X0227218Y0582439D01*
X0227357Y0582504D01*
X0227497Y0582566D01*
X0227639Y0582624D01*
X0227782Y0582679D01*
X0227927Y0582730D01*
X0228073Y0582777D01*
X0228220Y0582820D01*
X0228368Y0582859D01*
X0228517Y0582895D01*
X0228667Y0582926D01*
X0228818Y0582954D01*
X0228969Y0582978D01*
X0229122Y0582998D01*
X0229274Y0583014D01*
X0229427Y0583026D01*
X0229580Y0583034D01*
X0229733Y0583038D01*
X0229887Y0583038D01*
X0230040Y0583034D01*
X0230193Y0583026D01*
X0230346Y0583014D01*
X0230498Y0582998D01*
X0230651Y0582978D01*
X0230802Y0582954D01*
X0230953Y0582926D01*
X0231103Y0582895D01*
X0231252Y0582859D01*
X0231400Y0582820D01*
X0231547Y0582777D01*
X0231693Y0582730D01*
X0231838Y0582679D01*
X0231981Y0582624D01*
X0232123Y0582566D01*
X0232263Y0582504D01*
X0232402Y0582439D01*
X0232539Y0582370D01*
X0232674Y0582297D01*
X0232807Y0582221D01*
X0232938Y0582141D01*
X0233067Y0582059D01*
X0233194Y0581972D01*
X0233319Y0581883D01*
X0233441Y0581790D01*
X0233560Y0581694D01*
X0233678Y0581595D01*
X0233792Y0581494D01*
X0233904Y0581389D01*
X0234013Y0581281D01*
X0234119Y0581170D01*
X0234223Y0581057D01*
X0234323Y0580941D01*
X0234421Y0580823D01*
X0234515Y0580702D01*
X0234606Y0580579D01*
X0234694Y0580453D01*
X0234778Y0580325D01*
X0234860Y0580195D01*
X0234937Y0580063D01*
X0235012Y0579929D01*
X0235083Y0579793D01*
X0235150Y0579655D01*
X0235214Y0579515D01*
X0235274Y0579374D01*
X0235330Y0579232D01*
X0235383Y0579088D01*
X0235432Y0578942D01*
X0235477Y0578796D01*
X0235518Y0578648D01*
X0235555Y0578500D01*
X0235589Y0578350D01*
X0235619Y0578199D01*
X0235644Y0578048D01*
X0235666Y0577897D01*
X0235684Y0577744D01*
X0235698Y0577592D01*
X0235708Y0577439D01*
X0235714Y0577285D01*
X0235716Y0577132D01*
X0235714Y0576979D01*
X0235708Y0576825D01*
X0235698Y0576672D01*
X0235684Y0576520D01*
X0235666Y0576367D01*
X0235644Y0576216D01*
X0235619Y0576065D01*
X0235589Y0575914D01*
X0235555Y0575764D01*
X0235518Y0575616D01*
X0235477Y0575468D01*
X0235432Y0575322D01*
X0235383Y0575176D01*
X0235330Y0575032D01*
X0235274Y0574890D01*
X0235214Y0574749D01*
X0235150Y0574609D01*
X0235083Y0574471D01*
X0235012Y0574335D01*
X0234937Y0574201D01*
X0234860Y0574069D01*
X0234778Y0573939D01*
X0234694Y0573811D01*
X0234606Y0573685D01*
X0234515Y0573562D01*
X0234421Y0573441D01*
X0234323Y0573323D01*
X0234223Y0573207D01*
X0234119Y0573094D01*
X0234013Y0572983D01*
X0233904Y0572875D01*
X0233792Y0572770D01*
X0233678Y0572669D01*
X0233560Y0572570D01*
X0233441Y0572474D01*
X0233319Y0572381D01*
X0233194Y0572292D01*
X0233067Y0572205D01*
X0232938Y0572123D01*
X0232807Y0572043D01*
X0232674Y0571967D01*
X0232539Y0571894D01*
X0232402Y0571825D01*
X0232263Y0571760D01*
X0232123Y0571698D01*
X0231981Y0571640D01*
X0231838Y0571585D01*
X0231693Y0571534D01*
X0231547Y0571487D01*
X0231400Y0571444D01*
X0231252Y0571405D01*
X0231103Y0571369D01*
X0230953Y0571338D01*
X0230802Y0571310D01*
X0230651Y0571286D01*
X0230498Y0571266D01*
X0230346Y0571250D01*
X0230193Y0571238D01*
X0230040Y0571230D01*
X0229887Y0571226D01*
X0229733Y0571226D01*
X0229580Y0571230D01*
X0229427Y0571238D01*
X0229274Y0571250D01*
X0229122Y0571266D01*
X0228969Y0571286D01*
X0228818Y0571310D01*
X0228667Y0571338D01*
X0228517Y0571369D01*
X0228368Y0571405D01*
X0228220Y0571444D01*
X0228073Y0571487D01*
X0227927Y0571534D01*
X0227782Y0571585D01*
X0227639Y0571640D01*
X0227497Y0571698D01*
X0227357Y0571760D01*
X0227218Y0571825D01*
X0227081Y0571894D01*
X0226946Y0571967D01*
X0226813Y0572043D01*
X0226682Y0572123D01*
X0226553Y0572205D01*
X0226426Y0572292D01*
X0226301Y0572381D01*
X0226179Y0572474D01*
X0226060Y0572570D01*
X0225942Y0572669D01*
X0225828Y0572770D01*
X0225716Y0572875D01*
X0225607Y0572983D01*
X0225501Y0573094D01*
X0225397Y0573207D01*
X0225297Y0573323D01*
X0225199Y0573441D01*
X0225105Y0573562D01*
X0225014Y0573685D01*
X0224926Y0573811D01*
X0224842Y0573939D01*
X0224760Y0574069D01*
X0224683Y0574201D01*
X0224608Y0574335D01*
X0224537Y0574471D01*
X0224470Y0574609D01*
X0224406Y0574749D01*
X0224346Y0574890D01*
X0224290Y0575032D01*
X0224237Y0575176D01*
X0224188Y0575322D01*
X0224143Y0575468D01*
X0224102Y0575616D01*
X0224065Y0575764D01*
X0224031Y0575914D01*
X0224001Y0576065D01*
X0223976Y0576216D01*
X0223954Y0576367D01*
X0223936Y0576520D01*
X0223922Y0576672D01*
X0223912Y0576825D01*
X0223906Y0576979D01*
X0223904Y0577132D01*
X0335124Y0579022D02*
X0335126Y0579191D01*
X0335132Y0579360D01*
X0335143Y0579529D01*
X0335157Y0579697D01*
X0335176Y0579865D01*
X0335199Y0580033D01*
X0335225Y0580200D01*
X0335256Y0580366D01*
X0335291Y0580532D01*
X0335330Y0580696D01*
X0335374Y0580860D01*
X0335421Y0581022D01*
X0335472Y0581183D01*
X0335527Y0581343D01*
X0335586Y0581502D01*
X0335648Y0581659D01*
X0335715Y0581814D01*
X0335786Y0581968D01*
X0335860Y0582120D01*
X0335938Y0582270D01*
X0336019Y0582418D01*
X0336104Y0582564D01*
X0336193Y0582708D01*
X0336285Y0582850D01*
X0336381Y0582989D01*
X0336480Y0583126D01*
X0336582Y0583261D01*
X0336688Y0583393D01*
X0336797Y0583522D01*
X0336909Y0583649D01*
X0337024Y0583773D01*
X0337142Y0583894D01*
X0337263Y0584012D01*
X0337387Y0584127D01*
X0337514Y0584239D01*
X0337643Y0584348D01*
X0337775Y0584454D01*
X0337910Y0584556D01*
X0338047Y0584655D01*
X0338186Y0584751D01*
X0338328Y0584843D01*
X0338472Y0584932D01*
X0338618Y0585017D01*
X0338766Y0585098D01*
X0338916Y0585176D01*
X0339068Y0585250D01*
X0339222Y0585321D01*
X0339377Y0585388D01*
X0339534Y0585450D01*
X0339693Y0585509D01*
X0339853Y0585564D01*
X0340014Y0585615D01*
X0340176Y0585662D01*
X0340340Y0585706D01*
X0340504Y0585745D01*
X0340670Y0585780D01*
X0340836Y0585811D01*
X0341003Y0585837D01*
X0341171Y0585860D01*
X0341339Y0585879D01*
X0341507Y0585893D01*
X0341676Y0585904D01*
X0341845Y0585910D01*
X0342014Y0585912D01*
X0342183Y0585910D01*
X0342352Y0585904D01*
X0342521Y0585893D01*
X0342689Y0585879D01*
X0342857Y0585860D01*
X0343025Y0585837D01*
X0343192Y0585811D01*
X0343358Y0585780D01*
X0343524Y0585745D01*
X0343688Y0585706D01*
X0343852Y0585662D01*
X0344014Y0585615D01*
X0344175Y0585564D01*
X0344335Y0585509D01*
X0344494Y0585450D01*
X0344651Y0585388D01*
X0344806Y0585321D01*
X0344960Y0585250D01*
X0345112Y0585176D01*
X0345262Y0585098D01*
X0345410Y0585017D01*
X0345556Y0584932D01*
X0345700Y0584843D01*
X0345842Y0584751D01*
X0345981Y0584655D01*
X0346118Y0584556D01*
X0346253Y0584454D01*
X0346385Y0584348D01*
X0346514Y0584239D01*
X0346641Y0584127D01*
X0346765Y0584012D01*
X0346886Y0583894D01*
X0347004Y0583773D01*
X0347119Y0583649D01*
X0347231Y0583522D01*
X0347340Y0583393D01*
X0347446Y0583261D01*
X0347548Y0583126D01*
X0347647Y0582989D01*
X0347743Y0582850D01*
X0347835Y0582708D01*
X0347924Y0582564D01*
X0348009Y0582418D01*
X0348090Y0582270D01*
X0348168Y0582120D01*
X0348242Y0581968D01*
X0348313Y0581814D01*
X0348380Y0581659D01*
X0348442Y0581502D01*
X0348501Y0581343D01*
X0348556Y0581183D01*
X0348607Y0581022D01*
X0348654Y0580860D01*
X0348698Y0580696D01*
X0348737Y0580532D01*
X0348772Y0580366D01*
X0348803Y0580200D01*
X0348829Y0580033D01*
X0348852Y0579865D01*
X0348871Y0579697D01*
X0348885Y0579529D01*
X0348896Y0579360D01*
X0348902Y0579191D01*
X0348904Y0579022D01*
X0348902Y0578853D01*
X0348896Y0578684D01*
X0348885Y0578515D01*
X0348871Y0578347D01*
X0348852Y0578179D01*
X0348829Y0578011D01*
X0348803Y0577844D01*
X0348772Y0577678D01*
X0348737Y0577512D01*
X0348698Y0577348D01*
X0348654Y0577184D01*
X0348607Y0577022D01*
X0348556Y0576861D01*
X0348501Y0576701D01*
X0348442Y0576542D01*
X0348380Y0576385D01*
X0348313Y0576230D01*
X0348242Y0576076D01*
X0348168Y0575924D01*
X0348090Y0575774D01*
X0348009Y0575626D01*
X0347924Y0575480D01*
X0347835Y0575336D01*
X0347743Y0575194D01*
X0347647Y0575055D01*
X0347548Y0574918D01*
X0347446Y0574783D01*
X0347340Y0574651D01*
X0347231Y0574522D01*
X0347119Y0574395D01*
X0347004Y0574271D01*
X0346886Y0574150D01*
X0346765Y0574032D01*
X0346641Y0573917D01*
X0346514Y0573805D01*
X0346385Y0573696D01*
X0346253Y0573590D01*
X0346118Y0573488D01*
X0345981Y0573389D01*
X0345842Y0573293D01*
X0345700Y0573201D01*
X0345556Y0573112D01*
X0345410Y0573027D01*
X0345262Y0572946D01*
X0345112Y0572868D01*
X0344960Y0572794D01*
X0344806Y0572723D01*
X0344651Y0572656D01*
X0344494Y0572594D01*
X0344335Y0572535D01*
X0344175Y0572480D01*
X0344014Y0572429D01*
X0343852Y0572382D01*
X0343688Y0572338D01*
X0343524Y0572299D01*
X0343358Y0572264D01*
X0343192Y0572233D01*
X0343025Y0572207D01*
X0342857Y0572184D01*
X0342689Y0572165D01*
X0342521Y0572151D01*
X0342352Y0572140D01*
X0342183Y0572134D01*
X0342014Y0572132D01*
X0341845Y0572134D01*
X0341676Y0572140D01*
X0341507Y0572151D01*
X0341339Y0572165D01*
X0341171Y0572184D01*
X0341003Y0572207D01*
X0340836Y0572233D01*
X0340670Y0572264D01*
X0340504Y0572299D01*
X0340340Y0572338D01*
X0340176Y0572382D01*
X0340014Y0572429D01*
X0339853Y0572480D01*
X0339693Y0572535D01*
X0339534Y0572594D01*
X0339377Y0572656D01*
X0339222Y0572723D01*
X0339068Y0572794D01*
X0338916Y0572868D01*
X0338766Y0572946D01*
X0338618Y0573027D01*
X0338472Y0573112D01*
X0338328Y0573201D01*
X0338186Y0573293D01*
X0338047Y0573389D01*
X0337910Y0573488D01*
X0337775Y0573590D01*
X0337643Y0573696D01*
X0337514Y0573805D01*
X0337387Y0573917D01*
X0337263Y0574032D01*
X0337142Y0574150D01*
X0337024Y0574271D01*
X0336909Y0574395D01*
X0336797Y0574522D01*
X0336688Y0574651D01*
X0336582Y0574783D01*
X0336480Y0574918D01*
X0336381Y0575055D01*
X0336285Y0575194D01*
X0336193Y0575336D01*
X0336104Y0575480D01*
X0336019Y0575626D01*
X0335938Y0575774D01*
X0335860Y0575924D01*
X0335786Y0576076D01*
X0335715Y0576230D01*
X0335648Y0576385D01*
X0335586Y0576542D01*
X0335527Y0576701D01*
X0335472Y0576861D01*
X0335421Y0577022D01*
X0335374Y0577184D01*
X0335330Y0577348D01*
X0335291Y0577512D01*
X0335256Y0577678D01*
X0335225Y0577844D01*
X0335199Y0578011D01*
X0335176Y0578179D01*
X0335157Y0578347D01*
X0335143Y0578515D01*
X0335132Y0578684D01*
X0335126Y0578853D01*
X0335124Y0579022D01*
D11*
X0342014Y0579022D03*
X0054613Y0579022D03*
X0054613Y0055399D03*
D12*
X0208499Y0263673D03*
X0228499Y0263673D03*
D13*
X0266748Y0228147D03*
X0306633Y0210820D03*
X0161129Y0255006D03*
X0149596Y0254949D03*
X0111164Y0065661D03*
X0111164Y0055710D03*
D14*
X0266748Y0208147D03*
X0266748Y0218147D03*
X0276748Y0218147D03*
X0276748Y0228147D03*
X0276748Y0208147D03*
D15*
X0306633Y0220820D03*
X0306633Y0230820D03*
X0306633Y0240820D03*
X0161129Y0245006D03*
X0161129Y0235006D03*
X0161129Y0225006D03*
X0149596Y0224949D03*
X0149596Y0234949D03*
X0149596Y0244949D03*
X0101164Y0065661D03*
X0101164Y0055710D03*
X0091164Y0055710D03*
X0091164Y0065661D03*
X0081164Y0065661D03*
X0081164Y0055710D03*
D16*
X0322029Y0098037D03*
X0329829Y0098037D03*
X0329829Y0107880D03*
X0322029Y0107880D03*
D17*
X0340529Y0126659D03*
X0340529Y0079259D03*
D18*
X0132751Y0472076D02*
X0124951Y0472076D01*
X0124951Y0519076D02*
X0132751Y0519076D01*
X0084751Y0519076D02*
X0076951Y0519076D01*
X0076751Y0495576D02*
X0068951Y0495576D01*
X0076951Y0472076D02*
X0084751Y0472076D01*
D19*
X0101463Y0577132D03*
X0151070Y0577132D03*
X0180203Y0577132D03*
X0229810Y0577132D03*
D20*
X0229810Y0548392D02*
X0229810Y0537762D01*
X0213274Y0537762D02*
X0213274Y0548392D01*
X0196739Y0548392D02*
X0196739Y0537762D01*
X0180203Y0537762D02*
X0180203Y0548392D01*
X0151070Y0548392D02*
X0151070Y0537762D01*
X0134534Y0537762D02*
X0134534Y0548392D01*
X0117999Y0548392D02*
X0117999Y0537762D01*
X0101463Y0537762D02*
X0101463Y0548392D01*
D21*
X0250874Y0484759D03*
X0250874Y0474759D03*
X0250874Y0464525D03*
X0250874Y0454525D03*
X0260874Y0454525D03*
X0260874Y0464525D03*
X0260874Y0474759D03*
X0260874Y0484759D03*
D22*
X0301233Y0447020D03*
X0313233Y0447020D03*
X0325233Y0447020D03*
X0303633Y0370020D03*
X0291633Y0370020D03*
X0279633Y0370020D03*
X0299433Y0313872D03*
X0299433Y0294820D03*
X0299433Y0274642D03*
X0287633Y0188620D03*
X0287633Y0176620D03*
X0287633Y0164620D03*
X0245770Y0072220D03*
X0230170Y0072220D03*
X0213370Y0072220D03*
X0184570Y0072220D03*
X0168970Y0072220D03*
X0153370Y0072220D03*
X0137170Y0072220D03*
X0136433Y0124620D03*
X0136433Y0137220D03*
X0136433Y0149220D03*
X0096833Y0200220D03*
X0096833Y0212220D03*
X0096833Y0223620D03*
X0086633Y0302255D03*
X0086633Y0320855D03*
X0086633Y0346055D03*
X0098833Y0361620D03*
X0110233Y0355620D03*
X0121033Y0348420D03*
X0135633Y0440620D03*
X0210033Y0344620D03*
X0081633Y0567820D03*
X0068884Y0567820D03*
D23*
X0136400Y0093497D02*
X0136400Y0087497D01*
X0146400Y0087497D02*
X0146400Y0093497D01*
X0156400Y0093497D02*
X0156400Y0087497D01*
X0166400Y0087497D02*
X0166400Y0093497D01*
X0176400Y0093497D02*
X0176400Y0087497D01*
X0186400Y0087497D02*
X0186400Y0093497D01*
X0201304Y0093833D02*
X0201304Y0087833D01*
X0211304Y0087833D02*
X0211304Y0093833D01*
X0221304Y0093833D02*
X0221304Y0087833D01*
X0231304Y0087833D02*
X0231304Y0093833D01*
X0241304Y0093833D02*
X0241304Y0087833D01*
X0251304Y0087833D02*
X0251304Y0093833D01*
D24*
X0276933Y0501020D02*
X0282333Y0501020D01*
X0282333Y0511020D02*
X0276933Y0511020D01*
D25*
X0180633Y0504820D03*
X0174633Y0504820D03*
D26*
X0177633Y0504820D03*
D27*
X0198633Y0329020D03*
D28*
X0342014Y0055399D03*
M02*
