G75*
%MOIN*%
%OFA0B0*%
%FSLAX24Y24*%
%IPPOS*%
%LPD*%
%AMOC8*
5,1,8,0,0,1.08239X$1,22.5*
%
%ADD10C,0.0040*%
%ADD11C,0.0000*%
%ADD12C,0.0060*%
%ADD13C,0.0030*%
%ADD14C,0.0080*%
%ADD15C,0.0020*%
%ADD16C,0.0059*%
%ADD17R,0.0008X0.0730*%
%ADD18R,0.0008X0.0722*%
%ADD19R,0.0008X0.0788*%
%ADD20R,0.0008X0.0738*%
%ADD21R,0.0008X0.0158*%
%ADD22R,0.0008X0.0158*%
%ADD23R,0.0008X0.0813*%
%ADD24R,0.0008X0.0780*%
%ADD25R,0.0008X0.0821*%
%ADD26R,0.0008X0.0838*%
%ADD27R,0.0008X0.0805*%
%ADD28R,0.0008X0.0158*%
%ADD29R,0.0008X0.0158*%
%ADD30R,0.0008X0.0854*%
%ADD31R,0.0008X0.0829*%
%ADD32R,0.0008X0.0158*%
%ADD33R,0.0008X0.0158*%
%ADD34R,0.0008X0.0854*%
%ADD35R,0.0008X0.0863*%
%ADD36R,0.0008X0.0846*%
%ADD37R,0.0008X0.0871*%
%ADD38R,0.0008X0.0879*%
%ADD39R,0.0008X0.0854*%
%ADD40R,0.0008X0.0887*%
%ADD41R,0.0008X0.0887*%
%ADD42R,0.0008X0.0871*%
%ADD43R,0.0008X0.0896*%
%ADD44R,0.0008X0.0904*%
%ADD45R,0.0008X0.0879*%
%ADD46R,0.0008X0.0904*%
%ADD47R,0.0008X0.0912*%
%ADD48R,0.0008X0.0896*%
%ADD49R,0.0008X0.0921*%
%ADD50R,0.0008X0.0921*%
%ADD51R,0.0008X0.0904*%
%ADD52R,0.0008X0.0921*%
%ADD53R,0.0008X0.0929*%
%ADD54R,0.0008X0.0929*%
%ADD55R,0.0008X0.0937*%
%ADD56R,0.0008X0.0937*%
%ADD57R,0.0008X0.0921*%
%ADD58R,0.0008X0.0946*%
%ADD59R,0.0008X0.0946*%
%ADD60R,0.0008X0.0929*%
%ADD61R,0.0008X0.0954*%
%ADD62R,0.0008X0.0954*%
%ADD63R,0.0008X0.0954*%
%ADD64R,0.0008X0.0962*%
%ADD65R,0.0008X0.0962*%
%ADD66R,0.0008X0.0970*%
%ADD67R,0.0008X0.0970*%
%ADD68R,0.0008X0.0979*%
%ADD69R,0.0008X0.0979*%
%ADD70R,0.0008X0.0979*%
%ADD71R,0.0008X0.0241*%
%ADD72R,0.0008X0.0232*%
%ADD73R,0.0008X0.0224*%
%ADD74R,0.0008X0.0241*%
%ADD75R,0.0008X0.0216*%
%ADD76R,0.0008X0.0207*%
%ADD77R,0.0008X0.0216*%
%ADD78R,0.0008X0.0199*%
%ADD79R,0.0008X0.0199*%
%ADD80R,0.0008X0.0158*%
%ADD81R,0.0008X0.0191*%
%ADD82R,0.0008X0.0199*%
%ADD83R,0.0008X0.0158*%
%ADD84R,0.0008X0.0199*%
%ADD85R,0.0008X0.0191*%
%ADD86R,0.0008X0.0191*%
%ADD87R,0.0008X0.0182*%
%ADD88R,0.0008X0.0174*%
%ADD89R,0.0008X0.0182*%
%ADD90R,0.0008X0.0174*%
%ADD91R,0.0008X0.0174*%
%ADD92R,0.0008X0.0182*%
%ADD93R,0.0008X0.0174*%
%ADD94R,0.0008X0.0174*%
%ADD95R,0.0008X0.0166*%
%ADD96R,0.0008X0.0166*%
%ADD97R,0.0008X0.0166*%
%ADD98R,0.0008X0.0166*%
%ADD99R,0.0008X0.0166*%
%ADD100R,0.0008X0.0166*%
%ADD101R,0.0008X0.0182*%
%ADD102R,0.0008X0.0207*%
%ADD103R,0.0008X0.0216*%
%ADD104R,0.0008X0.0207*%
%ADD105R,0.0008X0.0232*%
%ADD106R,0.0008X0.0265*%
%ADD107R,0.0008X0.0257*%
%ADD108R,0.0008X0.0863*%
%ADD109R,0.0008X0.0970*%
%ADD110R,0.0008X0.0962*%
%ADD111R,0.0008X0.0846*%
%ADD112R,0.0008X0.0954*%
%ADD113R,0.0008X0.0846*%
%ADD114R,0.0008X0.0954*%
%ADD115R,0.0008X0.0838*%
%ADD116R,0.0008X0.0946*%
%ADD117R,0.0008X0.0829*%
%ADD118R,0.0008X0.0937*%
%ADD119R,0.0008X0.0813*%
%ADD120R,0.0008X0.0805*%
%ADD121R,0.0008X0.0805*%
%ADD122R,0.0008X0.0829*%
%ADD123R,0.0008X0.0970*%
%ADD124R,0.0008X0.0854*%
%ADD125R,0.0008X0.0249*%
%ADD126R,0.0008X0.0241*%
%ADD127R,0.0008X0.0191*%
%ADD128R,0.0008X0.0166*%
%ADD129R,0.0008X0.0166*%
%ADD130R,0.0008X0.0174*%
%ADD131R,0.0008X0.0174*%
%ADD132R,0.0008X0.0182*%
%ADD133R,0.0008X0.0191*%
%ADD134R,0.0008X0.0191*%
%ADD135R,0.0008X0.0199*%
%ADD136R,0.0008X0.0199*%
%ADD137R,0.0008X0.0216*%
%ADD138R,0.0008X0.0224*%
%ADD139R,0.0008X0.0224*%
%ADD140R,0.0008X0.0216*%
%ADD141R,0.0008X0.0241*%
%ADD142R,0.0008X0.0249*%
%ADD143R,0.0008X0.0995*%
%ADD144R,0.0008X0.0987*%
%ADD145R,0.0008X0.0979*%
%ADD146R,0.0008X0.0970*%
%ADD147R,0.0008X0.0929*%
%ADD148R,0.0008X0.0921*%
%ADD149R,0.0008X0.0946*%
%ADD150R,0.0008X0.0912*%
%ADD151R,0.0008X0.0896*%
%ADD152R,0.0008X0.0904*%
%ADD153R,0.0008X0.0887*%
%ADD154R,0.0008X0.0921*%
%ADD155R,0.0008X0.0904*%
%ADD156R,0.0008X0.0879*%
%ADD157R,0.0008X0.0879*%
%ADD158R,0.0008X0.0863*%
%ADD159R,0.0008X0.0871*%
%ADD160R,0.0008X0.0871*%
%ADD161R,0.0008X0.0829*%
%ADD162R,0.0008X0.0821*%
%ADD163R,0.0008X0.0854*%
%ADD164R,0.0008X0.0838*%
%ADD165R,0.0008X0.0796*%
%ADD166R,0.0008X0.0829*%
%ADD167R,0.0008X0.0771*%
%ADD168R,0.0008X0.0796*%
%ADD169R,0.0008X0.0722*%
%ADD170R,0.0008X0.0697*%
%ADD171R,0.0008X0.0738*%
%ADD172R,0.0008X0.0730*%
%ADD173R,0.0008X0.1675*%
%ADD174R,0.0008X0.1675*%
%ADD175R,0.0008X0.1675*%
%ADD176R,0.0008X0.1675*%
%ADD177R,0.0008X0.0373*%
%ADD178R,0.0008X0.0373*%
%ADD179R,0.0008X0.0373*%
%ADD180R,0.0008X0.0373*%
%ADD181R,0.0008X0.0481*%
%ADD182R,0.0008X0.0481*%
%ADD183R,0.0008X0.0481*%
%ADD184R,0.0008X0.0498*%
%ADD185R,0.0008X0.0498*%
%ADD186R,0.0008X0.0506*%
%ADD187R,0.0008X0.0514*%
%ADD188R,0.0008X0.0514*%
%ADD189R,0.0008X0.0514*%
%ADD190R,0.0008X0.0531*%
%ADD191R,0.0008X0.0531*%
%ADD192R,0.0008X0.0531*%
%ADD193R,0.0008X0.0008*%
%ADD194R,0.0008X0.0008*%
%ADD195R,0.0008X0.0547*%
%ADD196R,0.0008X0.0033*%
%ADD197R,0.0008X0.0025*%
%ADD198R,0.0008X0.0547*%
%ADD199R,0.0008X0.0050*%
%ADD200R,0.0008X0.0050*%
%ADD201R,0.0008X0.0547*%
%ADD202R,0.0008X0.0066*%
%ADD203R,0.0008X0.0075*%
%ADD204R,0.0008X0.0091*%
%ADD205R,0.0008X0.0100*%
%ADD206R,0.0008X0.0116*%
%ADD207R,0.0008X0.0116*%
%ADD208R,0.0008X0.0556*%
%ADD209R,0.0008X0.0133*%
%ADD210R,0.0008X0.0133*%
%ADD211R,0.0008X0.0564*%
%ADD212R,0.0008X0.0564*%
%ADD213R,0.0008X0.0564*%
%ADD214R,0.0008X0.0216*%
%ADD215R,0.0008X0.0224*%
%ADD216R,0.0008X0.0241*%
%ADD217R,0.0008X0.0249*%
%ADD218R,0.0008X0.0581*%
%ADD219R,0.0008X0.0265*%
%ADD220R,0.0008X0.0274*%
%ADD221R,0.0008X0.0581*%
%ADD222R,0.0008X0.0282*%
%ADD223R,0.0008X0.0282*%
%ADD224R,0.0008X0.0581*%
%ADD225R,0.0008X0.0307*%
%ADD226R,0.0008X0.0307*%
%ADD227R,0.0008X0.0332*%
%ADD228R,0.0008X0.0332*%
%ADD229R,0.0008X0.0357*%
%ADD230R,0.0008X0.0348*%
%ADD231R,0.0008X0.0597*%
%ADD232R,0.0008X0.0365*%
%ADD233R,0.0008X0.0680*%
%ADD234R,0.0008X0.0390*%
%ADD235R,0.0008X0.0398*%
%ADD236R,0.0008X0.0763*%
%ADD237R,0.0008X0.0415*%
%ADD238R,0.0008X0.0423*%
%ADD239R,0.0008X0.0829*%
%ADD240R,0.0008X0.0440*%
%ADD241R,0.0008X0.0431*%
%ADD242R,0.0008X0.0456*%
%ADD243R,0.0008X0.0456*%
%ADD244R,0.0008X0.1029*%
%ADD245R,0.0008X0.0506*%
%ADD246R,0.0008X0.1078*%
%ADD247R,0.0008X0.0523*%
%ADD248R,0.0008X0.1128*%
%ADD249R,0.0008X0.0539*%
%ADD250R,0.0008X0.1178*%
%ADD251R,0.0008X0.0572*%
%ADD252R,0.0008X0.1228*%
%ADD253R,0.0008X0.0589*%
%ADD254R,0.0008X0.0589*%
%ADD255R,0.0008X0.1277*%
%ADD256R,0.0008X0.0605*%
%ADD257R,0.0008X0.2530*%
%ADD258R,0.0008X0.2538*%
%ADD259R,0.0008X0.2521*%
%ADD260R,0.0008X0.2513*%
%ADD261R,0.0008X0.2505*%
%ADD262R,0.0008X0.2488*%
%ADD263R,0.0008X0.2488*%
%ADD264R,0.0008X0.2488*%
%ADD265R,0.0008X0.2472*%
%ADD266R,0.0008X0.2472*%
%ADD267R,0.0008X0.2472*%
%ADD268R,0.0008X0.2455*%
%ADD269R,0.0008X0.2455*%
%ADD270R,0.0008X0.2439*%
%ADD271R,0.0008X0.2439*%
%ADD272R,0.0008X0.2439*%
%ADD273R,0.0008X0.2422*%
%ADD274R,0.0008X0.2422*%
%ADD275R,0.0008X0.2414*%
%ADD276R,0.0008X0.2405*%
%ADD277R,0.0008X0.2389*%
%ADD278R,0.0008X0.2389*%
%ADD279R,0.0008X0.2372*%
%ADD280R,0.0008X0.1062*%
%ADD281R,0.0008X0.1053*%
%ADD282R,0.0008X0.0995*%
%ADD283R,0.0008X0.0887*%
%ADD284R,0.0008X0.0871*%
%ADD285R,0.0008X0.0805*%
%ADD286R,0.0008X0.0788*%
%ADD287R,0.0008X0.0780*%
%ADD288R,0.0008X0.0763*%
%ADD289R,0.0008X0.0746*%
%ADD290R,0.0008X0.0722*%
%ADD291R,0.0008X0.0713*%
%ADD292R,0.0008X0.0705*%
%ADD293R,0.0008X0.0688*%
%ADD294R,0.0008X0.0672*%
%ADD295R,0.0008X0.0664*%
%ADD296R,0.0008X0.0664*%
%ADD297R,0.0008X0.0647*%
%ADD298R,0.0008X0.0647*%
%ADD299R,0.0008X0.0639*%
%ADD300R,0.0008X0.0639*%
%ADD301R,0.0008X0.0630*%
%ADD302R,0.0008X0.0622*%
%ADD303R,0.0008X0.0614*%
%ADD304R,0.0008X0.0605*%
%ADD305R,0.0008X0.0464*%
%ADD306R,0.0008X0.0556*%
%ADD307R,0.0008X0.0597*%
%ADD308R,0.0008X0.0589*%
%ADD309R,0.0008X0.0630*%
%ADD310R,0.0008X0.0697*%
%ADD311R,0.0008X0.0572*%
%ADD312R,0.0008X0.0763*%
%ADD313R,0.0008X0.0572*%
%ADD314R,0.0008X0.0556*%
%ADD315R,0.0008X0.0008*%
%ADD316R,0.0008X0.0041*%
%ADD317R,0.0008X0.0017*%
%ADD318R,0.0008X0.0995*%
%ADD319R,0.0008X0.0066*%
%ADD320R,0.0008X0.0539*%
%ADD321R,0.0008X0.1045*%
%ADD322R,0.0008X0.0100*%
%ADD323R,0.0008X0.0083*%
%ADD324R,0.0008X0.0539*%
%ADD325R,0.0008X0.1078*%
%ADD326R,0.0008X0.0124*%
%ADD327R,0.0008X0.0108*%
%ADD328R,0.0008X0.0539*%
%ADD329R,0.0008X0.1111*%
%ADD330R,0.0008X0.0149*%
%ADD331R,0.0008X0.0133*%
%ADD332R,0.0008X0.0523*%
%ADD333R,0.0008X0.1145*%
%ADD334R,0.0008X0.0523*%
%ADD335R,0.0008X0.1186*%
%ADD336R,0.0008X0.1219*%
%ADD337R,0.0008X0.0241*%
%ADD338R,0.0008X0.0224*%
%ADD339R,0.0008X0.1244*%
%ADD340R,0.0008X0.1277*%
%ADD341R,0.0008X0.0290*%
%ADD342R,0.0008X0.0282*%
%ADD343R,0.0008X0.1310*%
%ADD344R,0.0008X0.0323*%
%ADD345R,0.0008X0.0299*%
%ADD346R,0.0008X0.0498*%
%ADD347R,0.0008X0.1344*%
%ADD348R,0.0008X0.0498*%
%ADD349R,0.0008X0.1377*%
%ADD350R,0.0008X0.0854*%
%ADD351R,0.0008X0.1393*%
%ADD352R,0.0008X0.1427*%
%ADD353R,0.0008X0.0838*%
%ADD354R,0.0008X0.1443*%
%ADD355R,0.0008X0.1476*%
%ADD356R,0.0008X0.1501*%
%ADD357R,0.0008X0.0821*%
%ADD358R,0.0008X0.1526*%
%ADD359R,0.0008X0.0821*%
%ADD360R,0.0008X0.1543*%
%ADD361R,0.0008X0.1576*%
%ADD362R,0.0008X0.1593*%
%ADD363R,0.0008X0.0805*%
%ADD364R,0.0008X0.1626*%
%ADD365R,0.0008X0.0796*%
%ADD366R,0.0008X0.1642*%
%ADD367R,0.0008X0.0796*%
%ADD368R,0.0008X0.1659*%
%ADD369R,0.0008X0.1692*%
%ADD370R,0.0008X0.1709*%
%ADD371R,0.0008X0.0780*%
%ADD372R,0.0008X0.1725*%
%ADD373R,0.0008X0.1742*%
%ADD374R,0.0008X0.0780*%
%ADD375R,0.0008X0.1758*%
%ADD376R,0.0008X0.0771*%
%ADD377R,0.0008X0.1792*%
%ADD378R,0.0008X0.1808*%
%ADD379R,0.0008X0.0771*%
%ADD380R,0.0008X0.1825*%
%ADD381R,0.0008X0.0771*%
%ADD382R,0.0008X0.1841*%
%ADD383R,0.0008X0.1858*%
%ADD384R,0.0008X0.1874*%
%ADD385R,0.0008X0.1891*%
%ADD386R,0.0008X0.0755*%
%ADD387R,0.0008X0.1908*%
%ADD388R,0.0008X0.0755*%
%ADD389R,0.0008X0.1924*%
%ADD390R,0.0008X0.1941*%
%ADD391R,0.0008X0.0755*%
%ADD392R,0.0008X0.1957*%
%ADD393R,0.0008X0.0755*%
%ADD394R,0.0008X0.1974*%
%ADD395R,0.0008X0.0746*%
%ADD396R,0.0008X0.1991*%
%ADD397R,0.0008X0.0746*%
%ADD398R,0.0008X0.2007*%
%ADD399R,0.0008X0.0746*%
%ADD400R,0.0008X0.2024*%
%ADD401R,0.0008X0.2040*%
%ADD402R,0.0008X0.2040*%
%ADD403R,0.0008X0.0738*%
%ADD404R,0.0008X0.2057*%
%ADD405R,0.0008X0.2074*%
%ADD406R,0.0008X0.2090*%
%ADD407R,0.0008X0.0730*%
%ADD408R,0.0008X0.2107*%
%ADD409R,0.0008X0.0713*%
%ADD410R,0.0008X0.0722*%
%ADD411R,0.0008X0.2123*%
%ADD412R,0.0008X0.2123*%
%ADD413R,0.0008X0.0697*%
%ADD414R,0.0008X0.2140*%
%ADD415R,0.0008X0.0672*%
%ADD416R,0.0008X0.0672*%
%ADD417R,0.0008X0.2157*%
%ADD418R,0.0008X0.0647*%
%ADD419R,0.0008X0.0664*%
%ADD420R,0.0008X0.2173*%
%ADD421R,0.0008X0.0639*%
%ADD422R,0.0008X0.0647*%
%ADD423R,0.0008X0.2173*%
%ADD424R,0.0008X0.0622*%
%ADD425R,0.0008X0.2190*%
%ADD426R,0.0008X0.0622*%
%ADD427R,0.0008X0.2206*%
%ADD428R,0.0008X0.0597*%
%ADD429R,0.0008X0.2215*%
%ADD430R,0.0008X0.2223*%
%ADD431R,0.0008X0.0572*%
%ADD432R,0.0008X0.2239*%
%ADD433R,0.0008X0.0547*%
%ADD434R,0.0008X0.2256*%
%ADD435R,0.0008X0.2273*%
%ADD436R,0.0008X0.2281*%
%ADD437R,0.0008X0.0498*%
%ADD438R,0.0008X0.2289*%
%ADD439R,0.0008X0.0473*%
%ADD440R,0.0008X0.0489*%
%ADD441R,0.0008X0.2306*%
%ADD442R,0.0008X0.0464*%
%ADD443R,0.0008X0.0473*%
%ADD444R,0.0008X0.2306*%
%ADD445R,0.0008X0.0448*%
%ADD446R,0.0008X0.0464*%
%ADD447R,0.0008X0.2322*%
%ADD448R,0.0008X0.0440*%
%ADD449R,0.0008X0.0448*%
%ADD450R,0.0008X0.2339*%
%ADD451R,0.0008X0.0423*%
%ADD452R,0.0008X0.2339*%
%ADD453R,0.0008X0.0415*%
%ADD454R,0.0008X0.0415*%
%ADD455R,0.0008X0.2356*%
%ADD456R,0.0008X0.0390*%
%ADD457R,0.0008X0.0406*%
%ADD458R,0.0008X0.2356*%
%ADD459R,0.0008X0.0390*%
%ADD460R,0.0008X0.2372*%
%ADD461R,0.0008X0.0382*%
%ADD462R,0.0008X0.0382*%
%ADD463R,0.0008X0.2372*%
%ADD464R,0.0008X0.0382*%
%ADD465R,0.0008X0.2405*%
%ADD466R,0.0008X0.2405*%
%ADD467R,0.0008X0.2422*%
%ADD468R,0.0008X0.0373*%
%ADD469R,0.0008X0.0373*%
%ADD470R,0.0008X0.2439*%
%ADD471R,0.0008X0.2455*%
%ADD472R,0.0008X0.2455*%
%ADD473R,0.0008X0.2455*%
%ADD474R,0.0008X0.2472*%
%ADD475R,0.0008X0.0365*%
%ADD476R,0.0008X0.2472*%
%ADD477R,0.0008X0.0373*%
%ADD478R,0.0008X0.2505*%
%ADD479R,0.0008X0.2505*%
%ADD480R,0.0008X0.0365*%
%ADD481R,0.0008X0.2505*%
%ADD482R,0.0008X0.0365*%
%ADD483R,0.0008X0.2521*%
%ADD484R,0.0008X0.0365*%
%ADD485R,0.0008X0.2521*%
%ADD486R,0.0008X0.0365*%
%ADD487R,0.0008X0.2538*%
%ADD488R,0.0008X0.2538*%
%ADD489R,0.0008X0.2555*%
%ADD490R,0.0008X0.2555*%
%ADD491R,0.0008X0.2555*%
%ADD492R,0.0008X0.2571*%
%ADD493R,0.0008X0.0357*%
%ADD494R,0.0008X0.2571*%
%ADD495R,0.0008X0.0365*%
%ADD496R,0.0008X0.1269*%
%ADD497R,0.0008X0.1211*%
%ADD498R,0.0008X0.1161*%
%ADD499R,0.0008X0.1145*%
%ADD500R,0.0008X0.1120*%
%ADD501R,0.0008X0.1103*%
%ADD502R,0.0008X0.1111*%
%ADD503R,0.0008X0.1103*%
%ADD504R,0.0008X0.0357*%
%ADD505R,0.0008X0.1087*%
%ADD506R,0.0008X0.1062*%
%ADD507R,0.0008X0.1062*%
%ADD508R,0.0008X0.1053*%
%ADD509R,0.0008X0.0348*%
%ADD510R,0.0008X0.1045*%
%ADD511R,0.0008X0.0406*%
%ADD512R,0.0008X0.1037*%
%ADD513R,0.0008X0.0448*%
%ADD514R,0.0008X0.1037*%
%ADD515R,0.0008X0.0489*%
%ADD516R,0.0008X0.0498*%
%ADD517R,0.0008X0.1020*%
%ADD518R,0.0008X0.0581*%
%ADD519R,0.0008X0.1012*%
%ADD520R,0.0008X0.1004*%
%ADD521R,0.0008X0.0647*%
%ADD522R,0.0008X0.0622*%
%ADD523R,0.0008X0.1012*%
%ADD524R,0.0008X0.0647*%
%ADD525R,0.0008X0.1004*%
%ADD526R,0.0008X0.0647*%
%ADD527R,0.0008X0.0995*%
%ADD528R,0.0008X0.0987*%
%ADD529R,0.0008X0.0979*%
%ADD530R,0.0008X0.0630*%
%ADD531R,0.0008X0.0630*%
%ADD532R,0.0008X0.0954*%
%ADD533R,0.0008X0.0630*%
%ADD534R,0.0008X0.0954*%
%ADD535R,0.0008X0.0946*%
%ADD536R,0.0008X0.0639*%
%ADD537R,0.0008X0.0962*%
%ADD538R,0.0008X0.0987*%
%ADD539R,0.0008X0.0987*%
%ADD540R,0.0008X0.0995*%
%ADD541R,0.0008X0.0622*%
%ADD542R,0.0008X0.1004*%
%ADD543R,0.0008X0.0572*%
%ADD544R,0.0008X0.1029*%
%ADD545R,0.0008X0.0448*%
%ADD546R,0.0008X0.0489*%
%ADD547R,0.0008X0.1037*%
%ADD548R,0.0008X0.1070*%
%ADD549R,0.0008X0.0357*%
%ADD550R,0.0008X0.1087*%
%ADD551R,0.0008X0.1095*%
%ADD552R,0.0008X0.1111*%
%ADD553R,0.0008X0.1120*%
%ADD554R,0.0008X0.1136*%
%ADD555R,0.0008X0.1153*%
%ADD556R,0.0008X0.1169*%
%ADD557R,0.0008X0.1203*%
%ADD558R,0.0008X0.1244*%
%ADD559R,0.0008X0.2579*%
%ADD560R,0.0008X0.2563*%
%ADD561R,0.0008X0.2521*%
%ADD562R,0.0008X0.2488*%
%ADD563R,0.0008X0.2472*%
%ADD564R,0.0008X0.0373*%
%ADD565R,0.0008X0.2422*%
%ADD566R,0.0008X0.2389*%
%ADD567R,0.0008X0.2364*%
%ADD568R,0.0008X0.0431*%
%ADD569R,0.0008X0.0448*%
%ADD570R,0.0008X0.0440*%
%ADD571R,0.0008X0.2322*%
%ADD572R,0.0008X0.2322*%
%ADD573R,0.0008X0.0464*%
%ADD574R,0.0008X0.0489*%
%ADD575R,0.0008X0.0473*%
%ADD576R,0.0008X0.2289*%
%ADD577R,0.0008X0.0498*%
%ADD578R,0.0008X0.2273*%
%ADD579R,0.0008X0.2256*%
%ADD580R,0.0008X0.2256*%
%ADD581R,0.0008X0.0564*%
%ADD582R,0.0008X0.0547*%
%ADD583R,0.0008X0.2239*%
%ADD584R,0.0008X0.0572*%
%ADD585R,0.0008X0.2223*%
%ADD586R,0.0008X0.0597*%
%ADD587R,0.0008X0.2206*%
%ADD588R,0.0008X0.0605*%
%ADD589R,0.0008X0.2190*%
%ADD590R,0.0008X0.0688*%
%ADD591R,0.0008X0.2140*%
%ADD592R,0.0008X0.2065*%
%ADD593R,0.0008X0.0738*%
%ADD594R,0.0008X0.2057*%
%ADD595R,0.0008X0.2024*%
%ADD596R,0.0008X0.2007*%
%ADD597R,0.0008X0.1974*%
%ADD598R,0.0008X0.0755*%
%ADD599R,0.0008X0.1957*%
%ADD600R,0.0008X0.0755*%
%ADD601R,0.0008X0.1924*%
%ADD602R,0.0008X0.1908*%
%ADD603R,0.0008X0.1874*%
%ADD604R,0.0008X0.0771*%
%ADD605R,0.0008X0.1858*%
%ADD606R,0.0008X0.0771*%
%ADD607R,0.0008X0.1808*%
%ADD608R,0.0008X0.1792*%
%ADD609R,0.0008X0.1775*%
%ADD610R,0.0008X0.1750*%
%ADD611R,0.0008X0.0788*%
%ADD612R,0.0008X0.0796*%
%ADD613R,0.0008X0.0796*%
%ADD614R,0.0008X0.1642*%
%ADD615R,0.0008X0.1609*%
%ADD616R,0.0008X0.1576*%
%ADD617R,0.0008X0.1559*%
%ADD618R,0.0008X0.1526*%
%ADD619R,0.0008X0.1510*%
%ADD620R,0.0008X0.1460*%
%ADD621R,0.0008X0.1427*%
%ADD622R,0.0008X0.1410*%
%ADD623R,0.0008X0.1327*%
%ADD624R,0.0008X0.0299*%
%ADD625R,0.0008X0.1294*%
%ADD626R,0.0008X0.0274*%
%ADD627R,0.0008X0.1261*%
%ADD628R,0.0008X0.1228*%
%ADD629R,0.0008X0.1194*%
%ADD630R,0.0008X0.1161*%
%ADD631R,0.0008X0.0141*%
%ADD632R,0.0008X0.0149*%
%ADD633R,0.0008X0.0108*%
%ADD634R,0.0008X0.0124*%
%ADD635R,0.0008X0.1095*%
%ADD636R,0.0008X0.0083*%
%ADD637R,0.0008X0.0075*%
%ADD638R,0.0008X0.0017*%
%ADD639R,0.0008X0.0041*%
%ADD640R,0.0008X0.0556*%
%ADD641R,0.0008X0.0713*%
%ADD642R,0.0008X0.0581*%
%ADD643R,0.0008X0.0605*%
%ADD644R,0.0008X0.0614*%
%ADD645R,0.0008X0.0398*%
%ADD646R,0.0008X0.0746*%
%ADD647R,0.0008X0.0829*%
%ADD648R,0.0008X0.0846*%
%ADD649R,0.0008X0.1045*%
%ADD650R,0.0008X0.1062*%
%ADD651R,0.0008X0.2372*%
%ADD652R,0.0008X0.2389*%
%ADD653R,0.0008X0.2405*%
%ADD654R,0.0008X0.2472*%
%ADD655R,0.0008X0.2505*%
%ADD656R,0.0008X0.2513*%
%ADD657R,0.0008X0.2521*%
%ADD658R,0.0008X0.2530*%
%ADD659R,0.0008X0.0614*%
%ADD660R,0.0008X0.1186*%
%ADD661R,0.0008X0.0539*%
%ADD662R,0.0008X0.1136*%
%ADD663R,0.0008X0.0523*%
%ADD664R,0.0008X0.0904*%
%ADD665R,0.0008X0.0440*%
%ADD666R,0.0008X0.0398*%
%ADD667R,0.0008X0.0390*%
%ADD668R,0.0008X0.0680*%
%ADD669R,0.0008X0.0307*%
%ADD670R,0.0008X0.0290*%
%ADD671R,0.0008X0.0274*%
%ADD672R,0.0008X0.0265*%
%ADD673R,0.0008X0.0199*%
%ADD674R,0.0008X0.0116*%
%ADD675R,0.0008X0.0066*%
%ADD676R,0.0008X0.0058*%
%ADD677R,0.0008X0.0033*%
%ADD678R,0.0008X0.0523*%
%ADD679R,0.0008X0.0498*%
%ADD680C,0.0057*%
%ADD681C,0.0024*%
%ADD682C,0.0018*%
%ADD683R,0.0236X0.0492*%
%ADD684C,0.0031*%
D10*
X015073Y033940D02*
X015000Y034013D01*
X015000Y034160D01*
X015073Y034233D01*
X015147Y034233D01*
X015220Y034160D01*
X015220Y034013D01*
X015294Y033940D01*
X015367Y033940D01*
X015440Y034013D01*
X015440Y034160D01*
X015367Y034233D01*
X015220Y034382D02*
X015294Y034455D01*
X015294Y034602D01*
X015220Y034675D01*
X015147Y034675D01*
X015147Y034382D01*
X015220Y034382D02*
X015073Y034382D01*
X015000Y034455D01*
X015000Y034602D01*
X015000Y034824D02*
X015000Y035044D01*
X015073Y035117D01*
X015220Y035117D01*
X015294Y035044D01*
X015294Y034824D01*
X014853Y034824D01*
X015647Y034824D02*
X015647Y035117D01*
X015647Y035265D02*
X015647Y035559D01*
X015647Y035707D02*
X015647Y036001D01*
X015647Y036149D02*
X015647Y036443D01*
X015647Y036591D02*
X015647Y036885D01*
X015647Y037033D02*
X015647Y037327D01*
X015647Y037475D02*
X015647Y037769D01*
X015647Y037917D02*
X015647Y038211D01*
X015647Y038359D02*
X015647Y038653D01*
X015647Y038801D02*
X015647Y039095D01*
X015647Y039243D02*
X015647Y039537D01*
X015647Y039685D02*
X015647Y039979D01*
X015647Y040127D02*
X015647Y040421D01*
X015647Y040569D02*
X015647Y040863D01*
X015647Y041011D02*
X015647Y041305D01*
X015647Y041453D02*
X015647Y041747D01*
X015647Y041895D02*
X015647Y042189D01*
X016440Y042115D02*
X016660Y042115D01*
X016734Y042042D01*
X016734Y041821D01*
X016440Y041821D01*
X016513Y041673D02*
X016440Y041600D01*
X016440Y041453D01*
X016513Y041380D01*
X016660Y041380D01*
X016734Y041453D01*
X016734Y041600D01*
X016660Y041673D01*
X016513Y041673D01*
X016440Y041232D02*
X016440Y041085D01*
X016440Y041158D02*
X016880Y041158D01*
X016880Y041085D01*
X016660Y040936D02*
X016587Y040936D01*
X016587Y040643D01*
X016660Y040643D02*
X016734Y040716D01*
X016734Y040863D01*
X016660Y040936D01*
X016440Y040863D02*
X016440Y040716D01*
X016513Y040643D01*
X016660Y040643D01*
X016734Y040494D02*
X016734Y040274D01*
X016660Y040201D01*
X016513Y040201D01*
X016440Y040274D01*
X016440Y040494D01*
X016734Y040053D02*
X016734Y039979D01*
X016587Y039833D01*
X016440Y039833D02*
X016734Y039833D01*
X016660Y039684D02*
X016440Y039684D01*
X016440Y039464D01*
X016513Y039391D01*
X016587Y039464D01*
X016587Y039684D01*
X016660Y039684D02*
X016734Y039611D01*
X016734Y039464D01*
X016734Y039242D02*
X016660Y039169D01*
X016660Y038949D01*
X016660Y039169D02*
X016587Y039242D01*
X016513Y039242D01*
X016440Y039169D01*
X016440Y038949D01*
X016880Y038949D01*
X016880Y039169D01*
X016807Y039242D01*
X016734Y039242D01*
X017160Y039317D02*
X017233Y039243D01*
X017527Y039537D01*
X017233Y039537D01*
X017160Y039463D01*
X017160Y039317D01*
X017233Y039243D02*
X017527Y039243D01*
X017600Y039317D01*
X017600Y039463D01*
X017527Y039537D01*
X017880Y039611D02*
X018100Y039611D01*
X018174Y039537D01*
X018174Y039317D01*
X017880Y039317D01*
X017953Y039169D02*
X018100Y039169D01*
X018174Y039095D01*
X018174Y038948D01*
X018100Y038875D01*
X017953Y038875D01*
X017880Y038948D01*
X017880Y039095D01*
X017953Y039169D01*
X018174Y038727D02*
X018174Y038653D01*
X018027Y038507D01*
X017880Y038507D02*
X018174Y038507D01*
X018174Y038359D02*
X018174Y038212D01*
X018247Y038285D02*
X017953Y038285D01*
X017880Y038359D01*
X017880Y038064D02*
X017880Y037843D01*
X017953Y037770D01*
X018100Y037770D01*
X018174Y037843D01*
X018174Y038064D01*
X018100Y037622D02*
X018027Y037622D01*
X018027Y037328D01*
X018100Y037328D02*
X017953Y037328D01*
X017880Y037401D01*
X017880Y037548D01*
X018100Y037622D02*
X018174Y037548D01*
X018174Y037401D01*
X018100Y037328D01*
X017880Y037180D02*
X017880Y037033D01*
X017880Y037107D02*
X018320Y037107D01*
X018320Y037033D01*
X018320Y036885D02*
X018320Y036591D01*
X017880Y036591D01*
X017880Y036885D01*
X018100Y036738D02*
X018100Y036591D01*
X018600Y036738D02*
X019040Y036738D01*
X019040Y036591D02*
X019040Y036885D01*
X018820Y037033D02*
X018894Y037107D01*
X018894Y037254D01*
X018820Y037327D01*
X018747Y037327D01*
X018747Y037033D01*
X018820Y037033D02*
X018673Y037033D01*
X018600Y037107D01*
X018600Y037254D01*
X018673Y037475D02*
X018600Y037549D01*
X018600Y037769D01*
X018600Y037917D02*
X019040Y037917D01*
X018894Y037991D02*
X018894Y038138D01*
X018820Y038211D01*
X018600Y038211D01*
X018600Y038359D02*
X018894Y038359D01*
X018894Y038580D01*
X018820Y038653D01*
X018600Y038653D01*
X018673Y038801D02*
X018600Y038875D01*
X018600Y039021D01*
X018673Y039095D01*
X018820Y039095D01*
X018894Y039021D01*
X018894Y038875D01*
X018820Y038801D01*
X018673Y038801D01*
X018600Y039243D02*
X018600Y039390D01*
X018600Y039317D02*
X019040Y039317D01*
X019040Y039243D01*
X018820Y039538D02*
X018673Y039538D01*
X018600Y039611D01*
X018600Y039758D01*
X018673Y039832D01*
X018820Y039832D01*
X018894Y039758D01*
X018894Y039611D01*
X018820Y039538D01*
X018820Y039980D02*
X018673Y039980D01*
X018600Y040053D01*
X018600Y040273D01*
X018527Y040273D02*
X018894Y040273D01*
X018894Y040053D01*
X018820Y039980D01*
X018453Y040127D02*
X018453Y040200D01*
X018527Y040273D01*
X018600Y040422D02*
X018600Y040569D01*
X018600Y040495D02*
X018894Y040495D01*
X018894Y040422D01*
X019040Y040495D02*
X019114Y040495D01*
X018820Y040717D02*
X018894Y040790D01*
X018894Y040937D01*
X018820Y041010D01*
X018747Y041010D01*
X018747Y040717D01*
X018820Y040717D02*
X018673Y040717D01*
X018600Y040790D01*
X018600Y040937D01*
X018600Y041159D02*
X018600Y041379D01*
X018673Y041452D01*
X018747Y041379D01*
X018747Y041232D01*
X018820Y041159D01*
X018894Y041232D01*
X018894Y041452D01*
X018174Y040789D02*
X018174Y040569D01*
X018100Y040496D01*
X018027Y040569D01*
X018027Y040716D01*
X017953Y040789D01*
X017880Y040716D01*
X017880Y040496D01*
X017880Y040347D02*
X017880Y040127D01*
X017953Y040054D01*
X018100Y040054D01*
X018174Y040127D01*
X018174Y040347D01*
X018174Y039832D02*
X017880Y039832D01*
X017880Y039759D02*
X017880Y039906D01*
X018174Y039832D02*
X018174Y039759D01*
X018320Y039832D02*
X018394Y039832D01*
X017600Y038727D02*
X017454Y038580D01*
X017454Y038432D02*
X017160Y038285D01*
X017454Y038138D01*
X017160Y038580D02*
X017160Y038874D01*
X017160Y038727D02*
X017600Y038727D01*
X017233Y039022D02*
X017233Y039096D01*
X017160Y039096D01*
X017160Y039022D01*
X017233Y039022D01*
X016660Y038358D02*
X016440Y038358D01*
X016660Y038358D02*
X016734Y038285D01*
X016734Y038065D01*
X016440Y038065D01*
X016440Y037917D02*
X016440Y037770D01*
X016440Y037843D02*
X016734Y037843D01*
X016734Y037770D01*
X016880Y037843D02*
X016954Y037843D01*
X017160Y037548D02*
X017160Y037328D01*
X017233Y037254D01*
X017380Y037254D01*
X017454Y037328D01*
X017454Y037548D01*
X017600Y037548D02*
X017160Y037548D01*
X016880Y037180D02*
X016440Y037180D01*
X016440Y036959D01*
X016513Y036886D01*
X016660Y036886D01*
X016734Y036959D01*
X016734Y037180D01*
X016660Y036738D02*
X016587Y036738D01*
X016587Y036444D01*
X016660Y036444D02*
X016734Y036517D01*
X016734Y036664D01*
X016660Y036738D01*
X016440Y036664D02*
X016440Y036517D01*
X016513Y036444D01*
X016660Y036444D01*
X016660Y036296D02*
X016440Y036296D01*
X016660Y036296D02*
X016734Y036222D01*
X016734Y036002D01*
X016440Y036002D01*
X016440Y035854D02*
X016440Y035634D01*
X016513Y035560D01*
X016660Y035560D01*
X016734Y035634D01*
X016734Y035854D01*
X016367Y035854D01*
X016293Y035780D01*
X016293Y035707D01*
X016440Y035412D02*
X016440Y035265D01*
X016440Y035339D02*
X016734Y035339D01*
X016734Y035265D01*
X016734Y035117D02*
X016734Y034897D01*
X016660Y034824D01*
X016587Y034897D01*
X016587Y035044D01*
X016513Y035117D01*
X016440Y035044D01*
X016440Y034824D01*
X016587Y034675D02*
X016587Y034382D01*
X016660Y034382D02*
X016734Y034455D01*
X016734Y034602D01*
X016660Y034675D01*
X016587Y034675D01*
X016440Y034602D02*
X016440Y034455D01*
X016513Y034382D01*
X016660Y034382D01*
X016513Y034233D02*
X016440Y034160D01*
X016440Y033940D01*
X016880Y033940D01*
X016880Y034160D01*
X016807Y034233D01*
X016513Y034233D01*
X017160Y034233D02*
X017600Y034233D01*
X017454Y034086D01*
X017600Y033940D01*
X017160Y033940D01*
X017233Y034382D02*
X017307Y034455D01*
X017307Y034675D01*
X017380Y034675D02*
X017160Y034675D01*
X017160Y034455D01*
X017233Y034382D01*
X017454Y034455D02*
X017454Y034602D01*
X017380Y034675D01*
X017454Y034824D02*
X017454Y034897D01*
X017160Y034897D01*
X017160Y034824D02*
X017160Y034970D01*
X017160Y035118D02*
X017454Y035118D01*
X017454Y035338D01*
X017380Y035412D01*
X017160Y035412D01*
X017160Y035560D02*
X017160Y035780D01*
X017233Y035854D01*
X017307Y035854D01*
X017380Y035780D01*
X017380Y035560D01*
X017160Y035560D02*
X017600Y035560D01*
X017600Y035780D01*
X017527Y035854D01*
X017454Y035854D01*
X017380Y035780D01*
X017380Y036002D02*
X017233Y036002D01*
X017160Y036076D01*
X017160Y036222D01*
X017233Y036296D01*
X017380Y036296D01*
X017454Y036222D01*
X017454Y036076D01*
X017380Y036002D01*
X017233Y036444D02*
X017307Y036517D01*
X017307Y036738D01*
X017380Y036738D02*
X017160Y036738D01*
X017160Y036517D01*
X017233Y036444D01*
X017454Y036517D02*
X017454Y036664D01*
X017380Y036738D01*
X017307Y036886D02*
X017454Y037033D01*
X017454Y037106D01*
X017454Y036886D02*
X017160Y036886D01*
X017953Y036001D02*
X018247Y036001D01*
X018320Y035928D01*
X018320Y035707D01*
X017880Y035707D01*
X017880Y035928D01*
X017953Y036001D01*
X017953Y035559D02*
X017880Y035486D01*
X017880Y035339D01*
X017953Y035265D01*
X017880Y035117D02*
X018320Y035117D01*
X018247Y035265D02*
X018320Y035339D01*
X018320Y035486D01*
X018247Y035559D01*
X018174Y035559D01*
X018100Y035486D01*
X018027Y035559D01*
X017953Y035559D01*
X018100Y035486D02*
X018100Y035412D01*
X017880Y035117D02*
X018320Y034824D01*
X017880Y034824D01*
X017953Y034675D02*
X017880Y034602D01*
X017880Y034455D01*
X017953Y034382D01*
X018247Y034382D01*
X018320Y034455D01*
X018320Y034602D01*
X018247Y034675D01*
X018600Y034602D02*
X018673Y034675D01*
X018600Y034602D02*
X018600Y034455D01*
X018673Y034382D01*
X018967Y034382D01*
X019040Y034455D01*
X019040Y034602D01*
X018967Y034675D01*
X019040Y034824D02*
X018600Y035117D01*
X019040Y035117D01*
X018967Y035265D02*
X019040Y035339D01*
X019040Y035486D01*
X018967Y035559D01*
X018894Y035559D01*
X018820Y035486D01*
X018747Y035559D01*
X018673Y035559D01*
X018600Y035486D01*
X018600Y035339D01*
X018673Y035265D01*
X018820Y035412D02*
X018820Y035486D01*
X018600Y035707D02*
X018600Y035928D01*
X018673Y036001D01*
X018967Y036001D01*
X019040Y035928D01*
X019040Y035707D01*
X018600Y035707D01*
X018600Y034824D02*
X019040Y034824D01*
X018967Y034233D02*
X018894Y034233D01*
X018820Y034160D01*
X018820Y033940D01*
X018820Y034160D02*
X018747Y034233D01*
X018673Y034233D01*
X018600Y034160D01*
X018600Y033940D01*
X019040Y033940D01*
X019040Y034160D01*
X018967Y034233D01*
X018320Y034160D02*
X018247Y034233D01*
X018174Y034233D01*
X018100Y034160D01*
X018100Y033940D01*
X018100Y034160D02*
X018027Y034233D01*
X017953Y034233D01*
X017880Y034160D01*
X017880Y033940D01*
X018320Y033940D01*
X018320Y034160D01*
X017674Y034897D02*
X017600Y034897D01*
X016954Y035339D02*
X016880Y035339D01*
X015647Y034675D02*
X015647Y034382D01*
X015647Y034233D02*
X015647Y033940D01*
X015367Y035707D02*
X015440Y035781D01*
X015440Y035928D01*
X015367Y036001D01*
X015294Y036001D01*
X015000Y035707D01*
X015000Y036001D01*
X015073Y036149D02*
X015367Y036443D01*
X015073Y036443D01*
X015000Y036370D01*
X015000Y036223D01*
X015073Y036149D01*
X015367Y036149D01*
X015440Y036223D01*
X015440Y036370D01*
X015367Y036443D01*
X015294Y036591D02*
X015440Y036738D01*
X015000Y036738D01*
X015000Y036591D02*
X015000Y036885D01*
X015073Y037033D02*
X015000Y037107D01*
X015000Y037254D01*
X015073Y037327D01*
X015220Y037327D01*
X015294Y037254D01*
X015294Y037180D01*
X015220Y037033D01*
X015440Y037033D01*
X015440Y037327D01*
X015220Y037917D02*
X015220Y038211D01*
X015147Y038801D02*
X015147Y039021D01*
X015220Y039095D01*
X015367Y039095D01*
X015440Y039021D01*
X015440Y038801D01*
X015000Y038801D01*
X015147Y038948D02*
X015000Y039095D01*
X015000Y039243D02*
X015000Y039537D01*
X015147Y039685D02*
X015000Y039832D01*
X015147Y039979D01*
X015440Y039979D01*
X015440Y039685D02*
X015147Y039685D01*
X015220Y039390D02*
X015220Y039243D01*
X015440Y039243D02*
X015000Y039243D01*
X015440Y039243D02*
X015440Y039537D01*
X014927Y040127D02*
X014927Y040421D01*
X015000Y040569D02*
X015440Y040569D01*
X015440Y040863D01*
X015220Y040716D02*
X015220Y040569D01*
X016513Y042263D02*
X016440Y042337D01*
X016440Y042557D01*
X016660Y042557D01*
X016734Y042484D01*
X016734Y042337D01*
X016587Y042337D02*
X016587Y042557D01*
X016587Y042337D02*
X016513Y042263D01*
X018894Y037991D02*
X018820Y037917D01*
X018894Y037769D02*
X018894Y037549D01*
X018820Y037475D01*
X018673Y037475D01*
X018566Y055949D02*
X018489Y056026D01*
X018489Y056333D01*
X018566Y056410D01*
X018796Y056410D01*
X018796Y055949D01*
X018566Y055949D01*
X018950Y055949D02*
X019257Y055949D01*
X019257Y056410D01*
X018950Y056410D01*
X019103Y056179D02*
X019257Y056179D01*
X019410Y056103D02*
X019410Y056026D01*
X019487Y055949D01*
X019717Y055949D01*
X019717Y056410D01*
X019487Y056410D01*
X019410Y056333D01*
X019410Y056256D01*
X019487Y056179D01*
X019717Y056179D01*
X019871Y056026D02*
X019871Y056333D01*
X019947Y056410D01*
X020177Y056410D01*
X020177Y055949D01*
X019947Y055949D01*
X019871Y056026D01*
X019487Y056179D02*
X019410Y056103D01*
X020331Y055949D02*
X020638Y055949D01*
X020638Y056410D01*
X020331Y056410D01*
X020484Y056179D02*
X020638Y056179D01*
X020791Y056410D02*
X021098Y056410D01*
X020945Y056410D02*
X020945Y055949D01*
X021252Y055949D02*
X021252Y056256D01*
X021405Y056410D01*
X021559Y056256D01*
X021559Y055949D01*
X021712Y055949D02*
X022019Y055949D01*
X022019Y056410D01*
X021712Y056410D01*
X021559Y056179D02*
X021252Y056179D01*
X021866Y056179D02*
X022019Y056179D01*
X022172Y056179D02*
X022479Y056179D01*
X022479Y055949D02*
X022479Y056410D01*
X022172Y056410D02*
X022172Y055949D01*
X013945Y056026D02*
X013869Y055949D01*
X013715Y055949D01*
X013638Y056026D01*
X013638Y056103D01*
X013715Y056179D01*
X013869Y056179D01*
X013945Y056256D01*
X013945Y056333D01*
X013869Y056410D01*
X013715Y056410D01*
X013638Y056333D01*
X013485Y056410D02*
X013485Y056026D01*
X013408Y055949D01*
X013255Y055949D01*
X013178Y056026D01*
X013178Y056410D01*
X013025Y056410D02*
X012794Y056410D01*
X012718Y056333D01*
X012718Y056179D01*
X012794Y056103D01*
X013025Y056103D01*
X013025Y055949D02*
X013025Y056410D01*
X012564Y056410D02*
X012334Y056410D01*
X012257Y056333D01*
X012257Y056179D01*
X012334Y056103D01*
X012564Y056103D01*
X012564Y055949D02*
X012564Y056410D01*
X012104Y056410D02*
X012104Y055949D01*
X011797Y055949D01*
X011490Y055949D02*
X011490Y056179D01*
X011336Y056333D01*
X011336Y056410D01*
X011490Y056179D02*
X011643Y056333D01*
X011643Y056410D01*
D11*
X004083Y058280D02*
X004083Y005162D01*
X004085Y005102D01*
X004090Y005041D01*
X004099Y004982D01*
X004112Y004923D01*
X004128Y004864D01*
X004148Y004807D01*
X004171Y004752D01*
X004198Y004697D01*
X004227Y004645D01*
X004260Y004594D01*
X004296Y004545D01*
X004334Y004499D01*
X004376Y004455D01*
X004420Y004413D01*
X004466Y004375D01*
X004515Y004339D01*
X004566Y004306D01*
X004618Y004277D01*
X004673Y004250D01*
X004728Y004227D01*
X004785Y004207D01*
X004844Y004191D01*
X004903Y004178D01*
X004962Y004169D01*
X005023Y004164D01*
X005083Y004162D01*
X034579Y004162D01*
X034639Y004164D01*
X034700Y004169D01*
X034759Y004178D01*
X034818Y004191D01*
X034877Y004207D01*
X034934Y004227D01*
X034989Y004250D01*
X035044Y004277D01*
X035096Y004306D01*
X035147Y004339D01*
X035196Y004375D01*
X035242Y004413D01*
X035286Y004455D01*
X035328Y004499D01*
X035366Y004545D01*
X035402Y004594D01*
X035435Y004645D01*
X035464Y004697D01*
X035491Y004752D01*
X035514Y004807D01*
X035534Y004864D01*
X035550Y004923D01*
X035563Y004982D01*
X035572Y005041D01*
X035577Y005102D01*
X035579Y005162D01*
X035579Y058280D01*
X035577Y058340D01*
X035572Y058401D01*
X035563Y058460D01*
X035550Y058519D01*
X035534Y058578D01*
X035514Y058635D01*
X035491Y058690D01*
X035464Y058745D01*
X035435Y058797D01*
X035402Y058848D01*
X035366Y058897D01*
X035328Y058943D01*
X035286Y058987D01*
X035242Y059029D01*
X035196Y059067D01*
X035147Y059103D01*
X035096Y059136D01*
X035044Y059165D01*
X034989Y059192D01*
X034934Y059215D01*
X034877Y059235D01*
X034818Y059251D01*
X034759Y059264D01*
X034700Y059273D01*
X034639Y059278D01*
X034579Y059280D01*
X005083Y059280D01*
X005023Y059278D01*
X004962Y059273D01*
X004903Y059264D01*
X004844Y059251D01*
X004785Y059235D01*
X004728Y059215D01*
X004673Y059192D01*
X004618Y059165D01*
X004566Y059136D01*
X004515Y059103D01*
X004466Y059067D01*
X004420Y059029D01*
X004376Y058987D01*
X004334Y058943D01*
X004296Y058897D01*
X004260Y058848D01*
X004227Y058797D01*
X004198Y058745D01*
X004171Y058690D01*
X004148Y058635D01*
X004128Y058578D01*
X004112Y058519D01*
X004099Y058460D01*
X004090Y058401D01*
X004085Y058340D01*
X004083Y058280D01*
X004772Y057902D02*
X004774Y057954D01*
X004780Y058006D01*
X004790Y058057D01*
X004803Y058107D01*
X004821Y058157D01*
X004842Y058204D01*
X004866Y058250D01*
X004895Y058294D01*
X004926Y058336D01*
X004960Y058375D01*
X004997Y058412D01*
X005037Y058445D01*
X005080Y058476D01*
X005124Y058503D01*
X005170Y058527D01*
X005219Y058547D01*
X005268Y058563D01*
X005319Y058576D01*
X005370Y058585D01*
X005422Y058590D01*
X005474Y058591D01*
X005526Y058588D01*
X005578Y058581D01*
X005629Y058570D01*
X005679Y058556D01*
X005728Y058537D01*
X005775Y058515D01*
X005820Y058490D01*
X005864Y058461D01*
X005905Y058429D01*
X005944Y058394D01*
X005979Y058356D01*
X006012Y058315D01*
X006042Y058273D01*
X006068Y058228D01*
X006091Y058181D01*
X006110Y058132D01*
X006126Y058082D01*
X006138Y058032D01*
X006146Y057980D01*
X006150Y057928D01*
X006150Y057876D01*
X006146Y057824D01*
X006138Y057772D01*
X006126Y057722D01*
X006110Y057672D01*
X006091Y057623D01*
X006068Y057576D01*
X006042Y057531D01*
X006012Y057489D01*
X005979Y057448D01*
X005944Y057410D01*
X005905Y057375D01*
X005864Y057343D01*
X005820Y057314D01*
X005775Y057289D01*
X005728Y057267D01*
X005679Y057248D01*
X005629Y057234D01*
X005578Y057223D01*
X005526Y057216D01*
X005474Y057213D01*
X005422Y057214D01*
X005370Y057219D01*
X005319Y057228D01*
X005268Y057241D01*
X005219Y057257D01*
X005170Y057277D01*
X005124Y057301D01*
X005080Y057328D01*
X005037Y057359D01*
X004997Y057392D01*
X004960Y057429D01*
X004926Y057468D01*
X004895Y057510D01*
X004866Y057554D01*
X004842Y057600D01*
X004821Y057647D01*
X004803Y057697D01*
X004790Y057747D01*
X004780Y057798D01*
X004774Y057850D01*
X004772Y057902D01*
X009555Y057713D02*
X009557Y057761D01*
X009563Y057809D01*
X009573Y057856D01*
X009586Y057902D01*
X009604Y057947D01*
X009624Y057991D01*
X009649Y058033D01*
X009677Y058072D01*
X009707Y058109D01*
X009741Y058143D01*
X009778Y058175D01*
X009816Y058204D01*
X009857Y058229D01*
X009900Y058251D01*
X009945Y058269D01*
X009991Y058283D01*
X010038Y058294D01*
X010086Y058301D01*
X010134Y058304D01*
X010182Y058303D01*
X010230Y058298D01*
X010278Y058289D01*
X010324Y058277D01*
X010369Y058260D01*
X010413Y058240D01*
X010455Y058217D01*
X010495Y058190D01*
X010533Y058160D01*
X010568Y058127D01*
X010600Y058091D01*
X010630Y058053D01*
X010656Y058012D01*
X010678Y057969D01*
X010698Y057925D01*
X010713Y057880D01*
X010725Y057833D01*
X010733Y057785D01*
X010737Y057737D01*
X010737Y057689D01*
X010733Y057641D01*
X010725Y057593D01*
X010713Y057546D01*
X010698Y057501D01*
X010678Y057457D01*
X010656Y057414D01*
X010630Y057373D01*
X010600Y057335D01*
X010568Y057299D01*
X010533Y057266D01*
X010495Y057236D01*
X010455Y057209D01*
X010413Y057186D01*
X010369Y057166D01*
X010324Y057149D01*
X010278Y057137D01*
X010230Y057128D01*
X010182Y057123D01*
X010134Y057122D01*
X010086Y057125D01*
X010038Y057132D01*
X009991Y057143D01*
X009945Y057157D01*
X009900Y057175D01*
X009857Y057197D01*
X009816Y057222D01*
X009778Y057251D01*
X009741Y057283D01*
X009707Y057317D01*
X009677Y057354D01*
X009649Y057393D01*
X009624Y057435D01*
X009604Y057479D01*
X009586Y057524D01*
X009573Y057570D01*
X009563Y057617D01*
X009557Y057665D01*
X009555Y057713D01*
X014516Y057713D02*
X014518Y057761D01*
X014524Y057809D01*
X014534Y057856D01*
X014547Y057902D01*
X014565Y057947D01*
X014585Y057991D01*
X014610Y058033D01*
X014638Y058072D01*
X014668Y058109D01*
X014702Y058143D01*
X014739Y058175D01*
X014777Y058204D01*
X014818Y058229D01*
X014861Y058251D01*
X014906Y058269D01*
X014952Y058283D01*
X014999Y058294D01*
X015047Y058301D01*
X015095Y058304D01*
X015143Y058303D01*
X015191Y058298D01*
X015239Y058289D01*
X015285Y058277D01*
X015330Y058260D01*
X015374Y058240D01*
X015416Y058217D01*
X015456Y058190D01*
X015494Y058160D01*
X015529Y058127D01*
X015561Y058091D01*
X015591Y058053D01*
X015617Y058012D01*
X015639Y057969D01*
X015659Y057925D01*
X015674Y057880D01*
X015686Y057833D01*
X015694Y057785D01*
X015698Y057737D01*
X015698Y057689D01*
X015694Y057641D01*
X015686Y057593D01*
X015674Y057546D01*
X015659Y057501D01*
X015639Y057457D01*
X015617Y057414D01*
X015591Y057373D01*
X015561Y057335D01*
X015529Y057299D01*
X015494Y057266D01*
X015456Y057236D01*
X015416Y057209D01*
X015374Y057186D01*
X015330Y057166D01*
X015285Y057149D01*
X015239Y057137D01*
X015191Y057128D01*
X015143Y057123D01*
X015095Y057122D01*
X015047Y057125D01*
X014999Y057132D01*
X014952Y057143D01*
X014906Y057157D01*
X014861Y057175D01*
X014818Y057197D01*
X014777Y057222D01*
X014739Y057251D01*
X014702Y057283D01*
X014668Y057317D01*
X014638Y057354D01*
X014610Y057393D01*
X014585Y057435D01*
X014565Y057479D01*
X014547Y057524D01*
X014534Y057570D01*
X014524Y057617D01*
X014518Y057665D01*
X014516Y057713D01*
X017429Y057713D02*
X017431Y057761D01*
X017437Y057809D01*
X017447Y057856D01*
X017460Y057902D01*
X017478Y057947D01*
X017498Y057991D01*
X017523Y058033D01*
X017551Y058072D01*
X017581Y058109D01*
X017615Y058143D01*
X017652Y058175D01*
X017690Y058204D01*
X017731Y058229D01*
X017774Y058251D01*
X017819Y058269D01*
X017865Y058283D01*
X017912Y058294D01*
X017960Y058301D01*
X018008Y058304D01*
X018056Y058303D01*
X018104Y058298D01*
X018152Y058289D01*
X018198Y058277D01*
X018243Y058260D01*
X018287Y058240D01*
X018329Y058217D01*
X018369Y058190D01*
X018407Y058160D01*
X018442Y058127D01*
X018474Y058091D01*
X018504Y058053D01*
X018530Y058012D01*
X018552Y057969D01*
X018572Y057925D01*
X018587Y057880D01*
X018599Y057833D01*
X018607Y057785D01*
X018611Y057737D01*
X018611Y057689D01*
X018607Y057641D01*
X018599Y057593D01*
X018587Y057546D01*
X018572Y057501D01*
X018552Y057457D01*
X018530Y057414D01*
X018504Y057373D01*
X018474Y057335D01*
X018442Y057299D01*
X018407Y057266D01*
X018369Y057236D01*
X018329Y057209D01*
X018287Y057186D01*
X018243Y057166D01*
X018198Y057149D01*
X018152Y057137D01*
X018104Y057128D01*
X018056Y057123D01*
X018008Y057122D01*
X017960Y057125D01*
X017912Y057132D01*
X017865Y057143D01*
X017819Y057157D01*
X017774Y057175D01*
X017731Y057197D01*
X017690Y057222D01*
X017652Y057251D01*
X017615Y057283D01*
X017581Y057317D01*
X017551Y057354D01*
X017523Y057393D01*
X017498Y057435D01*
X017478Y057479D01*
X017460Y057524D01*
X017447Y057570D01*
X017437Y057617D01*
X017431Y057665D01*
X017429Y057713D01*
X022390Y057713D02*
X022392Y057761D01*
X022398Y057809D01*
X022408Y057856D01*
X022421Y057902D01*
X022439Y057947D01*
X022459Y057991D01*
X022484Y058033D01*
X022512Y058072D01*
X022542Y058109D01*
X022576Y058143D01*
X022613Y058175D01*
X022651Y058204D01*
X022692Y058229D01*
X022735Y058251D01*
X022780Y058269D01*
X022826Y058283D01*
X022873Y058294D01*
X022921Y058301D01*
X022969Y058304D01*
X023017Y058303D01*
X023065Y058298D01*
X023113Y058289D01*
X023159Y058277D01*
X023204Y058260D01*
X023248Y058240D01*
X023290Y058217D01*
X023330Y058190D01*
X023368Y058160D01*
X023403Y058127D01*
X023435Y058091D01*
X023465Y058053D01*
X023491Y058012D01*
X023513Y057969D01*
X023533Y057925D01*
X023548Y057880D01*
X023560Y057833D01*
X023568Y057785D01*
X023572Y057737D01*
X023572Y057689D01*
X023568Y057641D01*
X023560Y057593D01*
X023548Y057546D01*
X023533Y057501D01*
X023513Y057457D01*
X023491Y057414D01*
X023465Y057373D01*
X023435Y057335D01*
X023403Y057299D01*
X023368Y057266D01*
X023330Y057236D01*
X023290Y057209D01*
X023248Y057186D01*
X023204Y057166D01*
X023159Y057149D01*
X023113Y057137D01*
X023065Y057128D01*
X023017Y057123D01*
X022969Y057122D01*
X022921Y057125D01*
X022873Y057132D01*
X022826Y057143D01*
X022780Y057157D01*
X022735Y057175D01*
X022692Y057197D01*
X022651Y057222D01*
X022613Y057251D01*
X022576Y057283D01*
X022542Y057317D01*
X022512Y057354D01*
X022484Y057393D01*
X022459Y057435D01*
X022439Y057479D01*
X022421Y057524D01*
X022408Y057570D01*
X022398Y057617D01*
X022392Y057665D01*
X022390Y057713D01*
X033512Y057902D02*
X033514Y057954D01*
X033520Y058006D01*
X033530Y058057D01*
X033543Y058107D01*
X033561Y058157D01*
X033582Y058204D01*
X033606Y058250D01*
X033635Y058294D01*
X033666Y058336D01*
X033700Y058375D01*
X033737Y058412D01*
X033777Y058445D01*
X033820Y058476D01*
X033864Y058503D01*
X033910Y058527D01*
X033959Y058547D01*
X034008Y058563D01*
X034059Y058576D01*
X034110Y058585D01*
X034162Y058590D01*
X034214Y058591D01*
X034266Y058588D01*
X034318Y058581D01*
X034369Y058570D01*
X034419Y058556D01*
X034468Y058537D01*
X034515Y058515D01*
X034560Y058490D01*
X034604Y058461D01*
X034645Y058429D01*
X034684Y058394D01*
X034719Y058356D01*
X034752Y058315D01*
X034782Y058273D01*
X034808Y058228D01*
X034831Y058181D01*
X034850Y058132D01*
X034866Y058082D01*
X034878Y058032D01*
X034886Y057980D01*
X034890Y057928D01*
X034890Y057876D01*
X034886Y057824D01*
X034878Y057772D01*
X034866Y057722D01*
X034850Y057672D01*
X034831Y057623D01*
X034808Y057576D01*
X034782Y057531D01*
X034752Y057489D01*
X034719Y057448D01*
X034684Y057410D01*
X034645Y057375D01*
X034604Y057343D01*
X034560Y057314D01*
X034515Y057289D01*
X034468Y057267D01*
X034419Y057248D01*
X034369Y057234D01*
X034318Y057223D01*
X034266Y057216D01*
X034214Y057213D01*
X034162Y057214D01*
X034110Y057219D01*
X034059Y057228D01*
X034008Y057241D01*
X033959Y057257D01*
X033910Y057277D01*
X033864Y057301D01*
X033820Y057328D01*
X033777Y057359D01*
X033737Y057392D01*
X033700Y057429D01*
X033666Y057468D01*
X033635Y057510D01*
X033606Y057554D01*
X033582Y057600D01*
X033561Y057647D01*
X033543Y057697D01*
X033530Y057747D01*
X033520Y057798D01*
X033514Y057850D01*
X033512Y057902D01*
X004772Y005540D02*
X004774Y005592D01*
X004780Y005644D01*
X004790Y005695D01*
X004803Y005745D01*
X004821Y005795D01*
X004842Y005842D01*
X004866Y005888D01*
X004895Y005932D01*
X004926Y005974D01*
X004960Y006013D01*
X004997Y006050D01*
X005037Y006083D01*
X005080Y006114D01*
X005124Y006141D01*
X005170Y006165D01*
X005219Y006185D01*
X005268Y006201D01*
X005319Y006214D01*
X005370Y006223D01*
X005422Y006228D01*
X005474Y006229D01*
X005526Y006226D01*
X005578Y006219D01*
X005629Y006208D01*
X005679Y006194D01*
X005728Y006175D01*
X005775Y006153D01*
X005820Y006128D01*
X005864Y006099D01*
X005905Y006067D01*
X005944Y006032D01*
X005979Y005994D01*
X006012Y005953D01*
X006042Y005911D01*
X006068Y005866D01*
X006091Y005819D01*
X006110Y005770D01*
X006126Y005720D01*
X006138Y005670D01*
X006146Y005618D01*
X006150Y005566D01*
X006150Y005514D01*
X006146Y005462D01*
X006138Y005410D01*
X006126Y005360D01*
X006110Y005310D01*
X006091Y005261D01*
X006068Y005214D01*
X006042Y005169D01*
X006012Y005127D01*
X005979Y005086D01*
X005944Y005048D01*
X005905Y005013D01*
X005864Y004981D01*
X005820Y004952D01*
X005775Y004927D01*
X005728Y004905D01*
X005679Y004886D01*
X005629Y004872D01*
X005578Y004861D01*
X005526Y004854D01*
X005474Y004851D01*
X005422Y004852D01*
X005370Y004857D01*
X005319Y004866D01*
X005268Y004879D01*
X005219Y004895D01*
X005170Y004915D01*
X005124Y004939D01*
X005080Y004966D01*
X005037Y004997D01*
X004997Y005030D01*
X004960Y005067D01*
X004926Y005106D01*
X004895Y005148D01*
X004866Y005192D01*
X004842Y005238D01*
X004821Y005285D01*
X004803Y005335D01*
X004790Y005385D01*
X004780Y005436D01*
X004774Y005488D01*
X004772Y005540D01*
D12*
X004920Y011512D02*
X004920Y012006D01*
X004920Y011512D02*
X005043Y011512D01*
X005537Y012006D01*
X005660Y012006D01*
X005660Y011512D01*
X005507Y020032D02*
X004766Y020032D01*
X004766Y020526D01*
X004889Y020769D02*
X005383Y021262D01*
X004889Y021262D01*
X004766Y021139D01*
X004766Y020892D01*
X004889Y020769D01*
X005383Y020769D01*
X005507Y020892D01*
X005507Y021139D01*
X005383Y021262D01*
X005507Y020526D02*
X005507Y020032D01*
X005136Y020032D02*
X005136Y020279D01*
X005052Y029230D02*
X004558Y029230D01*
X005052Y029723D01*
X005175Y029600D01*
X005175Y029353D01*
X005052Y029230D01*
X005052Y029723D02*
X004558Y029723D01*
X004435Y029600D01*
X004435Y029353D01*
X004558Y029230D01*
X004558Y029966D02*
X004435Y030090D01*
X004435Y030460D01*
X005175Y030460D01*
X005175Y030090D01*
X005052Y029966D01*
X004558Y029966D01*
X004435Y030703D02*
X005175Y030703D01*
X004435Y031197D01*
X005175Y031197D01*
X005175Y031440D02*
X005175Y031933D01*
X004435Y031933D01*
X004435Y031440D01*
X004805Y031686D02*
X004805Y031933D01*
X004435Y032176D02*
X004435Y032670D01*
X004435Y032423D02*
X005175Y032423D01*
X005052Y032913D02*
X004558Y032913D01*
X004435Y033036D01*
X004435Y033283D01*
X004558Y033407D01*
X005052Y033407D01*
X005175Y033283D01*
X005175Y033036D01*
X005052Y032913D01*
X005175Y033649D02*
X004435Y033649D01*
X004805Y033649D02*
X004805Y034143D01*
X005175Y034143D02*
X004435Y034143D01*
X004980Y041092D02*
X005680Y041559D01*
X005563Y041792D02*
X005680Y041909D01*
X005680Y042142D01*
X005563Y042259D01*
X005096Y041792D01*
X004980Y041909D01*
X004980Y042142D01*
X005096Y042259D01*
X005563Y042259D01*
X005563Y041792D02*
X005096Y041792D01*
X004980Y041559D02*
X005680Y041092D01*
X017113Y050182D02*
X017113Y050782D01*
X017115Y050799D01*
X017119Y050816D01*
X017126Y050832D01*
X017136Y050846D01*
X017149Y050859D01*
X017163Y050869D01*
X017179Y050876D01*
X017196Y050880D01*
X017213Y050882D01*
X018313Y050882D01*
X018330Y050880D01*
X018347Y050876D01*
X018363Y050869D01*
X018377Y050859D01*
X018390Y050846D01*
X018400Y050832D01*
X018407Y050816D01*
X018411Y050799D01*
X018413Y050782D01*
X018413Y050182D01*
X018411Y050165D01*
X018407Y050148D01*
X018400Y050132D01*
X018390Y050118D01*
X018377Y050105D01*
X018363Y050095D01*
X018347Y050088D01*
X018330Y050084D01*
X018313Y050082D01*
X017213Y050082D01*
X017196Y050084D01*
X017179Y050088D01*
X017163Y050095D01*
X017149Y050105D01*
X017136Y050118D01*
X017126Y050132D01*
X017119Y050148D01*
X017115Y050165D01*
X017113Y050182D01*
X034353Y051286D02*
X034704Y051286D01*
X034937Y051519D01*
X035054Y051519D01*
X034937Y051752D02*
X035054Y051869D01*
X035054Y052102D01*
X034937Y052219D01*
X034470Y051752D01*
X034353Y051869D01*
X034353Y052102D01*
X034470Y052219D01*
X034937Y052219D01*
X034937Y051752D02*
X034470Y051752D01*
X034704Y051286D02*
X034937Y051052D01*
X035054Y051052D01*
X034293Y042322D02*
X034293Y041829D01*
X034293Y041586D02*
X035034Y041092D01*
X035034Y041586D02*
X034293Y041092D01*
X034787Y041829D02*
X035034Y042076D01*
X034293Y042076D01*
X034492Y033353D02*
X034492Y032860D01*
X034492Y033107D02*
X035233Y033107D01*
X034986Y032860D01*
X035109Y032617D02*
X035233Y032493D01*
X035233Y032123D01*
X034492Y032123D01*
X034492Y032493D01*
X034616Y032617D01*
X035109Y032617D01*
X035233Y031880D02*
X034492Y031880D01*
X035233Y031386D01*
X034492Y031386D01*
X034492Y031144D02*
X034492Y030650D01*
X035233Y030650D01*
X035233Y031144D01*
X034863Y030897D02*
X034863Y030650D01*
X035233Y030407D02*
X035233Y029913D01*
X035233Y030160D02*
X034492Y030160D01*
X034616Y029670D02*
X034492Y029547D01*
X034492Y029300D01*
X034616Y029176D01*
X035109Y029176D01*
X035233Y029300D01*
X035233Y029547D01*
X035109Y029670D01*
X034616Y029670D01*
X034492Y028934D02*
X035233Y028934D01*
X034863Y028934D02*
X034863Y028440D01*
X035233Y028440D02*
X034492Y028440D01*
X034353Y021382D02*
X034353Y020889D01*
X034353Y020646D02*
X034353Y020152D01*
X035094Y020152D01*
X035094Y020646D01*
X034847Y020889D02*
X035094Y021136D01*
X034353Y021136D01*
X034724Y020399D02*
X034724Y020152D01*
D13*
X030488Y028107D02*
X030488Y028397D01*
X030585Y028397D02*
X030391Y028397D01*
X030290Y028397D02*
X030145Y028397D01*
X030097Y028349D01*
X030097Y028252D01*
X030145Y028204D01*
X030290Y028204D01*
X030290Y028107D02*
X030290Y028397D01*
X029995Y028300D02*
X029899Y028397D01*
X029899Y028107D01*
X029995Y028107D02*
X029802Y028107D01*
X029701Y028107D02*
X029507Y028107D01*
X029604Y028107D02*
X029604Y028397D01*
X029701Y028300D01*
X029764Y030087D02*
X029958Y030087D01*
X029861Y030087D02*
X029861Y030377D01*
X029958Y030280D01*
X030059Y030232D02*
X030107Y030184D01*
X030252Y030184D01*
X030252Y030087D02*
X030252Y030377D01*
X030107Y030377D01*
X030059Y030329D01*
X030059Y030232D01*
X030353Y030377D02*
X030547Y030377D01*
X030450Y030377D02*
X030450Y030087D01*
X029663Y030135D02*
X029469Y030329D01*
X029469Y030135D01*
X029518Y030087D01*
X029615Y030087D01*
X029663Y030135D01*
X029663Y030329D01*
X029615Y030377D01*
X029518Y030377D01*
X029469Y030329D01*
X029638Y031992D02*
X029735Y031992D01*
X029783Y032041D01*
X029783Y032089D01*
X029735Y032137D01*
X029638Y032137D01*
X029589Y032089D01*
X029589Y032041D01*
X029638Y031992D01*
X029638Y032137D02*
X029589Y032186D01*
X029589Y032234D01*
X029638Y032282D01*
X029735Y032282D01*
X029783Y032234D01*
X029783Y032186D01*
X029735Y032137D01*
X029884Y032137D02*
X029933Y032089D01*
X030078Y032089D01*
X030078Y031992D02*
X030078Y032282D01*
X029933Y032282D01*
X029884Y032234D01*
X029884Y032137D01*
X030179Y032282D02*
X030372Y032282D01*
X030276Y032282D02*
X030276Y031992D01*
X030244Y036047D02*
X030438Y036047D01*
X030244Y036240D01*
X030244Y036289D01*
X030293Y036337D01*
X030389Y036337D01*
X030438Y036289D01*
X030539Y036289D02*
X030539Y036192D01*
X030587Y036144D01*
X030732Y036144D01*
X030732Y036047D02*
X030732Y036337D01*
X030587Y036337D01*
X030539Y036289D01*
X030833Y036337D02*
X031027Y036337D01*
X030930Y036337D02*
X030930Y036047D01*
X030143Y036192D02*
X029949Y036192D01*
X029998Y036047D02*
X029998Y036337D01*
X030143Y036192D01*
X029827Y036337D02*
X029633Y036337D01*
X029730Y036337D02*
X029730Y036047D01*
X029532Y036047D02*
X029532Y036337D01*
X029387Y036337D01*
X029339Y036289D01*
X029339Y036192D01*
X029387Y036144D01*
X029532Y036144D01*
X029238Y036047D02*
X029044Y036240D01*
X029044Y036289D01*
X029093Y036337D01*
X029189Y036337D01*
X029238Y036289D01*
X029238Y036047D02*
X029044Y036047D01*
X028943Y036095D02*
X028895Y036047D01*
X028798Y036047D01*
X028749Y036095D01*
X028749Y036192D01*
X028798Y036240D01*
X028846Y036240D01*
X028943Y036192D01*
X028943Y036337D01*
X028749Y036337D01*
X028627Y036337D02*
X028433Y036337D01*
X028530Y036337D02*
X028530Y036047D01*
X028332Y036047D02*
X028332Y036337D01*
X028187Y036337D01*
X028139Y036289D01*
X028139Y036192D01*
X028187Y036144D01*
X028332Y036144D01*
X028038Y036047D02*
X027844Y036240D01*
X027844Y036289D01*
X027893Y036337D01*
X027989Y036337D01*
X028038Y036289D01*
X028038Y036047D02*
X027844Y036047D01*
X027743Y036095D02*
X027695Y036047D01*
X027598Y036047D01*
X027549Y036095D01*
X027549Y036144D01*
X027598Y036192D01*
X027743Y036192D01*
X027743Y036095D01*
X027743Y036192D02*
X027646Y036289D01*
X027549Y036337D01*
X029638Y043747D02*
X029589Y043795D01*
X029589Y043989D01*
X029638Y044037D01*
X029735Y044037D01*
X029783Y043989D01*
X029783Y043940D01*
X029735Y043892D01*
X029589Y043892D01*
X029638Y043747D02*
X029735Y043747D01*
X029783Y043795D01*
X029884Y043747D02*
X030078Y043747D01*
X029884Y043940D01*
X029884Y043989D01*
X029933Y044037D01*
X030029Y044037D01*
X030078Y043989D01*
X030179Y043989D02*
X030179Y043892D01*
X030227Y043844D01*
X030372Y043844D01*
X030372Y043747D02*
X030372Y044037D01*
X030227Y044037D01*
X030179Y043989D01*
X030473Y044037D02*
X030667Y044037D01*
X030570Y044037D02*
X030570Y043747D01*
X030849Y043795D02*
X030898Y043747D01*
X030995Y043747D01*
X031043Y043795D01*
X031043Y043844D01*
X030995Y043892D01*
X030898Y043892D01*
X030849Y043844D01*
X030849Y043795D01*
X030898Y043892D02*
X030849Y043940D01*
X030849Y043989D01*
X030898Y044037D01*
X030995Y044037D01*
X031043Y043989D01*
X031043Y043940D01*
X030995Y043892D01*
X031144Y043940D02*
X031144Y043989D01*
X031193Y044037D01*
X031289Y044037D01*
X031338Y043989D01*
X031439Y043989D02*
X031439Y043892D01*
X031487Y043844D01*
X031632Y043844D01*
X031632Y043747D02*
X031632Y044037D01*
X031487Y044037D01*
X031439Y043989D01*
X031338Y043747D02*
X031144Y043940D01*
X031144Y043747D02*
X031338Y043747D01*
X031733Y044037D02*
X031927Y044037D01*
X031830Y044037D02*
X031830Y043747D01*
X032109Y043989D02*
X032303Y043795D01*
X032303Y043747D01*
X032404Y043747D02*
X032598Y043747D01*
X032404Y043940D01*
X032404Y043989D01*
X032453Y044037D01*
X032549Y044037D01*
X032598Y043989D01*
X032699Y043989D02*
X032699Y043892D01*
X032747Y043844D01*
X032892Y043844D01*
X032892Y043747D02*
X032892Y044037D01*
X032747Y044037D01*
X032699Y043989D01*
X032993Y044037D02*
X033187Y044037D01*
X033090Y044037D02*
X033090Y043747D01*
X032303Y044037D02*
X032109Y044037D01*
X032109Y043989D01*
X023565Y052719D02*
X023565Y052966D01*
X023688Y052842D02*
X023441Y052842D01*
X023320Y052966D02*
X023258Y053027D01*
X023135Y053027D01*
X023073Y052966D01*
X023073Y052904D01*
X023320Y052657D01*
X023073Y052657D01*
X022952Y052842D02*
X022705Y052842D01*
X022583Y052780D02*
X022583Y053027D01*
X022767Y053027D02*
X022767Y052657D01*
X022583Y052780D02*
X022460Y052657D01*
X022337Y052780D01*
X022337Y053027D01*
X022767Y053027D02*
X022952Y052842D01*
X021528Y053027D02*
X021281Y053027D01*
X021160Y053027D02*
X021160Y052657D01*
X021160Y052842D02*
X020913Y052842D01*
X020792Y052842D02*
X020668Y052842D01*
X020792Y052657D02*
X020545Y052657D01*
X020423Y052657D02*
X020423Y053027D01*
X020238Y053027D01*
X020177Y052966D01*
X020177Y052842D01*
X020238Y052780D01*
X020423Y052780D01*
X020300Y052780D02*
X020177Y052657D01*
X020055Y052657D02*
X020055Y053027D01*
X019932Y052904D01*
X019808Y053027D01*
X019808Y052657D01*
X020545Y053027D02*
X020792Y053027D01*
X020792Y052657D01*
X020913Y052657D02*
X020913Y053027D01*
X021405Y053027D02*
X021405Y052657D01*
X018408Y052657D02*
X018408Y053027D01*
X018408Y052842D02*
X018161Y052842D01*
X018040Y052842D02*
X017855Y052842D01*
X017793Y052780D01*
X017793Y052719D01*
X017855Y052657D01*
X018040Y052657D01*
X018040Y053027D01*
X017855Y053027D01*
X017793Y052966D01*
X017793Y052904D01*
X017855Y052842D01*
X018161Y053027D02*
X018161Y052657D01*
X018050Y051297D02*
X017953Y051297D01*
X017905Y051249D01*
X017953Y051152D02*
X017905Y051104D01*
X017905Y051055D01*
X017953Y051007D01*
X018050Y051007D01*
X018098Y051055D01*
X018050Y051152D02*
X017953Y051152D01*
X018050Y051152D02*
X018098Y051200D01*
X018098Y051249D01*
X018050Y051297D01*
X017707Y051297D02*
X017610Y051297D01*
X017659Y051297D02*
X017659Y051055D01*
X017707Y051007D01*
X017755Y051007D01*
X017804Y051055D01*
X017509Y051007D02*
X017316Y051007D01*
X017412Y051007D02*
X017412Y051297D01*
X017509Y051200D01*
X015828Y052722D02*
X015581Y052722D01*
X015460Y052846D02*
X015398Y052907D01*
X015275Y052907D01*
X015213Y052846D01*
X015213Y052784D01*
X015460Y052537D01*
X015213Y052537D01*
X015092Y052722D02*
X014845Y052722D01*
X014723Y052660D02*
X014600Y052537D01*
X014477Y052660D01*
X014477Y052907D01*
X014723Y052907D02*
X014723Y052660D01*
X014907Y052537D02*
X014907Y052907D01*
X015092Y052722D01*
X015705Y052846D02*
X015705Y052599D01*
X014028Y052599D02*
X013967Y052537D01*
X013843Y052537D01*
X013781Y052599D01*
X013781Y052722D01*
X013905Y052722D01*
X014028Y052599D02*
X014028Y052846D01*
X013967Y052907D01*
X013843Y052907D01*
X013781Y052846D01*
X013660Y052907D02*
X013413Y052537D01*
X013413Y052907D01*
X013292Y052907D02*
X013292Y052537D01*
X013107Y052537D01*
X013045Y052599D01*
X013045Y052846D01*
X013107Y052907D01*
X013292Y052907D01*
X013660Y052907D02*
X013660Y052537D01*
X012468Y052722D02*
X012221Y052722D01*
X012100Y052846D02*
X012038Y052907D01*
X011915Y052907D01*
X011853Y052846D01*
X011853Y052784D01*
X012100Y052537D01*
X011853Y052537D01*
X011732Y052722D02*
X011547Y052907D01*
X011547Y052537D01*
X011485Y052722D02*
X011732Y052722D01*
X011363Y052660D02*
X011363Y052907D01*
X011117Y052907D02*
X011117Y052660D01*
X011240Y052537D01*
X011363Y052660D01*
X010668Y052599D02*
X010668Y052846D01*
X010607Y052907D01*
X010483Y052907D01*
X010421Y052846D01*
X010421Y052722D02*
X010545Y052722D01*
X010421Y052722D02*
X010421Y052599D01*
X010483Y052537D01*
X010607Y052537D01*
X010668Y052599D01*
X010300Y052537D02*
X010300Y052907D01*
X010053Y052537D01*
X010053Y052907D01*
X009932Y052907D02*
X009747Y052907D01*
X009685Y052846D01*
X009685Y052599D01*
X009747Y052537D01*
X009932Y052537D01*
X009932Y052907D01*
X012345Y052846D02*
X012345Y052599D01*
X008648Y057737D02*
X008455Y057737D01*
X008552Y057737D02*
X008552Y057447D01*
X008354Y057447D02*
X008354Y057737D01*
X008209Y057737D01*
X008160Y057689D01*
X008160Y057592D01*
X008209Y057544D01*
X008354Y057544D01*
X008059Y057447D02*
X007866Y057640D01*
X007866Y057689D01*
X007914Y057737D01*
X008011Y057737D01*
X008059Y057689D01*
X008059Y057447D02*
X007866Y057447D01*
X007253Y057797D02*
X007060Y057797D01*
X007157Y057797D02*
X007157Y057507D01*
X006959Y057507D02*
X006959Y057797D01*
X006814Y057797D01*
X006765Y057749D01*
X006765Y057652D01*
X006814Y057604D01*
X006959Y057604D01*
X006664Y057700D02*
X006567Y057797D01*
X006567Y057507D01*
X006471Y057507D02*
X006664Y057507D01*
X013019Y045017D02*
X012971Y044969D01*
X012971Y044920D01*
X013019Y044872D01*
X012971Y044824D01*
X012971Y044775D01*
X013019Y044727D01*
X013116Y044727D01*
X013164Y044775D01*
X013266Y044727D02*
X013459Y044727D01*
X013362Y044727D02*
X013362Y045017D01*
X013459Y044920D01*
X013560Y044872D02*
X013609Y044824D01*
X013754Y044824D01*
X013754Y044727D02*
X013754Y045017D01*
X013609Y045017D01*
X013560Y044969D01*
X013560Y044872D01*
X013855Y045017D02*
X014048Y045017D01*
X013952Y045017D02*
X013952Y044727D01*
X013164Y044969D02*
X013116Y045017D01*
X013019Y045017D01*
X013019Y044872D02*
X013068Y044872D01*
X010368Y037117D02*
X010175Y037117D01*
X010272Y037117D02*
X010272Y036827D01*
X010074Y036827D02*
X010074Y037117D01*
X009929Y037117D01*
X009880Y037069D01*
X009880Y036972D01*
X009929Y036924D01*
X010074Y036924D01*
X009779Y036827D02*
X009586Y037020D01*
X009586Y037069D01*
X009634Y037117D01*
X009731Y037117D01*
X009779Y037069D01*
X009779Y036827D02*
X009586Y036827D01*
X009484Y036875D02*
X009436Y036827D01*
X009339Y036827D01*
X009291Y036875D01*
X009291Y036924D01*
X009339Y036972D01*
X009388Y036972D01*
X009339Y036972D02*
X009291Y037020D01*
X009291Y037069D01*
X009339Y037117D01*
X009436Y037117D01*
X009484Y037069D01*
X010431Y036469D02*
X010479Y036517D01*
X010576Y036517D01*
X010624Y036469D01*
X010726Y036469D02*
X010774Y036517D01*
X010871Y036517D01*
X010919Y036469D01*
X011020Y036469D02*
X011020Y036372D01*
X011069Y036324D01*
X011214Y036324D01*
X011214Y036227D02*
X011214Y036517D01*
X011069Y036517D01*
X011020Y036469D01*
X010919Y036227D02*
X010726Y036420D01*
X010726Y036469D01*
X010726Y036227D02*
X010919Y036227D01*
X010624Y036227D02*
X010431Y036420D01*
X010431Y036469D01*
X010431Y036227D02*
X010624Y036227D01*
X011315Y036517D02*
X011508Y036517D01*
X011412Y036517D02*
X011412Y036227D01*
X011608Y035797D02*
X011608Y035507D01*
X011704Y035507D02*
X011511Y035507D01*
X011704Y035700D02*
X011608Y035797D01*
X011806Y035749D02*
X011854Y035797D01*
X011951Y035797D01*
X011999Y035749D01*
X012100Y035749D02*
X012100Y035652D01*
X012149Y035604D01*
X012294Y035604D01*
X012294Y035507D02*
X012294Y035797D01*
X012149Y035797D01*
X012100Y035749D01*
X011999Y035507D02*
X011806Y035700D01*
X011806Y035749D01*
X011806Y035507D02*
X011999Y035507D01*
X012395Y035797D02*
X012588Y035797D01*
X012492Y035797D02*
X012492Y035507D01*
X009337Y035564D02*
X009144Y035564D01*
X009240Y035564D02*
X009240Y035273D01*
X009043Y035273D02*
X009043Y035564D01*
X008897Y035564D01*
X008849Y035515D01*
X008849Y035418D01*
X008897Y035370D01*
X009043Y035370D01*
X008748Y035273D02*
X008554Y035273D01*
X008651Y035273D02*
X008651Y035564D01*
X008748Y035467D01*
X008453Y035515D02*
X008405Y035564D01*
X008308Y035564D01*
X008260Y035515D01*
X008260Y035467D01*
X008453Y035273D01*
X008260Y035273D01*
X008374Y032977D02*
X008471Y032977D01*
X008520Y032929D01*
X008520Y032880D01*
X008471Y032832D01*
X008326Y032832D01*
X008326Y032735D02*
X008326Y032929D01*
X008374Y032977D01*
X008326Y032735D02*
X008374Y032687D01*
X008471Y032687D01*
X008520Y032735D01*
X008621Y032832D02*
X008669Y032784D01*
X008814Y032784D01*
X008814Y032687D02*
X008814Y032977D01*
X008669Y032977D01*
X008621Y032929D01*
X008621Y032832D01*
X008915Y032977D02*
X009109Y032977D01*
X009012Y032977D02*
X009012Y032687D01*
X009006Y031124D02*
X009006Y030833D01*
X008808Y030833D02*
X008808Y031124D01*
X008663Y031124D01*
X008614Y031075D01*
X008614Y030978D01*
X008663Y030930D01*
X008808Y030930D01*
X008909Y031124D02*
X009103Y031124D01*
X008513Y031124D02*
X008320Y031124D01*
X008320Y031075D01*
X008513Y030882D01*
X008513Y030833D01*
X008493Y022477D02*
X008444Y022429D01*
X008444Y022380D01*
X008493Y022332D01*
X008444Y022284D01*
X008444Y022235D01*
X008493Y022187D01*
X008589Y022187D01*
X008638Y022235D01*
X008541Y022332D02*
X008493Y022332D01*
X008493Y022477D02*
X008589Y022477D01*
X008638Y022429D01*
X008739Y022429D02*
X008739Y022332D01*
X008787Y022284D01*
X008932Y022284D01*
X008932Y022187D02*
X008932Y022477D01*
X008787Y022477D01*
X008739Y022429D01*
X009033Y022477D02*
X009227Y022477D01*
X009130Y022477D02*
X009130Y022187D01*
X008343Y022235D02*
X008295Y022187D01*
X008198Y022187D01*
X008149Y022235D01*
X008149Y022332D01*
X008198Y022380D01*
X008246Y022380D01*
X008343Y022332D01*
X008343Y022477D01*
X008149Y022477D01*
X008198Y021397D02*
X008343Y021252D01*
X008149Y021252D01*
X008198Y021107D02*
X008198Y021397D01*
X008444Y021349D02*
X008444Y021300D01*
X008493Y021252D01*
X008444Y021204D01*
X008444Y021155D01*
X008493Y021107D01*
X008589Y021107D01*
X008638Y021155D01*
X008541Y021252D02*
X008493Y021252D01*
X008444Y021349D02*
X008493Y021397D01*
X008589Y021397D01*
X008638Y021349D01*
X008739Y021349D02*
X008739Y021252D01*
X008787Y021204D01*
X008932Y021204D01*
X008932Y021107D02*
X008932Y021397D01*
X008787Y021397D01*
X008739Y021349D01*
X009033Y021397D02*
X009227Y021397D01*
X009130Y021397D02*
X009130Y021107D01*
X009130Y020137D02*
X009130Y019847D01*
X008932Y019847D02*
X008932Y020137D01*
X008787Y020137D01*
X008739Y020089D01*
X008739Y019992D01*
X008787Y019944D01*
X008932Y019944D01*
X009033Y020137D02*
X009227Y020137D01*
X008638Y020089D02*
X008589Y020137D01*
X008493Y020137D01*
X008444Y020089D01*
X008444Y020040D01*
X008493Y019992D01*
X008444Y019944D01*
X008444Y019895D01*
X008493Y019847D01*
X008589Y019847D01*
X008638Y019895D01*
X008541Y019992D02*
X008493Y019992D01*
X008343Y019895D02*
X008295Y019847D01*
X008198Y019847D01*
X008149Y019895D01*
X008149Y019944D01*
X008198Y019992D01*
X008246Y019992D01*
X008198Y019992D02*
X008149Y020040D01*
X008149Y020089D01*
X008198Y020137D01*
X008295Y020137D01*
X008343Y020089D01*
X012098Y015037D02*
X012049Y014989D01*
X012049Y014940D01*
X012098Y014892D01*
X012195Y014892D01*
X012243Y014940D01*
X012243Y014989D01*
X012195Y015037D01*
X012098Y015037D01*
X012098Y014892D02*
X012049Y014844D01*
X012049Y014795D01*
X012098Y014747D01*
X012195Y014747D01*
X012243Y014795D01*
X012243Y014844D01*
X012195Y014892D01*
X012344Y014844D02*
X012344Y014795D01*
X012393Y014747D01*
X012489Y014747D01*
X012538Y014795D01*
X012441Y014892D02*
X012393Y014892D01*
X012344Y014844D01*
X012393Y014892D02*
X012344Y014940D01*
X012344Y014989D01*
X012393Y015037D01*
X012489Y015037D01*
X012538Y014989D01*
X012639Y014989D02*
X012639Y014892D01*
X012687Y014844D01*
X012832Y014844D01*
X012832Y014747D02*
X012832Y015037D01*
X012687Y015037D01*
X012639Y014989D01*
X012933Y015037D02*
X013127Y015037D01*
X013030Y015037D02*
X013030Y014747D01*
X013030Y013837D02*
X013030Y013547D01*
X012832Y013547D02*
X012832Y013837D01*
X012687Y013837D01*
X012639Y013789D01*
X012639Y013692D01*
X012687Y013644D01*
X012832Y013644D01*
X012933Y013837D02*
X013127Y013837D01*
X012538Y013789D02*
X012489Y013837D01*
X012393Y013837D01*
X012344Y013789D01*
X012344Y013740D01*
X012393Y013692D01*
X012344Y013644D01*
X012344Y013595D01*
X012393Y013547D01*
X012489Y013547D01*
X012538Y013595D01*
X012441Y013692D02*
X012393Y013692D01*
X012243Y013595D02*
X012243Y013547D01*
X012243Y013595D02*
X012049Y013789D01*
X012049Y013837D01*
X012243Y013837D01*
X012109Y012577D02*
X012206Y012529D01*
X012303Y012432D01*
X012158Y012432D01*
X012109Y012384D01*
X012109Y012335D01*
X012158Y012287D01*
X012255Y012287D01*
X012303Y012335D01*
X012303Y012432D01*
X012404Y012384D02*
X012404Y012335D01*
X012453Y012287D01*
X012549Y012287D01*
X012598Y012335D01*
X012501Y012432D02*
X012453Y012432D01*
X012404Y012384D01*
X012453Y012432D02*
X012404Y012480D01*
X012404Y012529D01*
X012453Y012577D01*
X012549Y012577D01*
X012598Y012529D01*
X012699Y012529D02*
X012699Y012432D01*
X012747Y012384D01*
X012892Y012384D01*
X012892Y012287D02*
X012892Y012577D01*
X012747Y012577D01*
X012699Y012529D01*
X012993Y012577D02*
X013187Y012577D01*
X013090Y012577D02*
X013090Y012287D01*
X013199Y008151D02*
X013151Y008103D01*
X013344Y007909D01*
X013296Y007861D01*
X013199Y007861D01*
X013151Y007909D01*
X013151Y008103D01*
X013199Y008151D02*
X013296Y008151D01*
X013344Y008103D01*
X013344Y007909D01*
X013446Y007861D02*
X013639Y007861D01*
X013446Y008054D01*
X013446Y008103D01*
X013494Y008151D01*
X013591Y008151D01*
X013639Y008103D01*
X013740Y008103D02*
X013740Y008006D01*
X013789Y007957D01*
X013934Y007957D01*
X013934Y007861D02*
X013934Y008151D01*
X013789Y008151D01*
X013740Y008103D01*
X014035Y008151D02*
X014228Y008151D01*
X014132Y008151D02*
X014132Y007861D01*
X014771Y007909D02*
X014771Y008103D01*
X014819Y008151D01*
X014916Y008151D01*
X014964Y008103D01*
X014964Y008054D01*
X014916Y008006D01*
X014771Y008006D01*
X014771Y007909D02*
X014819Y007861D01*
X014916Y007861D01*
X014964Y007909D01*
X015066Y007861D02*
X015259Y007861D01*
X015162Y007861D02*
X015162Y008151D01*
X015259Y008054D01*
X015360Y008006D02*
X015409Y007957D01*
X015554Y007957D01*
X015554Y007861D02*
X015554Y008151D01*
X015409Y008151D01*
X015360Y008103D01*
X015360Y008006D01*
X015655Y008151D02*
X015848Y008151D01*
X015752Y008151D02*
X015752Y007861D01*
X016331Y008103D02*
X016524Y007909D01*
X016524Y007861D01*
X016626Y007861D02*
X016819Y007861D01*
X016722Y007861D02*
X016722Y008151D01*
X016819Y008054D01*
X016920Y008006D02*
X016969Y007957D01*
X017114Y007957D01*
X017114Y007861D02*
X017114Y008151D01*
X016969Y008151D01*
X016920Y008103D01*
X016920Y008006D01*
X017215Y008151D02*
X017408Y008151D01*
X017312Y008151D02*
X017312Y007861D01*
X017891Y007909D02*
X017891Y007957D01*
X017939Y008006D01*
X018084Y008006D01*
X018084Y007909D01*
X018036Y007861D01*
X017939Y007861D01*
X017891Y007909D01*
X017988Y008103D02*
X018084Y008006D01*
X017988Y008103D02*
X017891Y008151D01*
X018282Y008151D02*
X018282Y007861D01*
X018186Y007861D02*
X018379Y007861D01*
X018480Y008006D02*
X018529Y007957D01*
X018674Y007957D01*
X018674Y007861D02*
X018674Y008151D01*
X018529Y008151D01*
X018480Y008103D01*
X018480Y008006D01*
X018379Y008054D02*
X018282Y008151D01*
X018775Y008151D02*
X018968Y008151D01*
X018872Y008151D02*
X018872Y007861D01*
X020946Y008006D02*
X021139Y008006D01*
X020994Y008151D01*
X020994Y007861D01*
X021240Y008006D02*
X021289Y007957D01*
X021434Y007957D01*
X021434Y007861D02*
X021434Y008151D01*
X021289Y008151D01*
X021240Y008103D01*
X021240Y008006D01*
X021535Y008151D02*
X021728Y008151D01*
X021632Y008151D02*
X021632Y007861D01*
X022626Y007909D02*
X022674Y007861D01*
X022771Y007861D01*
X022819Y007909D01*
X022819Y008006D02*
X022722Y008054D01*
X022674Y008054D01*
X022626Y008006D01*
X022626Y007909D01*
X022819Y008006D02*
X022819Y008151D01*
X022626Y008151D01*
X022920Y008103D02*
X022920Y008006D01*
X022969Y007957D01*
X023114Y007957D01*
X023114Y007861D02*
X023114Y008151D01*
X022969Y008151D01*
X022920Y008103D01*
X023215Y008151D02*
X023408Y008151D01*
X023312Y008151D02*
X023312Y007861D01*
X024071Y007909D02*
X024119Y007861D01*
X024216Y007861D01*
X024264Y007909D01*
X024264Y008006D02*
X024168Y008054D01*
X024119Y008054D01*
X024071Y008006D01*
X024071Y007909D01*
X024264Y008006D02*
X024264Y008151D01*
X024071Y008151D01*
X024462Y008151D02*
X024462Y007861D01*
X024366Y007861D02*
X024559Y007861D01*
X024660Y008006D02*
X024709Y007957D01*
X024854Y007957D01*
X024854Y007861D02*
X024854Y008151D01*
X024709Y008151D01*
X024660Y008103D01*
X024660Y008006D01*
X024559Y008054D02*
X024462Y008151D01*
X024955Y008151D02*
X025148Y008151D01*
X025052Y008151D02*
X025052Y007861D01*
X027238Y016247D02*
X027335Y016247D01*
X027383Y016295D01*
X027189Y016489D01*
X027189Y016295D01*
X027238Y016247D01*
X027383Y016295D02*
X027383Y016489D01*
X027335Y016537D01*
X027238Y016537D01*
X027189Y016489D01*
X027484Y016489D02*
X027484Y016440D01*
X027533Y016392D01*
X027484Y016344D01*
X027484Y016295D01*
X027533Y016247D01*
X027629Y016247D01*
X027678Y016295D01*
X027581Y016392D02*
X027533Y016392D01*
X027484Y016489D02*
X027533Y016537D01*
X027629Y016537D01*
X027678Y016489D01*
X027779Y016489D02*
X027779Y016392D01*
X027827Y016344D01*
X027972Y016344D01*
X027972Y016247D02*
X027972Y016537D01*
X027827Y016537D01*
X027779Y016489D01*
X028073Y016537D02*
X028267Y016537D01*
X028170Y016537D02*
X028170Y016247D01*
X028170Y017507D02*
X028170Y017797D01*
X028267Y017797D02*
X028073Y017797D01*
X027972Y017797D02*
X027827Y017797D01*
X027779Y017749D01*
X027779Y017652D01*
X027827Y017604D01*
X027972Y017604D01*
X027972Y017507D02*
X027972Y017797D01*
X027678Y017749D02*
X027629Y017797D01*
X027533Y017797D01*
X027484Y017749D01*
X027484Y017700D01*
X027533Y017652D01*
X027484Y017604D01*
X027484Y017555D01*
X027533Y017507D01*
X027629Y017507D01*
X027678Y017555D01*
X027581Y017652D02*
X027533Y017652D01*
X027383Y017700D02*
X027286Y017797D01*
X027286Y017507D01*
X027383Y017507D02*
X027189Y017507D01*
X027189Y018707D02*
X027383Y018707D01*
X027189Y018900D01*
X027189Y018949D01*
X027238Y018997D01*
X027335Y018997D01*
X027383Y018949D01*
X027484Y018949D02*
X027484Y018900D01*
X027533Y018852D01*
X027484Y018804D01*
X027484Y018755D01*
X027533Y018707D01*
X027629Y018707D01*
X027678Y018755D01*
X027581Y018852D02*
X027533Y018852D01*
X027484Y018949D02*
X027533Y018997D01*
X027629Y018997D01*
X027678Y018949D01*
X027779Y018949D02*
X027779Y018852D01*
X027827Y018804D01*
X027972Y018804D01*
X027972Y018707D02*
X027972Y018997D01*
X027827Y018997D01*
X027779Y018949D01*
X028073Y018997D02*
X028267Y018997D01*
X028170Y018997D02*
X028170Y018707D01*
X020312Y034347D02*
X020312Y034637D01*
X020408Y034637D02*
X020215Y034637D01*
X020114Y034637D02*
X019969Y034637D01*
X019920Y034589D01*
X019920Y034492D01*
X019969Y034444D01*
X020114Y034444D01*
X020114Y034347D02*
X020114Y034637D01*
X019819Y034589D02*
X019771Y034637D01*
X019674Y034637D01*
X019626Y034589D01*
X019626Y034540D01*
X019674Y034492D01*
X019626Y034444D01*
X019626Y034395D01*
X019674Y034347D01*
X019771Y034347D01*
X019819Y034395D01*
X019722Y034492D02*
X019674Y034492D01*
X016524Y008151D02*
X016331Y008151D01*
X016331Y008103D01*
D14*
X016263Y052222D02*
X013743Y052222D01*
X012003Y052222D02*
X009303Y052222D01*
X009303Y056722D01*
X016263Y056722D01*
X016263Y052222D01*
X016983Y052222D02*
X023823Y052222D01*
X023823Y056722D01*
X016983Y056722D01*
X016983Y052222D01*
D15*
X017915Y044088D02*
X017915Y044042D01*
X017822Y043948D01*
X017822Y043859D02*
X017822Y043672D01*
X017868Y043672D02*
X017915Y043719D01*
X017915Y043812D01*
X017868Y043859D01*
X017822Y043859D01*
X017728Y043812D02*
X017728Y043719D01*
X017775Y043672D01*
X017868Y043672D01*
X017915Y043583D02*
X017915Y043442D01*
X017868Y043396D01*
X017775Y043396D01*
X017728Y043442D01*
X017728Y043583D01*
X018009Y043583D01*
X017868Y043306D02*
X017728Y043306D01*
X017868Y043306D02*
X017915Y043260D01*
X017915Y043120D01*
X017728Y043120D01*
X017728Y043030D02*
X017915Y043030D01*
X017728Y043030D02*
X017728Y042890D01*
X017775Y042843D01*
X017915Y042843D01*
X017559Y042868D02*
X017512Y042915D01*
X017325Y042915D01*
X017278Y042868D01*
X017278Y042775D01*
X017325Y042728D01*
X017512Y042728D01*
X017559Y042775D01*
X017559Y042868D01*
X017559Y043004D02*
X017278Y043004D01*
X017418Y043004D02*
X017418Y043191D01*
X017278Y043191D02*
X017559Y043191D01*
X017559Y043281D02*
X017278Y043281D01*
X017278Y043468D01*
X017728Y043948D02*
X017915Y043948D01*
X017418Y042639D02*
X017418Y042452D01*
X017278Y042363D02*
X017559Y042363D01*
X017728Y042338D02*
X017775Y042291D01*
X017868Y042291D01*
X017915Y042338D01*
X017915Y042478D01*
X018009Y042478D02*
X017728Y042478D01*
X017728Y042338D01*
X017822Y042201D02*
X017822Y042015D01*
X017868Y042015D02*
X017915Y042061D01*
X017915Y042155D01*
X017868Y042201D01*
X017822Y042201D01*
X017728Y042155D02*
X017728Y042061D01*
X017775Y042015D01*
X017868Y042015D01*
X017915Y041925D02*
X017915Y041785D01*
X017868Y041738D01*
X017822Y041785D01*
X017822Y041879D01*
X017775Y041925D01*
X017728Y041879D01*
X017728Y041738D01*
X017728Y041649D02*
X017728Y041509D01*
X017775Y041462D01*
X017822Y041509D01*
X017822Y041649D01*
X017868Y041649D02*
X017728Y041649D01*
X017868Y041649D02*
X017915Y041602D01*
X017915Y041509D01*
X017868Y041373D02*
X017822Y041373D01*
X017822Y041186D01*
X017868Y041186D02*
X017915Y041233D01*
X017915Y041326D01*
X017868Y041373D01*
X017728Y041326D02*
X017728Y041233D01*
X017775Y041186D01*
X017868Y041186D01*
X017728Y041095D02*
X017728Y041002D01*
X017728Y041048D02*
X018009Y041048D01*
X018009Y041002D01*
X017915Y040866D02*
X017868Y040912D01*
X017822Y040912D01*
X017822Y040726D01*
X017868Y040726D02*
X017915Y040772D01*
X017915Y040866D01*
X017868Y040726D02*
X017775Y040726D01*
X017728Y040772D01*
X017728Y040866D01*
X017728Y040636D02*
X017822Y040543D01*
X017822Y040589D02*
X017822Y040449D01*
X017728Y040449D02*
X018009Y040449D01*
X018009Y040589D01*
X017962Y040636D01*
X017868Y040636D01*
X017822Y040589D01*
X017512Y041347D02*
X017325Y041347D01*
X017278Y041394D01*
X017278Y041487D01*
X017325Y041534D01*
X017278Y041623D02*
X017278Y041810D01*
X017278Y041900D02*
X017559Y041900D01*
X017559Y042040D01*
X017512Y042086D01*
X017418Y042086D01*
X017372Y042040D01*
X017372Y041900D01*
X017372Y041993D02*
X017278Y042086D01*
X017278Y042176D02*
X017559Y042176D01*
X017278Y042363D01*
X017559Y041810D02*
X017559Y041623D01*
X017278Y041623D01*
X017418Y041623D02*
X017418Y041717D01*
X017512Y041534D02*
X017559Y041487D01*
X017559Y041394D01*
X017512Y041347D01*
D16*
X014767Y039967D02*
X014767Y039727D01*
X014449Y039695D01*
X014415Y039588D01*
X014364Y039488D01*
X014566Y039241D01*
X014396Y039071D01*
X014149Y039273D01*
X014049Y039222D01*
X013942Y039188D01*
X013910Y038870D01*
X013670Y038870D01*
X013638Y039188D01*
X013531Y039222D01*
X013431Y039273D01*
X013184Y039071D01*
X013014Y039241D01*
X013216Y039488D01*
X013165Y039588D01*
X013506Y039729D01*
X013534Y039676D01*
X013572Y039630D01*
X013619Y039591D01*
X013672Y039563D01*
X013730Y039545D01*
X013790Y039539D01*
X013853Y039546D01*
X013913Y039565D01*
X013968Y039596D01*
X014015Y039638D01*
X014053Y039688D01*
X014080Y039745D01*
X014095Y039807D01*
X014097Y039870D01*
X014086Y039932D01*
X014062Y039991D01*
X014027Y040043D01*
X013982Y040088D01*
X013929Y040122D01*
X013870Y040144D01*
X013807Y040154D01*
X013744Y040151D01*
X013683Y040135D01*
X013626Y040107D01*
X013577Y040069D01*
X013536Y040020D01*
X013506Y039965D01*
X013165Y040106D01*
X013216Y040206D01*
X013014Y040453D01*
X013184Y040623D01*
X013431Y040421D01*
X013531Y040472D01*
X013638Y040506D01*
X013670Y040824D01*
X013910Y040824D01*
X013942Y040506D01*
X014049Y040472D01*
X014149Y040421D01*
X014396Y040623D01*
X014566Y040453D01*
X014364Y040206D01*
X014415Y040106D01*
X014449Y039999D01*
X014767Y039967D01*
X014767Y039961D02*
X014074Y039961D01*
X014091Y039904D02*
X014767Y039904D01*
X014767Y039846D02*
X014096Y039846D01*
X014091Y039789D02*
X014767Y039789D01*
X014767Y039731D02*
X014074Y039731D01*
X014042Y039674D02*
X014443Y039674D01*
X014424Y039616D02*
X013991Y039616D01*
X013892Y039559D02*
X014400Y039559D01*
X014370Y039501D02*
X013210Y039501D01*
X013180Y039559D02*
X013686Y039559D01*
X013589Y039616D02*
X013232Y039616D01*
X013371Y039674D02*
X013536Y039674D01*
X013535Y040019D02*
X013375Y040019D01*
X013236Y040077D02*
X013587Y040077D01*
X013680Y040134D02*
X013179Y040134D01*
X013209Y040192D02*
X014371Y040192D01*
X014399Y040249D02*
X013181Y040249D01*
X013134Y040307D02*
X014446Y040307D01*
X014493Y040364D02*
X013087Y040364D01*
X013040Y040422D02*
X013430Y040422D01*
X013433Y040422D02*
X014147Y040422D01*
X014150Y040422D02*
X014540Y040422D01*
X014539Y040479D02*
X014220Y040479D01*
X014291Y040537D02*
X014482Y040537D01*
X014424Y040595D02*
X014361Y040595D01*
X014026Y040479D02*
X013554Y040479D01*
X013641Y040537D02*
X013939Y040537D01*
X013933Y040595D02*
X013647Y040595D01*
X013653Y040652D02*
X013927Y040652D01*
X013922Y040710D02*
X013658Y040710D01*
X013664Y040767D02*
X013916Y040767D01*
X013360Y040479D02*
X013041Y040479D01*
X013098Y040537D02*
X013289Y040537D01*
X013218Y040595D02*
X013156Y040595D01*
X013896Y040134D02*
X014401Y040134D01*
X014425Y040077D02*
X013993Y040077D01*
X014043Y040019D02*
X014443Y040019D01*
X014401Y039443D02*
X013179Y039443D01*
X013132Y039386D02*
X014447Y039386D01*
X014494Y039328D02*
X013086Y039328D01*
X013039Y039271D02*
X013428Y039271D01*
X013436Y039271D02*
X014144Y039271D01*
X014151Y039271D02*
X014541Y039271D01*
X014538Y039213D02*
X014222Y039213D01*
X014293Y039156D02*
X014480Y039156D01*
X014423Y039098D02*
X014363Y039098D01*
X014022Y039213D02*
X013558Y039213D01*
X013641Y039156D02*
X013939Y039156D01*
X013933Y039098D02*
X013647Y039098D01*
X013653Y039041D02*
X013927Y039041D01*
X013921Y038983D02*
X013659Y038983D01*
X013664Y038925D02*
X013916Y038925D01*
X013358Y039213D02*
X013042Y039213D01*
X013100Y039156D02*
X013287Y039156D01*
X013217Y039098D02*
X013157Y039098D01*
D17*
X011223Y031281D03*
X011223Y027623D03*
X017485Y029406D03*
D18*
X011223Y032504D03*
D19*
X011232Y032529D03*
X011232Y031310D03*
X012567Y031310D03*
X012567Y032529D03*
X014997Y031650D03*
X017112Y031650D03*
X017502Y029435D03*
X017112Y028755D03*
X014997Y028755D03*
X011232Y027652D03*
D20*
X011232Y029112D03*
X016930Y028622D03*
X016930Y031782D03*
D21*
X012326Y033068D03*
X012326Y029759D03*
X012335Y029759D03*
X012351Y029759D03*
X012360Y029759D03*
X012385Y029759D03*
X012401Y029759D03*
X012310Y029759D03*
X012302Y029759D03*
X012277Y029759D03*
X012260Y029759D03*
X012235Y029759D03*
X012210Y029759D03*
X012194Y029759D03*
X012169Y029759D03*
X012161Y029759D03*
X012144Y029759D03*
X012136Y029759D03*
X012111Y029759D03*
X012094Y029759D03*
X012069Y029759D03*
X012044Y029759D03*
X012020Y029759D03*
X012003Y029759D03*
X011978Y029759D03*
X011970Y029759D03*
X011953Y029759D03*
X011945Y029759D03*
X011920Y029759D03*
X011903Y029759D03*
X011879Y029759D03*
X011854Y029759D03*
X011829Y029759D03*
X011812Y029759D03*
X011787Y029759D03*
X011779Y029759D03*
X011762Y029759D03*
X011754Y029759D03*
X011729Y029759D03*
X011713Y029759D03*
X011688Y029759D03*
X011663Y029759D03*
X011646Y029759D03*
X011621Y029759D03*
X011613Y029759D03*
X011597Y029759D03*
X011588Y029759D03*
X011572Y029759D03*
X011563Y029759D03*
X011539Y029759D03*
X011522Y029759D03*
X011497Y029759D03*
X011472Y029759D03*
X011456Y029759D03*
X011431Y029759D03*
X011422Y029759D03*
X011406Y029759D03*
X011398Y029759D03*
X011373Y029759D03*
X011356Y029759D03*
X011331Y029759D03*
X011306Y029759D03*
X011281Y029759D03*
X011265Y029759D03*
X011240Y029759D03*
X011232Y029759D03*
X011398Y027337D03*
X011406Y027337D03*
X011422Y027337D03*
X011431Y027337D03*
X011456Y027337D03*
X011472Y027337D03*
X011497Y027337D03*
X011522Y027337D03*
X011539Y027337D03*
X011563Y027337D03*
X011572Y027337D03*
X011588Y027337D03*
X011597Y027337D03*
X011613Y027337D03*
X011621Y027337D03*
X011646Y027337D03*
X011663Y027337D03*
X011688Y027337D03*
X011713Y027337D03*
X011729Y027337D03*
X011754Y027337D03*
X011762Y027337D03*
X011779Y027337D03*
X011787Y027337D03*
X011812Y027337D03*
X011978Y027337D03*
X012003Y027337D03*
X012020Y027337D03*
X012044Y027337D03*
X012069Y027337D03*
X012094Y027337D03*
X012111Y027337D03*
X012136Y027337D03*
X012144Y027337D03*
X012161Y027337D03*
X012169Y027337D03*
X012194Y027337D03*
X012210Y027337D03*
X012235Y027337D03*
X012260Y027337D03*
X012277Y027337D03*
X012302Y027337D03*
X012310Y027337D03*
X012326Y027337D03*
X012335Y027337D03*
X012351Y027337D03*
X012360Y027337D03*
X012385Y027337D03*
X012401Y027337D03*
D22*
X012310Y028191D03*
X012277Y028199D03*
X012260Y028199D03*
X012235Y028199D03*
X012210Y028199D03*
X012194Y028199D03*
X012169Y028199D03*
X012161Y028199D03*
X012144Y028199D03*
X012136Y028199D03*
X012111Y028199D03*
X012111Y028556D03*
X012094Y028556D03*
X012069Y028556D03*
X012044Y028556D03*
X012020Y028556D03*
X012003Y028556D03*
X011978Y028556D03*
X011970Y028556D03*
X011953Y028556D03*
X011945Y028556D03*
X011920Y028556D03*
X011903Y028556D03*
X011879Y028556D03*
X011854Y028556D03*
X011829Y028556D03*
X011812Y028556D03*
X011787Y028556D03*
X011779Y028556D03*
X011762Y028556D03*
X011754Y028556D03*
X011729Y028556D03*
X011713Y028556D03*
X011688Y028556D03*
X011663Y028556D03*
X011646Y028556D03*
X011621Y028556D03*
X011613Y028556D03*
X011597Y028556D03*
X011588Y028556D03*
X011572Y028556D03*
X011563Y028556D03*
X011539Y028556D03*
X011522Y028556D03*
X011522Y028199D03*
X011539Y028199D03*
X011563Y028199D03*
X011572Y028199D03*
X011588Y028199D03*
X011597Y028199D03*
X011613Y028199D03*
X011621Y028199D03*
X011646Y028199D03*
X011663Y028199D03*
X011688Y028199D03*
X011713Y028191D03*
X012136Y028556D03*
X012144Y028556D03*
X012161Y028556D03*
X012169Y028556D03*
X012194Y028556D03*
X012210Y028556D03*
X012235Y028556D03*
X012260Y028556D03*
X012277Y028556D03*
X012310Y030629D03*
X012277Y030638D03*
X012260Y030638D03*
X012235Y030638D03*
X012210Y030638D03*
X012194Y030638D03*
X012169Y030638D03*
X012161Y030638D03*
X012144Y030638D03*
X012136Y030638D03*
X012111Y030638D03*
X012094Y030638D03*
X012069Y030638D03*
X012044Y030638D03*
X012020Y030638D03*
X012003Y030638D03*
X011978Y030638D03*
X011970Y030638D03*
X011953Y030638D03*
X011945Y030638D03*
X011920Y030638D03*
X011903Y030638D03*
X011879Y030638D03*
X011854Y030638D03*
X011829Y030638D03*
X011812Y030638D03*
X011787Y030638D03*
X011779Y030638D03*
X011762Y030638D03*
X011754Y030638D03*
X011729Y030638D03*
X011713Y030638D03*
X011688Y030638D03*
X011663Y030638D03*
X011646Y030638D03*
X011621Y030638D03*
X011613Y030638D03*
X011597Y030638D03*
X011588Y030638D03*
X011572Y030638D03*
X011563Y030638D03*
X011539Y030638D03*
X011522Y030638D03*
X011497Y030638D03*
X011472Y030638D03*
X011456Y030638D03*
X011431Y030638D03*
X011422Y030638D03*
X011406Y030638D03*
X011398Y030638D03*
X011373Y030638D03*
X011356Y030638D03*
X011331Y030638D03*
X011306Y030638D03*
X011281Y030638D03*
X011265Y030638D03*
X011240Y030638D03*
X011232Y030638D03*
X011472Y031849D03*
X011522Y031857D03*
X011539Y031857D03*
X011563Y031857D03*
X011572Y031857D03*
X011588Y031857D03*
X011597Y031857D03*
X011613Y031857D03*
X011621Y031857D03*
X011646Y031857D03*
X011663Y031857D03*
X011688Y031857D03*
X011688Y032214D03*
X011713Y032214D03*
X011729Y032214D03*
X011754Y032214D03*
X011762Y032214D03*
X011779Y032214D03*
X011787Y032214D03*
X011812Y032214D03*
X011829Y032214D03*
X011854Y032214D03*
X011879Y032214D03*
X011903Y032214D03*
X011920Y032214D03*
X011945Y032214D03*
X011953Y032214D03*
X011970Y032214D03*
X011978Y032214D03*
X012003Y032214D03*
X012020Y032214D03*
X012044Y032214D03*
X012069Y032214D03*
X012094Y032214D03*
X012111Y032214D03*
X012136Y032214D03*
X012144Y032214D03*
X012161Y032214D03*
X012169Y032214D03*
X012194Y032214D03*
X012210Y032214D03*
X012235Y032214D03*
X012260Y032214D03*
X012277Y032214D03*
X012302Y032214D03*
X012310Y032214D03*
X012326Y032214D03*
X012335Y032214D03*
X012351Y032214D03*
X012360Y032214D03*
X012385Y032214D03*
X012401Y032214D03*
X012277Y031857D03*
X012260Y031857D03*
X012235Y031857D03*
X012210Y031857D03*
X012194Y031857D03*
X012169Y031857D03*
X012161Y031857D03*
X012144Y031857D03*
X012136Y031857D03*
X012111Y031857D03*
X011663Y032214D03*
X011646Y032214D03*
X011621Y032214D03*
X011613Y032214D03*
X011597Y032214D03*
X011588Y032214D03*
X011572Y032214D03*
X011563Y032214D03*
X011539Y032214D03*
X011522Y032214D03*
X011497Y032214D03*
X011472Y032214D03*
X011456Y032214D03*
X011431Y032214D03*
X011422Y032214D03*
X011406Y032214D03*
X011398Y032214D03*
X011497Y033076D03*
X011522Y033076D03*
X011539Y033076D03*
X011563Y033076D03*
X011572Y033076D03*
X011588Y033076D03*
X011597Y033076D03*
X011613Y033076D03*
X011621Y033076D03*
X011646Y033076D03*
X011663Y033076D03*
X011688Y033076D03*
X011713Y033076D03*
X011729Y033076D03*
X011754Y033076D03*
X011762Y033076D03*
X011779Y033076D03*
X011787Y033076D03*
X011812Y033076D03*
X011829Y033076D03*
X011854Y033076D03*
X011879Y033076D03*
X011903Y033076D03*
X011920Y033076D03*
X011945Y033076D03*
X011953Y033076D03*
X011970Y033076D03*
X011978Y033076D03*
X012003Y033076D03*
X012020Y033076D03*
X012044Y033076D03*
X012069Y033076D03*
X012094Y033076D03*
X012111Y033076D03*
X012136Y033076D03*
X012144Y033076D03*
X012161Y033076D03*
X012169Y033076D03*
X012194Y033076D03*
X012210Y033076D03*
X012235Y033076D03*
X012260Y033076D03*
X012277Y033076D03*
X012302Y033076D03*
X014160Y029311D03*
X017950Y031094D03*
D23*
X014956Y031612D03*
X014765Y030202D03*
X011240Y031322D03*
X011240Y027664D03*
D24*
X011240Y029091D03*
X012567Y027648D03*
X015022Y028734D03*
X017087Y028734D03*
X017087Y031670D03*
X015047Y031687D03*
X015022Y031670D03*
D25*
X017170Y031600D03*
X017170Y028805D03*
X011920Y031442D03*
X011879Y031442D03*
X011240Y032545D03*
D26*
X011248Y032554D03*
X011248Y031334D03*
X011937Y031451D03*
X011248Y027677D03*
X017203Y028830D03*
X017203Y031575D03*
D27*
X014964Y031625D03*
X014964Y028780D03*
X011248Y029078D03*
D28*
X011248Y029759D03*
X011273Y029759D03*
X011298Y029759D03*
X011315Y029759D03*
X011339Y029759D03*
X011364Y029759D03*
X011389Y029759D03*
X011439Y029759D03*
X011464Y029759D03*
X011489Y029759D03*
X011505Y029759D03*
X011530Y029759D03*
X011555Y029759D03*
X011630Y029759D03*
X011655Y029759D03*
X011680Y029759D03*
X011696Y029759D03*
X011721Y029759D03*
X011746Y029759D03*
X011796Y029759D03*
X011821Y029759D03*
X011845Y029759D03*
X011870Y029759D03*
X011887Y029759D03*
X011912Y029759D03*
X011937Y029759D03*
X011986Y029759D03*
X012011Y029759D03*
X012036Y029759D03*
X012053Y029759D03*
X012078Y029759D03*
X012103Y029759D03*
X012127Y029759D03*
X012177Y029759D03*
X012202Y029759D03*
X012227Y029759D03*
X012244Y029759D03*
X012268Y029759D03*
X012293Y029759D03*
X012368Y029759D03*
X012393Y029759D03*
X012418Y029759D03*
X012418Y027337D03*
X012393Y027337D03*
X012368Y027337D03*
X012293Y027337D03*
X012268Y027337D03*
X012244Y027337D03*
X012227Y027337D03*
X012202Y027337D03*
X012177Y027337D03*
X012127Y027337D03*
X012103Y027337D03*
X012078Y027337D03*
X012053Y027337D03*
X012036Y027337D03*
X012011Y027337D03*
X011986Y027337D03*
X011796Y027337D03*
X011746Y027337D03*
X011721Y027337D03*
X011696Y027337D03*
X011680Y027337D03*
X011655Y027337D03*
X011630Y027337D03*
X011555Y027337D03*
X011530Y027337D03*
X011505Y027337D03*
X011489Y027337D03*
X011464Y027337D03*
X011439Y027337D03*
X011389Y027337D03*
D29*
X011489Y028191D03*
X011530Y028199D03*
X011555Y028199D03*
X011630Y028199D03*
X011655Y028199D03*
X011680Y028199D03*
X011721Y028191D03*
X012078Y028191D03*
X012127Y028199D03*
X012177Y028199D03*
X012202Y028199D03*
X012227Y028199D03*
X012244Y028199D03*
X012268Y028199D03*
X012268Y028556D03*
X012244Y028556D03*
X012227Y028556D03*
X012202Y028556D03*
X012177Y028556D03*
X012127Y028556D03*
X012103Y028556D03*
X012078Y028556D03*
X012053Y028556D03*
X012036Y028556D03*
X012011Y028556D03*
X011986Y028556D03*
X011937Y028556D03*
X011912Y028556D03*
X011887Y028556D03*
X011870Y028556D03*
X011845Y028556D03*
X011821Y028556D03*
X011796Y028556D03*
X011746Y028556D03*
X011721Y028556D03*
X011696Y028556D03*
X011680Y028556D03*
X011655Y028556D03*
X011630Y028556D03*
X011555Y028556D03*
X011530Y028556D03*
X012293Y028556D03*
X012268Y030638D03*
X012244Y030638D03*
X012227Y030638D03*
X012202Y030638D03*
X012177Y030638D03*
X012127Y030638D03*
X012103Y030638D03*
X012078Y030638D03*
X012053Y030638D03*
X012036Y030638D03*
X012011Y030638D03*
X011986Y030638D03*
X011937Y030638D03*
X011912Y030638D03*
X011887Y030638D03*
X011870Y030638D03*
X011845Y030638D03*
X011821Y030638D03*
X011796Y030638D03*
X011746Y030638D03*
X011721Y030638D03*
X011696Y030638D03*
X011680Y030638D03*
X011655Y030638D03*
X011630Y030638D03*
X011555Y030638D03*
X011530Y030638D03*
X011505Y030638D03*
X011489Y030638D03*
X011464Y030638D03*
X011439Y030638D03*
X011389Y030638D03*
X011364Y030638D03*
X011339Y030638D03*
X011315Y030638D03*
X011298Y030638D03*
X011273Y030638D03*
X011248Y030638D03*
X011505Y031857D03*
X011530Y031857D03*
X011555Y031857D03*
X011630Y031857D03*
X011655Y031857D03*
X011680Y031857D03*
X011696Y031857D03*
X011721Y031849D03*
X012078Y031849D03*
X012103Y031857D03*
X012127Y031857D03*
X012177Y031857D03*
X012202Y031857D03*
X012227Y031857D03*
X012244Y031857D03*
X012268Y031857D03*
X012293Y031857D03*
X012293Y032214D03*
X012268Y032214D03*
X012244Y032214D03*
X012227Y032214D03*
X012202Y032214D03*
X012177Y032214D03*
X012127Y032214D03*
X012103Y032214D03*
X012078Y032214D03*
X012053Y032214D03*
X012036Y032214D03*
X012011Y032214D03*
X011986Y032214D03*
X011937Y032214D03*
X011912Y032214D03*
X011887Y032214D03*
X011870Y032214D03*
X011845Y032214D03*
X011821Y032214D03*
X011796Y032214D03*
X011746Y032214D03*
X011721Y032214D03*
X011696Y032214D03*
X011680Y032214D03*
X011655Y032214D03*
X011630Y032214D03*
X011555Y032214D03*
X011530Y032214D03*
X011505Y032214D03*
X011489Y032214D03*
X011464Y032214D03*
X011439Y032214D03*
X011389Y032214D03*
X011505Y033076D03*
X011530Y033076D03*
X011555Y033076D03*
X011630Y033076D03*
X011655Y033076D03*
X011680Y033076D03*
X011696Y033076D03*
X011721Y033076D03*
X011746Y033076D03*
X011796Y033076D03*
X011821Y033076D03*
X011845Y033076D03*
X011870Y033076D03*
X011887Y033076D03*
X011912Y033076D03*
X011937Y033076D03*
X011986Y033076D03*
X012011Y033076D03*
X012036Y033076D03*
X012053Y033076D03*
X012078Y033076D03*
X012103Y033076D03*
X012127Y033076D03*
X012177Y033076D03*
X012202Y033076D03*
X012227Y033076D03*
X012244Y033076D03*
X012268Y033076D03*
X012293Y033076D03*
X012368Y032214D03*
X012393Y032214D03*
X012418Y032214D03*
X014151Y031077D03*
X014840Y028531D03*
X017270Y031874D03*
X017958Y029327D03*
D30*
X017228Y028854D03*
X014881Y031550D03*
X012542Y031343D03*
X011257Y031343D03*
X011257Y027685D03*
X012542Y027685D03*
D31*
X011257Y029066D03*
D32*
X011257Y029759D03*
X011290Y029759D03*
X011323Y029759D03*
X011348Y029759D03*
X011381Y029759D03*
X011447Y029759D03*
X011480Y029759D03*
X011514Y029759D03*
X011547Y029759D03*
X011638Y029759D03*
X011671Y029759D03*
X011704Y029759D03*
X011738Y029759D03*
X011804Y029759D03*
X011837Y029759D03*
X011862Y029759D03*
X011895Y029759D03*
X011928Y029759D03*
X011995Y029759D03*
X012028Y029759D03*
X012061Y029759D03*
X012086Y029759D03*
X012119Y029759D03*
X012185Y029759D03*
X012219Y029759D03*
X012252Y029759D03*
X012285Y029759D03*
X012376Y029759D03*
X012409Y029759D03*
X012409Y027337D03*
X012376Y027337D03*
X012285Y027337D03*
X012252Y027337D03*
X012219Y027337D03*
X012185Y027337D03*
X012119Y027337D03*
X012086Y027337D03*
X012061Y027337D03*
X012028Y027337D03*
X011995Y027337D03*
X011804Y027337D03*
X011738Y027337D03*
X011704Y027337D03*
X011671Y027337D03*
X011638Y027337D03*
X011547Y027337D03*
X011514Y027337D03*
X011480Y027337D03*
X011447Y027337D03*
X011381Y027337D03*
D33*
X011480Y028191D03*
X011514Y028199D03*
X011547Y028199D03*
X011638Y028199D03*
X011671Y028199D03*
X011671Y028556D03*
X011638Y028556D03*
X011704Y028556D03*
X011738Y028556D03*
X011804Y028556D03*
X011837Y028556D03*
X011862Y028556D03*
X011895Y028556D03*
X011928Y028556D03*
X011995Y028556D03*
X012028Y028556D03*
X012061Y028556D03*
X012086Y028556D03*
X012119Y028556D03*
X012185Y028556D03*
X012219Y028556D03*
X012252Y028556D03*
X012285Y028556D03*
X012285Y028199D03*
X012252Y028199D03*
X012219Y028199D03*
X012185Y028199D03*
X012119Y028199D03*
X012086Y028191D03*
X011547Y028556D03*
X011514Y028556D03*
X011480Y028564D03*
X011480Y030638D03*
X011447Y030638D03*
X011381Y030638D03*
X011348Y030638D03*
X011323Y030638D03*
X011290Y030638D03*
X011257Y030638D03*
X011514Y030638D03*
X011547Y030638D03*
X011638Y030638D03*
X011671Y030638D03*
X011704Y030638D03*
X011738Y030638D03*
X011804Y030638D03*
X011837Y030638D03*
X011862Y030638D03*
X011895Y030638D03*
X011928Y030638D03*
X011995Y030638D03*
X012028Y030638D03*
X012061Y030638D03*
X012086Y030638D03*
X012119Y030638D03*
X012185Y030638D03*
X012219Y030638D03*
X012252Y030638D03*
X012285Y030638D03*
X012285Y031857D03*
X012252Y031857D03*
X012219Y031857D03*
X012185Y031857D03*
X012119Y031857D03*
X012119Y032214D03*
X012086Y032214D03*
X012061Y032214D03*
X012028Y032214D03*
X011995Y032214D03*
X011928Y032214D03*
X011895Y032214D03*
X011862Y032214D03*
X011837Y032214D03*
X011804Y032214D03*
X011738Y032214D03*
X011704Y032214D03*
X011671Y032214D03*
X011638Y032214D03*
X011547Y032214D03*
X011514Y032214D03*
X011480Y032214D03*
X011447Y032214D03*
X011381Y032214D03*
X011514Y031857D03*
X011547Y031857D03*
X011638Y031857D03*
X011671Y031857D03*
X012185Y032214D03*
X012219Y032214D03*
X012252Y032214D03*
X012285Y032214D03*
X012376Y032214D03*
X012409Y032214D03*
X012285Y033076D03*
X012252Y033076D03*
X012219Y033076D03*
X012185Y033076D03*
X012119Y033076D03*
X012086Y033076D03*
X012061Y033076D03*
X012028Y033076D03*
X011995Y033076D03*
X011928Y033076D03*
X011895Y033076D03*
X011862Y033076D03*
X011837Y033076D03*
X011804Y033076D03*
X011738Y033076D03*
X011704Y033076D03*
X011671Y033076D03*
X011638Y033076D03*
X011547Y033076D03*
X011514Y033076D03*
D34*
X011257Y032562D03*
X011837Y031459D03*
X012542Y032562D03*
D35*
X012526Y029049D03*
X011265Y027689D03*
D36*
X011265Y029058D03*
X014599Y029439D03*
D37*
X017519Y029468D03*
X011265Y031351D03*
X011265Y032570D03*
D38*
X011273Y031355D03*
X012534Y030119D03*
X011273Y027697D03*
D39*
X011273Y029054D03*
X012534Y029054D03*
X017220Y028846D03*
D40*
X011273Y032579D03*
D41*
X011281Y027702D03*
X012517Y027702D03*
X017519Y030945D03*
D42*
X011281Y029045D03*
D43*
X011281Y031364D03*
X011281Y032583D03*
X012517Y032583D03*
X012517Y031364D03*
D44*
X011290Y031368D03*
X011290Y027710D03*
D45*
X011290Y029041D03*
D46*
X011290Y032587D03*
D47*
X011298Y031372D03*
X011315Y029025D03*
X011298Y027714D03*
X014583Y030916D03*
D48*
X014267Y030202D03*
X011298Y029033D03*
D49*
X011298Y032595D03*
D50*
X011306Y027718D03*
X011903Y027718D03*
X012492Y027718D03*
D51*
X011306Y029029D03*
X012517Y030132D03*
D52*
X012492Y031376D03*
X012492Y032595D03*
X011306Y031376D03*
D53*
X011306Y032599D03*
X017328Y030202D03*
D54*
X014583Y029481D03*
X012484Y027722D03*
X011912Y027722D03*
X011887Y027722D03*
X011315Y027722D03*
X011315Y031380D03*
X012484Y031380D03*
D55*
X012484Y032603D03*
X011315Y032603D03*
X011339Y029012D03*
X012459Y029012D03*
D56*
X012476Y027726D03*
X011323Y027726D03*
X011323Y031384D03*
X012476Y031384D03*
X012476Y032603D03*
D57*
X011323Y029020D03*
X011895Y027718D03*
D58*
X011928Y027731D03*
X011348Y029008D03*
X011323Y032608D03*
X016067Y031082D03*
X016067Y029323D03*
D59*
X016075Y029323D03*
X016092Y029323D03*
X016051Y029323D03*
X016042Y029323D03*
X016026Y029323D03*
X016017Y029323D03*
X016026Y031082D03*
X016042Y031082D03*
X016051Y031082D03*
X016075Y031082D03*
X016092Y031082D03*
X012467Y031388D03*
X012467Y032608D03*
X011331Y031388D03*
X011356Y029008D03*
X011331Y027731D03*
X012467Y027731D03*
X012451Y029008D03*
D60*
X012467Y029016D03*
X012501Y030144D03*
X011331Y029016D03*
X017527Y030924D03*
D61*
X016142Y031077D03*
X016117Y031077D03*
X016017Y031077D03*
X016001Y031077D03*
X015993Y031077D03*
X015968Y031077D03*
X015968Y029327D03*
X015993Y029327D03*
X016001Y029327D03*
X016117Y029327D03*
X016142Y029327D03*
X011331Y032612D03*
D62*
X011339Y031393D03*
X012459Y031393D03*
X012434Y029004D03*
X012459Y027735D03*
X011937Y027735D03*
X011339Y027735D03*
X011364Y029004D03*
X016175Y029336D03*
D63*
X016125Y029327D03*
X016109Y029327D03*
X015984Y029327D03*
X015984Y031077D03*
X016109Y031077D03*
X016125Y031077D03*
X012459Y032612D03*
X011339Y032612D03*
D64*
X011348Y032616D03*
X011348Y031397D03*
X011381Y029000D03*
X011348Y027739D03*
X012443Y027739D03*
X014276Y030202D03*
X014790Y030202D03*
X015943Y029331D03*
X016167Y029331D03*
D65*
X016158Y029331D03*
X016183Y029340D03*
X016192Y029340D03*
X015951Y029331D03*
X015926Y029340D03*
X015926Y031065D03*
X015951Y031073D03*
X016158Y031073D03*
X016183Y031065D03*
X016192Y031065D03*
X012451Y031397D03*
X012451Y032616D03*
X012467Y030161D03*
X012426Y029000D03*
X012451Y027739D03*
X011953Y027739D03*
X011356Y027739D03*
X011373Y029000D03*
D66*
X011829Y027743D03*
X011970Y027743D03*
X011356Y031401D03*
X011356Y032620D03*
X015901Y031061D03*
X016208Y031061D03*
X016216Y031061D03*
X016216Y029344D03*
X016208Y029344D03*
X015901Y029344D03*
D67*
X015893Y029344D03*
X017535Y029510D03*
X012434Y027743D03*
X011364Y027743D03*
X011364Y031401D03*
X012434Y031401D03*
X012434Y032620D03*
D68*
X011364Y032624D03*
X015868Y031048D03*
X016250Y031048D03*
X016250Y029356D03*
D69*
X015885Y029348D03*
X015885Y031057D03*
X012451Y030169D03*
X012426Y027747D03*
X011373Y027747D03*
D70*
X011373Y031405D03*
X011373Y032624D03*
X012426Y032624D03*
X012426Y031405D03*
X014574Y030891D03*
X015860Y031048D03*
X015860Y029356D03*
D71*
X011381Y028116D03*
X011381Y033002D03*
D72*
X011381Y031778D03*
D73*
X011389Y031791D03*
X011986Y031791D03*
X011986Y028133D03*
X011389Y028133D03*
D74*
X011389Y028631D03*
X012418Y031774D03*
D75*
X011389Y033014D03*
D76*
X011398Y033027D03*
X012401Y033027D03*
X011398Y031807D03*
X012401Y030580D03*
X011406Y028606D03*
X011398Y028141D03*
X012401Y028141D03*
X014168Y031086D03*
D77*
X012401Y031803D03*
X011398Y028618D03*
D78*
X011406Y028154D03*
X012003Y028154D03*
X012385Y033039D03*
D79*
X011406Y033031D03*
X011406Y031811D03*
X012003Y031811D03*
X011422Y028593D03*
X014707Y030202D03*
D80*
X012343Y029759D03*
X012318Y029759D03*
X012152Y029759D03*
X011962Y029759D03*
X011771Y029759D03*
X011605Y029759D03*
X011580Y029759D03*
X011414Y029759D03*
X011414Y027337D03*
X011580Y027337D03*
X011605Y027337D03*
X011771Y027337D03*
X012152Y027337D03*
X012318Y027337D03*
X012343Y027337D03*
D81*
X011414Y028158D03*
X011414Y031816D03*
D82*
X011414Y028602D03*
X014176Y029307D03*
D83*
X012318Y028564D03*
X012152Y028556D03*
X011962Y028556D03*
X011771Y028556D03*
X011605Y028556D03*
X011580Y028556D03*
X011580Y028199D03*
X011605Y028199D03*
X012152Y028199D03*
X012318Y028191D03*
X012318Y030629D03*
X012152Y030638D03*
X011962Y030638D03*
X011771Y030638D03*
X011605Y030638D03*
X011580Y030638D03*
X011414Y030638D03*
X011580Y031857D03*
X011605Y031857D03*
X011605Y032214D03*
X011580Y032214D03*
X011414Y032214D03*
X011771Y032214D03*
X011962Y032214D03*
X012152Y032214D03*
X012318Y032214D03*
X012343Y032214D03*
X012152Y031857D03*
X012152Y033076D03*
X011962Y033076D03*
X011771Y033076D03*
X011605Y033076D03*
X011580Y033076D03*
D84*
X011414Y033039D03*
D85*
X012385Y028597D03*
X011422Y028166D03*
D86*
X011787Y028158D03*
X011431Y028589D03*
X012385Y028158D03*
X012385Y030596D03*
X012385Y031816D03*
X012020Y031824D03*
X011787Y031816D03*
X011779Y031824D03*
X011422Y031824D03*
X011422Y033043D03*
X017262Y031865D03*
D87*
X017950Y029323D03*
X017278Y028543D03*
X014831Y031861D03*
X014160Y031082D03*
X014168Y029307D03*
X012020Y028162D03*
X011779Y028162D03*
X011431Y028170D03*
X011431Y031828D03*
X011431Y033047D03*
X012360Y033056D03*
D88*
X012053Y031840D03*
X011746Y031840D03*
X011746Y028183D03*
X012036Y028174D03*
X012053Y028183D03*
X011439Y028174D03*
D89*
X011439Y028585D03*
X012368Y028585D03*
X012368Y028170D03*
X012368Y031828D03*
X012368Y033047D03*
X011439Y033056D03*
X017942Y031098D03*
D90*
X012036Y031832D03*
X011439Y031832D03*
D91*
X011447Y031840D03*
X011447Y033060D03*
X011447Y028183D03*
D92*
X011447Y028577D03*
X012028Y028170D03*
X012028Y031828D03*
D93*
X012044Y031840D03*
X011754Y031840D03*
X012351Y031840D03*
X012351Y030621D03*
X012360Y030613D03*
X012360Y028581D03*
X012351Y028183D03*
X012360Y028174D03*
X011762Y028174D03*
X011754Y028174D03*
X011456Y028183D03*
X012351Y033060D03*
D94*
X012360Y031832D03*
X011762Y031832D03*
X011456Y028572D03*
X012351Y028572D03*
D95*
X012310Y028560D03*
X012302Y028560D03*
X012044Y028179D03*
X011497Y028560D03*
X012326Y030625D03*
X012335Y030625D03*
X012335Y031845D03*
X012326Y031845D03*
X012069Y031845D03*
X011729Y031845D03*
X011456Y031845D03*
X011456Y033064D03*
X011472Y033072D03*
X012310Y033072D03*
X012335Y033064D03*
D96*
X011489Y031853D03*
X012293Y030634D03*
X011464Y028568D03*
X011505Y028195D03*
X011464Y028187D03*
X011696Y028195D03*
X012103Y028195D03*
X012293Y028195D03*
D97*
X011821Y027341D03*
X011505Y028560D03*
X011489Y028560D03*
X011464Y031845D03*
X011464Y033064D03*
X011489Y033072D03*
D98*
X011497Y031853D03*
X011713Y031853D03*
X012094Y031853D03*
X012302Y031853D03*
X012310Y031853D03*
X012302Y030634D03*
X012326Y028568D03*
X012335Y028568D03*
X012302Y028195D03*
X012326Y028187D03*
X012335Y028187D03*
X012094Y028195D03*
X012069Y028187D03*
X011729Y028187D03*
X011497Y028195D03*
X011472Y028187D03*
X011472Y028568D03*
D99*
X011704Y028195D03*
X011738Y028187D03*
X012061Y028187D03*
X012086Y031853D03*
X011704Y031853D03*
X011480Y031853D03*
D100*
X011738Y031845D03*
X012061Y031845D03*
X011480Y033072D03*
D101*
X011771Y031828D03*
X011771Y028170D03*
D102*
X011796Y028149D03*
X011796Y031807D03*
X014840Y031849D03*
X017270Y028556D03*
X017942Y029319D03*
D103*
X017933Y029315D03*
X017253Y031853D03*
X011804Y028137D03*
D104*
X011995Y028141D03*
X011995Y031799D03*
X011804Y031799D03*
D105*
X011812Y031787D03*
X011812Y028129D03*
D106*
X011821Y028104D03*
D107*
X011821Y031766D03*
D108*
X011829Y031463D03*
X011970Y031463D03*
D109*
X012443Y031401D03*
X012443Y032620D03*
X011837Y027743D03*
X015910Y029344D03*
X015910Y031061D03*
X017834Y030198D03*
D110*
X016175Y031065D03*
X016150Y031073D03*
X015959Y031073D03*
X015934Y031065D03*
X015918Y031065D03*
X015918Y029340D03*
X015934Y029340D03*
X015959Y029331D03*
X016150Y029331D03*
X011845Y027739D03*
D111*
X011845Y031455D03*
D112*
X011854Y027735D03*
X011945Y027735D03*
D113*
X011945Y031455D03*
X011953Y031455D03*
X011854Y031455D03*
X014898Y031563D03*
X014898Y028842D03*
X017212Y031563D03*
D114*
X016167Y031069D03*
X015943Y031069D03*
X012476Y030157D03*
X012443Y029004D03*
X011862Y027735D03*
D115*
X012542Y029062D03*
X011862Y031451D03*
X017195Y031583D03*
X017195Y028821D03*
D116*
X016084Y029323D03*
X016059Y029323D03*
X016059Y031082D03*
X016084Y031082D03*
X011870Y027731D03*
D117*
X011870Y031446D03*
X017344Y030202D03*
D118*
X012492Y030148D03*
X011920Y027726D03*
X011879Y027726D03*
D119*
X012559Y027664D03*
X012559Y031322D03*
X011912Y031438D03*
X011887Y031438D03*
X012559Y032541D03*
D120*
X011895Y031434D03*
D121*
X011903Y031434D03*
X014956Y028788D03*
X017502Y030978D03*
D122*
X011928Y031446D03*
D123*
X011962Y027743D03*
X016200Y031061D03*
D124*
X011962Y031459D03*
D125*
X011978Y028112D03*
X017403Y030202D03*
D126*
X017262Y028564D03*
X011978Y031774D03*
D127*
X012011Y031816D03*
X012011Y028158D03*
D128*
X012318Y031853D03*
D129*
X012343Y033064D03*
X012318Y033072D03*
D130*
X012343Y031840D03*
X012343Y030621D03*
X012343Y028183D03*
D131*
X012343Y028572D03*
D132*
X012368Y030609D03*
D133*
X012376Y030605D03*
X012376Y028166D03*
D134*
X012376Y028589D03*
X012376Y031824D03*
X012376Y033043D03*
X014848Y028539D03*
D135*
X012393Y028154D03*
D136*
X012393Y028602D03*
X012393Y030592D03*
X012393Y031811D03*
X012393Y033031D03*
D137*
X012401Y028610D03*
D138*
X012409Y028133D03*
X012409Y030571D03*
X012409Y031791D03*
D139*
X012409Y028622D03*
D140*
X012409Y033014D03*
D141*
X012418Y033002D03*
X012418Y030555D03*
X012418Y028116D03*
D142*
X012418Y028635D03*
X014865Y028560D03*
X017245Y031845D03*
X017917Y031106D03*
D143*
X012426Y030177D03*
D144*
X012434Y030173D03*
X015868Y029352D03*
X017535Y030903D03*
D145*
X016233Y031057D03*
X015876Y031057D03*
X015876Y029348D03*
X016233Y029348D03*
X012443Y030169D03*
D146*
X012459Y030165D03*
D147*
X012476Y029016D03*
D148*
X012484Y029020D03*
D149*
X012484Y030153D03*
D150*
X012492Y029025D03*
X012501Y027714D03*
X014782Y030202D03*
X012501Y031372D03*
X012501Y032591D03*
X017527Y029489D03*
D151*
X012526Y030128D03*
X012501Y029033D03*
D152*
X012509Y027710D03*
X012509Y031368D03*
D153*
X012509Y029037D03*
D154*
X012509Y030140D03*
D155*
X012509Y032587D03*
D156*
X012526Y031355D03*
X012517Y029041D03*
X012526Y027697D03*
D157*
X012526Y032574D03*
X017336Y030202D03*
D158*
X014773Y030202D03*
X012534Y027689D03*
D159*
X012534Y031351D03*
X012534Y032570D03*
D160*
X012542Y030115D03*
D161*
X012550Y027673D03*
X014599Y030957D03*
X014923Y031587D03*
X014931Y031596D03*
X017187Y031587D03*
X017187Y028817D03*
X014931Y028809D03*
X014923Y028817D03*
D162*
X012550Y029070D03*
D163*
X012550Y030107D03*
D164*
X012550Y031334D03*
X012550Y032554D03*
X014906Y031575D03*
X014906Y028830D03*
X017212Y028838D03*
X017850Y030198D03*
D165*
X012559Y029083D03*
D166*
X012559Y030094D03*
X017179Y028809D03*
X017179Y031596D03*
D167*
X015047Y028713D03*
X012567Y029095D03*
D168*
X012567Y030078D03*
D169*
X012575Y032504D03*
X012575Y027619D03*
D170*
X012575Y029124D03*
D171*
X012575Y030057D03*
X015171Y028631D03*
X015205Y028606D03*
X015171Y031774D03*
X016905Y031799D03*
D172*
X014624Y030999D03*
X012575Y031281D03*
D173*
X013114Y032309D03*
X013148Y032309D03*
X013181Y032309D03*
X013214Y032309D03*
X013280Y032309D03*
X013313Y032309D03*
X013338Y032309D03*
X013372Y032309D03*
X013405Y032309D03*
X013471Y032309D03*
X013471Y028096D03*
X013405Y028096D03*
X013372Y028096D03*
X013338Y028096D03*
X013313Y028096D03*
X013280Y028096D03*
X013214Y028096D03*
X013181Y028096D03*
X013148Y028096D03*
X013114Y028096D03*
X018638Y028096D03*
X018672Y028096D03*
X018705Y028096D03*
X018730Y028096D03*
X018763Y028096D03*
X018829Y028096D03*
X018862Y028096D03*
X018896Y028096D03*
X018929Y028096D03*
X018929Y032309D03*
X018896Y032309D03*
X018862Y032309D03*
X018829Y032309D03*
X018763Y032309D03*
X018730Y032309D03*
X018705Y032309D03*
X018672Y032309D03*
X018638Y032309D03*
D174*
X018647Y032309D03*
X018663Y032309D03*
X018688Y032309D03*
X018713Y032309D03*
X018738Y032309D03*
X018755Y032309D03*
X018779Y032309D03*
X018788Y032309D03*
X018804Y032309D03*
X018813Y032309D03*
X018837Y032309D03*
X018854Y032309D03*
X018879Y032309D03*
X018904Y032309D03*
X018920Y032309D03*
X018945Y032309D03*
X018954Y032309D03*
X018970Y032309D03*
X018978Y032309D03*
X018995Y032309D03*
X017121Y030202D03*
X018647Y028096D03*
X018663Y028096D03*
X018688Y028096D03*
X018713Y028096D03*
X018738Y028096D03*
X018755Y028096D03*
X018779Y028096D03*
X018788Y028096D03*
X018804Y028096D03*
X018813Y028096D03*
X018837Y028096D03*
X018854Y028096D03*
X018879Y028096D03*
X018904Y028096D03*
X018920Y028096D03*
X018945Y028096D03*
X018954Y028096D03*
X018970Y028096D03*
X018978Y028096D03*
X018995Y028096D03*
X013479Y028096D03*
X013454Y028096D03*
X013446Y028096D03*
X013430Y028096D03*
X013421Y028096D03*
X013396Y028096D03*
X013380Y028096D03*
X013355Y028096D03*
X013330Y028096D03*
X013305Y028096D03*
X013289Y028096D03*
X013264Y028096D03*
X013255Y028096D03*
X013239Y028096D03*
X013231Y028096D03*
X013206Y028096D03*
X013189Y028096D03*
X013164Y028096D03*
X013139Y028096D03*
X013123Y028096D03*
X013123Y032309D03*
X013139Y032309D03*
X013164Y032309D03*
X013189Y032309D03*
X013206Y032309D03*
X013231Y032309D03*
X013239Y032309D03*
X013255Y032309D03*
X013264Y032309D03*
X013289Y032309D03*
X013305Y032309D03*
X013330Y032309D03*
X013355Y032309D03*
X013380Y032309D03*
X013396Y032309D03*
X013421Y032309D03*
X013430Y032309D03*
X013446Y032309D03*
X013454Y032309D03*
X013479Y032309D03*
D175*
X013463Y032309D03*
X013413Y032309D03*
X013388Y032309D03*
X013363Y032309D03*
X013347Y032309D03*
X013322Y032309D03*
X013297Y032309D03*
X013272Y032309D03*
X013222Y032309D03*
X013197Y032309D03*
X013172Y032309D03*
X013156Y032309D03*
X013131Y032309D03*
X013131Y028096D03*
X013156Y028096D03*
X013172Y028096D03*
X013197Y028096D03*
X013222Y028096D03*
X013272Y028096D03*
X013297Y028096D03*
X013322Y028096D03*
X013347Y028096D03*
X013363Y028096D03*
X013388Y028096D03*
X013413Y028096D03*
X013463Y028096D03*
X018630Y028096D03*
X018655Y028096D03*
X018680Y028096D03*
X018696Y028096D03*
X018721Y028096D03*
X018746Y028096D03*
X018771Y028096D03*
X018821Y028096D03*
X018846Y028096D03*
X018871Y028096D03*
X018887Y028096D03*
X018912Y028096D03*
X018937Y028096D03*
X018937Y032309D03*
X018912Y032309D03*
X018887Y032309D03*
X018871Y032309D03*
X018846Y032309D03*
X018821Y032309D03*
X018771Y032309D03*
X018746Y032309D03*
X018721Y032309D03*
X018696Y032309D03*
X018680Y032309D03*
X018655Y032309D03*
X018630Y032309D03*
D176*
X018796Y032309D03*
X018962Y032309D03*
X018987Y032309D03*
X018987Y028096D03*
X018962Y028096D03*
X018796Y028096D03*
X013438Y028096D03*
X013247Y028096D03*
X013247Y032309D03*
X013438Y032309D03*
D177*
X013488Y032960D03*
X013513Y032960D03*
X013529Y032960D03*
X013554Y032960D03*
X013579Y032960D03*
X013604Y032960D03*
X013654Y032960D03*
X013678Y032960D03*
X013703Y032960D03*
X013720Y032960D03*
X013745Y032960D03*
X013770Y032960D03*
X013844Y032960D03*
X013869Y032960D03*
X013894Y032960D03*
X013911Y032960D03*
X013936Y032960D03*
X013960Y032960D03*
X014010Y032960D03*
X014035Y032960D03*
X014060Y032960D03*
X014085Y032960D03*
X014101Y032960D03*
X014126Y032960D03*
X014151Y032960D03*
X014201Y032960D03*
X014226Y032960D03*
X014251Y032960D03*
X014267Y032960D03*
X014292Y032960D03*
X014317Y032960D03*
X014342Y032960D03*
X014392Y032960D03*
X014417Y032960D03*
X014442Y032960D03*
X014458Y032960D03*
X014483Y032960D03*
X014508Y032960D03*
X014583Y032960D03*
X014607Y032960D03*
X014632Y032960D03*
X014649Y032960D03*
X014674Y032960D03*
X014699Y032960D03*
X014748Y032960D03*
X014773Y032960D03*
X015437Y031749D03*
X015487Y031766D03*
X016557Y031791D03*
X016606Y031774D03*
X016631Y031766D03*
X016673Y031749D03*
X017344Y032960D03*
X017369Y032960D03*
X017394Y032960D03*
X017411Y032960D03*
X017436Y032960D03*
X017461Y032960D03*
X017535Y032960D03*
X017560Y032960D03*
X017585Y032960D03*
X017602Y032960D03*
X017626Y032960D03*
X017651Y032960D03*
X017701Y032960D03*
X017726Y032960D03*
X017751Y032960D03*
X017776Y032960D03*
X017792Y032960D03*
X017817Y032960D03*
X017842Y032960D03*
X017892Y032960D03*
X017917Y032960D03*
X017942Y032960D03*
X017958Y032960D03*
X017983Y032960D03*
X018008Y032960D03*
X018033Y032960D03*
X018083Y032960D03*
X018108Y032960D03*
X018132Y032960D03*
X018149Y032960D03*
X018174Y032960D03*
X018199Y032960D03*
X018273Y032960D03*
X018298Y032960D03*
X018323Y032960D03*
X018340Y032960D03*
X018365Y032960D03*
X018390Y032960D03*
X018439Y032960D03*
X018464Y032960D03*
X018489Y032960D03*
X018514Y032960D03*
X018531Y032960D03*
X018555Y032960D03*
X018580Y032960D03*
X016673Y028655D03*
X016631Y028639D03*
X016606Y028631D03*
X017344Y027444D03*
X017369Y027444D03*
X017394Y027444D03*
X017411Y027444D03*
X017436Y027444D03*
X017461Y027444D03*
X017535Y027444D03*
X017560Y027444D03*
X017585Y027444D03*
X017602Y027444D03*
X017626Y027444D03*
X017651Y027444D03*
X017701Y027444D03*
X017726Y027444D03*
X017751Y027444D03*
X017776Y027444D03*
X017792Y027444D03*
X017817Y027444D03*
X017842Y027444D03*
X017892Y027444D03*
X017917Y027444D03*
X017942Y027444D03*
X017958Y027444D03*
X017983Y027444D03*
X018008Y027444D03*
X018033Y027444D03*
X018083Y027444D03*
X018108Y027444D03*
X018132Y027444D03*
X018149Y027444D03*
X018174Y027444D03*
X018199Y027444D03*
X018273Y027444D03*
X018298Y027444D03*
X018323Y027444D03*
X018340Y027444D03*
X018365Y027444D03*
X018390Y027444D03*
X018439Y027444D03*
X018464Y027444D03*
X018489Y027444D03*
X018514Y027444D03*
X018531Y027444D03*
X018555Y027444D03*
X018580Y027444D03*
X015487Y028639D03*
X015437Y028655D03*
X014773Y027444D03*
X014748Y027444D03*
X014699Y027444D03*
X014674Y027444D03*
X014649Y027444D03*
X014632Y027444D03*
X014607Y027444D03*
X014583Y027444D03*
X014508Y027444D03*
X014483Y027444D03*
X014458Y027444D03*
X014442Y027444D03*
X014417Y027444D03*
X014392Y027444D03*
X014342Y027444D03*
X014317Y027444D03*
X014292Y027444D03*
X014267Y027444D03*
X014251Y027444D03*
X014226Y027444D03*
X014201Y027444D03*
X014151Y027444D03*
X014126Y027444D03*
X014101Y027444D03*
X014085Y027444D03*
X014060Y027444D03*
X014035Y027444D03*
X014010Y027444D03*
X013960Y027444D03*
X013936Y027444D03*
X013911Y027444D03*
X013894Y027444D03*
X013869Y027444D03*
X013844Y027444D03*
X013770Y027444D03*
X013745Y027444D03*
X013720Y027444D03*
X013703Y027444D03*
X013678Y027444D03*
X013654Y027444D03*
X013604Y027444D03*
X013579Y027444D03*
X013554Y027444D03*
X013529Y027444D03*
X013513Y027444D03*
X013488Y027444D03*
D178*
X013496Y027444D03*
X013521Y027444D03*
X013546Y027444D03*
X013571Y027444D03*
X013587Y027444D03*
X013612Y027444D03*
X013620Y027444D03*
X013637Y027444D03*
X013645Y027444D03*
X013670Y027444D03*
X013687Y027444D03*
X013712Y027444D03*
X013736Y027444D03*
X013753Y027444D03*
X013778Y027444D03*
X013786Y027444D03*
X013803Y027444D03*
X013811Y027444D03*
X013828Y027444D03*
X013836Y027444D03*
X013861Y027444D03*
X013877Y027444D03*
X013902Y027444D03*
X013927Y027444D03*
X013944Y027444D03*
X013969Y027444D03*
X013977Y027444D03*
X013994Y027444D03*
X014002Y027444D03*
X014027Y027444D03*
X014043Y027444D03*
X014068Y027444D03*
X014093Y027444D03*
X014118Y027444D03*
X014135Y027444D03*
X014160Y027444D03*
X014168Y027444D03*
X014184Y027444D03*
X014193Y027444D03*
X014218Y027444D03*
X014234Y027444D03*
X014259Y027444D03*
X014284Y027444D03*
X014309Y027444D03*
X014325Y027444D03*
X014350Y027444D03*
X014359Y027444D03*
X014375Y027444D03*
X014383Y027444D03*
X014408Y027444D03*
X014425Y027444D03*
X014450Y027444D03*
X014475Y027444D03*
X014491Y027444D03*
X014516Y027444D03*
X014524Y027444D03*
X014541Y027444D03*
X014549Y027444D03*
X014566Y027444D03*
X014574Y027444D03*
X014599Y027444D03*
X014616Y027444D03*
X014641Y027444D03*
X014665Y027444D03*
X014682Y027444D03*
X014707Y027444D03*
X014715Y027444D03*
X014732Y027444D03*
X014740Y027444D03*
X014765Y027444D03*
X014782Y027444D03*
X015470Y028639D03*
X015478Y028639D03*
X015503Y028631D03*
X015545Y028614D03*
X016565Y028614D03*
X016623Y028639D03*
X016639Y028639D03*
X017328Y027444D03*
X017336Y027444D03*
X017361Y027444D03*
X017378Y027444D03*
X017403Y027444D03*
X017427Y027444D03*
X017444Y027444D03*
X017469Y027444D03*
X017477Y027444D03*
X017494Y027444D03*
X017502Y027444D03*
X017519Y027444D03*
X017527Y027444D03*
X017552Y027444D03*
X017568Y027444D03*
X017593Y027444D03*
X017618Y027444D03*
X017635Y027444D03*
X017660Y027444D03*
X017668Y027444D03*
X017685Y027444D03*
X017693Y027444D03*
X017718Y027444D03*
X017734Y027444D03*
X017759Y027444D03*
X017784Y027444D03*
X017809Y027444D03*
X017826Y027444D03*
X017850Y027444D03*
X017859Y027444D03*
X017875Y027444D03*
X017884Y027444D03*
X017909Y027444D03*
X017925Y027444D03*
X017950Y027444D03*
X017975Y027444D03*
X018000Y027444D03*
X018016Y027444D03*
X018041Y027444D03*
X018050Y027444D03*
X018066Y027444D03*
X018074Y027444D03*
X018099Y027444D03*
X018116Y027444D03*
X018141Y027444D03*
X018166Y027444D03*
X018182Y027444D03*
X018207Y027444D03*
X018215Y027444D03*
X018232Y027444D03*
X018240Y027444D03*
X018257Y027444D03*
X018265Y027444D03*
X018290Y027444D03*
X018307Y027444D03*
X018332Y027444D03*
X018356Y027444D03*
X018373Y027444D03*
X018398Y027444D03*
X018406Y027444D03*
X018423Y027444D03*
X018431Y027444D03*
X018456Y027444D03*
X018473Y027444D03*
X018497Y027444D03*
X018522Y027444D03*
X018547Y027444D03*
X018564Y027444D03*
X018589Y027444D03*
X018597Y027444D03*
X018614Y027444D03*
X018622Y027444D03*
X016639Y031766D03*
X016623Y031766D03*
X016565Y031791D03*
X017328Y032960D03*
X017336Y032960D03*
X017361Y032960D03*
X017378Y032960D03*
X017403Y032960D03*
X017427Y032960D03*
X017444Y032960D03*
X017469Y032960D03*
X017477Y032960D03*
X017494Y032960D03*
X017502Y032960D03*
X017519Y032960D03*
X017527Y032960D03*
X017552Y032960D03*
X017568Y032960D03*
X017593Y032960D03*
X017618Y032960D03*
X017635Y032960D03*
X017660Y032960D03*
X017668Y032960D03*
X017685Y032960D03*
X017693Y032960D03*
X017718Y032960D03*
X017734Y032960D03*
X017759Y032960D03*
X017784Y032960D03*
X017809Y032960D03*
X017826Y032960D03*
X017850Y032960D03*
X017859Y032960D03*
X017875Y032960D03*
X017884Y032960D03*
X017909Y032960D03*
X017925Y032960D03*
X017950Y032960D03*
X017975Y032960D03*
X018000Y032960D03*
X018016Y032960D03*
X018041Y032960D03*
X018050Y032960D03*
X018066Y032960D03*
X018074Y032960D03*
X018099Y032960D03*
X018116Y032960D03*
X018141Y032960D03*
X018166Y032960D03*
X018182Y032960D03*
X018207Y032960D03*
X018215Y032960D03*
X018232Y032960D03*
X018240Y032960D03*
X018257Y032960D03*
X018265Y032960D03*
X018290Y032960D03*
X018307Y032960D03*
X018332Y032960D03*
X018356Y032960D03*
X018373Y032960D03*
X018398Y032960D03*
X018406Y032960D03*
X018423Y032960D03*
X018431Y032960D03*
X018456Y032960D03*
X018473Y032960D03*
X018497Y032960D03*
X018522Y032960D03*
X018547Y032960D03*
X018564Y032960D03*
X018589Y032960D03*
X018597Y032960D03*
X018614Y032960D03*
X018622Y032960D03*
X015503Y031774D03*
X015478Y031766D03*
X015470Y031766D03*
X014782Y032960D03*
X014765Y032960D03*
X014740Y032960D03*
X014732Y032960D03*
X014715Y032960D03*
X014707Y032960D03*
X014682Y032960D03*
X014665Y032960D03*
X014641Y032960D03*
X014616Y032960D03*
X014599Y032960D03*
X014574Y032960D03*
X014566Y032960D03*
X014549Y032960D03*
X014541Y032960D03*
X014524Y032960D03*
X014516Y032960D03*
X014491Y032960D03*
X014475Y032960D03*
X014450Y032960D03*
X014425Y032960D03*
X014408Y032960D03*
X014383Y032960D03*
X014375Y032960D03*
X014359Y032960D03*
X014350Y032960D03*
X014325Y032960D03*
X014309Y032960D03*
X014284Y032960D03*
X014259Y032960D03*
X014234Y032960D03*
X014218Y032960D03*
X014193Y032960D03*
X014184Y032960D03*
X014168Y032960D03*
X014160Y032960D03*
X014135Y032960D03*
X014118Y032960D03*
X014093Y032960D03*
X014068Y032960D03*
X014043Y032960D03*
X014027Y032960D03*
X014002Y032960D03*
X013994Y032960D03*
X013977Y032960D03*
X013969Y032960D03*
X013944Y032960D03*
X013927Y032960D03*
X013902Y032960D03*
X013877Y032960D03*
X013861Y032960D03*
X013836Y032960D03*
X013828Y032960D03*
X013811Y032960D03*
X013803Y032960D03*
X013786Y032960D03*
X013778Y032960D03*
X013753Y032960D03*
X013736Y032960D03*
X013712Y032960D03*
X013687Y032960D03*
X013670Y032960D03*
X013645Y032960D03*
X013637Y032960D03*
X013620Y032960D03*
X013612Y032960D03*
X013587Y032960D03*
X013571Y032960D03*
X013546Y032960D03*
X013521Y032960D03*
X013496Y032960D03*
D179*
X013504Y032960D03*
X013537Y032960D03*
X013562Y032960D03*
X013595Y032960D03*
X013662Y032960D03*
X013695Y032960D03*
X013728Y032960D03*
X013761Y032960D03*
X013853Y032960D03*
X013886Y032960D03*
X013919Y032960D03*
X013952Y032960D03*
X014018Y032960D03*
X014052Y032960D03*
X014077Y032960D03*
X014110Y032960D03*
X014143Y032960D03*
X014209Y032960D03*
X014242Y032960D03*
X014276Y032960D03*
X014301Y032960D03*
X014334Y032960D03*
X014400Y032960D03*
X014433Y032960D03*
X014466Y032960D03*
X014500Y032960D03*
X014591Y032960D03*
X014624Y032960D03*
X014657Y032960D03*
X014690Y032960D03*
X014757Y032960D03*
X015495Y031774D03*
X015553Y031791D03*
X016615Y031774D03*
X017353Y032960D03*
X017386Y032960D03*
X017419Y032960D03*
X017452Y032960D03*
X017544Y032960D03*
X017577Y032960D03*
X017610Y032960D03*
X017643Y032960D03*
X017709Y032960D03*
X017743Y032960D03*
X017768Y032960D03*
X017801Y032960D03*
X017834Y032960D03*
X017900Y032960D03*
X017933Y032960D03*
X017967Y032960D03*
X017991Y032960D03*
X018025Y032960D03*
X018091Y032960D03*
X018124Y032960D03*
X018157Y032960D03*
X018191Y032960D03*
X018282Y032960D03*
X018315Y032960D03*
X018348Y032960D03*
X018381Y032960D03*
X018448Y032960D03*
X018481Y032960D03*
X018506Y032960D03*
X018539Y032960D03*
X018572Y032960D03*
X016615Y028631D03*
X017353Y027444D03*
X017386Y027444D03*
X017419Y027444D03*
X017452Y027444D03*
X017544Y027444D03*
X017577Y027444D03*
X017610Y027444D03*
X017643Y027444D03*
X017709Y027444D03*
X017743Y027444D03*
X017768Y027444D03*
X017801Y027444D03*
X017834Y027444D03*
X017900Y027444D03*
X017933Y027444D03*
X017967Y027444D03*
X017991Y027444D03*
X018025Y027444D03*
X018091Y027444D03*
X018124Y027444D03*
X018157Y027444D03*
X018191Y027444D03*
X018282Y027444D03*
X018315Y027444D03*
X018348Y027444D03*
X018381Y027444D03*
X018448Y027444D03*
X018481Y027444D03*
X018506Y027444D03*
X018539Y027444D03*
X018572Y027444D03*
X015495Y028631D03*
X014757Y027444D03*
X014690Y027444D03*
X014657Y027444D03*
X014624Y027444D03*
X014591Y027444D03*
X014500Y027444D03*
X014466Y027444D03*
X014433Y027444D03*
X014400Y027444D03*
X014334Y027444D03*
X014301Y027444D03*
X014276Y027444D03*
X014242Y027444D03*
X014209Y027444D03*
X014143Y027444D03*
X014110Y027444D03*
X014077Y027444D03*
X014052Y027444D03*
X014018Y027444D03*
X013952Y027444D03*
X013919Y027444D03*
X013886Y027444D03*
X013853Y027444D03*
X013761Y027444D03*
X013728Y027444D03*
X013695Y027444D03*
X013662Y027444D03*
X013595Y027444D03*
X013562Y027444D03*
X013537Y027444D03*
X013504Y027444D03*
X014242Y029278D03*
D180*
X014176Y027444D03*
X013985Y027444D03*
X013819Y027444D03*
X013795Y027444D03*
X013629Y027444D03*
X014367Y027444D03*
X014533Y027444D03*
X014558Y027444D03*
X014724Y027444D03*
X017485Y027444D03*
X017510Y027444D03*
X017676Y027444D03*
X017867Y027444D03*
X018058Y027444D03*
X018224Y027444D03*
X018249Y027444D03*
X018414Y027444D03*
X018605Y027444D03*
X017867Y031127D03*
X017867Y032960D03*
X017676Y032960D03*
X017510Y032960D03*
X017485Y032960D03*
X018058Y032960D03*
X018224Y032960D03*
X018249Y032960D03*
X018414Y032960D03*
X018605Y032960D03*
X014724Y032960D03*
X014558Y032960D03*
X014533Y032960D03*
X014367Y032960D03*
X014176Y032960D03*
X013985Y032960D03*
X013819Y032960D03*
X013795Y032960D03*
X013629Y032960D03*
D181*
X013936Y030194D03*
X013960Y030194D03*
X018149Y030211D03*
X018174Y030211D03*
D182*
X018166Y030211D03*
X017826Y031148D03*
X014284Y029257D03*
X013944Y030194D03*
D183*
X013952Y030194D03*
X014276Y031131D03*
X017834Y029273D03*
X018157Y030211D03*
D184*
X018116Y030211D03*
X014002Y030194D03*
X013994Y030194D03*
X013977Y030194D03*
X013969Y030194D03*
D185*
X013985Y030194D03*
D186*
X014010Y030198D03*
X014292Y029253D03*
X015321Y031757D03*
X017817Y031152D03*
D187*
X018091Y030211D03*
X017253Y031347D03*
X017253Y029058D03*
X014848Y029066D03*
X014052Y030194D03*
X014018Y030194D03*
X014848Y031339D03*
D188*
X014856Y031347D03*
X014043Y030194D03*
X014027Y030194D03*
X014856Y029058D03*
X016780Y031762D03*
X017262Y031339D03*
X018066Y030211D03*
X018074Y030211D03*
X017262Y029066D03*
D189*
X017245Y029049D03*
X018083Y030211D03*
X017245Y031355D03*
X014865Y031355D03*
X014035Y030194D03*
X014865Y029049D03*
D190*
X015321Y028635D03*
X014085Y030194D03*
X014060Y030194D03*
X014292Y031140D03*
X014823Y031305D03*
X018033Y030211D03*
X017817Y029265D03*
D191*
X018016Y030211D03*
X018041Y030211D03*
X018050Y030211D03*
X016789Y031770D03*
X015785Y031936D03*
X014093Y030194D03*
X014068Y030194D03*
D192*
X014077Y030194D03*
X016805Y028643D03*
X017286Y029091D03*
X018025Y030211D03*
D193*
X018016Y029352D03*
X014093Y031052D03*
D194*
X014101Y029336D03*
X018008Y031069D03*
D195*
X017983Y030211D03*
X016797Y031770D03*
X014798Y031281D03*
X014126Y030194D03*
X014101Y030194D03*
X014798Y029124D03*
D196*
X014101Y031057D03*
X018008Y029348D03*
D197*
X014110Y029336D03*
D198*
X014110Y030194D03*
X017801Y031156D03*
X017991Y030211D03*
D199*
X017991Y031073D03*
X014110Y031057D03*
D200*
X014118Y029331D03*
X014806Y028494D03*
X017303Y031911D03*
D201*
X017311Y031281D03*
X017975Y030211D03*
X018000Y030211D03*
X017311Y029124D03*
X015312Y028635D03*
X014309Y029248D03*
X014135Y030194D03*
X014118Y030194D03*
X014806Y031289D03*
D202*
X014118Y031065D03*
D203*
X014126Y029327D03*
X017983Y031077D03*
D204*
X017983Y029336D03*
X014126Y031069D03*
D205*
X014135Y029323D03*
D206*
X014135Y031073D03*
D207*
X014143Y029323D03*
X017967Y031082D03*
D208*
X017967Y030206D03*
X014790Y031268D03*
X014143Y030198D03*
X014790Y029137D03*
D209*
X014143Y031073D03*
X017967Y029331D03*
D210*
X017958Y031090D03*
X014151Y029315D03*
D211*
X014773Y029157D03*
X014151Y030194D03*
X014773Y031247D03*
X016822Y028643D03*
X017942Y030211D03*
X017958Y030211D03*
D212*
X017950Y030211D03*
X017336Y031247D03*
X017336Y029157D03*
X015288Y031762D03*
X014309Y031148D03*
X014184Y030194D03*
X014168Y030194D03*
X014160Y030194D03*
D213*
X014176Y030194D03*
D214*
X014176Y031090D03*
D215*
X014184Y029302D03*
X017925Y031102D03*
D216*
X017925Y029311D03*
X014184Y031094D03*
D217*
X014193Y029298D03*
D218*
X014193Y030194D03*
X014218Y030194D03*
X015279Y031770D03*
X016830Y028635D03*
X017361Y029190D03*
X017884Y030211D03*
X017909Y030211D03*
X017361Y031214D03*
D219*
X014856Y031828D03*
X014193Y031098D03*
D220*
X014201Y029294D03*
D221*
X014748Y029190D03*
X014226Y030194D03*
X014201Y030194D03*
X014748Y031214D03*
X017892Y030211D03*
X017917Y030211D03*
D222*
X014201Y031098D03*
D223*
X014209Y029290D03*
X017900Y031115D03*
D224*
X017900Y030211D03*
X014209Y030194D03*
D225*
X014209Y031102D03*
X017228Y031824D03*
X017900Y029302D03*
D226*
X014218Y029286D03*
D227*
X014218Y031106D03*
X017884Y031123D03*
D228*
X017220Y031820D03*
X017892Y029298D03*
X014889Y028585D03*
X014226Y029282D03*
D229*
X015603Y028597D03*
X015628Y028589D03*
X015677Y028581D03*
X015702Y028572D03*
X015727Y028564D03*
X015744Y028564D03*
X015769Y028556D03*
X016366Y028564D03*
X016416Y028572D03*
X016440Y028581D03*
X016482Y028589D03*
X016507Y028597D03*
X016507Y031807D03*
X016440Y031824D03*
X016416Y031832D03*
X016366Y031840D03*
X015744Y031840D03*
X015727Y031840D03*
X015702Y031832D03*
X015677Y031824D03*
X015603Y031807D03*
X014226Y031111D03*
D230*
X014234Y029282D03*
X017875Y031123D03*
D231*
X017875Y030211D03*
X017378Y029215D03*
X014732Y029215D03*
X014234Y030194D03*
D232*
X014715Y030202D03*
X014234Y031115D03*
X015545Y031787D03*
X015594Y031803D03*
X015611Y031811D03*
X016498Y031811D03*
X016523Y031803D03*
X016573Y031787D03*
X016598Y031778D03*
X016598Y028626D03*
X016573Y028618D03*
X016523Y028602D03*
X016498Y028593D03*
X015611Y028593D03*
X015594Y028602D03*
D233*
X014242Y030202D03*
D234*
X014242Y031119D03*
X015395Y031733D03*
X016714Y028672D03*
D235*
X014251Y029273D03*
D236*
X014251Y030202D03*
X015080Y031712D03*
X015080Y028693D03*
D237*
X014251Y031123D03*
D238*
X014259Y029269D03*
X016739Y028664D03*
X017850Y031135D03*
D239*
X014259Y030202D03*
D240*
X014259Y031127D03*
X015379Y028655D03*
X017850Y029278D03*
D241*
X014267Y029265D03*
D242*
X014267Y031127D03*
X017842Y029277D03*
D243*
X017834Y031144D03*
X014276Y029261D03*
D244*
X014284Y030202D03*
X015785Y029389D03*
X015785Y031015D03*
X017826Y030202D03*
D245*
X018099Y030206D03*
X017826Y029269D03*
X017237Y029037D03*
X016789Y028647D03*
X014873Y029037D03*
X014284Y031135D03*
X014873Y031368D03*
X017237Y031368D03*
D246*
X017817Y030202D03*
X015727Y029431D03*
X015727Y030974D03*
X014292Y030202D03*
D247*
X014301Y029253D03*
X015329Y028639D03*
X017286Y031310D03*
D248*
X017286Y030202D03*
X014301Y030202D03*
D249*
X014301Y031144D03*
D250*
X014309Y030202D03*
X015669Y029497D03*
X015669Y030907D03*
D251*
X014317Y029244D03*
X017344Y029170D03*
X017792Y031160D03*
X017344Y031235D03*
D252*
X017792Y030202D03*
X014317Y030202D03*
D253*
X014317Y031152D03*
X016822Y031774D03*
X017369Y031202D03*
X017792Y029253D03*
X017369Y029203D03*
D254*
X014325Y029236D03*
D255*
X014325Y030202D03*
X017784Y030202D03*
D256*
X015279Y028622D03*
X014325Y031152D03*
D257*
X014334Y030198D03*
X017768Y030206D03*
D258*
X016532Y030202D03*
X015578Y030202D03*
X014342Y030194D03*
D259*
X014350Y030194D03*
X014359Y030194D03*
X017759Y030211D03*
D260*
X014367Y030190D03*
D261*
X014375Y030194D03*
X014383Y030194D03*
X017734Y030211D03*
D262*
X017701Y030211D03*
X014392Y030194D03*
D263*
X014400Y030194D03*
X015528Y030202D03*
X017709Y030211D03*
D264*
X017718Y030211D03*
X016590Y030202D03*
X015520Y030202D03*
X014408Y030194D03*
D265*
X014417Y030194D03*
D266*
X014425Y030194D03*
X017685Y030211D03*
X017693Y030211D03*
D267*
X014433Y030194D03*
D268*
X014442Y030194D03*
X014458Y030194D03*
X017651Y030211D03*
D269*
X017660Y030211D03*
X017668Y030211D03*
X014450Y030194D03*
D270*
X014466Y030194D03*
X016648Y030202D03*
X017643Y030211D03*
D271*
X017635Y030211D03*
X016639Y030202D03*
X015470Y030202D03*
X014475Y030194D03*
D272*
X014483Y030194D03*
X017626Y030211D03*
D273*
X017618Y030211D03*
X014491Y030194D03*
D274*
X014500Y030194D03*
X017610Y030211D03*
D275*
X017602Y030206D03*
X014508Y030190D03*
D276*
X014516Y030194D03*
X014524Y030194D03*
X017593Y030211D03*
D277*
X014533Y030194D03*
D278*
X014541Y030194D03*
X014549Y030194D03*
X015420Y030202D03*
X016689Y030202D03*
X017568Y030211D03*
D279*
X014558Y030194D03*
D280*
X014566Y029539D03*
D281*
X014566Y030853D03*
D282*
X014574Y029506D03*
X015835Y029365D03*
X015835Y031040D03*
D283*
X014591Y029460D03*
D284*
X014591Y030936D03*
D285*
X014607Y029427D03*
X017154Y028788D03*
X017154Y031616D03*
D286*
X017104Y031658D03*
X015006Y031658D03*
X014607Y030970D03*
X015006Y028747D03*
X017104Y028747D03*
D287*
X014616Y029414D03*
D288*
X015088Y028684D03*
X014616Y030982D03*
X015088Y031720D03*
X017021Y031720D03*
X017859Y030202D03*
X017021Y028684D03*
D289*
X014624Y029398D03*
D290*
X014632Y029385D03*
D291*
X015221Y028610D03*
X014632Y031015D03*
X016888Y031795D03*
D292*
X017469Y031036D03*
X017469Y029369D03*
X015213Y031782D03*
X014641Y031036D03*
X014641Y029369D03*
D293*
X014649Y029352D03*
X014649Y031052D03*
X015221Y031782D03*
X016888Y028622D03*
X017461Y029352D03*
X017461Y031052D03*
D294*
X017452Y031069D03*
X017452Y029336D03*
X014657Y029336D03*
X014657Y031069D03*
D295*
X014665Y029323D03*
X017444Y029323D03*
D296*
X017444Y031081D03*
X014665Y031081D03*
D297*
X014674Y031098D03*
X014674Y029307D03*
X017436Y029307D03*
X017369Y030202D03*
X017436Y031098D03*
D298*
X017427Y031115D03*
X017427Y029290D03*
X014682Y029290D03*
D299*
X015263Y028622D03*
X015860Y028398D03*
X015885Y028398D03*
X015901Y028398D03*
X015926Y028398D03*
X016183Y028398D03*
X016192Y028398D03*
X016208Y028398D03*
X016216Y028398D03*
X016241Y028398D03*
X014682Y031111D03*
X015860Y032006D03*
X015885Y032006D03*
X015901Y032006D03*
X015926Y032006D03*
X016183Y032006D03*
X016192Y032006D03*
X016208Y032006D03*
X016216Y032006D03*
X016241Y032006D03*
D300*
X016233Y032006D03*
X015910Y032006D03*
X015876Y032006D03*
X014690Y031127D03*
X014690Y029278D03*
X015876Y028398D03*
X015910Y028398D03*
X016233Y028398D03*
X017419Y029278D03*
X017419Y031127D03*
D301*
X017411Y031140D03*
X017411Y029265D03*
X014699Y029265D03*
X014699Y031140D03*
D302*
X014707Y031152D03*
X014707Y029253D03*
X017403Y029253D03*
X017403Y031152D03*
D303*
X015263Y031770D03*
X014715Y031164D03*
X014715Y029240D03*
D304*
X014724Y029228D03*
X014724Y031177D03*
D305*
X014724Y030202D03*
X016747Y031753D03*
D306*
X014732Y030198D03*
X015304Y028631D03*
D307*
X014732Y031189D03*
X016830Y031778D03*
X017378Y031189D03*
X017784Y031164D03*
D308*
X015288Y028631D03*
X014740Y029203D03*
X014740Y031202D03*
D309*
X014740Y030202D03*
X015951Y028394D03*
X015968Y028394D03*
X015993Y028394D03*
X016001Y028394D03*
X016017Y028394D03*
X016026Y028394D03*
X016042Y028394D03*
X016051Y028394D03*
X016075Y028394D03*
X016092Y028394D03*
X016117Y028394D03*
X016142Y028394D03*
X016158Y028394D03*
X016158Y032010D03*
X016142Y032010D03*
X016117Y032010D03*
X016092Y032010D03*
X016075Y032010D03*
X016051Y032010D03*
X016042Y032010D03*
X016026Y032010D03*
X016017Y032010D03*
X016001Y032010D03*
X015993Y032010D03*
X015968Y032010D03*
X015951Y032010D03*
D310*
X014748Y030202D03*
D311*
X014757Y031227D03*
X014757Y029178D03*
X015810Y028440D03*
X017353Y029178D03*
X017353Y031227D03*
D312*
X017029Y031712D03*
X017353Y030202D03*
X017029Y028693D03*
X015072Y031704D03*
X014757Y030202D03*
D313*
X014765Y031235D03*
X014765Y029170D03*
D314*
X014782Y029145D03*
X014782Y031260D03*
X017328Y031260D03*
X017328Y029145D03*
D315*
X017328Y028490D03*
X014782Y031915D03*
D316*
X014790Y031907D03*
D317*
X014798Y028485D03*
D318*
X014798Y030202D03*
D319*
X014798Y031894D03*
D320*
X015304Y031757D03*
X016308Y031940D03*
X017303Y031293D03*
X017303Y029112D03*
X015802Y028465D03*
X014806Y029112D03*
D321*
X014806Y030202D03*
X017303Y030202D03*
D322*
X017975Y031081D03*
X017303Y028519D03*
X014806Y031886D03*
D323*
X014815Y028502D03*
D324*
X014815Y029103D03*
X014815Y031301D03*
X016324Y028465D03*
D325*
X014815Y030202D03*
D326*
X014815Y031882D03*
D327*
X014823Y028514D03*
D328*
X014823Y029095D03*
X017295Y029103D03*
X018008Y030206D03*
X017295Y031301D03*
D329*
X014823Y030202D03*
D330*
X014823Y031869D03*
D331*
X014831Y028519D03*
D332*
X014831Y029087D03*
X014831Y031318D03*
X015312Y031757D03*
X017278Y031318D03*
X017278Y029087D03*
D333*
X014831Y030202D03*
D334*
X014840Y029078D03*
X014840Y031326D03*
X016797Y028647D03*
X017270Y029078D03*
X017270Y031326D03*
D335*
X014840Y030198D03*
D336*
X014848Y030198D03*
D337*
X014848Y031840D03*
D338*
X014856Y028548D03*
D339*
X014856Y030202D03*
D340*
X014865Y030202D03*
D341*
X014865Y031824D03*
D342*
X014873Y028568D03*
X017237Y031836D03*
D343*
X014873Y030202D03*
D344*
X014873Y031816D03*
X017237Y028589D03*
D345*
X014881Y028577D03*
D346*
X014881Y029033D03*
X015329Y031753D03*
X017228Y031372D03*
X017386Y030202D03*
D347*
X017228Y030202D03*
X014881Y030202D03*
D348*
X014889Y029025D03*
D349*
X014889Y030202D03*
X017220Y030202D03*
D350*
X014889Y031558D03*
D351*
X014898Y030202D03*
D352*
X014906Y030202D03*
D353*
X014914Y031583D03*
X014914Y028821D03*
D354*
X014914Y030202D03*
D355*
X014923Y030202D03*
X017187Y030202D03*
D356*
X014931Y030198D03*
D357*
X014939Y031600D03*
X014939Y028805D03*
D358*
X014939Y030202D03*
D359*
X014947Y031608D03*
X017162Y031608D03*
X017162Y028796D03*
X014947Y028796D03*
D360*
X014947Y030202D03*
D361*
X014956Y030202D03*
D362*
X014964Y030202D03*
D363*
X014972Y031633D03*
X017137Y031633D03*
X017145Y031625D03*
X017145Y028780D03*
X017137Y028772D03*
X014972Y028772D03*
D364*
X014972Y030202D03*
X017137Y030202D03*
D365*
X014981Y028767D03*
X014981Y031637D03*
D366*
X014981Y030202D03*
D367*
X014989Y031646D03*
X014989Y028759D03*
D368*
X014989Y030202D03*
D369*
X014997Y030202D03*
X017112Y030202D03*
D370*
X017104Y030202D03*
X015006Y030202D03*
D371*
X015014Y031662D03*
X017096Y031662D03*
X015014Y028743D03*
D372*
X015014Y030202D03*
X017096Y030202D03*
D373*
X015022Y030202D03*
D374*
X015030Y031679D03*
X017079Y031679D03*
X017079Y028726D03*
X015030Y028726D03*
D375*
X015030Y030202D03*
D376*
X015039Y031683D03*
X015039Y028722D03*
X015072Y028697D03*
D377*
X015039Y030202D03*
D378*
X015047Y030202D03*
D379*
X015055Y031691D03*
X017054Y031691D03*
X017054Y028713D03*
X015055Y028713D03*
D380*
X015055Y030202D03*
X017054Y030202D03*
D381*
X017494Y030994D03*
X017071Y031683D03*
X017046Y031699D03*
X015064Y031699D03*
X015064Y028705D03*
X017046Y028705D03*
X017071Y028722D03*
D382*
X017046Y030202D03*
X015064Y030202D03*
D383*
X015072Y030202D03*
D384*
X015080Y030202D03*
D385*
X015088Y030202D03*
X017021Y030202D03*
D386*
X017494Y029419D03*
X016980Y028655D03*
X015113Y028672D03*
X015097Y028680D03*
X015097Y031724D03*
X015113Y031733D03*
X016980Y031749D03*
X016996Y031733D03*
D387*
X015097Y030202D03*
D388*
X015105Y031733D03*
X015105Y028672D03*
D389*
X015105Y030202D03*
D390*
X015113Y030202D03*
X016996Y030202D03*
D391*
X015122Y028664D03*
X015122Y031741D03*
D392*
X015122Y030202D03*
D393*
X015130Y031749D03*
X017013Y031724D03*
X017013Y028680D03*
X015130Y028655D03*
D394*
X015130Y030202D03*
D395*
X015138Y031753D03*
X016971Y031753D03*
X016971Y028651D03*
X015138Y028651D03*
D396*
X015138Y030202D03*
X016971Y030202D03*
D397*
X016955Y031762D03*
X016946Y031770D03*
X016921Y031787D03*
X015188Y031787D03*
X015163Y031770D03*
X015147Y031762D03*
X015147Y028643D03*
X015163Y028635D03*
X015188Y028618D03*
X016921Y028618D03*
X016946Y028635D03*
X016955Y028643D03*
X016996Y028668D03*
D398*
X015147Y030202D03*
D399*
X015155Y031762D03*
X016963Y031762D03*
X016963Y028643D03*
X015155Y028643D03*
D400*
X015155Y030202D03*
D401*
X015163Y030202D03*
X016946Y030202D03*
D402*
X015171Y030202D03*
D403*
X015180Y031782D03*
X016913Y031791D03*
X015196Y028614D03*
X015180Y028622D03*
D404*
X015180Y030202D03*
D405*
X015188Y030202D03*
X016921Y030202D03*
D406*
X016913Y030202D03*
X015196Y030202D03*
D407*
X015196Y031787D03*
X016913Y028618D03*
D408*
X016905Y030202D03*
X015205Y030202D03*
D409*
X015205Y031787D03*
X016905Y028618D03*
D410*
X017477Y029385D03*
X017477Y031019D03*
X016897Y031799D03*
X015213Y028606D03*
D411*
X015213Y030202D03*
X016897Y030202D03*
D412*
X015221Y030202D03*
D413*
X015229Y028610D03*
X016897Y028618D03*
D414*
X016880Y030202D03*
X015229Y030202D03*
D415*
X015229Y031782D03*
X016880Y028622D03*
D416*
X015238Y028614D03*
X016872Y031791D03*
D417*
X016872Y030202D03*
X015238Y030202D03*
D418*
X015238Y031778D03*
X016872Y028626D03*
D419*
X015246Y028618D03*
X016863Y031787D03*
D420*
X016863Y030202D03*
X015246Y030202D03*
D421*
X015246Y031774D03*
X015868Y032006D03*
X015893Y032006D03*
X015918Y032006D03*
X015934Y032006D03*
X016175Y032006D03*
X016225Y032006D03*
X016847Y031782D03*
X016863Y028631D03*
X016250Y028398D03*
X016225Y028398D03*
X015918Y028398D03*
X015893Y028398D03*
X015868Y028398D03*
D422*
X015852Y028402D03*
X015835Y028402D03*
X015827Y028402D03*
X016258Y028402D03*
X016283Y028402D03*
X015254Y028618D03*
X016855Y031787D03*
X016283Y032002D03*
X016258Y032002D03*
X015852Y032002D03*
X015835Y032002D03*
X015827Y032002D03*
D423*
X015254Y030202D03*
D424*
X015254Y031774D03*
X015802Y031981D03*
X016855Y028631D03*
X016308Y028423D03*
D425*
X016855Y030202D03*
X015263Y030202D03*
D426*
X015271Y028622D03*
D427*
X015271Y030202D03*
D428*
X015271Y031770D03*
D429*
X015279Y030198D03*
D430*
X015288Y030202D03*
X016830Y030202D03*
D431*
X015296Y028631D03*
D432*
X015296Y030202D03*
D433*
X015296Y031762D03*
D434*
X015304Y030202D03*
X015312Y030202D03*
D435*
X015321Y030202D03*
D436*
X015329Y030198D03*
D437*
X015337Y028643D03*
X016780Y028651D03*
D438*
X016780Y030202D03*
X015337Y030202D03*
D439*
X015337Y031749D03*
D440*
X015346Y028647D03*
D441*
X015346Y030202D03*
D442*
X015346Y031745D03*
D443*
X016756Y031757D03*
X015354Y028647D03*
D444*
X015354Y030202D03*
X016764Y030202D03*
D445*
X016756Y028660D03*
X015785Y028510D03*
X015354Y031745D03*
D446*
X015362Y028651D03*
D447*
X015362Y030202D03*
D448*
X015362Y031741D03*
D449*
X015370Y028651D03*
D450*
X015370Y030202D03*
D451*
X015370Y031741D03*
D452*
X015379Y030202D03*
X016731Y030202D03*
X016739Y030202D03*
D453*
X017859Y029282D03*
X016731Y028668D03*
X015379Y031737D03*
D454*
X016722Y031745D03*
X015387Y028660D03*
D455*
X015387Y030202D03*
X016722Y030202D03*
D456*
X016722Y028672D03*
X015387Y031733D03*
D457*
X016714Y031741D03*
X015777Y028531D03*
X015395Y028664D03*
D458*
X015395Y030202D03*
D459*
X015404Y028664D03*
X016706Y031741D03*
D460*
X016706Y030202D03*
X015404Y030202D03*
D461*
X015404Y031737D03*
X015420Y031745D03*
X015445Y031753D03*
X016664Y031753D03*
X016689Y031745D03*
X016706Y028668D03*
X016689Y028660D03*
X016664Y028651D03*
X015445Y028651D03*
X015420Y028660D03*
D462*
X015412Y028668D03*
X016698Y028668D03*
X016698Y031737D03*
X015412Y031737D03*
D463*
X015412Y030202D03*
D464*
X015429Y031745D03*
X016681Y031745D03*
X016681Y028660D03*
X015429Y028660D03*
D465*
X015429Y030202D03*
X016681Y030202D03*
D466*
X016673Y030202D03*
X015437Y030202D03*
D467*
X015445Y030202D03*
X015453Y030202D03*
X016664Y030202D03*
D468*
X016590Y031782D03*
X015520Y031782D03*
X015453Y031757D03*
X015453Y028647D03*
X015520Y028622D03*
X016590Y028622D03*
X017875Y029286D03*
D469*
X016581Y028622D03*
X015462Y028647D03*
X015462Y031757D03*
X016581Y031782D03*
D470*
X015462Y030202D03*
D471*
X015478Y030202D03*
X016623Y030202D03*
D472*
X016631Y030202D03*
X015487Y030202D03*
D473*
X015495Y030202D03*
D474*
X015503Y030202D03*
X016598Y030202D03*
D475*
X016532Y031803D03*
X016482Y031811D03*
X016341Y031853D03*
X015628Y031811D03*
X015578Y031803D03*
X015536Y031787D03*
X015511Y031778D03*
X015511Y028626D03*
X015536Y028618D03*
X015578Y028602D03*
X016532Y028602D03*
D476*
X016606Y030202D03*
X015511Y030202D03*
D477*
X015528Y031782D03*
X016648Y031757D03*
X016648Y028647D03*
X015528Y028622D03*
D478*
X015536Y030202D03*
D479*
X015545Y030202D03*
X016565Y030202D03*
X016573Y030202D03*
D480*
X016548Y031795D03*
X016457Y031820D03*
X015752Y031845D03*
X015553Y028610D03*
X016357Y028560D03*
X016457Y028585D03*
X016548Y028610D03*
D481*
X015553Y030202D03*
D482*
X015561Y031795D03*
X016465Y031820D03*
X016557Y028610D03*
X016465Y028585D03*
X015561Y028610D03*
D483*
X015561Y030202D03*
X016557Y030202D03*
D484*
X016540Y031795D03*
X015644Y031820D03*
X015570Y031795D03*
X015570Y028610D03*
X015644Y028585D03*
X016540Y028610D03*
D485*
X016540Y030202D03*
X015570Y030202D03*
D486*
X015586Y031803D03*
X015619Y031811D03*
X015686Y031828D03*
X016424Y031828D03*
X016490Y031811D03*
X016515Y031803D03*
X016515Y028602D03*
X016490Y028593D03*
X016424Y028577D03*
X015686Y028577D03*
X015619Y028593D03*
X015586Y028602D03*
D487*
X015586Y030202D03*
X016515Y030202D03*
D488*
X016523Y030202D03*
X015594Y030202D03*
D489*
X015603Y030202D03*
X016507Y030202D03*
D490*
X016498Y030202D03*
X015611Y030202D03*
D491*
X015619Y030202D03*
D492*
X015628Y030202D03*
X016482Y030202D03*
D493*
X016474Y031816D03*
X016449Y031824D03*
X016432Y031824D03*
X016407Y031832D03*
X016399Y031832D03*
X016382Y031840D03*
X016374Y031840D03*
X016349Y031840D03*
X015735Y031840D03*
X015711Y031832D03*
X015694Y031832D03*
X015669Y031824D03*
X015661Y031824D03*
X015636Y031816D03*
X015636Y028589D03*
X015661Y028581D03*
X015669Y028581D03*
X015694Y028572D03*
X015711Y028572D03*
X015735Y028564D03*
X016374Y028564D03*
X016382Y028564D03*
X016399Y028572D03*
X016407Y028572D03*
X016432Y028581D03*
X016449Y028581D03*
X016474Y028589D03*
X017884Y029294D03*
D494*
X016474Y030202D03*
X015644Y030202D03*
X015636Y030202D03*
D495*
X015652Y031820D03*
X015652Y028585D03*
D496*
X015652Y029543D03*
X015652Y030862D03*
D497*
X015661Y030891D03*
X015661Y029514D03*
D498*
X015677Y029481D03*
X015677Y030924D03*
D499*
X015686Y030932D03*
X015686Y029472D03*
D500*
X015694Y029460D03*
X015694Y030945D03*
D501*
X015702Y029452D03*
D502*
X015702Y030949D03*
D503*
X015711Y030961D03*
X015711Y029443D03*
D504*
X015719Y028572D03*
X015752Y028564D03*
X015719Y031832D03*
X016357Y031840D03*
D505*
X015719Y030970D03*
X015719Y029435D03*
D506*
X015735Y029423D03*
X015735Y030982D03*
D507*
X015744Y030990D03*
X016366Y030990D03*
X016366Y029414D03*
X015744Y029414D03*
D508*
X015752Y029410D03*
X016357Y029410D03*
X016357Y030994D03*
X015752Y030994D03*
D509*
X015760Y028560D03*
D510*
X015760Y029406D03*
X016349Y029406D03*
X016349Y030999D03*
X015760Y030999D03*
D511*
X015760Y031865D03*
X016333Y031874D03*
X016349Y028531D03*
D512*
X016341Y029402D03*
X015769Y029402D03*
X015769Y031003D03*
X016341Y031003D03*
D513*
X015769Y031894D03*
X016341Y028510D03*
D514*
X015777Y029394D03*
X015777Y031011D03*
D515*
X015777Y031915D03*
D516*
X016316Y031919D03*
X017220Y031380D03*
X018108Y030211D03*
X018132Y030211D03*
X015793Y028485D03*
D517*
X015793Y029385D03*
X016316Y029385D03*
X016316Y031019D03*
X015793Y031019D03*
D518*
X015793Y031961D03*
X016316Y028444D03*
D519*
X016308Y029381D03*
X015802Y029381D03*
X015802Y031023D03*
X016308Y031023D03*
X017311Y030202D03*
D520*
X016291Y029369D03*
X015810Y029377D03*
X015810Y031028D03*
X016291Y031036D03*
D521*
X016266Y032002D03*
X015810Y032002D03*
X016266Y028402D03*
X016291Y028402D03*
D522*
X015818Y028415D03*
D523*
X015818Y029373D03*
X015818Y031032D03*
D524*
X015818Y032002D03*
X016250Y032002D03*
X016275Y032002D03*
X016275Y028402D03*
X016299Y028402D03*
D525*
X016283Y029369D03*
X015827Y029369D03*
X015827Y031036D03*
X016283Y031036D03*
D526*
X015843Y032002D03*
X015843Y028402D03*
D527*
X015843Y029365D03*
X015843Y031040D03*
D528*
X015852Y031044D03*
X016258Y031044D03*
X016258Y029360D03*
X015852Y029360D03*
D529*
X016225Y029348D03*
X016225Y031057D03*
X015893Y031057D03*
D530*
X015959Y032010D03*
X015984Y032010D03*
X016059Y032010D03*
X016084Y032010D03*
X016109Y032010D03*
X016125Y032010D03*
X016150Y032010D03*
X016150Y028394D03*
X016125Y028394D03*
X016109Y028394D03*
X016084Y028394D03*
X016059Y028394D03*
X015984Y028394D03*
X015959Y028394D03*
X015934Y028394D03*
X016175Y028394D03*
D531*
X016167Y028394D03*
X016134Y028394D03*
X016100Y028394D03*
X016067Y028394D03*
X015976Y028394D03*
X015943Y028394D03*
X015943Y032010D03*
X015976Y032010D03*
X016067Y032010D03*
X016100Y032010D03*
X016134Y032010D03*
X016167Y032010D03*
D532*
X016134Y031077D03*
X016100Y031077D03*
X015976Y031077D03*
X015976Y029327D03*
X016100Y029327D03*
X016134Y029327D03*
D533*
X016034Y028394D03*
X016009Y028394D03*
X016009Y032010D03*
X016034Y032010D03*
D534*
X016009Y031077D03*
X016009Y029327D03*
D535*
X016034Y029323D03*
X016034Y031082D03*
D536*
X016200Y032006D03*
X016200Y028398D03*
D537*
X016200Y029340D03*
X017320Y030202D03*
D538*
X016241Y029352D03*
X016241Y031052D03*
D539*
X016266Y031044D03*
X016266Y029360D03*
D540*
X016275Y029365D03*
X016275Y031040D03*
D541*
X016839Y031782D03*
X016291Y031990D03*
D542*
X016299Y031028D03*
X016299Y029377D03*
D543*
X016299Y031965D03*
D544*
X016324Y031015D03*
X016324Y029389D03*
D545*
X016324Y031894D03*
D546*
X018141Y030206D03*
X016333Y028490D03*
D547*
X016333Y029394D03*
X016333Y031011D03*
D548*
X016374Y030986D03*
X016382Y030978D03*
X016382Y029427D03*
X016374Y029419D03*
D549*
X016391Y028572D03*
X016391Y031832D03*
D550*
X016391Y030970D03*
X016391Y029435D03*
D551*
X016399Y029439D03*
X016399Y030965D03*
D552*
X016407Y030957D03*
X016407Y029448D03*
D553*
X016416Y029460D03*
X016416Y030945D03*
D554*
X016424Y030936D03*
X016424Y029468D03*
D555*
X016432Y029477D03*
X016432Y030928D03*
D556*
X016440Y030911D03*
X016440Y029493D03*
D557*
X016449Y029510D03*
X016449Y030895D03*
D558*
X016457Y030874D03*
X016457Y029530D03*
D559*
X016465Y030198D03*
D560*
X016490Y030198D03*
D561*
X016548Y030202D03*
D562*
X016581Y030202D03*
D563*
X016615Y030202D03*
D564*
X016656Y031757D03*
X016656Y028647D03*
D565*
X016656Y030202D03*
D566*
X016698Y030202D03*
X017560Y030211D03*
D567*
X016714Y030198D03*
D568*
X016731Y031745D03*
D569*
X016739Y031753D03*
D570*
X016747Y028664D03*
D571*
X016747Y030202D03*
D572*
X016756Y030202D03*
D573*
X016764Y028660D03*
D574*
X016764Y031757D03*
D575*
X016772Y028655D03*
D576*
X016772Y030202D03*
D577*
X016772Y031762D03*
D578*
X016789Y030202D03*
D579*
X016797Y030202D03*
D580*
X016805Y030202D03*
D581*
X016805Y031770D03*
X017933Y030211D03*
X017801Y029257D03*
D582*
X016814Y028643D03*
D583*
X016814Y030202D03*
D584*
X016814Y031774D03*
X017925Y030206D03*
D585*
X016822Y030202D03*
D586*
X016839Y028635D03*
D587*
X016839Y030202D03*
D588*
X016847Y028631D03*
D589*
X016847Y030202D03*
D590*
X016880Y031791D03*
D591*
X016888Y030202D03*
D592*
X016930Y030198D03*
D593*
X016938Y031774D03*
X016938Y028631D03*
D594*
X016938Y030202D03*
D595*
X016955Y030202D03*
D596*
X016963Y030202D03*
D597*
X016980Y030202D03*
D598*
X016988Y031741D03*
X016988Y028664D03*
D599*
X016988Y030202D03*
D600*
X017004Y031733D03*
X017004Y028672D03*
D601*
X017004Y030202D03*
D602*
X017013Y030202D03*
D603*
X017029Y030202D03*
D604*
X017038Y031708D03*
X017038Y028697D03*
D605*
X017038Y030202D03*
D606*
X017062Y031691D03*
X017062Y028713D03*
D607*
X017062Y030202D03*
D608*
X017071Y030202D03*
D609*
X017079Y030202D03*
D610*
X017087Y030198D03*
D611*
X017096Y028738D03*
D612*
X017121Y028759D03*
X017121Y031646D03*
D613*
X017129Y031637D03*
X017129Y028767D03*
D614*
X017129Y030202D03*
D615*
X017145Y030202D03*
D616*
X017154Y030202D03*
D617*
X017162Y030202D03*
D618*
X017170Y030202D03*
D619*
X017179Y030202D03*
D620*
X017195Y030202D03*
D621*
X017203Y030202D03*
D622*
X017212Y030202D03*
D623*
X017237Y030202D03*
D624*
X017245Y028585D03*
D625*
X017245Y030202D03*
D626*
X017253Y028572D03*
D627*
X017253Y030202D03*
D628*
X017262Y030202D03*
D629*
X017270Y030202D03*
D630*
X017278Y030202D03*
D631*
X017278Y031882D03*
D632*
X017286Y028535D03*
D633*
X017286Y031890D03*
D634*
X017295Y028523D03*
D635*
X017295Y030202D03*
D636*
X017295Y031903D03*
D637*
X017311Y028506D03*
D638*
X017311Y031919D03*
D639*
X017320Y028498D03*
D640*
X017320Y029137D03*
X017320Y031268D03*
D641*
X017361Y030202D03*
D642*
X017378Y030202D03*
D643*
X017386Y031177D03*
X017386Y029228D03*
D644*
X017394Y029240D03*
X017394Y031164D03*
D645*
X017394Y030202D03*
D646*
X017485Y031007D03*
D647*
X017510Y029448D03*
D648*
X017510Y030965D03*
D649*
X017544Y029547D03*
D650*
X017544Y030866D03*
D651*
X017552Y030211D03*
D652*
X017577Y030211D03*
D653*
X017585Y030211D03*
D654*
X017676Y030211D03*
D655*
X017726Y030211D03*
D656*
X017743Y030206D03*
D657*
X017751Y030211D03*
D658*
X017776Y030206D03*
D659*
X017784Y029248D03*
D660*
X017801Y030198D03*
D661*
X017809Y029261D03*
D662*
X017809Y030198D03*
D663*
X017809Y031152D03*
D664*
X017842Y030198D03*
D665*
X017842Y031135D03*
D666*
X017859Y031131D03*
D667*
X017867Y029286D03*
D668*
X017867Y030202D03*
D669*
X017892Y031119D03*
D670*
X017909Y029302D03*
D671*
X017909Y031111D03*
D672*
X017917Y029307D03*
D673*
X017933Y031098D03*
D674*
X017975Y029331D03*
D675*
X017991Y029340D03*
D676*
X018000Y029344D03*
D677*
X018000Y031073D03*
D678*
X018058Y030206D03*
D679*
X018124Y030211D03*
D680*
X016151Y040561D02*
X012303Y044408D01*
X013230Y043040D02*
X015196Y043240D01*
X015203Y043283D02*
X015203Y042941D01*
X015203Y042356D01*
X015203Y041744D01*
X015203Y041630D01*
X015204Y041625D01*
X015207Y041620D01*
X015212Y041617D01*
X015217Y041616D01*
X015217Y041615D02*
X015239Y041615D01*
X015253Y041615D01*
X015253Y041616D02*
X015261Y041618D01*
X015268Y041622D01*
X015272Y041629D01*
X015274Y041637D01*
X015274Y041644D01*
X015274Y041651D01*
X015274Y043347D01*
X015267Y043347D01*
X015253Y043345D01*
X015239Y043341D01*
X015227Y043333D01*
X015217Y043323D01*
X015209Y043311D01*
X015205Y043297D01*
X015203Y043283D01*
X015074Y043268D02*
X015073Y043254D01*
X015074Y043240D01*
X015075Y043268D02*
X015076Y043282D01*
X015074Y043297D01*
X015069Y043310D01*
X015061Y043322D01*
X015051Y043332D01*
X015039Y043340D01*
X015025Y043344D01*
X015011Y043346D01*
X015011Y043347D02*
X014968Y043347D01*
X014952Y043345D01*
X014937Y043340D01*
X014924Y043332D01*
X014913Y043320D01*
X014904Y043307D01*
X014899Y043292D01*
X014897Y043276D01*
X014897Y043226D01*
X015339Y043219D02*
X015348Y043205D01*
X015355Y043191D01*
X015360Y043176D01*
X015339Y043219D02*
X015330Y043227D01*
X015319Y043233D01*
X015307Y043235D01*
X015295Y043233D01*
X015296Y043211D02*
X015296Y041737D01*
X015296Y041729D02*
X015310Y041728D01*
X015324Y041730D01*
X015338Y041735D01*
X015350Y041743D01*
X015360Y041753D01*
X015367Y041765D01*
X015381Y041886D02*
X015310Y041893D01*
X015424Y041886D02*
X015431Y041888D01*
X015437Y041893D01*
X015440Y041900D01*
X015440Y041908D01*
X015437Y041915D01*
X015431Y041920D01*
X015424Y041922D01*
X015424Y041886D02*
X015403Y041885D01*
X015382Y041886D01*
X015196Y041730D02*
X013101Y041936D01*
X013102Y041935D02*
X013087Y041938D01*
X013074Y041945D01*
X013063Y041954D01*
X013054Y041965D01*
X013047Y041978D01*
X013044Y041993D01*
X013023Y042015D02*
X012930Y042015D01*
X012930Y042014D02*
X012919Y042015D01*
X012909Y042020D01*
X012900Y042027D01*
X012893Y042036D01*
X012888Y042046D01*
X012887Y042057D01*
X012888Y042057D02*
X012888Y042072D01*
X012887Y042071D02*
X012889Y042082D01*
X012894Y042092D01*
X012902Y042100D01*
X012912Y042105D01*
X012923Y042107D01*
X013023Y042107D01*
X013037Y042036D02*
X013044Y042755D01*
X012966Y042948D02*
X012968Y042968D01*
X012974Y042986D01*
X012983Y043004D01*
X012995Y043019D01*
X013010Y043031D01*
X013028Y043040D01*
X013046Y043046D01*
X013066Y043048D01*
X013086Y043046D01*
X013104Y043040D01*
X013122Y043031D01*
X013137Y043019D01*
X013149Y043004D01*
X013158Y042986D01*
X013164Y042968D01*
X013166Y042948D01*
X013164Y042928D01*
X013158Y042910D01*
X013149Y042892D01*
X013137Y042877D01*
X013122Y042865D01*
X013104Y042856D01*
X013086Y042850D01*
X013066Y042848D01*
X013046Y042850D01*
X013028Y042856D01*
X013010Y042865D01*
X012995Y042877D01*
X012983Y042892D01*
X012974Y042910D01*
X012968Y042928D01*
X012966Y042948D01*
X012881Y042948D02*
X012883Y042975D01*
X012889Y043001D01*
X012898Y043027D01*
X012912Y043050D01*
X012928Y043071D01*
X012948Y043090D01*
X012970Y043106D01*
X012994Y043118D01*
X013019Y043127D01*
X013046Y043132D01*
X013073Y043133D01*
X013100Y043130D01*
X013126Y043123D01*
X013151Y043113D01*
X013174Y043098D01*
X013194Y043081D01*
X013212Y043061D01*
X013227Y043039D01*
X013239Y043014D01*
X013247Y042988D01*
X013251Y042962D01*
X013251Y042934D01*
X013247Y042908D01*
X013239Y042882D01*
X013227Y042857D01*
X013212Y042835D01*
X013194Y042815D01*
X013174Y042798D01*
X013151Y042783D01*
X013126Y042773D01*
X013100Y042766D01*
X013073Y042763D01*
X013046Y042764D01*
X013019Y042769D01*
X012994Y042778D01*
X012970Y042790D01*
X012948Y042806D01*
X012928Y042825D01*
X012912Y042846D01*
X012898Y042869D01*
X012889Y042895D01*
X012883Y042921D01*
X012881Y042948D01*
X015432Y042292D02*
X015431Y042203D01*
X015427Y042114D01*
X015420Y042024D01*
X015411Y041936D01*
X015274Y041651D02*
X015274Y041644D01*
X015318Y041922D02*
X015353Y041925D01*
X015389Y041925D01*
X015424Y041922D01*
X015431Y042292D02*
X015431Y042328D01*
X015453Y042328D02*
X015396Y042328D01*
X015396Y042656D01*
X015453Y042656D01*
X015453Y042328D01*
X015431Y042663D02*
X015424Y042798D01*
X015203Y043268D02*
X015205Y043284D01*
X015211Y043300D01*
X015220Y043314D01*
X015232Y043325D01*
X015246Y043333D01*
X015262Y043338D01*
X015278Y043339D01*
X015294Y043336D01*
X015309Y043329D01*
X015323Y043320D01*
X015333Y043307D01*
X015341Y043292D01*
X015345Y043276D01*
X015345Y043260D01*
X015341Y043244D01*
X015333Y043229D01*
X015323Y043216D01*
X015310Y043207D01*
X015294Y043200D01*
X015278Y043197D01*
X015262Y043198D01*
X015246Y043203D01*
X015232Y043211D01*
X015220Y043222D01*
X015211Y043236D01*
X015205Y043252D01*
X015203Y043268D01*
X014655Y042770D02*
X014605Y042770D01*
X014596Y042769D01*
X014588Y042764D01*
X014582Y042758D01*
X014577Y042750D01*
X014576Y042741D01*
X014576Y042406D01*
X014577Y042395D01*
X014582Y042385D01*
X014589Y042376D01*
X014598Y042369D01*
X014608Y042364D01*
X014619Y042363D01*
X014619Y042364D02*
X014640Y042364D01*
X014662Y042364D01*
X015409Y041937D02*
X015403Y041894D01*
X015395Y041851D01*
X015395Y041850D02*
X015388Y041821D01*
X015378Y041793D01*
X015367Y041765D01*
X015396Y043034D02*
X015386Y043082D01*
X015374Y043129D01*
X015360Y043176D01*
X016165Y044423D02*
X012289Y040547D01*
X013044Y041993D02*
X013042Y042014D01*
X013037Y042036D01*
X015425Y042799D02*
X015419Y042877D01*
X015409Y042956D01*
X015396Y043034D01*
D681*
X014533Y038472D02*
X012915Y038472D01*
X012915Y033936D01*
X014533Y033936D01*
X014533Y038472D01*
D682*
X013879Y035215D02*
X013879Y035213D01*
X013937Y035181D01*
X013987Y035138D01*
X014029Y035087D01*
X013913Y035087D01*
X013919Y035083D02*
X013951Y035044D01*
X013976Y034999D01*
X013991Y034950D01*
X013996Y034899D01*
X013989Y034845D01*
X013971Y034793D01*
X013943Y034745D01*
X013907Y034703D01*
X013864Y034669D01*
X013814Y034645D01*
X013761Y034630D01*
X013706Y034625D01*
X013650Y034628D01*
X013595Y034641D01*
X013544Y034666D01*
X013414Y034666D01*
X013399Y034682D02*
X013522Y034682D01*
X013501Y034698D02*
X013385Y034698D01*
X013386Y034697D02*
X013434Y034643D01*
X013492Y034599D01*
X013557Y034567D01*
X013628Y034549D01*
X013701Y034545D01*
X013774Y034548D01*
X013845Y034565D01*
X013911Y034597D01*
X013969Y034640D01*
X014018Y034695D01*
X014055Y034758D01*
X014079Y034827D01*
X014088Y034899D01*
X014081Y034965D01*
X014061Y035028D01*
X014029Y035087D01*
X014038Y035071D02*
X013928Y035071D01*
X013919Y035083D02*
X013879Y035115D01*
X013879Y035215D01*
X013879Y035201D02*
X013900Y035201D01*
X013879Y035185D02*
X013929Y035185D01*
X013951Y035168D02*
X013879Y035168D01*
X013879Y035152D02*
X013971Y035152D01*
X013989Y035136D02*
X013879Y035136D01*
X013879Y035120D02*
X014002Y035120D01*
X014016Y035104D02*
X013893Y035104D01*
X013942Y035055D02*
X014047Y035055D01*
X014055Y035039D02*
X013954Y035039D01*
X013963Y035023D02*
X014063Y035023D01*
X014068Y035006D02*
X013972Y035006D01*
X013978Y034990D02*
X014073Y034990D01*
X014078Y034974D02*
X013983Y034974D01*
X013989Y034958D02*
X014082Y034958D01*
X014083Y034941D02*
X013992Y034941D01*
X013994Y034925D02*
X014085Y034925D01*
X014087Y034909D02*
X013995Y034909D01*
X013995Y034893D02*
X014087Y034893D01*
X014085Y034877D02*
X013993Y034877D01*
X013991Y034860D02*
X014083Y034860D01*
X014081Y034844D02*
X013989Y034844D01*
X013983Y034828D02*
X014079Y034828D01*
X014074Y034812D02*
X013977Y034812D01*
X013972Y034795D02*
X014068Y034795D01*
X014062Y034779D02*
X013963Y034779D01*
X013954Y034763D02*
X014057Y034763D01*
X014049Y034747D02*
X013945Y034747D01*
X013931Y034731D02*
X014039Y034731D01*
X014030Y034714D02*
X013917Y034714D01*
X013901Y034698D02*
X014020Y034698D01*
X014007Y034682D02*
X013880Y034682D01*
X013857Y034666D02*
X013992Y034666D01*
X013978Y034650D02*
X013824Y034650D01*
X013775Y034633D02*
X013960Y034633D01*
X013938Y034617D02*
X013468Y034617D01*
X013489Y034601D02*
X013917Y034601D01*
X013886Y034585D02*
X013521Y034585D01*
X013555Y034568D02*
X013851Y034568D01*
X013791Y034552D02*
X013615Y034552D01*
X013661Y034537D02*
X013661Y034277D01*
X014073Y034277D01*
X014073Y034293D02*
X013971Y034293D01*
X013971Y034278D02*
X013746Y034278D01*
X013746Y034537D01*
X013661Y034537D01*
X013661Y034536D02*
X013746Y034536D01*
X013746Y034520D02*
X013661Y034520D01*
X013661Y034504D02*
X013746Y034504D01*
X013746Y034487D02*
X013661Y034487D01*
X013661Y034471D02*
X013746Y034471D01*
X013746Y034455D02*
X013661Y034455D01*
X013661Y034439D02*
X013746Y034439D01*
X013746Y034423D02*
X013661Y034423D01*
X013661Y034406D02*
X013746Y034406D01*
X013746Y034390D02*
X013661Y034390D01*
X013661Y034374D02*
X013746Y034374D01*
X013746Y034358D02*
X013661Y034358D01*
X013661Y034341D02*
X013746Y034341D01*
X013746Y034325D02*
X013661Y034325D01*
X013661Y034309D02*
X013746Y034309D01*
X013746Y034293D02*
X013661Y034293D01*
X013661Y034277D02*
X013315Y034277D01*
X013315Y034171D01*
X014073Y034171D01*
X014073Y034525D01*
X013971Y034525D01*
X013971Y034278D01*
X013971Y034309D02*
X014073Y034309D01*
X014073Y034325D02*
X013971Y034325D01*
X013971Y034341D02*
X014073Y034341D01*
X014073Y034358D02*
X013971Y034358D01*
X013971Y034374D02*
X014073Y034374D01*
X014073Y034390D02*
X013971Y034390D01*
X013971Y034406D02*
X014073Y034406D01*
X014073Y034423D02*
X013971Y034423D01*
X013971Y034439D02*
X014073Y034439D01*
X014073Y034455D02*
X013971Y034455D01*
X013971Y034471D02*
X014073Y034471D01*
X014073Y034487D02*
X013971Y034487D01*
X013971Y034504D02*
X014073Y034504D01*
X014073Y034520D02*
X013971Y034520D01*
X013832Y034741D02*
X013792Y034718D01*
X013748Y034704D01*
X013702Y034700D01*
X013657Y034704D01*
X013613Y034718D01*
X013573Y034741D01*
X013539Y034772D01*
X013513Y034809D01*
X013495Y034852D01*
X013487Y034897D01*
X013492Y034937D01*
X013504Y034975D01*
X013524Y035010D01*
X013550Y035040D01*
X013582Y035064D01*
X013618Y035082D01*
X013618Y035005D01*
X013594Y034984D01*
X013575Y034958D01*
X013499Y034958D01*
X013504Y034974D02*
X013587Y034974D01*
X013575Y034958D02*
X013563Y034929D01*
X013558Y034897D01*
X013563Y034867D01*
X013574Y034838D01*
X013592Y034812D01*
X013616Y034791D01*
X013643Y034776D01*
X013673Y034768D01*
X013704Y034766D01*
X013735Y034768D01*
X013765Y034776D01*
X013792Y034792D01*
X013815Y034812D01*
X013894Y034812D01*
X013893Y034810D02*
X013866Y034772D01*
X013832Y034741D01*
X013839Y034747D02*
X013566Y034747D01*
X013548Y034763D02*
X013857Y034763D01*
X013872Y034779D02*
X013770Y034779D01*
X013797Y034795D02*
X013883Y034795D01*
X013893Y034810D02*
X013911Y034852D01*
X013920Y034897D01*
X013915Y034937D01*
X013902Y034975D01*
X013882Y035009D01*
X013856Y035039D01*
X013789Y035039D01*
X013789Y035055D02*
X013835Y035055D01*
X013824Y035064D02*
X013856Y035039D01*
X013870Y035023D02*
X013789Y035023D01*
X013789Y035006D02*
X013883Y035006D01*
X013893Y034990D02*
X013805Y034990D01*
X013813Y034983D02*
X013789Y035003D01*
X013789Y035082D01*
X013824Y035064D01*
X013809Y035071D02*
X013789Y035071D01*
X013813Y034983D02*
X013833Y034958D01*
X013907Y034958D01*
X013902Y034974D02*
X013821Y034974D01*
X013833Y034958D02*
X013845Y034929D01*
X013849Y034897D01*
X013845Y034867D01*
X013833Y034838D01*
X013815Y034812D01*
X013826Y034828D02*
X013901Y034828D01*
X013908Y034844D02*
X013836Y034844D01*
X013842Y034860D02*
X013913Y034860D01*
X013916Y034877D02*
X013846Y034877D01*
X013849Y034893D02*
X013919Y034893D01*
X013918Y034909D02*
X013848Y034909D01*
X013845Y034925D02*
X013916Y034925D01*
X013913Y034941D02*
X013840Y034941D01*
X013814Y034731D02*
X013590Y034731D01*
X013623Y034714D02*
X013781Y034714D01*
X013637Y034779D02*
X013534Y034779D01*
X013522Y034795D02*
X013611Y034795D01*
X013593Y034812D02*
X013512Y034812D01*
X013505Y034828D02*
X013581Y034828D01*
X013572Y034844D02*
X013498Y034844D01*
X013494Y034860D02*
X013565Y034860D01*
X013561Y034877D02*
X013491Y034877D01*
X013488Y034893D02*
X013558Y034893D01*
X013560Y034909D02*
X013488Y034909D01*
X013490Y034925D02*
X013562Y034925D01*
X013568Y034941D02*
X013493Y034941D01*
X013513Y034990D02*
X013601Y034990D01*
X013618Y035006D02*
X013522Y035006D01*
X013535Y035023D02*
X013618Y035023D01*
X013618Y035039D02*
X013550Y035039D01*
X013570Y035055D02*
X013618Y035055D01*
X013618Y035071D02*
X013597Y035071D01*
X013518Y035115D02*
X013518Y035213D01*
X013463Y035179D01*
X013414Y035136D01*
X013375Y035085D01*
X013344Y035028D01*
X013325Y034966D01*
X013317Y034901D01*
X013326Y034829D01*
X013349Y034760D01*
X013386Y034697D01*
X013376Y034714D02*
X013486Y034714D01*
X013499Y034700D02*
X013461Y034742D01*
X013433Y034791D01*
X013415Y034845D01*
X013409Y034901D01*
X013415Y034950D01*
X013430Y034997D01*
X013453Y035041D01*
X013483Y035081D01*
X013518Y035115D01*
X013518Y035120D02*
X013402Y035120D01*
X013415Y035136D02*
X013518Y035136D01*
X013518Y035152D02*
X013433Y035152D01*
X013451Y035168D02*
X013518Y035168D01*
X013518Y035185D02*
X013472Y035185D01*
X013499Y035201D02*
X013518Y035201D01*
X013507Y035104D02*
X013389Y035104D01*
X013376Y035087D02*
X013490Y035087D01*
X013475Y035071D02*
X013367Y035071D01*
X013359Y035055D02*
X013463Y035055D01*
X013452Y035039D02*
X013350Y035039D01*
X013343Y035023D02*
X013443Y035023D01*
X013435Y035006D02*
X013338Y035006D01*
X013332Y034990D02*
X013428Y034990D01*
X013423Y034974D02*
X013327Y034974D01*
X013324Y034958D02*
X013418Y034958D01*
X013414Y034941D02*
X013322Y034941D01*
X013320Y034925D02*
X013412Y034925D01*
X013410Y034909D02*
X013318Y034909D01*
X013318Y034893D02*
X013410Y034893D01*
X013412Y034877D02*
X013320Y034877D01*
X013322Y034860D02*
X013414Y034860D01*
X013416Y034844D02*
X013324Y034844D01*
X013326Y034828D02*
X013421Y034828D01*
X013426Y034812D02*
X013332Y034812D01*
X013337Y034795D02*
X013432Y034795D01*
X013440Y034779D02*
X013343Y034779D01*
X013348Y034763D02*
X013449Y034763D01*
X013459Y034747D02*
X013357Y034747D01*
X013367Y034731D02*
X013472Y034731D01*
X013499Y034700D02*
X013544Y034666D01*
X013578Y034650D02*
X013428Y034650D01*
X013447Y034633D02*
X013627Y034633D01*
X013315Y034260D02*
X014073Y034260D01*
X014073Y034244D02*
X013315Y034244D01*
X013315Y034228D02*
X014073Y034228D01*
X014073Y034212D02*
X013315Y034212D01*
X013315Y034195D02*
X014073Y034195D01*
X014073Y034179D02*
X013315Y034179D01*
D683*
X013723Y037827D03*
D684*
X013773Y037583D02*
X013672Y037583D01*
X013574Y037601D01*
X013480Y037636D01*
X013393Y037686D01*
X013317Y037752D01*
X013254Y037829D01*
X013205Y037917D01*
X013173Y038012D01*
X013157Y038111D01*
X013160Y038211D01*
X012947Y038211D01*
X012948Y038083D01*
X012970Y037957D01*
X013012Y037837D01*
X013074Y037725D01*
X013153Y037624D01*
X013247Y037538D01*
X013354Y037469D01*
X013471Y037418D01*
X013595Y037387D01*
X013723Y037376D01*
X013850Y037387D01*
X013974Y037418D01*
X014091Y037469D01*
X014198Y037538D01*
X014292Y037624D01*
X014371Y037725D01*
X014433Y037837D01*
X014475Y037957D01*
X014497Y038083D01*
X014498Y038211D01*
X014286Y038211D01*
X014288Y038111D01*
X014273Y038012D01*
X014240Y037917D01*
X014191Y037829D01*
X014128Y037752D01*
X014052Y037686D01*
X013965Y037636D01*
X013871Y037601D01*
X013773Y037583D01*
X013890Y037608D02*
X014274Y037608D01*
X014303Y037638D02*
X013969Y037638D01*
X014020Y037668D02*
X014326Y037668D01*
X014350Y037698D02*
X014065Y037698D01*
X014100Y037728D02*
X014373Y037728D01*
X014389Y037758D02*
X014133Y037758D01*
X014157Y037788D02*
X014406Y037788D01*
X014422Y037818D02*
X014182Y037818D01*
X014202Y037848D02*
X014437Y037848D01*
X014447Y037878D02*
X014218Y037878D01*
X014235Y037908D02*
X014458Y037908D01*
X014468Y037938D02*
X014247Y037938D01*
X014258Y037968D02*
X014477Y037968D01*
X014482Y037998D02*
X014268Y037998D01*
X014275Y038028D02*
X014487Y038028D01*
X014493Y038058D02*
X014280Y038058D01*
X014284Y038088D02*
X014497Y038088D01*
X014497Y038118D02*
X014288Y038118D01*
X014287Y038148D02*
X014498Y038148D01*
X014498Y038178D02*
X014286Y038178D01*
X014286Y038208D02*
X014498Y038208D01*
X014241Y037578D02*
X013204Y037578D01*
X013237Y037548D02*
X014208Y037548D01*
X014166Y037518D02*
X013279Y037518D01*
X013325Y037488D02*
X014120Y037488D01*
X014066Y037458D02*
X013379Y037458D01*
X013448Y037428D02*
X013997Y037428D01*
X013895Y037398D02*
X013550Y037398D01*
X013555Y037608D02*
X013171Y037608D01*
X013142Y037638D02*
X013476Y037638D01*
X013425Y037668D02*
X013119Y037668D01*
X013095Y037698D02*
X013380Y037698D01*
X013345Y037728D02*
X013072Y037728D01*
X013056Y037758D02*
X013312Y037758D01*
X013288Y037788D02*
X013039Y037788D01*
X013023Y037818D02*
X013263Y037818D01*
X013243Y037848D02*
X013008Y037848D01*
X012998Y037878D02*
X013227Y037878D01*
X013210Y037908D02*
X012987Y037908D01*
X012977Y037938D02*
X013198Y037938D01*
X013188Y037968D02*
X012968Y037968D01*
X012963Y037998D02*
X013177Y037998D01*
X013170Y038028D02*
X012958Y038028D01*
X012952Y038058D02*
X013165Y038058D01*
X013161Y038088D02*
X012948Y038088D01*
X012948Y038118D02*
X013157Y038118D01*
X013158Y038148D02*
X012947Y038148D01*
X012947Y038178D02*
X013159Y038178D01*
X013159Y038208D02*
X012947Y038208D01*
X012947Y036880D02*
X012948Y036753D01*
X012970Y036627D01*
X013012Y036506D01*
X013074Y036394D01*
X013153Y036294D01*
X013247Y036208D01*
X013354Y036138D01*
X013471Y036087D01*
X013595Y036056D01*
X013723Y036045D01*
X013850Y036056D01*
X013974Y036087D01*
X014091Y036138D01*
X014198Y036208D01*
X014292Y036294D01*
X014371Y036394D01*
X014433Y036506D01*
X014475Y036627D01*
X014497Y036753D01*
X014498Y036880D01*
X014286Y036880D01*
X014288Y036780D01*
X014273Y036681D01*
X014240Y036586D01*
X014191Y036499D01*
X014128Y036421D01*
X014052Y036356D01*
X013965Y036305D01*
X013871Y036270D01*
X013773Y036252D01*
X013672Y036252D01*
X013574Y036270D01*
X013480Y036305D01*
X013393Y036356D01*
X013317Y036421D01*
X013254Y036499D01*
X013205Y036586D01*
X013173Y036681D01*
X013157Y036780D01*
X013160Y036880D01*
X012947Y036880D01*
X012947Y036858D02*
X013159Y036858D01*
X013158Y036828D02*
X012947Y036828D01*
X012948Y036798D02*
X013158Y036798D01*
X013159Y036768D02*
X012948Y036768D01*
X012951Y036738D02*
X013164Y036738D01*
X013168Y036708D02*
X012956Y036708D01*
X012961Y036678D02*
X013174Y036678D01*
X013184Y036648D02*
X012966Y036648D01*
X012973Y036618D02*
X013194Y036618D01*
X013204Y036588D02*
X012984Y036588D01*
X012994Y036558D02*
X013221Y036558D01*
X013237Y036528D02*
X013005Y036528D01*
X013017Y036498D02*
X013254Y036498D01*
X013279Y036468D02*
X013033Y036468D01*
X013050Y036438D02*
X013303Y036438D01*
X013332Y036408D02*
X013066Y036408D01*
X013086Y036378D02*
X013367Y036378D01*
X013406Y036348D02*
X013110Y036348D01*
X013134Y036318D02*
X013457Y036318D01*
X013525Y036288D02*
X013159Y036288D01*
X013192Y036258D02*
X013641Y036258D01*
X013804Y036258D02*
X014253Y036258D01*
X014220Y036228D02*
X013225Y036228D01*
X013262Y036198D02*
X014183Y036198D01*
X014137Y036168D02*
X013308Y036168D01*
X013354Y036138D02*
X014091Y036138D01*
X014022Y036108D02*
X013423Y036108D01*
X013507Y036078D02*
X013938Y036078D01*
X013755Y036048D02*
X013690Y036048D01*
X013920Y036288D02*
X014286Y036288D01*
X014311Y036318D02*
X013988Y036318D01*
X014039Y036348D02*
X014335Y036348D01*
X014359Y036378D02*
X014078Y036378D01*
X014113Y036408D02*
X014379Y036408D01*
X014395Y036438D02*
X014142Y036438D01*
X014166Y036468D02*
X014412Y036468D01*
X014428Y036498D02*
X014191Y036498D01*
X014208Y036528D02*
X014440Y036528D01*
X014451Y036558D02*
X014224Y036558D01*
X014241Y036588D02*
X014461Y036588D01*
X014472Y036618D02*
X014251Y036618D01*
X014261Y036648D02*
X014479Y036648D01*
X014484Y036678D02*
X014272Y036678D01*
X014277Y036708D02*
X014489Y036708D01*
X014494Y036738D02*
X014281Y036738D01*
X014286Y036768D02*
X014497Y036768D01*
X014497Y036798D02*
X014287Y036798D01*
X014287Y036828D02*
X014498Y036828D01*
X014498Y036858D02*
X014286Y036858D01*
M02*
