G75*
%MOIN*%
%OFA0B0*%
%FSLAX24Y24*%
%IPPOS*%
%LPD*%
%AMOC8*
5,1,8,0,0,1.08239X$1,22.5*
%
%ADD10C,0.0160*%
%ADD11C,0.0000*%
D10*
X008033Y014549D02*
X033786Y014549D01*
X033853Y014560D01*
X033919Y014574D01*
X033984Y014592D01*
X034048Y014614D01*
X034110Y014640D01*
X034171Y014669D01*
X034230Y014702D01*
X034287Y014738D01*
X034342Y014777D01*
X034394Y014820D01*
X034444Y014865D01*
X034491Y014914D01*
X034535Y014965D01*
X034576Y015018D01*
X034614Y015074D01*
X034649Y015132D01*
X034680Y015192D01*
X034708Y015253D01*
X034732Y015316D01*
X034752Y015381D01*
X034769Y015446D01*
X034781Y015513D01*
X034790Y015579D01*
X034795Y015647D01*
X034796Y015714D01*
X034793Y015782D01*
X034786Y015849D01*
X034698Y048787D01*
X034698Y048794D02*
X034688Y049239D01*
X034683Y049249D02*
X033883Y050049D01*
X019933Y050049D01*
X019873Y050051D01*
X019812Y050056D01*
X019753Y050065D01*
X019694Y050078D01*
X019635Y050094D01*
X019578Y050114D01*
X019523Y050137D01*
X019468Y050164D01*
X019416Y050193D01*
X019365Y050226D01*
X019316Y050262D01*
X019270Y050300D01*
X019226Y050342D01*
X019184Y050386D01*
X019146Y050432D01*
X019110Y050481D01*
X019077Y050532D01*
X019048Y050584D01*
X019021Y050639D01*
X018998Y050694D01*
X018978Y050751D01*
X018962Y050810D01*
X018949Y050869D01*
X018940Y050928D01*
X018935Y050989D01*
X018933Y051049D01*
X018933Y051249D01*
X018931Y051309D01*
X018926Y051370D01*
X018917Y051429D01*
X018904Y051488D01*
X018888Y051547D01*
X018868Y051604D01*
X018845Y051659D01*
X018818Y051714D01*
X018789Y051766D01*
X018756Y051817D01*
X018720Y051866D01*
X018682Y051912D01*
X018640Y051956D01*
X018596Y051998D01*
X018550Y052036D01*
X018501Y052072D01*
X018450Y052105D01*
X018398Y052134D01*
X018343Y052161D01*
X018288Y052184D01*
X018231Y052204D01*
X018172Y052220D01*
X018113Y052233D01*
X018054Y052242D01*
X017993Y052247D01*
X017933Y052249D01*
X008033Y052249D01*
X007973Y052247D01*
X007912Y052242D01*
X007853Y052233D01*
X007794Y052220D01*
X007735Y052204D01*
X007678Y052184D01*
X007623Y052161D01*
X007568Y052134D01*
X007516Y052105D01*
X007465Y052072D01*
X007416Y052036D01*
X007370Y051998D01*
X007326Y051956D01*
X007284Y051912D01*
X007246Y051866D01*
X007210Y051817D01*
X007177Y051766D01*
X007148Y051714D01*
X007121Y051659D01*
X007098Y051604D01*
X007078Y051547D01*
X007062Y051488D01*
X007049Y051429D01*
X007040Y051370D01*
X007035Y051309D01*
X007033Y051249D01*
X007033Y015549D01*
X007035Y015489D01*
X007040Y015428D01*
X007049Y015369D01*
X007062Y015310D01*
X007078Y015251D01*
X007098Y015194D01*
X007121Y015139D01*
X007148Y015084D01*
X007177Y015032D01*
X007210Y014981D01*
X007246Y014932D01*
X007284Y014886D01*
X007326Y014842D01*
X007370Y014800D01*
X007416Y014762D01*
X007465Y014726D01*
X007516Y014693D01*
X007568Y014664D01*
X007623Y014637D01*
X007678Y014614D01*
X007735Y014594D01*
X007794Y014578D01*
X007853Y014565D01*
X007912Y014556D01*
X007973Y014551D01*
X008033Y014549D01*
D11*
X011013Y016640D02*
X011015Y016666D01*
X011021Y016692D01*
X011031Y016717D01*
X011044Y016740D01*
X011060Y016760D01*
X011080Y016778D01*
X011102Y016793D01*
X011125Y016805D01*
X011151Y016813D01*
X011177Y016817D01*
X011203Y016817D01*
X011229Y016813D01*
X011255Y016805D01*
X011279Y016793D01*
X011300Y016778D01*
X011320Y016760D01*
X011336Y016740D01*
X011349Y016717D01*
X011359Y016692D01*
X011365Y016666D01*
X011367Y016640D01*
X011365Y016614D01*
X011359Y016588D01*
X011349Y016563D01*
X011336Y016540D01*
X011320Y016520D01*
X011300Y016502D01*
X011278Y016487D01*
X011255Y016475D01*
X011229Y016467D01*
X011203Y016463D01*
X011177Y016463D01*
X011151Y016467D01*
X011125Y016475D01*
X011101Y016487D01*
X011080Y016502D01*
X011060Y016520D01*
X011044Y016540D01*
X011031Y016563D01*
X011021Y016588D01*
X011015Y016614D01*
X011013Y016640D01*
X012745Y016640D02*
X012747Y016666D01*
X012753Y016692D01*
X012763Y016717D01*
X012776Y016740D01*
X012792Y016760D01*
X012812Y016778D01*
X012834Y016793D01*
X012857Y016805D01*
X012883Y016813D01*
X012909Y016817D01*
X012935Y016817D01*
X012961Y016813D01*
X012987Y016805D01*
X013011Y016793D01*
X013032Y016778D01*
X013052Y016760D01*
X013068Y016740D01*
X013081Y016717D01*
X013091Y016692D01*
X013097Y016666D01*
X013099Y016640D01*
X013097Y016614D01*
X013091Y016588D01*
X013081Y016563D01*
X013068Y016540D01*
X013052Y016520D01*
X013032Y016502D01*
X013010Y016487D01*
X012987Y016475D01*
X012961Y016467D01*
X012935Y016463D01*
X012909Y016463D01*
X012883Y016467D01*
X012857Y016475D01*
X012833Y016487D01*
X012812Y016502D01*
X012792Y016520D01*
X012776Y016540D01*
X012763Y016563D01*
X012753Y016588D01*
X012747Y016614D01*
X012745Y016640D01*
M02*
