G75*
%MOIN*%
%OFA0B0*%
%FSLAX24Y24*%
%IPPOS*%
%LPD*%
%AMOC8*
5,1,8,0,0,1.08239X$1,22.5*
%
%ADD10C,0.0000*%
D10*
X007630Y006037D02*
X007630Y059155D01*
X007632Y059215D01*
X007637Y059276D01*
X007646Y059335D01*
X007659Y059394D01*
X007675Y059453D01*
X007695Y059510D01*
X007718Y059565D01*
X007745Y059620D01*
X007774Y059672D01*
X007807Y059723D01*
X007843Y059772D01*
X007881Y059818D01*
X007923Y059862D01*
X007967Y059904D01*
X008013Y059942D01*
X008062Y059978D01*
X008113Y060011D01*
X008165Y060040D01*
X008220Y060067D01*
X008275Y060090D01*
X008332Y060110D01*
X008391Y060126D01*
X008450Y060139D01*
X008509Y060148D01*
X008570Y060153D01*
X008630Y060155D01*
X038126Y060155D01*
X038186Y060153D01*
X038247Y060148D01*
X038306Y060139D01*
X038365Y060126D01*
X038424Y060110D01*
X038481Y060090D01*
X038536Y060067D01*
X038591Y060040D01*
X038643Y060011D01*
X038694Y059978D01*
X038743Y059942D01*
X038789Y059904D01*
X038833Y059862D01*
X038875Y059818D01*
X038913Y059772D01*
X038949Y059723D01*
X038982Y059672D01*
X039011Y059620D01*
X039038Y059565D01*
X039061Y059510D01*
X039081Y059453D01*
X039097Y059394D01*
X039110Y059335D01*
X039119Y059276D01*
X039124Y059215D01*
X039126Y059155D01*
X039126Y006037D01*
X039124Y005977D01*
X039119Y005916D01*
X039110Y005857D01*
X039097Y005798D01*
X039081Y005739D01*
X039061Y005682D01*
X039038Y005627D01*
X039011Y005572D01*
X038982Y005520D01*
X038949Y005469D01*
X038913Y005420D01*
X038875Y005374D01*
X038833Y005330D01*
X038789Y005288D01*
X038743Y005250D01*
X038694Y005214D01*
X038643Y005181D01*
X038591Y005152D01*
X038536Y005125D01*
X038481Y005102D01*
X038424Y005082D01*
X038365Y005066D01*
X038306Y005053D01*
X038247Y005044D01*
X038186Y005039D01*
X038126Y005037D01*
X008630Y005037D01*
X008570Y005039D01*
X008509Y005044D01*
X008450Y005053D01*
X008391Y005066D01*
X008332Y005082D01*
X008275Y005102D01*
X008220Y005125D01*
X008165Y005152D01*
X008113Y005181D01*
X008062Y005214D01*
X008013Y005250D01*
X007967Y005288D01*
X007923Y005330D01*
X007881Y005374D01*
X007843Y005420D01*
X007807Y005469D01*
X007774Y005520D01*
X007745Y005572D01*
X007718Y005627D01*
X007695Y005682D01*
X007675Y005739D01*
X007659Y005798D01*
X007646Y005857D01*
X007637Y005916D01*
X007632Y005977D01*
X007630Y006037D01*
X018261Y007793D02*
X018263Y007829D01*
X018269Y007864D01*
X018278Y007898D01*
X018292Y007932D01*
X018308Y007963D01*
X018328Y007993D01*
X018351Y008020D01*
X018377Y008045D01*
X018406Y008066D01*
X018436Y008085D01*
X018469Y008100D01*
X018503Y008111D01*
X018538Y008119D01*
X018573Y008123D01*
X018609Y008123D01*
X018644Y008119D01*
X018679Y008111D01*
X018713Y008100D01*
X018746Y008085D01*
X018776Y008066D01*
X018805Y008045D01*
X018831Y008020D01*
X018854Y007993D01*
X018874Y007963D01*
X018890Y007932D01*
X018904Y007898D01*
X018913Y007864D01*
X018919Y007829D01*
X018921Y007793D01*
X018919Y007757D01*
X018913Y007722D01*
X018904Y007688D01*
X018890Y007654D01*
X018874Y007623D01*
X018854Y007593D01*
X018831Y007566D01*
X018805Y007541D01*
X018776Y007520D01*
X018746Y007501D01*
X018713Y007486D01*
X018679Y007475D01*
X018644Y007467D01*
X018609Y007463D01*
X018573Y007463D01*
X018538Y007467D01*
X018503Y007475D01*
X018469Y007486D01*
X018436Y007501D01*
X018406Y007520D01*
X018377Y007541D01*
X018351Y007566D01*
X018328Y007593D01*
X018308Y007623D01*
X018292Y007654D01*
X018278Y007688D01*
X018269Y007722D01*
X018263Y007757D01*
X018261Y007793D01*
X026261Y007793D02*
X026263Y007829D01*
X026269Y007864D01*
X026278Y007898D01*
X026292Y007932D01*
X026308Y007963D01*
X026328Y007993D01*
X026351Y008020D01*
X026377Y008045D01*
X026406Y008066D01*
X026436Y008085D01*
X026469Y008100D01*
X026503Y008111D01*
X026538Y008119D01*
X026573Y008123D01*
X026609Y008123D01*
X026644Y008119D01*
X026679Y008111D01*
X026713Y008100D01*
X026746Y008085D01*
X026776Y008066D01*
X026805Y008045D01*
X026831Y008020D01*
X026854Y007993D01*
X026874Y007963D01*
X026890Y007932D01*
X026904Y007898D01*
X026913Y007864D01*
X026919Y007829D01*
X026921Y007793D01*
X026919Y007757D01*
X026913Y007722D01*
X026904Y007688D01*
X026890Y007654D01*
X026874Y007623D01*
X026854Y007593D01*
X026831Y007566D01*
X026805Y007541D01*
X026776Y007520D01*
X026746Y007501D01*
X026713Y007486D01*
X026679Y007475D01*
X026644Y007467D01*
X026609Y007463D01*
X026573Y007463D01*
X026538Y007467D01*
X026503Y007475D01*
X026469Y007486D01*
X026436Y007501D01*
X026406Y007520D01*
X026377Y007541D01*
X026351Y007566D01*
X026328Y007593D01*
X026308Y007623D01*
X026292Y007654D01*
X026278Y007688D01*
X026269Y007722D01*
X026263Y007757D01*
X026261Y007793D01*
X025937Y058580D02*
X025939Y058628D01*
X025945Y058676D01*
X025955Y058723D01*
X025968Y058769D01*
X025986Y058814D01*
X026006Y058858D01*
X026031Y058900D01*
X026059Y058939D01*
X026089Y058976D01*
X026123Y059010D01*
X026160Y059042D01*
X026198Y059071D01*
X026239Y059096D01*
X026282Y059118D01*
X026327Y059136D01*
X026373Y059150D01*
X026420Y059161D01*
X026468Y059168D01*
X026516Y059171D01*
X026564Y059170D01*
X026612Y059165D01*
X026660Y059156D01*
X026706Y059144D01*
X026751Y059127D01*
X026795Y059107D01*
X026837Y059084D01*
X026877Y059057D01*
X026915Y059027D01*
X026950Y058994D01*
X026982Y058958D01*
X027012Y058920D01*
X027038Y058879D01*
X027060Y058836D01*
X027080Y058792D01*
X027095Y058747D01*
X027107Y058700D01*
X027115Y058652D01*
X027119Y058604D01*
X027119Y058556D01*
X027115Y058508D01*
X027107Y058460D01*
X027095Y058413D01*
X027080Y058368D01*
X027060Y058324D01*
X027038Y058281D01*
X027012Y058240D01*
X026982Y058202D01*
X026950Y058166D01*
X026915Y058133D01*
X026877Y058103D01*
X026837Y058076D01*
X026795Y058053D01*
X026751Y058033D01*
X026706Y058016D01*
X026660Y058004D01*
X026612Y057995D01*
X026564Y057990D01*
X026516Y057989D01*
X026468Y057992D01*
X026420Y057999D01*
X026373Y058010D01*
X026327Y058024D01*
X026282Y058042D01*
X026239Y058064D01*
X026198Y058089D01*
X026160Y058118D01*
X026123Y058150D01*
X026089Y058184D01*
X026059Y058221D01*
X026031Y058260D01*
X026006Y058302D01*
X025986Y058346D01*
X025968Y058391D01*
X025955Y058437D01*
X025945Y058484D01*
X025939Y058532D01*
X025937Y058580D01*
X029244Y058580D02*
X029246Y058628D01*
X029252Y058676D01*
X029262Y058723D01*
X029275Y058769D01*
X029293Y058814D01*
X029313Y058858D01*
X029338Y058900D01*
X029366Y058939D01*
X029396Y058976D01*
X029430Y059010D01*
X029467Y059042D01*
X029505Y059071D01*
X029546Y059096D01*
X029589Y059118D01*
X029634Y059136D01*
X029680Y059150D01*
X029727Y059161D01*
X029775Y059168D01*
X029823Y059171D01*
X029871Y059170D01*
X029919Y059165D01*
X029967Y059156D01*
X030013Y059144D01*
X030058Y059127D01*
X030102Y059107D01*
X030144Y059084D01*
X030184Y059057D01*
X030222Y059027D01*
X030257Y058994D01*
X030289Y058958D01*
X030319Y058920D01*
X030345Y058879D01*
X030367Y058836D01*
X030387Y058792D01*
X030402Y058747D01*
X030414Y058700D01*
X030422Y058652D01*
X030426Y058604D01*
X030426Y058556D01*
X030422Y058508D01*
X030414Y058460D01*
X030402Y058413D01*
X030387Y058368D01*
X030367Y058324D01*
X030345Y058281D01*
X030319Y058240D01*
X030289Y058202D01*
X030257Y058166D01*
X030222Y058133D01*
X030184Y058103D01*
X030144Y058076D01*
X030102Y058053D01*
X030058Y058033D01*
X030013Y058016D01*
X029967Y058004D01*
X029919Y057995D01*
X029871Y057990D01*
X029823Y057989D01*
X029775Y057992D01*
X029727Y057999D01*
X029680Y058010D01*
X029634Y058024D01*
X029589Y058042D01*
X029546Y058064D01*
X029505Y058089D01*
X029467Y058118D01*
X029430Y058150D01*
X029396Y058184D01*
X029366Y058221D01*
X029338Y058260D01*
X029313Y058302D01*
X029293Y058346D01*
X029275Y058391D01*
X029262Y058437D01*
X029252Y058484D01*
X029246Y058532D01*
X029244Y058580D01*
X034205Y058580D02*
X034207Y058628D01*
X034213Y058676D01*
X034223Y058723D01*
X034236Y058769D01*
X034254Y058814D01*
X034274Y058858D01*
X034299Y058900D01*
X034327Y058939D01*
X034357Y058976D01*
X034391Y059010D01*
X034428Y059042D01*
X034466Y059071D01*
X034507Y059096D01*
X034550Y059118D01*
X034595Y059136D01*
X034641Y059150D01*
X034688Y059161D01*
X034736Y059168D01*
X034784Y059171D01*
X034832Y059170D01*
X034880Y059165D01*
X034928Y059156D01*
X034974Y059144D01*
X035019Y059127D01*
X035063Y059107D01*
X035105Y059084D01*
X035145Y059057D01*
X035183Y059027D01*
X035218Y058994D01*
X035250Y058958D01*
X035280Y058920D01*
X035306Y058879D01*
X035328Y058836D01*
X035348Y058792D01*
X035363Y058747D01*
X035375Y058700D01*
X035383Y058652D01*
X035387Y058604D01*
X035387Y058556D01*
X035383Y058508D01*
X035375Y058460D01*
X035363Y058413D01*
X035348Y058368D01*
X035328Y058324D01*
X035306Y058281D01*
X035280Y058240D01*
X035250Y058202D01*
X035218Y058166D01*
X035183Y058133D01*
X035145Y058103D01*
X035105Y058076D01*
X035063Y058053D01*
X035019Y058033D01*
X034974Y058016D01*
X034928Y058004D01*
X034880Y057995D01*
X034832Y057990D01*
X034784Y057989D01*
X034736Y057992D01*
X034688Y057999D01*
X034641Y058010D01*
X034595Y058024D01*
X034550Y058042D01*
X034507Y058064D01*
X034466Y058089D01*
X034428Y058118D01*
X034391Y058150D01*
X034357Y058184D01*
X034327Y058221D01*
X034299Y058260D01*
X034274Y058302D01*
X034254Y058346D01*
X034236Y058391D01*
X034223Y058437D01*
X034213Y058484D01*
X034207Y058532D01*
X034205Y058580D01*
X020976Y058580D02*
X020978Y058628D01*
X020984Y058676D01*
X020994Y058723D01*
X021007Y058769D01*
X021025Y058814D01*
X021045Y058858D01*
X021070Y058900D01*
X021098Y058939D01*
X021128Y058976D01*
X021162Y059010D01*
X021199Y059042D01*
X021237Y059071D01*
X021278Y059096D01*
X021321Y059118D01*
X021366Y059136D01*
X021412Y059150D01*
X021459Y059161D01*
X021507Y059168D01*
X021555Y059171D01*
X021603Y059170D01*
X021651Y059165D01*
X021699Y059156D01*
X021745Y059144D01*
X021790Y059127D01*
X021834Y059107D01*
X021876Y059084D01*
X021916Y059057D01*
X021954Y059027D01*
X021989Y058994D01*
X022021Y058958D01*
X022051Y058920D01*
X022077Y058879D01*
X022099Y058836D01*
X022119Y058792D01*
X022134Y058747D01*
X022146Y058700D01*
X022154Y058652D01*
X022158Y058604D01*
X022158Y058556D01*
X022154Y058508D01*
X022146Y058460D01*
X022134Y058413D01*
X022119Y058368D01*
X022099Y058324D01*
X022077Y058281D01*
X022051Y058240D01*
X022021Y058202D01*
X021989Y058166D01*
X021954Y058133D01*
X021916Y058103D01*
X021876Y058076D01*
X021834Y058053D01*
X021790Y058033D01*
X021745Y058016D01*
X021699Y058004D01*
X021651Y057995D01*
X021603Y057990D01*
X021555Y057989D01*
X021507Y057992D01*
X021459Y057999D01*
X021412Y058010D01*
X021366Y058024D01*
X021321Y058042D01*
X021278Y058064D01*
X021237Y058089D01*
X021199Y058118D01*
X021162Y058150D01*
X021128Y058184D01*
X021098Y058221D01*
X021070Y058260D01*
X021045Y058302D01*
X021025Y058346D01*
X021007Y058391D01*
X020994Y058437D01*
X020984Y058484D01*
X020978Y058532D01*
X020976Y058580D01*
M02*
