%
M48
M72
T01C0.01200
T02C0.01400
T03C0.01600
T04C0.02756
T05C0.03600
T06C0.04000
T07C0.05200
T08C0.07087
T09C0.09000
T10C0.11811
T11C0.13780
%
T01
X322233Y285220
X286233Y281620
X281433Y281620
X289833Y278620
X282033Y257620
X270633Y314620
X270633Y320020
X270633Y325420
X266433Y321220
X265833Y315220
X265833Y309820
X307233Y338020
X332433Y362020
X331833Y366820
X328233Y363220
X328233Y471820
X328233Y466420
X328233Y461020
X328233Y477220
X328233Y455620
X316233Y547420
X318633Y544420
X312033Y547420
X99033Y400420
X99033Y404020
X78633Y338620
X83433Y338620
X88233Y338620
X65433Y367420
X65433Y363220
X61833Y365020
X79233Y284020
X85233Y284020
X91233Y284020
X77433Y207220
X82833Y207220
X76233Y199420
X81633Y199420
X89433Y230020
X81633Y227620
X94833Y235420
X89433Y240820
X100233Y240820
X94833Y246220
X84033Y235420
X69033Y167020
X69033Y161020
X69033Y172420
X69033Y155020
X71433Y53620
X70233Y81220
X73833Y81220
X307833Y97420
X313833Y105820
X313233Y109420
X297033Y161020
X292233Y156220
X284433Y156220
X276633Y123220
X286233Y123220
X281433Y123220
X204033Y478420
X207633Y478420
X204033Y474820
X207633Y474820
X200433Y478420
X207633Y470620
X221482Y191916
X225419Y191916
X229356Y191916
X245819Y248916
X245819Y253116
X241619Y248916
X160619Y290316
X180419Y289716
X180419Y284316
X160619Y284316
X152219Y287316
X165633Y274420
X170433Y274420
X175233Y274420
X163833Y262420
X159033Y262420
X172282Y199716
X172282Y196716
X122835Y307748
X122835Y304148
X122835Y300548
X122835Y296948
X127035Y296948
X127035Y300548
X127035Y304148
X335433Y260620
X335433Y255220
X328833Y255220
X328833Y243220
X328833Y249220
X328833Y260620
X166619Y302916
X171419Y302916
X245819Y257316
X75033Y415420
X79233Y415420
X75033Y407620
X75033Y395620
X71433Y66220
X321033Y525220
X317433Y525220
X321633Y517420
X317433Y517420
X75633Y187420
X79833Y187420
X321633Y415420
X321633Y423220
X322233Y435220
X57033Y326620
X55833Y317020
X57033Y309220
X316233Y280420
X319233Y282820
X339633Y297220
X339633Y305620
X339633Y313420
X320433Y537220
X129633Y50020
X137433Y50020
X145233Y50020
X153033Y50020
X160833Y50020
X168633Y50020
X176433Y50020
X184233Y50020
X192033Y50020
X199833Y50020
X207633Y50020
X215433Y50020
X223233Y50020
X231033Y50020
X238833Y50020
X246633Y50020
X254433Y50020
X348033Y147820
X340233Y147820
X332433Y147820
X332433Y155620
X340233Y155620
X348033Y155620
X245556Y197916
X258756Y203916
X204033Y470620
X211233Y470620
X66633Y81220
X337233Y209020
X337233Y215020
X337233Y221020
X337233Y228220
X57633Y101020
X57633Y107620
X57633Y94420
X94233Y91420
X109833Y91420
X313233Y165820
X313233Y159820
X200433Y474820
X200433Y470620
X211233Y474820
X243033Y524020
X243033Y530020
X243033Y536020
X243033Y542020
X243033Y548020
X239433Y488620
X239433Y493420
X243633Y491620
X238233Y519220
X99033Y396820
X91233Y437620
X96033Y437620
X100833Y437620
X105033Y437620
X105033Y443020
X164433Y516220
X166233Y512620
X162633Y512620
X220833Y468220
X175833Y463420
X156633Y474820
X156633Y489820
X282033Y254020
X285033Y255820
X288033Y257620
X288033Y253420
X285033Y251020
X285033Y260620
X71433Y345220
X149433Y457420
X194433Y452620
X167433Y424420
X167433Y420220
X163833Y422020
X183033Y417220
X183033Y413020
X183033Y408820
X168033Y438220
X206433Y423820
X206433Y428020
X206433Y432220
X284433Y539020
X281433Y537220
X278433Y539020
X76233Y386620
X76233Y382420
X72633Y384220
X321633Y273820
X324633Y276820
X322233Y338020
X316833Y338020
X312033Y338020
X229833Y135220
X222033Y135220
X222033Y143020
X229833Y143020
X314433Y368620
X315633Y380620
X306033Y359620
X318633Y401020
X169833Y173620
X169833Y169420
X111633Y164620
X79833Y128620
X208233Y297220
X229233Y297820
X244233Y352420
X277833Y435820
X111633Y345220
X111633Y341020
X108033Y342820
X298833Y101620
X173433Y206020
X192033Y189820
X246033Y241420
X75633Y93820
X295233Y126820
X298233Y126820
X301233Y126820
X320433Y230020
X320433Y222820
X307233Y278620
X171033Y451420
X141033Y457420
X175833Y491620
X114033Y249820
X221433Y454420
X86441Y357812
X226233Y174820
X219033Y158020
X194433Y290620
X222033Y311620
X162033Y209020
X169833Y155620
X228033Y214420
X231733Y217220
X231033Y211420
X177970Y106420
X241833Y236020
X271833Y234820
X275433Y167020
X211833Y223420
X207033Y234820
X142233Y143620
X301833Y175420
X209433Y209620
X319833Y453820
X244833Y224020
X212433Y217420
X237933Y229120
X303633Y453820
X147033Y128020
X108033Y363820
X298833Y384220
X109233Y211420
X147033Y134620
X180633Y165220
X180033Y140020
X178233Y168220
X176433Y143020
X228633Y197020
X231633Y200020
X231033Y204220
X227433Y207820
X187833Y196420
X173433Y146620
X310833Y294220
X304833Y329020
X85233Y329020
X202833Y161620
X202833Y132220
X100833Y369220
X121233Y355420
X274087Y261574
X271233Y243820
X170433Y152020
X152433Y197020
X102633Y285820
X78033Y357820
X279033Y192220
X278433Y169420
X262233Y252820
X173433Y494620
X232833Y338020
X198633Y494020
X291633Y384220
X306033Y384220
X240633Y226420
X212433Y213820
X311433Y453820
X108633Y197020
X104433Y220420
X235833Y231820
X208233Y220420
X301833Y182620
X301833Y168220
X184833Y219820
X135633Y210820
X275433Y240220
X277833Y280623
X154233Y467620
X76233Y536020
X219033Y180220
X267633Y185020
X219033Y183820
X268833Y188020
X184233Y223420
X130833Y213820
X219033Y188020
X269433Y191620
X219033Y176020
X264033Y182020
X171633Y216820
X123033Y216820
X262233Y272020
X201633Y240220
X211233Y245020
X211233Y251620
X224433Y251620
X224433Y245020
X198033Y254620
X239433Y254620
X240033Y286420
X197433Y286420
X342033Y64420
X334833Y60820
X349233Y60820
X351033Y55420
X332433Y55420
X335433Y48220
X342033Y46420
X348033Y48820
X253533Y158020
X250058Y177644
X248733Y158020
X245433Y177820
X153633Y464020
X69033Y536020
X180633Y513820
X174633Y513820
X144633Y438220
X100233Y348220
X292833Y265420
T02
X312633Y540820
X312633Y533620
X87633Y189820
X87633Y185620
X286833Y61420
X189033Y258220
X267033Y492220
X81033Y297220
X271833Y551020
X268233Y551020
X271833Y547420
X268233Y547420
X264633Y547420
X264633Y551020
T03
X213033Y315820
X213033Y320020
X213033Y324220
X213033Y328420
X213033Y332620
X208833Y332620
X208833Y328420
X208833Y324220
X208833Y320020
X208833Y315820
X204633Y315820
X204633Y320020
X204633Y324220
X200433Y315820
X196233Y315820
X200433Y320020
X192033Y315820
X187833Y315820
X187833Y320020
X192033Y320020
X196233Y320020
X310833Y438820
X310833Y432220
X84033Y396220
X84033Y390820
X322833Y383620
X325833Y269020
X72033Y357220
X151233Y504220
T04
X208499Y263673
X228499Y263673
T05
X322029Y107880
X322029Y98037
X329829Y98037
X329829Y107880
X250874Y484759
X250874Y474759
X260874Y484759
X260874Y474759
X250874Y464525
X250874Y454525
X260874Y464525
X260874Y454525
X279633Y511020
X279633Y501020
T06
X266748Y228147
X276748Y228147
X266748Y218147
X276748Y218147
X266748Y208147
X276748Y208147
X111164Y55710
X101164Y55710
X91164Y55710
X81164Y55710
X161129Y255006
X161129Y245006
X161129Y235006
X161129Y225006
X306633Y210820
X306633Y220820
X306633Y230820
X306633Y240820
X149596Y254949
X149596Y244949
X149596Y234949
X149596Y224949
X136400Y90497
X146400Y90497
X156400Y90497
X166400Y90497
X176400Y90497
X186400Y90497
X111164Y65661
X101164Y65661
X91164Y65661
X81164Y65661
X251304Y90833
X241304Y90833
X231304Y90833
X221304Y90833
X211304Y90833
X201304Y90833
X198633Y329020
T07
X72851Y495576
X80851Y472076
X80851Y519076
X128851Y519076
X128851Y472076
T08
X151070Y548392
X134534Y548392
X117999Y548392
X101463Y548392
X229810Y548392
X213274Y548392
X196739Y548392
X180203Y548392
T09
X340529Y126659
X340529Y79259
T10
X151070Y577132
X101463Y577132
X229810Y577132
X180203Y577132
T11
X54613Y55399
X342014Y579022
X54613Y579022
X342014Y55399
M30
