%
M48
M72
T01C0.0120
T02C0.0140
T03C0.0160
T04C0.0236
T05C0.0276
T06C0.0315
T07C0.0354
T08C0.0360
T09C0.0400
T10C0.0512
T11C0.1417
%
T01
X27333Y21949
X30233Y27349
X7633Y29449
X7533Y32849
X16133Y21669
X12713Y20659
X12623Y20279
X9923Y21699
X26733Y20409
X24733Y33849
X20833Y36149
X25093Y31469
X21493Y33569
X18733Y35049
X23053Y37409
X20713Y40289
X21493Y41069
X30413Y29109
X10333Y49169
X29113Y40169
X19043Y34879
X11823Y37629
X19483Y34819
X11833Y37199
X19843Y34819
X11823Y36579
X11833Y33949
X20123Y33709
X23653Y29969
X20113Y29849
X22113Y34889
X12129Y33093
X18103Y23919
X23353Y23609
X18823Y24349
X23113Y24209
X26893Y36029
X27253Y35009
X27013Y34829
X20293Y41649
X19303Y39959
X22093Y41609
X33973Y28659
X30673Y19879
X30673Y19579
X30673Y19279
X32003Y19889
X32003Y19589
X32003Y19289
X32573Y19899
X32573Y19599
X32573Y19299
X33973Y19899
X33973Y19599
X33973Y19299
X31033Y45809
X25933Y33689
X28993Y34769
X29233Y36729
X31883Y44669
X19513Y31409
X23473Y36209
X21253Y45869
X18793Y45929
X20113Y36449
X15733Y38969
X13573Y43229
X23533Y46529
X28753Y46529
X22023Y31979
X14383Y31919
X15353Y36399
X28703Y35479
X28693Y36659
X31723Y46659
X10003Y46219
X14053Y47789
X23493Y35539
X23893Y44069
X30373Y47009
X30733Y44489
X28813Y46829
X23593Y46829
X21623Y31769
X15143Y36029
X9513Y46139
X29013Y35189
X28933Y37039
X31793Y45379
X13963Y31869
X15133Y48809
X15133Y49769
X9793Y47369
X26293Y33809
X30733Y45869
X24793Y34469
X24313Y44849
X23773Y44349
X23413Y35849
X30013Y47069
X30493Y44309
X13943Y32189
X14903Y35579
X10083Y43539
X21373Y31529
X30013Y46769
X25093Y34889
X20233Y34789
X11823Y35969
X11823Y34649
X20183Y34079
X20283Y34429
X11843Y35259
X23613Y44949
X29633Y40749
X19753Y41669
X19633Y44069
X23633Y45249
X29593Y41249
X19513Y41489
X19393Y44309
X14053Y21329
X15013Y20009
X18443Y17719
X18653Y18149
X12183Y32399
X23063Y32909
X24133Y41009
X25093Y38189
X28693Y33569
X27253Y32969
X20293Y18989
X18793Y17609
X23593Y45569
X29353Y41609
X19213Y41309
X19153Y44609
X21013Y39389
X21133Y40289
X16273Y47744
X20413Y38189
X24553Y38549
X19093Y45629
X20173Y38429
X19693Y40169
X21193Y39029
X15553Y43709
X15013Y45209
X21223Y37859
X10893Y44519
X21193Y38199
X10643Y44939
X12613Y45269
X12613Y42929
X12793Y43229
X12913Y45209
X19693Y36509
X16393Y38909
X13093Y43289
X16813Y40409
X13813Y44669
X13333Y42989
X16093Y38909
X19513Y36989
X23583Y32799
X14893Y32169
X15583Y36999
X10053Y46669
X24213Y33389
X31493Y47299
T02
X7693Y51509
X8913Y51689
X10133Y51689
X7633Y49989
X8433Y50769
X10073Y50709
X9173Y49969
X9513Y49109
X25133Y41889
X31033Y22149
T03
X12913Y38669
X13993Y37049
X13933Y35669
X18133Y36209
X30133Y37889
X28033Y40049
X27193Y38789
X30493Y43229
X28153Y44009
X30013Y33209
X31513Y31769
X21673Y28949
X21733Y27029
X21733Y25649
X26593Y31529
X12373Y31349
X15193Y31169
X18193Y31169
X16873Y31229
X12553Y24149
X10513Y23969
X16513Y22649
X15433Y24929
X18973Y25229
X17293Y25049
X31753Y28229
X31753Y25229
X29413Y22769
X29233Y20069
X25693Y35489
X25393Y34109
X22693Y43049
X22693Y44489
X25333Y21029
T04
X25273Y44669
T05
X15224Y40567
X16638Y41981
T06
X9683Y40099
X9683Y39099
X9683Y38099
X9683Y37099
X9683Y36099
X9683Y35099
X9683Y34099
X8683Y40099
X8683Y39099
X8683Y38099
X8683Y37099
X8683Y36099
X8683Y35099
X8683Y34099
X7683Y40099
X7683Y39099
X7683Y38099
X7683Y37099
X7683Y36099
X7683Y35099
X7683Y34099
T07
X11190Y16640
X12922Y16640
T08
X33803Y37859
X32803Y37859
X33803Y38859
X32803Y38859
X33803Y39859
X32803Y39859
X32803Y40859
X33803Y40859
T09
X8163Y31729
X9163Y31729
X24413Y42609
X25120Y43316
X25120Y41902
X25827Y42609
X25827Y41195
X26534Y41902
X19149Y49292
X20149Y49292
X21149Y49292
X22149Y49292
X23149Y49292
X24149Y49292
X25233Y48219
X26233Y48219
X27233Y48219
X28233Y48219
X29233Y48219
X30233Y48219
X25224Y49303
X26224Y49303
X27224Y49303
X28224Y49303
X29224Y49303
X30224Y49303
X19148Y48208
X20148Y48208
X21148Y48208
X22148Y48208
X23148Y48208
X24148Y48208
X8063Y41639
X8063Y42639
X8063Y43639
X8063Y44639
X8063Y45639
X8063Y46639
X33593Y42169
X33593Y43169
X33593Y44169
X33593Y45169
X33593Y46169
X33593Y47169
X33533Y36049
X33533Y35049
X33533Y34049
X33533Y33049
X8161Y30464
X9161Y30464
X17938Y51301
X17938Y50301
X17938Y49301
X17938Y48301
X17938Y47301
X17938Y46301
X15716Y51301
X15716Y50301
X15716Y49301
X15716Y48301
X15716Y47301
X15716Y46301
X13514Y51301
X13514Y50301
X13514Y49301
X13514Y48301
X13514Y47301
X13514Y46301
X14609Y51301
X14609Y50301
X14609Y49301
X14609Y48301
X14609Y47301
X14609Y46301
X16827Y51301
X16827Y50301
X16827Y49301
X16827Y48301
X16827Y47301
X16827Y46301
X9149Y46641
X9149Y45641
X9149Y44641
X9149Y43641
X9149Y42641
X9149Y41641
X32500Y47161
X32500Y46161
X32500Y45161
X32500Y44161
X32500Y43161
X32500Y42161
X11314Y46297
X11314Y47297
X11314Y48297
X11314Y49297
X11314Y50297
X11314Y51297
X12412Y46297
X12412Y47297
X12412Y48297
X12412Y49297
X12412Y50297
X12412Y51297
X15791Y15629
X16791Y15629
X17791Y15629
X18791Y15629
X19791Y15629
X20791Y15629
X15791Y16739
X16791Y16739
X17791Y16739
X18791Y16739
X19791Y16739
X20791Y16739
T10
X8505Y27660
X8505Y25692
X30493Y16349
X28524Y16349
X26014Y16348
X24045Y16348
T11
X33459Y48749
X33521Y15879
X8243Y15779
X8261Y48749
M30
