G75*
%MOIN*%
%OFA0B0*%
%FSLAX24Y24*%
%IPPOS*%
%LPD*%
%AMOC8*
5,1,8,0,0,1.08239X$1,22.5*
%
%ADD10C,0.0160*%
%ADD11C,0.0030*%
%ADD12C,0.0060*%
%ADD13C,0.0000*%
%ADD14C,0.0059*%
D10*
X008033Y014549D02*
X033786Y014549D01*
X033853Y014560D01*
X033919Y014574D01*
X033984Y014592D01*
X034048Y014614D01*
X034110Y014640D01*
X034171Y014669D01*
X034230Y014702D01*
X034287Y014738D01*
X034342Y014777D01*
X034394Y014820D01*
X034444Y014865D01*
X034491Y014914D01*
X034535Y014965D01*
X034576Y015018D01*
X034614Y015074D01*
X034649Y015132D01*
X034680Y015192D01*
X034708Y015253D01*
X034732Y015316D01*
X034752Y015381D01*
X034769Y015446D01*
X034781Y015513D01*
X034790Y015579D01*
X034795Y015647D01*
X034796Y015714D01*
X034793Y015782D01*
X034786Y015849D01*
X034698Y048787D01*
X034698Y048794D02*
X034688Y049239D01*
X034683Y049249D02*
X033883Y050049D01*
X019933Y050049D01*
X019873Y050051D01*
X019812Y050056D01*
X019753Y050065D01*
X019694Y050078D01*
X019635Y050094D01*
X019578Y050114D01*
X019523Y050137D01*
X019468Y050164D01*
X019416Y050193D01*
X019365Y050226D01*
X019316Y050262D01*
X019270Y050300D01*
X019226Y050342D01*
X019184Y050386D01*
X019146Y050432D01*
X019110Y050481D01*
X019077Y050532D01*
X019048Y050584D01*
X019021Y050639D01*
X018998Y050694D01*
X018978Y050751D01*
X018962Y050810D01*
X018949Y050869D01*
X018940Y050928D01*
X018935Y050989D01*
X018933Y051049D01*
X018933Y051249D01*
X018931Y051309D01*
X018926Y051370D01*
X018917Y051429D01*
X018904Y051488D01*
X018888Y051547D01*
X018868Y051604D01*
X018845Y051659D01*
X018818Y051714D01*
X018789Y051766D01*
X018756Y051817D01*
X018720Y051866D01*
X018682Y051912D01*
X018640Y051956D01*
X018596Y051998D01*
X018550Y052036D01*
X018501Y052072D01*
X018450Y052105D01*
X018398Y052134D01*
X018343Y052161D01*
X018288Y052184D01*
X018231Y052204D01*
X018172Y052220D01*
X018113Y052233D01*
X018054Y052242D01*
X017993Y052247D01*
X017933Y052249D01*
X008033Y052249D01*
X007973Y052247D01*
X007912Y052242D01*
X007853Y052233D01*
X007794Y052220D01*
X007735Y052204D01*
X007678Y052184D01*
X007623Y052161D01*
X007568Y052134D01*
X007516Y052105D01*
X007465Y052072D01*
X007416Y052036D01*
X007370Y051998D01*
X007326Y051956D01*
X007284Y051912D01*
X007246Y051866D01*
X007210Y051817D01*
X007177Y051766D01*
X007148Y051714D01*
X007121Y051659D01*
X007098Y051604D01*
X007078Y051547D01*
X007062Y051488D01*
X007049Y051429D01*
X007040Y051370D01*
X007035Y051309D01*
X007033Y051249D01*
X007033Y015549D01*
X007035Y015489D01*
X007040Y015428D01*
X007049Y015369D01*
X007062Y015310D01*
X007078Y015251D01*
X007098Y015194D01*
X007121Y015139D01*
X007148Y015084D01*
X007177Y015032D01*
X007210Y014981D01*
X007246Y014932D01*
X007284Y014886D01*
X007326Y014842D01*
X007370Y014800D01*
X007416Y014762D01*
X007465Y014726D01*
X007516Y014693D01*
X007568Y014664D01*
X007623Y014637D01*
X007678Y014614D01*
X007735Y014594D01*
X007794Y014578D01*
X007853Y014565D01*
X007912Y014556D01*
X007973Y014551D01*
X008033Y014549D01*
D11*
X014277Y026274D02*
X014277Y026521D01*
X014400Y026644D01*
X014524Y026521D01*
X014524Y026274D01*
X014645Y026212D02*
X014892Y026212D01*
X015013Y026397D02*
X015013Y026644D01*
X015013Y026397D02*
X015137Y026274D01*
X015260Y026397D01*
X015260Y026644D01*
X015382Y026644D02*
X015629Y026644D01*
X015629Y026274D01*
X015382Y026274D01*
X015505Y026459D02*
X015629Y026459D01*
X015750Y026459D02*
X015812Y026397D01*
X015997Y026397D01*
X015997Y026274D02*
X015997Y026644D01*
X015812Y026644D01*
X015750Y026582D01*
X015750Y026459D01*
X015874Y026397D02*
X015750Y026274D01*
X015750Y026874D02*
X015750Y027244D01*
X015567Y027121D02*
X015629Y027059D01*
X015629Y026935D01*
X015567Y026874D01*
X015444Y026874D01*
X015382Y026935D01*
X015382Y027059D01*
X015444Y027121D01*
X015567Y027121D01*
X015260Y027121D02*
X015137Y026874D01*
X015013Y027121D01*
X014524Y027182D02*
X014462Y027244D01*
X014339Y027244D01*
X014277Y027182D01*
X014277Y027121D01*
X014524Y026874D01*
X014277Y026874D01*
X014155Y026935D02*
X013909Y027182D01*
X013909Y026935D01*
X013970Y026874D01*
X014094Y026874D01*
X014155Y026935D01*
X014155Y027182D01*
X014094Y027244D01*
X013970Y027244D01*
X013909Y027182D01*
X013787Y027121D02*
X013664Y027244D01*
X013664Y026874D01*
X013787Y026874D02*
X013540Y026874D01*
X013419Y027059D02*
X013172Y027059D01*
X013234Y027244D02*
X013419Y027059D01*
X013234Y026874D02*
X013234Y027244D01*
X013295Y027659D02*
X013542Y027659D01*
X013663Y027659D02*
X013910Y027659D01*
X014031Y027659D02*
X014278Y027659D01*
X014400Y027659D02*
X014647Y027659D01*
X014768Y027659D02*
X015015Y027659D01*
X015136Y027659D02*
X015383Y027659D01*
X015505Y027659D02*
X015751Y027659D01*
X015873Y027659D02*
X016120Y027659D01*
X016241Y027659D02*
X016488Y027659D01*
X016610Y027659D02*
X016856Y027659D01*
X016978Y027659D02*
X017225Y027659D01*
X017346Y027659D02*
X017593Y027659D01*
X017714Y027659D02*
X017961Y027659D01*
X018083Y027659D02*
X018330Y027659D01*
X018451Y027659D02*
X018698Y027659D01*
X018819Y027659D02*
X019066Y027659D01*
X019188Y027659D02*
X019435Y027659D01*
X019556Y027659D02*
X019803Y027659D01*
X019924Y027659D02*
X020171Y027659D01*
X020293Y027659D02*
X020540Y027659D01*
X020661Y027659D02*
X020908Y027659D01*
X020908Y028074D02*
X020723Y028074D01*
X020661Y028135D01*
X020661Y028382D01*
X020723Y028444D01*
X020908Y028444D01*
X020908Y028074D01*
X020540Y028135D02*
X020540Y028259D01*
X020478Y028321D01*
X020354Y028321D01*
X020293Y028259D01*
X020293Y028197D01*
X020540Y028197D01*
X020540Y028135D02*
X020478Y028074D01*
X020354Y028074D01*
X020171Y028074D02*
X019986Y028074D01*
X019924Y028135D01*
X019986Y028197D01*
X020109Y028197D01*
X020171Y028259D01*
X020109Y028321D01*
X019924Y028321D01*
X019803Y028321D02*
X019741Y028321D01*
X019741Y028074D01*
X019803Y028074D02*
X019679Y028074D01*
X019557Y028135D02*
X019496Y028074D01*
X019310Y028074D01*
X019310Y028012D02*
X019310Y028321D01*
X019496Y028321D01*
X019557Y028259D01*
X019557Y028135D01*
X019434Y027950D02*
X019372Y027950D01*
X019310Y028012D01*
X019189Y028074D02*
X019189Y028321D01*
X019004Y028321D01*
X018942Y028259D01*
X018942Y028074D01*
X018821Y028135D02*
X018821Y028259D01*
X018759Y028321D01*
X018636Y028321D01*
X018574Y028259D01*
X018574Y028197D01*
X018821Y028197D01*
X018821Y028135D02*
X018759Y028074D01*
X018636Y028074D01*
X018452Y028135D02*
X018452Y028259D01*
X018391Y028321D01*
X018206Y028321D01*
X018206Y028444D02*
X018206Y028074D01*
X018391Y028074D01*
X018452Y028135D01*
X018451Y028674D02*
X018698Y028674D01*
X018698Y029044D01*
X018451Y029044D01*
X018330Y029044D02*
X018268Y029044D01*
X018268Y028674D01*
X018330Y028674D02*
X018206Y028674D01*
X018084Y028735D02*
X018084Y028859D01*
X018022Y028921D01*
X017899Y028921D01*
X017837Y028859D01*
X017837Y028797D01*
X018084Y028797D01*
X018084Y028735D02*
X018022Y028674D01*
X017899Y028674D01*
X017716Y028735D02*
X017654Y028674D01*
X017469Y028674D01*
X017286Y028735D02*
X017224Y028674D01*
X017286Y028735D02*
X017286Y028982D01*
X017347Y028921D02*
X017224Y028921D01*
X017102Y028921D02*
X017102Y028674D01*
X017102Y028797D02*
X016978Y028921D01*
X016917Y028921D01*
X016795Y028859D02*
X016795Y028735D01*
X016733Y028674D01*
X016610Y028674D01*
X016548Y028735D01*
X016548Y028859D01*
X016610Y028921D01*
X016733Y028921D01*
X016795Y028859D01*
X016427Y028921D02*
X016242Y028921D01*
X016180Y028859D01*
X016180Y028674D01*
X016058Y028674D02*
X015935Y028674D01*
X015997Y028674D02*
X015997Y028921D01*
X016058Y028921D01*
X015997Y029044D02*
X015997Y029106D01*
X015751Y028921D02*
X015813Y028859D01*
X015813Y028735D01*
X015751Y028674D01*
X015566Y028674D01*
X015445Y028674D02*
X015259Y028674D01*
X015198Y028735D01*
X015259Y028797D01*
X015383Y028797D01*
X015445Y028859D01*
X015383Y028921D01*
X015198Y028921D01*
X015566Y028921D02*
X015751Y028921D01*
X015812Y028321D02*
X015874Y028321D01*
X015997Y028197D01*
X016118Y028197D02*
X016304Y028197D01*
X016365Y028135D01*
X016304Y028074D01*
X016118Y028074D01*
X016118Y028259D01*
X016180Y028321D01*
X016304Y028321D01*
X016487Y028321D02*
X016548Y028259D01*
X016734Y028259D01*
X016734Y028444D02*
X016548Y028444D01*
X016487Y028382D01*
X016487Y028321D01*
X016548Y028259D02*
X016487Y028197D01*
X016487Y028135D01*
X016548Y028074D01*
X016734Y028074D01*
X016734Y028444D01*
X016427Y028674D02*
X016427Y028921D01*
X015997Y028321D02*
X015997Y028074D01*
X015690Y028135D02*
X015628Y028074D01*
X015443Y028074D01*
X015322Y028135D02*
X015322Y028259D01*
X015260Y028321D01*
X015137Y028321D01*
X015075Y028259D01*
X015075Y028197D01*
X015322Y028197D01*
X015322Y028135D02*
X015260Y028074D01*
X015137Y028074D01*
X014953Y028074D02*
X014830Y028074D01*
X014892Y028074D02*
X014892Y028444D01*
X014953Y028444D01*
X014708Y028259D02*
X014708Y028135D01*
X014646Y028074D01*
X014523Y028074D01*
X014461Y028135D01*
X014461Y028259D01*
X014523Y028321D01*
X014646Y028321D01*
X014708Y028259D01*
X014340Y028321D02*
X014154Y028321D01*
X014093Y028259D01*
X014093Y028074D01*
X013971Y028135D02*
X013910Y028197D01*
X013724Y028197D01*
X013724Y028259D02*
X013724Y028074D01*
X013910Y028074D01*
X013971Y028135D01*
X013910Y028321D02*
X013786Y028321D01*
X013724Y028259D01*
X014340Y028321D02*
X014340Y028074D01*
X015443Y028321D02*
X015628Y028321D01*
X015690Y028259D01*
X015690Y028135D01*
X015997Y027244D02*
X015750Y026874D01*
X015997Y026874D02*
X015997Y027244D01*
X016487Y027059D02*
X016734Y027059D01*
X017223Y027121D02*
X017409Y027121D01*
X017470Y027059D01*
X017470Y026935D01*
X017409Y026874D01*
X017223Y026874D01*
X017223Y027244D01*
X017592Y027121D02*
X017654Y027121D01*
X017777Y026997D01*
X017899Y026997D02*
X018084Y026997D01*
X018145Y026935D01*
X018084Y026874D01*
X017899Y026874D01*
X017899Y027059D01*
X017960Y027121D01*
X018084Y027121D01*
X018267Y027059D02*
X018329Y027121D01*
X018452Y027121D01*
X018514Y027059D01*
X018514Y026935D01*
X018452Y026874D01*
X018329Y026874D01*
X018267Y026935D01*
X018267Y027059D01*
X018635Y027121D02*
X018697Y027059D01*
X018882Y027059D01*
X019004Y027121D02*
X019066Y027121D01*
X019189Y026997D01*
X019310Y026997D02*
X019557Y026997D01*
X019557Y026935D02*
X019557Y027059D01*
X019496Y027121D01*
X019372Y027121D01*
X019310Y027059D01*
X019310Y026997D01*
X019372Y026874D02*
X019496Y026874D01*
X019557Y026935D01*
X019679Y026874D02*
X019679Y027059D01*
X019741Y027121D01*
X019864Y027121D01*
X019926Y027059D01*
X020048Y027121D02*
X020171Y027121D01*
X020109Y027182D02*
X020109Y026935D01*
X020048Y026874D01*
X019926Y026874D02*
X019926Y027244D01*
X020293Y027059D02*
X020354Y027121D01*
X020478Y027121D01*
X020540Y027059D01*
X020540Y026935D01*
X020478Y026874D01*
X020354Y026874D01*
X020293Y026935D01*
X020293Y027059D01*
X020661Y027244D02*
X020661Y026874D01*
X020661Y026644D02*
X020661Y026274D01*
X020540Y026335D02*
X020478Y026397D01*
X020293Y026397D01*
X020293Y026459D02*
X020293Y026274D01*
X020478Y026274D01*
X020540Y026335D01*
X020478Y026521D02*
X020354Y026521D01*
X020293Y026459D01*
X020171Y026521D02*
X020171Y026274D01*
X020171Y026397D02*
X020048Y026521D01*
X019986Y026521D01*
X019864Y026459D02*
X019864Y026335D01*
X019803Y026274D01*
X019617Y026274D01*
X019617Y026521D02*
X019803Y026521D01*
X019864Y026459D01*
X019128Y026582D02*
X019128Y026335D01*
X019066Y026274D01*
X018943Y026274D01*
X018881Y026335D01*
X018759Y026335D02*
X018698Y026274D01*
X018574Y026274D01*
X018512Y026335D01*
X018512Y026459D01*
X018574Y026521D01*
X018698Y026521D01*
X018759Y026459D01*
X018759Y026335D01*
X018881Y026582D02*
X018943Y026644D01*
X019066Y026644D01*
X019128Y026582D01*
X019189Y026874D02*
X019189Y027121D01*
X018882Y027244D02*
X018697Y027244D01*
X018635Y027182D01*
X018635Y027121D01*
X018697Y027059D02*
X018635Y026997D01*
X018635Y026935D01*
X018697Y026874D01*
X018882Y026874D01*
X018882Y027244D01*
X018391Y026644D02*
X018391Y026274D01*
X018206Y026274D01*
X018144Y026335D01*
X018144Y026459D01*
X018206Y026521D01*
X018391Y026521D01*
X018023Y026644D02*
X017961Y026644D01*
X017961Y026274D01*
X018023Y026274D02*
X017899Y026274D01*
X017777Y026335D02*
X017777Y026459D01*
X017715Y026521D01*
X017592Y026521D01*
X017530Y026459D01*
X017530Y026397D01*
X017777Y026397D01*
X017777Y026335D02*
X017715Y026274D01*
X017592Y026274D01*
X017409Y026274D02*
X017409Y026521D01*
X017285Y026521D02*
X017224Y026521D01*
X017285Y026521D02*
X017409Y026397D01*
X017777Y026874D02*
X017777Y027121D01*
X017716Y028074D02*
X017592Y028074D01*
X017654Y028074D02*
X017654Y028321D01*
X017716Y028321D01*
X017654Y028444D02*
X017654Y028506D01*
X017716Y028735D02*
X017716Y028859D01*
X017654Y028921D01*
X017469Y028921D01*
X017470Y028321D02*
X017285Y028321D01*
X017223Y028259D01*
X017223Y028074D01*
X017470Y028074D02*
X017470Y028321D01*
X018575Y028859D02*
X018698Y028859D01*
X019188Y028982D02*
X019249Y029044D01*
X019435Y029044D01*
X019435Y028674D01*
X019249Y028674D01*
X019188Y028735D01*
X019188Y028982D01*
X019556Y028982D02*
X019556Y028921D01*
X019618Y028859D01*
X019556Y028797D01*
X019556Y028735D01*
X019618Y028674D01*
X019741Y028674D01*
X019803Y028735D01*
X019924Y028674D02*
X019924Y029044D01*
X019803Y028982D02*
X019741Y029044D01*
X019618Y029044D01*
X019556Y028982D01*
X019618Y028859D02*
X019679Y028859D01*
X019924Y028674D02*
X020171Y029044D01*
X020171Y028674D01*
X020293Y028735D02*
X020354Y028674D01*
X020478Y028674D01*
X020540Y028735D01*
X020540Y028982D01*
X020478Y029044D01*
X020354Y029044D01*
X020293Y028982D01*
X020661Y028982D02*
X020661Y028921D01*
X020723Y028859D01*
X020908Y028859D01*
X020908Y029044D02*
X020723Y029044D01*
X020661Y028982D01*
X020723Y028859D02*
X020661Y028797D01*
X020661Y028735D01*
X020723Y028674D01*
X020908Y028674D01*
X020908Y029044D01*
X019741Y028506D02*
X019741Y028444D01*
X020661Y027244D02*
X020784Y027121D01*
X020908Y027244D01*
X020908Y026874D01*
X020908Y026644D02*
X020784Y026521D01*
X020661Y026644D01*
X020908Y026644D02*
X020908Y026274D01*
X016734Y026459D02*
X016487Y026459D01*
X014524Y026459D02*
X014277Y026459D01*
X013173Y027659D02*
X012926Y027659D01*
X012805Y027659D02*
X012558Y027659D01*
X012437Y027659D02*
X012190Y027659D01*
X012068Y027659D02*
X011821Y027659D01*
X011700Y027659D02*
X011453Y027659D01*
X011332Y027659D02*
X011085Y027659D01*
X010963Y027659D02*
X010716Y027659D01*
X010595Y027659D02*
X010348Y027659D01*
X010227Y027659D02*
X009980Y027659D01*
X009858Y027659D02*
X009612Y027659D01*
X009490Y027659D02*
X009243Y027659D01*
X009122Y027659D02*
X008875Y027659D01*
X008753Y027659D02*
X008507Y027659D01*
D12*
X025836Y015439D02*
X026263Y015439D01*
X026049Y015652D02*
X026049Y015225D01*
X030396Y015439D02*
X030823Y015439D01*
X030609Y015652D02*
X030609Y015225D01*
D13*
X012745Y016640D02*
X012747Y016666D01*
X012753Y016692D01*
X012763Y016717D01*
X012776Y016740D01*
X012792Y016760D01*
X012812Y016778D01*
X012834Y016793D01*
X012857Y016805D01*
X012883Y016813D01*
X012909Y016817D01*
X012935Y016817D01*
X012961Y016813D01*
X012987Y016805D01*
X013011Y016793D01*
X013032Y016778D01*
X013052Y016760D01*
X013068Y016740D01*
X013081Y016717D01*
X013091Y016692D01*
X013097Y016666D01*
X013099Y016640D01*
X013097Y016614D01*
X013091Y016588D01*
X013081Y016563D01*
X013068Y016540D01*
X013052Y016520D01*
X013032Y016502D01*
X013010Y016487D01*
X012987Y016475D01*
X012961Y016467D01*
X012935Y016463D01*
X012909Y016463D01*
X012883Y016467D01*
X012857Y016475D01*
X012833Y016487D01*
X012812Y016502D01*
X012792Y016520D01*
X012776Y016540D01*
X012763Y016563D01*
X012753Y016588D01*
X012747Y016614D01*
X012745Y016640D01*
X011013Y016640D02*
X011015Y016666D01*
X011021Y016692D01*
X011031Y016717D01*
X011044Y016740D01*
X011060Y016760D01*
X011080Y016778D01*
X011102Y016793D01*
X011125Y016805D01*
X011151Y016813D01*
X011177Y016817D01*
X011203Y016817D01*
X011229Y016813D01*
X011255Y016805D01*
X011279Y016793D01*
X011300Y016778D01*
X011320Y016760D01*
X011336Y016740D01*
X011349Y016717D01*
X011359Y016692D01*
X011365Y016666D01*
X011367Y016640D01*
X011365Y016614D01*
X011359Y016588D01*
X011349Y016563D01*
X011336Y016540D01*
X011320Y016520D01*
X011300Y016502D01*
X011278Y016487D01*
X011255Y016475D01*
X011229Y016467D01*
X011203Y016463D01*
X011177Y016463D01*
X011151Y016467D01*
X011125Y016475D01*
X011101Y016487D01*
X011080Y016502D01*
X011060Y016520D01*
X011044Y016540D01*
X011031Y016563D01*
X011021Y016588D01*
X011015Y016614D01*
X011013Y016640D01*
D14*
X012747Y026853D02*
X012577Y027023D01*
X012779Y027270D01*
X012728Y027370D01*
X012694Y027476D01*
X012376Y027509D01*
X012376Y027749D01*
X012694Y027781D01*
X012728Y027888D01*
X012779Y027987D01*
X012577Y028235D01*
X012747Y028404D01*
X012994Y028203D01*
X013094Y028254D01*
X013201Y028288D01*
X013233Y028606D01*
X013473Y028606D01*
X013505Y028288D01*
X013612Y028254D01*
X013711Y028203D01*
X013959Y028404D01*
X014128Y028235D01*
X013927Y027987D01*
X013978Y027888D01*
X014012Y027781D01*
X014330Y027749D01*
X014330Y027509D01*
X014012Y027476D01*
X013978Y027370D01*
X013927Y027270D01*
X014128Y027023D01*
X013959Y026853D01*
X013711Y027055D01*
X013612Y027003D01*
X013471Y027344D01*
X013524Y027373D01*
X013570Y027411D01*
X013609Y027458D01*
X013637Y027511D01*
X013655Y027569D01*
X013660Y027629D01*
X013654Y027691D01*
X013635Y027752D01*
X013604Y027807D01*
X013562Y027854D01*
X013512Y027892D01*
X013454Y027919D01*
X013393Y027934D01*
X013330Y027935D01*
X013268Y027924D01*
X013209Y027901D01*
X013157Y027866D01*
X013112Y027820D01*
X013078Y027767D01*
X013056Y027708D01*
X013046Y027646D01*
X013049Y027583D01*
X013064Y027522D01*
X013092Y027465D01*
X013131Y027415D01*
X013180Y027375D01*
X013235Y027344D01*
X013094Y027003D01*
X012994Y027055D01*
X012747Y026853D01*
X012734Y026866D02*
X012762Y026866D01*
X012833Y026923D02*
X012677Y026923D01*
X012619Y026981D02*
X012903Y026981D01*
X012974Y027038D02*
X012590Y027038D01*
X012637Y027096D02*
X013132Y027096D01*
X013156Y027153D02*
X012684Y027153D01*
X012731Y027211D02*
X013180Y027211D01*
X013204Y027268D02*
X012778Y027268D01*
X012750Y027326D02*
X013227Y027326D01*
X013169Y027384D02*
X012723Y027384D01*
X012705Y027441D02*
X013111Y027441D01*
X013076Y027499D02*
X012475Y027499D01*
X012376Y027556D02*
X013056Y027556D01*
X013047Y027614D02*
X012376Y027614D01*
X012376Y027671D02*
X013050Y027671D01*
X013064Y027729D02*
X012376Y027729D01*
X012695Y027786D02*
X013091Y027786D01*
X013135Y027844D02*
X012714Y027844D01*
X012735Y027902D02*
X013211Y027902D01*
X013492Y027902D02*
X013971Y027902D01*
X013992Y027844D02*
X013571Y027844D01*
X013615Y027786D02*
X014010Y027786D01*
X013941Y027959D02*
X012764Y027959D01*
X012755Y028017D02*
X013951Y028017D01*
X013998Y028074D02*
X012708Y028074D01*
X012661Y028132D02*
X014045Y028132D01*
X014091Y028189D02*
X012614Y028189D01*
X012589Y028247D02*
X012940Y028247D01*
X012869Y028304D02*
X012647Y028304D01*
X012705Y028362D02*
X012799Y028362D01*
X013080Y028247D02*
X013625Y028247D01*
X013503Y028304D02*
X013202Y028304D01*
X013208Y028362D02*
X013498Y028362D01*
X013492Y028420D02*
X013214Y028420D01*
X013220Y028477D02*
X013486Y028477D01*
X013480Y028535D02*
X013226Y028535D01*
X013232Y028592D02*
X013474Y028592D01*
X013766Y028247D02*
X014116Y028247D01*
X014059Y028304D02*
X013836Y028304D01*
X013907Y028362D02*
X014001Y028362D01*
X014330Y027729D02*
X013642Y027729D01*
X013656Y027671D02*
X014330Y027671D01*
X014330Y027614D02*
X013659Y027614D01*
X013651Y027556D02*
X014330Y027556D01*
X014230Y027499D02*
X013630Y027499D01*
X013595Y027441D02*
X014001Y027441D01*
X013982Y027384D02*
X013537Y027384D01*
X013478Y027326D02*
X013955Y027326D01*
X013928Y027268D02*
X013502Y027268D01*
X013526Y027211D02*
X013975Y027211D01*
X014022Y027153D02*
X013550Y027153D01*
X013574Y027096D02*
X014069Y027096D01*
X014116Y027038D02*
X013732Y027038D01*
X013679Y027038D02*
X013597Y027038D01*
X013802Y026981D02*
X014086Y026981D01*
X014029Y026923D02*
X013873Y026923D01*
X013944Y026866D02*
X013971Y026866D01*
X013108Y027038D02*
X013027Y027038D01*
M02*
