G75*
%MOIN*%
%OFA0B0*%
%FSLAX24Y24*%
%IPPOS*%
%LPD*%
%AMOC8*
5,1,8,0,0,1.08239X$1,22.5*
%
%ADD10C,0.0000*%
%ADD11R,0.0580X0.0110*%
%ADD12R,0.0110X0.0580*%
%ADD13R,0.0512X0.0591*%
%ADD14R,0.0591X0.0512*%
%ADD15R,0.4098X0.4252*%
%ADD16R,0.0850X0.0420*%
%ADD17R,0.1299X0.0512*%
%ADD18R,0.0630X0.0512*%
%ADD19R,0.0591X0.0157*%
%ADD20R,0.0472X0.0472*%
%ADD21R,0.0551X0.0551*%
%ADD22R,0.0512X0.0630*%
%ADD23R,0.0394X0.0709*%
%ADD24R,0.0394X0.0551*%
%ADD25R,0.0709X0.0630*%
%ADD26R,0.2126X0.1142*%
%ADD27R,0.0300X0.1280*%
%ADD28R,0.1496X0.1102*%
%ADD29R,0.0787X0.0236*%
%ADD30R,0.1654X0.0276*%
%ADD31R,0.0787X0.0240*%
%ADD32R,0.1417X0.1055*%
%ADD33R,0.0236X0.0866*%
%ADD34R,0.0500X0.0579*%
%ADD35R,0.0866X0.0236*%
%ADD36R,0.0579X0.0500*%
%ADD37R,0.0354X0.0315*%
%ADD38R,0.0591X0.1142*%
%ADD39R,0.0551X0.0472*%
%ADD40R,0.1260X0.0472*%
%ADD41R,0.0472X0.0394*%
%ADD42R,0.0394X0.0472*%
%ADD43R,0.0472X0.0217*%
%ADD44R,0.0709X0.1260*%
D10*
X004083Y005162D02*
X004083Y058280D01*
X004085Y058340D01*
X004090Y058401D01*
X004099Y058460D01*
X004112Y058519D01*
X004128Y058578D01*
X004148Y058635D01*
X004171Y058690D01*
X004198Y058745D01*
X004227Y058797D01*
X004260Y058848D01*
X004296Y058897D01*
X004334Y058943D01*
X004376Y058987D01*
X004420Y059029D01*
X004466Y059067D01*
X004515Y059103D01*
X004566Y059136D01*
X004618Y059165D01*
X004673Y059192D01*
X004728Y059215D01*
X004785Y059235D01*
X004844Y059251D01*
X004903Y059264D01*
X004962Y059273D01*
X005023Y059278D01*
X005083Y059280D01*
X034579Y059280D01*
X034639Y059278D01*
X034700Y059273D01*
X034759Y059264D01*
X034818Y059251D01*
X034877Y059235D01*
X034934Y059215D01*
X034989Y059192D01*
X035044Y059165D01*
X035096Y059136D01*
X035147Y059103D01*
X035196Y059067D01*
X035242Y059029D01*
X035286Y058987D01*
X035328Y058943D01*
X035366Y058897D01*
X035402Y058848D01*
X035435Y058797D01*
X035464Y058745D01*
X035491Y058690D01*
X035514Y058635D01*
X035534Y058578D01*
X035550Y058519D01*
X035563Y058460D01*
X035572Y058401D01*
X035577Y058340D01*
X035579Y058280D01*
X035579Y005162D01*
X035577Y005102D01*
X035572Y005041D01*
X035563Y004982D01*
X035550Y004923D01*
X035534Y004864D01*
X035514Y004807D01*
X035491Y004752D01*
X035464Y004697D01*
X035435Y004645D01*
X035402Y004594D01*
X035366Y004545D01*
X035328Y004499D01*
X035286Y004455D01*
X035242Y004413D01*
X035196Y004375D01*
X035147Y004339D01*
X035096Y004306D01*
X035044Y004277D01*
X034989Y004250D01*
X034934Y004227D01*
X034877Y004207D01*
X034818Y004191D01*
X034759Y004178D01*
X034700Y004169D01*
X034639Y004164D01*
X034579Y004162D01*
X005083Y004162D01*
X005023Y004164D01*
X004962Y004169D01*
X004903Y004178D01*
X004844Y004191D01*
X004785Y004207D01*
X004728Y004227D01*
X004673Y004250D01*
X004618Y004277D01*
X004566Y004306D01*
X004515Y004339D01*
X004466Y004375D01*
X004420Y004413D01*
X004376Y004455D01*
X004334Y004499D01*
X004296Y004545D01*
X004260Y004594D01*
X004227Y004645D01*
X004198Y004697D01*
X004171Y004752D01*
X004148Y004807D01*
X004128Y004864D01*
X004112Y004923D01*
X004099Y004982D01*
X004090Y005041D01*
X004085Y005102D01*
X004083Y005162D01*
X004772Y005540D02*
X004774Y005592D01*
X004780Y005644D01*
X004790Y005695D01*
X004803Y005745D01*
X004821Y005795D01*
X004842Y005842D01*
X004866Y005888D01*
X004895Y005932D01*
X004926Y005974D01*
X004960Y006013D01*
X004997Y006050D01*
X005037Y006083D01*
X005080Y006114D01*
X005124Y006141D01*
X005170Y006165D01*
X005219Y006185D01*
X005268Y006201D01*
X005319Y006214D01*
X005370Y006223D01*
X005422Y006228D01*
X005474Y006229D01*
X005526Y006226D01*
X005578Y006219D01*
X005629Y006208D01*
X005679Y006194D01*
X005728Y006175D01*
X005775Y006153D01*
X005820Y006128D01*
X005864Y006099D01*
X005905Y006067D01*
X005944Y006032D01*
X005979Y005994D01*
X006012Y005953D01*
X006042Y005911D01*
X006068Y005866D01*
X006091Y005819D01*
X006110Y005770D01*
X006126Y005720D01*
X006138Y005670D01*
X006146Y005618D01*
X006150Y005566D01*
X006150Y005514D01*
X006146Y005462D01*
X006138Y005410D01*
X006126Y005360D01*
X006110Y005310D01*
X006091Y005261D01*
X006068Y005214D01*
X006042Y005169D01*
X006012Y005127D01*
X005979Y005086D01*
X005944Y005048D01*
X005905Y005013D01*
X005864Y004981D01*
X005820Y004952D01*
X005775Y004927D01*
X005728Y004905D01*
X005679Y004886D01*
X005629Y004872D01*
X005578Y004861D01*
X005526Y004854D01*
X005474Y004851D01*
X005422Y004852D01*
X005370Y004857D01*
X005319Y004866D01*
X005268Y004879D01*
X005219Y004895D01*
X005170Y004915D01*
X005124Y004939D01*
X005080Y004966D01*
X005037Y004997D01*
X004997Y005030D01*
X004960Y005067D01*
X004926Y005106D01*
X004895Y005148D01*
X004866Y005192D01*
X004842Y005238D01*
X004821Y005285D01*
X004803Y005335D01*
X004790Y005385D01*
X004780Y005436D01*
X004774Y005488D01*
X004772Y005540D01*
X004772Y057902D02*
X004774Y057954D01*
X004780Y058006D01*
X004790Y058057D01*
X004803Y058107D01*
X004821Y058157D01*
X004842Y058204D01*
X004866Y058250D01*
X004895Y058294D01*
X004926Y058336D01*
X004960Y058375D01*
X004997Y058412D01*
X005037Y058445D01*
X005080Y058476D01*
X005124Y058503D01*
X005170Y058527D01*
X005219Y058547D01*
X005268Y058563D01*
X005319Y058576D01*
X005370Y058585D01*
X005422Y058590D01*
X005474Y058591D01*
X005526Y058588D01*
X005578Y058581D01*
X005629Y058570D01*
X005679Y058556D01*
X005728Y058537D01*
X005775Y058515D01*
X005820Y058490D01*
X005864Y058461D01*
X005905Y058429D01*
X005944Y058394D01*
X005979Y058356D01*
X006012Y058315D01*
X006042Y058273D01*
X006068Y058228D01*
X006091Y058181D01*
X006110Y058132D01*
X006126Y058082D01*
X006138Y058032D01*
X006146Y057980D01*
X006150Y057928D01*
X006150Y057876D01*
X006146Y057824D01*
X006138Y057772D01*
X006126Y057722D01*
X006110Y057672D01*
X006091Y057623D01*
X006068Y057576D01*
X006042Y057531D01*
X006012Y057489D01*
X005979Y057448D01*
X005944Y057410D01*
X005905Y057375D01*
X005864Y057343D01*
X005820Y057314D01*
X005775Y057289D01*
X005728Y057267D01*
X005679Y057248D01*
X005629Y057234D01*
X005578Y057223D01*
X005526Y057216D01*
X005474Y057213D01*
X005422Y057214D01*
X005370Y057219D01*
X005319Y057228D01*
X005268Y057241D01*
X005219Y057257D01*
X005170Y057277D01*
X005124Y057301D01*
X005080Y057328D01*
X005037Y057359D01*
X004997Y057392D01*
X004960Y057429D01*
X004926Y057468D01*
X004895Y057510D01*
X004866Y057554D01*
X004842Y057600D01*
X004821Y057647D01*
X004803Y057697D01*
X004790Y057747D01*
X004780Y057798D01*
X004774Y057850D01*
X004772Y057902D01*
X009555Y057713D02*
X009557Y057761D01*
X009563Y057809D01*
X009573Y057856D01*
X009586Y057902D01*
X009604Y057947D01*
X009624Y057991D01*
X009649Y058033D01*
X009677Y058072D01*
X009707Y058109D01*
X009741Y058143D01*
X009778Y058175D01*
X009816Y058204D01*
X009857Y058229D01*
X009900Y058251D01*
X009945Y058269D01*
X009991Y058283D01*
X010038Y058294D01*
X010086Y058301D01*
X010134Y058304D01*
X010182Y058303D01*
X010230Y058298D01*
X010278Y058289D01*
X010324Y058277D01*
X010369Y058260D01*
X010413Y058240D01*
X010455Y058217D01*
X010495Y058190D01*
X010533Y058160D01*
X010568Y058127D01*
X010600Y058091D01*
X010630Y058053D01*
X010656Y058012D01*
X010678Y057969D01*
X010698Y057925D01*
X010713Y057880D01*
X010725Y057833D01*
X010733Y057785D01*
X010737Y057737D01*
X010737Y057689D01*
X010733Y057641D01*
X010725Y057593D01*
X010713Y057546D01*
X010698Y057501D01*
X010678Y057457D01*
X010656Y057414D01*
X010630Y057373D01*
X010600Y057335D01*
X010568Y057299D01*
X010533Y057266D01*
X010495Y057236D01*
X010455Y057209D01*
X010413Y057186D01*
X010369Y057166D01*
X010324Y057149D01*
X010278Y057137D01*
X010230Y057128D01*
X010182Y057123D01*
X010134Y057122D01*
X010086Y057125D01*
X010038Y057132D01*
X009991Y057143D01*
X009945Y057157D01*
X009900Y057175D01*
X009857Y057197D01*
X009816Y057222D01*
X009778Y057251D01*
X009741Y057283D01*
X009707Y057317D01*
X009677Y057354D01*
X009649Y057393D01*
X009624Y057435D01*
X009604Y057479D01*
X009586Y057524D01*
X009573Y057570D01*
X009563Y057617D01*
X009557Y057665D01*
X009555Y057713D01*
X014516Y057713D02*
X014518Y057761D01*
X014524Y057809D01*
X014534Y057856D01*
X014547Y057902D01*
X014565Y057947D01*
X014585Y057991D01*
X014610Y058033D01*
X014638Y058072D01*
X014668Y058109D01*
X014702Y058143D01*
X014739Y058175D01*
X014777Y058204D01*
X014818Y058229D01*
X014861Y058251D01*
X014906Y058269D01*
X014952Y058283D01*
X014999Y058294D01*
X015047Y058301D01*
X015095Y058304D01*
X015143Y058303D01*
X015191Y058298D01*
X015239Y058289D01*
X015285Y058277D01*
X015330Y058260D01*
X015374Y058240D01*
X015416Y058217D01*
X015456Y058190D01*
X015494Y058160D01*
X015529Y058127D01*
X015561Y058091D01*
X015591Y058053D01*
X015617Y058012D01*
X015639Y057969D01*
X015659Y057925D01*
X015674Y057880D01*
X015686Y057833D01*
X015694Y057785D01*
X015698Y057737D01*
X015698Y057689D01*
X015694Y057641D01*
X015686Y057593D01*
X015674Y057546D01*
X015659Y057501D01*
X015639Y057457D01*
X015617Y057414D01*
X015591Y057373D01*
X015561Y057335D01*
X015529Y057299D01*
X015494Y057266D01*
X015456Y057236D01*
X015416Y057209D01*
X015374Y057186D01*
X015330Y057166D01*
X015285Y057149D01*
X015239Y057137D01*
X015191Y057128D01*
X015143Y057123D01*
X015095Y057122D01*
X015047Y057125D01*
X014999Y057132D01*
X014952Y057143D01*
X014906Y057157D01*
X014861Y057175D01*
X014818Y057197D01*
X014777Y057222D01*
X014739Y057251D01*
X014702Y057283D01*
X014668Y057317D01*
X014638Y057354D01*
X014610Y057393D01*
X014585Y057435D01*
X014565Y057479D01*
X014547Y057524D01*
X014534Y057570D01*
X014524Y057617D01*
X014518Y057665D01*
X014516Y057713D01*
X017429Y057713D02*
X017431Y057761D01*
X017437Y057809D01*
X017447Y057856D01*
X017460Y057902D01*
X017478Y057947D01*
X017498Y057991D01*
X017523Y058033D01*
X017551Y058072D01*
X017581Y058109D01*
X017615Y058143D01*
X017652Y058175D01*
X017690Y058204D01*
X017731Y058229D01*
X017774Y058251D01*
X017819Y058269D01*
X017865Y058283D01*
X017912Y058294D01*
X017960Y058301D01*
X018008Y058304D01*
X018056Y058303D01*
X018104Y058298D01*
X018152Y058289D01*
X018198Y058277D01*
X018243Y058260D01*
X018287Y058240D01*
X018329Y058217D01*
X018369Y058190D01*
X018407Y058160D01*
X018442Y058127D01*
X018474Y058091D01*
X018504Y058053D01*
X018530Y058012D01*
X018552Y057969D01*
X018572Y057925D01*
X018587Y057880D01*
X018599Y057833D01*
X018607Y057785D01*
X018611Y057737D01*
X018611Y057689D01*
X018607Y057641D01*
X018599Y057593D01*
X018587Y057546D01*
X018572Y057501D01*
X018552Y057457D01*
X018530Y057414D01*
X018504Y057373D01*
X018474Y057335D01*
X018442Y057299D01*
X018407Y057266D01*
X018369Y057236D01*
X018329Y057209D01*
X018287Y057186D01*
X018243Y057166D01*
X018198Y057149D01*
X018152Y057137D01*
X018104Y057128D01*
X018056Y057123D01*
X018008Y057122D01*
X017960Y057125D01*
X017912Y057132D01*
X017865Y057143D01*
X017819Y057157D01*
X017774Y057175D01*
X017731Y057197D01*
X017690Y057222D01*
X017652Y057251D01*
X017615Y057283D01*
X017581Y057317D01*
X017551Y057354D01*
X017523Y057393D01*
X017498Y057435D01*
X017478Y057479D01*
X017460Y057524D01*
X017447Y057570D01*
X017437Y057617D01*
X017431Y057665D01*
X017429Y057713D01*
X022390Y057713D02*
X022392Y057761D01*
X022398Y057809D01*
X022408Y057856D01*
X022421Y057902D01*
X022439Y057947D01*
X022459Y057991D01*
X022484Y058033D01*
X022512Y058072D01*
X022542Y058109D01*
X022576Y058143D01*
X022613Y058175D01*
X022651Y058204D01*
X022692Y058229D01*
X022735Y058251D01*
X022780Y058269D01*
X022826Y058283D01*
X022873Y058294D01*
X022921Y058301D01*
X022969Y058304D01*
X023017Y058303D01*
X023065Y058298D01*
X023113Y058289D01*
X023159Y058277D01*
X023204Y058260D01*
X023248Y058240D01*
X023290Y058217D01*
X023330Y058190D01*
X023368Y058160D01*
X023403Y058127D01*
X023435Y058091D01*
X023465Y058053D01*
X023491Y058012D01*
X023513Y057969D01*
X023533Y057925D01*
X023548Y057880D01*
X023560Y057833D01*
X023568Y057785D01*
X023572Y057737D01*
X023572Y057689D01*
X023568Y057641D01*
X023560Y057593D01*
X023548Y057546D01*
X023533Y057501D01*
X023513Y057457D01*
X023491Y057414D01*
X023465Y057373D01*
X023435Y057335D01*
X023403Y057299D01*
X023368Y057266D01*
X023330Y057236D01*
X023290Y057209D01*
X023248Y057186D01*
X023204Y057166D01*
X023159Y057149D01*
X023113Y057137D01*
X023065Y057128D01*
X023017Y057123D01*
X022969Y057122D01*
X022921Y057125D01*
X022873Y057132D01*
X022826Y057143D01*
X022780Y057157D01*
X022735Y057175D01*
X022692Y057197D01*
X022651Y057222D01*
X022613Y057251D01*
X022576Y057283D01*
X022542Y057317D01*
X022512Y057354D01*
X022484Y057393D01*
X022459Y057435D01*
X022439Y057479D01*
X022421Y057524D01*
X022408Y057570D01*
X022398Y057617D01*
X022392Y057665D01*
X022390Y057713D01*
X033512Y057902D02*
X033514Y057954D01*
X033520Y058006D01*
X033530Y058057D01*
X033543Y058107D01*
X033561Y058157D01*
X033582Y058204D01*
X033606Y058250D01*
X033635Y058294D01*
X033666Y058336D01*
X033700Y058375D01*
X033737Y058412D01*
X033777Y058445D01*
X033820Y058476D01*
X033864Y058503D01*
X033910Y058527D01*
X033959Y058547D01*
X034008Y058563D01*
X034059Y058576D01*
X034110Y058585D01*
X034162Y058590D01*
X034214Y058591D01*
X034266Y058588D01*
X034318Y058581D01*
X034369Y058570D01*
X034419Y058556D01*
X034468Y058537D01*
X034515Y058515D01*
X034560Y058490D01*
X034604Y058461D01*
X034645Y058429D01*
X034684Y058394D01*
X034719Y058356D01*
X034752Y058315D01*
X034782Y058273D01*
X034808Y058228D01*
X034831Y058181D01*
X034850Y058132D01*
X034866Y058082D01*
X034878Y058032D01*
X034886Y057980D01*
X034890Y057928D01*
X034890Y057876D01*
X034886Y057824D01*
X034878Y057772D01*
X034866Y057722D01*
X034850Y057672D01*
X034831Y057623D01*
X034808Y057576D01*
X034782Y057531D01*
X034752Y057489D01*
X034719Y057448D01*
X034684Y057410D01*
X034645Y057375D01*
X034604Y057343D01*
X034560Y057314D01*
X034515Y057289D01*
X034468Y057267D01*
X034419Y057248D01*
X034369Y057234D01*
X034318Y057223D01*
X034266Y057216D01*
X034214Y057213D01*
X034162Y057214D01*
X034110Y057219D01*
X034059Y057228D01*
X034008Y057241D01*
X033959Y057257D01*
X033910Y057277D01*
X033864Y057301D01*
X033820Y057328D01*
X033777Y057359D01*
X033737Y057392D01*
X033700Y057429D01*
X033666Y057468D01*
X033635Y057510D01*
X033606Y057554D01*
X033582Y057600D01*
X033561Y057647D01*
X033543Y057697D01*
X033530Y057747D01*
X033520Y057798D01*
X033514Y057850D01*
X033512Y057902D01*
D11*
X023887Y022240D03*
X023887Y022050D03*
X023887Y021850D03*
X023887Y021650D03*
X023887Y021450D03*
X023887Y021260D03*
X023887Y021060D03*
X023887Y020860D03*
X023887Y020670D03*
X023887Y020470D03*
X023887Y020270D03*
X023887Y020080D03*
X023887Y019880D03*
X023887Y019680D03*
X023887Y019490D03*
X023887Y019290D03*
X023887Y019090D03*
X023887Y018900D03*
X023887Y018700D03*
X023887Y018500D03*
X023887Y018310D03*
X023887Y018110D03*
X023887Y017910D03*
X023887Y017710D03*
X023887Y017520D03*
X017887Y017520D03*
X017887Y017710D03*
X017887Y017910D03*
X017887Y018110D03*
X017887Y018310D03*
X017887Y018500D03*
X017887Y018700D03*
X017887Y018900D03*
X017887Y019090D03*
X017887Y019290D03*
X017887Y019490D03*
X017887Y019680D03*
X017887Y019880D03*
X017887Y020080D03*
X017887Y020270D03*
X017887Y020470D03*
X017887Y020670D03*
X017887Y020860D03*
X017887Y021060D03*
X017887Y021260D03*
X017887Y021450D03*
X017887Y021650D03*
X017887Y021850D03*
X017887Y022050D03*
X017887Y022240D03*
D12*
X018527Y022880D03*
X018717Y022880D03*
X018917Y022880D03*
X019117Y022880D03*
X019317Y022880D03*
X019507Y022880D03*
X019707Y022880D03*
X019907Y022880D03*
X020097Y022880D03*
X020297Y022880D03*
X020497Y022880D03*
X020687Y022880D03*
X020887Y022880D03*
X021087Y022880D03*
X021277Y022880D03*
X021477Y022880D03*
X021677Y022880D03*
X021867Y022880D03*
X022067Y022880D03*
X022267Y022880D03*
X022457Y022880D03*
X022657Y022880D03*
X022857Y022880D03*
X023057Y022880D03*
X023247Y022880D03*
X023247Y016880D03*
X023057Y016880D03*
X022857Y016880D03*
X022657Y016880D03*
X022457Y016880D03*
X022267Y016880D03*
X022067Y016880D03*
X021867Y016880D03*
X021677Y016880D03*
X021477Y016880D03*
X021277Y016880D03*
X021087Y016880D03*
X020887Y016880D03*
X020687Y016880D03*
X020497Y016880D03*
X020297Y016880D03*
X020097Y016880D03*
X019907Y016880D03*
X019707Y016880D03*
X019507Y016880D03*
X019317Y016880D03*
X019117Y016880D03*
X018917Y016880D03*
X018717Y016880D03*
X018527Y016880D03*
D13*
X021934Y015203D03*
X022682Y015203D03*
X022945Y012626D03*
X022197Y012626D03*
X019789Y011387D03*
X019041Y011387D03*
X023281Y024281D03*
X024029Y024281D03*
X023183Y027761D03*
X022514Y027761D03*
X021355Y027761D03*
X020686Y027761D03*
X017837Y026842D03*
X017089Y026842D03*
X028220Y008143D03*
X028968Y008143D03*
X025067Y050249D03*
X024319Y050249D03*
X024313Y051181D03*
X025061Y051181D03*
D14*
X016503Y045117D03*
X016503Y044447D03*
X014860Y044408D03*
X014860Y045156D03*
X009477Y035193D03*
X009477Y034445D03*
X009298Y027663D03*
X009298Y026915D03*
X016751Y020589D03*
X016751Y019841D03*
X025291Y019763D03*
X025291Y019015D03*
X026103Y014376D03*
X026103Y013628D03*
X026977Y013667D03*
X026977Y014337D03*
X027843Y014337D03*
X027843Y013667D03*
X028683Y013667D03*
X028683Y014337D03*
X029820Y026508D03*
X029820Y027256D03*
X030222Y034428D03*
X030222Y035176D03*
D15*
X019964Y039839D03*
D16*
X016684Y039839D03*
X016684Y040509D03*
X016684Y041179D03*
X016684Y039169D03*
X016684Y038499D03*
D17*
X018267Y043799D03*
X020728Y043799D03*
X011897Y044353D03*
X009437Y044353D03*
X009437Y040990D03*
X011897Y040990D03*
D18*
X014033Y044408D03*
X014033Y045156D03*
X015683Y045156D03*
X015683Y044408D03*
X017293Y049988D03*
X017293Y050736D03*
X018123Y050736D03*
X018123Y049988D03*
X018963Y049988D03*
X018963Y050736D03*
X022070Y048098D03*
X022070Y047350D03*
X022996Y047331D03*
X022996Y048079D03*
X022808Y050098D03*
X022808Y050846D03*
X031053Y035176D03*
X031053Y034428D03*
X031886Y034428D03*
X031886Y035176D03*
X031483Y027256D03*
X031483Y026508D03*
X030652Y026508D03*
X030652Y027256D03*
X028308Y027492D03*
X028308Y026744D03*
X027409Y026747D03*
X027409Y027495D03*
X025207Y014376D03*
X025207Y013628D03*
X024333Y013628D03*
X024333Y014376D03*
X028005Y006471D03*
X028005Y005723D03*
X029286Y005723D03*
X029286Y006471D03*
X015904Y030353D03*
X015904Y031101D03*
X014937Y031096D03*
X014937Y030348D03*
X011685Y028896D03*
X011685Y028148D03*
X010842Y028153D03*
X010842Y028901D03*
X008476Y027669D03*
X008476Y026921D03*
X007632Y026921D03*
X007632Y027669D03*
X007803Y034448D03*
X007803Y035196D03*
X008644Y035200D03*
X008644Y034452D03*
D19*
X026513Y012341D03*
X026513Y012085D03*
X026513Y011829D03*
X026513Y011574D03*
X026513Y011318D03*
X026513Y011062D03*
X026513Y010806D03*
X026513Y010550D03*
X026513Y010294D03*
X026513Y010038D03*
X026513Y009782D03*
X026513Y009526D03*
X026513Y009270D03*
X026513Y009015D03*
X029368Y009015D03*
X029368Y009270D03*
X029368Y009526D03*
X029368Y009782D03*
X029368Y010038D03*
X029368Y010294D03*
X029368Y010550D03*
X029368Y010806D03*
X029368Y011062D03*
X029368Y011318D03*
X029368Y011574D03*
X029368Y011829D03*
X029368Y012085D03*
X029368Y012341D03*
D20*
X030050Y006510D03*
X030050Y005683D03*
X027192Y005683D03*
X027192Y006510D03*
X022955Y011866D03*
X022128Y011866D03*
X029394Y029729D03*
X030221Y029729D03*
X026757Y050239D03*
X025931Y050239D03*
X025991Y051185D03*
X026817Y051185D03*
X022798Y051653D03*
X022798Y052480D03*
X009943Y032357D03*
X009116Y032357D03*
D21*
X017315Y025102D03*
X018811Y025102D03*
X029784Y014654D03*
X029784Y013158D03*
D22*
X028557Y028802D03*
X027809Y028802D03*
X027809Y029715D03*
X028557Y029715D03*
X018182Y025921D03*
X017434Y025921D03*
X016157Y026842D03*
X015409Y026842D03*
X011538Y032357D03*
X010790Y032357D03*
X010782Y033199D03*
X011530Y033199D03*
X018109Y045982D03*
X018857Y045982D03*
X019729Y045982D03*
X020477Y045982D03*
X021349Y045982D03*
X022097Y045982D03*
X012137Y010582D03*
X011389Y010582D03*
X011389Y009742D03*
X012137Y009742D03*
X010517Y009742D03*
X009769Y009742D03*
X009769Y010582D03*
X010517Y010582D03*
X008897Y010582D03*
X008149Y010582D03*
X008149Y009742D03*
X008897Y009742D03*
D23*
X007836Y054960D03*
X006734Y054960D03*
D24*
X008054Y008662D03*
X008802Y008662D03*
X009411Y008663D03*
X010159Y008663D03*
X010712Y008660D03*
X011460Y008660D03*
X011086Y007794D03*
X009785Y007797D03*
X008428Y007795D03*
D25*
X030800Y013238D03*
X030800Y014540D03*
D26*
X015954Y032900D03*
X015954Y036719D03*
D27*
X020721Y036485D03*
X020721Y034585D03*
D28*
X014377Y039034D03*
X014377Y041948D03*
D29*
X006491Y034891D03*
X006491Y034498D03*
X006491Y034104D03*
X006491Y033710D03*
X006491Y033316D03*
X006491Y032923D03*
X006491Y032529D03*
X006491Y032135D03*
X006491Y031742D03*
X006491Y031348D03*
X006491Y030954D03*
X006491Y030561D03*
X006491Y030167D03*
X006491Y029773D03*
X006491Y029379D03*
X006491Y028986D03*
X006491Y028592D03*
X006491Y028198D03*
X006491Y027805D03*
X006491Y027411D03*
X033166Y027415D03*
X033166Y027808D03*
X033166Y028202D03*
X033166Y028596D03*
X033166Y028990D03*
X033166Y029383D03*
X033166Y029777D03*
X033166Y030171D03*
X033166Y030564D03*
X033166Y030958D03*
X033166Y031352D03*
X033166Y031745D03*
X033166Y032139D03*
X033166Y032533D03*
X033166Y032927D03*
X033166Y033320D03*
X033166Y033714D03*
X033166Y034108D03*
X033166Y034501D03*
X033166Y034895D03*
D30*
X033993Y035289D03*
X033993Y027021D03*
X005665Y027017D03*
X005665Y035285D03*
D31*
X006760Y038812D03*
X006760Y039205D03*
X006760Y039599D03*
X006760Y039993D03*
X006760Y040386D03*
X006760Y040780D03*
X006760Y041174D03*
X006760Y041568D03*
X006760Y041961D03*
X006760Y042355D03*
X006760Y042749D03*
X006760Y043142D03*
X006760Y043536D03*
X006760Y043930D03*
X006760Y044323D03*
X006760Y023457D03*
X006760Y023064D03*
X006760Y022670D03*
X006760Y022276D03*
X006760Y021882D03*
X006760Y021489D03*
X006760Y021095D03*
X006760Y020701D03*
X006760Y020308D03*
X006760Y019914D03*
X006760Y019520D03*
X006760Y019127D03*
X006760Y018733D03*
X006760Y018339D03*
X006760Y017945D03*
X006760Y014126D03*
X006760Y013732D03*
X006760Y013339D03*
X006760Y012945D03*
X006760Y012551D03*
X006760Y012157D03*
X006760Y011764D03*
X006760Y011370D03*
X006760Y010976D03*
X006760Y010583D03*
X006760Y010189D03*
X006760Y009795D03*
X006760Y009402D03*
X006760Y009008D03*
X006760Y008614D03*
X032902Y017938D03*
X032902Y018331D03*
X032902Y018725D03*
X032902Y019119D03*
X032902Y019512D03*
X032902Y019906D03*
X032902Y020300D03*
X032902Y020693D03*
X032902Y021087D03*
X032902Y021481D03*
X032902Y021875D03*
X032902Y022268D03*
X032902Y022662D03*
X032902Y023056D03*
X032902Y023449D03*
X032902Y038804D03*
X032902Y039197D03*
X032902Y039591D03*
X032902Y039985D03*
X032902Y040379D03*
X032902Y040772D03*
X032902Y041166D03*
X032902Y041560D03*
X032902Y041953D03*
X032902Y042347D03*
X032902Y042741D03*
X032902Y043134D03*
X032902Y043528D03*
X032902Y043922D03*
X032902Y044316D03*
X032902Y048977D03*
X032902Y049371D03*
X032902Y049765D03*
X032902Y050159D03*
X032902Y050552D03*
X032902Y050946D03*
X032902Y051340D03*
X032902Y051733D03*
X032902Y052127D03*
X032902Y052521D03*
X032902Y052914D03*
X032902Y053308D03*
X032902Y053702D03*
X032902Y054096D03*
X032902Y054489D03*
D32*
X034005Y055674D03*
X034005Y047800D03*
X034005Y045501D03*
X034005Y037627D03*
X034005Y024634D03*
X034005Y016760D03*
X005658Y016760D03*
X005658Y015303D03*
X005658Y007429D03*
X005658Y024634D03*
X005658Y037627D03*
X005658Y045501D03*
D33*
X019936Y048508D03*
X020436Y048508D03*
X020936Y048508D03*
X021436Y048508D03*
X021436Y050555D03*
X020936Y050555D03*
X020436Y050555D03*
X019936Y050555D03*
D34*
X020114Y052070D03*
X021807Y052070D03*
X021906Y043816D03*
X023599Y043816D03*
D35*
X018367Y047512D03*
X018367Y048012D03*
X018367Y048512D03*
X018367Y049012D03*
X016320Y049012D03*
X016320Y048512D03*
X016320Y048012D03*
X016320Y047512D03*
X011586Y031266D03*
X011586Y030766D03*
X011586Y030266D03*
X011586Y029766D03*
X009539Y029766D03*
X009539Y030266D03*
X009539Y030766D03*
X009539Y031266D03*
X019045Y013692D03*
X019045Y013192D03*
X019045Y012692D03*
X019045Y012192D03*
X021092Y012192D03*
X021092Y012692D03*
X021092Y013192D03*
X021092Y013692D03*
X027837Y030983D03*
X027837Y031483D03*
X027837Y031983D03*
X027837Y032483D03*
X029884Y032483D03*
X029884Y031983D03*
X029884Y031483D03*
X029884Y030983D03*
D36*
X031364Y031312D03*
X031364Y030583D03*
X031364Y028890D03*
X031364Y033005D03*
X008059Y033283D03*
X008059Y031590D03*
X008059Y030861D03*
X008059Y029168D03*
X008041Y044234D03*
X008041Y045927D03*
D37*
X015565Y050434D03*
X016392Y050808D03*
X016392Y050060D03*
X009965Y033751D03*
X009965Y033003D03*
X009138Y033377D03*
X029475Y028895D03*
X029475Y028147D03*
X030302Y028521D03*
D38*
X026683Y052708D03*
X026681Y053968D03*
X025500Y053968D03*
X025502Y052708D03*
D39*
X030783Y011675D03*
X030783Y010809D03*
X030783Y010175D03*
X030783Y009309D03*
X030783Y008675D03*
X030783Y007809D03*
D40*
X018382Y027915D03*
X018382Y029489D03*
X015705Y029489D03*
X015705Y027915D03*
D41*
X010436Y021502D03*
X010436Y020782D03*
X010436Y020062D03*
X009491Y020062D03*
X009491Y020782D03*
X009491Y021502D03*
X013271Y013882D03*
X013271Y013102D03*
X013271Y012322D03*
X014216Y012322D03*
X014216Y013102D03*
X014216Y013882D03*
X029711Y016822D03*
X029711Y017542D03*
X029711Y018262D03*
X030656Y018262D03*
X030656Y017542D03*
X030656Y016822D03*
X030776Y015442D03*
X029831Y015442D03*
X032043Y007042D03*
X032988Y007042D03*
D42*
X030723Y037950D03*
X030003Y037950D03*
X029283Y037950D03*
X029283Y038894D03*
X030003Y038894D03*
X030723Y038894D03*
X030843Y045930D03*
X030123Y045930D03*
X030123Y046874D03*
X030843Y046874D03*
X031563Y046874D03*
X031563Y045930D03*
X011823Y038354D03*
X011103Y038354D03*
X010383Y038354D03*
X010383Y037410D03*
X011103Y037410D03*
X011823Y037410D03*
D43*
X016111Y045968D03*
X016111Y046716D03*
X017135Y046716D03*
X017135Y046342D03*
X017135Y045968D03*
D44*
X008426Y053662D03*
X006221Y053662D03*
M02*
