%
M48
M72
T01C0.0120
T02C0.0140
T03C0.0160
T04C0.0276
T05C0.0360
T06C0.0400
T07C0.0520
T08C0.0709
T09C0.0900
T10C0.1181
T11C0.1378
%
T01
X5763Y9442
X5763Y10102
X5763Y10762
X6663Y8122
X7023Y8122
X7383Y8122
X7563Y9382
X9423Y9142
X10983Y9142
X12963Y5002
X13743Y5002
X14523Y5002
X15303Y5002
X16083Y5002
X16863Y5002
X17643Y5002
X18423Y5002
X19203Y5002
X19983Y5002
X20763Y5002
X21543Y5002
X22323Y5002
X23103Y5002
X23883Y5002
X24663Y5002
X25443Y5002
X29883Y10162
X30783Y9742
X31383Y10582
X31323Y10942
X30123Y12682
X29823Y12682
X29523Y12682
X28623Y12322
X28143Y12322
X27663Y12322
X28443Y15622
X29223Y15622
X29703Y16102
X30183Y16822
X30183Y17542
X30183Y18262
X31323Y16582
X31323Y15982
X33243Y15562
X33243Y14782
X34023Y14782
X34023Y15562
X34803Y15562
X34803Y14782
X33723Y20902
X33723Y21502
X33723Y22102
X33723Y22822
X32883Y24322
X32883Y24922
X32883Y25522
X32883Y26062
X33543Y26062
X33543Y25522
X32163Y27382
X32463Y27682
X31923Y28282
X31623Y28042
X32223Y28522
X31083Y29422
X30723Y27862
X29283Y26542
X28503Y26062
X28203Y25762
X28503Y25582
X28203Y25402
X28503Y25102
X28803Y25342
X28803Y25762
X27543Y24022
X27123Y24382
X27183Y23482
X26223Y25282
X27409Y26157
X26223Y27202
X27783Y28062
X28143Y28162
X28623Y28162
X28983Y27862
X26583Y30982
X26583Y31522
X27063Y31462
X27063Y32002
X26643Y32122
X27063Y32542
X24423Y35242
X23283Y33802
X22203Y31162
X22923Y29782
X24003Y28642
X24582Y25732
X24582Y25312
X24582Y24892
X24162Y24892
X23943Y25462
X24603Y24142
X24183Y23602
X23583Y23182
X23793Y22912
X24063Y22642
X24483Y22402
X23173Y21722
X22803Y21442
X23103Y21142
X22743Y20782
X23103Y20422
X23163Y20002
X22863Y19702
X22936Y19192
X22542Y19192
X22148Y19192
X21903Y18802
X21903Y18382
X21903Y18022
X21903Y17602
X22623Y17482
X21903Y15802
X22203Y14302
X22203Y13522
X22983Y13522
X22983Y14302
X24873Y15802
X25353Y15802
X25006Y17764
X24543Y17782
X24556Y19792
X25876Y20392
X26943Y19162
X26883Y18802
X26763Y18502
X26403Y18202
X27543Y16702
X27843Y16942
X27903Y19222
X32043Y22282
X32043Y23002
X33963Y29722
X33963Y30562
X33963Y31342
X32223Y33802
X31683Y33802
X31203Y33802
X30723Y33802
X30483Y32902
X30603Y35962
X31443Y36862
X31563Y38062
X30603Y38422
X29883Y38422
X29163Y38422
X31863Y40102
X32163Y41542
X32163Y42322
X32223Y43522
X31983Y45382
X31143Y45382
X30363Y45382
X32823Y45562
X32823Y46102
X32823Y46642
X32823Y47182
X32823Y47722
X32163Y51742
X31743Y51742
X31743Y52522
X32103Y52522
X32043Y53722
X31863Y54442
X31623Y54742
X31203Y54742
X28443Y53902
X28143Y53722
X27843Y53902
X24363Y49162
X23943Y49342
X23943Y48862
X22083Y46822
X22143Y45442
X21123Y47062
X20763Y47062
X20403Y47062
X20043Y47062
X20043Y47482
X20043Y47842
X20403Y47842
X20403Y47482
X20763Y47482
X20763Y47842
X21123Y47482
X19863Y49402
X18063Y51382
X17463Y51382
X16623Y51262
X16263Y51262
X16443Y51622
X17343Y49462
X17583Y49162
X15663Y48982
X15663Y47482
X15423Y46762
X15363Y46402
X14943Y45742
X14103Y45742
X14463Y43822
X16383Y42202
X16743Y42022
X16743Y42442
X16803Y43822
X17103Y45142
X17583Y46342
X19443Y45262
X20643Y43222
X20643Y42802
X20643Y42382
X18303Y41722
X18303Y41302
X18303Y40882
X12123Y35542
X11163Y34522
X11163Y34102
X10803Y34282
X10023Y34822
X8823Y33862
X8343Y33862
X7863Y33862
X7143Y34522
X7803Y35782
X8644Y35781
X10083Y36922
X10803Y36382
X9903Y39682
X9903Y40042
X9903Y40402
X7923Y41542
X7503Y41542
X7503Y40762
X7503Y39562
X7623Y38662
X7623Y38242
X7263Y38422
X6543Y36742
X6543Y36322
X6183Y36502
X5703Y32662
X5583Y31702
X5703Y30922
X7923Y28402
X8523Y28402
X9123Y28402
X10263Y28582
X12283Y29695
X12283Y30055
X12283Y30415
X12283Y30775
X12703Y30415
X12703Y30055
X12703Y29695
X15222Y28732
X16062Y29032
X16062Y28432
X16563Y27442
X17043Y27442
X17523Y27442
X18042Y28432
X18042Y28972
X17142Y30292
X16662Y30292
X19443Y29062
X19743Y28642
X20823Y29722
X19803Y25462
X20163Y24022
X20703Y23482
X21123Y24502
X21123Y25162
X22443Y25162
X22443Y24502
X21183Y22342
X20823Y22042
X21243Y21742
X21243Y21382
X20943Y20962
X19203Y18982
X18783Y19642
X17343Y20602
X17228Y19972
X17228Y19672
X16203Y20902
X17163Y21682
X18423Y22342
X18483Y21982
X16383Y26242
X15903Y26242
X13083Y21382
X13563Y21082
X12303Y21682
X10923Y21142
X10443Y22042
X9483Y23542
X10023Y24082
X9483Y24622
X8943Y24082
X8403Y23542
X8943Y23002
X8163Y22762
X8283Y20722
X8163Y19942
X7623Y19942
X7743Y20722
X7563Y18742
X7983Y18742
X6903Y17242
X6903Y16702
X6903Y16102
X6903Y15502
X7983Y12862
X11163Y16462
X10863Y19702
X11403Y24982
X15243Y19702
X16983Y17362
X16983Y16942
X17823Y16822
X18063Y16522
X16983Y15562
X17043Y15202
X17343Y14662
X17643Y14302
X18003Y14002
X17797Y10642
X20283Y13222
X20283Y16162
X14703Y13462
X14703Y12802
X14223Y14362
X7143Y6622
X7143Y5362
X8523Y32902
X9123Y43762
X9603Y43762
X10083Y43762
X10503Y43762
X10503Y44302
X7623Y53602
X6903Y53602
X23823Y51922
X24303Y52402
X24303Y53002
X24303Y53602
X24303Y54202
X24303Y54802
X27783Y43582
X32823Y36322
X33243Y36202
X33183Y36682
X34203Y6442
X33483Y6082
X33243Y5542
X33543Y4822
X34203Y4642
X34803Y4882
X35103Y5542
X34923Y6082
T02
X28683Y6142
X18903Y25822
X8763Y18982
X8763Y18562
X8103Y29722
X26463Y54742
X26463Y55102
X26823Y55102
X26823Y54742
X27183Y54742
X27183Y55102
X26703Y49222
X31263Y53362
X31263Y54082
T03
X31083Y43882
X31083Y43222
X32283Y38362
X32583Y26902
X21303Y31582
X20883Y31582
X20463Y31582
X20043Y31582
X19623Y31582
X19623Y32002
X20043Y32002
X20463Y32002
X20463Y32422
X20883Y32422
X20883Y32842
X20883Y33262
X21303Y33262
X21303Y32842
X21303Y32422
X21303Y32002
X20883Y32002
X19203Y32002
X18783Y32002
X18783Y31582
X19203Y31582
X8403Y39082
X8403Y39622
X7203Y35722
X15123Y50422
T04
X20850Y26367
X22850Y26367
T05
X32203Y10788
X32983Y10788
X32983Y9804
X32203Y9804
X26087Y45453
X26087Y46453
X26087Y47476
X26087Y48476
X25087Y48476
X25087Y47476
X25087Y46453
X25087Y45453
X27963Y50102
X27963Y51102
T06
X19863Y32902
X16113Y25501
X16113Y24501
X16113Y23501
X16113Y22501
X14960Y22495
X14960Y23495
X14960Y24495
X14960Y25495
X14640Y9050
X15640Y9050
X16640Y9050
X17640Y9050
X18640Y9050
X20130Y9083
X21130Y9083
X22130Y9083
X23130Y9083
X24130Y9083
X25130Y9083
X26675Y20815
X26675Y21815
X26675Y22815
X27675Y22815
X27675Y21815
X27675Y20815
X30663Y21082
X30663Y22082
X30663Y23082
X30663Y24082
X13640Y9050
X11116Y6566
X11116Y5571
X10116Y5571
X10116Y6566
X9116Y6566
X9116Y5571
X8116Y5571
X8116Y6566
T07
X8085Y47208
X7285Y49558
X8085Y51908
X12885Y51908
X12885Y47208
T08
X13453Y54839
X11800Y54839
X10146Y54839
X15107Y54839
X18020Y54839
X19674Y54839
X21327Y54839
X22981Y54839
T09
X34053Y12666
X34053Y7926
T10
X22981Y57713
X18020Y57713
X15107Y57713
X10146Y57713
T11
X5461Y5540
X34201Y5540
X34201Y57902
X5461Y57902
M30
