G75*
%MOIN*%
%OFA0B0*%
%FSLAX24Y24*%
%IPPOS*%
%LPD*%
%AMOC8*
5,1,8,0,0,1.08239X$1,22.5*
%
%ADD10C,0.0160*%
%ADD11C,0.0690*%
%ADD12R,0.0840X0.0840*%
%ADD13C,0.0840*%
%ADD14C,0.0640*%
%ADD15C,0.0000*%
%ADD16C,0.0394*%
%ADD17R,0.0780X0.0780*%
%ADD18C,0.0156*%
%ADD19C,0.1857*%
%ADD20C,0.0780*%
%ADD21R,0.0780X0.0780*%
%ADD22OC8,0.0555*%
%ADD23OC8,0.0600*%
D10*
X008033Y014549D02*
X033786Y014549D01*
X033853Y014560D01*
X033919Y014574D01*
X033984Y014592D01*
X034048Y014614D01*
X034110Y014640D01*
X034171Y014669D01*
X034230Y014702D01*
X034287Y014738D01*
X034342Y014777D01*
X034394Y014820D01*
X034444Y014865D01*
X034491Y014914D01*
X034535Y014965D01*
X034576Y015018D01*
X034614Y015074D01*
X034649Y015132D01*
X034680Y015192D01*
X034708Y015253D01*
X034732Y015316D01*
X034752Y015381D01*
X034769Y015446D01*
X034781Y015513D01*
X034790Y015579D01*
X034795Y015647D01*
X034796Y015714D01*
X034793Y015782D01*
X034786Y015849D01*
X034698Y048787D01*
X034698Y048794D02*
X034688Y049239D01*
X034683Y049249D02*
X033883Y050049D01*
X019933Y050049D01*
X019873Y050051D01*
X019812Y050056D01*
X019753Y050065D01*
X019694Y050078D01*
X019635Y050094D01*
X019578Y050114D01*
X019523Y050137D01*
X019468Y050164D01*
X019416Y050193D01*
X019365Y050226D01*
X019316Y050262D01*
X019270Y050300D01*
X019226Y050342D01*
X019184Y050386D01*
X019146Y050432D01*
X019110Y050481D01*
X019077Y050532D01*
X019048Y050584D01*
X019021Y050639D01*
X018998Y050694D01*
X018978Y050751D01*
X018962Y050810D01*
X018949Y050869D01*
X018940Y050928D01*
X018935Y050989D01*
X018933Y051049D01*
X018933Y051249D01*
X018931Y051309D01*
X018926Y051370D01*
X018917Y051429D01*
X018904Y051488D01*
X018888Y051547D01*
X018868Y051604D01*
X018845Y051659D01*
X018818Y051714D01*
X018789Y051766D01*
X018756Y051817D01*
X018720Y051866D01*
X018682Y051912D01*
X018640Y051956D01*
X018596Y051998D01*
X018550Y052036D01*
X018501Y052072D01*
X018450Y052105D01*
X018398Y052134D01*
X018343Y052161D01*
X018288Y052184D01*
X018231Y052204D01*
X018172Y052220D01*
X018113Y052233D01*
X018054Y052242D01*
X017993Y052247D01*
X017933Y052249D01*
X008033Y052249D01*
X007973Y052247D01*
X007912Y052242D01*
X007853Y052233D01*
X007794Y052220D01*
X007735Y052204D01*
X007678Y052184D01*
X007623Y052161D01*
X007568Y052134D01*
X007516Y052105D01*
X007465Y052072D01*
X007416Y052036D01*
X007370Y051998D01*
X007326Y051956D01*
X007284Y051912D01*
X007246Y051866D01*
X007210Y051817D01*
X007177Y051766D01*
X007148Y051714D01*
X007121Y051659D01*
X007098Y051604D01*
X007078Y051547D01*
X007062Y051488D01*
X007049Y051429D01*
X007040Y051370D01*
X007035Y051309D01*
X007033Y051249D01*
X007033Y015549D01*
X007035Y015489D01*
X007040Y015428D01*
X007049Y015369D01*
X007062Y015310D01*
X007078Y015251D01*
X007098Y015194D01*
X007121Y015139D01*
X007148Y015084D01*
X007177Y015032D01*
X007210Y014981D01*
X007246Y014932D01*
X007284Y014886D01*
X007326Y014842D01*
X007370Y014800D01*
X007416Y014762D01*
X007465Y014726D01*
X007516Y014693D01*
X007568Y014664D01*
X007623Y014637D01*
X007678Y014614D01*
X007735Y014594D01*
X007794Y014578D01*
X007853Y014565D01*
X007912Y014556D01*
X007973Y014551D01*
X008033Y014549D01*
D11*
X015224Y040567D03*
X016638Y041981D03*
D12*
X008505Y027660D03*
X026014Y016348D03*
X030493Y016349D03*
D13*
X028524Y016349D03*
X024045Y016348D03*
X008505Y025692D03*
D14*
X008161Y030164D02*
X008161Y030764D01*
X008163Y031429D02*
X008163Y032029D01*
X009163Y032029D02*
X009163Y031429D01*
X009161Y030764D02*
X009161Y030164D01*
D15*
X011013Y016640D02*
X011015Y016666D01*
X011021Y016692D01*
X011031Y016717D01*
X011044Y016740D01*
X011060Y016760D01*
X011080Y016778D01*
X011102Y016793D01*
X011125Y016805D01*
X011151Y016813D01*
X011177Y016817D01*
X011203Y016817D01*
X011229Y016813D01*
X011255Y016805D01*
X011279Y016793D01*
X011300Y016778D01*
X011320Y016760D01*
X011336Y016740D01*
X011349Y016717D01*
X011359Y016692D01*
X011365Y016666D01*
X011367Y016640D01*
X011365Y016614D01*
X011359Y016588D01*
X011349Y016563D01*
X011336Y016540D01*
X011320Y016520D01*
X011300Y016502D01*
X011278Y016487D01*
X011255Y016475D01*
X011229Y016467D01*
X011203Y016463D01*
X011177Y016463D01*
X011151Y016467D01*
X011125Y016475D01*
X011101Y016487D01*
X011080Y016502D01*
X011060Y016520D01*
X011044Y016540D01*
X011031Y016563D01*
X011021Y016588D01*
X011015Y016614D01*
X011013Y016640D01*
X012745Y016640D02*
X012747Y016666D01*
X012753Y016692D01*
X012763Y016717D01*
X012776Y016740D01*
X012792Y016760D01*
X012812Y016778D01*
X012834Y016793D01*
X012857Y016805D01*
X012883Y016813D01*
X012909Y016817D01*
X012935Y016817D01*
X012961Y016813D01*
X012987Y016805D01*
X013011Y016793D01*
X013032Y016778D01*
X013052Y016760D01*
X013068Y016740D01*
X013081Y016717D01*
X013091Y016692D01*
X013097Y016666D01*
X013099Y016640D01*
X013097Y016614D01*
X013091Y016588D01*
X013081Y016563D01*
X013068Y016540D01*
X013052Y016520D01*
X013032Y016502D01*
X013010Y016487D01*
X012987Y016475D01*
X012961Y016467D01*
X012935Y016463D01*
X012909Y016463D01*
X012883Y016467D01*
X012857Y016475D01*
X012833Y016487D01*
X012812Y016502D01*
X012792Y016520D01*
X012776Y016540D01*
X012763Y016563D01*
X012753Y016588D01*
X012747Y016614D01*
X012745Y016640D01*
D16*
X012922Y016640D03*
X011190Y016640D03*
D17*
G36*
X024413Y042058D02*
X023862Y042609D01*
X024413Y043160D01*
X024964Y042609D01*
X024413Y042058D01*
G37*
D18*
X025171Y041669D02*
X025249Y041591D01*
X024991Y041591D01*
X024809Y041773D01*
X024809Y042031D01*
X024991Y042213D01*
X025249Y042213D01*
X025431Y042031D01*
X025431Y041773D01*
X025249Y041591D01*
X025201Y041708D01*
X025039Y041708D01*
X024926Y041821D01*
X024926Y041983D01*
X025039Y042096D01*
X025201Y042096D01*
X025314Y041983D01*
X025314Y041821D01*
X025201Y041708D01*
X025152Y041825D01*
X025088Y041825D01*
X025043Y041870D01*
X025043Y041934D01*
X025088Y041979D01*
X025152Y041979D01*
X025197Y041934D01*
X025197Y041870D01*
X025152Y041825D01*
X025878Y040962D02*
X025956Y040884D01*
X025698Y040884D01*
X025516Y041066D01*
X025516Y041324D01*
X025698Y041506D01*
X025956Y041506D01*
X026138Y041324D01*
X026138Y041066D01*
X025956Y040884D01*
X025908Y041001D01*
X025746Y041001D01*
X025633Y041114D01*
X025633Y041276D01*
X025746Y041389D01*
X025908Y041389D01*
X026021Y041276D01*
X026021Y041114D01*
X025908Y041001D01*
X025859Y041118D01*
X025795Y041118D01*
X025750Y041163D01*
X025750Y041227D01*
X025795Y041272D01*
X025859Y041272D01*
X025904Y041227D01*
X025904Y041163D01*
X025859Y041118D01*
X026585Y041669D02*
X026663Y041591D01*
X026405Y041591D01*
X026223Y041773D01*
X026223Y042031D01*
X026405Y042213D01*
X026663Y042213D01*
X026845Y042031D01*
X026845Y041773D01*
X026663Y041591D01*
X026615Y041708D01*
X026453Y041708D01*
X026340Y041821D01*
X026340Y041983D01*
X026453Y042096D01*
X026615Y042096D01*
X026728Y041983D01*
X026728Y041821D01*
X026615Y041708D01*
X026566Y041825D01*
X026502Y041825D01*
X026457Y041870D01*
X026457Y041934D01*
X026502Y041979D01*
X026566Y041979D01*
X026611Y041934D01*
X026611Y041870D01*
X026566Y041825D01*
X025878Y042376D02*
X025956Y042298D01*
X025698Y042298D01*
X025516Y042480D01*
X025516Y042738D01*
X025698Y042920D01*
X025956Y042920D01*
X026138Y042738D01*
X026138Y042480D01*
X025956Y042298D01*
X025908Y042415D01*
X025746Y042415D01*
X025633Y042528D01*
X025633Y042690D01*
X025746Y042803D01*
X025908Y042803D01*
X026021Y042690D01*
X026021Y042528D01*
X025908Y042415D01*
X025859Y042532D01*
X025795Y042532D01*
X025750Y042577D01*
X025750Y042641D01*
X025795Y042686D01*
X025859Y042686D01*
X025904Y042641D01*
X025904Y042577D01*
X025859Y042532D01*
X025171Y043083D02*
X025249Y043005D01*
X024991Y043005D01*
X024809Y043187D01*
X024809Y043445D01*
X024991Y043627D01*
X025249Y043627D01*
X025431Y043445D01*
X025431Y043187D01*
X025249Y043005D01*
X025201Y043122D01*
X025039Y043122D01*
X024926Y043235D01*
X024926Y043397D01*
X025039Y043510D01*
X025201Y043510D01*
X025314Y043397D01*
X025314Y043235D01*
X025201Y043122D01*
X025152Y043239D01*
X025088Y043239D01*
X025043Y043284D01*
X025043Y043348D01*
X025088Y043393D01*
X025152Y043393D01*
X025197Y043348D01*
X025197Y043284D01*
X025152Y043239D01*
D19*
X033459Y048749D03*
X008261Y048749D03*
X008243Y015779D03*
X033521Y015879D03*
D20*
X020791Y015629D03*
X019791Y015629D03*
X018791Y015629D03*
X017791Y015629D03*
X016791Y015629D03*
X015791Y015629D03*
X015791Y016739D03*
X016791Y016739D03*
X017791Y016739D03*
X018791Y016739D03*
X019791Y016739D03*
X020791Y016739D03*
X033533Y033049D03*
X033533Y034049D03*
X033533Y035049D03*
X033593Y042169D03*
X033593Y043169D03*
X033593Y044169D03*
X033593Y045169D03*
X033593Y046169D03*
X033593Y047169D03*
X032500Y047161D03*
X032500Y046161D03*
X032500Y045161D03*
X032500Y044161D03*
X032500Y043161D03*
X032500Y042161D03*
X030233Y048219D03*
X029233Y048219D03*
X028233Y048219D03*
X027233Y048219D03*
X026233Y048219D03*
X025233Y048219D03*
X025224Y049303D03*
X026224Y049303D03*
X027224Y049303D03*
X028224Y049303D03*
X029224Y049303D03*
X030224Y049303D03*
X024149Y049292D03*
X023149Y049292D03*
X022149Y049292D03*
X021149Y049292D03*
X020149Y049292D03*
X019149Y049292D03*
X019148Y048208D03*
X020148Y048208D03*
X021148Y048208D03*
X022148Y048208D03*
X023148Y048208D03*
X024148Y048208D03*
X017938Y048301D03*
X017938Y049301D03*
X017938Y050301D03*
X017938Y051301D03*
X016827Y051301D03*
X016827Y050301D03*
X016827Y049301D03*
X016827Y048301D03*
X016827Y047301D03*
X016827Y046301D03*
X015716Y046301D03*
X015716Y047301D03*
X015716Y048301D03*
X015716Y049301D03*
X015716Y050301D03*
X015716Y051301D03*
X014609Y051301D03*
X014609Y050301D03*
X014609Y049301D03*
X014609Y048301D03*
X014609Y047301D03*
X014609Y046301D03*
X013514Y046301D03*
X013514Y047301D03*
X013514Y048301D03*
X013514Y049301D03*
X013514Y050301D03*
X013514Y051301D03*
X012412Y051297D03*
X012412Y050297D03*
X012412Y049297D03*
X012412Y048297D03*
X012412Y047297D03*
X012412Y046297D03*
X011314Y046297D03*
X011314Y047297D03*
X011314Y048297D03*
X011314Y049297D03*
X011314Y050297D03*
X011314Y051297D03*
X009149Y046641D03*
X009149Y045641D03*
X009149Y044641D03*
X009149Y043641D03*
X009149Y042641D03*
X009149Y041641D03*
X008063Y041639D03*
X008063Y042639D03*
X008063Y043639D03*
X008063Y044639D03*
X008063Y045639D03*
X008063Y046639D03*
X017938Y046301D03*
X017938Y047301D03*
D21*
X033533Y036049D03*
D22*
X009683Y036099D03*
X009683Y037099D03*
X009683Y038099D03*
X009683Y039099D03*
X009683Y040099D03*
X008683Y040099D03*
X007683Y040099D03*
X007683Y039099D03*
X008683Y039099D03*
X008683Y038099D03*
X007683Y038099D03*
X007683Y037099D03*
X008683Y037099D03*
X008683Y036099D03*
X007683Y036099D03*
X007683Y035099D03*
X008683Y035099D03*
X009683Y035099D03*
X009683Y034099D03*
X008683Y034099D03*
X007683Y034099D03*
D23*
X032803Y037859D03*
X032803Y038859D03*
X032803Y039859D03*
X032803Y040859D03*
X033803Y040859D03*
X033803Y039859D03*
X033803Y038859D03*
X033803Y037859D03*
M02*
