%
M48
M72
T01C0.0120
T02C0.0140
T03C0.0160
T04C0.0276
T05C0.0360
T06C0.0394
T07C0.0400
T08C0.0520
T09C0.0660
T10C0.0709
T11C0.0900
T12C0.1181
T13C0.1417
%
T01
X26230Y18717
X26170Y16257
X22150Y47997
X22150Y48777
X22570Y48777
X22990Y48777
X22570Y48357
X22570Y47997
X22150Y48357
X18670Y56097
X18370Y56097
X18970Y56097
X18430Y53157
X18730Y53157
X19030Y53157
X12310Y54777
X11950Y55737
X12310Y56097
X11950Y55077
X12310Y55437
X11830Y52377
X11050Y49437
X11650Y49077
X11050Y48657
X11590Y48177
X11050Y47817
X10330Y50937
X11590Y47457
X11590Y46857
X11770Y42657
X11170Y39897
X10930Y39177
X11590Y39357
X11410Y38697
X10750Y38457
X11290Y38037
X10990Y37437
X11650Y37497
X11770Y36777
X9850Y38337
X10270Y41157
X10930Y30177
X11470Y30177
X10930Y29577
X11470Y29577
X10930Y28977
X11470Y28977
X10930Y28377
X11470Y28377
X10210Y33057
X9850Y31377
X11530Y27417
X11350Y26997
X12730Y25197
X12730Y24837
X15970Y24897
X15550Y24897
X16210Y24657
X16090Y24297
X16030Y22677
X16030Y22317
X16030Y21957
X16030Y21597
X15430Y21297
X15790Y21297
X16210Y21297
X17410Y22377
X17410Y22017
X17410Y21657
X17410Y21297
X17830Y21297
X17830Y21657
X17830Y22017
X18190Y21657
X18190Y21297
X20710Y20697
X11830Y26097
X9790Y25797
X9730Y23697
X11290Y20277
X11650Y20277
X12010Y20277
X12370Y20277
X12730Y20277
X13090Y20277
X13090Y19917
X12730Y19917
X12370Y19917
X12010Y19917
X11650Y19917
X11290Y19917
X12130Y12897
X11830Y12537
X11830Y12177
X10630Y18717
X10630Y17877
X15490Y20457
X17950Y20397
X18910Y18717
X15490Y15177
X15490Y19257
X11830Y14157
X13090Y14157
X11770Y15297
X13090Y15357
X11770Y10977
X34990Y41577
X34990Y41277
X36490Y42957
X34750Y39477
X34750Y38937
X34750Y38397
X34750Y37857
X34750Y37317
X35710Y36597
X36310Y36057
X35770Y36117
X36310Y35397
X36310Y34857
X34750Y36777
X37150Y33177
X37270Y30777
X37090Y27297
X37150Y27957
X37210Y28977
X33370Y19437
X33790Y19857
X34150Y20277
X34330Y20877
X35590Y23217
X35590Y23697
X35590Y24177
X35590Y24657
X35590Y25137
X35590Y25617
X35590Y26097
X33190Y25377
X32410Y27657
X32950Y27957
X31150Y27717
X31150Y27177
X31450Y9477
X37210Y29997
X31450Y9837
X31450Y10257
X31450Y10617
X31930Y10617
X31930Y11037
X31570Y10977
X35590Y8037
X38590Y8037
X35590Y5817
X35590Y6957
X36610Y8037
X34330Y10617
X9670Y22857
X36490Y20637
X25030Y12777
X25450Y12777
X25870Y12777
X26290Y12777
X23410Y28737
X23410Y27957
X23890Y28737
X23890Y27957
X24370Y27957
X24370Y28677
X24790Y28317
X26230Y26397
X26650Y26397
X27070Y26397
X27490Y26397
X30910Y32157
X30910Y31797
X30910Y31437
X30310Y32457
X30790Y32457
X31750Y32457
X31270Y32457
X30670Y32877
X32470Y31737
X32410Y31077
X30910Y31077
X11110Y9657
X11530Y9657
X11110Y9117
X11530Y9117
X12790Y8577
X13510Y7257
X12370Y7317
X11110Y8637
X11530Y8637
X13750Y7557
X11950Y54417
X35590Y44757
X35590Y46377
X35590Y45837
X35590Y45297
X35590Y44217
X25630Y19977
X25930Y19977
X26230Y19977
X26530Y19977
X26830Y19977
X22270Y13317
X36490Y22077
X23050Y18297
X28210Y20637
X29170Y21057
X29470Y21357
X26650Y26817
X27070Y26817
X27490Y26817
X27490Y27237
X27070Y27237
X32710Y8037
X33430Y11037
X32230Y12357
X33550Y11997
X17350Y6417
X22630Y6657
X12370Y11037
X12430Y11457
X23170Y13797
X22450Y14397
X12190Y28617
X22570Y21537
X24250Y22797
X33850Y26157
X23050Y19317
X27610Y17697
X26170Y18357
X25450Y16317
X23050Y18717
X13690Y47877
X20290Y48357
X20590Y23277
X28210Y15297
X26590Y18777
X26890Y18477
X29050Y15357
X26470Y22317
X20050Y7617
X26650Y22677
X19150Y10557
X26710Y22077
X19690Y11157
X19270Y7917
X28090Y23037
X20890Y17757
X21910Y19257
X25630Y22977
X26410Y20577
X24070Y7677
X26710Y20877
X24430Y11037
X26770Y21237
X24550Y8457
X26770Y21657
X20050Y10677
X34630Y28076
X34270Y33057
X11290Y25677
X13750Y21177
X22870Y16617
X22870Y17097
X24310Y50397
X30276Y29112
X30070Y25137
X19630Y19317
X20410Y17457
X13930Y27297
X32590Y17877
X32830Y21057
X32950Y27357
X29710Y25197
X29710Y26397
X22570Y16137
X22510Y18357
X15996Y25530
X23410Y25257
X31130Y28357
X30490Y25137
X25090Y19017
X32230Y19437
X32290Y19857
X25090Y19317
X16810Y24357
X23470Y24837
X20170Y17217
X19390Y18957
X11650Y19137
X32470Y25317
X32110Y17697
X35710Y34677
X22270Y16437
X22450Y17157
X25030Y19617
X32230Y20217
X32290Y19077
X25510Y19017
T02
X26050Y45897
T03
X17710Y31917
X18130Y31917
X18550Y31917
X18970Y31917
X19810Y31917
X19390Y31917
X20230Y31917
X20650Y31917
X21070Y31917
X21490Y31917
X21910Y31917
X22330Y31917
X22750Y31917
X23170Y31917
X23590Y31917
X24010Y31917
X24430Y31917
X24850Y31917
X11830Y51477
X11830Y50817
X11950Y40857
X11950Y41337
X10270Y31857
X10270Y31017
X34990Y43197
X34870Y42477
X21550Y50217
X24850Y32457
X24850Y32877
X24850Y33297
X24850Y33717
X24850Y34137
X17710Y32457
X17710Y32877
X25270Y46797
X20770Y50277
X32050Y47217
T04
X24185Y27383
X24185Y29383
T05
X35750Y11663
X35750Y10678
X36530Y10678
X36530Y11663
X15537Y52696
X16537Y52696
X15537Y53696
X16537Y53696
X15540Y49816
X16540Y49816
X15540Y50816
X16540Y50816
T06
X25150Y57357
T07
X30222Y23689
X31222Y23689
X30222Y22689
X31222Y22689
X30222Y21689
X31222Y21689
X14663Y5996
X13663Y5996
X12663Y5996
X11663Y5996
X18473Y58554
X17473Y58554
X16473Y58554
X15250Y35397
X15250Y34397
X15250Y33397
X15250Y32397
X34210Y21957
X34210Y22957
X34210Y23957
X34210Y24957
T08
X36558Y50252
X35758Y52602
X35758Y47902
X30958Y47902
X30958Y52602
T09
X18591Y7793
X26591Y7793
T10
X34796Y55706
X33142Y55706
X31488Y55706
X29835Y55706
X26528Y55706
X24874Y55706
X23221Y55706
X21567Y55706
T11
X37600Y13540
X37600Y8800
T12
X34796Y58580
X29835Y58580
X26528Y58580
X21567Y58580
T13
X8911Y6281
X8874Y58996
X37935Y58965
X37954Y6243
M30
