G75*
%MOIN*%
%OFA0B0*%
%FSLAX24Y24*%
%IPPOS*%
%LPD*%
%AMOC8*
5,1,8,0,0,1.08239X$1,22.5*
%
%ADD10C,0.0160*%
%ADD11R,0.0110X0.0580*%
%ADD12R,0.0512X0.0591*%
%ADD13R,0.4252X0.4098*%
%ADD14R,0.0420X0.0850*%
%ADD15R,0.0591X0.0787*%
%ADD16R,0.1299X0.0512*%
%ADD17R,0.0630X0.0512*%
%ADD18R,0.0551X0.0551*%
%ADD19R,0.1500X0.0820*%
%ADD20R,0.3500X0.4500*%
%ADD21R,0.0315X0.0315*%
%ADD22R,0.0512X0.0630*%
%ADD23R,0.0591X0.0512*%
%ADD24R,0.0591X0.0157*%
%ADD25R,0.0787X0.0984*%
%ADD26R,0.0787X0.1299*%
%ADD27R,0.0197X0.1220*%
%ADD28C,0.0000*%
%ADD29R,0.0433X0.0551*%
%ADD30R,0.0600X0.0300*%
%ADD31R,0.0709X0.0394*%
%ADD32R,0.0827X0.0591*%
%ADD33R,0.0472X0.0472*%
%ADD34R,0.0551X0.0394*%
%ADD35R,0.0630X0.0709*%
%ADD36R,0.0850X0.1080*%
%ADD37R,0.1142X0.2126*%
D10*
X008033Y014549D02*
X033786Y014549D01*
X033853Y014560D01*
X033919Y014574D01*
X033984Y014592D01*
X034048Y014614D01*
X034110Y014640D01*
X034171Y014669D01*
X034230Y014702D01*
X034287Y014738D01*
X034342Y014777D01*
X034394Y014820D01*
X034444Y014865D01*
X034491Y014914D01*
X034535Y014965D01*
X034576Y015018D01*
X034614Y015074D01*
X034649Y015132D01*
X034680Y015192D01*
X034708Y015253D01*
X034732Y015316D01*
X034752Y015381D01*
X034769Y015446D01*
X034781Y015513D01*
X034790Y015579D01*
X034795Y015647D01*
X034796Y015714D01*
X034793Y015782D01*
X034786Y015849D01*
X034698Y048787D01*
X034698Y048794D02*
X034688Y049239D01*
X034683Y049249D02*
X033883Y050049D01*
X019933Y050049D01*
X019873Y050051D01*
X019812Y050056D01*
X019753Y050065D01*
X019694Y050078D01*
X019635Y050094D01*
X019578Y050114D01*
X019523Y050137D01*
X019468Y050164D01*
X019416Y050193D01*
X019365Y050226D01*
X019316Y050262D01*
X019270Y050300D01*
X019226Y050342D01*
X019184Y050386D01*
X019146Y050432D01*
X019110Y050481D01*
X019077Y050532D01*
X019048Y050584D01*
X019021Y050639D01*
X018998Y050694D01*
X018978Y050751D01*
X018962Y050810D01*
X018949Y050869D01*
X018940Y050928D01*
X018935Y050989D01*
X018933Y051049D01*
X018933Y051249D01*
X018931Y051309D01*
X018926Y051370D01*
X018917Y051429D01*
X018904Y051488D01*
X018888Y051547D01*
X018868Y051604D01*
X018845Y051659D01*
X018818Y051714D01*
X018789Y051766D01*
X018756Y051817D01*
X018720Y051866D01*
X018682Y051912D01*
X018640Y051956D01*
X018596Y051998D01*
X018550Y052036D01*
X018501Y052072D01*
X018450Y052105D01*
X018398Y052134D01*
X018343Y052161D01*
X018288Y052184D01*
X018231Y052204D01*
X018172Y052220D01*
X018113Y052233D01*
X018054Y052242D01*
X017993Y052247D01*
X017933Y052249D01*
X008033Y052249D01*
X007973Y052247D01*
X007912Y052242D01*
X007853Y052233D01*
X007794Y052220D01*
X007735Y052204D01*
X007678Y052184D01*
X007623Y052161D01*
X007568Y052134D01*
X007516Y052105D01*
X007465Y052072D01*
X007416Y052036D01*
X007370Y051998D01*
X007326Y051956D01*
X007284Y051912D01*
X007246Y051866D01*
X007210Y051817D01*
X007177Y051766D01*
X007148Y051714D01*
X007121Y051659D01*
X007098Y051604D01*
X007078Y051547D01*
X007062Y051488D01*
X007049Y051429D01*
X007040Y051370D01*
X007035Y051309D01*
X007033Y051249D01*
X007033Y015549D01*
X007035Y015489D01*
X007040Y015428D01*
X007049Y015369D01*
X007062Y015310D01*
X007078Y015251D01*
X007098Y015194D01*
X007121Y015139D01*
X007148Y015084D01*
X007177Y015032D01*
X007210Y014981D01*
X007246Y014932D01*
X007284Y014886D01*
X007326Y014842D01*
X007370Y014800D01*
X007416Y014762D01*
X007465Y014726D01*
X007516Y014693D01*
X007568Y014664D01*
X007623Y014637D01*
X007678Y014614D01*
X007735Y014594D01*
X007794Y014578D01*
X007853Y014565D01*
X007912Y014556D01*
X007973Y014551D01*
X008033Y014549D01*
D11*
G36*
X020526Y032655D02*
X020603Y032578D01*
X020194Y032169D01*
X020117Y032246D01*
X020526Y032655D01*
G37*
G36*
X020391Y032789D02*
X020468Y032712D01*
X020059Y032303D01*
X019982Y032380D01*
X020391Y032789D01*
G37*
G36*
X020250Y032931D02*
X020327Y032854D01*
X019918Y032445D01*
X019841Y032522D01*
X020250Y032931D01*
G37*
G36*
X020109Y033072D02*
X020186Y032995D01*
X019777Y032586D01*
X019700Y032663D01*
X020109Y033072D01*
G37*
G36*
X019967Y033214D02*
X020044Y033137D01*
X019635Y032728D01*
X019558Y032805D01*
X019967Y033214D01*
G37*
G36*
X019833Y033348D02*
X019910Y033271D01*
X019501Y032862D01*
X019424Y032939D01*
X019833Y033348D01*
G37*
G36*
X019691Y033489D02*
X019768Y033412D01*
X019359Y033003D01*
X019282Y033080D01*
X019691Y033489D01*
G37*
G36*
X019550Y033631D02*
X019627Y033554D01*
X019218Y033145D01*
X019141Y033222D01*
X019550Y033631D01*
G37*
G36*
X019416Y033765D02*
X019493Y033688D01*
X019084Y033279D01*
X019007Y033356D01*
X019416Y033765D01*
G37*
G36*
X019274Y033907D02*
X019351Y033830D01*
X018942Y033421D01*
X018865Y033498D01*
X019274Y033907D01*
G37*
G36*
X019133Y034048D02*
X019210Y033971D01*
X018801Y033562D01*
X018724Y033639D01*
X019133Y034048D01*
G37*
G36*
X018998Y034182D02*
X019075Y034105D01*
X018666Y033696D01*
X018589Y033773D01*
X018998Y034182D01*
G37*
G36*
X018857Y034324D02*
X018934Y034247D01*
X018525Y033838D01*
X018448Y033915D01*
X018857Y034324D01*
G37*
G36*
X018716Y034465D02*
X018793Y034388D01*
X018384Y033979D01*
X018307Y034056D01*
X018716Y034465D01*
G37*
G36*
X018581Y034600D02*
X018658Y034523D01*
X018249Y034114D01*
X018172Y034191D01*
X018581Y034600D01*
G37*
G36*
X018440Y034741D02*
X018517Y034664D01*
X018108Y034255D01*
X018031Y034332D01*
X018440Y034741D01*
G37*
G36*
X018298Y034882D02*
X018375Y034805D01*
X017966Y034396D01*
X017889Y034473D01*
X018298Y034882D01*
G37*
G36*
X018164Y035017D02*
X018241Y034940D01*
X017832Y034531D01*
X017755Y034608D01*
X018164Y035017D01*
G37*
G36*
X018023Y035158D02*
X018100Y035081D01*
X017691Y034672D01*
X017614Y034749D01*
X018023Y035158D01*
G37*
G36*
X017881Y035300D02*
X017958Y035223D01*
X017549Y034814D01*
X017472Y034891D01*
X017881Y035300D01*
G37*
G36*
X017747Y035434D02*
X017824Y035357D01*
X017415Y034948D01*
X017338Y035025D01*
X017747Y035434D01*
G37*
G36*
X017605Y035575D02*
X017682Y035498D01*
X017273Y035089D01*
X017196Y035166D01*
X017605Y035575D01*
G37*
G36*
X017464Y035717D02*
X017541Y035640D01*
X017132Y035231D01*
X017055Y035308D01*
X017464Y035717D01*
G37*
G36*
X017323Y035858D02*
X017400Y035781D01*
X016991Y035372D01*
X016914Y035449D01*
X017323Y035858D01*
G37*
G36*
X017188Y035993D02*
X017265Y035916D01*
X016856Y035507D01*
X016779Y035584D01*
X017188Y035993D01*
G37*
G36*
X017265Y036489D02*
X017188Y036412D01*
X016779Y036821D01*
X016856Y036898D01*
X017265Y036489D01*
G37*
G36*
X017400Y036623D02*
X017323Y036546D01*
X016914Y036955D01*
X016991Y037032D01*
X017400Y036623D01*
G37*
G36*
X017541Y036765D02*
X017464Y036688D01*
X017055Y037097D01*
X017132Y037174D01*
X017541Y036765D01*
G37*
G36*
X017682Y036906D02*
X017605Y036829D01*
X017196Y037238D01*
X017273Y037315D01*
X017682Y036906D01*
G37*
G36*
X017824Y037047D02*
X017747Y036970D01*
X017338Y037379D01*
X017415Y037456D01*
X017824Y037047D01*
G37*
G36*
X017958Y037182D02*
X017881Y037105D01*
X017472Y037514D01*
X017549Y037591D01*
X017958Y037182D01*
G37*
G36*
X018100Y037323D02*
X018023Y037246D01*
X017614Y037655D01*
X017691Y037732D01*
X018100Y037323D01*
G37*
G36*
X018241Y037465D02*
X018164Y037388D01*
X017755Y037797D01*
X017832Y037874D01*
X018241Y037465D01*
G37*
G36*
X018375Y037599D02*
X018298Y037522D01*
X017889Y037931D01*
X017966Y038008D01*
X018375Y037599D01*
G37*
G36*
X018517Y037740D02*
X018440Y037663D01*
X018031Y038072D01*
X018108Y038149D01*
X018517Y037740D01*
G37*
G36*
X018658Y037882D02*
X018581Y037805D01*
X018172Y038214D01*
X018249Y038291D01*
X018658Y037882D01*
G37*
G36*
X018793Y038016D02*
X018716Y037939D01*
X018307Y038348D01*
X018384Y038425D01*
X018793Y038016D01*
G37*
G36*
X018934Y038158D02*
X018857Y038081D01*
X018448Y038490D01*
X018525Y038567D01*
X018934Y038158D01*
G37*
G36*
X019075Y038299D02*
X018998Y038222D01*
X018589Y038631D01*
X018666Y038708D01*
X019075Y038299D01*
G37*
G36*
X019210Y038433D02*
X019133Y038356D01*
X018724Y038765D01*
X018801Y038842D01*
X019210Y038433D01*
G37*
G36*
X019351Y038575D02*
X019274Y038498D01*
X018865Y038907D01*
X018942Y038984D01*
X019351Y038575D01*
G37*
G36*
X019493Y038716D02*
X019416Y038639D01*
X019007Y039048D01*
X019084Y039125D01*
X019493Y038716D01*
G37*
G36*
X019627Y038850D02*
X019550Y038773D01*
X019141Y039182D01*
X019218Y039259D01*
X019627Y038850D01*
G37*
G36*
X019768Y038992D02*
X019691Y038915D01*
X019282Y039324D01*
X019359Y039401D01*
X019768Y038992D01*
G37*
G36*
X019910Y039133D02*
X019833Y039056D01*
X019424Y039465D01*
X019501Y039542D01*
X019910Y039133D01*
G37*
G36*
X020044Y039268D02*
X019967Y039191D01*
X019558Y039600D01*
X019635Y039677D01*
X020044Y039268D01*
G37*
G36*
X020186Y039409D02*
X020109Y039332D01*
X019700Y039741D01*
X019777Y039818D01*
X020186Y039409D01*
G37*
G36*
X020327Y039551D02*
X020250Y039474D01*
X019841Y039883D01*
X019918Y039960D01*
X020327Y039551D01*
G37*
G36*
X020468Y039692D02*
X020391Y039615D01*
X019982Y040024D01*
X020059Y040101D01*
X020468Y039692D01*
G37*
G36*
X020603Y039826D02*
X020526Y039749D01*
X020117Y040158D01*
X020194Y040235D01*
X020603Y039826D01*
G37*
G36*
X021431Y040235D02*
X021508Y040158D01*
X021099Y039749D01*
X021022Y039826D01*
X021431Y040235D01*
G37*
G36*
X021565Y040101D02*
X021642Y040024D01*
X021233Y039615D01*
X021156Y039692D01*
X021565Y040101D01*
G37*
G36*
X021707Y039960D02*
X021784Y039883D01*
X021375Y039474D01*
X021298Y039551D01*
X021707Y039960D01*
G37*
G36*
X021848Y039818D02*
X021925Y039741D01*
X021516Y039332D01*
X021439Y039409D01*
X021848Y039818D01*
G37*
G36*
X021990Y039677D02*
X022067Y039600D01*
X021658Y039191D01*
X021581Y039268D01*
X021990Y039677D01*
G37*
G36*
X022124Y039542D02*
X022201Y039465D01*
X021792Y039056D01*
X021715Y039133D01*
X022124Y039542D01*
G37*
G36*
X022265Y039401D02*
X022342Y039324D01*
X021933Y038915D01*
X021856Y038992D01*
X022265Y039401D01*
G37*
G36*
X022407Y039259D02*
X022484Y039182D01*
X022075Y038773D01*
X021998Y038850D01*
X022407Y039259D01*
G37*
G36*
X022541Y039125D02*
X022618Y039048D01*
X022209Y038639D01*
X022132Y038716D01*
X022541Y039125D01*
G37*
G36*
X022683Y038984D02*
X022760Y038907D01*
X022351Y038498D01*
X022274Y038575D01*
X022683Y038984D01*
G37*
G36*
X022824Y038842D02*
X022901Y038765D01*
X022492Y038356D01*
X022415Y038433D01*
X022824Y038842D01*
G37*
G36*
X022958Y038708D02*
X023035Y038631D01*
X022626Y038222D01*
X022549Y038299D01*
X022958Y038708D01*
G37*
G36*
X023100Y038567D02*
X023177Y038490D01*
X022768Y038081D01*
X022691Y038158D01*
X023100Y038567D01*
G37*
G36*
X023241Y038425D02*
X023318Y038348D01*
X022909Y037939D01*
X022832Y038016D01*
X023241Y038425D01*
G37*
G36*
X023375Y038291D02*
X023452Y038214D01*
X023043Y037805D01*
X022966Y037882D01*
X023375Y038291D01*
G37*
G36*
X023517Y038149D02*
X023594Y038072D01*
X023185Y037663D01*
X023108Y037740D01*
X023517Y038149D01*
G37*
G36*
X023658Y038008D02*
X023735Y037931D01*
X023326Y037522D01*
X023249Y037599D01*
X023658Y038008D01*
G37*
G36*
X023793Y037874D02*
X023870Y037797D01*
X023461Y037388D01*
X023384Y037465D01*
X023793Y037874D01*
G37*
G36*
X023934Y037732D02*
X024011Y037655D01*
X023602Y037246D01*
X023525Y037323D01*
X023934Y037732D01*
G37*
G36*
X024076Y037591D02*
X024153Y037514D01*
X023744Y037105D01*
X023667Y037182D01*
X024076Y037591D01*
G37*
G36*
X024210Y037456D02*
X024287Y037379D01*
X023878Y036970D01*
X023801Y037047D01*
X024210Y037456D01*
G37*
G36*
X024351Y037315D02*
X024428Y037238D01*
X024019Y036829D01*
X023942Y036906D01*
X024351Y037315D01*
G37*
G36*
X024493Y037174D02*
X024570Y037097D01*
X024161Y036688D01*
X024084Y036765D01*
X024493Y037174D01*
G37*
G36*
X024634Y037032D02*
X024711Y036955D01*
X024302Y036546D01*
X024225Y036623D01*
X024634Y037032D01*
G37*
G36*
X024768Y036898D02*
X024845Y036821D01*
X024436Y036412D01*
X024359Y036489D01*
X024768Y036898D01*
G37*
G36*
X024845Y035584D02*
X024768Y035507D01*
X024359Y035916D01*
X024436Y035993D01*
X024845Y035584D01*
G37*
G36*
X024711Y035449D02*
X024634Y035372D01*
X024225Y035781D01*
X024302Y035858D01*
X024711Y035449D01*
G37*
G36*
X024570Y035308D02*
X024493Y035231D01*
X024084Y035640D01*
X024161Y035717D01*
X024570Y035308D01*
G37*
G36*
X024428Y035166D02*
X024351Y035089D01*
X023942Y035498D01*
X024019Y035575D01*
X024428Y035166D01*
G37*
G36*
X024287Y035025D02*
X024210Y034948D01*
X023801Y035357D01*
X023878Y035434D01*
X024287Y035025D01*
G37*
G36*
X024153Y034891D02*
X024076Y034814D01*
X023667Y035223D01*
X023744Y035300D01*
X024153Y034891D01*
G37*
G36*
X024011Y034749D02*
X023934Y034672D01*
X023525Y035081D01*
X023602Y035158D01*
X024011Y034749D01*
G37*
G36*
X023870Y034608D02*
X023793Y034531D01*
X023384Y034940D01*
X023461Y035017D01*
X023870Y034608D01*
G37*
G36*
X023735Y034473D02*
X023658Y034396D01*
X023249Y034805D01*
X023326Y034882D01*
X023735Y034473D01*
G37*
G36*
X023594Y034332D02*
X023517Y034255D01*
X023108Y034664D01*
X023185Y034741D01*
X023594Y034332D01*
G37*
G36*
X023452Y034191D02*
X023375Y034114D01*
X022966Y034523D01*
X023043Y034600D01*
X023452Y034191D01*
G37*
G36*
X023318Y034056D02*
X023241Y033979D01*
X022832Y034388D01*
X022909Y034465D01*
X023318Y034056D01*
G37*
G36*
X023177Y033915D02*
X023100Y033838D01*
X022691Y034247D01*
X022768Y034324D01*
X023177Y033915D01*
G37*
G36*
X023035Y033773D02*
X022958Y033696D01*
X022549Y034105D01*
X022626Y034182D01*
X023035Y033773D01*
G37*
G36*
X022901Y033639D02*
X022824Y033562D01*
X022415Y033971D01*
X022492Y034048D01*
X022901Y033639D01*
G37*
G36*
X022760Y033498D02*
X022683Y033421D01*
X022274Y033830D01*
X022351Y033907D01*
X022760Y033498D01*
G37*
G36*
X022618Y033356D02*
X022541Y033279D01*
X022132Y033688D01*
X022209Y033765D01*
X022618Y033356D01*
G37*
G36*
X022484Y033222D02*
X022407Y033145D01*
X021998Y033554D01*
X022075Y033631D01*
X022484Y033222D01*
G37*
G36*
X022342Y033080D02*
X022265Y033003D01*
X021856Y033412D01*
X021933Y033489D01*
X022342Y033080D01*
G37*
G36*
X022201Y032939D02*
X022124Y032862D01*
X021715Y033271D01*
X021792Y033348D01*
X022201Y032939D01*
G37*
G36*
X022067Y032805D02*
X021990Y032728D01*
X021581Y033137D01*
X021658Y033214D01*
X022067Y032805D01*
G37*
G36*
X021925Y032663D02*
X021848Y032586D01*
X021439Y032995D01*
X021516Y033072D01*
X021925Y032663D01*
G37*
G36*
X021784Y032522D02*
X021707Y032445D01*
X021298Y032854D01*
X021375Y032931D01*
X021784Y032522D01*
G37*
G36*
X021642Y032380D02*
X021565Y032303D01*
X021156Y032712D01*
X021233Y032789D01*
X021642Y032380D01*
G37*
G36*
X021508Y032246D02*
X021431Y032169D01*
X021022Y032578D01*
X021099Y032655D01*
X021508Y032246D01*
G37*
D12*
G36*
X025257Y032787D02*
X024895Y032425D01*
X024479Y032841D01*
X024841Y033203D01*
X025257Y032787D01*
G37*
G36*
X025786Y033316D02*
X025424Y032954D01*
X025008Y033370D01*
X025370Y033732D01*
X025786Y033316D01*
G37*
G36*
X026147Y034537D02*
X025785Y034175D01*
X025369Y034591D01*
X025731Y034953D01*
X026147Y034537D01*
G37*
G36*
X026676Y035066D02*
X026314Y034704D01*
X025898Y035120D01*
X026260Y035482D01*
X026676Y035066D01*
G37*
G36*
X024417Y039077D02*
X024055Y038715D01*
X023639Y039131D01*
X024001Y039493D01*
X024417Y039077D01*
G37*
G36*
X024946Y039606D02*
X024584Y039244D01*
X024168Y039660D01*
X024530Y040022D01*
X024946Y039606D01*
G37*
G36*
X018278Y041053D02*
X017916Y040691D01*
X017500Y041107D01*
X017862Y041469D01*
X018278Y041053D01*
G37*
G36*
X017805Y040580D02*
X017443Y040218D01*
X017027Y040634D01*
X017389Y040996D01*
X017805Y040580D01*
G37*
G36*
X014943Y042749D02*
X015305Y043111D01*
X015721Y042695D01*
X015359Y042333D01*
X014943Y042749D01*
G37*
G36*
X014963Y041937D02*
X014601Y041575D01*
X014185Y041991D01*
X014547Y042353D01*
X014963Y041937D01*
G37*
G36*
X014489Y041463D02*
X014127Y041101D01*
X013711Y041517D01*
X014073Y041879D01*
X014489Y041463D01*
G37*
G36*
X015416Y043222D02*
X015778Y043584D01*
X016194Y043168D01*
X015832Y042806D01*
X015416Y043222D01*
G37*
G36*
X016985Y034712D02*
X017347Y034350D01*
X016931Y033934D01*
X016569Y034296D01*
X016985Y034712D01*
G37*
G36*
X017514Y034183D02*
X017876Y033821D01*
X017460Y033405D01*
X017098Y033767D01*
X017514Y034183D01*
G37*
X031359Y029849D03*
X032107Y029849D03*
X032107Y029049D03*
X031359Y029049D03*
D13*
X026347Y026512D03*
D14*
X026347Y023232D03*
X025677Y023232D03*
X025007Y023232D03*
X027017Y023232D03*
X027687Y023232D03*
D15*
X029598Y021353D03*
X030779Y021353D03*
D16*
X027900Y019682D03*
X025439Y019682D03*
D17*
X019703Y026105D03*
X019703Y026853D03*
X019703Y028095D03*
X019703Y028843D03*
X015593Y022093D03*
X015593Y021345D03*
X014603Y021345D03*
X014603Y022093D03*
D18*
X011133Y026131D03*
X011133Y027627D03*
X009301Y023159D03*
X007805Y023159D03*
D19*
X018344Y026596D03*
X018344Y028596D03*
D20*
X013844Y027596D03*
D21*
X012998Y030519D03*
X012408Y030519D03*
X014593Y020614D03*
X014593Y020023D03*
X015593Y020023D03*
X015593Y020614D03*
D22*
X015457Y023449D03*
X014709Y023449D03*
X014709Y024349D03*
X015457Y024349D03*
X014727Y030519D03*
X013979Y030519D03*
X009129Y029359D03*
X008381Y029359D03*
X008339Y032819D03*
X009087Y032819D03*
X020877Y041647D03*
X021625Y041647D03*
D23*
X010783Y033093D03*
X010783Y032345D03*
X010773Y029496D03*
X010773Y028748D03*
X014923Y018603D03*
X014923Y017855D03*
D24*
X013495Y019386D03*
X013495Y019642D03*
X013495Y019898D03*
X013495Y020153D03*
X013495Y020409D03*
X013495Y020665D03*
X013495Y020921D03*
X013495Y021177D03*
X013495Y021433D03*
X013495Y021689D03*
X013495Y021945D03*
X013495Y022201D03*
X013495Y022457D03*
X013495Y022713D03*
X010640Y022713D03*
X010640Y022457D03*
X010640Y022201D03*
X010640Y021945D03*
X010640Y021689D03*
X010640Y021433D03*
X010640Y021177D03*
X010640Y020921D03*
X010640Y020665D03*
X010640Y020409D03*
X010640Y020153D03*
X010640Y019898D03*
X010640Y019642D03*
X010640Y019386D03*
D25*
X010304Y015459D03*
X013808Y015459D03*
D26*
X013808Y017782D03*
X010304Y017782D03*
D27*
X011426Y017821D03*
X011741Y017821D03*
X012056Y017821D03*
X012371Y017821D03*
X012686Y017821D03*
D28*
X012745Y016640D02*
X012747Y016666D01*
X012753Y016692D01*
X012763Y016717D01*
X012776Y016740D01*
X012792Y016760D01*
X012812Y016778D01*
X012834Y016793D01*
X012857Y016805D01*
X012883Y016813D01*
X012909Y016817D01*
X012935Y016817D01*
X012961Y016813D01*
X012987Y016805D01*
X013011Y016793D01*
X013032Y016778D01*
X013052Y016760D01*
X013068Y016740D01*
X013081Y016717D01*
X013091Y016692D01*
X013097Y016666D01*
X013099Y016640D01*
X013097Y016614D01*
X013091Y016588D01*
X013081Y016563D01*
X013068Y016540D01*
X013052Y016520D01*
X013032Y016502D01*
X013010Y016487D01*
X012987Y016475D01*
X012961Y016467D01*
X012935Y016463D01*
X012909Y016463D01*
X012883Y016467D01*
X012857Y016475D01*
X012833Y016487D01*
X012812Y016502D01*
X012792Y016520D01*
X012776Y016540D01*
X012763Y016563D01*
X012753Y016588D01*
X012747Y016614D01*
X012745Y016640D01*
X011013Y016640D02*
X011015Y016666D01*
X011021Y016692D01*
X011031Y016717D01*
X011044Y016740D01*
X011060Y016760D01*
X011080Y016778D01*
X011102Y016793D01*
X011125Y016805D01*
X011151Y016813D01*
X011177Y016817D01*
X011203Y016817D01*
X011229Y016813D01*
X011255Y016805D01*
X011279Y016793D01*
X011300Y016778D01*
X011320Y016760D01*
X011336Y016740D01*
X011349Y016717D01*
X011359Y016692D01*
X011365Y016666D01*
X011367Y016640D01*
X011365Y016614D01*
X011359Y016588D01*
X011349Y016563D01*
X011336Y016540D01*
X011320Y016520D01*
X011300Y016502D01*
X011278Y016487D01*
X011255Y016475D01*
X011229Y016467D01*
X011203Y016463D01*
X011177Y016463D01*
X011151Y016467D01*
X011125Y016475D01*
X011101Y016487D01*
X011080Y016502D01*
X011060Y016520D01*
X011044Y016540D01*
X011031Y016563D01*
X011021Y016588D01*
X011015Y016614D01*
X011013Y016640D01*
D29*
X008597Y020439D03*
X007809Y020439D03*
D30*
X020155Y042360D03*
X020155Y043860D03*
X022355Y043860D03*
X022355Y042360D03*
D31*
X031333Y019630D03*
X031333Y018527D03*
D32*
X033306Y018167D03*
X033306Y019584D03*
D33*
X033319Y029149D03*
X033319Y029849D03*
X034146Y029849D03*
X034146Y029149D03*
D34*
X031532Y032846D03*
X031532Y033594D03*
X031531Y034143D03*
X031531Y034891D03*
X031534Y035384D03*
X031534Y036132D03*
X032400Y035758D03*
X032397Y034517D03*
X032398Y033220D03*
D35*
X009064Y021899D03*
X007962Y021899D03*
X007952Y019049D03*
X009254Y019049D03*
X009164Y017439D03*
X008062Y017439D03*
D36*
X031911Y021631D03*
X033651Y021631D03*
D37*
X033971Y025386D03*
X030153Y025386D03*
M02*
