G75*
%MOIN*%
%OFA0B0*%
%FSLAX24Y24*%
%IPPOS*%
%LPD*%
%AMOC8*
5,1,8,0,0,1.08239X$1,22.5*
%
%ADD10C,0.0000*%
%ADD11R,0.0580X0.0110*%
%ADD12R,0.0110X0.0580*%
%ADD13R,0.0591X0.0512*%
%ADD14R,0.0512X0.0591*%
%ADD15R,0.4098X0.4252*%
%ADD16R,0.0850X0.0420*%
%ADD17R,0.1299X0.0512*%
%ADD18R,0.0512X0.0630*%
%ADD19R,0.0591X0.0157*%
%ADD20R,0.0472X0.0472*%
%ADD21R,0.0630X0.0512*%
%ADD22R,0.0551X0.0551*%
%ADD23R,0.0709X0.0394*%
%ADD24R,0.0394X0.0551*%
%ADD25R,0.0630X0.0709*%
%ADD26R,0.2126X0.1142*%
%ADD27R,0.0300X0.1280*%
%ADD28R,0.1496X0.1102*%
%ADD29R,0.0709X0.0236*%
%ADD30R,0.0984X0.0866*%
%ADD31R,0.0787X0.0240*%
%ADD32R,0.1417X0.1055*%
%ADD33R,0.0236X0.0866*%
%ADD34R,0.0500X0.0579*%
%ADD35R,0.0866X0.0236*%
%ADD36R,0.0579X0.0500*%
%ADD37R,0.0354X0.0315*%
%ADD38R,0.0630X0.0354*%
%ADD39R,0.0500X0.2000*%
%ADD40R,0.0315X0.0354*%
%ADD41R,0.0512X0.1299*%
%ADD42R,0.0591X0.1142*%
%ADD43R,0.0120X0.0390*%
%ADD44R,0.0551X0.0472*%
%ADD45R,0.0472X0.1260*%
D10*
X007630Y006037D02*
X007630Y059155D01*
X007632Y059215D01*
X007637Y059276D01*
X007646Y059335D01*
X007659Y059394D01*
X007675Y059453D01*
X007695Y059510D01*
X007718Y059565D01*
X007745Y059620D01*
X007774Y059672D01*
X007807Y059723D01*
X007843Y059772D01*
X007881Y059818D01*
X007923Y059862D01*
X007967Y059904D01*
X008013Y059942D01*
X008062Y059978D01*
X008113Y060011D01*
X008165Y060040D01*
X008220Y060067D01*
X008275Y060090D01*
X008332Y060110D01*
X008391Y060126D01*
X008450Y060139D01*
X008509Y060148D01*
X008570Y060153D01*
X008630Y060155D01*
X038126Y060155D01*
X038186Y060153D01*
X038247Y060148D01*
X038306Y060139D01*
X038365Y060126D01*
X038424Y060110D01*
X038481Y060090D01*
X038536Y060067D01*
X038591Y060040D01*
X038643Y060011D01*
X038694Y059978D01*
X038743Y059942D01*
X038789Y059904D01*
X038833Y059862D01*
X038875Y059818D01*
X038913Y059772D01*
X038949Y059723D01*
X038982Y059672D01*
X039011Y059620D01*
X039038Y059565D01*
X039061Y059510D01*
X039081Y059453D01*
X039097Y059394D01*
X039110Y059335D01*
X039119Y059276D01*
X039124Y059215D01*
X039126Y059155D01*
X039126Y006037D01*
X039124Y005977D01*
X039119Y005916D01*
X039110Y005857D01*
X039097Y005798D01*
X039081Y005739D01*
X039061Y005682D01*
X039038Y005627D01*
X039011Y005572D01*
X038982Y005520D01*
X038949Y005469D01*
X038913Y005420D01*
X038875Y005374D01*
X038833Y005330D01*
X038789Y005288D01*
X038743Y005250D01*
X038694Y005214D01*
X038643Y005181D01*
X038591Y005152D01*
X038536Y005125D01*
X038481Y005102D01*
X038424Y005082D01*
X038365Y005066D01*
X038306Y005053D01*
X038247Y005044D01*
X038186Y005039D01*
X038126Y005037D01*
X008630Y005037D01*
X008570Y005039D01*
X008509Y005044D01*
X008450Y005053D01*
X008391Y005066D01*
X008332Y005082D01*
X008275Y005102D01*
X008220Y005125D01*
X008165Y005152D01*
X008113Y005181D01*
X008062Y005214D01*
X008013Y005250D01*
X007967Y005288D01*
X007923Y005330D01*
X007881Y005374D01*
X007843Y005420D01*
X007807Y005469D01*
X007774Y005520D01*
X007745Y005572D01*
X007718Y005627D01*
X007695Y005682D01*
X007675Y005739D01*
X007659Y005798D01*
X007646Y005857D01*
X007637Y005916D01*
X007632Y005977D01*
X007630Y006037D01*
X018261Y007793D02*
X018263Y007829D01*
X018269Y007864D01*
X018278Y007898D01*
X018292Y007932D01*
X018308Y007963D01*
X018328Y007993D01*
X018351Y008020D01*
X018377Y008045D01*
X018406Y008066D01*
X018436Y008085D01*
X018469Y008100D01*
X018503Y008111D01*
X018538Y008119D01*
X018573Y008123D01*
X018609Y008123D01*
X018644Y008119D01*
X018679Y008111D01*
X018713Y008100D01*
X018746Y008085D01*
X018776Y008066D01*
X018805Y008045D01*
X018831Y008020D01*
X018854Y007993D01*
X018874Y007963D01*
X018890Y007932D01*
X018904Y007898D01*
X018913Y007864D01*
X018919Y007829D01*
X018921Y007793D01*
X018919Y007757D01*
X018913Y007722D01*
X018904Y007688D01*
X018890Y007654D01*
X018874Y007623D01*
X018854Y007593D01*
X018831Y007566D01*
X018805Y007541D01*
X018776Y007520D01*
X018746Y007501D01*
X018713Y007486D01*
X018679Y007475D01*
X018644Y007467D01*
X018609Y007463D01*
X018573Y007463D01*
X018538Y007467D01*
X018503Y007475D01*
X018469Y007486D01*
X018436Y007501D01*
X018406Y007520D01*
X018377Y007541D01*
X018351Y007566D01*
X018328Y007593D01*
X018308Y007623D01*
X018292Y007654D01*
X018278Y007688D01*
X018269Y007722D01*
X018263Y007757D01*
X018261Y007793D01*
X026261Y007793D02*
X026263Y007829D01*
X026269Y007864D01*
X026278Y007898D01*
X026292Y007932D01*
X026308Y007963D01*
X026328Y007993D01*
X026351Y008020D01*
X026377Y008045D01*
X026406Y008066D01*
X026436Y008085D01*
X026469Y008100D01*
X026503Y008111D01*
X026538Y008119D01*
X026573Y008123D01*
X026609Y008123D01*
X026644Y008119D01*
X026679Y008111D01*
X026713Y008100D01*
X026746Y008085D01*
X026776Y008066D01*
X026805Y008045D01*
X026831Y008020D01*
X026854Y007993D01*
X026874Y007963D01*
X026890Y007932D01*
X026904Y007898D01*
X026913Y007864D01*
X026919Y007829D01*
X026921Y007793D01*
X026919Y007757D01*
X026913Y007722D01*
X026904Y007688D01*
X026890Y007654D01*
X026874Y007623D01*
X026854Y007593D01*
X026831Y007566D01*
X026805Y007541D01*
X026776Y007520D01*
X026746Y007501D01*
X026713Y007486D01*
X026679Y007475D01*
X026644Y007467D01*
X026609Y007463D01*
X026573Y007463D01*
X026538Y007467D01*
X026503Y007475D01*
X026469Y007486D01*
X026436Y007501D01*
X026406Y007520D01*
X026377Y007541D01*
X026351Y007566D01*
X026328Y007593D01*
X026308Y007623D01*
X026292Y007654D01*
X026278Y007688D01*
X026269Y007722D01*
X026263Y007757D01*
X026261Y007793D01*
X025937Y058580D02*
X025939Y058628D01*
X025945Y058676D01*
X025955Y058723D01*
X025968Y058769D01*
X025986Y058814D01*
X026006Y058858D01*
X026031Y058900D01*
X026059Y058939D01*
X026089Y058976D01*
X026123Y059010D01*
X026160Y059042D01*
X026198Y059071D01*
X026239Y059096D01*
X026282Y059118D01*
X026327Y059136D01*
X026373Y059150D01*
X026420Y059161D01*
X026468Y059168D01*
X026516Y059171D01*
X026564Y059170D01*
X026612Y059165D01*
X026660Y059156D01*
X026706Y059144D01*
X026751Y059127D01*
X026795Y059107D01*
X026837Y059084D01*
X026877Y059057D01*
X026915Y059027D01*
X026950Y058994D01*
X026982Y058958D01*
X027012Y058920D01*
X027038Y058879D01*
X027060Y058836D01*
X027080Y058792D01*
X027095Y058747D01*
X027107Y058700D01*
X027115Y058652D01*
X027119Y058604D01*
X027119Y058556D01*
X027115Y058508D01*
X027107Y058460D01*
X027095Y058413D01*
X027080Y058368D01*
X027060Y058324D01*
X027038Y058281D01*
X027012Y058240D01*
X026982Y058202D01*
X026950Y058166D01*
X026915Y058133D01*
X026877Y058103D01*
X026837Y058076D01*
X026795Y058053D01*
X026751Y058033D01*
X026706Y058016D01*
X026660Y058004D01*
X026612Y057995D01*
X026564Y057990D01*
X026516Y057989D01*
X026468Y057992D01*
X026420Y057999D01*
X026373Y058010D01*
X026327Y058024D01*
X026282Y058042D01*
X026239Y058064D01*
X026198Y058089D01*
X026160Y058118D01*
X026123Y058150D01*
X026089Y058184D01*
X026059Y058221D01*
X026031Y058260D01*
X026006Y058302D01*
X025986Y058346D01*
X025968Y058391D01*
X025955Y058437D01*
X025945Y058484D01*
X025939Y058532D01*
X025937Y058580D01*
X029244Y058580D02*
X029246Y058628D01*
X029252Y058676D01*
X029262Y058723D01*
X029275Y058769D01*
X029293Y058814D01*
X029313Y058858D01*
X029338Y058900D01*
X029366Y058939D01*
X029396Y058976D01*
X029430Y059010D01*
X029467Y059042D01*
X029505Y059071D01*
X029546Y059096D01*
X029589Y059118D01*
X029634Y059136D01*
X029680Y059150D01*
X029727Y059161D01*
X029775Y059168D01*
X029823Y059171D01*
X029871Y059170D01*
X029919Y059165D01*
X029967Y059156D01*
X030013Y059144D01*
X030058Y059127D01*
X030102Y059107D01*
X030144Y059084D01*
X030184Y059057D01*
X030222Y059027D01*
X030257Y058994D01*
X030289Y058958D01*
X030319Y058920D01*
X030345Y058879D01*
X030367Y058836D01*
X030387Y058792D01*
X030402Y058747D01*
X030414Y058700D01*
X030422Y058652D01*
X030426Y058604D01*
X030426Y058556D01*
X030422Y058508D01*
X030414Y058460D01*
X030402Y058413D01*
X030387Y058368D01*
X030367Y058324D01*
X030345Y058281D01*
X030319Y058240D01*
X030289Y058202D01*
X030257Y058166D01*
X030222Y058133D01*
X030184Y058103D01*
X030144Y058076D01*
X030102Y058053D01*
X030058Y058033D01*
X030013Y058016D01*
X029967Y058004D01*
X029919Y057995D01*
X029871Y057990D01*
X029823Y057989D01*
X029775Y057992D01*
X029727Y057999D01*
X029680Y058010D01*
X029634Y058024D01*
X029589Y058042D01*
X029546Y058064D01*
X029505Y058089D01*
X029467Y058118D01*
X029430Y058150D01*
X029396Y058184D01*
X029366Y058221D01*
X029338Y058260D01*
X029313Y058302D01*
X029293Y058346D01*
X029275Y058391D01*
X029262Y058437D01*
X029252Y058484D01*
X029246Y058532D01*
X029244Y058580D01*
X034205Y058580D02*
X034207Y058628D01*
X034213Y058676D01*
X034223Y058723D01*
X034236Y058769D01*
X034254Y058814D01*
X034274Y058858D01*
X034299Y058900D01*
X034327Y058939D01*
X034357Y058976D01*
X034391Y059010D01*
X034428Y059042D01*
X034466Y059071D01*
X034507Y059096D01*
X034550Y059118D01*
X034595Y059136D01*
X034641Y059150D01*
X034688Y059161D01*
X034736Y059168D01*
X034784Y059171D01*
X034832Y059170D01*
X034880Y059165D01*
X034928Y059156D01*
X034974Y059144D01*
X035019Y059127D01*
X035063Y059107D01*
X035105Y059084D01*
X035145Y059057D01*
X035183Y059027D01*
X035218Y058994D01*
X035250Y058958D01*
X035280Y058920D01*
X035306Y058879D01*
X035328Y058836D01*
X035348Y058792D01*
X035363Y058747D01*
X035375Y058700D01*
X035383Y058652D01*
X035387Y058604D01*
X035387Y058556D01*
X035383Y058508D01*
X035375Y058460D01*
X035363Y058413D01*
X035348Y058368D01*
X035328Y058324D01*
X035306Y058281D01*
X035280Y058240D01*
X035250Y058202D01*
X035218Y058166D01*
X035183Y058133D01*
X035145Y058103D01*
X035105Y058076D01*
X035063Y058053D01*
X035019Y058033D01*
X034974Y058016D01*
X034928Y058004D01*
X034880Y057995D01*
X034832Y057990D01*
X034784Y057989D01*
X034736Y057992D01*
X034688Y057999D01*
X034641Y058010D01*
X034595Y058024D01*
X034550Y058042D01*
X034507Y058064D01*
X034466Y058089D01*
X034428Y058118D01*
X034391Y058150D01*
X034357Y058184D01*
X034327Y058221D01*
X034299Y058260D01*
X034274Y058302D01*
X034254Y058346D01*
X034236Y058391D01*
X034223Y058437D01*
X034213Y058484D01*
X034207Y058532D01*
X034205Y058580D01*
X020976Y058580D02*
X020978Y058628D01*
X020984Y058676D01*
X020994Y058723D01*
X021007Y058769D01*
X021025Y058814D01*
X021045Y058858D01*
X021070Y058900D01*
X021098Y058939D01*
X021128Y058976D01*
X021162Y059010D01*
X021199Y059042D01*
X021237Y059071D01*
X021278Y059096D01*
X021321Y059118D01*
X021366Y059136D01*
X021412Y059150D01*
X021459Y059161D01*
X021507Y059168D01*
X021555Y059171D01*
X021603Y059170D01*
X021651Y059165D01*
X021699Y059156D01*
X021745Y059144D01*
X021790Y059127D01*
X021834Y059107D01*
X021876Y059084D01*
X021916Y059057D01*
X021954Y059027D01*
X021989Y058994D01*
X022021Y058958D01*
X022051Y058920D01*
X022077Y058879D01*
X022099Y058836D01*
X022119Y058792D01*
X022134Y058747D01*
X022146Y058700D01*
X022154Y058652D01*
X022158Y058604D01*
X022158Y058556D01*
X022154Y058508D01*
X022146Y058460D01*
X022134Y058413D01*
X022119Y058368D01*
X022099Y058324D01*
X022077Y058281D01*
X022051Y058240D01*
X022021Y058202D01*
X021989Y058166D01*
X021954Y058133D01*
X021916Y058103D01*
X021876Y058076D01*
X021834Y058053D01*
X021790Y058033D01*
X021745Y058016D01*
X021699Y058004D01*
X021651Y057995D01*
X021603Y057990D01*
X021555Y057989D01*
X021507Y057992D01*
X021459Y057999D01*
X021412Y058010D01*
X021366Y058024D01*
X021321Y058042D01*
X021278Y058064D01*
X021237Y058089D01*
X021199Y058118D01*
X021162Y058150D01*
X021128Y058184D01*
X021098Y058221D01*
X021070Y058260D01*
X021045Y058302D01*
X021025Y058346D01*
X021007Y058391D01*
X020994Y058437D01*
X020984Y058484D01*
X020978Y058532D01*
X020976Y058580D01*
D11*
X021434Y023115D03*
X021434Y022925D03*
X021434Y022725D03*
X021434Y022525D03*
X021434Y022325D03*
X021434Y022135D03*
X021434Y021935D03*
X021434Y021735D03*
X021434Y021545D03*
X021434Y021345D03*
X021434Y021145D03*
X021434Y020955D03*
X021434Y020755D03*
X021434Y020555D03*
X021434Y020365D03*
X021434Y020165D03*
X021434Y019965D03*
X021434Y019775D03*
X021434Y019575D03*
X021434Y019375D03*
X021434Y019185D03*
X021434Y018985D03*
X021434Y018785D03*
X021434Y018585D03*
X021434Y018395D03*
X027434Y018395D03*
X027434Y018585D03*
X027434Y018785D03*
X027434Y018985D03*
X027434Y019185D03*
X027434Y019375D03*
X027434Y019575D03*
X027434Y019775D03*
X027434Y019965D03*
X027434Y020165D03*
X027434Y020365D03*
X027434Y020555D03*
X027434Y020755D03*
X027434Y020955D03*
X027434Y021145D03*
X027434Y021345D03*
X027434Y021545D03*
X027434Y021735D03*
X027434Y021935D03*
X027434Y022135D03*
X027434Y022325D03*
X027434Y022525D03*
X027434Y022725D03*
X027434Y022925D03*
X027434Y023115D03*
D12*
X026794Y023755D03*
X026604Y023755D03*
X026404Y023755D03*
X026204Y023755D03*
X026004Y023755D03*
X025814Y023755D03*
X025614Y023755D03*
X025414Y023755D03*
X025224Y023755D03*
X025024Y023755D03*
X024824Y023755D03*
X024634Y023755D03*
X024434Y023755D03*
X024234Y023755D03*
X024044Y023755D03*
X023844Y023755D03*
X023644Y023755D03*
X023454Y023755D03*
X023254Y023755D03*
X023054Y023755D03*
X022864Y023755D03*
X022664Y023755D03*
X022464Y023755D03*
X022264Y023755D03*
X022074Y023755D03*
X022074Y017755D03*
X022264Y017755D03*
X022464Y017755D03*
X022664Y017755D03*
X022864Y017755D03*
X023054Y017755D03*
X023254Y017755D03*
X023454Y017755D03*
X023644Y017755D03*
X023844Y017755D03*
X024044Y017755D03*
X024234Y017755D03*
X024434Y017755D03*
X024634Y017755D03*
X024824Y017755D03*
X025024Y017755D03*
X025224Y017755D03*
X025414Y017755D03*
X025614Y017755D03*
X025814Y017755D03*
X026004Y017755D03*
X026204Y017755D03*
X026404Y017755D03*
X026604Y017755D03*
X026794Y017755D03*
D13*
X028838Y019890D03*
X028838Y020638D03*
X032744Y015558D03*
X032744Y014888D03*
X033730Y014902D03*
X033730Y015571D03*
X034750Y015571D03*
X034750Y014902D03*
X033313Y026168D03*
X033313Y026916D03*
X025636Y027970D03*
X025636Y028639D03*
X022731Y028747D03*
X022731Y029416D03*
X022711Y027948D03*
X022711Y027279D03*
X020058Y021343D03*
X020058Y020595D03*
X025055Y014199D03*
X025055Y013451D03*
X013371Y027122D03*
X013371Y027870D03*
D14*
X025421Y015778D03*
X026169Y015778D03*
X025864Y014220D03*
X026612Y014220D03*
X031166Y008916D03*
X031914Y008916D03*
X026616Y025815D03*
X025868Y025815D03*
X021524Y048380D03*
X020776Y048380D03*
X013638Y055453D03*
X012890Y055453D03*
X012884Y056441D03*
X013632Y056441D03*
D15*
X023511Y040713D03*
D16*
X020231Y040713D03*
X020231Y040043D03*
X020231Y039373D03*
X020231Y041383D03*
X020231Y042053D03*
D17*
X021585Y044720D03*
X024046Y044720D03*
D18*
X023787Y048190D03*
X023039Y048190D03*
X024553Y048190D03*
X025301Y048190D03*
X021540Y049507D03*
X020792Y049507D03*
X034028Y044407D03*
X034776Y044407D03*
X032395Y029269D03*
X031647Y029269D03*
X031620Y028357D03*
X032368Y028357D03*
X028060Y025818D03*
X027312Y025818D03*
X015531Y025530D03*
X014783Y025530D03*
X014791Y024269D03*
X015539Y024269D03*
D19*
X030060Y013216D03*
X030060Y012960D03*
X030060Y012704D03*
X030060Y012448D03*
X030060Y012192D03*
X030060Y011936D03*
X030060Y011680D03*
X030060Y011425D03*
X030060Y011169D03*
X030060Y010913D03*
X030060Y010657D03*
X030060Y010401D03*
X030060Y010145D03*
X030060Y009889D03*
X032915Y009889D03*
X032915Y010145D03*
X032915Y010401D03*
X032915Y010657D03*
X032915Y010913D03*
X032915Y011169D03*
X032915Y011425D03*
X032915Y011680D03*
X032915Y011936D03*
X032915Y012192D03*
X032915Y012448D03*
X032915Y012704D03*
X032915Y012960D03*
X032915Y013216D03*
D20*
X033657Y007385D03*
X033657Y006558D03*
X030859Y006558D03*
X030859Y007385D03*
X026622Y013461D03*
X025795Y013461D03*
X033241Y029284D03*
X034068Y029284D03*
X025145Y052348D03*
X025145Y053174D03*
X015388Y055443D03*
X014561Y055443D03*
X014561Y056445D03*
X015388Y056445D03*
X014003Y024269D03*
X013177Y024269D03*
D21*
X012165Y027143D03*
X012165Y027891D03*
X016745Y023862D03*
X016745Y023114D03*
X016745Y022347D03*
X016745Y021599D03*
X020524Y027263D03*
X020524Y028011D03*
X021431Y028015D03*
X021431Y027267D03*
X028180Y014764D03*
X028180Y014016D03*
X029054Y014012D03*
X029054Y014760D03*
X031732Y007346D03*
X031732Y006598D03*
X032713Y006598D03*
X032713Y007346D03*
X034330Y013243D03*
X034330Y013991D03*
X034462Y026177D03*
X034462Y026925D03*
X030276Y029652D03*
X030276Y030400D03*
X030276Y031107D03*
X030276Y031855D03*
X020134Y013818D03*
X015190Y010331D03*
X015190Y009583D03*
X013930Y009583D03*
X013930Y010331D03*
X012730Y010331D03*
X012730Y009583D03*
X025155Y050733D03*
X025155Y051481D03*
D22*
X030379Y014537D03*
X031875Y014537D03*
D23*
X036480Y053930D03*
X036480Y055032D03*
D24*
X014707Y008094D03*
X013959Y008094D03*
X013406Y008097D03*
X012658Y008097D03*
X012108Y008096D03*
X011360Y008096D03*
X011734Y007230D03*
X013032Y007231D03*
X014333Y007228D03*
D25*
X030506Y015520D03*
X031809Y015520D03*
D26*
X019081Y033775D03*
X019081Y037594D03*
D27*
X023488Y037120D03*
X023488Y035220D03*
D28*
X018044Y040269D03*
X018044Y043182D03*
D29*
X010608Y026835D03*
X010608Y026441D03*
X010608Y026048D03*
X010608Y025654D03*
X010608Y025260D03*
X010608Y024867D03*
X010608Y024473D03*
X010608Y024079D03*
X010608Y023685D03*
X010608Y023292D03*
X010608Y022898D03*
X010608Y022504D03*
X010608Y022111D03*
X010608Y021717D03*
X010608Y021323D03*
X010608Y020930D03*
X010608Y020536D03*
X010608Y020142D03*
X010608Y019748D03*
X010608Y019355D03*
X036359Y026833D03*
X036359Y027226D03*
X036359Y027620D03*
X036359Y028014D03*
X036359Y028407D03*
X036359Y028801D03*
X036359Y029195D03*
X036359Y029589D03*
X036359Y029982D03*
X036359Y030376D03*
X036359Y030770D03*
X036359Y031163D03*
X036359Y031557D03*
X036359Y031951D03*
X036359Y032344D03*
X036359Y032738D03*
X036359Y033132D03*
X036359Y033526D03*
X036359Y033919D03*
X036359Y034313D03*
D30*
X037359Y035376D03*
X037359Y025809D03*
X009608Y027859D03*
X009608Y018292D03*
D31*
X011095Y015670D03*
X011095Y015277D03*
X011095Y014883D03*
X011095Y014489D03*
X011095Y014096D03*
X011095Y013702D03*
X011095Y013308D03*
X011095Y012915D03*
X011095Y012521D03*
X011095Y012127D03*
X011095Y011733D03*
X011095Y011340D03*
X011095Y010946D03*
X011095Y010552D03*
X011095Y010159D03*
X011095Y030631D03*
X011095Y031025D03*
X011095Y031419D03*
X011095Y031812D03*
X011095Y032206D03*
X011095Y032600D03*
X011095Y032993D03*
X011095Y033387D03*
X011095Y033781D03*
X011095Y034174D03*
X011095Y034568D03*
X011095Y034962D03*
X011095Y035356D03*
X011095Y035749D03*
X011095Y036143D03*
X011095Y040536D03*
X011095Y040930D03*
X011095Y041324D03*
X011095Y041717D03*
X011095Y042111D03*
X011095Y042505D03*
X011095Y042898D03*
X011095Y043292D03*
X011095Y043686D03*
X011095Y044079D03*
X011095Y044473D03*
X011095Y044867D03*
X011095Y045261D03*
X011095Y045654D03*
X011095Y046048D03*
X011095Y050434D03*
X011095Y050827D03*
X011095Y051221D03*
X011095Y051615D03*
X011095Y052008D03*
X011095Y052402D03*
X011095Y052796D03*
X011095Y053190D03*
X011095Y053583D03*
X011095Y053977D03*
X011095Y054371D03*
X011095Y054764D03*
X011095Y055158D03*
X011095Y055552D03*
X011095Y055945D03*
X035662Y043615D03*
X035662Y043222D03*
X035662Y042828D03*
X035662Y042434D03*
X035662Y042041D03*
X035662Y041647D03*
X035662Y041253D03*
X035662Y040859D03*
X035662Y040466D03*
X035662Y040072D03*
X035662Y039678D03*
X035662Y039285D03*
X035662Y038891D03*
X035662Y038497D03*
X035662Y038104D03*
X035662Y022749D03*
X035662Y022356D03*
X035662Y021962D03*
X035662Y021568D03*
X035662Y021174D03*
X035662Y020781D03*
X035662Y020387D03*
X035662Y019993D03*
X035662Y019600D03*
X035662Y019206D03*
X035662Y018812D03*
X035662Y018419D03*
X035662Y018025D03*
X035662Y017631D03*
X035662Y017237D03*
D32*
X036764Y016060D03*
X036764Y023934D03*
X036764Y036926D03*
X036764Y044800D03*
X009992Y047225D03*
X009992Y049249D03*
X009992Y057123D03*
X009992Y039351D03*
X009992Y037320D03*
X009992Y029446D03*
X009992Y016848D03*
X009992Y008974D03*
D33*
X022283Y049562D03*
X022783Y049562D03*
X023283Y049562D03*
X023783Y049562D03*
X023783Y051610D03*
X023283Y051610D03*
X022783Y051610D03*
X022283Y051610D03*
D34*
X022461Y053125D03*
X024154Y053125D03*
X020048Y044703D03*
X018355Y044703D03*
D35*
X031683Y032037D03*
X031683Y031537D03*
X031683Y031037D03*
X031683Y030537D03*
X033731Y030537D03*
X033731Y031037D03*
X033731Y031537D03*
X033731Y032037D03*
X015287Y023177D03*
X015287Y022677D03*
X015287Y022177D03*
X015287Y021677D03*
X013240Y021677D03*
X013240Y022177D03*
X013240Y022677D03*
X013240Y023177D03*
D36*
X011760Y023501D03*
X011760Y022772D03*
X011760Y021079D03*
X011760Y025194D03*
X027750Y049106D03*
X027750Y050799D03*
X035211Y032620D03*
X035211Y030927D03*
X035211Y030138D03*
X035211Y028445D03*
D37*
X034149Y028076D03*
X033322Y028450D03*
X033322Y027702D03*
X013786Y026082D03*
X013786Y025334D03*
X012959Y025708D03*
D38*
X021709Y014369D03*
X021709Y013267D03*
D39*
X022091Y009143D03*
X023091Y009143D03*
X024091Y009143D03*
X025091Y009143D03*
X026091Y009143D03*
X027091Y009143D03*
X027091Y006443D03*
X026091Y006443D03*
X025091Y006443D03*
X024091Y006443D03*
X023091Y006443D03*
X022091Y006443D03*
X021091Y006443D03*
X020091Y006443D03*
X019091Y006443D03*
X018091Y006443D03*
X018091Y009143D03*
X019091Y009143D03*
X020091Y009143D03*
X021091Y009143D03*
D40*
X034028Y045588D03*
X034402Y046415D03*
X034776Y045588D03*
D41*
X031523Y046031D03*
X031523Y043570D03*
X028039Y043570D03*
X028039Y046031D03*
D42*
X019899Y053988D03*
X018718Y053988D03*
X018716Y055308D03*
X019897Y055308D03*
D43*
X022456Y014901D03*
X022706Y014901D03*
X022956Y014901D03*
X023206Y014901D03*
X023456Y014901D03*
X023706Y014901D03*
X023956Y014901D03*
X023956Y012761D03*
X023706Y012761D03*
X023456Y012761D03*
X023206Y012761D03*
X022956Y012761D03*
X022706Y012761D03*
X022456Y012761D03*
D44*
X034330Y012550D03*
X034330Y011684D03*
X034330Y011050D03*
X034330Y010184D03*
X034330Y009550D03*
X034330Y008684D03*
D45*
X028098Y029618D03*
X026523Y029618D03*
X026523Y032295D03*
X028098Y032295D03*
M02*
