G75*
%MOIN*%
%OFA0B0*%
%FSLAX24Y24*%
%IPPOS*%
%LPD*%
%AMOC8*
5,1,8,0,0,1.08239X$1,22.5*
%
%ADD10C,0.0160*%
%ADD11C,0.0030*%
%ADD12C,0.0060*%
%ADD13C,0.0080*%
%ADD14R,0.0380X0.0660*%
%ADD15C,0.0040*%
%ADD16C,0.0100*%
%ADD17R,0.0980X0.0560*%
%ADD18R,0.0118X0.0059*%
%ADD19R,0.0118X0.0118*%
%ADD20C,0.0348*%
%ADD21R,0.0059X0.0118*%
%ADD22C,0.0000*%
%ADD23C,0.0050*%
%ADD24C,0.0020*%
%ADD25C,0.0150*%
%ADD26R,0.0730X0.0008*%
%ADD27R,0.0722X0.0008*%
%ADD28R,0.0788X0.0008*%
%ADD29R,0.0738X0.0008*%
%ADD30R,0.0158X0.0008*%
%ADD31R,0.0158X0.0008*%
%ADD32R,0.0813X0.0008*%
%ADD33R,0.0780X0.0008*%
%ADD34R,0.0821X0.0008*%
%ADD35R,0.0838X0.0008*%
%ADD36R,0.0805X0.0008*%
%ADD37R,0.0158X0.0008*%
%ADD38R,0.0158X0.0008*%
%ADD39R,0.0854X0.0008*%
%ADD40R,0.0829X0.0008*%
%ADD41R,0.0158X0.0008*%
%ADD42R,0.0158X0.0008*%
%ADD43R,0.0854X0.0008*%
%ADD44R,0.0863X0.0008*%
%ADD45R,0.0846X0.0008*%
%ADD46R,0.0871X0.0008*%
%ADD47R,0.0879X0.0008*%
%ADD48R,0.0854X0.0008*%
%ADD49R,0.0887X0.0008*%
%ADD50R,0.0887X0.0008*%
%ADD51R,0.0871X0.0008*%
%ADD52R,0.0896X0.0008*%
%ADD53R,0.0904X0.0008*%
%ADD54R,0.0879X0.0008*%
%ADD55R,0.0904X0.0008*%
%ADD56R,0.0912X0.0008*%
%ADD57R,0.0896X0.0008*%
%ADD58R,0.0921X0.0008*%
%ADD59R,0.0921X0.0008*%
%ADD60R,0.0904X0.0008*%
%ADD61R,0.0921X0.0008*%
%ADD62R,0.0929X0.0008*%
%ADD63R,0.0929X0.0008*%
%ADD64R,0.0937X0.0008*%
%ADD65R,0.0937X0.0008*%
%ADD66R,0.0921X0.0008*%
%ADD67R,0.0946X0.0008*%
%ADD68R,0.0946X0.0008*%
%ADD69R,0.0929X0.0008*%
%ADD70R,0.0954X0.0008*%
%ADD71R,0.0954X0.0008*%
%ADD72R,0.0954X0.0008*%
%ADD73R,0.0962X0.0008*%
%ADD74R,0.0962X0.0008*%
%ADD75R,0.0970X0.0008*%
%ADD76R,0.0970X0.0008*%
%ADD77R,0.0979X0.0008*%
%ADD78R,0.0979X0.0008*%
%ADD79R,0.0979X0.0008*%
%ADD80R,0.0241X0.0008*%
%ADD81R,0.0232X0.0008*%
%ADD82R,0.0224X0.0008*%
%ADD83R,0.0241X0.0008*%
%ADD84R,0.0216X0.0008*%
%ADD85R,0.0207X0.0008*%
%ADD86R,0.0216X0.0008*%
%ADD87R,0.0199X0.0008*%
%ADD88R,0.0199X0.0008*%
%ADD89R,0.0158X0.0008*%
%ADD90R,0.0191X0.0008*%
%ADD91R,0.0199X0.0008*%
%ADD92R,0.0158X0.0008*%
%ADD93R,0.0199X0.0008*%
%ADD94R,0.0191X0.0008*%
%ADD95R,0.0191X0.0008*%
%ADD96R,0.0182X0.0008*%
%ADD97R,0.0174X0.0008*%
%ADD98R,0.0182X0.0008*%
%ADD99R,0.0174X0.0008*%
%ADD100R,0.0174X0.0008*%
%ADD101R,0.0182X0.0008*%
%ADD102R,0.0174X0.0008*%
%ADD103R,0.0174X0.0008*%
%ADD104R,0.0166X0.0008*%
%ADD105R,0.0166X0.0008*%
%ADD106R,0.0166X0.0008*%
%ADD107R,0.0166X0.0008*%
%ADD108R,0.0166X0.0008*%
%ADD109R,0.0166X0.0008*%
%ADD110R,0.0182X0.0008*%
%ADD111R,0.0207X0.0008*%
%ADD112R,0.0216X0.0008*%
%ADD113R,0.0207X0.0008*%
%ADD114R,0.0232X0.0008*%
%ADD115R,0.0265X0.0008*%
%ADD116R,0.0257X0.0008*%
%ADD117R,0.0863X0.0008*%
%ADD118R,0.0970X0.0008*%
%ADD119R,0.0962X0.0008*%
%ADD120R,0.0846X0.0008*%
%ADD121R,0.0954X0.0008*%
%ADD122R,0.0846X0.0008*%
%ADD123R,0.0954X0.0008*%
%ADD124R,0.0838X0.0008*%
%ADD125R,0.0946X0.0008*%
%ADD126R,0.0829X0.0008*%
%ADD127R,0.0937X0.0008*%
%ADD128R,0.0813X0.0008*%
%ADD129R,0.0805X0.0008*%
%ADD130R,0.0805X0.0008*%
%ADD131R,0.0829X0.0008*%
%ADD132R,0.0970X0.0008*%
%ADD133R,0.0854X0.0008*%
%ADD134R,0.0249X0.0008*%
%ADD135R,0.0241X0.0008*%
%ADD136R,0.0191X0.0008*%
%ADD137R,0.0166X0.0008*%
%ADD138R,0.0166X0.0008*%
%ADD139R,0.0174X0.0008*%
%ADD140R,0.0174X0.0008*%
%ADD141R,0.0182X0.0008*%
%ADD142R,0.0191X0.0008*%
%ADD143R,0.0191X0.0008*%
%ADD144R,0.0199X0.0008*%
%ADD145R,0.0199X0.0008*%
%ADD146R,0.0216X0.0008*%
%ADD147R,0.0224X0.0008*%
%ADD148R,0.0224X0.0008*%
%ADD149R,0.0216X0.0008*%
%ADD150R,0.0241X0.0008*%
%ADD151R,0.0249X0.0008*%
%ADD152R,0.0995X0.0008*%
%ADD153R,0.0987X0.0008*%
%ADD154R,0.0979X0.0008*%
%ADD155R,0.0970X0.0008*%
%ADD156R,0.0929X0.0008*%
%ADD157R,0.0921X0.0008*%
%ADD158R,0.0946X0.0008*%
%ADD159R,0.0912X0.0008*%
%ADD160R,0.0896X0.0008*%
%ADD161R,0.0904X0.0008*%
%ADD162R,0.0887X0.0008*%
%ADD163R,0.0921X0.0008*%
%ADD164R,0.0904X0.0008*%
%ADD165R,0.0879X0.0008*%
%ADD166R,0.0879X0.0008*%
%ADD167R,0.0863X0.0008*%
%ADD168R,0.0871X0.0008*%
%ADD169R,0.0871X0.0008*%
%ADD170R,0.0829X0.0008*%
%ADD171R,0.0821X0.0008*%
%ADD172R,0.0854X0.0008*%
%ADD173R,0.0838X0.0008*%
%ADD174R,0.0796X0.0008*%
%ADD175R,0.0829X0.0008*%
%ADD176R,0.0771X0.0008*%
%ADD177R,0.0796X0.0008*%
%ADD178R,0.0722X0.0008*%
%ADD179R,0.0697X0.0008*%
%ADD180R,0.0738X0.0008*%
%ADD181R,0.0730X0.0008*%
%ADD182R,0.1675X0.0008*%
%ADD183R,0.1675X0.0008*%
%ADD184R,0.1675X0.0008*%
%ADD185R,0.1675X0.0008*%
%ADD186R,0.0373X0.0008*%
%ADD187R,0.0373X0.0008*%
%ADD188R,0.0373X0.0008*%
%ADD189R,0.0373X0.0008*%
%ADD190R,0.0481X0.0008*%
%ADD191R,0.0481X0.0008*%
%ADD192R,0.0481X0.0008*%
%ADD193R,0.0498X0.0008*%
%ADD194R,0.0498X0.0008*%
%ADD195R,0.0506X0.0008*%
%ADD196R,0.0514X0.0008*%
%ADD197R,0.0514X0.0008*%
%ADD198R,0.0514X0.0008*%
%ADD199R,0.0531X0.0008*%
%ADD200R,0.0531X0.0008*%
%ADD201R,0.0531X0.0008*%
%ADD202R,0.0008X0.0008*%
%ADD203R,0.0008X0.0008*%
%ADD204R,0.0547X0.0008*%
%ADD205R,0.0033X0.0008*%
%ADD206R,0.0025X0.0008*%
%ADD207R,0.0547X0.0008*%
%ADD208R,0.0050X0.0008*%
%ADD209R,0.0050X0.0008*%
%ADD210R,0.0547X0.0008*%
%ADD211R,0.0066X0.0008*%
%ADD212R,0.0075X0.0008*%
%ADD213R,0.0091X0.0008*%
%ADD214R,0.0100X0.0008*%
%ADD215R,0.0116X0.0008*%
%ADD216R,0.0116X0.0008*%
%ADD217R,0.0556X0.0008*%
%ADD218R,0.0133X0.0008*%
%ADD219R,0.0133X0.0008*%
%ADD220R,0.0564X0.0008*%
%ADD221R,0.0564X0.0008*%
%ADD222R,0.0564X0.0008*%
%ADD223R,0.0216X0.0008*%
%ADD224R,0.0224X0.0008*%
%ADD225R,0.0241X0.0008*%
%ADD226R,0.0249X0.0008*%
%ADD227R,0.0581X0.0008*%
%ADD228R,0.0265X0.0008*%
%ADD229R,0.0274X0.0008*%
%ADD230R,0.0581X0.0008*%
%ADD231R,0.0282X0.0008*%
%ADD232R,0.0282X0.0008*%
%ADD233R,0.0581X0.0008*%
%ADD234R,0.0307X0.0008*%
%ADD235R,0.0307X0.0008*%
%ADD236R,0.0332X0.0008*%
%ADD237R,0.0332X0.0008*%
%ADD238R,0.0357X0.0008*%
%ADD239R,0.0348X0.0008*%
%ADD240R,0.0597X0.0008*%
%ADD241R,0.0365X0.0008*%
%ADD242R,0.0680X0.0008*%
%ADD243R,0.0390X0.0008*%
%ADD244R,0.0398X0.0008*%
%ADD245R,0.0763X0.0008*%
%ADD246R,0.0415X0.0008*%
%ADD247R,0.0423X0.0008*%
%ADD248R,0.0829X0.0008*%
%ADD249R,0.0440X0.0008*%
%ADD250R,0.0431X0.0008*%
%ADD251R,0.0456X0.0008*%
%ADD252R,0.0456X0.0008*%
%ADD253R,0.1029X0.0008*%
%ADD254R,0.0506X0.0008*%
%ADD255R,0.1078X0.0008*%
%ADD256R,0.0523X0.0008*%
%ADD257R,0.1128X0.0008*%
%ADD258R,0.0539X0.0008*%
%ADD259R,0.1178X0.0008*%
%ADD260R,0.0572X0.0008*%
%ADD261R,0.1228X0.0008*%
%ADD262R,0.0589X0.0008*%
%ADD263R,0.0589X0.0008*%
%ADD264R,0.1277X0.0008*%
%ADD265R,0.0605X0.0008*%
%ADD266R,0.2530X0.0008*%
%ADD267R,0.2538X0.0008*%
%ADD268R,0.2521X0.0008*%
%ADD269R,0.2513X0.0008*%
%ADD270R,0.2505X0.0008*%
%ADD271R,0.2488X0.0008*%
%ADD272R,0.2488X0.0008*%
%ADD273R,0.2488X0.0008*%
%ADD274R,0.2472X0.0008*%
%ADD275R,0.2472X0.0008*%
%ADD276R,0.2472X0.0008*%
%ADD277R,0.2455X0.0008*%
%ADD278R,0.2455X0.0008*%
%ADD279R,0.2439X0.0008*%
%ADD280R,0.2439X0.0008*%
%ADD281R,0.2439X0.0008*%
%ADD282R,0.2422X0.0008*%
%ADD283R,0.2422X0.0008*%
%ADD284R,0.2414X0.0008*%
%ADD285R,0.2405X0.0008*%
%ADD286R,0.2389X0.0008*%
%ADD287R,0.2389X0.0008*%
%ADD288R,0.2372X0.0008*%
%ADD289R,0.1062X0.0008*%
%ADD290R,0.1053X0.0008*%
%ADD291R,0.0995X0.0008*%
%ADD292R,0.0887X0.0008*%
%ADD293R,0.0871X0.0008*%
%ADD294R,0.0805X0.0008*%
%ADD295R,0.0788X0.0008*%
%ADD296R,0.0780X0.0008*%
%ADD297R,0.0763X0.0008*%
%ADD298R,0.0746X0.0008*%
%ADD299R,0.0722X0.0008*%
%ADD300R,0.0713X0.0008*%
%ADD301R,0.0705X0.0008*%
%ADD302R,0.0688X0.0008*%
%ADD303R,0.0672X0.0008*%
%ADD304R,0.0664X0.0008*%
%ADD305R,0.0664X0.0008*%
%ADD306R,0.0647X0.0008*%
%ADD307R,0.0647X0.0008*%
%ADD308R,0.0639X0.0008*%
%ADD309R,0.0639X0.0008*%
%ADD310R,0.0630X0.0008*%
%ADD311R,0.0622X0.0008*%
%ADD312R,0.0614X0.0008*%
%ADD313R,0.0605X0.0008*%
%ADD314R,0.0464X0.0008*%
%ADD315R,0.0556X0.0008*%
%ADD316R,0.0597X0.0008*%
%ADD317R,0.0589X0.0008*%
%ADD318R,0.0630X0.0008*%
%ADD319R,0.0697X0.0008*%
%ADD320R,0.0572X0.0008*%
%ADD321R,0.0763X0.0008*%
%ADD322R,0.0572X0.0008*%
%ADD323R,0.0556X0.0008*%
%ADD324R,0.0008X0.0008*%
%ADD325R,0.0041X0.0008*%
%ADD326R,0.0017X0.0008*%
%ADD327R,0.0995X0.0008*%
%ADD328R,0.0066X0.0008*%
%ADD329R,0.0539X0.0008*%
%ADD330R,0.1045X0.0008*%
%ADD331R,0.0100X0.0008*%
%ADD332R,0.0083X0.0008*%
%ADD333R,0.0539X0.0008*%
%ADD334R,0.1078X0.0008*%
%ADD335R,0.0124X0.0008*%
%ADD336R,0.0108X0.0008*%
%ADD337R,0.0539X0.0008*%
%ADD338R,0.1111X0.0008*%
%ADD339R,0.0149X0.0008*%
%ADD340R,0.0133X0.0008*%
%ADD341R,0.0523X0.0008*%
%ADD342R,0.1145X0.0008*%
%ADD343R,0.0523X0.0008*%
%ADD344R,0.1186X0.0008*%
%ADD345R,0.1219X0.0008*%
%ADD346R,0.0241X0.0008*%
%ADD347R,0.0224X0.0008*%
%ADD348R,0.1244X0.0008*%
%ADD349R,0.1277X0.0008*%
%ADD350R,0.0290X0.0008*%
%ADD351R,0.0282X0.0008*%
%ADD352R,0.1310X0.0008*%
%ADD353R,0.0323X0.0008*%
%ADD354R,0.0299X0.0008*%
%ADD355R,0.0498X0.0008*%
%ADD356R,0.1344X0.0008*%
%ADD357R,0.0498X0.0008*%
%ADD358R,0.1377X0.0008*%
%ADD359R,0.0854X0.0008*%
%ADD360R,0.1393X0.0008*%
%ADD361R,0.1427X0.0008*%
%ADD362R,0.0838X0.0008*%
%ADD363R,0.1443X0.0008*%
%ADD364R,0.1476X0.0008*%
%ADD365R,0.1501X0.0008*%
%ADD366R,0.0821X0.0008*%
%ADD367R,0.1526X0.0008*%
%ADD368R,0.0821X0.0008*%
%ADD369R,0.1543X0.0008*%
%ADD370R,0.1576X0.0008*%
%ADD371R,0.1593X0.0008*%
%ADD372R,0.0805X0.0008*%
%ADD373R,0.1626X0.0008*%
%ADD374R,0.0796X0.0008*%
%ADD375R,0.1642X0.0008*%
%ADD376R,0.0796X0.0008*%
%ADD377R,0.1659X0.0008*%
%ADD378R,0.1692X0.0008*%
%ADD379R,0.1709X0.0008*%
%ADD380R,0.0780X0.0008*%
%ADD381R,0.1725X0.0008*%
%ADD382R,0.1742X0.0008*%
%ADD383R,0.0780X0.0008*%
%ADD384R,0.1758X0.0008*%
%ADD385R,0.0771X0.0008*%
%ADD386R,0.1792X0.0008*%
%ADD387R,0.1808X0.0008*%
%ADD388R,0.0771X0.0008*%
%ADD389R,0.1825X0.0008*%
%ADD390R,0.0771X0.0008*%
%ADD391R,0.1841X0.0008*%
%ADD392R,0.1858X0.0008*%
%ADD393R,0.1874X0.0008*%
%ADD394R,0.1891X0.0008*%
%ADD395R,0.0755X0.0008*%
%ADD396R,0.1908X0.0008*%
%ADD397R,0.0755X0.0008*%
%ADD398R,0.1924X0.0008*%
%ADD399R,0.1941X0.0008*%
%ADD400R,0.0755X0.0008*%
%ADD401R,0.1957X0.0008*%
%ADD402R,0.0755X0.0008*%
%ADD403R,0.1974X0.0008*%
%ADD404R,0.0746X0.0008*%
%ADD405R,0.1991X0.0008*%
%ADD406R,0.0746X0.0008*%
%ADD407R,0.2007X0.0008*%
%ADD408R,0.0746X0.0008*%
%ADD409R,0.2024X0.0008*%
%ADD410R,0.2040X0.0008*%
%ADD411R,0.2040X0.0008*%
%ADD412R,0.0738X0.0008*%
%ADD413R,0.2057X0.0008*%
%ADD414R,0.2074X0.0008*%
%ADD415R,0.2090X0.0008*%
%ADD416R,0.0730X0.0008*%
%ADD417R,0.2107X0.0008*%
%ADD418R,0.0713X0.0008*%
%ADD419R,0.0722X0.0008*%
%ADD420R,0.2123X0.0008*%
%ADD421R,0.2123X0.0008*%
%ADD422R,0.0697X0.0008*%
%ADD423R,0.2140X0.0008*%
%ADD424R,0.0672X0.0008*%
%ADD425R,0.0672X0.0008*%
%ADD426R,0.2157X0.0008*%
%ADD427R,0.0647X0.0008*%
%ADD428R,0.0664X0.0008*%
%ADD429R,0.2173X0.0008*%
%ADD430R,0.0639X0.0008*%
%ADD431R,0.0647X0.0008*%
%ADD432R,0.2173X0.0008*%
%ADD433R,0.0622X0.0008*%
%ADD434R,0.2190X0.0008*%
%ADD435R,0.0622X0.0008*%
%ADD436R,0.2206X0.0008*%
%ADD437R,0.0597X0.0008*%
%ADD438R,0.2215X0.0008*%
%ADD439R,0.2223X0.0008*%
%ADD440R,0.0572X0.0008*%
%ADD441R,0.2239X0.0008*%
%ADD442R,0.0547X0.0008*%
%ADD443R,0.2256X0.0008*%
%ADD444R,0.2273X0.0008*%
%ADD445R,0.2281X0.0008*%
%ADD446R,0.0498X0.0008*%
%ADD447R,0.2289X0.0008*%
%ADD448R,0.0473X0.0008*%
%ADD449R,0.0489X0.0008*%
%ADD450R,0.2306X0.0008*%
%ADD451R,0.0464X0.0008*%
%ADD452R,0.0473X0.0008*%
%ADD453R,0.2306X0.0008*%
%ADD454R,0.0448X0.0008*%
%ADD455R,0.0464X0.0008*%
%ADD456R,0.2322X0.0008*%
%ADD457R,0.0440X0.0008*%
%ADD458R,0.0448X0.0008*%
%ADD459R,0.2339X0.0008*%
%ADD460R,0.0423X0.0008*%
%ADD461R,0.2339X0.0008*%
%ADD462R,0.0415X0.0008*%
%ADD463R,0.0415X0.0008*%
%ADD464R,0.2356X0.0008*%
%ADD465R,0.0390X0.0008*%
%ADD466R,0.0406X0.0008*%
%ADD467R,0.2356X0.0008*%
%ADD468R,0.0390X0.0008*%
%ADD469R,0.2372X0.0008*%
%ADD470R,0.0382X0.0008*%
%ADD471R,0.0382X0.0008*%
%ADD472R,0.2372X0.0008*%
%ADD473R,0.0382X0.0008*%
%ADD474R,0.2405X0.0008*%
%ADD475R,0.2405X0.0008*%
%ADD476R,0.2422X0.0008*%
%ADD477R,0.0373X0.0008*%
%ADD478R,0.0373X0.0008*%
%ADD479R,0.2439X0.0008*%
%ADD480R,0.2455X0.0008*%
%ADD481R,0.2455X0.0008*%
%ADD482R,0.2455X0.0008*%
%ADD483R,0.2472X0.0008*%
%ADD484R,0.0365X0.0008*%
%ADD485R,0.2472X0.0008*%
%ADD486R,0.0373X0.0008*%
%ADD487R,0.2505X0.0008*%
%ADD488R,0.2505X0.0008*%
%ADD489R,0.0365X0.0008*%
%ADD490R,0.2505X0.0008*%
%ADD491R,0.0365X0.0008*%
%ADD492R,0.2521X0.0008*%
%ADD493R,0.0365X0.0008*%
%ADD494R,0.2521X0.0008*%
%ADD495R,0.0365X0.0008*%
%ADD496R,0.2538X0.0008*%
%ADD497R,0.2538X0.0008*%
%ADD498R,0.2555X0.0008*%
%ADD499R,0.2555X0.0008*%
%ADD500R,0.2555X0.0008*%
%ADD501R,0.2571X0.0008*%
%ADD502R,0.0357X0.0008*%
%ADD503R,0.2571X0.0008*%
%ADD504R,0.0365X0.0008*%
%ADD505R,0.1269X0.0008*%
%ADD506R,0.1211X0.0008*%
%ADD507R,0.1161X0.0008*%
%ADD508R,0.1145X0.0008*%
%ADD509R,0.1120X0.0008*%
%ADD510R,0.1103X0.0008*%
%ADD511R,0.1111X0.0008*%
%ADD512R,0.1103X0.0008*%
%ADD513R,0.0357X0.0008*%
%ADD514R,0.1087X0.0008*%
%ADD515R,0.1062X0.0008*%
%ADD516R,0.1062X0.0008*%
%ADD517R,0.1053X0.0008*%
%ADD518R,0.0348X0.0008*%
%ADD519R,0.1045X0.0008*%
%ADD520R,0.0406X0.0008*%
%ADD521R,0.1037X0.0008*%
%ADD522R,0.0448X0.0008*%
%ADD523R,0.1037X0.0008*%
%ADD524R,0.0489X0.0008*%
%ADD525R,0.0498X0.0008*%
%ADD526R,0.1020X0.0008*%
%ADD527R,0.0581X0.0008*%
%ADD528R,0.1012X0.0008*%
%ADD529R,0.1004X0.0008*%
%ADD530R,0.0647X0.0008*%
%ADD531R,0.0622X0.0008*%
%ADD532R,0.1012X0.0008*%
%ADD533R,0.0647X0.0008*%
%ADD534R,0.1004X0.0008*%
%ADD535R,0.0647X0.0008*%
%ADD536R,0.0995X0.0008*%
%ADD537R,0.0987X0.0008*%
%ADD538R,0.0979X0.0008*%
%ADD539R,0.0630X0.0008*%
%ADD540R,0.0630X0.0008*%
%ADD541R,0.0954X0.0008*%
%ADD542R,0.0630X0.0008*%
%ADD543R,0.0954X0.0008*%
%ADD544R,0.0946X0.0008*%
%ADD545R,0.0639X0.0008*%
%ADD546R,0.0962X0.0008*%
%ADD547R,0.0987X0.0008*%
%ADD548R,0.0987X0.0008*%
%ADD549R,0.0995X0.0008*%
%ADD550R,0.0622X0.0008*%
%ADD551R,0.1004X0.0008*%
%ADD552R,0.0572X0.0008*%
%ADD553R,0.1029X0.0008*%
%ADD554R,0.0448X0.0008*%
%ADD555R,0.0489X0.0008*%
%ADD556R,0.1037X0.0008*%
%ADD557R,0.1070X0.0008*%
%ADD558R,0.0357X0.0008*%
%ADD559R,0.1087X0.0008*%
%ADD560R,0.1095X0.0008*%
%ADD561R,0.1111X0.0008*%
%ADD562R,0.1120X0.0008*%
%ADD563R,0.1136X0.0008*%
%ADD564R,0.1153X0.0008*%
%ADD565R,0.1169X0.0008*%
%ADD566R,0.1203X0.0008*%
%ADD567R,0.1244X0.0008*%
%ADD568R,0.2579X0.0008*%
%ADD569R,0.2563X0.0008*%
%ADD570R,0.2521X0.0008*%
%ADD571R,0.2488X0.0008*%
%ADD572R,0.2472X0.0008*%
%ADD573R,0.0373X0.0008*%
%ADD574R,0.2422X0.0008*%
%ADD575R,0.2389X0.0008*%
%ADD576R,0.2364X0.0008*%
%ADD577R,0.0431X0.0008*%
%ADD578R,0.0448X0.0008*%
%ADD579R,0.0440X0.0008*%
%ADD580R,0.2322X0.0008*%
%ADD581R,0.2322X0.0008*%
%ADD582R,0.0464X0.0008*%
%ADD583R,0.0489X0.0008*%
%ADD584R,0.0473X0.0008*%
%ADD585R,0.2289X0.0008*%
%ADD586R,0.0498X0.0008*%
%ADD587R,0.2273X0.0008*%
%ADD588R,0.2256X0.0008*%
%ADD589R,0.2256X0.0008*%
%ADD590R,0.0564X0.0008*%
%ADD591R,0.0547X0.0008*%
%ADD592R,0.2239X0.0008*%
%ADD593R,0.0572X0.0008*%
%ADD594R,0.2223X0.0008*%
%ADD595R,0.0597X0.0008*%
%ADD596R,0.2206X0.0008*%
%ADD597R,0.0605X0.0008*%
%ADD598R,0.2190X0.0008*%
%ADD599R,0.0688X0.0008*%
%ADD600R,0.2140X0.0008*%
%ADD601R,0.2065X0.0008*%
%ADD602R,0.0738X0.0008*%
%ADD603R,0.2057X0.0008*%
%ADD604R,0.2024X0.0008*%
%ADD605R,0.2007X0.0008*%
%ADD606R,0.1974X0.0008*%
%ADD607R,0.0755X0.0008*%
%ADD608R,0.1957X0.0008*%
%ADD609R,0.0755X0.0008*%
%ADD610R,0.1924X0.0008*%
%ADD611R,0.1908X0.0008*%
%ADD612R,0.1874X0.0008*%
%ADD613R,0.0771X0.0008*%
%ADD614R,0.1858X0.0008*%
%ADD615R,0.0771X0.0008*%
%ADD616R,0.1808X0.0008*%
%ADD617R,0.1792X0.0008*%
%ADD618R,0.1775X0.0008*%
%ADD619R,0.1750X0.0008*%
%ADD620R,0.0788X0.0008*%
%ADD621R,0.0796X0.0008*%
%ADD622R,0.0796X0.0008*%
%ADD623R,0.1642X0.0008*%
%ADD624R,0.1609X0.0008*%
%ADD625R,0.1576X0.0008*%
%ADD626R,0.1559X0.0008*%
%ADD627R,0.1526X0.0008*%
%ADD628R,0.1510X0.0008*%
%ADD629R,0.1460X0.0008*%
%ADD630R,0.1427X0.0008*%
%ADD631R,0.1410X0.0008*%
%ADD632R,0.1327X0.0008*%
%ADD633R,0.0299X0.0008*%
%ADD634R,0.1294X0.0008*%
%ADD635R,0.0274X0.0008*%
%ADD636R,0.1261X0.0008*%
%ADD637R,0.1228X0.0008*%
%ADD638R,0.1194X0.0008*%
%ADD639R,0.1161X0.0008*%
%ADD640R,0.0141X0.0008*%
%ADD641R,0.0149X0.0008*%
%ADD642R,0.0108X0.0008*%
%ADD643R,0.0124X0.0008*%
%ADD644R,0.1095X0.0008*%
%ADD645R,0.0083X0.0008*%
%ADD646R,0.0075X0.0008*%
%ADD647R,0.0017X0.0008*%
%ADD648R,0.0041X0.0008*%
%ADD649R,0.0556X0.0008*%
%ADD650R,0.0713X0.0008*%
%ADD651R,0.0581X0.0008*%
%ADD652R,0.0605X0.0008*%
%ADD653R,0.0614X0.0008*%
%ADD654R,0.0398X0.0008*%
%ADD655R,0.0746X0.0008*%
%ADD656R,0.0829X0.0008*%
%ADD657R,0.0846X0.0008*%
%ADD658R,0.1045X0.0008*%
%ADD659R,0.1062X0.0008*%
%ADD660R,0.2372X0.0008*%
%ADD661R,0.2389X0.0008*%
%ADD662R,0.2405X0.0008*%
%ADD663R,0.2472X0.0008*%
%ADD664R,0.2505X0.0008*%
%ADD665R,0.2513X0.0008*%
%ADD666R,0.2521X0.0008*%
%ADD667R,0.2530X0.0008*%
%ADD668R,0.0614X0.0008*%
%ADD669R,0.1186X0.0008*%
%ADD670R,0.0539X0.0008*%
%ADD671R,0.1136X0.0008*%
%ADD672R,0.0523X0.0008*%
%ADD673R,0.0904X0.0008*%
%ADD674R,0.0440X0.0008*%
%ADD675R,0.0398X0.0008*%
%ADD676R,0.0390X0.0008*%
%ADD677R,0.0680X0.0008*%
%ADD678R,0.0307X0.0008*%
%ADD679R,0.0290X0.0008*%
%ADD680R,0.0274X0.0008*%
%ADD681R,0.0265X0.0008*%
%ADD682R,0.0199X0.0008*%
%ADD683R,0.0116X0.0008*%
%ADD684R,0.0066X0.0008*%
%ADD685R,0.0058X0.0008*%
%ADD686R,0.0033X0.0008*%
%ADD687R,0.0523X0.0008*%
%ADD688R,0.0498X0.0008*%
D10*
X008033Y014549D02*
X033786Y014549D01*
X033853Y014560D01*
X033919Y014574D01*
X033984Y014592D01*
X034048Y014614D01*
X034110Y014640D01*
X034171Y014669D01*
X034230Y014702D01*
X034287Y014738D01*
X034342Y014777D01*
X034394Y014820D01*
X034444Y014865D01*
X034491Y014914D01*
X034535Y014965D01*
X034576Y015018D01*
X034614Y015074D01*
X034649Y015132D01*
X034680Y015192D01*
X034708Y015253D01*
X034732Y015316D01*
X034752Y015381D01*
X034769Y015446D01*
X034781Y015513D01*
X034790Y015579D01*
X034795Y015647D01*
X034796Y015714D01*
X034793Y015782D01*
X034786Y015849D01*
X034698Y048787D01*
X034698Y048794D02*
X034688Y049239D01*
X034683Y049249D02*
X033883Y050049D01*
X019933Y050049D01*
X019873Y050051D01*
X019812Y050056D01*
X019753Y050065D01*
X019694Y050078D01*
X019635Y050094D01*
X019578Y050114D01*
X019523Y050137D01*
X019468Y050164D01*
X019416Y050193D01*
X019365Y050226D01*
X019316Y050262D01*
X019270Y050300D01*
X019226Y050342D01*
X019184Y050386D01*
X019146Y050432D01*
X019110Y050481D01*
X019077Y050532D01*
X019048Y050584D01*
X019021Y050639D01*
X018998Y050694D01*
X018978Y050751D01*
X018962Y050810D01*
X018949Y050869D01*
X018940Y050928D01*
X018935Y050989D01*
X018933Y051049D01*
X018933Y051249D01*
X018931Y051309D01*
X018926Y051370D01*
X018917Y051429D01*
X018904Y051488D01*
X018888Y051547D01*
X018868Y051604D01*
X018845Y051659D01*
X018818Y051714D01*
X018789Y051766D01*
X018756Y051817D01*
X018720Y051866D01*
X018682Y051912D01*
X018640Y051956D01*
X018596Y051998D01*
X018550Y052036D01*
X018501Y052072D01*
X018450Y052105D01*
X018398Y052134D01*
X018343Y052161D01*
X018288Y052184D01*
X018231Y052204D01*
X018172Y052220D01*
X018113Y052233D01*
X018054Y052242D01*
X017993Y052247D01*
X017933Y052249D01*
X008033Y052249D01*
X007973Y052247D01*
X007912Y052242D01*
X007853Y052233D01*
X007794Y052220D01*
X007735Y052204D01*
X007678Y052184D01*
X007623Y052161D01*
X007568Y052134D01*
X007516Y052105D01*
X007465Y052072D01*
X007416Y052036D01*
X007370Y051998D01*
X007326Y051956D01*
X007284Y051912D01*
X007246Y051866D01*
X007210Y051817D01*
X007177Y051766D01*
X007148Y051714D01*
X007121Y051659D01*
X007098Y051604D01*
X007078Y051547D01*
X007062Y051488D01*
X007049Y051429D01*
X007040Y051370D01*
X007035Y051309D01*
X007033Y051249D01*
X007033Y015549D01*
X007035Y015489D01*
X007040Y015428D01*
X007049Y015369D01*
X007062Y015310D01*
X007078Y015251D01*
X007098Y015194D01*
X007121Y015139D01*
X007148Y015084D01*
X007177Y015032D01*
X007210Y014981D01*
X007246Y014932D01*
X007284Y014886D01*
X007326Y014842D01*
X007370Y014800D01*
X007416Y014762D01*
X007465Y014726D01*
X007516Y014693D01*
X007568Y014664D01*
X007623Y014637D01*
X007678Y014614D01*
X007735Y014594D01*
X007794Y014578D01*
X007853Y014565D01*
X007912Y014556D01*
X007973Y014551D01*
X008033Y014549D01*
D11*
X008085Y017988D02*
X008085Y018278D01*
X007940Y018133D01*
X008133Y018133D01*
X007838Y017988D02*
X007645Y017988D01*
X007645Y018278D01*
X007548Y019574D02*
X007548Y019864D01*
X007693Y019864D01*
X007741Y019816D01*
X007741Y019719D01*
X007693Y019670D01*
X007548Y019670D01*
X007842Y019864D02*
X008036Y019864D01*
X007939Y019864D02*
X007939Y019574D01*
X008137Y019622D02*
X008186Y019574D01*
X008282Y019574D01*
X008331Y019622D01*
X008432Y019574D02*
X008625Y019574D01*
X008529Y019574D02*
X008529Y019864D01*
X008432Y019767D01*
X008331Y019816D02*
X008282Y019864D01*
X008186Y019864D01*
X008137Y019816D01*
X008137Y019622D01*
X008173Y020838D02*
X008367Y020838D01*
X008270Y020838D02*
X008270Y021128D01*
X008173Y021032D01*
X008072Y021032D02*
X008072Y021080D01*
X008024Y021128D01*
X007927Y021128D01*
X007879Y021080D01*
X007778Y021080D02*
X007729Y021128D01*
X007633Y021128D01*
X007584Y021080D01*
X007584Y020887D01*
X007633Y020838D01*
X007729Y020838D01*
X007778Y020887D01*
X007879Y020838D02*
X008072Y021032D01*
X008072Y020838D02*
X007879Y020838D01*
X007840Y022438D02*
X008033Y022632D01*
X008033Y022680D01*
X007985Y022728D01*
X007888Y022728D01*
X007840Y022680D01*
X007840Y022438D02*
X008033Y022438D01*
X007738Y022438D02*
X007545Y022438D01*
X007545Y022728D01*
X007525Y023557D02*
X007670Y023557D01*
X007718Y023606D01*
X007718Y023799D01*
X007670Y023848D01*
X007525Y023848D01*
X007525Y023557D01*
X007819Y023606D02*
X007819Y023654D01*
X007868Y023702D01*
X007965Y023702D01*
X008013Y023654D01*
X008013Y023606D01*
X007965Y023557D01*
X007868Y023557D01*
X007819Y023606D01*
X007868Y023702D02*
X007819Y023751D01*
X007819Y023799D01*
X007868Y023848D01*
X007965Y023848D01*
X008013Y023799D01*
X008013Y023751D01*
X007965Y023702D01*
X007959Y024016D02*
X008056Y024016D01*
X008104Y024064D01*
X008104Y024258D01*
X008056Y024306D01*
X007959Y024306D01*
X007911Y024258D01*
X007911Y024064D01*
X007959Y024016D01*
X007810Y024016D02*
X007810Y024306D01*
X007810Y024161D02*
X007616Y024161D01*
X007616Y024016D02*
X007616Y024306D01*
X008205Y024306D02*
X008399Y024306D01*
X008302Y024306D02*
X008302Y024016D01*
X008500Y024016D02*
X008645Y024016D01*
X008693Y024064D01*
X008693Y024113D01*
X008645Y024161D01*
X008500Y024161D01*
X008500Y024016D02*
X008500Y024306D01*
X008645Y024306D01*
X008693Y024258D01*
X008693Y024210D01*
X008645Y024161D01*
X008795Y024161D02*
X008891Y024161D01*
X008795Y024016D02*
X008988Y024016D01*
X009089Y024016D02*
X009234Y024016D01*
X009283Y024064D01*
X009283Y024258D01*
X009234Y024306D01*
X009089Y024306D01*
X009089Y024016D01*
X008795Y024016D02*
X008795Y024306D01*
X008988Y024306D01*
X011017Y023450D02*
X011114Y023450D01*
X011065Y023450D02*
X011065Y023160D01*
X011017Y023160D02*
X011114Y023160D01*
X011214Y023208D02*
X011262Y023160D01*
X011359Y023160D01*
X011407Y023208D01*
X011508Y023160D02*
X011702Y023354D01*
X011702Y023402D01*
X011653Y023450D01*
X011557Y023450D01*
X011508Y023402D01*
X011407Y023402D02*
X011359Y023450D01*
X011262Y023450D01*
X011214Y023402D01*
X011214Y023208D01*
X011508Y023160D02*
X011702Y023160D01*
X013478Y023304D02*
X013478Y023594D01*
X013623Y023594D01*
X013671Y023546D01*
X013671Y023449D01*
X013623Y023400D01*
X013478Y023400D01*
X013575Y023400D02*
X013671Y023304D01*
X013772Y023352D02*
X013821Y023304D01*
X013918Y023304D01*
X013966Y023352D01*
X013966Y023400D01*
X013918Y023449D01*
X013869Y023449D01*
X013918Y023449D02*
X013966Y023497D01*
X013966Y023546D01*
X013918Y023594D01*
X013821Y023594D01*
X013772Y023546D01*
X014067Y023449D02*
X014212Y023449D01*
X014261Y023400D01*
X014261Y023352D01*
X014212Y023304D01*
X014116Y023304D01*
X014067Y023352D01*
X014067Y023449D01*
X014164Y023546D01*
X014261Y023594D01*
X014212Y024204D02*
X014116Y024204D01*
X014067Y024252D01*
X014067Y024349D02*
X014164Y024397D01*
X014212Y024397D01*
X014261Y024349D01*
X014261Y024252D01*
X014212Y024204D01*
X014067Y024349D02*
X014067Y024494D01*
X014261Y024494D01*
X013966Y024446D02*
X013966Y024397D01*
X013918Y024349D01*
X013966Y024300D01*
X013966Y024252D01*
X013918Y024204D01*
X013821Y024204D01*
X013772Y024252D01*
X013671Y024204D02*
X013575Y024300D01*
X013623Y024300D02*
X013478Y024300D01*
X013478Y024204D02*
X013478Y024494D01*
X013623Y024494D01*
X013671Y024446D01*
X013671Y024349D01*
X013623Y024300D01*
X013772Y024446D02*
X013821Y024494D01*
X013918Y024494D01*
X013966Y024446D01*
X013918Y024349D02*
X013869Y024349D01*
X014258Y022754D02*
X014403Y022754D01*
X014451Y022706D01*
X014451Y022609D01*
X014403Y022560D01*
X014258Y022560D01*
X014258Y022464D02*
X014258Y022754D01*
X014355Y022560D02*
X014451Y022464D01*
X014552Y022512D02*
X014601Y022464D01*
X014698Y022464D01*
X014746Y022512D01*
X014746Y022560D01*
X014698Y022609D01*
X014649Y022609D01*
X014698Y022609D02*
X014746Y022657D01*
X014746Y022706D01*
X014698Y022754D01*
X014601Y022754D01*
X014552Y022706D01*
X014847Y022706D02*
X014896Y022754D01*
X014992Y022754D01*
X015041Y022706D01*
X015041Y022657D01*
X014992Y022609D01*
X015041Y022560D01*
X015041Y022512D01*
X014992Y022464D01*
X014896Y022464D01*
X014847Y022512D01*
X014944Y022609D02*
X014992Y022609D01*
X015258Y022550D02*
X015403Y022550D01*
X015451Y022599D01*
X015451Y022696D01*
X015403Y022744D01*
X015258Y022744D01*
X015258Y022454D01*
X015355Y022550D02*
X015451Y022454D01*
X015552Y022502D02*
X015601Y022454D01*
X015698Y022454D01*
X015746Y022502D01*
X015746Y022550D01*
X015698Y022599D01*
X015649Y022599D01*
X015698Y022599D02*
X015746Y022647D01*
X015746Y022696D01*
X015698Y022744D01*
X015601Y022744D01*
X015552Y022696D01*
X015847Y022599D02*
X016041Y022599D01*
X015992Y022744D02*
X015847Y022599D01*
X015992Y022454D02*
X015992Y022744D01*
X015985Y020944D02*
X015985Y020799D01*
X016033Y020750D01*
X016130Y020750D01*
X016178Y020799D01*
X016178Y020944D01*
X015888Y020944D01*
X015985Y020847D02*
X015888Y020750D01*
X015888Y020649D02*
X016178Y020456D01*
X016178Y020354D02*
X015888Y020354D01*
X015888Y020161D01*
X015888Y020060D02*
X015888Y019866D01*
X015888Y019765D02*
X015888Y019620D01*
X015936Y019572D01*
X016130Y019572D01*
X016178Y019620D01*
X016178Y019765D01*
X015888Y019765D01*
X016033Y019963D02*
X016033Y020060D01*
X016178Y020060D02*
X015888Y020060D01*
X016178Y020060D02*
X016178Y019866D01*
X015888Y020456D02*
X016178Y020649D01*
X015168Y020659D02*
X014878Y020466D01*
X014878Y020364D02*
X014878Y020171D01*
X014878Y020070D02*
X014878Y019876D01*
X014878Y019775D02*
X014878Y019630D01*
X014926Y019582D01*
X015120Y019582D01*
X015168Y019630D01*
X015168Y019775D01*
X014878Y019775D01*
X015023Y019973D02*
X015023Y020070D01*
X015168Y020070D02*
X014878Y020070D01*
X015168Y020070D02*
X015168Y019876D01*
X015168Y020364D02*
X014878Y020364D01*
X014878Y020659D02*
X015168Y020466D01*
X015168Y020760D02*
X015168Y020954D01*
X015168Y020857D02*
X014878Y020857D01*
X014891Y019254D02*
X014842Y019206D01*
X014891Y019254D02*
X014988Y019254D01*
X015036Y019206D01*
X015036Y019157D01*
X014842Y018964D01*
X015036Y018964D01*
X015137Y019012D02*
X015331Y019206D01*
X015331Y019012D01*
X015282Y018964D01*
X015186Y018964D01*
X015137Y019012D01*
X015137Y019206D01*
X015186Y019254D01*
X015282Y019254D01*
X015331Y019206D01*
X014741Y019206D02*
X014693Y019254D01*
X014596Y019254D01*
X014548Y019206D01*
X014548Y019012D01*
X014596Y018964D01*
X014693Y018964D01*
X014741Y019012D01*
X015388Y017734D02*
X015533Y017734D01*
X015581Y017686D01*
X015581Y017589D01*
X015533Y017540D01*
X015388Y017540D01*
X015388Y017444D02*
X015388Y017734D01*
X015485Y017540D02*
X015581Y017444D01*
X015682Y017492D02*
X015731Y017444D01*
X015828Y017444D01*
X015876Y017492D01*
X015876Y017540D01*
X015828Y017589D01*
X015731Y017589D01*
X015682Y017637D01*
X015682Y017686D01*
X015731Y017734D01*
X015828Y017734D01*
X015876Y017686D01*
X015977Y017734D02*
X016171Y017734D01*
X016074Y017734D02*
X016074Y017444D01*
X016528Y017444D02*
X016528Y017734D01*
X016673Y017734D01*
X016721Y017686D01*
X016721Y017589D01*
X016673Y017540D01*
X016528Y017540D01*
X016625Y017540D02*
X016721Y017444D01*
X016822Y017444D02*
X017016Y017734D01*
X016822Y017734D02*
X017016Y017444D01*
X017488Y017734D02*
X017681Y017734D01*
X017585Y017734D02*
X017585Y017444D01*
X017782Y017444D02*
X017976Y017734D01*
X017782Y017734D02*
X017976Y017444D01*
X018448Y017492D02*
X018496Y017444D01*
X018641Y017444D01*
X018641Y017395D02*
X018641Y017637D01*
X018496Y017637D01*
X018448Y017589D01*
X018448Y017492D01*
X018545Y017347D02*
X018593Y017347D01*
X018641Y017395D01*
X018742Y017444D02*
X018742Y017637D01*
X018888Y017637D01*
X018936Y017589D01*
X018936Y017444D01*
X019037Y017492D02*
X019037Y017589D01*
X019086Y017637D01*
X019231Y017637D01*
X019231Y017734D02*
X019231Y017444D01*
X019086Y017444D01*
X019037Y017492D01*
X019408Y017589D02*
X019601Y017589D01*
X019702Y017589D02*
X019799Y017637D01*
X019848Y017637D01*
X019896Y017589D01*
X019896Y017492D01*
X019848Y017444D01*
X019751Y017444D01*
X019702Y017492D01*
X019702Y017589D02*
X019702Y017734D01*
X019896Y017734D01*
X019997Y017734D02*
X019997Y017540D01*
X020094Y017444D01*
X020191Y017540D01*
X020191Y017734D01*
X020488Y017734D02*
X020681Y017444D01*
X020681Y017734D01*
X020782Y017686D02*
X020782Y017492D01*
X020831Y017444D01*
X020928Y017444D01*
X020976Y017492D01*
X020976Y017686D02*
X020928Y017734D01*
X020831Y017734D01*
X020782Y017686D01*
X020488Y017734D02*
X020488Y017444D01*
X019505Y017492D02*
X019505Y017686D01*
X019234Y015034D02*
X019234Y014744D01*
X019234Y014840D02*
X019379Y014937D01*
X019468Y014889D02*
X019468Y014792D01*
X019516Y014744D01*
X019661Y014744D01*
X019661Y014695D02*
X019661Y014937D01*
X019516Y014937D01*
X019468Y014889D01*
X019379Y014744D02*
X019234Y014840D01*
X019134Y014744D02*
X019037Y014744D01*
X019086Y014744D02*
X019086Y015034D01*
X019037Y015034D01*
X018936Y014937D02*
X018791Y014937D01*
X018742Y014889D01*
X018742Y014792D01*
X018791Y014744D01*
X018936Y014744D01*
X018641Y014792D02*
X018593Y014840D01*
X018496Y014840D01*
X018448Y014889D01*
X018496Y014937D01*
X018641Y014937D01*
X018641Y014792D02*
X018593Y014744D01*
X018448Y014744D01*
X018347Y014792D02*
X018347Y014889D01*
X018299Y014937D01*
X018202Y014937D01*
X018154Y014889D01*
X018154Y014792D01*
X018202Y014744D01*
X018299Y014744D01*
X018347Y014792D01*
X018052Y014792D02*
X018004Y014840D01*
X017907Y014840D01*
X017859Y014889D01*
X017907Y014937D01*
X018052Y014937D01*
X018052Y014792D02*
X018004Y014744D01*
X017859Y014744D01*
X017759Y014744D02*
X017662Y014744D01*
X017711Y014744D02*
X017711Y014937D01*
X017662Y014937D01*
X017711Y015034D02*
X017711Y015082D01*
X017561Y014889D02*
X017561Y014744D01*
X017465Y014744D02*
X017465Y014889D01*
X017513Y014937D01*
X017561Y014889D01*
X017465Y014889D02*
X017416Y014937D01*
X017368Y014937D01*
X017368Y014744D01*
X017269Y014744D02*
X017172Y014744D01*
X017220Y014744D02*
X017220Y014937D01*
X017172Y014937D01*
X017071Y014937D02*
X016926Y014937D01*
X016877Y014889D01*
X016926Y014840D01*
X017022Y014840D01*
X017071Y014792D01*
X017022Y014744D01*
X016877Y014744D01*
X016776Y014792D02*
X016776Y014889D01*
X016728Y014937D01*
X016631Y014937D01*
X016582Y014889D01*
X016582Y014792D01*
X016631Y014744D01*
X016728Y014744D01*
X016776Y014792D01*
X016481Y014744D02*
X016481Y014889D01*
X016433Y014937D01*
X016385Y014889D01*
X016385Y014744D01*
X016288Y014744D02*
X016288Y014937D01*
X016336Y014937D01*
X016385Y014889D01*
X016056Y014937D02*
X015911Y014937D01*
X015862Y014889D01*
X015911Y014840D01*
X016008Y014840D01*
X016056Y014792D01*
X016008Y014744D01*
X015862Y014744D01*
X015761Y014792D02*
X015713Y014840D01*
X015616Y014840D01*
X015568Y014889D01*
X015616Y014937D01*
X015761Y014937D01*
X015761Y014792D02*
X015713Y014744D01*
X015568Y014744D01*
X017220Y015034D02*
X017220Y015082D01*
X019565Y014647D02*
X019613Y014647D01*
X019661Y014695D01*
X019762Y014744D02*
X019762Y014937D01*
X019908Y014937D01*
X019956Y014889D01*
X019956Y014744D01*
X020057Y014792D02*
X020057Y014889D01*
X020106Y014937D01*
X020251Y014937D01*
X020251Y015034D02*
X020251Y014744D01*
X020106Y014744D01*
X020057Y014792D01*
X020368Y014889D02*
X020561Y014889D01*
X020662Y014889D02*
X020759Y014937D01*
X020808Y014937D01*
X020856Y014889D01*
X020856Y014792D01*
X020808Y014744D01*
X020711Y014744D01*
X020662Y014792D01*
X020662Y014889D02*
X020662Y015034D01*
X020856Y015034D01*
X020957Y015034D02*
X020957Y014840D01*
X021054Y014744D01*
X021151Y014840D01*
X021151Y015034D01*
X021474Y015514D02*
X021426Y015562D01*
X021474Y015514D02*
X021571Y015514D01*
X021619Y015562D01*
X021619Y015610D01*
X021571Y015659D01*
X021474Y015659D01*
X021426Y015707D01*
X021426Y015756D01*
X021474Y015804D01*
X021571Y015804D01*
X021619Y015756D01*
X021720Y015804D02*
X021865Y015804D01*
X021914Y015756D01*
X021914Y015562D01*
X021865Y015514D01*
X021720Y015514D01*
X021720Y015804D01*
X021769Y016614D02*
X021865Y016614D01*
X021914Y016662D01*
X022015Y016614D02*
X022160Y016614D01*
X022208Y016662D01*
X022208Y016856D01*
X022160Y016904D01*
X022015Y016904D01*
X022015Y016614D01*
X021769Y016614D02*
X021720Y016662D01*
X021720Y016856D01*
X021769Y016904D01*
X021865Y016904D01*
X021914Y016856D01*
X021619Y016614D02*
X021426Y016614D01*
X021426Y016904D01*
X020465Y014986D02*
X020465Y014792D01*
X023780Y018802D02*
X023974Y018996D01*
X023974Y019044D01*
X023925Y019093D01*
X023829Y019093D01*
X023780Y019044D01*
X023780Y018802D02*
X023974Y018802D01*
X024075Y018948D02*
X024268Y018948D01*
X024369Y018899D02*
X024466Y018802D01*
X024563Y018899D01*
X024563Y019093D01*
X024369Y019093D02*
X024369Y018899D01*
X024220Y018802D02*
X024220Y019093D01*
X024075Y018948D01*
X024078Y019782D02*
X024078Y020073D01*
X024179Y020073D02*
X024325Y020073D01*
X024373Y020024D01*
X024373Y019831D01*
X024325Y019782D01*
X024179Y019782D01*
X024179Y020073D01*
X023885Y020073D02*
X024078Y019782D01*
X023885Y019782D02*
X023885Y020073D01*
X023784Y020024D02*
X023735Y020073D01*
X023639Y020073D01*
X023590Y020024D01*
X023590Y019831D01*
X023639Y019782D01*
X023735Y019782D01*
X023784Y019831D01*
X023784Y019928D01*
X023687Y019928D01*
X023972Y020829D02*
X023972Y021022D01*
X023876Y020925D02*
X024069Y020925D01*
X024170Y020925D02*
X024267Y020974D01*
X024315Y020974D01*
X024364Y020925D01*
X024364Y020829D01*
X024315Y020780D01*
X024219Y020780D01*
X024170Y020829D01*
X024170Y020925D02*
X024170Y021071D01*
X024364Y021071D01*
X024465Y021071D02*
X024465Y020877D01*
X024562Y020780D01*
X024658Y020877D01*
X024658Y021071D01*
X025185Y021496D02*
X025233Y021447D01*
X025330Y021447D01*
X025378Y021496D01*
X025479Y021496D02*
X025479Y021544D01*
X025528Y021592D01*
X025625Y021592D01*
X025673Y021544D01*
X025673Y021496D01*
X025625Y021447D01*
X025528Y021447D01*
X025479Y021496D01*
X025528Y021592D02*
X025479Y021641D01*
X025479Y021689D01*
X025528Y021738D01*
X025625Y021738D01*
X025673Y021689D01*
X025673Y021641D01*
X025625Y021592D01*
X025378Y021689D02*
X025330Y021738D01*
X025233Y021738D01*
X025185Y021689D01*
X025185Y021496D01*
X028847Y021431D02*
X028847Y021678D01*
X028908Y021678D01*
X029155Y021431D01*
X029217Y021431D01*
X029155Y021309D02*
X029217Y021248D01*
X029217Y021124D01*
X029155Y021063D01*
X028908Y021063D01*
X028847Y021124D01*
X028847Y021248D01*
X028908Y021309D01*
X029291Y018074D02*
X029242Y018026D01*
X029291Y018074D02*
X029388Y018074D01*
X029436Y018026D01*
X029436Y017977D01*
X029242Y017784D01*
X029436Y017784D01*
X029537Y017929D02*
X029731Y017929D01*
X029832Y017880D02*
X029929Y017784D01*
X030025Y017880D01*
X030025Y018074D01*
X029832Y018074D02*
X029832Y017880D01*
X029682Y017784D02*
X029682Y018074D01*
X029537Y017929D01*
X029141Y017929D02*
X028948Y017929D01*
X029045Y018026D02*
X029045Y017832D01*
X030928Y017944D02*
X030928Y018234D01*
X031121Y018234D01*
X031222Y018137D02*
X031319Y018234D01*
X031319Y017944D01*
X031222Y017944D02*
X031416Y017944D01*
X031025Y018089D02*
X030928Y018089D01*
X032905Y017777D02*
X033050Y017777D01*
X033098Y017728D01*
X033098Y017535D01*
X033050Y017487D01*
X032905Y017487D01*
X032905Y017777D01*
X033199Y017728D02*
X033199Y017680D01*
X033248Y017632D01*
X033393Y017632D01*
X033393Y017728D02*
X033344Y017777D01*
X033248Y017777D01*
X033199Y017728D01*
X033199Y017535D02*
X033248Y017487D01*
X033344Y017487D01*
X033393Y017535D01*
X033393Y017728D01*
X033334Y026504D02*
X033334Y026697D01*
X033334Y026600D02*
X033431Y026697D01*
X033479Y026697D01*
X033233Y026649D02*
X033184Y026697D01*
X033088Y026697D01*
X033039Y026649D01*
X033039Y026552D01*
X033088Y026504D01*
X033184Y026504D01*
X033233Y026552D01*
X033233Y026649D01*
X032940Y026697D02*
X032843Y026697D01*
X032891Y026746D02*
X032891Y026552D01*
X032940Y026504D01*
X032742Y026504D02*
X032597Y026504D01*
X032548Y026552D01*
X032548Y026649D01*
X032597Y026697D01*
X032742Y026697D01*
X032447Y026697D02*
X032447Y026504D01*
X032302Y026504D01*
X032254Y026552D01*
X032254Y026697D01*
X032152Y026697D02*
X032007Y026697D01*
X031959Y026649D01*
X031959Y026552D01*
X032007Y026504D01*
X032152Y026504D01*
X032152Y026794D01*
X032106Y026984D02*
X032154Y027032D01*
X032202Y026984D01*
X032251Y027032D01*
X032251Y027177D01*
X032352Y027129D02*
X032400Y027177D01*
X032497Y027177D01*
X032545Y027129D01*
X032545Y027080D01*
X032352Y027080D01*
X032352Y027032D02*
X032352Y027129D01*
X032352Y027032D02*
X032400Y026984D01*
X032497Y026984D01*
X032646Y026984D02*
X032646Y027177D01*
X032646Y027080D02*
X032743Y027177D01*
X032792Y027177D01*
X032106Y026984D02*
X032057Y027032D01*
X032057Y027177D01*
X031956Y027129D02*
X031908Y027177D01*
X031811Y027177D01*
X031762Y027129D01*
X031762Y027032D01*
X031811Y026984D01*
X031908Y026984D01*
X031956Y027032D01*
X031956Y027129D01*
X031661Y027129D02*
X031613Y027080D01*
X031468Y027080D01*
X031468Y026984D02*
X031468Y027274D01*
X031613Y027274D01*
X031661Y027226D01*
X031661Y027129D01*
X031565Y026794D02*
X031468Y026794D01*
X031516Y026794D02*
X031516Y026504D01*
X031468Y026504D02*
X031565Y026504D01*
X031664Y026504D02*
X031664Y026697D01*
X031809Y026697D01*
X031858Y026649D01*
X031858Y026504D01*
X032948Y028364D02*
X032948Y028654D01*
X033093Y028654D01*
X033141Y028606D01*
X033141Y028509D01*
X033093Y028460D01*
X032948Y028460D01*
X033242Y028364D02*
X033339Y028460D01*
X033436Y028364D01*
X033436Y028654D01*
X033537Y028654D02*
X033682Y028654D01*
X033731Y028606D01*
X033731Y028509D01*
X033682Y028460D01*
X033537Y028460D01*
X033537Y028364D02*
X033537Y028654D01*
X033634Y028460D02*
X033731Y028364D01*
X033832Y028364D02*
X034025Y028557D01*
X034025Y028606D01*
X033977Y028654D01*
X033880Y028654D01*
X033832Y028606D01*
X033832Y028364D02*
X034025Y028364D01*
X034126Y028509D02*
X034320Y028509D01*
X034272Y028654D02*
X034126Y028509D01*
X034272Y028364D02*
X034272Y028654D01*
X034409Y028787D02*
X034656Y028787D01*
X034533Y028664D02*
X034533Y028911D01*
X034533Y029364D02*
X034533Y029611D01*
X034656Y029487D02*
X034409Y029487D01*
X033977Y030264D02*
X033880Y030264D01*
X033832Y030312D01*
X033832Y030409D02*
X033929Y030457D01*
X033977Y030457D01*
X034025Y030409D01*
X034025Y030312D01*
X033977Y030264D01*
X033832Y030409D02*
X033832Y030554D01*
X034025Y030554D01*
X033731Y030554D02*
X033731Y030264D01*
X033634Y030360D01*
X033537Y030264D01*
X033537Y030554D01*
X033436Y030506D02*
X033436Y030409D01*
X033388Y030360D01*
X033242Y030360D01*
X033242Y030264D02*
X033242Y030554D01*
X033388Y030554D01*
X033436Y030506D01*
X033339Y030360D02*
X033436Y030264D01*
X033141Y030409D02*
X033093Y030360D01*
X032948Y030360D01*
X032948Y030264D02*
X032948Y030554D01*
X033093Y030554D01*
X033141Y030506D01*
X033141Y030409D01*
X033153Y032064D02*
X032959Y032064D01*
X032959Y032354D01*
X032858Y032306D02*
X032858Y032257D01*
X032810Y032209D01*
X032665Y032209D01*
X032563Y032209D02*
X032467Y032209D01*
X032563Y032209D02*
X032563Y032112D01*
X032515Y032064D01*
X032418Y032064D01*
X032370Y032112D01*
X032370Y032306D01*
X032418Y032354D01*
X032515Y032354D01*
X032563Y032306D01*
X032665Y032354D02*
X032810Y032354D01*
X032858Y032306D01*
X032810Y032209D02*
X032858Y032160D01*
X032858Y032112D01*
X032810Y032064D01*
X032665Y032064D01*
X032665Y032354D01*
X032269Y032306D02*
X032269Y032209D01*
X032220Y032160D01*
X032075Y032160D01*
X032075Y032064D02*
X032075Y032354D01*
X032220Y032354D01*
X032269Y032306D01*
X032172Y032160D02*
X032269Y032064D01*
X033254Y032064D02*
X033447Y032064D01*
X033549Y032064D02*
X033694Y032064D01*
X033742Y032112D01*
X033742Y032306D01*
X033694Y032354D01*
X033549Y032354D01*
X033549Y032064D01*
X033351Y032209D02*
X033254Y032209D01*
X033254Y032354D02*
X033254Y032064D01*
X033254Y032354D02*
X033447Y032354D01*
X033843Y032306D02*
X033843Y032257D01*
X033892Y032209D01*
X033988Y032209D01*
X034037Y032160D01*
X034037Y032112D01*
X033988Y032064D01*
X033892Y032064D01*
X033843Y032112D01*
X033843Y032306D02*
X033892Y032354D01*
X033988Y032354D01*
X034037Y032306D01*
X034168Y032924D02*
X034313Y032924D01*
X034361Y032972D01*
X034361Y033020D01*
X034313Y033069D01*
X034168Y033069D01*
X034168Y033214D02*
X034313Y033214D01*
X034361Y033166D01*
X034361Y033117D01*
X034313Y033069D01*
X034168Y032924D02*
X034168Y033214D01*
X034168Y033944D02*
X034168Y034234D01*
X034313Y034234D01*
X034361Y034186D01*
X034361Y034089D01*
X034313Y034040D01*
X034168Y034040D01*
X034265Y034040D02*
X034361Y033944D01*
X034313Y034904D02*
X034361Y034952D01*
X034361Y035049D01*
X034265Y035049D01*
X034361Y035146D02*
X034313Y035194D01*
X034216Y035194D01*
X034168Y035146D01*
X034168Y034952D01*
X034216Y034904D01*
X034313Y034904D01*
X034205Y035864D02*
X034301Y035960D01*
X034301Y036154D01*
X034402Y036009D02*
X034596Y036009D01*
X034499Y036106D02*
X034499Y035912D01*
X034205Y035864D02*
X034108Y035960D01*
X034108Y036154D01*
X033507Y036974D02*
X033410Y036974D01*
X033362Y037022D01*
X033410Y037119D02*
X033507Y037119D01*
X033555Y037070D01*
X033555Y037022D01*
X033507Y036974D01*
X033410Y037119D02*
X033362Y037167D01*
X033362Y037216D01*
X033410Y037264D01*
X033507Y037264D01*
X033555Y037216D01*
X033261Y037264D02*
X033261Y036974D01*
X033067Y037264D01*
X033067Y036974D01*
X032966Y036974D02*
X032966Y037167D01*
X032869Y037264D01*
X032772Y037167D01*
X032772Y036974D01*
X032772Y037119D02*
X032966Y037119D01*
X032671Y037264D02*
X032478Y037264D01*
X032478Y036974D01*
X032478Y037119D02*
X032575Y037119D01*
X031116Y035948D02*
X031020Y035900D01*
X030923Y035803D01*
X031068Y035803D01*
X031116Y035755D01*
X031116Y035706D01*
X031068Y035658D01*
X030971Y035658D01*
X030923Y035706D01*
X030923Y035803D01*
X030822Y035706D02*
X030773Y035658D01*
X030677Y035658D01*
X030628Y035706D01*
X030628Y035900D01*
X030677Y035948D01*
X030773Y035948D01*
X030822Y035900D01*
X030822Y035706D01*
X030822Y035658D02*
X030725Y035755D01*
X030718Y034645D02*
X030814Y034645D01*
X030863Y034597D01*
X030863Y034403D01*
X030814Y034355D01*
X030718Y034355D01*
X030669Y034403D01*
X030669Y034597D01*
X030718Y034645D01*
X030766Y034452D02*
X030863Y034355D01*
X030964Y034355D02*
X030964Y034403D01*
X031157Y034597D01*
X031157Y034645D01*
X030964Y034645D01*
X031000Y033376D02*
X031096Y033376D01*
X031145Y033328D01*
X031145Y033280D01*
X031096Y033231D01*
X031000Y033231D01*
X030951Y033280D01*
X030951Y033328D01*
X031000Y033376D01*
X031000Y033231D02*
X030951Y033183D01*
X030951Y033135D01*
X031000Y033086D01*
X031096Y033086D01*
X031145Y033135D01*
X031145Y033183D01*
X031096Y033231D01*
X030850Y033135D02*
X030802Y033086D01*
X030705Y033086D01*
X030657Y033135D01*
X030657Y033328D01*
X030705Y033376D01*
X030802Y033376D01*
X030850Y033328D01*
X030850Y033135D01*
X030850Y033086D02*
X030753Y033183D01*
X030826Y029974D02*
X030777Y029926D01*
X030777Y029877D01*
X030826Y029829D01*
X030971Y029829D01*
X030971Y029926D02*
X030922Y029974D01*
X030826Y029974D01*
X030971Y029926D02*
X030971Y029732D01*
X030922Y029684D01*
X030826Y029684D01*
X030777Y029732D01*
X030676Y029732D02*
X030628Y029684D01*
X030531Y029684D01*
X030482Y029732D01*
X030381Y029684D02*
X030285Y029780D01*
X030333Y029780D02*
X030188Y029780D01*
X030188Y029684D02*
X030188Y029974D01*
X030333Y029974D01*
X030381Y029926D01*
X030381Y029829D01*
X030333Y029780D01*
X030482Y029926D02*
X030531Y029974D01*
X030628Y029974D01*
X030676Y029926D01*
X030676Y029877D01*
X030628Y029829D01*
X030676Y029780D01*
X030676Y029732D01*
X030628Y029829D02*
X030579Y029829D01*
X030618Y029174D02*
X030666Y029126D01*
X030666Y029077D01*
X030618Y029029D01*
X030666Y028980D01*
X030666Y028932D01*
X030618Y028884D01*
X030521Y028884D01*
X030472Y028932D01*
X030371Y028884D02*
X030275Y028980D01*
X030323Y028980D02*
X030178Y028980D01*
X030178Y028884D02*
X030178Y029174D01*
X030323Y029174D01*
X030371Y029126D01*
X030371Y029029D01*
X030323Y028980D01*
X030472Y029126D02*
X030521Y029174D01*
X030618Y029174D01*
X030618Y029029D02*
X030569Y029029D01*
X030767Y029077D02*
X030767Y029126D01*
X030816Y029174D01*
X030912Y029174D01*
X030961Y029126D01*
X030961Y029077D01*
X030912Y029029D01*
X030816Y029029D01*
X030767Y029077D01*
X030816Y029029D02*
X030767Y028980D01*
X030767Y028932D01*
X030816Y028884D01*
X030912Y028884D01*
X030961Y028932D01*
X030961Y028980D01*
X030912Y029029D01*
X029968Y028268D02*
X029968Y027978D01*
X030064Y027978D02*
X029871Y027978D01*
X029770Y027978D02*
X029576Y027978D01*
X029576Y028268D01*
X029871Y028171D02*
X029968Y028268D01*
X033242Y028364D02*
X033242Y028654D01*
X026377Y034201D02*
X026377Y034269D01*
X026343Y034303D01*
X026274Y034303D01*
X026171Y034201D01*
X026240Y034132D01*
X026308Y034132D01*
X026377Y034201D01*
X026171Y034201D02*
X026171Y034338D01*
X026206Y034440D01*
X026032Y034198D02*
X025963Y034198D01*
X025895Y034129D01*
X025895Y034061D01*
X026032Y033924D01*
X026100Y033924D01*
X026168Y033992D01*
X026168Y034061D01*
X025350Y032626D02*
X025384Y032592D01*
X025384Y032523D01*
X025453Y032523D01*
X025487Y032489D01*
X025487Y032421D01*
X025418Y032352D01*
X025350Y032352D01*
X025278Y032281D02*
X025278Y032212D01*
X025210Y032144D01*
X025142Y032144D01*
X025005Y032281D01*
X025005Y032349D01*
X025073Y032418D01*
X025142Y032418D01*
X025213Y032489D02*
X025213Y032558D01*
X025281Y032626D01*
X025350Y032626D01*
X025384Y032523D02*
X025350Y032489D01*
X025202Y036679D02*
X025202Y037123D01*
X025092Y037012D02*
X025313Y036790D01*
X025424Y036901D02*
X024981Y036901D01*
X025092Y036790D02*
X025313Y037012D01*
X023393Y036932D02*
X023345Y036884D01*
X023248Y036884D01*
X023200Y036932D01*
X023393Y037126D01*
X023393Y036932D01*
X023200Y036932D02*
X023200Y037126D01*
X023248Y037174D01*
X023345Y037174D01*
X023393Y037126D01*
X023099Y037174D02*
X023002Y037126D01*
X022905Y037029D01*
X023050Y037029D01*
X023099Y036980D01*
X023099Y036932D01*
X023050Y036884D01*
X022953Y036884D01*
X022905Y036932D01*
X022905Y037029D01*
X022804Y037029D02*
X022804Y036932D01*
X022756Y036884D01*
X022659Y036884D01*
X022610Y036932D01*
X022610Y037029D02*
X022707Y037077D01*
X022756Y037077D01*
X022804Y037029D01*
X022804Y037174D02*
X022610Y037174D01*
X022610Y037029D01*
X022509Y037077D02*
X022509Y037126D01*
X022461Y037174D01*
X022364Y037174D01*
X022316Y037126D01*
X022215Y037029D02*
X022215Y036884D01*
X022069Y036884D01*
X022021Y036932D01*
X022069Y036980D01*
X022215Y036980D01*
X022215Y037029D02*
X022166Y037077D01*
X022069Y037077D01*
X021920Y037077D02*
X021775Y037077D01*
X021726Y037029D01*
X021726Y036932D01*
X021775Y036884D01*
X021920Y036884D01*
X021920Y036835D02*
X021920Y037077D01*
X021920Y036835D02*
X021872Y036787D01*
X021823Y036787D01*
X021872Y036694D02*
X021920Y036646D01*
X021920Y036549D01*
X021872Y036500D01*
X021726Y036500D01*
X021726Y036404D02*
X021726Y036694D01*
X021872Y036694D01*
X021625Y036694D02*
X021432Y036694D01*
X021432Y036404D01*
X021331Y036404D02*
X021234Y036500D01*
X021282Y036404D02*
X021186Y036404D01*
X021137Y036452D01*
X021137Y036646D01*
X021186Y036694D01*
X021282Y036694D01*
X021331Y036646D01*
X021331Y036452D01*
X021282Y036404D01*
X021432Y036549D02*
X021529Y036549D01*
X021577Y036884D02*
X021480Y036884D01*
X021432Y036932D01*
X021432Y037029D01*
X021480Y037077D01*
X021577Y037077D01*
X021625Y037029D01*
X021625Y036980D01*
X021432Y036980D01*
X021331Y037029D02*
X021331Y036884D01*
X021234Y036884D02*
X021234Y037029D01*
X021282Y037077D01*
X021331Y037029D01*
X021234Y037029D02*
X021186Y037077D01*
X021137Y037077D01*
X021137Y036884D01*
X020939Y036884D02*
X020939Y037174D01*
X020842Y037174D02*
X021036Y037174D01*
X020741Y037077D02*
X020741Y036884D01*
X020741Y037029D02*
X020548Y037029D01*
X020548Y037077D02*
X020645Y037174D01*
X020741Y037077D01*
X020548Y037077D02*
X020548Y036884D01*
X020842Y036694D02*
X021036Y036694D01*
X020939Y036694D02*
X020939Y036404D01*
X022316Y036404D02*
X022509Y036404D01*
X022413Y036404D02*
X022413Y036694D01*
X022316Y036597D01*
X022316Y036884D02*
X022509Y037077D01*
X022509Y036884D02*
X022316Y036884D01*
X022610Y036646D02*
X022659Y036694D01*
X022756Y036694D01*
X022804Y036646D01*
X022610Y036452D01*
X022659Y036404D01*
X022756Y036404D01*
X022804Y036452D01*
X022804Y036646D01*
X022905Y036646D02*
X022953Y036694D01*
X023050Y036694D01*
X023099Y036646D01*
X022905Y036452D01*
X022953Y036404D01*
X023050Y036404D01*
X023099Y036452D01*
X023099Y036646D01*
X022905Y036646D02*
X022905Y036452D01*
X022610Y036452D02*
X022610Y036646D01*
X023502Y039214D02*
X023570Y039214D01*
X023638Y039282D01*
X023638Y039351D01*
X023710Y039422D02*
X023778Y039422D01*
X023847Y039491D01*
X023847Y039559D01*
X023778Y039628D01*
X023710Y039628D01*
X023676Y039593D01*
X023641Y039491D01*
X023539Y039593D01*
X023676Y039730D01*
X023502Y039488D02*
X023433Y039488D01*
X023365Y039419D01*
X023365Y039351D01*
X023502Y039214D01*
X021365Y041210D02*
X021172Y041017D01*
X021172Y040968D01*
X021071Y041017D02*
X021022Y040968D01*
X020925Y040968D01*
X020877Y041017D01*
X020776Y040968D02*
X020679Y041065D01*
X020728Y041065D02*
X020582Y041065D01*
X020582Y040968D02*
X020582Y041258D01*
X020728Y041258D01*
X020776Y041210D01*
X020776Y041113D01*
X020728Y041065D01*
X020877Y041210D02*
X020925Y041258D01*
X021022Y041258D01*
X021071Y041210D01*
X021071Y041162D01*
X021022Y041113D01*
X021071Y041065D01*
X021071Y041017D01*
X021022Y041113D02*
X020974Y041113D01*
X021172Y041258D02*
X021365Y041258D01*
X021365Y041210D01*
X021404Y044225D02*
X021597Y044225D01*
X021500Y044371D02*
X021404Y044371D01*
X021302Y044322D02*
X021302Y044274D01*
X021254Y044225D01*
X021157Y044225D01*
X021109Y044274D01*
X021157Y044371D02*
X021254Y044371D01*
X021302Y044322D01*
X021404Y044225D02*
X021404Y044516D01*
X021597Y044516D01*
X021698Y044516D02*
X021892Y044516D01*
X021795Y044516D02*
X021795Y044225D01*
X021302Y044467D02*
X021254Y044516D01*
X021157Y044516D01*
X021109Y044467D01*
X021109Y044419D01*
X021157Y044371D01*
X021008Y044516D02*
X020814Y044516D01*
X020814Y044225D01*
X021008Y044225D01*
X020911Y044371D02*
X020814Y044371D01*
X020713Y044371D02*
X020665Y044322D01*
X020520Y044322D01*
X020616Y044322D02*
X020713Y044225D01*
X020713Y044371D02*
X020713Y044467D01*
X020665Y044516D01*
X020520Y044516D01*
X020520Y044225D01*
X018088Y044274D02*
X018088Y044081D01*
X017895Y044274D01*
X017846Y044274D01*
X017798Y044226D01*
X017798Y044129D01*
X017846Y044081D01*
X017798Y043980D02*
X018088Y043786D01*
X018088Y043980D02*
X017798Y043786D01*
X017943Y044376D02*
X017943Y044569D01*
X017943Y044670D02*
X017943Y044864D01*
X017895Y044864D02*
X018088Y044864D01*
X018088Y044965D02*
X017798Y045158D01*
X017798Y045259D02*
X017798Y045356D01*
X017798Y045308D02*
X018088Y045308D01*
X018088Y045356D02*
X018088Y045259D01*
X018088Y045158D02*
X017798Y044965D01*
X017895Y044864D02*
X017798Y044767D01*
X017895Y044670D01*
X018088Y044670D01*
X018040Y045456D02*
X018088Y045504D01*
X018088Y045601D01*
X018040Y045649D01*
X017992Y045649D01*
X017943Y045601D01*
X017943Y045504D01*
X017895Y045456D01*
X017846Y045456D01*
X017798Y045504D01*
X017798Y045601D01*
X017846Y045649D01*
X017017Y045601D02*
X017017Y045504D01*
X016969Y045456D01*
X016872Y045504D02*
X016872Y045601D01*
X016921Y045649D01*
X016969Y045649D01*
X017017Y045601D01*
X016872Y045504D02*
X016824Y045456D01*
X016775Y045456D01*
X016727Y045504D01*
X016727Y045601D01*
X016775Y045649D01*
X016727Y045356D02*
X016727Y045259D01*
X016727Y045308D02*
X017017Y045308D01*
X017017Y045356D02*
X017017Y045259D01*
X017017Y045158D02*
X016727Y044965D01*
X016824Y044864D02*
X017017Y044864D01*
X017017Y044965D02*
X016727Y045158D01*
X016824Y044864D02*
X016727Y044767D01*
X016824Y044670D01*
X017017Y044670D01*
X016872Y044670D02*
X016872Y044864D01*
X016872Y044569D02*
X016872Y044376D01*
X016824Y044274D02*
X016872Y044226D01*
X016921Y044274D01*
X016969Y044274D01*
X017017Y044226D01*
X017017Y044129D01*
X016969Y044081D01*
X017017Y043980D02*
X016727Y043786D01*
X016727Y043980D02*
X017017Y043786D01*
X016775Y044081D02*
X016727Y044129D01*
X016727Y044226D01*
X016775Y044274D01*
X016824Y044274D01*
X016872Y044226D02*
X016872Y044178D01*
X015916Y044264D02*
X015916Y044071D01*
X015723Y044264D01*
X015674Y044264D01*
X015626Y044216D01*
X015626Y044119D01*
X015674Y044071D01*
X015626Y043970D02*
X015626Y043776D01*
X015916Y043776D01*
X015916Y043970D01*
X015771Y043873D02*
X015771Y043776D01*
X015771Y044366D02*
X015771Y044559D01*
X015771Y044660D02*
X015771Y044854D01*
X015723Y044854D02*
X015916Y044854D01*
X015916Y044955D02*
X015626Y045148D01*
X015626Y045249D02*
X015626Y045346D01*
X015626Y045298D02*
X015916Y045298D01*
X015916Y045346D02*
X015916Y045249D01*
X015916Y045148D02*
X015626Y044955D01*
X015723Y044854D02*
X015626Y044757D01*
X015723Y044660D01*
X015916Y044660D01*
X015868Y045446D02*
X015916Y045494D01*
X015916Y045591D01*
X015868Y045639D01*
X015819Y045639D01*
X015771Y045591D01*
X015771Y045494D01*
X015723Y045446D01*
X015674Y045446D01*
X015626Y045494D01*
X015626Y045591D01*
X015674Y045639D01*
X014774Y045611D02*
X014774Y045514D01*
X014726Y045466D01*
X014629Y045514D02*
X014629Y045611D01*
X014678Y045659D01*
X014726Y045659D01*
X014774Y045611D01*
X014629Y045514D02*
X014581Y045466D01*
X014533Y045466D01*
X014484Y045514D01*
X014484Y045611D01*
X014533Y045659D01*
X014484Y045366D02*
X014484Y045269D01*
X014484Y045318D02*
X014774Y045318D01*
X014774Y045366D02*
X014774Y045269D01*
X014774Y045168D02*
X014484Y044975D01*
X014581Y044874D02*
X014774Y044874D01*
X014774Y044975D02*
X014484Y045168D01*
X014581Y044874D02*
X014484Y044777D01*
X014581Y044680D01*
X014774Y044680D01*
X014629Y044680D02*
X014629Y044874D01*
X014629Y044579D02*
X014629Y044386D01*
X014581Y044284D02*
X014629Y044236D01*
X014678Y044284D01*
X014726Y044284D01*
X014774Y044236D01*
X014774Y044139D01*
X014726Y044091D01*
X014774Y043990D02*
X014774Y043796D01*
X014484Y043796D01*
X014484Y043990D01*
X014533Y044091D02*
X014484Y044139D01*
X014484Y044236D01*
X014533Y044284D01*
X014581Y044284D01*
X014629Y044236D02*
X014629Y044188D01*
X014629Y043893D02*
X014629Y043796D01*
X014877Y043321D02*
X015082Y043116D01*
X015014Y043048D02*
X015151Y043184D01*
X014877Y043184D02*
X014877Y043321D01*
X014771Y043147D02*
X014703Y043147D01*
X014634Y043079D01*
X014634Y043010D01*
X014771Y042873D01*
X014840Y042873D01*
X014908Y042942D01*
X014908Y043010D01*
X013911Y041945D02*
X013775Y041808D01*
X013775Y042082D01*
X013740Y042116D01*
X013672Y042116D01*
X013603Y042048D01*
X013603Y041979D01*
X013532Y041908D02*
X013464Y041908D01*
X013395Y041839D01*
X013395Y041771D01*
X013532Y041634D01*
X013600Y041634D01*
X013669Y041703D01*
X013669Y041771D01*
X012529Y043182D02*
X012577Y043230D01*
X012577Y043327D01*
X012529Y043375D01*
X012577Y043476D02*
X012384Y043476D01*
X012287Y043573D01*
X012384Y043670D01*
X012577Y043670D01*
X012577Y043771D02*
X012287Y043771D01*
X012287Y043916D01*
X012336Y043965D01*
X012432Y043965D01*
X012481Y043916D01*
X012481Y043771D01*
X012481Y043868D02*
X012577Y043965D01*
X012577Y044066D02*
X012287Y044066D01*
X012287Y044211D01*
X012336Y044259D01*
X012432Y044259D01*
X012481Y044211D01*
X012481Y044066D01*
X012481Y044162D02*
X012577Y044259D01*
X012577Y044360D02*
X012577Y044457D01*
X012577Y044409D02*
X012287Y044409D01*
X012287Y044457D02*
X012287Y044360D01*
X012384Y044557D02*
X012287Y044654D01*
X012384Y044750D01*
X012577Y044750D01*
X012529Y044851D02*
X012577Y044900D01*
X012577Y044997D01*
X012529Y045045D01*
X012432Y045045D01*
X012432Y044948D01*
X012336Y044851D02*
X012529Y044851D01*
X012432Y044750D02*
X012432Y044557D01*
X012384Y044557D02*
X012577Y044557D01*
X012336Y044851D02*
X012287Y044900D01*
X012287Y044997D01*
X012336Y045045D01*
X012287Y045146D02*
X012577Y045146D01*
X012577Y045340D01*
X012529Y045441D02*
X012577Y045489D01*
X012577Y045586D01*
X012529Y045634D01*
X012481Y045634D01*
X012432Y045586D01*
X012432Y045538D01*
X012432Y045586D02*
X012384Y045634D01*
X012336Y045634D01*
X012287Y045586D01*
X012287Y045489D01*
X012336Y045441D01*
X012287Y045340D02*
X012287Y045146D01*
X012432Y045146D02*
X012432Y045243D01*
X011921Y045464D02*
X011728Y045464D01*
X011825Y045464D02*
X011825Y045754D01*
X011728Y045657D01*
X011479Y045634D02*
X011479Y045441D01*
X011285Y045634D01*
X011237Y045634D01*
X011189Y045586D01*
X011189Y045489D01*
X011237Y045441D01*
X011189Y045340D02*
X011189Y045146D01*
X011479Y045146D01*
X011479Y045340D01*
X011334Y045243D02*
X011334Y045146D01*
X011334Y045045D02*
X011334Y044948D01*
X011334Y045045D02*
X011431Y045045D01*
X011479Y044997D01*
X011479Y044900D01*
X011431Y044851D01*
X011237Y044851D01*
X011189Y044900D01*
X011189Y044997D01*
X011237Y045045D01*
X011285Y044750D02*
X011479Y044750D01*
X011334Y044750D02*
X011334Y044557D01*
X011285Y044557D02*
X011189Y044654D01*
X011285Y044750D01*
X011285Y044557D02*
X011479Y044557D01*
X011479Y044457D02*
X011479Y044360D01*
X011479Y044409D02*
X011189Y044409D01*
X011189Y044457D02*
X011189Y044360D01*
X011237Y044259D02*
X011334Y044259D01*
X011382Y044211D01*
X011382Y044066D01*
X011382Y044162D02*
X011479Y044259D01*
X011479Y044066D02*
X011189Y044066D01*
X011189Y044211D01*
X011237Y044259D01*
X011237Y043965D02*
X011334Y043965D01*
X011382Y043916D01*
X011382Y043771D01*
X011382Y043868D02*
X011479Y043965D01*
X011479Y043771D02*
X011189Y043771D01*
X011189Y043916D01*
X011237Y043965D01*
X011285Y043670D02*
X011479Y043670D01*
X011334Y043670D02*
X011334Y043476D01*
X011285Y043476D02*
X011189Y043573D01*
X011285Y043670D01*
X011285Y043476D02*
X011479Y043476D01*
X011431Y043375D02*
X011479Y043327D01*
X011479Y043230D01*
X011431Y043182D01*
X011237Y043182D01*
X011189Y043230D01*
X011189Y043327D01*
X011237Y043375D01*
X012287Y043327D02*
X012287Y043230D01*
X012336Y043182D01*
X012529Y043182D01*
X012336Y043375D02*
X012287Y043327D01*
X012432Y043476D02*
X012432Y043670D01*
X013399Y043766D02*
X013447Y043766D01*
X013544Y043863D01*
X013689Y043863D01*
X013544Y043863D02*
X013447Y043960D01*
X013399Y043960D01*
X013495Y044061D02*
X013399Y044158D01*
X013689Y044158D01*
X013689Y044254D02*
X013689Y044061D01*
X013544Y044356D02*
X013544Y044549D01*
X013544Y044650D02*
X013544Y044844D01*
X013495Y044844D02*
X013689Y044844D01*
X013689Y044945D02*
X013399Y045138D01*
X013399Y045239D02*
X013399Y045336D01*
X013399Y045288D02*
X013689Y045288D01*
X013689Y045336D02*
X013689Y045239D01*
X013689Y045138D02*
X013399Y044945D01*
X013495Y044844D02*
X013399Y044747D01*
X013495Y044650D01*
X013689Y044650D01*
X013640Y045436D02*
X013689Y045484D01*
X013689Y045581D01*
X013640Y045629D01*
X013592Y045629D01*
X013544Y045581D01*
X013544Y045484D01*
X013495Y045436D01*
X013447Y045436D01*
X013399Y045484D01*
X013399Y045581D01*
X013447Y045629D01*
X009941Y045717D02*
X009941Y045766D01*
X009893Y045814D01*
X009796Y045814D01*
X009748Y045766D01*
X009941Y045717D02*
X009748Y045524D01*
X009941Y045524D01*
X009893Y044794D02*
X009941Y044746D01*
X009941Y044697D01*
X009893Y044649D01*
X009941Y044600D01*
X009941Y044552D01*
X009893Y044504D01*
X009796Y044504D01*
X009748Y044552D01*
X009845Y044649D02*
X009893Y044649D01*
X009893Y044794D02*
X009796Y044794D01*
X009748Y044746D01*
X009842Y043796D02*
X009794Y043747D01*
X009794Y043650D01*
X009842Y043602D01*
X009794Y043501D02*
X009987Y043501D01*
X010084Y043404D01*
X009987Y043307D01*
X009794Y043307D01*
X009794Y043206D02*
X010084Y043206D01*
X010084Y043061D01*
X010036Y043013D01*
X009939Y043013D01*
X009891Y043061D01*
X009891Y043206D01*
X009891Y043109D02*
X009794Y043013D01*
X009794Y042912D02*
X010084Y042912D01*
X010084Y042766D01*
X010036Y042718D01*
X009939Y042718D01*
X009891Y042766D01*
X009891Y042912D01*
X009891Y042815D02*
X009794Y042718D01*
X009794Y042617D02*
X009794Y042520D01*
X009794Y042569D02*
X010084Y042569D01*
X010084Y042617D02*
X010084Y042520D01*
X009987Y042421D02*
X010084Y042324D01*
X009987Y042227D01*
X009794Y042227D01*
X009842Y042126D02*
X009794Y042077D01*
X009794Y041981D01*
X009842Y041932D01*
X009939Y041932D01*
X009939Y042029D01*
X010036Y041932D02*
X010084Y041981D01*
X010084Y042077D01*
X010036Y042126D01*
X009842Y042126D01*
X009939Y042227D02*
X009939Y042421D01*
X009987Y042421D02*
X009794Y042421D01*
X009794Y041831D02*
X009794Y041638D01*
X009842Y041537D02*
X010036Y041343D01*
X009842Y041343D01*
X009794Y041391D01*
X009794Y041488D01*
X009842Y041537D01*
X010036Y041537D01*
X010084Y041488D01*
X010084Y041391D01*
X010036Y041343D01*
X010084Y041638D02*
X010084Y041831D01*
X009794Y041831D01*
X009939Y041831D02*
X009939Y041734D01*
X009927Y041014D02*
X009879Y040966D01*
X009879Y040772D01*
X009927Y040724D01*
X010024Y040724D01*
X010072Y040772D01*
X010072Y040869D01*
X009976Y040869D01*
X010072Y040966D02*
X010024Y041014D01*
X009927Y041014D01*
X009779Y041014D02*
X009682Y041014D01*
X009731Y041014D02*
X009731Y040724D01*
X009779Y040724D02*
X009682Y040724D01*
X009581Y040772D02*
X009533Y040724D01*
X009436Y040724D01*
X009388Y040772D01*
X009436Y040869D02*
X009533Y040869D01*
X009581Y040820D01*
X009581Y040772D01*
X009436Y040869D02*
X009388Y040917D01*
X009388Y040966D01*
X009436Y041014D01*
X009533Y041014D01*
X009581Y040966D01*
X009031Y040966D02*
X008982Y041014D01*
X008837Y041014D01*
X008837Y040724D01*
X008982Y040724D01*
X009031Y040772D01*
X009031Y040966D01*
X008736Y041014D02*
X008736Y040724D01*
X008542Y041014D01*
X008542Y040724D01*
X008441Y040772D02*
X008441Y040869D01*
X008345Y040869D01*
X008441Y040966D02*
X008393Y041014D01*
X008296Y041014D01*
X008248Y040966D01*
X008248Y040772D01*
X008296Y040724D01*
X008393Y040724D01*
X008441Y040772D01*
X008011Y040820D02*
X008011Y041014D01*
X008011Y040820D02*
X007914Y040724D01*
X007817Y040820D01*
X007817Y041014D01*
X007716Y041014D02*
X007522Y041014D01*
X007522Y040869D01*
X007619Y040917D01*
X007668Y040917D01*
X007716Y040869D01*
X007716Y040772D01*
X007668Y040724D01*
X007571Y040724D01*
X007522Y040772D01*
X007421Y040869D02*
X007228Y040869D01*
X007325Y040966D02*
X007325Y040772D01*
X007275Y041150D02*
X007226Y041150D01*
X007178Y041199D01*
X007178Y041296D01*
X007226Y041344D01*
X007323Y041296D02*
X007323Y041199D01*
X007275Y041150D01*
X007420Y041150D02*
X007468Y041199D01*
X007468Y041296D01*
X007420Y041344D01*
X007371Y041344D01*
X007323Y041296D01*
X007468Y041444D02*
X007468Y041540D01*
X007468Y041492D02*
X007178Y041492D01*
X007178Y041540D02*
X007178Y041444D01*
X007178Y041642D02*
X007468Y041835D01*
X007371Y041936D02*
X007178Y041936D01*
X007178Y041835D02*
X007468Y041642D01*
X007371Y041936D02*
X007468Y042033D01*
X007371Y042130D01*
X007178Y042130D01*
X007323Y042130D02*
X007323Y041936D01*
X007323Y042231D02*
X007323Y042424D01*
X007420Y042526D02*
X007226Y042719D01*
X007178Y042671D01*
X007178Y042574D01*
X007226Y042526D01*
X007420Y042526D01*
X007468Y042574D01*
X007468Y042671D01*
X007420Y042719D01*
X007226Y042719D01*
X007178Y042820D02*
X007178Y043014D01*
X007468Y043014D01*
X007468Y042820D01*
X007323Y042917D02*
X007323Y043014D01*
X007276Y043484D02*
X007228Y043532D01*
X007276Y043484D02*
X007373Y043484D01*
X007421Y043532D01*
X007421Y043580D01*
X007373Y043629D01*
X007325Y043629D01*
X007373Y043629D02*
X007421Y043677D01*
X007421Y043726D01*
X007373Y043774D01*
X007276Y043774D01*
X007228Y043726D01*
X007373Y044504D02*
X007373Y044794D01*
X007228Y044649D01*
X007421Y044649D01*
X007373Y045524D02*
X007276Y045524D01*
X007228Y045572D01*
X007228Y045669D02*
X007325Y045717D01*
X007373Y045717D01*
X007421Y045669D01*
X007421Y045572D01*
X007373Y045524D01*
X007228Y045669D02*
X007228Y045814D01*
X007421Y045814D01*
X007373Y046484D02*
X007421Y046532D01*
X007421Y046580D01*
X007373Y046629D01*
X007228Y046629D01*
X007228Y046532D01*
X007276Y046484D01*
X007373Y046484D01*
X007228Y046629D02*
X007325Y046726D01*
X007421Y046774D01*
X009748Y046737D02*
X009845Y046834D01*
X009845Y046544D01*
X009941Y046544D02*
X009748Y046544D01*
X009842Y043796D02*
X010036Y043796D01*
X010084Y043747D01*
X010084Y043650D01*
X010036Y043602D01*
X009939Y043501D02*
X009939Y043307D01*
X015569Y041229D02*
X015603Y041194D01*
X015740Y041194D01*
X015842Y041092D01*
X015740Y041194D02*
X015740Y041331D01*
X015706Y041366D01*
X015845Y041369D02*
X015845Y041505D01*
X016051Y041300D01*
X015982Y041232D02*
X016119Y041369D01*
X017395Y039955D02*
X017464Y039955D01*
X017532Y039886D01*
X017532Y039818D01*
X017430Y039715D01*
X017498Y039647D02*
X017293Y039852D01*
X017395Y039955D01*
X017570Y039992D02*
X017570Y040129D01*
X017775Y039923D01*
X017706Y039855D02*
X017843Y039992D01*
X017635Y039784D02*
X017498Y039784D01*
X016504Y034227D02*
X016435Y034227D01*
X016298Y034090D01*
X016298Y034022D01*
X016367Y033953D01*
X016435Y033953D01*
X016575Y033950D02*
X016712Y033813D01*
X016575Y033745D02*
X016780Y033950D01*
X016575Y033950D01*
X016572Y034090D02*
X016572Y034158D01*
X016504Y034227D01*
X014472Y031234D02*
X014376Y031234D01*
X014327Y031186D01*
X014327Y031137D01*
X014376Y031089D01*
X014521Y031089D01*
X014521Y030992D02*
X014521Y031186D01*
X014472Y031234D01*
X014521Y030992D02*
X014472Y030944D01*
X014376Y030944D01*
X014327Y030992D01*
X014226Y030944D02*
X014032Y030944D01*
X014129Y030944D02*
X014129Y031234D01*
X014032Y031137D01*
X013931Y031089D02*
X013883Y031040D01*
X013738Y031040D01*
X013738Y030944D02*
X013738Y031234D01*
X013883Y031234D01*
X013931Y031186D01*
X013931Y031089D01*
X013835Y031040D02*
X013931Y030944D01*
X015915Y030075D02*
X015963Y030123D01*
X016060Y030123D01*
X016108Y030075D01*
X016108Y029881D01*
X016060Y029833D01*
X015963Y029833D01*
X015915Y029881D01*
X015915Y030075D01*
X016012Y029929D02*
X016108Y029833D01*
X016209Y029833D02*
X016403Y030026D01*
X016403Y030075D01*
X016355Y030123D01*
X016258Y030123D01*
X016209Y030075D01*
X016209Y029833D02*
X016403Y029833D01*
X019328Y029594D02*
X019328Y029304D01*
X019328Y029400D02*
X019473Y029400D01*
X019521Y029449D01*
X019521Y029546D01*
X019473Y029594D01*
X019328Y029594D01*
X019425Y029400D02*
X019521Y029304D01*
X019622Y029304D02*
X019816Y029304D01*
X019719Y029304D02*
X019719Y029594D01*
X019622Y029497D01*
X019917Y029449D02*
X020062Y029449D01*
X020111Y029400D01*
X020111Y029352D01*
X020062Y029304D01*
X019966Y029304D01*
X019917Y029352D01*
X019917Y029449D01*
X020014Y029546D01*
X020111Y029594D01*
X020101Y027584D02*
X020101Y027536D01*
X019907Y027342D01*
X019907Y027294D01*
X019806Y027294D02*
X019612Y027294D01*
X019709Y027294D02*
X019709Y027584D01*
X019612Y027487D01*
X019511Y027439D02*
X019511Y027536D01*
X019463Y027584D01*
X019318Y027584D01*
X019318Y027294D01*
X019318Y027390D02*
X019463Y027390D01*
X019511Y027439D01*
X019415Y027390D02*
X019511Y027294D01*
X019907Y027584D02*
X020101Y027584D01*
X012354Y018921D02*
X012402Y018873D01*
X012402Y018824D01*
X012354Y018776D01*
X012208Y018776D01*
X012107Y018728D02*
X012107Y018679D01*
X012059Y018631D01*
X011962Y018631D01*
X011914Y018679D01*
X011813Y018679D02*
X011813Y018921D01*
X011914Y018873D02*
X011914Y018824D01*
X011962Y018776D01*
X012059Y018776D01*
X012107Y018728D01*
X012208Y018631D02*
X012354Y018631D01*
X012402Y018679D01*
X012402Y018728D01*
X012354Y018776D01*
X012354Y018921D02*
X012208Y018921D01*
X012208Y018631D01*
X012107Y018873D02*
X012059Y018921D01*
X011962Y018921D01*
X011914Y018873D01*
X011813Y018679D02*
X011764Y018631D01*
X011668Y018631D01*
X011619Y018679D01*
X011619Y018921D01*
X011325Y028057D02*
X011228Y028057D01*
X011179Y028106D01*
X011078Y028106D02*
X011078Y028299D01*
X011030Y028348D01*
X010885Y028348D01*
X010885Y028057D01*
X011030Y028057D01*
X011078Y028106D01*
X011179Y028299D02*
X011228Y028348D01*
X011325Y028348D01*
X011373Y028299D01*
X011373Y028251D01*
X011325Y028202D01*
X011373Y028154D01*
X011373Y028106D01*
X011325Y028057D01*
X011325Y028202D02*
X011276Y028202D01*
X010024Y029204D02*
X009831Y029204D01*
X010024Y029397D01*
X010024Y029445D01*
X009976Y029494D01*
X009879Y029494D01*
X009831Y029445D01*
X009729Y029445D02*
X009729Y029349D01*
X009681Y029300D01*
X009536Y029300D01*
X009536Y029204D02*
X009536Y029494D01*
X009681Y029494D01*
X009729Y029445D01*
X009633Y029300D02*
X009729Y029204D01*
X010524Y029912D02*
X010573Y029864D01*
X010670Y029864D01*
X010718Y029912D01*
X010819Y029912D02*
X010867Y029864D01*
X010964Y029864D01*
X011013Y029912D01*
X011013Y030105D01*
X010964Y030154D01*
X010867Y030154D01*
X010819Y030105D01*
X010819Y030057D01*
X010867Y030009D01*
X011013Y030009D01*
X010718Y030105D02*
X010670Y030154D01*
X010573Y030154D01*
X010524Y030105D01*
X010524Y029912D01*
X010492Y030319D02*
X010589Y030416D01*
X010589Y030610D01*
X010690Y030610D02*
X010690Y030319D01*
X010883Y030319D01*
X010492Y030319D02*
X010395Y030416D01*
X010395Y030610D01*
X010101Y030610D02*
X010101Y030319D01*
X010294Y030319D01*
X009999Y030319D02*
X009999Y030513D01*
X009903Y030610D01*
X009806Y030513D01*
X009806Y030319D01*
X009806Y030465D02*
X009999Y030465D01*
X010042Y031564D02*
X010042Y031854D01*
X009941Y031854D02*
X009748Y031854D01*
X009845Y031854D02*
X009845Y031564D01*
X010042Y031709D02*
X010236Y031709D01*
X010337Y031709D02*
X010434Y031709D01*
X010531Y031854D02*
X010337Y031854D01*
X010337Y031564D01*
X010531Y031564D01*
X010632Y031564D02*
X010632Y031854D01*
X010777Y031854D01*
X010825Y031806D01*
X010825Y031709D01*
X010777Y031660D01*
X010632Y031660D01*
X010729Y031660D02*
X010825Y031564D01*
X010926Y031564D02*
X010926Y031854D01*
X011023Y031757D01*
X011120Y031854D01*
X011120Y031564D01*
X010236Y031564D02*
X010236Y031854D01*
X010212Y032664D02*
X010116Y032664D01*
X010067Y032712D01*
X010067Y032760D01*
X010116Y032809D01*
X010212Y032809D01*
X010261Y032760D01*
X010261Y032712D01*
X010212Y032664D01*
X010212Y032809D02*
X010261Y032857D01*
X010261Y032906D01*
X010212Y032954D01*
X010116Y032954D01*
X010067Y032906D01*
X010067Y032857D01*
X010116Y032809D01*
X009966Y032857D02*
X009966Y032906D01*
X009918Y032954D01*
X009821Y032954D01*
X009772Y032906D01*
X009671Y032906D02*
X009671Y032809D01*
X009623Y032760D01*
X009478Y032760D01*
X009478Y032664D02*
X009478Y032954D01*
X009623Y032954D01*
X009671Y032906D01*
X009575Y032760D02*
X009671Y032664D01*
X009772Y032664D02*
X009966Y032857D01*
X009966Y032664D02*
X009772Y032664D01*
X009606Y033214D02*
X009509Y033214D01*
X009460Y033262D01*
X009509Y033359D02*
X009606Y033359D01*
X009654Y033310D01*
X009654Y033262D01*
X009606Y033214D01*
X009509Y033359D02*
X009460Y033407D01*
X009460Y033456D01*
X009509Y033504D01*
X009606Y033504D01*
X009654Y033456D01*
X009359Y033456D02*
X009359Y033359D01*
X009311Y033310D01*
X009166Y033310D01*
X009166Y033214D02*
X009166Y033504D01*
X009311Y033504D01*
X009359Y033456D01*
X009065Y033456D02*
X009016Y033504D01*
X008919Y033504D01*
X008871Y033456D01*
X008871Y033262D01*
X008919Y033214D01*
X009016Y033214D01*
X009065Y033262D01*
X009065Y033456D01*
X008770Y033504D02*
X008576Y033504D01*
X008673Y033504D02*
X008673Y033214D01*
X008475Y033262D02*
X008427Y033214D01*
X008330Y033214D01*
X008282Y033262D01*
X008181Y033262D02*
X008181Y033456D01*
X008132Y033504D01*
X007987Y033504D01*
X007987Y033214D01*
X008132Y033214D01*
X008181Y033262D01*
X008282Y033407D02*
X008330Y033359D01*
X008427Y033359D01*
X008475Y033310D01*
X008475Y033262D01*
X008475Y033456D02*
X008427Y033504D01*
X008330Y033504D01*
X008282Y033456D01*
X008282Y033407D01*
X007886Y033504D02*
X007886Y033214D01*
X007692Y033504D01*
X007692Y033214D01*
X007591Y033214D02*
X007398Y033214D01*
X007398Y033504D01*
X007591Y033504D01*
X007495Y033359D02*
X007398Y033359D01*
X010368Y033512D02*
X010416Y033464D01*
X010513Y033464D01*
X010561Y033512D01*
X010662Y033464D02*
X010856Y033464D01*
X010759Y033464D02*
X010759Y033754D01*
X010662Y033657D01*
X010561Y033706D02*
X010513Y033754D01*
X010416Y033754D01*
X010368Y033706D01*
X010368Y033512D01*
X010957Y033512D02*
X011006Y033464D01*
X011102Y033464D01*
X011151Y033512D01*
X011151Y033609D01*
X011102Y033657D01*
X011054Y033657D01*
X010957Y033609D01*
X010957Y033754D01*
X011151Y033754D01*
X018616Y046124D02*
X018713Y046124D01*
X018761Y046172D01*
X018761Y046220D01*
X018713Y046269D01*
X018568Y046269D01*
X018568Y046172D01*
X018616Y046124D01*
X018568Y046269D02*
X018665Y046366D01*
X018761Y046414D01*
X019038Y046808D02*
X019232Y047098D01*
X019333Y047001D02*
X019429Y047098D01*
X019429Y046808D01*
X019333Y046808D02*
X019526Y046808D01*
X019627Y046953D02*
X019821Y046953D01*
X019922Y046953D02*
X020115Y046953D01*
X020115Y047001D02*
X020115Y046808D01*
X020217Y046808D02*
X020410Y047098D01*
X020511Y047098D02*
X020608Y047098D01*
X020560Y047098D02*
X020560Y046808D01*
X020608Y046808D02*
X020511Y046808D01*
X020410Y046808D02*
X020217Y047098D01*
X020115Y047001D02*
X020019Y047098D01*
X019922Y047001D01*
X019922Y046808D01*
X019903Y047292D02*
X019903Y047486D01*
X020000Y047583D01*
X020096Y047486D01*
X020096Y047292D01*
X020197Y047292D02*
X020391Y047583D01*
X020492Y047583D02*
X020589Y047583D01*
X020540Y047583D02*
X020540Y047292D01*
X020492Y047292D02*
X020589Y047292D01*
X020689Y047341D02*
X020737Y047292D01*
X020834Y047292D01*
X020882Y047341D01*
X020882Y047389D01*
X020834Y047437D01*
X020737Y047437D01*
X020689Y047486D01*
X020689Y047534D01*
X020737Y047583D01*
X020834Y047583D01*
X020882Y047534D01*
X020853Y047098D02*
X020756Y047098D01*
X020708Y047049D01*
X020708Y047001D01*
X020756Y046953D01*
X020853Y046953D01*
X020901Y046904D01*
X020901Y046856D01*
X020853Y046808D01*
X020756Y046808D01*
X020708Y046856D01*
X020901Y047049D02*
X020853Y047098D01*
X020391Y047292D02*
X020197Y047583D01*
X020096Y047437D02*
X019903Y047437D01*
X019802Y047437D02*
X019608Y047437D01*
X019507Y047341D02*
X019459Y047292D01*
X019362Y047292D01*
X019313Y047341D01*
X019507Y047534D01*
X019507Y047341D01*
X019507Y047534D02*
X019459Y047583D01*
X019362Y047583D01*
X019313Y047534D01*
X019313Y047341D01*
X019212Y047292D02*
X019019Y047583D01*
X019212Y047583D02*
X019019Y047292D01*
X019038Y047098D02*
X019232Y046808D01*
X024983Y047061D02*
X025080Y046964D01*
X025080Y046819D01*
X025080Y046964D02*
X025176Y047061D01*
X025176Y047109D01*
X025277Y047061D02*
X025326Y047109D01*
X025423Y047109D01*
X025471Y047061D01*
X025277Y046867D01*
X025326Y046819D01*
X025423Y046819D01*
X025471Y046867D01*
X025471Y047061D01*
X025572Y046964D02*
X025766Y046964D01*
X025867Y046964D02*
X026060Y046964D01*
X026060Y047012D02*
X026060Y046819D01*
X026161Y046819D02*
X026355Y047109D01*
X026456Y047109D02*
X026553Y047109D01*
X026504Y047109D02*
X026504Y046819D01*
X026456Y046819D02*
X026553Y046819D01*
X026653Y046867D02*
X026701Y046819D01*
X026798Y046819D01*
X026846Y046867D01*
X026846Y046915D01*
X026798Y046964D01*
X026701Y046964D01*
X026653Y047012D01*
X026653Y047061D01*
X026701Y047109D01*
X026798Y047109D01*
X026846Y047061D01*
X026538Y047361D02*
X026489Y047313D01*
X026393Y047313D01*
X026344Y047361D01*
X026393Y047458D02*
X026489Y047458D01*
X026538Y047410D01*
X026538Y047361D01*
X026393Y047458D02*
X026344Y047506D01*
X026344Y047555D01*
X026393Y047603D01*
X026489Y047603D01*
X026538Y047555D01*
X026245Y047603D02*
X026148Y047603D01*
X026196Y047603D02*
X026196Y047313D01*
X026148Y047313D02*
X026245Y047313D01*
X026047Y047313D02*
X025853Y047603D01*
X025752Y047506D02*
X025752Y047313D01*
X025853Y047313D02*
X026047Y047603D01*
X025752Y047506D02*
X025655Y047603D01*
X025558Y047506D01*
X025558Y047313D01*
X025558Y047458D02*
X025752Y047458D01*
X025457Y047458D02*
X025264Y047458D01*
X025163Y047555D02*
X024969Y047361D01*
X024969Y047313D01*
X025163Y047313D01*
X025163Y047555D02*
X025163Y047603D01*
X024969Y047603D01*
X024983Y047109D02*
X024983Y047061D01*
X025277Y047061D02*
X025277Y046867D01*
X025867Y046819D02*
X025867Y047012D01*
X025964Y047109D01*
X026060Y047012D01*
X026161Y047109D02*
X026355Y046819D01*
X028768Y046017D02*
X028768Y045824D01*
X028768Y045969D02*
X028961Y045969D01*
X028961Y046017D02*
X028961Y045824D01*
X029062Y045824D02*
X029256Y046114D01*
X029357Y046114D02*
X029454Y046114D01*
X029406Y046114D02*
X029406Y045824D01*
X029454Y045824D02*
X029357Y045824D01*
X029256Y045824D02*
X029062Y046114D01*
X028961Y046017D02*
X028865Y046114D01*
X028768Y046017D01*
X028768Y045489D02*
X028961Y045489D01*
X029062Y045489D02*
X029256Y045489D01*
X029357Y045489D02*
X029551Y045489D01*
X029652Y045489D02*
X029845Y045489D01*
X029946Y045489D02*
X030140Y045489D01*
X030241Y045489D02*
X030435Y045489D01*
X030536Y045489D02*
X030729Y045489D01*
X030830Y045489D02*
X031024Y045489D01*
X031125Y045489D02*
X031319Y045489D01*
X031420Y045489D02*
X031613Y045489D01*
X031756Y045274D02*
X031853Y045274D01*
X031901Y045226D01*
X031901Y045177D01*
X031853Y045129D01*
X031901Y045080D01*
X031901Y045032D01*
X031853Y044984D01*
X031756Y044984D01*
X031708Y045032D01*
X031805Y045129D02*
X031853Y045129D01*
X031708Y045226D02*
X031756Y045274D01*
X031708Y046004D02*
X031901Y046197D01*
X031901Y046246D01*
X031853Y046294D01*
X031756Y046294D01*
X031708Y046246D01*
X031708Y046004D02*
X031901Y046004D01*
X031901Y047024D02*
X031708Y047024D01*
X031805Y047024D02*
X031805Y047314D01*
X031708Y047217D01*
X031013Y048104D02*
X030916Y048104D01*
X030868Y048152D01*
X030868Y048249D01*
X031013Y048249D01*
X031061Y048200D01*
X031061Y048152D01*
X031013Y048104D01*
X030868Y048249D02*
X030965Y048346D01*
X031061Y048394D01*
X031013Y049244D02*
X031061Y049292D01*
X031061Y049340D01*
X031013Y049389D01*
X030868Y049389D01*
X030868Y049292D01*
X030916Y049244D01*
X031013Y049244D01*
X030868Y049389D02*
X030965Y049486D01*
X031061Y049534D01*
X029699Y046114D02*
X029602Y046114D01*
X029554Y046066D01*
X029554Y046017D01*
X029602Y045969D01*
X029699Y045969D01*
X029747Y045920D01*
X029747Y045872D01*
X029699Y045824D01*
X029602Y045824D01*
X029554Y045872D01*
X029747Y046066D02*
X029699Y046114D01*
X029551Y045154D02*
X029357Y044864D01*
X029551Y044674D02*
X029357Y044384D01*
X029551Y044194D02*
X029357Y043904D01*
X029551Y043714D02*
X029357Y043424D01*
X029551Y043234D02*
X029357Y042944D01*
X029551Y042754D02*
X029357Y042464D01*
X028961Y042512D02*
X028961Y042560D01*
X028913Y042609D01*
X028768Y042609D01*
X028768Y042512D01*
X028816Y042464D01*
X028913Y042464D01*
X028961Y042512D01*
X028865Y042706D02*
X028768Y042609D01*
X028865Y042706D02*
X028961Y042754D01*
X028913Y042944D02*
X028816Y042944D01*
X028768Y042992D01*
X028768Y043089D02*
X028865Y043137D01*
X028913Y043137D01*
X028961Y043089D01*
X028961Y042992D01*
X028913Y042944D01*
X028768Y043089D02*
X028768Y043234D01*
X028961Y043234D01*
X028913Y043424D02*
X028913Y043714D01*
X028768Y043569D01*
X028961Y043569D01*
X028913Y043904D02*
X028816Y043904D01*
X028768Y043952D01*
X028865Y044049D02*
X028913Y044049D01*
X028961Y044000D01*
X028961Y043952D01*
X028913Y043904D01*
X028913Y044049D02*
X028961Y044097D01*
X028961Y044146D01*
X028913Y044194D01*
X028816Y044194D01*
X028768Y044146D01*
X028768Y044384D02*
X028961Y044577D01*
X028961Y044626D01*
X028913Y044674D01*
X028816Y044674D01*
X028768Y044626D01*
X028768Y044864D02*
X028961Y044864D01*
X028865Y044864D02*
X028865Y045154D01*
X028768Y045057D01*
X028768Y044384D02*
X028961Y044384D01*
X029946Y044432D02*
X029995Y044384D01*
X030092Y044384D01*
X030140Y044432D01*
X030140Y044529D01*
X030043Y044529D01*
X029946Y044626D02*
X029946Y044432D01*
X029946Y044626D02*
X029995Y044674D01*
X030092Y044674D01*
X030140Y044626D01*
X030241Y044674D02*
X030435Y044384D01*
X030435Y044674D01*
X030536Y044674D02*
X030681Y044674D01*
X030729Y044626D01*
X030729Y044432D01*
X030681Y044384D01*
X030536Y044384D01*
X030536Y044674D01*
X030633Y044864D02*
X030729Y044960D01*
X030729Y045154D01*
X030536Y045154D02*
X030536Y044960D01*
X030633Y044864D01*
X030435Y045009D02*
X030241Y045009D01*
X030386Y045154D01*
X030386Y044864D01*
X030241Y044674D02*
X030241Y044384D01*
X030241Y044194D02*
X030241Y044000D01*
X030338Y043904D01*
X030435Y044000D01*
X030435Y044194D01*
X030140Y044194D02*
X029946Y044194D01*
X029946Y044049D01*
X030043Y044097D01*
X030092Y044097D01*
X030140Y044049D01*
X030140Y043952D01*
X030092Y043904D01*
X029995Y043904D01*
X029946Y043952D01*
X029931Y043774D02*
X030521Y043774D01*
X030435Y043714D02*
X030435Y043424D01*
X030241Y043714D01*
X030241Y043424D01*
X030140Y043424D02*
X029946Y043424D01*
X029946Y043714D01*
X030140Y043714D01*
X030043Y043569D02*
X029946Y043569D01*
X029946Y043234D02*
X030092Y043234D01*
X030140Y043186D01*
X030140Y042992D01*
X030092Y042944D01*
X029946Y042944D01*
X029946Y043234D01*
X030241Y043234D02*
X030338Y043234D01*
X030289Y043234D02*
X030289Y042944D01*
X030241Y042944D02*
X030338Y042944D01*
X030438Y042944D02*
X030438Y043234D01*
X030583Y043234D01*
X030631Y043186D01*
X030631Y043089D01*
X030583Y043040D01*
X030438Y043040D01*
X030534Y043040D02*
X030631Y042944D01*
X030536Y042754D02*
X030536Y042464D01*
X030729Y042464D01*
X030830Y042464D02*
X030830Y042754D01*
X030976Y042754D01*
X031024Y042706D01*
X031024Y042609D01*
X030976Y042560D01*
X030830Y042560D01*
X030633Y042609D02*
X030536Y042609D01*
X030536Y042754D02*
X030729Y042754D01*
X030435Y042754D02*
X030241Y042754D01*
X030338Y042754D02*
X030338Y042464D01*
X030140Y042512D02*
X030092Y042464D01*
X029995Y042464D01*
X029946Y042512D01*
X029995Y042609D02*
X030092Y042609D01*
X030140Y042560D01*
X030140Y042512D01*
X029995Y042609D02*
X029946Y042657D01*
X029946Y042706D01*
X029995Y042754D01*
X030092Y042754D01*
X030140Y042706D01*
X030180Y042034D02*
X030276Y041937D01*
X030276Y041744D01*
X030378Y041792D02*
X030426Y041744D01*
X030523Y041744D01*
X030571Y041792D01*
X030571Y041889D01*
X030474Y041889D01*
X030378Y041986D02*
X030378Y041792D01*
X030276Y041889D02*
X030083Y041889D01*
X030083Y041937D02*
X030180Y042034D01*
X030083Y041937D02*
X030083Y041744D01*
X029983Y041744D02*
X029886Y041744D01*
X029935Y041744D02*
X029935Y042034D01*
X029983Y042034D02*
X029886Y042034D01*
X029785Y041986D02*
X029785Y041889D01*
X029737Y041840D01*
X029592Y041840D01*
X029592Y041744D02*
X029592Y042034D01*
X029737Y042034D01*
X029785Y041986D01*
X029689Y041840D02*
X029785Y041744D01*
X029491Y041744D02*
X029394Y041840D01*
X029442Y041840D02*
X029297Y041840D01*
X029297Y041744D02*
X029297Y042034D01*
X029442Y042034D01*
X029491Y041986D01*
X029491Y041889D01*
X029442Y041840D01*
X029196Y041889D02*
X029002Y041889D01*
X029002Y041937D02*
X029099Y042034D01*
X029196Y041937D01*
X029196Y041744D01*
X029002Y041744D02*
X029002Y041937D01*
X028901Y041986D02*
X028853Y042034D01*
X028756Y042034D01*
X028708Y041986D01*
X028708Y041792D01*
X028756Y041744D01*
X028853Y041744D01*
X028901Y041792D01*
X028901Y041409D02*
X028708Y041409D01*
X029002Y041409D02*
X029196Y041409D01*
X029297Y041409D02*
X029491Y041409D01*
X029592Y041409D02*
X029785Y041409D01*
X029886Y041409D02*
X030080Y041409D01*
X030181Y041409D02*
X030375Y041409D01*
X030476Y041409D02*
X030669Y041409D01*
X030770Y041409D02*
X030964Y041409D01*
X031065Y041409D02*
X031259Y041409D01*
X031360Y041409D02*
X031553Y041409D01*
X031654Y041409D02*
X031848Y041409D01*
X031949Y041409D02*
X032143Y041409D01*
X032244Y041409D02*
X032437Y041409D01*
X032538Y041409D02*
X032732Y041409D01*
X031901Y042032D02*
X031901Y042080D01*
X031853Y042129D01*
X031708Y042129D01*
X031708Y042032D01*
X031756Y041984D01*
X031853Y041984D01*
X031901Y042032D01*
X031805Y042226D02*
X031708Y042129D01*
X031805Y042226D02*
X031901Y042274D01*
X031460Y042196D02*
X031267Y042196D01*
X031170Y042293D01*
X031267Y042390D01*
X031460Y042390D01*
X031460Y042491D02*
X031170Y042491D01*
X031170Y042636D01*
X031219Y042685D01*
X031315Y042685D01*
X031364Y042636D01*
X031364Y042491D01*
X031364Y042588D02*
X031460Y042685D01*
X031460Y042786D02*
X031170Y042786D01*
X031170Y042931D01*
X031219Y042979D01*
X031315Y042979D01*
X031364Y042931D01*
X031364Y042786D01*
X031364Y042882D02*
X031460Y042979D01*
X031460Y043080D02*
X031460Y043177D01*
X031460Y043129D02*
X031170Y043129D01*
X031170Y043177D02*
X031170Y043080D01*
X031267Y043277D02*
X031170Y043374D01*
X031267Y043470D01*
X031460Y043470D01*
X031412Y043571D02*
X031460Y043620D01*
X031460Y043717D01*
X031412Y043765D01*
X031315Y043765D01*
X031315Y043668D01*
X031219Y043571D02*
X031412Y043571D01*
X031315Y043470D02*
X031315Y043277D01*
X031267Y043277D02*
X031460Y043277D01*
X031708Y043294D02*
X031708Y043149D01*
X031805Y043197D01*
X031853Y043197D01*
X031901Y043149D01*
X031901Y043052D01*
X031853Y043004D01*
X031756Y043004D01*
X031708Y043052D01*
X031708Y043294D02*
X031901Y043294D01*
X031460Y043866D02*
X031460Y044060D01*
X031460Y044161D02*
X031460Y044354D01*
X031460Y044258D02*
X031170Y044258D01*
X031267Y044161D01*
X031170Y044060D02*
X031170Y043866D01*
X031460Y043866D01*
X031315Y043866D02*
X031315Y043963D01*
X031219Y043765D02*
X031170Y043717D01*
X031170Y043620D01*
X031219Y043571D01*
X031708Y044169D02*
X031901Y044169D01*
X031853Y044314D02*
X031708Y044169D01*
X031853Y044024D02*
X031853Y044314D01*
X030140Y044864D02*
X029946Y044864D01*
X030140Y045057D01*
X030140Y045106D01*
X030092Y045154D01*
X029995Y045154D01*
X029946Y045106D01*
X031315Y042390D02*
X031315Y042196D01*
X031219Y042095D02*
X031170Y042047D01*
X031170Y041950D01*
X031219Y041902D01*
X031412Y041902D01*
X031460Y041950D01*
X031460Y042047D01*
X031412Y042095D01*
X030866Y042034D02*
X030672Y042034D01*
X030672Y041744D01*
X030866Y041744D01*
X030769Y041889D02*
X030672Y041889D01*
X030571Y041986D02*
X030523Y042034D01*
X030426Y042034D01*
X030378Y041986D01*
X030375Y041074D02*
X030375Y040784D01*
X030476Y040784D02*
X030669Y040784D01*
X030770Y040784D02*
X030770Y041074D01*
X030916Y041074D01*
X030964Y041026D01*
X030964Y040929D01*
X030916Y040880D01*
X030770Y040880D01*
X030867Y040880D02*
X030964Y040784D01*
X031065Y040784D02*
X031065Y041074D01*
X031162Y040977D01*
X031259Y041074D01*
X031259Y040784D01*
X031259Y040594D02*
X031259Y040304D01*
X031065Y040594D01*
X031065Y040304D01*
X030964Y040304D02*
X030770Y040304D01*
X030770Y040594D01*
X030964Y040594D01*
X030867Y040449D02*
X030770Y040449D01*
X030669Y040594D02*
X030476Y040594D01*
X030573Y040594D02*
X030573Y040304D01*
X030573Y040114D02*
X030669Y040017D01*
X030669Y039824D01*
X030770Y039824D02*
X030770Y040114D01*
X030964Y039824D01*
X030964Y040114D01*
X030669Y039969D02*
X030476Y039969D01*
X030476Y040017D02*
X030573Y040114D01*
X030476Y040017D02*
X030476Y039824D01*
X030375Y039634D02*
X030375Y039440D01*
X030278Y039344D01*
X030181Y039440D01*
X030181Y039634D01*
X030080Y039634D02*
X029886Y039634D01*
X029886Y039489D01*
X029983Y039537D01*
X030032Y039537D01*
X030080Y039489D01*
X030080Y039392D01*
X030032Y039344D01*
X029935Y039344D01*
X029886Y039392D01*
X029935Y039154D02*
X029886Y039106D01*
X029886Y038912D01*
X029935Y038864D01*
X030032Y038864D01*
X030080Y038912D01*
X030080Y039009D01*
X029983Y039009D01*
X030080Y039106D02*
X030032Y039154D01*
X029935Y039154D01*
X030181Y039154D02*
X030375Y038864D01*
X030375Y039154D01*
X030476Y039154D02*
X030621Y039154D01*
X030669Y039106D01*
X030669Y038912D01*
X030621Y038864D01*
X030476Y038864D01*
X030476Y039154D01*
X030181Y039154D02*
X030181Y038864D01*
X030326Y038674D02*
X030181Y038529D01*
X030375Y038529D01*
X030476Y038480D02*
X030476Y038674D01*
X030326Y038674D02*
X030326Y038384D01*
X030476Y038480D02*
X030573Y038384D01*
X030669Y038480D01*
X030669Y038674D01*
X030080Y038626D02*
X030032Y038674D01*
X029935Y038674D01*
X029886Y038626D01*
X030080Y038626D02*
X030080Y038577D01*
X029886Y038384D01*
X030080Y038384D01*
X029491Y038674D02*
X029297Y038384D01*
X028901Y038432D02*
X028901Y038480D01*
X028853Y038529D01*
X028708Y038529D01*
X028708Y038432D01*
X028756Y038384D01*
X028853Y038384D01*
X028901Y038432D01*
X028805Y038626D02*
X028708Y038529D01*
X028805Y038626D02*
X028901Y038674D01*
X028853Y038864D02*
X028756Y038864D01*
X028708Y038912D01*
X028708Y039009D02*
X028805Y039057D01*
X028853Y039057D01*
X028901Y039009D01*
X028901Y038912D01*
X028853Y038864D01*
X028708Y039009D02*
X028708Y039154D01*
X028901Y039154D01*
X028853Y039344D02*
X028853Y039634D01*
X028708Y039489D01*
X028901Y039489D01*
X028853Y039824D02*
X028756Y039824D01*
X028708Y039872D01*
X028805Y039969D02*
X028853Y039969D01*
X028901Y039920D01*
X028901Y039872D01*
X028853Y039824D01*
X028853Y039969D02*
X028901Y040017D01*
X028901Y040066D01*
X028853Y040114D01*
X028756Y040114D01*
X028708Y040066D01*
X028708Y040304D02*
X028901Y040497D01*
X028901Y040546D01*
X028853Y040594D01*
X028756Y040594D01*
X028708Y040546D01*
X028708Y040784D02*
X028901Y040784D01*
X028805Y040784D02*
X028805Y041074D01*
X028708Y040977D01*
X029297Y040784D02*
X029491Y041074D01*
X029886Y041074D02*
X030080Y041074D01*
X029983Y041074D02*
X029983Y040784D01*
X030181Y040784D02*
X030181Y041074D01*
X030181Y040929D02*
X030375Y040929D01*
X030476Y040929D02*
X030573Y040929D01*
X030669Y041074D02*
X030476Y041074D01*
X030476Y040784D01*
X030326Y040594D02*
X030375Y040546D01*
X030375Y040352D01*
X030326Y040304D01*
X030229Y040304D01*
X030181Y040352D01*
X030181Y040546D01*
X030229Y040594D01*
X030326Y040594D01*
X030080Y040594D02*
X030080Y040304D01*
X030080Y040449D02*
X029886Y040449D01*
X029886Y040304D02*
X029886Y040594D01*
X029491Y040594D02*
X029297Y040304D01*
X029491Y040114D02*
X029297Y039824D01*
X029491Y039634D02*
X029297Y039344D01*
X029491Y039154D02*
X029297Y038864D01*
X029886Y039824D02*
X030080Y039824D01*
X030181Y039824D02*
X030181Y040114D01*
X030375Y040114D01*
X030278Y039969D02*
X030181Y039969D01*
X029886Y040114D02*
X029886Y039824D01*
X028901Y040304D02*
X028708Y040304D01*
X031360Y040304D02*
X031505Y040304D01*
X031553Y040352D01*
X031553Y040546D01*
X031505Y040594D01*
X031360Y040594D01*
X031360Y040304D01*
X034208Y041874D02*
X034498Y041874D01*
X034498Y042067D01*
X034498Y042168D02*
X034498Y042362D01*
X034498Y042265D02*
X034208Y042265D01*
X034304Y042168D01*
X034208Y042067D02*
X034208Y041874D01*
X034353Y041874D02*
X034353Y041970D01*
X034353Y042463D02*
X034353Y042656D01*
X034353Y042758D02*
X034353Y042951D01*
X034304Y042951D02*
X034498Y042951D01*
X034498Y043052D02*
X034208Y043246D01*
X034208Y043347D02*
X034208Y043444D01*
X034208Y043395D02*
X034498Y043395D01*
X034498Y043347D02*
X034498Y043444D01*
X034449Y043543D02*
X034498Y043592D01*
X034498Y043688D01*
X034449Y043737D01*
X034401Y043737D01*
X034353Y043688D01*
X034353Y043592D01*
X034304Y043543D01*
X034256Y043543D01*
X034208Y043592D01*
X034208Y043688D01*
X034256Y043737D01*
X034276Y044024D02*
X034228Y044072D01*
X034276Y044024D02*
X034373Y044024D01*
X034421Y044072D01*
X034421Y044120D01*
X034373Y044169D01*
X034325Y044169D01*
X034373Y044169D02*
X034421Y044217D01*
X034421Y044266D01*
X034373Y044314D01*
X034276Y044314D01*
X034228Y044266D01*
X034373Y045044D02*
X034373Y045334D01*
X034228Y045189D01*
X034421Y045189D01*
X034373Y046004D02*
X034276Y046004D01*
X034228Y046052D01*
X034228Y046149D02*
X034325Y046197D01*
X034373Y046197D01*
X034421Y046149D01*
X034421Y046052D01*
X034373Y046004D01*
X034228Y046149D02*
X034228Y046294D01*
X034421Y046294D01*
X034373Y047024D02*
X034421Y047072D01*
X034421Y047120D01*
X034373Y047169D01*
X034228Y047169D01*
X034228Y047072D01*
X034276Y047024D01*
X034373Y047024D01*
X034228Y047169D02*
X034325Y047266D01*
X034421Y047314D01*
X034498Y043246D02*
X034208Y043052D01*
X034304Y042951D02*
X034208Y042854D01*
X034304Y042758D01*
X034498Y042758D01*
X026061Y043679D02*
X025993Y043610D01*
X025924Y043610D01*
X025822Y043713D01*
X025753Y043644D02*
X025959Y043850D01*
X026061Y043747D01*
X026061Y043679D01*
X025853Y043887D02*
X025853Y043955D01*
X025784Y044024D01*
X025716Y044024D01*
X025682Y043990D01*
X025682Y043921D01*
X025750Y043853D01*
X025750Y043784D01*
X025716Y043750D01*
X025648Y043750D01*
X025579Y043819D01*
X025579Y043887D01*
X025508Y043958D02*
X025439Y043958D01*
X025371Y044027D01*
X025371Y044095D01*
X025508Y044232D01*
X025576Y044232D01*
X025644Y044164D01*
X025644Y044095D01*
X025471Y044337D02*
X025403Y044405D01*
X025437Y044371D02*
X025232Y044166D01*
X025198Y044200D02*
X025266Y044132D01*
D12*
X022538Y039865D02*
X022255Y039582D01*
X020961Y039957D02*
X020812Y040105D01*
X020664Y039957D01*
X019511Y039738D02*
X019228Y040021D01*
X017835Y038613D02*
X018118Y038331D01*
X016711Y036938D02*
X016428Y037220D01*
X017058Y036351D02*
X016909Y036202D01*
X017058Y036054D01*
X017991Y034201D02*
X017708Y033918D01*
X019108Y032518D02*
X019391Y032801D01*
X020664Y032447D02*
X020812Y032299D01*
X020961Y032447D01*
X022121Y032674D02*
X022403Y032391D01*
X023796Y033784D02*
X023514Y034067D01*
X024907Y035460D02*
X025189Y035177D01*
X024567Y036054D02*
X024716Y036202D01*
X024567Y036351D01*
X024355Y036308D02*
X024355Y036096D01*
X023648Y038203D02*
X023931Y038486D01*
X032303Y038509D02*
X032303Y039209D01*
X032453Y039359D01*
X032303Y039509D01*
X032303Y040209D01*
X032453Y040359D01*
X032303Y040509D01*
X032303Y041209D01*
X032453Y041359D01*
X034153Y041359D01*
X034303Y041209D01*
X034303Y040509D01*
X034153Y040359D01*
X034303Y040209D01*
X034303Y039509D01*
X034153Y039359D01*
X034303Y039209D01*
X034303Y038509D01*
X034153Y038359D01*
X034303Y038209D01*
X034303Y037509D01*
X034153Y037359D01*
X032453Y037359D01*
X032303Y037509D01*
X032303Y038209D01*
X032453Y038359D01*
X032303Y038509D01*
X010183Y038449D02*
X010183Y037749D01*
X010033Y037599D01*
X010183Y037449D01*
X010183Y036749D01*
X010033Y036599D01*
X010183Y036449D01*
X010183Y035749D01*
X010033Y035599D01*
X010183Y035449D01*
X010183Y034749D01*
X010033Y034599D01*
X010183Y034449D01*
X010183Y033749D01*
X010033Y033599D01*
X007333Y033599D01*
X007183Y033749D01*
X007183Y034449D01*
X007333Y034599D01*
X007183Y034749D01*
X007183Y035449D01*
X007333Y035599D01*
X007183Y035749D01*
X007183Y036449D01*
X007333Y036599D01*
X007183Y036749D01*
X007183Y037449D01*
X007333Y037599D01*
X007183Y037749D01*
X007183Y038449D01*
X007333Y038599D01*
X007183Y038749D01*
X007183Y039449D01*
X007333Y039599D01*
X007183Y039749D01*
X007183Y040449D01*
X007333Y040599D01*
X010033Y040599D01*
X010183Y040449D01*
X010183Y039749D01*
X010033Y039599D01*
X010183Y039449D01*
X010183Y038749D01*
X010033Y038599D01*
X010183Y038449D01*
X009413Y032229D02*
X009663Y031979D01*
X009663Y031479D01*
X009413Y031229D01*
X008913Y031229D01*
X008663Y031479D01*
X008413Y031229D01*
X007913Y031229D01*
X007663Y031479D01*
X007663Y031979D01*
X007913Y032229D01*
X008413Y032229D01*
X008663Y031979D01*
X008913Y032229D01*
X009413Y032229D01*
X008663Y031979D02*
X008663Y031479D01*
X008911Y030964D02*
X009411Y030964D01*
X009661Y030714D01*
X009661Y030214D01*
X009411Y029964D01*
X008911Y029964D01*
X008661Y030214D01*
X008411Y029964D01*
X007911Y029964D01*
X007661Y030214D01*
X007661Y030714D01*
X007911Y030964D01*
X008411Y030964D01*
X008661Y030714D01*
X008911Y030964D01*
X008661Y030714D02*
X008661Y030214D01*
D13*
X007600Y028881D02*
X007600Y024471D01*
X007206Y024471D01*
X007206Y028881D01*
X007600Y028881D01*
X010159Y028881D01*
X010159Y024471D01*
X007600Y024471D01*
X011044Y023057D02*
X013091Y023057D01*
X013091Y019041D01*
X011044Y019041D01*
X011044Y023057D01*
X015541Y017239D02*
X015291Y016989D01*
X015291Y016489D01*
X015541Y016239D01*
X016041Y016239D01*
X016291Y016489D01*
X016541Y016239D01*
X017041Y016239D01*
X017291Y016489D01*
X017541Y016239D01*
X018041Y016239D01*
X018291Y016489D01*
X018541Y016239D01*
X019041Y016239D01*
X019291Y016489D01*
X019541Y016239D01*
X020041Y016239D01*
X020291Y016489D01*
X020541Y016239D01*
X021041Y016239D01*
X021291Y016489D01*
X021291Y016989D01*
X021041Y017239D01*
X020541Y017239D01*
X020291Y016989D01*
X020041Y017239D01*
X019541Y017239D01*
X019291Y016989D01*
X019041Y017239D01*
X018541Y017239D01*
X018291Y016989D01*
X018041Y017239D01*
X017541Y017239D01*
X017291Y016989D01*
X017041Y017239D01*
X016541Y017239D01*
X016291Y016989D01*
X016041Y017239D01*
X015541Y017239D01*
X015541Y016129D02*
X015291Y015879D01*
X015291Y015379D01*
X015541Y015129D01*
X016041Y015129D01*
X016291Y015379D01*
X016541Y015129D01*
X017041Y015129D01*
X017291Y015379D01*
X017541Y015129D01*
X018041Y015129D01*
X018291Y015379D01*
X018541Y015129D01*
X019041Y015129D01*
X019291Y015379D01*
X019541Y015129D01*
X020041Y015129D01*
X020291Y015379D01*
X020541Y015129D01*
X021041Y015129D01*
X021291Y015379D01*
X021291Y015879D01*
X021041Y016129D01*
X020541Y016129D01*
X020291Y015879D01*
X020041Y016129D01*
X019541Y016129D01*
X019291Y015879D01*
X019041Y016129D01*
X018541Y016129D01*
X018291Y015879D01*
X018041Y016129D01*
X017541Y016129D01*
X017291Y015879D01*
X017041Y016129D01*
X016541Y016129D01*
X016291Y015879D01*
X016041Y016129D01*
X015541Y016129D01*
X022825Y017253D02*
X022825Y014694D01*
X027234Y014694D01*
X027234Y017253D01*
X022825Y017253D01*
X022825Y017647D01*
X027234Y017647D01*
X027234Y017253D01*
X027304Y017254D02*
X031713Y017254D01*
X031713Y014695D01*
X027304Y014695D01*
X027304Y017254D01*
X027304Y017648D01*
X031713Y017648D01*
X031713Y017254D01*
X031633Y018829D02*
X031633Y019329D01*
X031033Y019329D02*
X031033Y018829D01*
X028353Y024378D02*
X024342Y024378D01*
X033033Y032799D02*
X033033Y033299D01*
X033283Y033549D01*
X033033Y033799D01*
X033033Y034299D01*
X033283Y034549D01*
X033033Y034799D01*
X033033Y035299D01*
X033283Y035549D01*
X033033Y035799D01*
X033033Y036299D01*
X033283Y036549D01*
X033783Y036549D01*
X034033Y036299D01*
X034033Y035799D01*
X033783Y035549D01*
X034033Y035299D01*
X034033Y034799D01*
X033783Y034549D01*
X034033Y034299D01*
X034033Y033799D01*
X033783Y033549D01*
X034033Y033299D01*
X034033Y032799D01*
X033783Y032549D01*
X033283Y032549D01*
X033033Y032799D01*
X032750Y041661D02*
X032250Y041661D01*
X032000Y041911D01*
X032000Y042411D01*
X032250Y042661D01*
X032000Y042911D01*
X032000Y043411D01*
X032250Y043661D01*
X032000Y043911D01*
X032000Y044411D01*
X032250Y044661D01*
X032000Y044911D01*
X032000Y045411D01*
X032250Y045661D01*
X032000Y045911D01*
X032000Y046411D01*
X032250Y046661D01*
X032000Y046911D01*
X032000Y047411D01*
X032250Y047661D01*
X032750Y047661D01*
X033000Y047411D01*
X033000Y046911D01*
X032750Y046661D01*
X033000Y046411D01*
X033000Y045911D01*
X032750Y045661D01*
X033000Y045411D01*
X033000Y044911D01*
X032750Y044661D01*
X033000Y044411D01*
X033000Y043911D01*
X032750Y043661D01*
X033000Y043411D01*
X033000Y042911D01*
X032750Y042661D01*
X033000Y042411D01*
X033000Y041911D01*
X032750Y041661D01*
X033093Y041919D02*
X033343Y041669D01*
X033843Y041669D01*
X034093Y041919D01*
X034093Y042419D01*
X033843Y042669D01*
X034093Y042919D01*
X034093Y043419D01*
X033843Y043669D01*
X034093Y043919D01*
X034093Y044419D01*
X033843Y044669D01*
X034093Y044919D01*
X034093Y045419D01*
X033843Y045669D01*
X034093Y045919D01*
X034093Y046419D01*
X033843Y046669D01*
X034093Y046919D01*
X034093Y047419D01*
X033843Y047669D01*
X033343Y047669D01*
X033093Y047419D01*
X033093Y046919D01*
X033343Y046669D01*
X033093Y046419D01*
X033093Y045919D01*
X033343Y045669D01*
X033093Y045419D01*
X033093Y044919D01*
X033343Y044669D01*
X033093Y044419D01*
X033093Y043919D01*
X033343Y043669D01*
X033093Y043419D01*
X033093Y042919D01*
X033343Y042669D01*
X033093Y042419D01*
X033093Y041919D01*
X030483Y047719D02*
X029983Y047719D01*
X029733Y047969D01*
X029483Y047719D01*
X028983Y047719D01*
X028733Y047969D01*
X028483Y047719D01*
X027983Y047719D01*
X027733Y047969D01*
X027483Y047719D01*
X026983Y047719D01*
X026733Y047969D01*
X026483Y047719D01*
X025983Y047719D01*
X025733Y047969D01*
X025483Y047719D01*
X024983Y047719D01*
X024733Y047969D01*
X024733Y048469D01*
X024983Y048719D01*
X025483Y048719D01*
X025733Y048469D01*
X025983Y048719D01*
X026483Y048719D01*
X026733Y048469D01*
X026983Y048719D01*
X027483Y048719D01*
X027733Y048469D01*
X027983Y048719D01*
X028483Y048719D01*
X028733Y048469D01*
X028983Y048719D01*
X029483Y048719D01*
X029733Y048469D01*
X029983Y048719D01*
X030483Y048719D01*
X030733Y048469D01*
X030733Y047969D01*
X030483Y047719D01*
X030474Y048803D02*
X029974Y048803D01*
X029724Y049053D01*
X029474Y048803D01*
X028974Y048803D01*
X028724Y049053D01*
X028474Y048803D01*
X027974Y048803D01*
X027724Y049053D01*
X027474Y048803D01*
X026974Y048803D01*
X026724Y049053D01*
X026474Y048803D01*
X025974Y048803D01*
X025724Y049053D01*
X025474Y048803D01*
X024974Y048803D01*
X024724Y049053D01*
X024724Y049553D01*
X024974Y049803D01*
X025474Y049803D01*
X025724Y049553D01*
X025974Y049803D01*
X026474Y049803D01*
X026724Y049553D01*
X026974Y049803D01*
X027474Y049803D01*
X027724Y049553D01*
X027974Y049803D01*
X028474Y049803D01*
X028724Y049553D01*
X028974Y049803D01*
X029474Y049803D01*
X029724Y049553D01*
X029974Y049803D01*
X030474Y049803D01*
X030724Y049553D01*
X030724Y049053D01*
X030474Y048803D01*
X024649Y049042D02*
X024649Y049542D01*
X024399Y049792D01*
X023899Y049792D01*
X023649Y049542D01*
X023399Y049792D01*
X022899Y049792D01*
X022649Y049542D01*
X022399Y049792D01*
X021899Y049792D01*
X021649Y049542D01*
X021399Y049792D01*
X020899Y049792D01*
X020649Y049542D01*
X020399Y049792D01*
X019899Y049792D01*
X019649Y049542D01*
X019399Y049792D01*
X018899Y049792D01*
X018649Y049542D01*
X018649Y049042D01*
X018899Y048792D01*
X019399Y048792D01*
X019649Y049042D01*
X019899Y048792D01*
X020399Y048792D01*
X020649Y049042D01*
X020899Y048792D01*
X021399Y048792D01*
X021649Y049042D01*
X021899Y048792D01*
X022399Y048792D01*
X022649Y049042D01*
X022899Y048792D01*
X023399Y048792D01*
X023649Y049042D01*
X023899Y048792D01*
X024399Y048792D01*
X024649Y049042D01*
X024398Y048708D02*
X024648Y048458D01*
X024648Y047958D01*
X024398Y047708D01*
X023898Y047708D01*
X023648Y047958D01*
X023398Y047708D01*
X022898Y047708D01*
X022648Y047958D01*
X022398Y047708D01*
X021898Y047708D01*
X021648Y047958D01*
X021398Y047708D01*
X020898Y047708D01*
X020648Y047958D01*
X020398Y047708D01*
X019898Y047708D01*
X019648Y047958D01*
X019398Y047708D01*
X018898Y047708D01*
X018648Y047958D01*
X018648Y048458D01*
X018898Y048708D01*
X019398Y048708D01*
X019648Y048458D01*
X019898Y048708D01*
X020398Y048708D01*
X020648Y048458D01*
X020898Y048708D01*
X021398Y048708D01*
X021648Y048458D01*
X021898Y048708D01*
X022398Y048708D01*
X022648Y048458D01*
X022898Y048708D01*
X023398Y048708D01*
X023648Y048458D01*
X023898Y048708D01*
X024398Y048708D01*
X021861Y044110D02*
X020648Y044110D01*
X020255Y043610D02*
X020255Y042622D01*
X020648Y042110D02*
X021861Y042110D01*
X022255Y042622D02*
X022255Y043599D01*
X020755Y043110D02*
X020757Y043154D01*
X020763Y043198D01*
X020773Y043241D01*
X020786Y043283D01*
X020803Y043324D01*
X020824Y043363D01*
X020848Y043400D01*
X020875Y043435D01*
X020905Y043467D01*
X020938Y043497D01*
X020974Y043523D01*
X021011Y043547D01*
X021051Y043566D01*
X021092Y043583D01*
X021135Y043595D01*
X021178Y043604D01*
X021222Y043609D01*
X021266Y043610D01*
X021310Y043607D01*
X021354Y043600D01*
X021397Y043589D01*
X021439Y043575D01*
X021479Y043557D01*
X021518Y043535D01*
X021554Y043511D01*
X021588Y043483D01*
X021620Y043452D01*
X021649Y043418D01*
X021675Y043382D01*
X021697Y043344D01*
X021716Y043304D01*
X021731Y043262D01*
X021743Y043220D01*
X021751Y043176D01*
X021755Y043132D01*
X021755Y043088D01*
X021751Y043044D01*
X021743Y043000D01*
X021731Y042958D01*
X021716Y042916D01*
X021697Y042876D01*
X021675Y042838D01*
X021649Y042802D01*
X021620Y042768D01*
X021588Y042737D01*
X021554Y042709D01*
X021518Y042685D01*
X021479Y042663D01*
X021439Y042645D01*
X021397Y042631D01*
X021354Y042620D01*
X021310Y042613D01*
X021266Y042610D01*
X021222Y042611D01*
X021178Y042616D01*
X021135Y042625D01*
X021092Y042637D01*
X021051Y042654D01*
X021011Y042673D01*
X020974Y042697D01*
X020938Y042723D01*
X020905Y042753D01*
X020875Y042785D01*
X020848Y042820D01*
X020824Y042857D01*
X020803Y042896D01*
X020786Y042937D01*
X020773Y042979D01*
X020763Y043022D01*
X020757Y043066D01*
X020755Y043110D01*
X018188Y045801D02*
X017688Y045801D01*
X017438Y046051D01*
X017438Y046551D01*
X017688Y046801D01*
X017438Y047051D01*
X017438Y047551D01*
X017688Y047801D01*
X017438Y048051D01*
X017438Y048551D01*
X017688Y048801D01*
X017438Y049051D01*
X017438Y049551D01*
X017688Y049801D01*
X017438Y050051D01*
X017438Y050551D01*
X017688Y050801D01*
X017438Y051051D01*
X017438Y051551D01*
X017688Y051801D01*
X018188Y051801D01*
X018438Y051551D01*
X018438Y051051D01*
X018188Y050801D01*
X018438Y050551D01*
X018438Y050051D01*
X018188Y049801D01*
X018438Y049551D01*
X018438Y049051D01*
X018188Y048801D01*
X018438Y048551D01*
X018438Y048051D01*
X018188Y047801D01*
X018438Y047551D01*
X018438Y047051D01*
X018188Y046801D01*
X018438Y046551D01*
X018438Y046051D01*
X018188Y045801D01*
X017327Y046051D02*
X017077Y045801D01*
X016577Y045801D01*
X016327Y046051D01*
X016327Y046551D01*
X016577Y046801D01*
X016327Y047051D01*
X016327Y047551D01*
X016577Y047801D01*
X016327Y048051D01*
X016327Y048551D01*
X016577Y048801D01*
X016327Y049051D01*
X016327Y049551D01*
X016577Y049801D01*
X016327Y050051D01*
X016327Y050551D01*
X016577Y050801D01*
X016327Y051051D01*
X016327Y051551D01*
X016577Y051801D01*
X017077Y051801D01*
X017327Y051551D01*
X017327Y051051D01*
X017077Y050801D01*
X017327Y050551D01*
X017327Y050051D01*
X017077Y049801D01*
X017327Y049551D01*
X017327Y049051D01*
X017077Y048801D01*
X017327Y048551D01*
X017327Y048051D01*
X017077Y047801D01*
X017327Y047551D01*
X017327Y047051D01*
X017077Y046801D01*
X017327Y046551D01*
X017327Y046051D01*
X016216Y046051D02*
X015966Y045801D01*
X015466Y045801D01*
X015216Y046051D01*
X015216Y046551D01*
X015466Y046801D01*
X015216Y047051D01*
X015216Y047551D01*
X015466Y047801D01*
X015216Y048051D01*
X015216Y048551D01*
X015466Y048801D01*
X015216Y049051D01*
X015216Y049551D01*
X015466Y049801D01*
X015216Y050051D01*
X015216Y050551D01*
X015466Y050801D01*
X015216Y051051D01*
X015216Y051551D01*
X015466Y051801D01*
X015966Y051801D01*
X016216Y051551D01*
X016216Y051051D01*
X015966Y050801D01*
X016216Y050551D01*
X016216Y050051D01*
X015966Y049801D01*
X016216Y049551D01*
X016216Y049051D01*
X015966Y048801D01*
X016216Y048551D01*
X016216Y048051D01*
X015966Y047801D01*
X016216Y047551D01*
X016216Y047051D01*
X015966Y046801D01*
X016216Y046551D01*
X016216Y046051D01*
X015109Y046051D02*
X014859Y045801D01*
X014359Y045801D01*
X014109Y046051D01*
X014109Y046551D01*
X014359Y046801D01*
X014109Y047051D01*
X014109Y047551D01*
X014359Y047801D01*
X014109Y048051D01*
X014109Y048551D01*
X014359Y048801D01*
X014109Y049051D01*
X014109Y049551D01*
X014359Y049801D01*
X014109Y050051D01*
X014109Y050551D01*
X014359Y050801D01*
X014109Y051051D01*
X014109Y051551D01*
X014359Y051801D01*
X014859Y051801D01*
X015109Y051551D01*
X015109Y051051D01*
X014859Y050801D01*
X015109Y050551D01*
X015109Y050051D01*
X014859Y049801D01*
X015109Y049551D01*
X015109Y049051D01*
X014859Y048801D01*
X015109Y048551D01*
X015109Y048051D01*
X014859Y047801D01*
X015109Y047551D01*
X015109Y047051D01*
X014859Y046801D01*
X015109Y046551D01*
X015109Y046051D01*
X014014Y046051D02*
X013764Y045801D01*
X013264Y045801D01*
X013014Y046051D01*
X013014Y046551D01*
X013264Y046801D01*
X013014Y047051D01*
X013014Y047551D01*
X013264Y047801D01*
X013014Y048051D01*
X013014Y048551D01*
X013264Y048801D01*
X013014Y049051D01*
X013014Y049551D01*
X013264Y049801D01*
X013014Y050051D01*
X013014Y050551D01*
X013264Y050801D01*
X013014Y051051D01*
X013014Y051551D01*
X013264Y051801D01*
X013764Y051801D01*
X014014Y051551D01*
X014014Y051051D01*
X013764Y050801D01*
X014014Y050551D01*
X014014Y050051D01*
X013764Y049801D01*
X014014Y049551D01*
X014014Y049051D01*
X013764Y048801D01*
X014014Y048551D01*
X014014Y048051D01*
X013764Y047801D01*
X014014Y047551D01*
X014014Y047051D01*
X013764Y046801D01*
X014014Y046551D01*
X014014Y046051D01*
X012912Y046047D02*
X012662Y045797D01*
X012162Y045797D01*
X011912Y046047D01*
X011912Y046547D01*
X012162Y046797D01*
X011912Y047047D01*
X011912Y047547D01*
X012162Y047797D01*
X011912Y048047D01*
X011912Y048547D01*
X012162Y048797D01*
X011912Y049047D01*
X011912Y049547D01*
X012162Y049797D01*
X011912Y050047D01*
X011912Y050547D01*
X012162Y050797D01*
X011912Y051047D01*
X011912Y051547D01*
X012162Y051797D01*
X012662Y051797D01*
X012912Y051547D01*
X012912Y051047D01*
X012662Y050797D01*
X012912Y050547D01*
X012912Y050047D01*
X012662Y049797D01*
X012912Y049547D01*
X012912Y049047D01*
X012662Y048797D01*
X012912Y048547D01*
X012912Y048047D01*
X012662Y047797D01*
X012912Y047547D01*
X012912Y047047D01*
X012662Y046797D01*
X012912Y046547D01*
X012912Y046047D01*
X011814Y046047D02*
X011814Y046547D01*
X011564Y046797D01*
X011814Y047047D01*
X011814Y047547D01*
X011564Y047797D01*
X011814Y048047D01*
X011814Y048547D01*
X011564Y048797D01*
X011814Y049047D01*
X011814Y049547D01*
X011564Y049797D01*
X011814Y050047D01*
X011814Y050547D01*
X011564Y050797D01*
X011814Y051047D01*
X011814Y051547D01*
X011564Y051797D01*
X011064Y051797D01*
X010814Y051547D01*
X010814Y051047D01*
X011064Y050797D01*
X010814Y050547D01*
X010814Y050047D01*
X011064Y049797D01*
X010814Y049547D01*
X010814Y049047D01*
X011064Y048797D01*
X010814Y048547D01*
X010814Y048047D01*
X011064Y047797D01*
X010814Y047547D01*
X010814Y047047D01*
X011064Y046797D01*
X010814Y046547D01*
X010814Y046047D01*
X011064Y045797D01*
X011564Y045797D01*
X011814Y046047D01*
X009649Y045891D02*
X009649Y045391D01*
X009399Y045141D01*
X009649Y044891D01*
X009649Y044391D01*
X009399Y044141D01*
X009649Y043891D01*
X009649Y043391D01*
X009399Y043141D01*
X009649Y042891D01*
X009649Y042391D01*
X009399Y042141D01*
X009649Y041891D01*
X009649Y041391D01*
X009399Y041141D01*
X008899Y041141D01*
X008649Y041391D01*
X008649Y041891D01*
X008899Y042141D01*
X008649Y042391D01*
X008649Y042891D01*
X008899Y043141D01*
X008649Y043391D01*
X008649Y043891D01*
X008899Y044141D01*
X008649Y044391D01*
X008649Y044891D01*
X008899Y045141D01*
X008649Y045391D01*
X008649Y045891D01*
X008899Y046141D01*
X008649Y046391D01*
X008649Y046891D01*
X008899Y047141D01*
X009399Y047141D01*
X009649Y046891D01*
X009649Y046391D01*
X009399Y046141D01*
X009649Y045891D01*
X008563Y045889D02*
X008563Y045389D01*
X008313Y045139D01*
X008563Y044889D01*
X008563Y044389D01*
X008313Y044139D01*
X008563Y043889D01*
X008563Y043389D01*
X008313Y043139D01*
X008563Y042889D01*
X008563Y042389D01*
X008313Y042139D01*
X008563Y041889D01*
X008563Y041389D01*
X008313Y041139D01*
X007813Y041139D01*
X007563Y041389D01*
X007563Y041889D01*
X007813Y042139D01*
X007563Y042389D01*
X007563Y042889D01*
X007813Y043139D01*
X007563Y043389D01*
X007563Y043889D01*
X007813Y044139D01*
X007563Y044389D01*
X007563Y044889D01*
X007813Y045139D01*
X007563Y045389D01*
X007563Y045889D01*
X007813Y046139D01*
X007563Y046389D01*
X007563Y046889D01*
X007813Y047139D01*
X008313Y047139D01*
X008563Y046889D01*
X008563Y046389D01*
X008313Y046139D01*
X008563Y045889D01*
X014340Y040956D02*
X016249Y042865D01*
X016292Y042906D01*
X016337Y042943D01*
X016385Y042977D01*
X016435Y043008D01*
X016487Y043036D01*
X016541Y043060D01*
X016596Y043081D01*
X016652Y043098D01*
X016709Y043112D01*
X016768Y043121D01*
X016826Y043127D01*
X016885Y043129D01*
X016944Y043127D01*
X017002Y043121D01*
X017061Y043112D01*
X017118Y043098D01*
X017174Y043081D01*
X017229Y043060D01*
X017283Y043036D01*
X017335Y043008D01*
X017385Y042977D01*
X017433Y042943D01*
X017478Y042906D01*
X017521Y042865D01*
X017562Y042822D01*
X017599Y042777D01*
X017633Y042729D01*
X017664Y042679D01*
X017692Y042627D01*
X017716Y042573D01*
X017737Y042518D01*
X017754Y042462D01*
X017768Y042405D01*
X017777Y042346D01*
X017783Y042288D01*
X017785Y042229D01*
X017783Y042170D01*
X017777Y042112D01*
X017768Y042053D01*
X017754Y041996D01*
X017737Y041940D01*
X017716Y041885D01*
X017692Y041831D01*
X017664Y041779D01*
X017633Y041729D01*
X017599Y041681D01*
X017562Y041636D01*
X017521Y041593D01*
X017522Y041592D02*
X015612Y039683D01*
X015569Y039642D01*
X015524Y039605D01*
X015476Y039571D01*
X015426Y039540D01*
X015374Y039512D01*
X015320Y039488D01*
X015265Y039467D01*
X015209Y039450D01*
X015152Y039436D01*
X015093Y039427D01*
X015035Y039421D01*
X014976Y039419D01*
X014917Y039421D01*
X014859Y039427D01*
X014800Y039436D01*
X014743Y039450D01*
X014687Y039467D01*
X014632Y039488D01*
X014578Y039512D01*
X014526Y039540D01*
X014476Y039571D01*
X014428Y039605D01*
X014383Y039642D01*
X014340Y039683D01*
X014299Y039726D01*
X014262Y039771D01*
X014228Y039819D01*
X014197Y039869D01*
X014169Y039921D01*
X014145Y039975D01*
X014124Y040030D01*
X014107Y040086D01*
X014093Y040143D01*
X014084Y040202D01*
X014078Y040260D01*
X014076Y040319D01*
X014078Y040378D01*
X014084Y040436D01*
X014093Y040495D01*
X014107Y040552D01*
X014124Y040608D01*
X014145Y040663D01*
X014169Y040717D01*
X014197Y040769D01*
X014228Y040819D01*
X014262Y040867D01*
X014299Y040912D01*
X014340Y040955D01*
D14*
X025007Y024082D03*
X025677Y024082D03*
X026347Y024082D03*
X027017Y024082D03*
X027687Y024082D03*
D15*
X027969Y021296D02*
X025056Y021296D01*
X025056Y020007D01*
X025056Y019348D02*
X025056Y018068D01*
X027969Y018068D01*
X028284Y018383D01*
X028186Y019337D02*
X028167Y019262D01*
X028144Y019188D01*
X028117Y019115D01*
X028087Y019044D01*
X028054Y018974D01*
X028017Y018906D01*
X027976Y018839D01*
X027933Y018775D01*
X027886Y018713D01*
X027836Y018654D01*
X027783Y018597D01*
X027728Y018543D01*
X027670Y018491D01*
X027609Y018443D01*
X027546Y018398D01*
X027481Y018355D01*
X027414Y018317D01*
X027345Y018281D01*
X027274Y018249D01*
X027202Y018221D01*
X027129Y018196D01*
X027054Y018175D01*
X026978Y018158D01*
X026902Y018144D01*
X026825Y018135D01*
X026748Y018129D01*
X026670Y018127D01*
X026592Y018129D01*
X026515Y018135D01*
X026438Y018144D01*
X026362Y018158D01*
X026286Y018175D01*
X026211Y018196D01*
X026138Y018221D01*
X026066Y018249D01*
X025995Y018281D01*
X025926Y018317D01*
X025859Y018355D01*
X025794Y018398D01*
X025731Y018443D01*
X025670Y018491D01*
X025612Y018543D01*
X025557Y018597D01*
X025504Y018654D01*
X025454Y018713D01*
X025407Y018775D01*
X025364Y018839D01*
X025323Y018906D01*
X025286Y018974D01*
X025253Y019044D01*
X025223Y019115D01*
X025196Y019188D01*
X025173Y019262D01*
X025154Y019337D01*
X025154Y020027D02*
X025173Y020102D01*
X025196Y020176D01*
X025223Y020249D01*
X025253Y020320D01*
X025286Y020390D01*
X025323Y020458D01*
X025364Y020525D01*
X025407Y020589D01*
X025454Y020651D01*
X025504Y020710D01*
X025557Y020767D01*
X025612Y020821D01*
X025670Y020873D01*
X025731Y020921D01*
X025794Y020966D01*
X025859Y021009D01*
X025926Y021047D01*
X025995Y021083D01*
X026066Y021115D01*
X026138Y021143D01*
X026211Y021168D01*
X026286Y021189D01*
X026362Y021206D01*
X026438Y021220D01*
X026515Y021229D01*
X026592Y021235D01*
X026670Y021237D01*
X026748Y021235D01*
X026825Y021229D01*
X026902Y021220D01*
X026978Y021206D01*
X027054Y021189D01*
X027129Y021168D01*
X027202Y021143D01*
X027274Y021115D01*
X027345Y021083D01*
X027414Y021047D01*
X027481Y021009D01*
X027546Y020966D01*
X027609Y020921D01*
X027670Y020873D01*
X027728Y020821D01*
X027783Y020767D01*
X027836Y020710D01*
X027886Y020651D01*
X027933Y020589D01*
X027976Y020525D01*
X028017Y020458D01*
X028054Y020390D01*
X028087Y020320D01*
X028117Y020249D01*
X028144Y020176D01*
X028167Y020102D01*
X028186Y020027D01*
X028284Y020981D02*
X027969Y021296D01*
X013711Y016844D02*
X013650Y016844D01*
X013634Y016846D01*
X013619Y016850D01*
X013604Y016858D01*
X013592Y016868D01*
X013582Y016880D01*
X013574Y016895D01*
X013570Y016910D01*
X013568Y016926D01*
X013568Y016017D01*
X013221Y015925D02*
X013139Y015925D01*
X013037Y014984D01*
X012832Y014984D01*
X012730Y015925D01*
X012648Y015925D01*
X012751Y014841D01*
X012750Y014841D02*
X012754Y014822D01*
X012760Y014803D01*
X012770Y014786D01*
X012782Y014770D01*
X012797Y014757D01*
X012814Y014746D01*
X012832Y014739D01*
X013057Y014739D02*
X013075Y014746D01*
X013092Y014757D01*
X013107Y014770D01*
X013119Y014786D01*
X013129Y014803D01*
X013135Y014822D01*
X013139Y014841D01*
X013221Y015925D01*
X013057Y014740D02*
X013020Y014731D01*
X012983Y014725D01*
X012945Y014723D01*
X012907Y014725D01*
X012870Y014731D01*
X012833Y014740D01*
X012546Y014841D02*
X012464Y016436D01*
X012465Y016436D02*
X012462Y016454D01*
X012455Y016471D01*
X012446Y016486D01*
X012433Y016499D01*
X012418Y016508D01*
X012401Y016515D01*
X012383Y016518D01*
X012383Y016517D02*
X011729Y016517D01*
X011728Y016518D02*
X011710Y016515D01*
X011693Y016508D01*
X011678Y016499D01*
X011665Y016486D01*
X011656Y016471D01*
X011649Y016454D01*
X011646Y016436D01*
X011647Y016436D02*
X011565Y014841D01*
X011567Y014825D01*
X011571Y014810D01*
X011579Y014795D01*
X011589Y014783D01*
X011601Y014773D01*
X011616Y014765D01*
X011631Y014761D01*
X011647Y014759D01*
X011647Y014760D02*
X011647Y014760D01*
X011647Y014759D02*
X011663Y014761D01*
X011678Y014765D01*
X011693Y014773D01*
X011705Y014783D01*
X011715Y014795D01*
X011723Y014810D01*
X011727Y014825D01*
X011729Y014841D01*
X011810Y016190D01*
X012301Y016190D01*
X012383Y014841D01*
X012382Y014841D02*
X012384Y014825D01*
X012388Y014810D01*
X012396Y014795D01*
X012406Y014783D01*
X012418Y014773D01*
X012433Y014765D01*
X012448Y014761D01*
X012464Y014759D01*
X012480Y014761D01*
X012495Y014765D01*
X012510Y014773D01*
X012522Y014783D01*
X012532Y014795D01*
X012540Y014810D01*
X012544Y014825D01*
X012546Y014841D01*
X013568Y014902D02*
X013568Y014310D01*
X010543Y014310D01*
X010543Y014902D01*
X010972Y014841D02*
X010891Y015925D01*
X010972Y015925D01*
X011075Y014984D01*
X011279Y014984D01*
X011381Y015925D01*
X011463Y015925D01*
X011361Y014841D01*
X011357Y014822D01*
X011351Y014803D01*
X011341Y014786D01*
X011329Y014770D01*
X011314Y014757D01*
X011297Y014746D01*
X011279Y014739D01*
X011054Y014739D02*
X011036Y014746D01*
X011019Y014757D01*
X011004Y014770D01*
X010992Y014786D01*
X010982Y014803D01*
X010976Y014822D01*
X010972Y014841D01*
X011055Y014740D02*
X011092Y014731D01*
X011129Y014725D01*
X011167Y014723D01*
X011205Y014725D01*
X011242Y014731D01*
X011279Y014740D01*
X010543Y016017D02*
X010543Y016926D01*
X010544Y016926D02*
X010542Y016910D01*
X010538Y016895D01*
X010530Y016880D01*
X010520Y016868D01*
X010508Y016858D01*
X010493Y016850D01*
X010478Y016846D01*
X010462Y016844D01*
X010400Y016844D01*
X011259Y016967D02*
X011259Y016967D01*
X011258Y016967D02*
X011260Y016983D01*
X011264Y016998D01*
X011272Y017013D01*
X011282Y017025D01*
X011294Y017035D01*
X011309Y017043D01*
X011324Y017047D01*
X011340Y017049D01*
X012771Y017049D01*
X012787Y017047D01*
X012802Y017043D01*
X012817Y017035D01*
X012829Y017025D01*
X012839Y017013D01*
X012847Y016998D01*
X012851Y016983D01*
X012853Y016967D01*
X012852Y016967D02*
X012850Y016947D01*
X012844Y016928D01*
X012835Y016910D01*
X012822Y016895D01*
X012807Y016882D01*
X012789Y016873D01*
X012770Y016867D01*
X012750Y016865D01*
X012751Y016865D02*
X011361Y016865D01*
X011341Y016867D01*
X011322Y016873D01*
X011304Y016882D01*
X011289Y016895D01*
X011276Y016910D01*
X011267Y016928D01*
X011261Y016947D01*
X011259Y016967D01*
X011259Y017253D02*
X011259Y017989D01*
X011259Y018009D02*
X010870Y018009D01*
X010870Y017989D02*
X010870Y017846D01*
X012853Y017989D02*
X012853Y017253D01*
X013241Y017846D02*
X013241Y017989D01*
X013241Y018009D02*
X012853Y018009D01*
X013568Y014310D02*
X013568Y014310D01*
D16*
X015754Y025576D02*
X016454Y025576D01*
X016454Y029616D01*
X015754Y029616D01*
D17*
X017004Y028596D03*
X017004Y027596D03*
X017004Y026596D03*
D18*
X012762Y030371D03*
X012762Y030666D03*
X033674Y030085D03*
X033674Y029612D03*
X033674Y029385D03*
X033674Y028912D03*
D19*
X033674Y029149D03*
X033674Y029849D03*
X015593Y020260D03*
X014593Y020260D03*
X012762Y030519D03*
D20*
X011428Y022703D03*
D21*
X014445Y020260D03*
X014740Y020260D03*
X015445Y020260D03*
X015740Y020260D03*
D22*
X017116Y018244D02*
X017113Y018241D01*
X017113Y018230D01*
X017116Y018227D01*
X017121Y018227D01*
X017124Y018230D01*
X017128Y018230D02*
X017128Y018227D01*
X017131Y018227D01*
X017131Y018230D01*
X017128Y018230D01*
X017128Y018235D02*
X017128Y018238D01*
X017131Y018238D01*
X017131Y018235D01*
X017128Y018235D01*
X017124Y018241D02*
X017121Y018244D01*
X017116Y018244D01*
X017136Y018227D02*
X017147Y018244D01*
X017151Y018244D02*
X017151Y018230D01*
X017154Y018227D01*
X017159Y018227D01*
X017162Y018230D01*
X017162Y018244D01*
X017169Y018238D02*
X017177Y018238D01*
X017182Y018235D02*
X017184Y018238D01*
X017190Y018238D01*
X017193Y018235D01*
X017193Y018233D01*
X017182Y018233D01*
X017182Y018235D02*
X017182Y018230D01*
X017184Y018227D01*
X017190Y018227D01*
X017197Y018227D02*
X017197Y018238D01*
X017197Y018233D02*
X017202Y018238D01*
X017205Y018238D01*
X017209Y018235D02*
X017212Y018238D01*
X017221Y018238D01*
X017218Y018233D02*
X017212Y018233D01*
X017209Y018235D01*
X017209Y018227D02*
X017218Y018227D01*
X017221Y018230D01*
X017218Y018233D01*
X017225Y018227D02*
X017236Y018244D01*
X017240Y018238D02*
X017243Y018238D01*
X017246Y018235D01*
X017248Y018238D01*
X017251Y018235D01*
X017251Y018227D01*
X017255Y018230D02*
X017258Y018227D01*
X017266Y018227D01*
X017271Y018230D02*
X017273Y018227D01*
X017279Y018227D01*
X017282Y018230D01*
X017282Y018235D01*
X017279Y018238D01*
X017273Y018238D01*
X017271Y018235D01*
X017271Y018230D01*
X017266Y018238D02*
X017258Y018238D01*
X017255Y018235D01*
X017255Y018230D01*
X017246Y018227D02*
X017246Y018235D01*
X017240Y018238D02*
X017240Y018227D01*
X017286Y018227D02*
X017294Y018227D01*
X017297Y018230D01*
X017297Y018235D01*
X017294Y018238D01*
X017286Y018238D01*
X017286Y018244D02*
X017286Y018227D01*
X017301Y018227D02*
X017307Y018227D01*
X017304Y018227D02*
X017304Y018244D01*
X017301Y018244D01*
X017311Y018235D02*
X017314Y018238D01*
X017320Y018238D01*
X017322Y018235D01*
X017322Y018233D01*
X017311Y018233D01*
X017311Y018235D02*
X017311Y018230D01*
X017314Y018227D01*
X017320Y018227D01*
X017326Y018227D02*
X017326Y018238D01*
X017326Y018233D02*
X017332Y018238D01*
X017335Y018238D01*
X017339Y018227D02*
X017350Y018244D01*
X017354Y018244D02*
X017363Y018244D01*
X017366Y018241D01*
X017366Y018230D01*
X017363Y018227D01*
X017354Y018227D01*
X017354Y018244D01*
X017370Y018235D02*
X017373Y018238D01*
X017378Y018238D01*
X017381Y018235D01*
X017381Y018233D01*
X017370Y018233D01*
X017370Y018235D02*
X017370Y018230D01*
X017373Y018227D01*
X017378Y018227D01*
X017385Y018227D02*
X017393Y018227D01*
X017396Y018230D01*
X017393Y018233D01*
X017388Y018233D01*
X017385Y018235D01*
X017388Y018238D01*
X017396Y018238D01*
X017400Y018233D02*
X017409Y018238D01*
X017413Y018238D02*
X017419Y018238D01*
X017416Y018241D02*
X017416Y018230D01*
X017419Y018227D01*
X017423Y018230D02*
X017426Y018227D01*
X017431Y018227D01*
X017434Y018230D01*
X017434Y018235D01*
X017431Y018238D01*
X017426Y018238D01*
X017423Y018235D01*
X017423Y018230D01*
X017409Y018227D02*
X017400Y018233D01*
X017400Y018227D02*
X017400Y018244D01*
X017438Y018238D02*
X017447Y018238D01*
X017449Y018235D01*
X017449Y018230D01*
X017447Y018227D01*
X017438Y018227D01*
X017438Y018222D02*
X017438Y018238D01*
X017454Y018227D02*
X017465Y018244D01*
X017469Y018244D02*
X017472Y018244D01*
X017472Y018227D01*
X017474Y018227D02*
X017469Y018227D01*
X017479Y018230D02*
X017482Y018227D01*
X017487Y018227D01*
X017490Y018230D01*
X017490Y018235D01*
X017487Y018238D01*
X017482Y018238D01*
X017479Y018235D01*
X017479Y018230D01*
X017494Y018230D02*
X017497Y018227D01*
X017505Y018227D01*
X017505Y018224D02*
X017505Y018238D01*
X017497Y018238D01*
X017494Y018235D01*
X017494Y018230D01*
X017500Y018222D02*
X017503Y018222D01*
X017505Y018224D01*
X017510Y018230D02*
X017512Y018227D01*
X017518Y018227D01*
X017521Y018230D01*
X017521Y018235D01*
X017518Y018238D01*
X017512Y018238D01*
X017510Y018235D01*
X017510Y018230D01*
X017525Y018227D02*
X017533Y018227D01*
X017536Y018230D01*
X017536Y018233D01*
X017533Y018235D01*
X017525Y018235D01*
X017525Y018227D02*
X017525Y018244D01*
X017533Y018244D01*
X017536Y018241D01*
X017536Y018238D01*
X017533Y018235D01*
X017540Y018227D02*
X017546Y018233D01*
X017551Y018227D01*
X017551Y018244D01*
X017540Y018244D02*
X017540Y018227D01*
X017555Y018227D02*
X017558Y018227D01*
X017558Y018230D01*
X017555Y018230D01*
X017555Y018227D01*
X017563Y018227D02*
X017571Y018227D01*
X017574Y018230D01*
X017574Y018235D01*
X017571Y018238D01*
X017563Y018238D01*
X017563Y018244D02*
X017563Y018227D01*
X017578Y018227D02*
X017578Y018238D01*
X017581Y018238D01*
X017584Y018235D01*
X017587Y018238D01*
X017589Y018235D01*
X017589Y018227D01*
X017594Y018227D02*
X017602Y018227D01*
X017605Y018230D01*
X017605Y018235D01*
X017602Y018238D01*
X017594Y018238D01*
X017594Y018222D01*
X017584Y018227D02*
X017584Y018235D01*
X017177Y018230D02*
X017175Y018233D01*
X017169Y018233D01*
X017166Y018235D01*
X017169Y018238D01*
X017166Y018227D02*
X017175Y018227D01*
X017177Y018230D01*
X012745Y016640D02*
X012747Y016666D01*
X012753Y016692D01*
X012763Y016717D01*
X012776Y016740D01*
X012792Y016760D01*
X012812Y016778D01*
X012834Y016793D01*
X012857Y016805D01*
X012883Y016813D01*
X012909Y016817D01*
X012935Y016817D01*
X012961Y016813D01*
X012987Y016805D01*
X013011Y016793D01*
X013032Y016778D01*
X013052Y016760D01*
X013068Y016740D01*
X013081Y016717D01*
X013091Y016692D01*
X013097Y016666D01*
X013099Y016640D01*
X013097Y016614D01*
X013091Y016588D01*
X013081Y016563D01*
X013068Y016540D01*
X013052Y016520D01*
X013032Y016502D01*
X013010Y016487D01*
X012987Y016475D01*
X012961Y016467D01*
X012935Y016463D01*
X012909Y016463D01*
X012883Y016467D01*
X012857Y016475D01*
X012833Y016487D01*
X012812Y016502D01*
X012792Y016520D01*
X012776Y016540D01*
X012763Y016563D01*
X012753Y016588D01*
X012747Y016614D01*
X012745Y016640D01*
X011013Y016640D02*
X011015Y016666D01*
X011021Y016692D01*
X011031Y016717D01*
X011044Y016740D01*
X011060Y016760D01*
X011080Y016778D01*
X011102Y016793D01*
X011125Y016805D01*
X011151Y016813D01*
X011177Y016817D01*
X011203Y016817D01*
X011229Y016813D01*
X011255Y016805D01*
X011279Y016793D01*
X011300Y016778D01*
X011320Y016760D01*
X011336Y016740D01*
X011349Y016717D01*
X011359Y016692D01*
X011365Y016666D01*
X011367Y016640D01*
X011365Y016614D01*
X011359Y016588D01*
X011349Y016563D01*
X011336Y016540D01*
X011320Y016520D01*
X011300Y016502D01*
X011278Y016487D01*
X011255Y016475D01*
X011229Y016467D01*
X011203Y016463D01*
X011177Y016463D01*
X011151Y016467D01*
X011125Y016475D01*
X011101Y016487D01*
X011080Y016502D01*
X011060Y016520D01*
X011044Y016540D01*
X011031Y016563D01*
X011021Y016588D01*
X011015Y016614D01*
X011013Y016640D01*
X008258Y015070D02*
X008243Y015070D01*
X033521Y015170D02*
X033537Y015170D01*
X033459Y048041D02*
X033475Y048041D01*
X008277Y048041D02*
X008261Y048041D01*
D23*
X029519Y027792D02*
X034570Y027792D01*
X034574Y024335D01*
X034574Y024320D02*
X034574Y022804D01*
X029527Y022804D01*
X029519Y022804D02*
X029519Y027792D01*
X031411Y022431D02*
X031411Y020831D01*
X034211Y020831D01*
X034211Y022431D01*
X031411Y022431D01*
X032471Y021667D02*
X032660Y021667D01*
X032668Y021675D01*
X032667Y021671D02*
X032967Y021971D01*
X032967Y021371D01*
X032667Y021671D01*
X032667Y021971D02*
X032667Y021371D01*
X032971Y021655D02*
X032979Y021663D01*
X033132Y021663D01*
X033306Y019097D02*
X033306Y019001D01*
X033494Y019001D01*
X033306Y019001D02*
X033119Y019001D01*
X033306Y019001D02*
X033494Y018751D01*
X033306Y018751D01*
X033306Y018655D01*
X033306Y018751D02*
X033119Y018751D01*
X033306Y019001D01*
X034628Y037684D02*
X034477Y037834D01*
X034928Y037834D01*
X034928Y037684D02*
X034928Y037984D01*
X034928Y038684D02*
X034628Y038984D01*
X034553Y038984D01*
X034477Y038909D01*
X034477Y038759D01*
X034553Y038684D01*
X034928Y038684D02*
X034928Y038984D01*
X034853Y039684D02*
X034928Y039759D01*
X034928Y039909D01*
X034853Y039984D01*
X034778Y039984D01*
X034703Y039909D01*
X034703Y039834D01*
X034703Y039909D02*
X034628Y039984D01*
X034553Y039984D01*
X034477Y039909D01*
X034477Y039759D01*
X034553Y039684D01*
X034703Y040684D02*
X034703Y040984D01*
X034928Y040909D02*
X034477Y040909D01*
X034703Y040684D01*
X009648Y019442D02*
X009648Y018655D01*
X007558Y018655D01*
X007558Y019442D01*
X009648Y019442D01*
D24*
X009586Y017869D02*
X007641Y017868D01*
X007641Y017007D01*
X009586Y017007D01*
X009586Y017869D01*
X009486Y021467D02*
X007541Y021467D01*
X007541Y022328D01*
X009486Y022329D01*
X009486Y021467D01*
D25*
X033492Y020658D02*
X033667Y020658D01*
X033725Y020600D01*
X033725Y020366D01*
X033667Y020308D01*
X033492Y020308D01*
X033492Y020658D01*
X033952Y020542D02*
X034069Y020658D01*
X034069Y020308D01*
X033952Y020308D02*
X034186Y020308D01*
D26*
X021131Y018269D03*
X017474Y018269D03*
X019257Y024531D03*
D27*
X022355Y018269D03*
D28*
X022380Y018277D03*
X021160Y018277D03*
X021160Y019612D03*
X022380Y019612D03*
X021501Y022043D03*
X021501Y024158D03*
X019286Y024547D03*
X018606Y024158D03*
X018606Y022043D03*
X017503Y018277D03*
D29*
X018962Y018277D03*
X018473Y023975D03*
X021633Y023975D03*
D30*
X022919Y019372D03*
X019609Y019372D03*
X019609Y019380D03*
X019609Y019397D03*
X019609Y019405D03*
X019609Y019430D03*
X019609Y019446D03*
X019609Y019355D03*
X019609Y019347D03*
X019609Y019322D03*
X019609Y019305D03*
X019609Y019281D03*
X019609Y019256D03*
X019609Y019239D03*
X019609Y019214D03*
X019609Y019206D03*
X019609Y019189D03*
X019609Y019181D03*
X019609Y019156D03*
X019609Y019140D03*
X019609Y019115D03*
X019609Y019090D03*
X019609Y019065D03*
X019609Y019048D03*
X019609Y019023D03*
X019609Y019015D03*
X019609Y018999D03*
X019609Y018990D03*
X019609Y018965D03*
X019609Y018949D03*
X019609Y018924D03*
X019609Y018899D03*
X019609Y018874D03*
X019609Y018858D03*
X019609Y018833D03*
X019609Y018824D03*
X019609Y018808D03*
X019609Y018799D03*
X019609Y018775D03*
X019609Y018758D03*
X019609Y018733D03*
X019609Y018708D03*
X019609Y018692D03*
X019609Y018667D03*
X019609Y018658D03*
X019609Y018642D03*
X019609Y018634D03*
X019609Y018617D03*
X019609Y018609D03*
X019609Y018584D03*
X019609Y018567D03*
X019609Y018542D03*
X019609Y018517D03*
X019609Y018501D03*
X019609Y018476D03*
X019609Y018468D03*
X019609Y018451D03*
X019609Y018443D03*
X019609Y018418D03*
X019609Y018401D03*
X019609Y018376D03*
X019609Y018352D03*
X019609Y018327D03*
X019609Y018310D03*
X019609Y018285D03*
X019609Y018277D03*
X017187Y018443D03*
X017187Y018451D03*
X017187Y018468D03*
X017187Y018476D03*
X017187Y018501D03*
X017187Y018517D03*
X017187Y018542D03*
X017187Y018567D03*
X017187Y018584D03*
X017187Y018609D03*
X017187Y018617D03*
X017187Y018634D03*
X017187Y018642D03*
X017187Y018658D03*
X017187Y018667D03*
X017187Y018692D03*
X017187Y018708D03*
X017187Y018733D03*
X017187Y018758D03*
X017187Y018775D03*
X017187Y018799D03*
X017187Y018808D03*
X017187Y018824D03*
X017187Y018833D03*
X017187Y018858D03*
X017187Y019023D03*
X017187Y019048D03*
X017187Y019065D03*
X017187Y019090D03*
X017187Y019115D03*
X017187Y019140D03*
X017187Y019156D03*
X017187Y019181D03*
X017187Y019189D03*
X017187Y019206D03*
X017187Y019214D03*
X017187Y019239D03*
X017187Y019256D03*
X017187Y019281D03*
X017187Y019305D03*
X017187Y019322D03*
X017187Y019347D03*
X017187Y019355D03*
X017187Y019372D03*
X017187Y019380D03*
X017187Y019397D03*
X017187Y019405D03*
X017187Y019430D03*
X017187Y019446D03*
D31*
X018042Y019355D03*
X018050Y019322D03*
X018050Y019305D03*
X018050Y019281D03*
X018050Y019256D03*
X018050Y019239D03*
X018050Y019214D03*
X018050Y019206D03*
X018050Y019189D03*
X018050Y019181D03*
X018050Y019156D03*
X018407Y019156D03*
X018407Y019140D03*
X018407Y019115D03*
X018407Y019090D03*
X018407Y019065D03*
X018407Y019048D03*
X018407Y019023D03*
X018407Y019015D03*
X018407Y018999D03*
X018407Y018990D03*
X018407Y018965D03*
X018407Y018949D03*
X018407Y018924D03*
X018407Y018899D03*
X018407Y018874D03*
X018407Y018858D03*
X018407Y018833D03*
X018407Y018824D03*
X018407Y018808D03*
X018407Y018799D03*
X018407Y018775D03*
X018407Y018758D03*
X018407Y018733D03*
X018407Y018708D03*
X018407Y018692D03*
X018407Y018667D03*
X018407Y018658D03*
X018407Y018642D03*
X018407Y018634D03*
X018407Y018617D03*
X018407Y018609D03*
X018407Y018584D03*
X018407Y018567D03*
X018050Y018567D03*
X018050Y018584D03*
X018050Y018609D03*
X018050Y018617D03*
X018050Y018634D03*
X018050Y018642D03*
X018050Y018658D03*
X018050Y018667D03*
X018050Y018692D03*
X018050Y018708D03*
X018050Y018733D03*
X018042Y018758D03*
X018407Y019181D03*
X018407Y019189D03*
X018407Y019206D03*
X018407Y019214D03*
X018407Y019239D03*
X018407Y019256D03*
X018407Y019281D03*
X018407Y019305D03*
X018407Y019322D03*
X019162Y021205D03*
X020480Y019355D03*
X020489Y019322D03*
X020489Y019305D03*
X020489Y019281D03*
X020489Y019256D03*
X020489Y019239D03*
X020489Y019214D03*
X020489Y019206D03*
X020489Y019189D03*
X020489Y019181D03*
X020489Y019156D03*
X020489Y019140D03*
X020489Y019115D03*
X020489Y019090D03*
X020489Y019065D03*
X020489Y019048D03*
X020489Y019023D03*
X020489Y019015D03*
X020489Y018999D03*
X020489Y018990D03*
X020489Y018965D03*
X020489Y018949D03*
X020489Y018924D03*
X020489Y018899D03*
X020489Y018874D03*
X020489Y018858D03*
X020489Y018833D03*
X020489Y018824D03*
X020489Y018808D03*
X020489Y018799D03*
X020489Y018775D03*
X020489Y018758D03*
X020489Y018733D03*
X020489Y018708D03*
X020489Y018692D03*
X020489Y018667D03*
X020489Y018658D03*
X020489Y018642D03*
X020489Y018634D03*
X020489Y018617D03*
X020489Y018609D03*
X020489Y018584D03*
X020489Y018567D03*
X020489Y018542D03*
X020489Y018517D03*
X020489Y018501D03*
X020489Y018476D03*
X020489Y018468D03*
X020489Y018451D03*
X020489Y018443D03*
X020489Y018418D03*
X020489Y018401D03*
X020489Y018376D03*
X020489Y018352D03*
X020489Y018327D03*
X020489Y018310D03*
X020489Y018285D03*
X020489Y018277D03*
X021700Y018517D03*
X021708Y018567D03*
X021708Y018584D03*
X021708Y018609D03*
X021708Y018617D03*
X021708Y018634D03*
X021708Y018642D03*
X021708Y018658D03*
X021708Y018667D03*
X021708Y018692D03*
X021708Y018708D03*
X021708Y018733D03*
X022065Y018733D03*
X022065Y018708D03*
X022065Y018692D03*
X022065Y018667D03*
X022065Y018658D03*
X022065Y018642D03*
X022065Y018634D03*
X022065Y018617D03*
X022065Y018609D03*
X022065Y018584D03*
X022065Y018567D03*
X022065Y018542D03*
X022065Y018517D03*
X022065Y018501D03*
X022065Y018476D03*
X022065Y018468D03*
X022065Y018451D03*
X022065Y018443D03*
X022065Y018758D03*
X022065Y018775D03*
X022065Y018799D03*
X022065Y018808D03*
X022065Y018824D03*
X022065Y018833D03*
X022065Y018858D03*
X022065Y018874D03*
X022065Y018899D03*
X022065Y018924D03*
X022065Y018949D03*
X022065Y018965D03*
X022065Y018990D03*
X022065Y018999D03*
X022065Y019015D03*
X022065Y019023D03*
X022065Y019048D03*
X022065Y019065D03*
X022065Y019090D03*
X022065Y019115D03*
X022065Y019140D03*
X022065Y019156D03*
X022065Y019181D03*
X022065Y019189D03*
X022065Y019206D03*
X022065Y019214D03*
X022065Y019239D03*
X022065Y019256D03*
X022065Y019281D03*
X022065Y019305D03*
X022065Y019322D03*
X022065Y019347D03*
X022065Y019355D03*
X022065Y019372D03*
X022065Y019380D03*
X022065Y019397D03*
X022065Y019405D03*
X022065Y019430D03*
X022065Y019446D03*
X021708Y019322D03*
X021708Y019305D03*
X021708Y019281D03*
X021708Y019256D03*
X021708Y019239D03*
X021708Y019214D03*
X021708Y019206D03*
X021708Y019189D03*
X021708Y019181D03*
X021708Y019156D03*
X022927Y019156D03*
X022927Y019140D03*
X022927Y019115D03*
X022927Y019090D03*
X022927Y019065D03*
X022927Y019048D03*
X022927Y019023D03*
X022927Y019015D03*
X022927Y018999D03*
X022927Y018990D03*
X022927Y018965D03*
X022927Y018949D03*
X022927Y018924D03*
X022927Y018899D03*
X022927Y018874D03*
X022927Y018858D03*
X022927Y018833D03*
X022927Y018824D03*
X022927Y018808D03*
X022927Y018799D03*
X022927Y018775D03*
X022927Y018758D03*
X022927Y018733D03*
X022927Y018708D03*
X022927Y018692D03*
X022927Y018667D03*
X022927Y018658D03*
X022927Y018642D03*
X022927Y018634D03*
X022927Y018617D03*
X022927Y018609D03*
X022927Y018584D03*
X022927Y018567D03*
X022927Y018542D03*
X022927Y019181D03*
X022927Y019189D03*
X022927Y019206D03*
X022927Y019214D03*
X022927Y019239D03*
X022927Y019256D03*
X022927Y019281D03*
X022927Y019305D03*
X022927Y019322D03*
X022927Y019347D03*
X020945Y024995D03*
D32*
X021463Y022001D03*
X020053Y021810D03*
X021173Y018285D03*
X017515Y018285D03*
D33*
X017499Y019612D03*
X018942Y018285D03*
X018585Y022067D03*
X018585Y024133D03*
X021521Y024133D03*
X021538Y022092D03*
X021521Y022067D03*
D34*
X021451Y024216D03*
X018656Y024216D03*
X021293Y018965D03*
X021293Y018924D03*
X022396Y018285D03*
D35*
X022405Y018294D03*
X021185Y018294D03*
X021301Y018982D03*
X017528Y018294D03*
X018680Y024249D03*
X021426Y024249D03*
D36*
X021476Y022009D03*
X018631Y022009D03*
X018929Y018294D03*
D37*
X019609Y018294D03*
X019609Y018318D03*
X019609Y018343D03*
X019609Y018360D03*
X019609Y018385D03*
X019609Y018410D03*
X019609Y018435D03*
X019609Y018484D03*
X019609Y018509D03*
X019609Y018534D03*
X019609Y018551D03*
X019609Y018576D03*
X019609Y018600D03*
X019609Y018675D03*
X019609Y018700D03*
X019609Y018725D03*
X019609Y018741D03*
X019609Y018766D03*
X019609Y018791D03*
X019609Y018841D03*
X019609Y018866D03*
X019609Y018891D03*
X019609Y018916D03*
X019609Y018932D03*
X019609Y018957D03*
X019609Y018982D03*
X019609Y019032D03*
X019609Y019057D03*
X019609Y019081D03*
X019609Y019098D03*
X019609Y019123D03*
X019609Y019148D03*
X019609Y019173D03*
X019609Y019223D03*
X019609Y019247D03*
X019609Y019272D03*
X019609Y019289D03*
X019609Y019314D03*
X019609Y019339D03*
X019609Y019413D03*
X019609Y019438D03*
X019609Y019463D03*
X017187Y019463D03*
X017187Y019438D03*
X017187Y019413D03*
X017187Y019339D03*
X017187Y019314D03*
X017187Y019289D03*
X017187Y019272D03*
X017187Y019247D03*
X017187Y019223D03*
X017187Y019173D03*
X017187Y019148D03*
X017187Y019123D03*
X017187Y019098D03*
X017187Y019081D03*
X017187Y019057D03*
X017187Y019032D03*
X017187Y018841D03*
X017187Y018791D03*
X017187Y018766D03*
X017187Y018741D03*
X017187Y018725D03*
X017187Y018700D03*
X017187Y018675D03*
X017187Y018600D03*
X017187Y018576D03*
X017187Y018551D03*
X017187Y018534D03*
X017187Y018509D03*
X017187Y018484D03*
X017187Y018435D03*
D38*
X018042Y018534D03*
X018050Y018576D03*
X018050Y018600D03*
X018050Y018675D03*
X018050Y018700D03*
X018050Y018725D03*
X018042Y018766D03*
X018042Y019123D03*
X018050Y019173D03*
X018050Y019223D03*
X018050Y019247D03*
X018050Y019272D03*
X018050Y019289D03*
X018050Y019314D03*
X018407Y019314D03*
X018407Y019339D03*
X018407Y019289D03*
X018407Y019272D03*
X018407Y019247D03*
X018407Y019223D03*
X018407Y019173D03*
X018407Y019148D03*
X018407Y019123D03*
X018407Y019098D03*
X018407Y019081D03*
X018407Y019057D03*
X018407Y019032D03*
X018407Y018982D03*
X018407Y018957D03*
X018407Y018932D03*
X018407Y018916D03*
X018407Y018891D03*
X018407Y018866D03*
X018407Y018841D03*
X018407Y018791D03*
X018407Y018766D03*
X018407Y018741D03*
X018407Y018725D03*
X018407Y018700D03*
X018407Y018675D03*
X018407Y018600D03*
X018407Y018576D03*
X020489Y018576D03*
X020489Y018600D03*
X020489Y018551D03*
X020489Y018534D03*
X020489Y018509D03*
X020489Y018484D03*
X020489Y018435D03*
X020489Y018410D03*
X020489Y018385D03*
X020489Y018360D03*
X020489Y018343D03*
X020489Y018318D03*
X020489Y018294D03*
X020489Y018675D03*
X020489Y018700D03*
X020489Y018725D03*
X020489Y018741D03*
X020489Y018766D03*
X020489Y018791D03*
X020489Y018841D03*
X020489Y018866D03*
X020489Y018891D03*
X020489Y018916D03*
X020489Y018932D03*
X020489Y018957D03*
X020489Y018982D03*
X020489Y019032D03*
X020489Y019057D03*
X020489Y019081D03*
X020489Y019098D03*
X020489Y019123D03*
X020489Y019148D03*
X020489Y019173D03*
X020489Y019223D03*
X020489Y019247D03*
X020489Y019272D03*
X020489Y019289D03*
X020489Y019314D03*
X021708Y019314D03*
X021708Y019339D03*
X021708Y019289D03*
X021708Y019272D03*
X021708Y019247D03*
X021708Y019223D03*
X021708Y019173D03*
X021708Y019148D03*
X021700Y019123D03*
X021700Y018766D03*
X021708Y018741D03*
X021708Y018725D03*
X021708Y018700D03*
X021708Y018675D03*
X021708Y018600D03*
X021708Y018576D03*
X021708Y018551D03*
X022065Y018551D03*
X022065Y018534D03*
X022065Y018509D03*
X022065Y018484D03*
X022065Y018435D03*
X022065Y018576D03*
X022065Y018600D03*
X022065Y018675D03*
X022065Y018700D03*
X022065Y018725D03*
X022065Y018741D03*
X022065Y018766D03*
X022065Y018791D03*
X022065Y018841D03*
X022065Y018866D03*
X022065Y018891D03*
X022065Y018916D03*
X022065Y018932D03*
X022065Y018957D03*
X022065Y018982D03*
X022065Y019032D03*
X022065Y019057D03*
X022065Y019081D03*
X022065Y019098D03*
X022065Y019123D03*
X022065Y019148D03*
X022065Y019173D03*
X022065Y019223D03*
X022065Y019247D03*
X022065Y019272D03*
X022065Y019289D03*
X022065Y019314D03*
X022065Y019339D03*
X022065Y019413D03*
X022065Y019438D03*
X022065Y019463D03*
X022927Y019339D03*
X022927Y019314D03*
X022927Y019289D03*
X022927Y019272D03*
X022927Y019247D03*
X022927Y019223D03*
X022927Y019173D03*
X022927Y019148D03*
X022927Y019123D03*
X022927Y019098D03*
X022927Y019081D03*
X022927Y019057D03*
X022927Y019032D03*
X022927Y018982D03*
X022927Y018957D03*
X022927Y018932D03*
X022927Y018916D03*
X022927Y018891D03*
X022927Y018866D03*
X022927Y018841D03*
X022927Y018791D03*
X022927Y018766D03*
X022927Y018741D03*
X022927Y018725D03*
X022927Y018700D03*
X022927Y018675D03*
X022927Y018600D03*
X022927Y018576D03*
X022927Y018551D03*
X020928Y021197D03*
X018382Y021885D03*
X019178Y025004D03*
X021724Y024315D03*
D39*
X021401Y021926D03*
X021194Y019587D03*
X021194Y018302D03*
X017536Y018302D03*
X017536Y019587D03*
X018705Y024274D03*
D40*
X018917Y018302D03*
D41*
X019609Y018302D03*
X019609Y018335D03*
X019609Y018368D03*
X019609Y018393D03*
X019609Y018426D03*
X019609Y018493D03*
X019609Y018526D03*
X019609Y018559D03*
X019609Y018592D03*
X019609Y018683D03*
X019609Y018717D03*
X019609Y018750D03*
X019609Y018783D03*
X019609Y018849D03*
X019609Y018882D03*
X019609Y018907D03*
X019609Y018940D03*
X019609Y018974D03*
X019609Y019040D03*
X019609Y019073D03*
X019609Y019106D03*
X019609Y019131D03*
X019609Y019164D03*
X019609Y019231D03*
X019609Y019264D03*
X019609Y019297D03*
X019609Y019330D03*
X019609Y019422D03*
X019609Y019455D03*
X017187Y019455D03*
X017187Y019422D03*
X017187Y019330D03*
X017187Y019297D03*
X017187Y019264D03*
X017187Y019231D03*
X017187Y019164D03*
X017187Y019131D03*
X017187Y019106D03*
X017187Y019073D03*
X017187Y019040D03*
X017187Y018849D03*
X017187Y018783D03*
X017187Y018750D03*
X017187Y018717D03*
X017187Y018683D03*
X017187Y018592D03*
X017187Y018559D03*
X017187Y018526D03*
X017187Y018493D03*
X017187Y018426D03*
D42*
X018042Y018526D03*
X018050Y018559D03*
X018050Y018592D03*
X018050Y018683D03*
X018050Y018717D03*
X018407Y018717D03*
X018407Y018750D03*
X018407Y018783D03*
X018407Y018849D03*
X018407Y018882D03*
X018407Y018907D03*
X018407Y018940D03*
X018407Y018974D03*
X018407Y019040D03*
X018407Y019073D03*
X018407Y019106D03*
X018407Y019131D03*
X018407Y019164D03*
X018407Y019231D03*
X018407Y019264D03*
X018407Y019297D03*
X018407Y019330D03*
X018050Y019330D03*
X018050Y019297D03*
X018050Y019264D03*
X018050Y019231D03*
X018050Y019164D03*
X018042Y019131D03*
X018407Y018683D03*
X018407Y018592D03*
X018407Y018559D03*
X018415Y018526D03*
X020489Y018526D03*
X020489Y018559D03*
X020489Y018592D03*
X020489Y018683D03*
X020489Y018717D03*
X020489Y018750D03*
X020489Y018783D03*
X020489Y018849D03*
X020489Y018882D03*
X020489Y018907D03*
X020489Y018940D03*
X020489Y018974D03*
X020489Y019040D03*
X020489Y019073D03*
X020489Y019106D03*
X020489Y019131D03*
X020489Y019164D03*
X020489Y019231D03*
X020489Y019264D03*
X020489Y019297D03*
X020489Y019330D03*
X020489Y018493D03*
X020489Y018426D03*
X020489Y018393D03*
X020489Y018368D03*
X020489Y018335D03*
X020489Y018302D03*
X021708Y018559D03*
X021708Y018592D03*
X021708Y018683D03*
X021708Y018717D03*
X022065Y018717D03*
X022065Y018750D03*
X022065Y018783D03*
X022065Y018849D03*
X022065Y018882D03*
X022065Y018907D03*
X022065Y018940D03*
X022065Y018974D03*
X022065Y019040D03*
X022065Y019073D03*
X022065Y019106D03*
X022065Y019131D03*
X022065Y019164D03*
X022065Y019231D03*
X022065Y019264D03*
X022065Y019297D03*
X022065Y019330D03*
X022065Y019422D03*
X022065Y019455D03*
X021708Y019330D03*
X021708Y019297D03*
X021708Y019264D03*
X021708Y019231D03*
X021708Y019164D03*
X022065Y018683D03*
X022065Y018592D03*
X022065Y018559D03*
X022065Y018526D03*
X022065Y018493D03*
X022065Y018426D03*
X022927Y018559D03*
X022927Y018592D03*
X022927Y018683D03*
X022927Y018717D03*
X022927Y018750D03*
X022927Y018783D03*
X022927Y018849D03*
X022927Y018882D03*
X022927Y018907D03*
X022927Y018940D03*
X022927Y018974D03*
X022927Y019040D03*
X022927Y019073D03*
X022927Y019106D03*
X022927Y019131D03*
X022927Y019164D03*
X022927Y019231D03*
X022927Y019264D03*
X022927Y019297D03*
X022927Y019330D03*
D43*
X022413Y019587D03*
X022413Y018302D03*
X021310Y018882D03*
D44*
X018900Y019571D03*
X017540Y018310D03*
D45*
X018909Y018310D03*
X019290Y021644D03*
D46*
X019319Y024564D03*
X021202Y018310D03*
X022421Y018310D03*
D47*
X021206Y018318D03*
X019970Y019579D03*
X017548Y018318D03*
D48*
X018904Y018318D03*
X018904Y019579D03*
X018697Y024265D03*
D49*
X022429Y018318D03*
D50*
X017552Y018327D03*
X017552Y019563D03*
X020795Y024564D03*
D51*
X018896Y018327D03*
D52*
X021214Y018327D03*
X022434Y018327D03*
X022434Y019563D03*
X021214Y019563D03*
D53*
X021218Y018335D03*
X017561Y018335D03*
D54*
X018892Y018335D03*
D55*
X022438Y018335D03*
D56*
X021223Y018343D03*
X020766Y021628D03*
X018875Y018360D03*
X017565Y018343D03*
D57*
X018884Y018343D03*
X020053Y021313D03*
D58*
X022446Y018343D03*
D59*
X017569Y018352D03*
X017569Y018949D03*
X017569Y019538D03*
D60*
X018880Y018352D03*
X019983Y019563D03*
D61*
X021227Y019538D03*
X021227Y018352D03*
X022446Y019538D03*
D62*
X022450Y018352D03*
X020053Y024373D03*
D63*
X019332Y021628D03*
X017573Y019529D03*
X017573Y018957D03*
X017573Y018932D03*
X017573Y018360D03*
X021231Y018360D03*
X021231Y019529D03*
D64*
X022454Y019529D03*
X022454Y018360D03*
X018863Y018385D03*
X018863Y019505D03*
D65*
X017577Y019521D03*
X017577Y018368D03*
X021235Y018368D03*
X021235Y019521D03*
X022454Y019521D03*
D66*
X018871Y018368D03*
X017569Y018940D03*
D67*
X017581Y018974D03*
X018859Y018393D03*
X022458Y018368D03*
X020932Y023113D03*
X019174Y023113D03*
D68*
X019174Y023121D03*
X019174Y023137D03*
X019174Y023096D03*
X019174Y023088D03*
X019174Y023071D03*
X019174Y023063D03*
X020932Y023071D03*
X020932Y023088D03*
X020932Y023096D03*
X020932Y023121D03*
X020932Y023137D03*
X021239Y019513D03*
X021239Y018376D03*
X022458Y019513D03*
X018859Y019496D03*
X018859Y018401D03*
X017581Y018376D03*
X017581Y019513D03*
D69*
X018867Y019513D03*
X019995Y019546D03*
X018867Y018376D03*
X020775Y024572D03*
D70*
X020928Y023187D03*
X020928Y023162D03*
X020928Y023063D03*
X020928Y023046D03*
X020928Y023038D03*
X020928Y023013D03*
X019178Y023013D03*
X019178Y023038D03*
X019178Y023046D03*
X019178Y023162D03*
X019178Y023187D03*
X022463Y018376D03*
D71*
X021243Y018385D03*
X021243Y019505D03*
X018855Y019480D03*
X018855Y018410D03*
X017586Y018385D03*
X017586Y018982D03*
X017586Y019505D03*
X019186Y023220D03*
D72*
X019178Y023171D03*
X019178Y023154D03*
X019178Y023030D03*
X020928Y023030D03*
X020928Y023154D03*
X020928Y023171D03*
X022463Y019505D03*
X022463Y018385D03*
D73*
X022467Y018393D03*
X021248Y018393D03*
X020053Y021321D03*
X020053Y021835D03*
X019182Y022988D03*
X019182Y023212D03*
X017590Y019488D03*
X017590Y018393D03*
X018850Y018426D03*
D74*
X018850Y018418D03*
X018850Y019471D03*
X020012Y019513D03*
X021248Y019496D03*
X022467Y019496D03*
X020916Y022972D03*
X020924Y022996D03*
X020924Y023204D03*
X020916Y023229D03*
X020916Y023237D03*
X019191Y023237D03*
X019191Y023229D03*
X019182Y023204D03*
X019182Y022996D03*
X019191Y022972D03*
X017590Y019496D03*
X017590Y018999D03*
X017590Y018401D03*
D75*
X017594Y018874D03*
X017594Y019015D03*
X019195Y022947D03*
X019195Y023254D03*
X019195Y023262D03*
X020912Y023262D03*
X020912Y023254D03*
X020912Y022947D03*
X021252Y018401D03*
X022471Y018401D03*
D76*
X022471Y019480D03*
X021252Y019480D03*
X021252Y018410D03*
X019195Y022938D03*
X019361Y024581D03*
X017594Y019480D03*
X017594Y018410D03*
D77*
X019207Y023295D03*
X020899Y023295D03*
X020899Y022913D03*
X022475Y018410D03*
D78*
X020020Y019496D03*
X017598Y019471D03*
X017598Y018418D03*
X019199Y022930D03*
X020907Y022930D03*
D79*
X020899Y022905D03*
X020742Y021620D03*
X019207Y022905D03*
X021256Y019471D03*
X021256Y018418D03*
X022475Y018418D03*
X022475Y019471D03*
D80*
X022852Y018426D03*
X017967Y018426D03*
D81*
X021629Y018426D03*
D82*
X021642Y018435D03*
X021642Y019032D03*
X017984Y019032D03*
X017984Y018435D03*
D83*
X018481Y018435D03*
X021625Y019463D03*
D84*
X022865Y018435D03*
D85*
X022877Y018443D03*
X022877Y019446D03*
X021658Y018443D03*
X020431Y019446D03*
X020936Y021213D03*
X017992Y019446D03*
X017992Y018443D03*
X018457Y018451D03*
D86*
X018469Y018443D03*
X021654Y019446D03*
D87*
X022890Y019430D03*
X018004Y019048D03*
X018004Y018451D03*
D88*
X018444Y018468D03*
X020053Y021752D03*
X021662Y019048D03*
X021662Y018451D03*
X022882Y018451D03*
D89*
X019609Y018459D03*
X019609Y018625D03*
X019609Y018650D03*
X019609Y018816D03*
X019609Y019007D03*
X019609Y019198D03*
X019609Y019364D03*
X019609Y019388D03*
X017187Y019388D03*
X017187Y019364D03*
X017187Y019198D03*
X017187Y018816D03*
X017187Y018650D03*
X017187Y018625D03*
X017187Y018459D03*
D90*
X018009Y018459D03*
X021666Y018459D03*
D91*
X018452Y018459D03*
X019157Y021221D03*
D92*
X018415Y019364D03*
X018407Y019198D03*
X018407Y019007D03*
X018407Y018816D03*
X018407Y018650D03*
X018407Y018625D03*
X018050Y018625D03*
X018050Y018650D03*
X018050Y019198D03*
X018042Y019364D03*
X020480Y019364D03*
X020489Y019198D03*
X020489Y019007D03*
X020489Y018816D03*
X020489Y018650D03*
X020489Y018625D03*
X020489Y018459D03*
X021708Y018625D03*
X021708Y018650D03*
X022065Y018650D03*
X022065Y018625D03*
X022065Y018459D03*
X022065Y018816D03*
X022065Y019007D03*
X022065Y019198D03*
X022065Y019364D03*
X022065Y019388D03*
X021708Y019198D03*
X022927Y019198D03*
X022927Y019007D03*
X022927Y018816D03*
X022927Y018650D03*
X022927Y018625D03*
D93*
X022890Y018459D03*
D94*
X018448Y019430D03*
X018017Y018468D03*
D95*
X018009Y018833D03*
X018440Y018476D03*
X018009Y019430D03*
X020447Y019430D03*
X021666Y019430D03*
X021675Y019065D03*
X021666Y018833D03*
X021675Y018824D03*
X021675Y018468D03*
X022894Y018468D03*
X021716Y024307D03*
D96*
X021712Y021877D03*
X020932Y021205D03*
X019157Y021213D03*
X018013Y019065D03*
X018013Y018824D03*
X018021Y018476D03*
X021679Y018476D03*
X022898Y018476D03*
X022906Y019405D03*
X018394Y024323D03*
X019174Y024995D03*
D97*
X018034Y019098D03*
X018025Y019081D03*
X018034Y018791D03*
X018025Y018484D03*
X021691Y018791D03*
X021691Y019098D03*
D98*
X021679Y019413D03*
X022898Y019413D03*
X022906Y018484D03*
X018436Y018484D03*
X018436Y019413D03*
X018021Y019413D03*
X020949Y024987D03*
D99*
X021683Y019081D03*
X021683Y018484D03*
D100*
X021691Y018493D03*
X022911Y018493D03*
X018034Y018493D03*
D101*
X018427Y018493D03*
X018021Y019073D03*
X021679Y019073D03*
D102*
X021691Y019090D03*
X021691Y018799D03*
X021691Y019397D03*
X020472Y019397D03*
X020464Y019405D03*
X018432Y019405D03*
X018034Y019397D03*
X018025Y019405D03*
X018025Y018808D03*
X018025Y018799D03*
X018034Y018501D03*
X022911Y019397D03*
D103*
X021683Y019405D03*
X021683Y018808D03*
X018423Y018501D03*
X018423Y019397D03*
D104*
X018411Y019355D03*
X018411Y019347D03*
X018029Y019090D03*
X018411Y018542D03*
X020476Y019372D03*
X020476Y019380D03*
X021695Y019380D03*
X021695Y019372D03*
X021695Y019115D03*
X021695Y018775D03*
X021695Y018501D03*
X022915Y018501D03*
X022923Y018517D03*
X022923Y019355D03*
X022915Y019380D03*
D105*
X021704Y018534D03*
X020484Y019339D03*
X018419Y018509D03*
X018046Y018551D03*
X018038Y018509D03*
X018046Y018741D03*
X018046Y019148D03*
X018046Y019339D03*
D106*
X018411Y018551D03*
X018411Y018534D03*
X017192Y018866D03*
X021695Y018509D03*
X022915Y018509D03*
X022923Y018534D03*
D107*
X021704Y018542D03*
X021704Y018758D03*
X021704Y019140D03*
X021704Y019347D03*
X021704Y019355D03*
X020484Y019347D03*
X018419Y019372D03*
X018419Y019380D03*
X018046Y019347D03*
X018038Y019372D03*
X018038Y019380D03*
X018046Y019140D03*
X018038Y019115D03*
X018038Y018775D03*
X018046Y018542D03*
X018038Y018517D03*
X018419Y018517D03*
D108*
X018046Y018750D03*
X018038Y018783D03*
X018038Y019106D03*
X021704Y019131D03*
X021704Y018750D03*
X021704Y018526D03*
D109*
X021695Y018783D03*
X021695Y019106D03*
X022923Y018526D03*
D110*
X021679Y018816D03*
X018021Y018816D03*
D111*
X018000Y018841D03*
X021658Y018841D03*
X021700Y021885D03*
X019170Y024987D03*
X018407Y024315D03*
D112*
X019166Y024979D03*
X021704Y024299D03*
X017988Y018849D03*
D113*
X017992Y019040D03*
X021650Y019040D03*
X021650Y018849D03*
D114*
X021637Y018858D03*
X017980Y018858D03*
D115*
X017955Y018866D03*
D116*
X021617Y018866D03*
D117*
X021314Y018874D03*
X021314Y019015D03*
D118*
X021252Y019488D03*
X022471Y019488D03*
X020912Y022955D03*
X019195Y022955D03*
X020049Y024879D03*
X017594Y018882D03*
D119*
X017590Y018891D03*
X019191Y022963D03*
X019191Y022980D03*
X019182Y023005D03*
X019182Y023195D03*
X020916Y023220D03*
X020924Y023195D03*
X020924Y023005D03*
X020916Y022980D03*
X020916Y022963D03*
D120*
X021306Y018891D03*
D121*
X017586Y018899D03*
X017586Y018990D03*
D122*
X018693Y021943D03*
X021413Y021943D03*
X021306Y018999D03*
X021306Y018990D03*
X021306Y018899D03*
X021413Y024257D03*
D123*
X020920Y023212D03*
X020920Y022988D03*
X020008Y019521D03*
X018855Y019488D03*
X017586Y018907D03*
D124*
X018913Y019587D03*
X021301Y018907D03*
X021434Y024241D03*
X018672Y024241D03*
D125*
X019174Y023129D03*
X019174Y023104D03*
X020932Y023104D03*
X020932Y023129D03*
X017581Y018916D03*
D126*
X021297Y018916D03*
X020053Y024390D03*
D127*
X019999Y019538D03*
X017577Y018965D03*
X017577Y018924D03*
D128*
X017515Y019604D03*
X021173Y019604D03*
X021289Y018957D03*
X021289Y018932D03*
X022392Y019604D03*
D129*
X021285Y018940D03*
D130*
X021285Y018949D03*
X018639Y022001D03*
X020829Y024547D03*
D131*
X021297Y018974D03*
D132*
X020912Y023245D03*
X017594Y019007D03*
D133*
X021310Y019007D03*
D134*
X017963Y019023D03*
X020053Y024448D03*
D135*
X018415Y024307D03*
X021625Y019023D03*
D136*
X021666Y019057D03*
X018009Y019057D03*
D137*
X021704Y019364D03*
D138*
X022915Y019388D03*
X022923Y019364D03*
D139*
X021691Y019388D03*
X020472Y019388D03*
X018034Y019388D03*
D140*
X018423Y019388D03*
D141*
X020460Y019413D03*
D142*
X020455Y019422D03*
X018017Y019422D03*
D143*
X018440Y019422D03*
X018390Y021893D03*
X021675Y019422D03*
X022894Y019422D03*
D144*
X018004Y019438D03*
D145*
X018452Y019438D03*
X020443Y019438D03*
X021662Y019438D03*
X022882Y019438D03*
D146*
X018461Y019446D03*
D147*
X017984Y019455D03*
X020422Y019455D03*
X021642Y019455D03*
D148*
X018473Y019455D03*
D149*
X022865Y019455D03*
D150*
X022852Y019463D03*
X020406Y019463D03*
X017967Y019463D03*
D151*
X018486Y019463D03*
X018411Y021910D03*
X020957Y024962D03*
X021695Y024290D03*
D152*
X020028Y019471D03*
D153*
X020024Y019480D03*
X019203Y022913D03*
X020754Y024581D03*
D154*
X020907Y023278D03*
X020907Y022922D03*
X019199Y022922D03*
X019199Y023278D03*
X020020Y019488D03*
D155*
X020016Y019505D03*
D156*
X018867Y019521D03*
D157*
X018871Y019529D03*
D158*
X020003Y019529D03*
D159*
X018875Y019538D03*
X017565Y019546D03*
X020053Y021827D03*
X021223Y019546D03*
X022442Y019546D03*
X019340Y024572D03*
D160*
X019979Y019571D03*
X018884Y019546D03*
D161*
X017561Y019554D03*
X021218Y019554D03*
D162*
X018888Y019554D03*
D163*
X019991Y019554D03*
D164*
X022438Y019554D03*
D165*
X021206Y019571D03*
X018892Y019563D03*
X017548Y019571D03*
D166*
X022425Y019571D03*
X020053Y024382D03*
D167*
X020053Y021819D03*
X017540Y019579D03*
D168*
X021202Y019579D03*
X022421Y019579D03*
D169*
X019966Y019587D03*
D170*
X020808Y021644D03*
X021438Y021968D03*
X021447Y021976D03*
X021438Y024232D03*
X018668Y024232D03*
X018660Y021976D03*
X018668Y021968D03*
X017523Y019596D03*
D171*
X018921Y019596D03*
D172*
X019958Y019596D03*
D173*
X021185Y019596D03*
X022405Y019596D03*
X021426Y021951D03*
X018680Y021951D03*
X018689Y024257D03*
X020049Y024896D03*
D174*
X018933Y019604D03*
D175*
X019945Y019604D03*
X018660Y024224D03*
X021447Y024224D03*
D176*
X018564Y022092D03*
X018946Y019612D03*
D177*
X019929Y019612D03*
D178*
X022355Y019621D03*
X017470Y019621D03*
D179*
X018975Y019621D03*
D180*
X019908Y019621D03*
X018481Y022217D03*
X018457Y022250D03*
X021625Y022217D03*
X021650Y023950D03*
D181*
X020849Y021669D03*
X021131Y019621D03*
D182*
X022160Y020160D03*
X022160Y020193D03*
X022160Y020226D03*
X022160Y020259D03*
X022160Y020326D03*
X022160Y020359D03*
X022160Y020384D03*
X022160Y020417D03*
X022160Y020450D03*
X022160Y020516D03*
X017946Y020516D03*
X017946Y020450D03*
X017946Y020417D03*
X017946Y020384D03*
X017946Y020359D03*
X017946Y020326D03*
X017946Y020259D03*
X017946Y020226D03*
X017946Y020193D03*
X017946Y020160D03*
X017946Y025684D03*
X017946Y025717D03*
X017946Y025750D03*
X017946Y025775D03*
X017946Y025808D03*
X017946Y025874D03*
X017946Y025908D03*
X017946Y025941D03*
X017946Y025974D03*
X022160Y025974D03*
X022160Y025941D03*
X022160Y025908D03*
X022160Y025874D03*
X022160Y025808D03*
X022160Y025775D03*
X022160Y025750D03*
X022160Y025717D03*
X022160Y025684D03*
D183*
X022160Y025692D03*
X022160Y025709D03*
X022160Y025733D03*
X022160Y025758D03*
X022160Y025783D03*
X022160Y025800D03*
X022160Y025825D03*
X022160Y025833D03*
X022160Y025850D03*
X022160Y025858D03*
X022160Y025883D03*
X022160Y025899D03*
X022160Y025924D03*
X022160Y025949D03*
X022160Y025966D03*
X022160Y025991D03*
X022160Y025999D03*
X022160Y026015D03*
X022160Y026024D03*
X022160Y026040D03*
X020053Y024166D03*
X017946Y025692D03*
X017946Y025709D03*
X017946Y025733D03*
X017946Y025758D03*
X017946Y025783D03*
X017946Y025800D03*
X017946Y025825D03*
X017946Y025833D03*
X017946Y025850D03*
X017946Y025858D03*
X017946Y025883D03*
X017946Y025899D03*
X017946Y025924D03*
X017946Y025949D03*
X017946Y025966D03*
X017946Y025991D03*
X017946Y025999D03*
X017946Y026015D03*
X017946Y026024D03*
X017946Y026040D03*
X017946Y020525D03*
X017946Y020500D03*
X017946Y020492D03*
X017946Y020475D03*
X017946Y020467D03*
X017946Y020442D03*
X017946Y020425D03*
X017946Y020400D03*
X017946Y020375D03*
X017946Y020351D03*
X017946Y020334D03*
X017946Y020309D03*
X017946Y020301D03*
X017946Y020284D03*
X017946Y020276D03*
X017946Y020251D03*
X017946Y020234D03*
X017946Y020210D03*
X017946Y020185D03*
X017946Y020168D03*
X022160Y020168D03*
X022160Y020185D03*
X022160Y020210D03*
X022160Y020234D03*
X022160Y020251D03*
X022160Y020276D03*
X022160Y020284D03*
X022160Y020301D03*
X022160Y020309D03*
X022160Y020334D03*
X022160Y020351D03*
X022160Y020375D03*
X022160Y020400D03*
X022160Y020425D03*
X022160Y020442D03*
X022160Y020467D03*
X022160Y020475D03*
X022160Y020492D03*
X022160Y020500D03*
X022160Y020525D03*
D184*
X022160Y020508D03*
X022160Y020458D03*
X022160Y020433D03*
X022160Y020409D03*
X022160Y020392D03*
X022160Y020367D03*
X022160Y020342D03*
X022160Y020317D03*
X022160Y020268D03*
X022160Y020243D03*
X022160Y020218D03*
X022160Y020201D03*
X022160Y020176D03*
X017946Y020176D03*
X017946Y020201D03*
X017946Y020218D03*
X017946Y020243D03*
X017946Y020268D03*
X017946Y020317D03*
X017946Y020342D03*
X017946Y020367D03*
X017946Y020392D03*
X017946Y020409D03*
X017946Y020433D03*
X017946Y020458D03*
X017946Y020508D03*
X017946Y025675D03*
X017946Y025700D03*
X017946Y025725D03*
X017946Y025742D03*
X017946Y025767D03*
X017946Y025792D03*
X017946Y025816D03*
X017946Y025866D03*
X017946Y025891D03*
X017946Y025916D03*
X017946Y025933D03*
X017946Y025957D03*
X017946Y025982D03*
X022160Y025982D03*
X022160Y025957D03*
X022160Y025933D03*
X022160Y025916D03*
X022160Y025891D03*
X022160Y025866D03*
X022160Y025816D03*
X022160Y025792D03*
X022160Y025767D03*
X022160Y025742D03*
X022160Y025725D03*
X022160Y025700D03*
X022160Y025675D03*
D185*
X022160Y025841D03*
X022160Y026007D03*
X022160Y026032D03*
X017946Y026032D03*
X017946Y026007D03*
X017946Y025841D03*
X017946Y020483D03*
X017946Y020292D03*
X022160Y020292D03*
X022160Y020483D03*
D186*
X022811Y020533D03*
X022811Y020558D03*
X022811Y020574D03*
X022811Y020599D03*
X022811Y020624D03*
X022811Y020649D03*
X022811Y020699D03*
X022811Y020724D03*
X022811Y020749D03*
X022811Y020765D03*
X022811Y020790D03*
X022811Y020815D03*
X022811Y020890D03*
X022811Y020915D03*
X022811Y020939D03*
X022811Y020956D03*
X022811Y020981D03*
X022811Y021006D03*
X022811Y021056D03*
X022811Y021080D03*
X022811Y021105D03*
X022811Y021130D03*
X022811Y021147D03*
X022811Y021172D03*
X022811Y021197D03*
X022811Y021246D03*
X022811Y021271D03*
X022811Y021296D03*
X022811Y021313D03*
X022811Y021338D03*
X022811Y021362D03*
X022811Y021387D03*
X022811Y021437D03*
X022811Y021462D03*
X022811Y021487D03*
X022811Y021503D03*
X022811Y021528D03*
X022811Y021553D03*
X022811Y021628D03*
X022811Y021653D03*
X022811Y021678D03*
X022811Y021694D03*
X022811Y021719D03*
X022811Y021744D03*
X022811Y021794D03*
X022811Y021819D03*
X021600Y022482D03*
X021617Y022532D03*
X021642Y023602D03*
X021625Y023652D03*
X021617Y023677D03*
X021600Y023718D03*
X022811Y024390D03*
X022811Y024415D03*
X022811Y024440D03*
X022811Y024456D03*
X022811Y024481D03*
X022811Y024506D03*
X022811Y024581D03*
X022811Y024605D03*
X022811Y024630D03*
X022811Y024647D03*
X022811Y024672D03*
X022811Y024697D03*
X022811Y024746D03*
X022811Y024771D03*
X022811Y024796D03*
X022811Y024821D03*
X022811Y024838D03*
X022811Y024863D03*
X022811Y024887D03*
X022811Y024937D03*
X022811Y024962D03*
X022811Y024987D03*
X022811Y025004D03*
X022811Y025028D03*
X022811Y025053D03*
X022811Y025078D03*
X022811Y025128D03*
X022811Y025153D03*
X022811Y025178D03*
X022811Y025194D03*
X022811Y025219D03*
X022811Y025244D03*
X022811Y025319D03*
X022811Y025344D03*
X022811Y025369D03*
X022811Y025385D03*
X022811Y025410D03*
X022811Y025435D03*
X022811Y025485D03*
X022811Y025510D03*
X022811Y025534D03*
X022811Y025559D03*
X022811Y025576D03*
X022811Y025601D03*
X022811Y025626D03*
X018506Y023718D03*
X018490Y023677D03*
X018481Y023652D03*
X018490Y022532D03*
X018506Y022482D03*
X017295Y021819D03*
X017295Y021794D03*
X017295Y021744D03*
X017295Y021719D03*
X017295Y021694D03*
X017295Y021678D03*
X017295Y021653D03*
X017295Y021628D03*
X017295Y021553D03*
X017295Y021528D03*
X017295Y021503D03*
X017295Y021487D03*
X017295Y021462D03*
X017295Y021437D03*
X017295Y021387D03*
X017295Y021362D03*
X017295Y021338D03*
X017295Y021313D03*
X017295Y021296D03*
X017295Y021271D03*
X017295Y021246D03*
X017295Y021197D03*
X017295Y021172D03*
X017295Y021147D03*
X017295Y021130D03*
X017295Y021105D03*
X017295Y021080D03*
X017295Y021056D03*
X017295Y021006D03*
X017295Y020981D03*
X017295Y020956D03*
X017295Y020939D03*
X017295Y020915D03*
X017295Y020890D03*
X017295Y020815D03*
X017295Y020790D03*
X017295Y020765D03*
X017295Y020749D03*
X017295Y020724D03*
X017295Y020699D03*
X017295Y020649D03*
X017295Y020624D03*
X017295Y020599D03*
X017295Y020574D03*
X017295Y020558D03*
X017295Y020533D03*
X017295Y024390D03*
X017295Y024415D03*
X017295Y024440D03*
X017295Y024456D03*
X017295Y024481D03*
X017295Y024506D03*
X017295Y024581D03*
X017295Y024605D03*
X017295Y024630D03*
X017295Y024647D03*
X017295Y024672D03*
X017295Y024697D03*
X017295Y024746D03*
X017295Y024771D03*
X017295Y024796D03*
X017295Y024821D03*
X017295Y024838D03*
X017295Y024863D03*
X017295Y024887D03*
X017295Y024937D03*
X017295Y024962D03*
X017295Y024987D03*
X017295Y025004D03*
X017295Y025028D03*
X017295Y025053D03*
X017295Y025078D03*
X017295Y025128D03*
X017295Y025153D03*
X017295Y025178D03*
X017295Y025194D03*
X017295Y025219D03*
X017295Y025244D03*
X017295Y025319D03*
X017295Y025344D03*
X017295Y025369D03*
X017295Y025385D03*
X017295Y025410D03*
X017295Y025435D03*
X017295Y025485D03*
X017295Y025510D03*
X017295Y025534D03*
X017295Y025559D03*
X017295Y025576D03*
X017295Y025601D03*
X017295Y025626D03*
D187*
X017295Y025634D03*
X017295Y025642D03*
X017295Y025659D03*
X017295Y025667D03*
X017295Y025609D03*
X017295Y025592D03*
X017295Y025568D03*
X017295Y025543D03*
X017295Y025518D03*
X017295Y025501D03*
X017295Y025476D03*
X017295Y025468D03*
X017295Y025451D03*
X017295Y025443D03*
X017295Y025418D03*
X017295Y025402D03*
X017295Y025377D03*
X017295Y025352D03*
X017295Y025335D03*
X017295Y025310D03*
X017295Y025302D03*
X017295Y025286D03*
X017295Y025277D03*
X017295Y025261D03*
X017295Y025252D03*
X017295Y025228D03*
X017295Y025211D03*
X017295Y025186D03*
X017295Y025161D03*
X017295Y025145D03*
X017295Y025120D03*
X017295Y025111D03*
X017295Y025095D03*
X017295Y025087D03*
X017295Y025062D03*
X017295Y025045D03*
X017295Y025020D03*
X017295Y024995D03*
X017295Y024970D03*
X017295Y024954D03*
X017295Y024929D03*
X017295Y024921D03*
X017295Y024904D03*
X017295Y024896D03*
X017295Y024871D03*
X017295Y024854D03*
X017295Y024829D03*
X017295Y024805D03*
X017295Y024780D03*
X017295Y024763D03*
X017295Y024738D03*
X017295Y024730D03*
X017295Y024713D03*
X017295Y024705D03*
X017295Y024680D03*
X017295Y024664D03*
X017295Y024639D03*
X017295Y024614D03*
X017295Y024597D03*
X017295Y024572D03*
X017295Y024564D03*
X017295Y024547D03*
X017295Y024539D03*
X017295Y024523D03*
X017295Y024514D03*
X017295Y024489D03*
X017295Y024473D03*
X017295Y024448D03*
X017295Y024423D03*
X017295Y024406D03*
X017295Y024382D03*
X017295Y024373D03*
X018490Y023685D03*
X018490Y023668D03*
X018465Y023610D03*
X018465Y022590D03*
X018481Y022548D03*
X018490Y022524D03*
X018490Y022515D03*
X017295Y021827D03*
X017295Y021810D03*
X017295Y021785D03*
X017295Y021777D03*
X017295Y021761D03*
X017295Y021752D03*
X017295Y021727D03*
X017295Y021711D03*
X017295Y021686D03*
X017295Y021661D03*
X017295Y021644D03*
X017295Y021620D03*
X017295Y021611D03*
X017295Y021595D03*
X017295Y021586D03*
X017295Y021570D03*
X017295Y021561D03*
X017295Y021537D03*
X017295Y021520D03*
X017295Y021495D03*
X017295Y021470D03*
X017295Y021454D03*
X017295Y021429D03*
X017295Y021420D03*
X017295Y021404D03*
X017295Y021396D03*
X017295Y021371D03*
X017295Y021354D03*
X017295Y021329D03*
X017295Y021304D03*
X017295Y021279D03*
X017295Y021263D03*
X017295Y021238D03*
X017295Y021230D03*
X017295Y021213D03*
X017295Y021205D03*
X017295Y021180D03*
X017295Y021163D03*
X017295Y021138D03*
X017295Y021114D03*
X017295Y021089D03*
X017295Y021072D03*
X017295Y021047D03*
X017295Y021039D03*
X017295Y021022D03*
X017295Y021014D03*
X017295Y020989D03*
X017295Y020973D03*
X017295Y020948D03*
X017295Y020923D03*
X017295Y020906D03*
X017295Y020881D03*
X017295Y020873D03*
X017295Y020856D03*
X017295Y020848D03*
X017295Y020832D03*
X017295Y020823D03*
X017295Y020798D03*
X017295Y020782D03*
X017295Y020757D03*
X017295Y020732D03*
X017295Y020715D03*
X017295Y020691D03*
X017295Y020682D03*
X017295Y020666D03*
X017295Y020657D03*
X017295Y020633D03*
X017295Y020616D03*
X017295Y020591D03*
X017295Y020566D03*
X017295Y020541D03*
X021617Y022515D03*
X021617Y022524D03*
X021625Y022548D03*
X021642Y023610D03*
X021617Y023668D03*
X021617Y023685D03*
X022811Y024373D03*
X022811Y024382D03*
X022811Y024406D03*
X022811Y024423D03*
X022811Y024448D03*
X022811Y024473D03*
X022811Y024489D03*
X022811Y024514D03*
X022811Y024523D03*
X022811Y024539D03*
X022811Y024547D03*
X022811Y024564D03*
X022811Y024572D03*
X022811Y024597D03*
X022811Y024614D03*
X022811Y024639D03*
X022811Y024664D03*
X022811Y024680D03*
X022811Y024705D03*
X022811Y024713D03*
X022811Y024730D03*
X022811Y024738D03*
X022811Y024763D03*
X022811Y024780D03*
X022811Y024805D03*
X022811Y024829D03*
X022811Y024854D03*
X022811Y024871D03*
X022811Y024896D03*
X022811Y024904D03*
X022811Y024921D03*
X022811Y024929D03*
X022811Y024954D03*
X022811Y024970D03*
X022811Y024995D03*
X022811Y025020D03*
X022811Y025045D03*
X022811Y025062D03*
X022811Y025087D03*
X022811Y025095D03*
X022811Y025111D03*
X022811Y025120D03*
X022811Y025145D03*
X022811Y025161D03*
X022811Y025186D03*
X022811Y025211D03*
X022811Y025228D03*
X022811Y025252D03*
X022811Y025261D03*
X022811Y025277D03*
X022811Y025286D03*
X022811Y025302D03*
X022811Y025310D03*
X022811Y025335D03*
X022811Y025352D03*
X022811Y025377D03*
X022811Y025402D03*
X022811Y025418D03*
X022811Y025443D03*
X022811Y025451D03*
X022811Y025468D03*
X022811Y025476D03*
X022811Y025501D03*
X022811Y025518D03*
X022811Y025543D03*
X022811Y025568D03*
X022811Y025592D03*
X022811Y025609D03*
X022811Y025634D03*
X022811Y025642D03*
X022811Y025659D03*
X022811Y025667D03*
X022811Y021827D03*
X022811Y021810D03*
X022811Y021785D03*
X022811Y021777D03*
X022811Y021761D03*
X022811Y021752D03*
X022811Y021727D03*
X022811Y021711D03*
X022811Y021686D03*
X022811Y021661D03*
X022811Y021644D03*
X022811Y021620D03*
X022811Y021611D03*
X022811Y021595D03*
X022811Y021586D03*
X022811Y021570D03*
X022811Y021561D03*
X022811Y021537D03*
X022811Y021520D03*
X022811Y021495D03*
X022811Y021470D03*
X022811Y021454D03*
X022811Y021429D03*
X022811Y021420D03*
X022811Y021404D03*
X022811Y021396D03*
X022811Y021371D03*
X022811Y021354D03*
X022811Y021329D03*
X022811Y021304D03*
X022811Y021279D03*
X022811Y021263D03*
X022811Y021238D03*
X022811Y021230D03*
X022811Y021213D03*
X022811Y021205D03*
X022811Y021180D03*
X022811Y021163D03*
X022811Y021138D03*
X022811Y021114D03*
X022811Y021089D03*
X022811Y021072D03*
X022811Y021047D03*
X022811Y021039D03*
X022811Y021022D03*
X022811Y021014D03*
X022811Y020989D03*
X022811Y020973D03*
X022811Y020948D03*
X022811Y020923D03*
X022811Y020906D03*
X022811Y020881D03*
X022811Y020873D03*
X022811Y020856D03*
X022811Y020848D03*
X022811Y020832D03*
X022811Y020823D03*
X022811Y020798D03*
X022811Y020782D03*
X022811Y020757D03*
X022811Y020732D03*
X022811Y020715D03*
X022811Y020691D03*
X022811Y020682D03*
X022811Y020666D03*
X022811Y020657D03*
X022811Y020633D03*
X022811Y020616D03*
X022811Y020591D03*
X022811Y020566D03*
X022811Y020541D03*
D188*
X022811Y020550D03*
X022811Y020583D03*
X022811Y020608D03*
X022811Y020641D03*
X022811Y020707D03*
X022811Y020740D03*
X022811Y020774D03*
X022811Y020807D03*
X022811Y020898D03*
X022811Y020931D03*
X022811Y020964D03*
X022811Y020997D03*
X022811Y021064D03*
X022811Y021097D03*
X022811Y021122D03*
X022811Y021155D03*
X022811Y021188D03*
X022811Y021255D03*
X022811Y021288D03*
X022811Y021321D03*
X022811Y021346D03*
X022811Y021379D03*
X022811Y021445D03*
X022811Y021479D03*
X022811Y021512D03*
X022811Y021545D03*
X022811Y021636D03*
X022811Y021669D03*
X022811Y021702D03*
X022811Y021736D03*
X022811Y021802D03*
X021625Y022540D03*
X021642Y022598D03*
X021625Y023660D03*
X022811Y024398D03*
X022811Y024431D03*
X022811Y024464D03*
X022811Y024498D03*
X022811Y024589D03*
X022811Y024622D03*
X022811Y024655D03*
X022811Y024688D03*
X022811Y024755D03*
X022811Y024788D03*
X022811Y024813D03*
X022811Y024846D03*
X022811Y024879D03*
X022811Y024946D03*
X022811Y024979D03*
X022811Y025012D03*
X022811Y025037D03*
X022811Y025070D03*
X022811Y025136D03*
X022811Y025169D03*
X022811Y025203D03*
X022811Y025236D03*
X022811Y025327D03*
X022811Y025360D03*
X022811Y025393D03*
X022811Y025427D03*
X022811Y025493D03*
X022811Y025526D03*
X022811Y025551D03*
X022811Y025584D03*
X022811Y025617D03*
X018481Y023660D03*
X018481Y022540D03*
X017295Y021802D03*
X017295Y021736D03*
X017295Y021702D03*
X017295Y021669D03*
X017295Y021636D03*
X017295Y021545D03*
X017295Y021512D03*
X017295Y021479D03*
X017295Y021445D03*
X017295Y021379D03*
X017295Y021346D03*
X017295Y021321D03*
X017295Y021288D03*
X017295Y021255D03*
X017295Y021188D03*
X017295Y021155D03*
X017295Y021122D03*
X017295Y021097D03*
X017295Y021064D03*
X017295Y020997D03*
X017295Y020964D03*
X017295Y020931D03*
X017295Y020898D03*
X017295Y020807D03*
X017295Y020774D03*
X017295Y020740D03*
X017295Y020707D03*
X017295Y020641D03*
X017295Y020608D03*
X017295Y020583D03*
X017295Y020550D03*
X019128Y021288D03*
X017295Y024398D03*
X017295Y024431D03*
X017295Y024464D03*
X017295Y024498D03*
X017295Y024589D03*
X017295Y024622D03*
X017295Y024655D03*
X017295Y024688D03*
X017295Y024755D03*
X017295Y024788D03*
X017295Y024813D03*
X017295Y024846D03*
X017295Y024879D03*
X017295Y024946D03*
X017295Y024979D03*
X017295Y025012D03*
X017295Y025037D03*
X017295Y025070D03*
X017295Y025136D03*
X017295Y025169D03*
X017295Y025203D03*
X017295Y025236D03*
X017295Y025327D03*
X017295Y025360D03*
X017295Y025393D03*
X017295Y025427D03*
X017295Y025493D03*
X017295Y025526D03*
X017295Y025551D03*
X017295Y025584D03*
X017295Y025617D03*
D189*
X017295Y025651D03*
X017295Y025460D03*
X017295Y025294D03*
X017295Y025269D03*
X017295Y025103D03*
X017295Y024912D03*
X017295Y024722D03*
X017295Y024556D03*
X017295Y024531D03*
X017295Y021769D03*
X017295Y021603D03*
X017295Y021578D03*
X017295Y021412D03*
X017295Y021221D03*
X017295Y021031D03*
X017295Y020865D03*
X017295Y020840D03*
X017295Y020674D03*
X020978Y024912D03*
X022811Y024912D03*
X022811Y024722D03*
X022811Y024556D03*
X022811Y024531D03*
X022811Y025103D03*
X022811Y025269D03*
X022811Y025294D03*
X022811Y025460D03*
X022811Y025651D03*
X022811Y021769D03*
X022811Y021603D03*
X022811Y021578D03*
X022811Y021412D03*
X022811Y021221D03*
X022811Y021031D03*
X022811Y020865D03*
X022811Y020840D03*
X022811Y020674D03*
D190*
X020045Y020981D03*
X020045Y021006D03*
X020061Y025194D03*
X020061Y025219D03*
D191*
X020061Y025211D03*
X020999Y024871D03*
X020045Y020989D03*
X019108Y021329D03*
D192*
X020045Y020997D03*
X020982Y021321D03*
X020061Y025203D03*
X019124Y024879D03*
D193*
X020061Y025161D03*
X020045Y021047D03*
X020045Y021039D03*
X020045Y021022D03*
X020045Y021014D03*
D194*
X020045Y021031D03*
D195*
X020049Y021056D03*
X019103Y021338D03*
X021608Y022366D03*
X021003Y024863D03*
D196*
X021198Y024299D03*
X020061Y025136D03*
X018909Y024299D03*
X018917Y021893D03*
X020045Y021097D03*
X020045Y021064D03*
X021189Y021893D03*
D197*
X021198Y021902D03*
X020045Y021089D03*
X020045Y021072D03*
X018909Y021902D03*
X018917Y024307D03*
X020061Y025111D03*
X020061Y025120D03*
X021189Y024307D03*
X021612Y023826D03*
D198*
X021206Y024290D03*
X020061Y025128D03*
X018900Y024290D03*
X018900Y021910D03*
X020045Y021080D03*
X021206Y021910D03*
D199*
X021156Y021868D03*
X020990Y021338D03*
X020045Y021130D03*
X020045Y021105D03*
X018486Y022366D03*
X019116Y024863D03*
X020061Y025078D03*
D200*
X020061Y025087D03*
X020061Y025095D03*
X020061Y025062D03*
X021621Y023834D03*
X021787Y022831D03*
X020045Y021138D03*
X020045Y021114D03*
D201*
X020045Y021122D03*
X018494Y023851D03*
X018942Y024332D03*
X020061Y025070D03*
D202*
X019203Y025062D03*
X020903Y021138D03*
D203*
X019186Y021147D03*
X020920Y025053D03*
D204*
X020061Y025028D03*
X021621Y023842D03*
X021131Y021843D03*
X020045Y021172D03*
X020045Y021147D03*
X018975Y021843D03*
D205*
X020907Y021147D03*
X019199Y025053D03*
D206*
X019186Y021155D03*
D207*
X020045Y021155D03*
X021007Y024846D03*
X020061Y025037D03*
D208*
X020924Y025037D03*
X020907Y021155D03*
D209*
X019182Y021163D03*
X018345Y021852D03*
X021762Y024348D03*
D210*
X021131Y024357D03*
X020061Y025020D03*
X020061Y025045D03*
X018975Y024357D03*
X018486Y022358D03*
X019099Y021354D03*
X020045Y021180D03*
X020045Y021163D03*
X021140Y021852D03*
D211*
X020916Y021163D03*
D212*
X019178Y021172D03*
X020928Y025028D03*
D213*
X019186Y025028D03*
X020920Y021172D03*
D214*
X019174Y021180D03*
D215*
X020924Y021180D03*
D216*
X019174Y021188D03*
X020932Y025012D03*
D217*
X020057Y025012D03*
X021119Y021835D03*
X020049Y021188D03*
X018987Y021835D03*
D218*
X020924Y021188D03*
X019182Y025012D03*
D219*
X020941Y025004D03*
X019166Y021197D03*
D220*
X019008Y021819D03*
X020045Y021197D03*
X021098Y021819D03*
X018494Y023867D03*
X020061Y024987D03*
X020061Y025004D03*
D221*
X020061Y024995D03*
X021098Y024382D03*
X019008Y024382D03*
X021612Y022333D03*
X020999Y021354D03*
X020045Y021230D03*
X020045Y021213D03*
X020045Y021205D03*
D222*
X020045Y021221D03*
D223*
X020941Y021221D03*
D224*
X019153Y021230D03*
X020953Y024970D03*
D225*
X019162Y024970D03*
X020945Y021230D03*
D226*
X019149Y021238D03*
D227*
X020045Y021238D03*
X020045Y021263D03*
X021621Y022325D03*
X021065Y024406D03*
X020061Y024929D03*
X020061Y024954D03*
X019041Y024406D03*
X018486Y023876D03*
D228*
X020949Y021238D03*
X021679Y021902D03*
D229*
X019145Y021246D03*
D230*
X019041Y021794D03*
X020045Y021271D03*
X020045Y021246D03*
X021065Y021794D03*
X020061Y024937D03*
X020061Y024962D03*
D231*
X020949Y021246D03*
D232*
X019141Y021255D03*
X020966Y024946D03*
D233*
X020061Y024946D03*
X020045Y021255D03*
D234*
X020953Y021255D03*
X021675Y024274D03*
X019153Y024946D03*
D235*
X019137Y021263D03*
D236*
X020957Y021263D03*
X020974Y024929D03*
D237*
X021671Y024265D03*
X019149Y024937D03*
X018436Y021935D03*
X019133Y021271D03*
D238*
X018448Y022648D03*
X018440Y022673D03*
X018432Y022723D03*
X018423Y022748D03*
X018415Y022772D03*
X018415Y022789D03*
X018407Y022814D03*
X018415Y023411D03*
X018423Y023461D03*
X018432Y023486D03*
X018440Y023527D03*
X018448Y023552D03*
X020961Y021271D03*
X021658Y022648D03*
X021675Y022723D03*
X021683Y022748D03*
X021691Y022772D03*
X021691Y022789D03*
X021691Y023411D03*
X021683Y023461D03*
X021675Y023486D03*
X021658Y023552D03*
D239*
X020974Y024921D03*
X019132Y021279D03*
D240*
X019066Y021777D03*
X020045Y021279D03*
X019066Y024423D03*
X020061Y024921D03*
D241*
X021629Y023643D03*
X021637Y023618D03*
X021654Y023569D03*
X021662Y023544D03*
X021662Y022656D03*
X021654Y022640D03*
X021637Y022590D03*
X020966Y021279D03*
X020053Y021761D03*
X018452Y022640D03*
X018444Y022656D03*
X018444Y023544D03*
X018452Y023569D03*
X018469Y023618D03*
X018477Y023643D03*
D242*
X020053Y021288D03*
D243*
X020970Y021288D03*
X021583Y022441D03*
X018523Y023759D03*
D244*
X019124Y021296D03*
D245*
X020053Y021296D03*
X018544Y022125D03*
X021563Y022125D03*
D246*
X020974Y021296D03*
D247*
X019120Y021304D03*
X018515Y023784D03*
X020986Y024896D03*
D248*
X020053Y021304D03*
D249*
X020978Y021304D03*
X018506Y022424D03*
X019128Y024896D03*
D250*
X019116Y021313D03*
D251*
X020978Y021313D03*
X019128Y024887D03*
D252*
X020995Y024879D03*
X019112Y021321D03*
D253*
X020053Y021329D03*
X019240Y022831D03*
X020866Y022831D03*
X020053Y024871D03*
D254*
X020057Y025145D03*
X019120Y024871D03*
X018888Y024282D03*
X018498Y023834D03*
X018888Y021918D03*
X020986Y021329D03*
X021218Y021918D03*
X021218Y024282D03*
D255*
X020053Y024863D03*
X019282Y022772D03*
X020825Y022772D03*
X020053Y021338D03*
D256*
X019103Y021346D03*
X018490Y022374D03*
X021160Y024332D03*
D257*
X020053Y024332D03*
X020053Y021346D03*
D258*
X020995Y021346D03*
D259*
X020053Y021354D03*
X019348Y022714D03*
X020758Y022714D03*
D260*
X021086Y024390D03*
X021011Y024838D03*
X019021Y024390D03*
X019095Y021362D03*
D261*
X020053Y021362D03*
X020053Y024838D03*
D262*
X019103Y024838D03*
X019054Y024415D03*
X021053Y024415D03*
X021625Y023867D03*
X021003Y021362D03*
D263*
X019087Y021371D03*
D264*
X020053Y021371D03*
X020053Y024829D03*
D265*
X018473Y022325D03*
X021003Y021371D03*
D266*
X020049Y021379D03*
X020057Y024813D03*
D267*
X020053Y023577D03*
X020053Y022623D03*
X020045Y021387D03*
D268*
X020045Y021396D03*
X020045Y021404D03*
X020061Y024805D03*
D269*
X020041Y021412D03*
D270*
X020045Y021420D03*
X020045Y021429D03*
X020061Y024780D03*
D271*
X020061Y024746D03*
X020045Y021437D03*
D272*
X020045Y021445D03*
X020053Y022573D03*
X020061Y024755D03*
D273*
X020061Y024763D03*
X020053Y023635D03*
X020053Y022565D03*
X020045Y021454D03*
D274*
X020045Y021462D03*
D275*
X020045Y021470D03*
X020061Y024730D03*
X020061Y024738D03*
D276*
X020045Y021479D03*
D277*
X020045Y021487D03*
X020045Y021503D03*
X020061Y024697D03*
D278*
X020061Y024705D03*
X020061Y024713D03*
X020045Y021495D03*
D279*
X020045Y021512D03*
X020053Y023693D03*
X020061Y024688D03*
D280*
X020061Y024680D03*
X020053Y023685D03*
X020053Y022515D03*
X020045Y021520D03*
D281*
X020045Y021528D03*
X020061Y024672D03*
D282*
X020061Y024664D03*
X020045Y021537D03*
D283*
X020045Y021545D03*
X020061Y024655D03*
D284*
X020057Y024647D03*
X020041Y021553D03*
D285*
X020045Y021561D03*
X020045Y021570D03*
X020061Y024639D03*
D286*
X020045Y021578D03*
D287*
X020045Y021586D03*
X020045Y021595D03*
X020053Y022466D03*
X020053Y023735D03*
X020061Y024614D03*
D288*
X020045Y021603D03*
D289*
X019390Y021611D03*
D290*
X020704Y021611D03*
D291*
X020891Y022880D03*
X019215Y022880D03*
X019356Y021620D03*
D292*
X019311Y021636D03*
D293*
X020787Y021636D03*
D294*
X019278Y021653D03*
X018639Y024199D03*
X021467Y024199D03*
D295*
X021509Y024149D03*
X021509Y022051D03*
X020820Y021653D03*
X018598Y022051D03*
X018598Y024149D03*
D296*
X019265Y021661D03*
D297*
X018535Y022134D03*
X018535Y024066D03*
X020053Y024904D03*
X021571Y024066D03*
X021571Y022134D03*
X020833Y021661D03*
D298*
X019249Y021669D03*
D299*
X019236Y021678D03*
D300*
X018461Y022266D03*
X020866Y021678D03*
X021646Y023934D03*
D301*
X020887Y024514D03*
X019220Y024514D03*
X019220Y021686D03*
X020887Y021686D03*
X021633Y022258D03*
D302*
X021633Y022266D03*
X020903Y021694D03*
X019203Y021694D03*
X018473Y023934D03*
X019203Y024506D03*
X020903Y024506D03*
D303*
X020920Y024498D03*
X019186Y024498D03*
X019186Y021702D03*
X020920Y021702D03*
D304*
X019174Y021711D03*
X019174Y024489D03*
D305*
X020932Y024489D03*
X020932Y021711D03*
D306*
X020949Y021719D03*
X019157Y021719D03*
X019157Y024481D03*
X020053Y024415D03*
X020949Y024481D03*
D307*
X020966Y024473D03*
X019141Y024473D03*
X019141Y021727D03*
D308*
X018473Y022308D03*
X018249Y022905D03*
X018249Y022930D03*
X018249Y022947D03*
X018249Y022972D03*
X018249Y023229D03*
X018249Y023237D03*
X018249Y023254D03*
X018249Y023262D03*
X018249Y023287D03*
X020961Y021727D03*
X021857Y022905D03*
X021857Y022930D03*
X021857Y022947D03*
X021857Y022972D03*
X021857Y023229D03*
X021857Y023237D03*
X021857Y023254D03*
X021857Y023262D03*
X021857Y023287D03*
D309*
X021857Y023278D03*
X021857Y022955D03*
X021857Y022922D03*
X020978Y021736D03*
X019128Y021736D03*
X018249Y022922D03*
X018249Y022955D03*
X018249Y023278D03*
X019128Y024464D03*
X020978Y024464D03*
D310*
X020990Y024456D03*
X019116Y024456D03*
X019116Y021744D03*
X020990Y021744D03*
D311*
X021003Y021752D03*
X019103Y021752D03*
X019103Y024448D03*
X021003Y024448D03*
D312*
X021621Y022308D03*
X021015Y021761D03*
X019091Y021761D03*
D313*
X019079Y021769D03*
X021028Y021769D03*
D314*
X020053Y021769D03*
X021604Y023793D03*
D315*
X020049Y021777D03*
X018481Y022349D03*
D316*
X021040Y021777D03*
X021629Y023876D03*
X021040Y024423D03*
X021015Y024829D03*
D317*
X018481Y022333D03*
X019054Y021785D03*
X021053Y021785D03*
D318*
X020053Y021785D03*
X018245Y022996D03*
X018245Y023013D03*
X018245Y023038D03*
X018245Y023046D03*
X018245Y023063D03*
X018245Y023071D03*
X018245Y023088D03*
X018245Y023096D03*
X018245Y023121D03*
X018245Y023137D03*
X018245Y023162D03*
X018245Y023187D03*
X018245Y023204D03*
X021861Y023204D03*
X021861Y023187D03*
X021861Y023162D03*
X021861Y023137D03*
X021861Y023121D03*
X021861Y023096D03*
X021861Y023088D03*
X021861Y023071D03*
X021861Y023063D03*
X021861Y023046D03*
X021861Y023038D03*
X021861Y023013D03*
X021861Y022996D03*
D319*
X020053Y021794D03*
D320*
X019029Y021802D03*
X018291Y022855D03*
X019029Y024398D03*
X021078Y024398D03*
X021078Y021802D03*
D321*
X021554Y022117D03*
X020053Y021802D03*
X020053Y024398D03*
X018544Y024075D03*
X021563Y024075D03*
D322*
X021086Y021810D03*
X019021Y021810D03*
D323*
X018996Y021827D03*
X021111Y021827D03*
X021111Y024373D03*
X018996Y024373D03*
D324*
X018340Y024373D03*
X021766Y021827D03*
D325*
X021758Y021835D03*
D326*
X018336Y021843D03*
D327*
X020053Y021843D03*
D328*
X021745Y021843D03*
D329*
X021608Y022349D03*
X021791Y023353D03*
X021144Y024348D03*
X018962Y024348D03*
X018316Y022847D03*
X018962Y021852D03*
D330*
X020053Y021852D03*
X020053Y024348D03*
D331*
X020932Y025020D03*
X018369Y024348D03*
X021737Y021852D03*
D332*
X018353Y021860D03*
D333*
X018954Y021860D03*
X018316Y023370D03*
X021152Y021860D03*
D334*
X020053Y021860D03*
D335*
X021733Y021860D03*
D336*
X018365Y021868D03*
D337*
X018946Y021868D03*
X018954Y024340D03*
X020057Y025053D03*
X021152Y024340D03*
D338*
X020053Y021868D03*
D339*
X021720Y021868D03*
D340*
X018369Y021877D03*
D341*
X018938Y021877D03*
X021169Y021877D03*
X021608Y022358D03*
X021169Y024323D03*
X018938Y024323D03*
D342*
X020053Y021877D03*
D343*
X018929Y021885D03*
X018498Y023842D03*
X018929Y024315D03*
X021177Y024315D03*
X021177Y021885D03*
D344*
X020049Y021885D03*
D345*
X020049Y021893D03*
D346*
X021691Y021893D03*
D347*
X018398Y021902D03*
D348*
X020053Y021902D03*
D349*
X020053Y021910D03*
D350*
X021675Y021910D03*
D351*
X021687Y024282D03*
X018419Y021918D03*
D352*
X020053Y021918D03*
D353*
X021666Y021918D03*
X018440Y024282D03*
D354*
X018427Y021926D03*
D355*
X018884Y021926D03*
X021604Y022374D03*
X021223Y024274D03*
X020053Y024431D03*
D356*
X020053Y024274D03*
X020053Y021926D03*
D357*
X018875Y021935D03*
D358*
X020053Y021935D03*
X020053Y024265D03*
D359*
X021409Y021935D03*
D360*
X020053Y021943D03*
D361*
X020053Y021951D03*
D362*
X018672Y021960D03*
X021434Y021960D03*
D363*
X020053Y021960D03*
D364*
X020053Y021968D03*
X020053Y024232D03*
D365*
X020049Y021976D03*
D366*
X018656Y021984D03*
X021451Y021984D03*
D367*
X020053Y021984D03*
D368*
X018647Y021993D03*
X018647Y024207D03*
X021459Y024207D03*
X021459Y021993D03*
D369*
X020053Y021993D03*
D370*
X020053Y022001D03*
D371*
X020053Y022009D03*
D372*
X018622Y022018D03*
X018622Y024182D03*
X018631Y024191D03*
X021476Y024191D03*
X021484Y024182D03*
X021484Y022018D03*
D373*
X020053Y022018D03*
X020053Y024182D03*
D374*
X018618Y022026D03*
X021488Y022026D03*
D375*
X020053Y022026D03*
D376*
X018610Y022034D03*
X021496Y022034D03*
D377*
X020053Y022034D03*
D378*
X020053Y022043D03*
X020053Y024158D03*
D379*
X020053Y024149D03*
X020053Y022051D03*
D380*
X018593Y022059D03*
X021513Y022059D03*
X021513Y024141D03*
D381*
X020053Y024141D03*
X020053Y022059D03*
D382*
X020053Y022067D03*
D383*
X018577Y022076D03*
X018577Y024124D03*
X021530Y024124D03*
X021530Y022076D03*
D384*
X020053Y022076D03*
D385*
X018573Y022084D03*
X018548Y022117D03*
X021534Y022084D03*
D386*
X020053Y022084D03*
D387*
X020053Y022092D03*
D388*
X018564Y022101D03*
X018564Y024100D03*
X021542Y024100D03*
X021542Y022101D03*
D389*
X020053Y022101D03*
X020053Y024100D03*
D390*
X020845Y024539D03*
X021534Y024116D03*
X021550Y024091D03*
X021550Y022109D03*
X018556Y022109D03*
X018556Y024091D03*
X018573Y024116D03*
D391*
X020053Y024091D03*
X020053Y022109D03*
D392*
X020053Y022117D03*
D393*
X020053Y022125D03*
D394*
X020053Y022134D03*
X020053Y024066D03*
D395*
X019269Y024539D03*
X018506Y024025D03*
X018523Y022159D03*
X018531Y022142D03*
X021575Y022142D03*
X021583Y022159D03*
X021600Y024025D03*
X021583Y024041D03*
D396*
X020053Y022142D03*
D397*
X018523Y022150D03*
X021583Y022150D03*
D398*
X020053Y022150D03*
D399*
X020053Y022159D03*
X020053Y024041D03*
D400*
X018515Y022167D03*
X021592Y022167D03*
D401*
X020053Y022167D03*
D402*
X018506Y022175D03*
X018531Y024058D03*
X021575Y024058D03*
X021600Y022175D03*
D403*
X020053Y022175D03*
D404*
X018502Y022184D03*
X018502Y024017D03*
X021604Y024017D03*
X021604Y022184D03*
D405*
X020053Y022184D03*
X020053Y024017D03*
D406*
X018519Y024041D03*
X018494Y024000D03*
X018486Y023992D03*
X018469Y023967D03*
X018469Y022233D03*
X018486Y022208D03*
X018494Y022192D03*
X021612Y022192D03*
X021621Y022208D03*
X021637Y022233D03*
X021637Y023967D03*
X021621Y023992D03*
X021612Y024000D03*
D407*
X020053Y022192D03*
D408*
X018494Y022200D03*
X018494Y024008D03*
X021612Y024008D03*
X021612Y022200D03*
D409*
X020053Y022200D03*
D410*
X020053Y022208D03*
X020053Y023992D03*
D411*
X020053Y022217D03*
D412*
X018473Y022225D03*
X018465Y022242D03*
X021633Y022225D03*
X021642Y023959D03*
D413*
X020053Y022225D03*
D414*
X020053Y022233D03*
X020053Y023967D03*
D415*
X020053Y023959D03*
X020053Y022242D03*
D416*
X021637Y022242D03*
X018469Y023959D03*
D417*
X020053Y023950D03*
X020053Y022250D03*
D418*
X021637Y022250D03*
X018469Y023950D03*
D419*
X019236Y024523D03*
X020870Y024523D03*
X021650Y023942D03*
X018457Y022258D03*
D420*
X020053Y022258D03*
X020053Y023942D03*
D421*
X020053Y022266D03*
D422*
X018461Y022275D03*
X018469Y023942D03*
D423*
X020053Y023925D03*
X020053Y022275D03*
D424*
X021633Y022275D03*
X018473Y023925D03*
D425*
X018465Y022283D03*
X021642Y023917D03*
D426*
X020053Y023917D03*
X020053Y022283D03*
D427*
X021629Y022283D03*
X018477Y023917D03*
D428*
X018469Y022291D03*
X021637Y023909D03*
D429*
X020053Y023909D03*
X020053Y022291D03*
D430*
X021625Y022291D03*
X021857Y022913D03*
X021857Y022938D03*
X021857Y022963D03*
X021857Y022980D03*
X021857Y023220D03*
X021857Y023270D03*
X021633Y023892D03*
X018481Y023909D03*
X018249Y023295D03*
X018249Y023270D03*
X018249Y022963D03*
X018249Y022938D03*
X018249Y022913D03*
D431*
X018253Y022897D03*
X018253Y022880D03*
X018253Y022872D03*
X018253Y023303D03*
X018253Y023328D03*
X018469Y022300D03*
X021853Y022872D03*
X021853Y022880D03*
X021853Y022897D03*
X021853Y023303D03*
X021853Y023328D03*
X021637Y023900D03*
D432*
X020053Y022300D03*
D433*
X021625Y022300D03*
X021832Y022847D03*
X018481Y023900D03*
X018274Y023353D03*
D434*
X020053Y023900D03*
X020053Y022308D03*
D435*
X018473Y022316D03*
D436*
X020053Y022316D03*
D437*
X021621Y022316D03*
D438*
X020049Y022325D03*
D439*
X020053Y022333D03*
X020053Y023876D03*
D440*
X018481Y022341D03*
D441*
X020053Y022341D03*
D442*
X021612Y022341D03*
D443*
X020053Y022349D03*
X020053Y022358D03*
D444*
X020053Y022366D03*
D445*
X020049Y022374D03*
D446*
X018494Y022383D03*
X018502Y023826D03*
D447*
X020053Y023826D03*
X020053Y022383D03*
D448*
X021600Y022383D03*
D449*
X018498Y022391D03*
D450*
X020053Y022391D03*
D451*
X021596Y022391D03*
D452*
X021608Y023801D03*
X018498Y022399D03*
D453*
X020053Y022399D03*
X020053Y023809D03*
D454*
X018510Y023801D03*
X018361Y022831D03*
X021596Y022399D03*
D455*
X018502Y022407D03*
D456*
X020053Y022407D03*
D457*
X021592Y022407D03*
D458*
X018502Y022416D03*
D459*
X020053Y022416D03*
D460*
X021592Y022416D03*
D461*
X020053Y022424D03*
X020053Y023776D03*
X020053Y023784D03*
D462*
X019132Y024904D03*
X018519Y023776D03*
X021588Y022424D03*
D463*
X021596Y023768D03*
X018510Y022432D03*
D464*
X020053Y022432D03*
X020053Y023768D03*
D465*
X018523Y023768D03*
X021583Y022432D03*
D466*
X021592Y023759D03*
X018382Y022822D03*
X018515Y022441D03*
D467*
X020053Y022441D03*
D468*
X018515Y022449D03*
X021592Y023751D03*
D469*
X020053Y023751D03*
X020053Y022449D03*
D470*
X021588Y022449D03*
X021596Y022466D03*
X021604Y022490D03*
X021604Y023710D03*
X021596Y023735D03*
X018519Y023751D03*
X018510Y023735D03*
X018502Y023710D03*
X018502Y022490D03*
X018510Y022466D03*
D471*
X018519Y022457D03*
X018519Y023743D03*
X021588Y023743D03*
X021588Y022457D03*
D472*
X020053Y022457D03*
D473*
X018510Y022474D03*
X018510Y023726D03*
X021596Y023726D03*
X021596Y022474D03*
D474*
X020053Y022474D03*
X020053Y023726D03*
D475*
X020053Y023718D03*
X020053Y022482D03*
D476*
X020053Y022490D03*
X020053Y022499D03*
X020053Y023710D03*
D477*
X019137Y024921D03*
X018473Y023635D03*
X018473Y022565D03*
X018498Y022499D03*
X021608Y022499D03*
X021633Y022565D03*
X021633Y023635D03*
D478*
X021633Y023627D03*
X021608Y022507D03*
X018498Y022507D03*
X018473Y023627D03*
D479*
X020053Y022507D03*
D480*
X020053Y022524D03*
X020053Y023668D03*
D481*
X020053Y023677D03*
X020053Y022532D03*
D482*
X020053Y022540D03*
D483*
X020053Y022548D03*
X020053Y023643D03*
D484*
X018452Y023577D03*
X018452Y022623D03*
X018469Y022582D03*
X018477Y022557D03*
X021629Y022557D03*
X021637Y022582D03*
X021654Y022623D03*
X021662Y022673D03*
X021704Y023386D03*
X021662Y023527D03*
X021654Y023577D03*
D485*
X020053Y023652D03*
X020053Y022557D03*
D486*
X018473Y022573D03*
X018498Y023693D03*
X021608Y023693D03*
X021633Y022573D03*
D487*
X020053Y022582D03*
D488*
X020053Y022590D03*
X020053Y023610D03*
X020053Y023618D03*
D489*
X018461Y023594D03*
X018436Y023502D03*
X018411Y023403D03*
X018461Y022598D03*
X021695Y022797D03*
X021671Y023502D03*
X021646Y023594D03*
D490*
X020053Y022598D03*
D491*
X018461Y022607D03*
X018436Y023511D03*
X018461Y023602D03*
X021671Y023511D03*
X021646Y022607D03*
D492*
X020053Y022607D03*
X020053Y023602D03*
D493*
X018461Y023585D03*
X018436Y022690D03*
X018461Y022615D03*
X021646Y022615D03*
X021671Y022690D03*
X021646Y023585D03*
D494*
X020053Y023585D03*
X020053Y022615D03*
D495*
X018452Y022631D03*
X018444Y022665D03*
X018427Y022731D03*
X018427Y023469D03*
X018444Y023536D03*
X018452Y023560D03*
X021654Y023560D03*
X021662Y023536D03*
X021679Y023469D03*
X021679Y022731D03*
X021662Y022665D03*
X021654Y022631D03*
D496*
X020053Y022631D03*
X020053Y023560D03*
D497*
X020053Y023569D03*
X020053Y022640D03*
D498*
X020053Y022648D03*
X020053Y023552D03*
D499*
X020053Y023544D03*
X020053Y022656D03*
D500*
X020053Y022665D03*
D501*
X020053Y022673D03*
X020053Y023527D03*
D502*
X018440Y023519D03*
X018432Y023494D03*
X018432Y023477D03*
X018423Y023453D03*
X018423Y023444D03*
X018415Y023428D03*
X018415Y023419D03*
X018415Y022781D03*
X018423Y022756D03*
X018423Y022739D03*
X018432Y022714D03*
X018432Y022706D03*
X018440Y022681D03*
X019145Y024929D03*
X021666Y023519D03*
X021675Y023494D03*
X021675Y023477D03*
X021683Y023453D03*
X021683Y023444D03*
X021691Y023428D03*
X021691Y023419D03*
X021691Y023395D03*
X021691Y022781D03*
X021683Y022756D03*
X021683Y022739D03*
X021675Y022714D03*
X021675Y022706D03*
X021666Y022681D03*
D503*
X020053Y022681D03*
X020053Y022690D03*
X020053Y023519D03*
D504*
X018436Y022698D03*
X021671Y022698D03*
D505*
X020713Y022698D03*
X019394Y022698D03*
D506*
X019365Y022706D03*
X020742Y022706D03*
D507*
X020775Y022723D03*
X019332Y022723D03*
D508*
X019323Y022731D03*
X020783Y022731D03*
D509*
X020796Y022739D03*
X019311Y022739D03*
D510*
X019303Y022748D03*
D511*
X020800Y022748D03*
D512*
X020812Y022756D03*
X019294Y022756D03*
D513*
X018423Y022764D03*
X018415Y022797D03*
X021683Y022764D03*
X021691Y023403D03*
D514*
X020820Y022764D03*
X019286Y022764D03*
D515*
X019273Y022781D03*
X020833Y022781D03*
D516*
X020841Y022789D03*
X020841Y023411D03*
X019265Y023411D03*
X019265Y022789D03*
D517*
X019261Y022797D03*
X019261Y023403D03*
X020845Y023403D03*
X020845Y022797D03*
D518*
X018411Y022806D03*
D519*
X019257Y022806D03*
X019257Y023395D03*
X020849Y023395D03*
X020849Y022806D03*
D520*
X021716Y022806D03*
X021724Y023378D03*
X018382Y023395D03*
D521*
X019253Y023386D03*
X019253Y022814D03*
X020854Y022814D03*
X020854Y023386D03*
D522*
X021745Y022814D03*
X018361Y023386D03*
D523*
X019244Y022822D03*
X020862Y022822D03*
D524*
X021766Y022822D03*
D525*
X021770Y023361D03*
X021231Y024265D03*
X020061Y025153D03*
X020061Y025178D03*
X018336Y022839D03*
D526*
X019236Y022839D03*
X019236Y023361D03*
X020870Y023361D03*
X020870Y022839D03*
D527*
X021812Y022839D03*
X018295Y023361D03*
D528*
X019232Y023353D03*
X019232Y022847D03*
X020874Y022847D03*
X020874Y023353D03*
X020053Y024357D03*
D529*
X019220Y023336D03*
X019228Y022855D03*
X020878Y022855D03*
X020887Y023336D03*
D530*
X021853Y023312D03*
X021853Y022855D03*
X018253Y023312D03*
X018253Y023336D03*
D531*
X018266Y022864D03*
D532*
X019224Y022864D03*
X020883Y022864D03*
D533*
X021853Y022864D03*
X021853Y023295D03*
X021853Y023320D03*
X018253Y023320D03*
X018253Y023345D03*
D534*
X019220Y023328D03*
X019220Y022872D03*
X020887Y022872D03*
X020887Y023328D03*
D535*
X021853Y022889D03*
X018253Y022889D03*
D536*
X019215Y022889D03*
X020891Y022889D03*
D537*
X020895Y022897D03*
X020895Y023303D03*
X019211Y023303D03*
X019211Y022897D03*
D538*
X019199Y023270D03*
X020907Y023270D03*
X020907Y022938D03*
D539*
X021861Y023005D03*
X021861Y023030D03*
X021861Y023104D03*
X021861Y023129D03*
X021861Y023154D03*
X021861Y023171D03*
X021861Y023195D03*
X018245Y023195D03*
X018245Y023171D03*
X018245Y023154D03*
X018245Y023129D03*
X018245Y023104D03*
X018245Y023030D03*
X018245Y023005D03*
X018245Y022980D03*
X018245Y023220D03*
D540*
X018245Y023212D03*
X018245Y023179D03*
X018245Y023146D03*
X018245Y023113D03*
X018245Y023021D03*
X018245Y022988D03*
X021861Y022988D03*
X021861Y023021D03*
X021861Y023113D03*
X021861Y023146D03*
X021861Y023179D03*
X021861Y023212D03*
D541*
X020928Y023179D03*
X020928Y023146D03*
X020928Y023021D03*
X019178Y023021D03*
X019178Y023146D03*
X019178Y023179D03*
D542*
X018245Y023079D03*
X018245Y023054D03*
X021861Y023054D03*
X021861Y023079D03*
D543*
X020928Y023054D03*
X019178Y023054D03*
D544*
X019174Y023079D03*
X020932Y023079D03*
D545*
X021857Y023245D03*
X018249Y023245D03*
D546*
X019191Y023245D03*
X020053Y024365D03*
D547*
X019203Y023287D03*
X020903Y023287D03*
D548*
X020895Y023312D03*
X019211Y023312D03*
D549*
X019215Y023320D03*
X020891Y023320D03*
D550*
X021633Y023884D03*
X021841Y023336D03*
D551*
X020878Y023345D03*
X019228Y023345D03*
D552*
X021816Y023345D03*
D553*
X020866Y023370D03*
X019240Y023370D03*
D554*
X021745Y023370D03*
D555*
X020057Y025186D03*
X018340Y023378D03*
D556*
X019244Y023378D03*
X020862Y023378D03*
D557*
X020837Y023419D03*
X020829Y023428D03*
X019278Y023428D03*
X019269Y023419D03*
D558*
X018423Y023436D03*
X021683Y023436D03*
D559*
X020820Y023436D03*
X019286Y023436D03*
D560*
X019290Y023444D03*
X020816Y023444D03*
D561*
X020808Y023453D03*
X019298Y023453D03*
D562*
X019311Y023461D03*
X020796Y023461D03*
D563*
X020787Y023469D03*
X019319Y023469D03*
D564*
X019327Y023477D03*
X020779Y023477D03*
D565*
X020762Y023486D03*
X019344Y023486D03*
D566*
X019361Y023494D03*
X020746Y023494D03*
D567*
X020725Y023502D03*
X019381Y023502D03*
D568*
X020049Y023511D03*
D569*
X020049Y023536D03*
D570*
X020053Y023594D03*
D571*
X020053Y023627D03*
D572*
X020053Y023660D03*
D573*
X018498Y023701D03*
X021608Y023701D03*
D574*
X020053Y023701D03*
D575*
X020053Y023743D03*
X020061Y024605D03*
D576*
X020049Y023759D03*
D577*
X021596Y023776D03*
D578*
X021604Y023784D03*
D579*
X018515Y023793D03*
D580*
X020053Y023793D03*
D581*
X020053Y023801D03*
D582*
X018510Y023809D03*
D583*
X021608Y023809D03*
D584*
X018506Y023818D03*
D585*
X020053Y023818D03*
D586*
X021612Y023818D03*
D587*
X020053Y023834D03*
D588*
X020053Y023842D03*
D589*
X020053Y023851D03*
D590*
X020061Y024979D03*
X019108Y024846D03*
X021621Y023851D03*
D591*
X018494Y023859D03*
D592*
X020053Y023859D03*
D593*
X020057Y024970D03*
X021625Y023859D03*
D594*
X020053Y023867D03*
D595*
X018486Y023884D03*
D596*
X020053Y023884D03*
D597*
X018481Y023892D03*
D598*
X020053Y023892D03*
D599*
X021642Y023925D03*
D600*
X020053Y023934D03*
D601*
X020049Y023975D03*
D602*
X018481Y023983D03*
X021625Y023983D03*
D603*
X020053Y023983D03*
D604*
X020053Y024000D03*
D605*
X020053Y024008D03*
D606*
X020053Y024025D03*
D607*
X018515Y024033D03*
X021592Y024033D03*
D608*
X020053Y024033D03*
D609*
X018523Y024050D03*
X021583Y024050D03*
D610*
X020053Y024050D03*
D611*
X020053Y024058D03*
D612*
X020053Y024075D03*
D613*
X018548Y024083D03*
X021559Y024083D03*
D614*
X020053Y024083D03*
D615*
X018564Y024108D03*
X021542Y024108D03*
D616*
X020053Y024108D03*
D617*
X020053Y024116D03*
D618*
X020053Y024124D03*
D619*
X020049Y024133D03*
D620*
X018589Y024141D03*
D621*
X018610Y024166D03*
X021496Y024166D03*
D622*
X021488Y024174D03*
X018618Y024174D03*
D623*
X020053Y024174D03*
D624*
X020053Y024191D03*
D625*
X020053Y024199D03*
D626*
X020053Y024207D03*
D627*
X020053Y024216D03*
D628*
X020053Y024224D03*
D629*
X020053Y024241D03*
D630*
X020053Y024249D03*
D631*
X020053Y024257D03*
D632*
X020053Y024282D03*
D633*
X018436Y024290D03*
D634*
X020053Y024290D03*
D635*
X018423Y024299D03*
D636*
X020053Y024299D03*
D637*
X020053Y024307D03*
D638*
X020053Y024315D03*
D639*
X020053Y024323D03*
D640*
X021733Y024323D03*
D641*
X018386Y024332D03*
D642*
X021741Y024332D03*
D643*
X018374Y024340D03*
D644*
X020053Y024340D03*
D645*
X021753Y024340D03*
D646*
X018357Y024357D03*
D647*
X021770Y024357D03*
D648*
X018349Y024365D03*
D649*
X018987Y024365D03*
X021119Y024365D03*
D650*
X020053Y024406D03*
D651*
X020053Y024423D03*
D652*
X019079Y024431D03*
X021028Y024431D03*
D653*
X021015Y024440D03*
X019091Y024440D03*
D654*
X020053Y024440D03*
D655*
X020858Y024531D03*
D656*
X019298Y024556D03*
D657*
X020816Y024556D03*
D658*
X019398Y024589D03*
D659*
X020717Y024589D03*
D660*
X020061Y024597D03*
D661*
X020061Y024622D03*
D662*
X020061Y024630D03*
D663*
X020061Y024722D03*
D664*
X020061Y024771D03*
D665*
X020057Y024788D03*
D666*
X020061Y024796D03*
D667*
X020057Y024821D03*
D668*
X019099Y024829D03*
D669*
X020049Y024846D03*
D670*
X019112Y024854D03*
D671*
X020049Y024854D03*
D672*
X021003Y024854D03*
D673*
X020049Y024887D03*
D674*
X020986Y024887D03*
D675*
X020982Y024904D03*
D676*
X019137Y024912D03*
D677*
X020053Y024912D03*
D678*
X020970Y024937D03*
D679*
X019153Y024954D03*
D680*
X020961Y024954D03*
D681*
X019157Y024962D03*
D682*
X020949Y024979D03*
D683*
X019182Y025020D03*
D684*
X019191Y025037D03*
D685*
X019195Y025045D03*
D686*
X020924Y025045D03*
D687*
X020057Y025103D03*
D688*
X020061Y025169D03*
M02*
