G75*
%MOIN*%
%OFA0B0*%
%FSLAX24Y24*%
%IPPOS*%
%LPD*%
%AMOC8*
5,1,8,0,0,1.08239X$1,22.5*
%
%ADD10C,0.0000*%
%ADD11R,0.0472X0.0472*%
%ADD12R,0.0591X0.0512*%
%ADD13C,0.1063*%
%ADD14C,0.0197*%
%ADD15R,0.0317X0.0317*%
%ADD16C,0.1772*%
%ADD17C,0.0280*%
%ADD18C,0.1800*%
%ADD19C,0.0120*%
D10*
X012470Y011579D02*
X017193Y011579D01*
X017193Y011578D02*
X017259Y011576D01*
X017325Y011571D01*
X017391Y011561D01*
X017456Y011548D01*
X017520Y011532D01*
X017583Y011512D01*
X017645Y011488D01*
X017705Y011461D01*
X017764Y011431D01*
X017821Y011397D01*
X017876Y011360D01*
X017929Y011320D01*
X017980Y011278D01*
X018028Y011232D01*
X018074Y011184D01*
X018116Y011133D01*
X018156Y011080D01*
X018193Y011025D01*
X018227Y010968D01*
X018257Y010909D01*
X018284Y010849D01*
X018308Y010787D01*
X018328Y010724D01*
X018344Y010660D01*
X018357Y010595D01*
X018367Y010529D01*
X018372Y010463D01*
X018374Y010397D01*
X018374Y005674D01*
X018375Y005674D02*
X018377Y005608D01*
X018382Y005542D01*
X018392Y005476D01*
X018405Y005411D01*
X018421Y005347D01*
X018441Y005284D01*
X018465Y005222D01*
X018492Y005162D01*
X018522Y005103D01*
X018556Y005046D01*
X018593Y004991D01*
X018633Y004938D01*
X018675Y004887D01*
X018721Y004839D01*
X018769Y004793D01*
X018820Y004751D01*
X018873Y004711D01*
X018928Y004674D01*
X018985Y004640D01*
X019044Y004610D01*
X019104Y004583D01*
X019166Y004559D01*
X019229Y004539D01*
X019293Y004523D01*
X019358Y004510D01*
X019424Y004500D01*
X019490Y004495D01*
X019556Y004493D01*
X122312Y004493D01*
X122378Y004495D01*
X122444Y004500D01*
X122510Y004510D01*
X122575Y004523D01*
X122639Y004539D01*
X122702Y004559D01*
X122764Y004583D01*
X122824Y004610D01*
X122883Y004640D01*
X122940Y004674D01*
X122995Y004711D01*
X123048Y004751D01*
X123099Y004793D01*
X123147Y004839D01*
X123193Y004887D01*
X123235Y004938D01*
X123275Y004991D01*
X123312Y005046D01*
X123346Y005103D01*
X123376Y005162D01*
X123403Y005222D01*
X123427Y005284D01*
X123447Y005347D01*
X123463Y005411D01*
X123476Y005476D01*
X123486Y005542D01*
X123491Y005608D01*
X123493Y005674D01*
X123493Y038745D01*
X123491Y038811D01*
X123486Y038877D01*
X123476Y038943D01*
X123463Y039008D01*
X123447Y039072D01*
X123427Y039135D01*
X123403Y039197D01*
X123376Y039257D01*
X123346Y039316D01*
X123312Y039373D01*
X123275Y039428D01*
X123235Y039481D01*
X123193Y039532D01*
X123147Y039580D01*
X123099Y039626D01*
X123048Y039668D01*
X122995Y039708D01*
X122940Y039745D01*
X122883Y039779D01*
X122824Y039809D01*
X122764Y039836D01*
X122702Y039860D01*
X122639Y039880D01*
X122575Y039896D01*
X122510Y039909D01*
X122444Y039919D01*
X122378Y039924D01*
X122312Y039926D01*
X117588Y039926D01*
X117523Y039931D01*
X117458Y039940D01*
X117394Y039953D01*
X117331Y039970D01*
X117269Y039990D01*
X117208Y040014D01*
X117149Y040041D01*
X117091Y040072D01*
X117035Y040106D01*
X116982Y040143D01*
X116930Y040183D01*
X116881Y040227D01*
X116835Y040273D01*
X116791Y040321D01*
X116750Y040372D01*
X116713Y040425D01*
X116678Y040481D01*
X116647Y040538D01*
X116619Y040597D01*
X116595Y040658D01*
X116574Y040720D01*
X116557Y040783D01*
X116543Y040847D01*
X116533Y040911D01*
X116527Y040976D01*
X116525Y041042D01*
X116527Y041107D01*
X116527Y045832D01*
X116525Y045897D01*
X116527Y045963D01*
X116533Y046028D01*
X116543Y046092D01*
X116557Y046156D01*
X116574Y046219D01*
X116595Y046281D01*
X116619Y046342D01*
X116647Y046401D01*
X116678Y046458D01*
X116713Y046514D01*
X116750Y046567D01*
X116791Y046618D01*
X116835Y046666D01*
X116881Y046712D01*
X116930Y046756D01*
X116982Y046796D01*
X117035Y046833D01*
X117091Y046867D01*
X117149Y046898D01*
X117208Y046925D01*
X117269Y046949D01*
X117331Y046969D01*
X117394Y046986D01*
X117458Y046999D01*
X117523Y047008D01*
X117588Y047013D01*
X122509Y047013D01*
X122571Y047015D01*
X122632Y047021D01*
X122693Y047030D01*
X122754Y047044D01*
X122813Y047061D01*
X122871Y047082D01*
X122928Y047107D01*
X122983Y047135D01*
X123036Y047166D01*
X123087Y047201D01*
X123136Y047239D01*
X123183Y047280D01*
X123226Y047323D01*
X123267Y047370D01*
X123305Y047419D01*
X123340Y047470D01*
X123371Y047523D01*
X123399Y047578D01*
X123424Y047635D01*
X123445Y047693D01*
X123462Y047752D01*
X123476Y047813D01*
X123485Y047874D01*
X123491Y047935D01*
X123493Y047997D01*
X123490Y047879D02*
X123490Y081263D01*
X123493Y081265D02*
X123491Y081331D01*
X123486Y081397D01*
X123476Y081463D01*
X123463Y081528D01*
X123447Y081592D01*
X123427Y081655D01*
X123403Y081717D01*
X123376Y081777D01*
X123346Y081836D01*
X123312Y081893D01*
X123275Y081948D01*
X123235Y082001D01*
X123193Y082052D01*
X123147Y082100D01*
X123099Y082146D01*
X123048Y082188D01*
X122995Y082228D01*
X122940Y082265D01*
X122883Y082299D01*
X122824Y082329D01*
X122764Y082356D01*
X122702Y082380D01*
X122639Y082400D01*
X122575Y082416D01*
X122510Y082429D01*
X122444Y082439D01*
X122378Y082444D01*
X122312Y082446D01*
X019556Y082446D01*
X019555Y082444D02*
X019489Y082442D01*
X019423Y082437D01*
X019357Y082427D01*
X019292Y082414D01*
X019228Y082398D01*
X019165Y082378D01*
X019103Y082354D01*
X019043Y082327D01*
X018984Y082297D01*
X018927Y082263D01*
X018872Y082226D01*
X018819Y082186D01*
X018768Y082144D01*
X018720Y082098D01*
X018674Y082050D01*
X018632Y081999D01*
X018592Y081946D01*
X018555Y081891D01*
X018521Y081834D01*
X018491Y081775D01*
X018464Y081715D01*
X018440Y081653D01*
X018420Y081590D01*
X018404Y081526D01*
X018391Y081461D01*
X018381Y081395D01*
X018376Y081329D01*
X018374Y081263D01*
X018374Y076579D01*
X018375Y076737D02*
X018375Y076147D01*
X018373Y076093D01*
X018368Y076040D01*
X018359Y075987D01*
X018346Y075935D01*
X018330Y075883D01*
X018310Y075833D01*
X018287Y075785D01*
X018260Y075738D01*
X018231Y075693D01*
X018198Y075650D01*
X018163Y075610D01*
X018125Y075572D01*
X018085Y075537D01*
X018042Y075504D01*
X017997Y075475D01*
X017950Y075448D01*
X017902Y075425D01*
X017852Y075405D01*
X017800Y075389D01*
X017748Y075376D01*
X017695Y075367D01*
X017642Y075362D01*
X017588Y075360D01*
X017588Y075359D02*
X012470Y075359D01*
X012404Y075357D01*
X012338Y075352D01*
X012272Y075342D01*
X012207Y075329D01*
X012143Y075313D01*
X012080Y075293D01*
X012018Y075269D01*
X011958Y075242D01*
X011899Y075212D01*
X011842Y075178D01*
X011787Y075141D01*
X011734Y075101D01*
X011683Y075059D01*
X011635Y075013D01*
X011589Y074965D01*
X011547Y074914D01*
X011507Y074861D01*
X011470Y074806D01*
X011436Y074749D01*
X011406Y074690D01*
X011379Y074630D01*
X011355Y074568D01*
X011335Y074505D01*
X011319Y074441D01*
X011306Y074376D01*
X011296Y074310D01*
X011291Y074244D01*
X011289Y074178D01*
X011289Y065123D01*
X011288Y065123D02*
X011286Y065057D01*
X011281Y064991D01*
X011271Y064925D01*
X011258Y064860D01*
X011242Y064796D01*
X011222Y064733D01*
X011198Y064671D01*
X011171Y064611D01*
X011141Y064552D01*
X011107Y064495D01*
X011070Y064440D01*
X011030Y064387D01*
X010988Y064336D01*
X010942Y064288D01*
X010894Y064242D01*
X010843Y064200D01*
X010790Y064160D01*
X010735Y064123D01*
X010678Y064089D01*
X010619Y064059D01*
X010559Y064032D01*
X010497Y064008D01*
X010434Y063988D01*
X010370Y063972D01*
X010305Y063959D01*
X010239Y063949D01*
X010173Y063944D01*
X010107Y063942D01*
X004596Y063942D01*
X004530Y063940D01*
X004464Y063935D01*
X004398Y063925D01*
X004333Y063912D01*
X004269Y063896D01*
X004206Y063876D01*
X004144Y063852D01*
X004084Y063825D01*
X004025Y063795D01*
X003968Y063761D01*
X003913Y063724D01*
X003860Y063684D01*
X003809Y063642D01*
X003761Y063596D01*
X003715Y063548D01*
X003673Y063497D01*
X003633Y063444D01*
X003596Y063389D01*
X003562Y063332D01*
X003532Y063273D01*
X003505Y063213D01*
X003481Y063151D01*
X003461Y063088D01*
X003445Y063024D01*
X003432Y062959D01*
X003422Y062893D01*
X003417Y062827D01*
X003415Y062761D01*
X003415Y054100D01*
X003417Y054034D01*
X003422Y053968D01*
X003432Y053902D01*
X003445Y053837D01*
X003461Y053773D01*
X003481Y053710D01*
X003505Y053648D01*
X003532Y053588D01*
X003562Y053529D01*
X003596Y053472D01*
X003633Y053417D01*
X003673Y053364D01*
X003715Y053313D01*
X003761Y053265D01*
X003809Y053219D01*
X003860Y053177D01*
X003913Y053137D01*
X003968Y053100D01*
X004025Y053066D01*
X004084Y053036D01*
X004144Y053009D01*
X004206Y052985D01*
X004269Y052965D01*
X004333Y052949D01*
X004398Y052936D01*
X004464Y052926D01*
X004530Y052921D01*
X004596Y052919D01*
X010107Y052919D01*
X010107Y052918D02*
X010173Y052916D01*
X010239Y052911D01*
X010305Y052901D01*
X010370Y052888D01*
X010434Y052872D01*
X010497Y052852D01*
X010559Y052828D01*
X010619Y052801D01*
X010678Y052771D01*
X010735Y052737D01*
X010790Y052700D01*
X010843Y052660D01*
X010894Y052618D01*
X010942Y052572D01*
X010988Y052524D01*
X011030Y052473D01*
X011070Y052420D01*
X011107Y052365D01*
X011141Y052308D01*
X011171Y052249D01*
X011198Y052189D01*
X011222Y052127D01*
X011242Y052064D01*
X011258Y052000D01*
X011271Y051935D01*
X011281Y051869D01*
X011286Y051803D01*
X011288Y051737D01*
X011289Y051737D02*
X011289Y012760D01*
X011291Y012694D01*
X011296Y012628D01*
X011306Y012562D01*
X011319Y012497D01*
X011335Y012433D01*
X011355Y012370D01*
X011379Y012308D01*
X011406Y012248D01*
X011436Y012189D01*
X011470Y012132D01*
X011507Y012077D01*
X011547Y012024D01*
X011589Y011973D01*
X011635Y011925D01*
X011683Y011879D01*
X011734Y011837D01*
X011787Y011797D01*
X011842Y011760D01*
X011899Y011726D01*
X011958Y011696D01*
X012018Y011669D01*
X012080Y011645D01*
X012143Y011625D01*
X012207Y011609D01*
X012272Y011596D01*
X012338Y011586D01*
X012404Y011581D01*
X012470Y011579D01*
X012430Y013352D02*
X012432Y013402D01*
X012438Y013452D01*
X012448Y013501D01*
X012462Y013549D01*
X012479Y013596D01*
X012500Y013641D01*
X012525Y013685D01*
X012553Y013726D01*
X012585Y013765D01*
X012619Y013802D01*
X012656Y013836D01*
X012696Y013866D01*
X012738Y013893D01*
X012782Y013917D01*
X012828Y013938D01*
X012875Y013954D01*
X012923Y013967D01*
X012973Y013976D01*
X013022Y013981D01*
X013073Y013982D01*
X013123Y013979D01*
X013172Y013972D01*
X013221Y013961D01*
X013269Y013946D01*
X013315Y013928D01*
X013360Y013906D01*
X013403Y013880D01*
X013444Y013851D01*
X013483Y013819D01*
X013519Y013784D01*
X013551Y013746D01*
X013581Y013706D01*
X013608Y013663D01*
X013631Y013619D01*
X013650Y013573D01*
X013666Y013525D01*
X013678Y013476D01*
X013686Y013427D01*
X013690Y013377D01*
X013690Y013327D01*
X013686Y013277D01*
X013678Y013228D01*
X013666Y013179D01*
X013650Y013131D01*
X013631Y013085D01*
X013608Y013041D01*
X013581Y012998D01*
X013551Y012958D01*
X013519Y012920D01*
X013483Y012885D01*
X013444Y012853D01*
X013403Y012824D01*
X013360Y012798D01*
X013315Y012776D01*
X013269Y012758D01*
X013221Y012743D01*
X013172Y012732D01*
X013123Y012725D01*
X013073Y012722D01*
X013022Y012723D01*
X012973Y012728D01*
X012923Y012737D01*
X012875Y012750D01*
X012828Y012766D01*
X012782Y012787D01*
X012738Y012811D01*
X012696Y012838D01*
X012656Y012868D01*
X012619Y012902D01*
X012585Y012939D01*
X012553Y012978D01*
X012525Y013019D01*
X012500Y013063D01*
X012479Y013108D01*
X012462Y013155D01*
X012448Y013203D01*
X012438Y013252D01*
X012432Y013302D01*
X012430Y013352D01*
X012430Y043470D02*
X012432Y043520D01*
X012438Y043570D01*
X012448Y043619D01*
X012462Y043667D01*
X012479Y043714D01*
X012500Y043759D01*
X012525Y043803D01*
X012553Y043844D01*
X012585Y043883D01*
X012619Y043920D01*
X012656Y043954D01*
X012696Y043984D01*
X012738Y044011D01*
X012782Y044035D01*
X012828Y044056D01*
X012875Y044072D01*
X012923Y044085D01*
X012973Y044094D01*
X013022Y044099D01*
X013073Y044100D01*
X013123Y044097D01*
X013172Y044090D01*
X013221Y044079D01*
X013269Y044064D01*
X013315Y044046D01*
X013360Y044024D01*
X013403Y043998D01*
X013444Y043969D01*
X013483Y043937D01*
X013519Y043902D01*
X013551Y043864D01*
X013581Y043824D01*
X013608Y043781D01*
X013631Y043737D01*
X013650Y043691D01*
X013666Y043643D01*
X013678Y043594D01*
X013686Y043545D01*
X013690Y043495D01*
X013690Y043445D01*
X013686Y043395D01*
X013678Y043346D01*
X013666Y043297D01*
X013650Y043249D01*
X013631Y043203D01*
X013608Y043159D01*
X013581Y043116D01*
X013551Y043076D01*
X013519Y043038D01*
X013483Y043003D01*
X013444Y042971D01*
X013403Y042942D01*
X013360Y042916D01*
X013315Y042894D01*
X013269Y042876D01*
X013221Y042861D01*
X013172Y042850D01*
X013123Y042843D01*
X013073Y042840D01*
X013022Y042841D01*
X012973Y042846D01*
X012923Y042855D01*
X012875Y042868D01*
X012828Y042884D01*
X012782Y042905D01*
X012738Y042929D01*
X012696Y042956D01*
X012656Y042986D01*
X012619Y043020D01*
X012585Y043057D01*
X012553Y043096D01*
X012525Y043137D01*
X012500Y043181D01*
X012479Y043226D01*
X012462Y043273D01*
X012448Y043321D01*
X012438Y043370D01*
X012432Y043420D01*
X012430Y043470D01*
X007784Y055820D02*
X007786Y055868D01*
X007792Y055916D01*
X007802Y055963D01*
X007815Y056009D01*
X007833Y056054D01*
X007853Y056098D01*
X007878Y056140D01*
X007906Y056179D01*
X007936Y056216D01*
X007970Y056250D01*
X008007Y056282D01*
X008045Y056311D01*
X008086Y056336D01*
X008129Y056358D01*
X008174Y056376D01*
X008220Y056390D01*
X008267Y056401D01*
X008315Y056408D01*
X008363Y056411D01*
X008411Y056410D01*
X008459Y056405D01*
X008507Y056396D01*
X008553Y056384D01*
X008598Y056367D01*
X008642Y056347D01*
X008684Y056324D01*
X008724Y056297D01*
X008762Y056267D01*
X008797Y056234D01*
X008829Y056198D01*
X008859Y056160D01*
X008885Y056119D01*
X008907Y056076D01*
X008927Y056032D01*
X008942Y055987D01*
X008954Y055940D01*
X008962Y055892D01*
X008966Y055844D01*
X008966Y055796D01*
X008962Y055748D01*
X008954Y055700D01*
X008942Y055653D01*
X008927Y055608D01*
X008907Y055564D01*
X008885Y055521D01*
X008859Y055480D01*
X008829Y055442D01*
X008797Y055406D01*
X008762Y055373D01*
X008724Y055343D01*
X008684Y055316D01*
X008642Y055293D01*
X008598Y055273D01*
X008553Y055256D01*
X008507Y055244D01*
X008459Y055235D01*
X008411Y055230D01*
X008363Y055229D01*
X008315Y055232D01*
X008267Y055239D01*
X008220Y055250D01*
X008174Y055264D01*
X008129Y055282D01*
X008086Y055304D01*
X008045Y055329D01*
X008007Y055358D01*
X007970Y055390D01*
X007936Y055424D01*
X007906Y055461D01*
X007878Y055500D01*
X007853Y055542D01*
X007833Y055586D01*
X007815Y055631D01*
X007802Y055677D01*
X007792Y055724D01*
X007786Y055772D01*
X007784Y055820D01*
X007784Y060781D02*
X007786Y060829D01*
X007792Y060877D01*
X007802Y060924D01*
X007815Y060970D01*
X007833Y061015D01*
X007853Y061059D01*
X007878Y061101D01*
X007906Y061140D01*
X007936Y061177D01*
X007970Y061211D01*
X008007Y061243D01*
X008045Y061272D01*
X008086Y061297D01*
X008129Y061319D01*
X008174Y061337D01*
X008220Y061351D01*
X008267Y061362D01*
X008315Y061369D01*
X008363Y061372D01*
X008411Y061371D01*
X008459Y061366D01*
X008507Y061357D01*
X008553Y061345D01*
X008598Y061328D01*
X008642Y061308D01*
X008684Y061285D01*
X008724Y061258D01*
X008762Y061228D01*
X008797Y061195D01*
X008829Y061159D01*
X008859Y061121D01*
X008885Y061080D01*
X008907Y061037D01*
X008927Y060993D01*
X008942Y060948D01*
X008954Y060901D01*
X008962Y060853D01*
X008966Y060805D01*
X008966Y060757D01*
X008962Y060709D01*
X008954Y060661D01*
X008942Y060614D01*
X008927Y060569D01*
X008907Y060525D01*
X008885Y060482D01*
X008859Y060441D01*
X008829Y060403D01*
X008797Y060367D01*
X008762Y060334D01*
X008724Y060304D01*
X008684Y060277D01*
X008642Y060254D01*
X008598Y060234D01*
X008553Y060217D01*
X008507Y060205D01*
X008459Y060196D01*
X008411Y060191D01*
X008363Y060190D01*
X008315Y060193D01*
X008267Y060200D01*
X008220Y060211D01*
X008174Y060225D01*
X008129Y060243D01*
X008086Y060265D01*
X008045Y060290D01*
X008007Y060319D01*
X007970Y060351D01*
X007936Y060385D01*
X007906Y060422D01*
X007878Y060461D01*
X007853Y060503D01*
X007833Y060547D01*
X007815Y060592D01*
X007802Y060638D01*
X007792Y060685D01*
X007786Y060733D01*
X007784Y060781D01*
X012458Y073593D02*
X012460Y073643D01*
X012466Y073693D01*
X012476Y073742D01*
X012490Y073790D01*
X012507Y073837D01*
X012528Y073882D01*
X012553Y073926D01*
X012581Y073967D01*
X012613Y074006D01*
X012647Y074043D01*
X012684Y074077D01*
X012724Y074107D01*
X012766Y074134D01*
X012810Y074158D01*
X012856Y074179D01*
X012903Y074195D01*
X012951Y074208D01*
X013001Y074217D01*
X013050Y074222D01*
X013101Y074223D01*
X013151Y074220D01*
X013200Y074213D01*
X013249Y074202D01*
X013297Y074187D01*
X013343Y074169D01*
X013388Y074147D01*
X013431Y074121D01*
X013472Y074092D01*
X013511Y074060D01*
X013547Y074025D01*
X013579Y073987D01*
X013609Y073947D01*
X013636Y073904D01*
X013659Y073860D01*
X013678Y073814D01*
X013694Y073766D01*
X013706Y073717D01*
X013714Y073668D01*
X013718Y073618D01*
X013718Y073568D01*
X013714Y073518D01*
X013706Y073469D01*
X013694Y073420D01*
X013678Y073372D01*
X013659Y073326D01*
X013636Y073282D01*
X013609Y073239D01*
X013579Y073199D01*
X013547Y073161D01*
X013511Y073126D01*
X013472Y073094D01*
X013431Y073065D01*
X013388Y073039D01*
X013343Y073017D01*
X013297Y072999D01*
X013249Y072984D01*
X013200Y072973D01*
X013151Y072966D01*
X013101Y072963D01*
X013050Y072964D01*
X013001Y072969D01*
X012951Y072978D01*
X012903Y072991D01*
X012856Y073007D01*
X012810Y073028D01*
X012766Y073052D01*
X012724Y073079D01*
X012684Y073109D01*
X012647Y073143D01*
X012613Y073180D01*
X012581Y073219D01*
X012553Y073260D01*
X012528Y073304D01*
X012507Y073349D01*
X012490Y073396D01*
X012476Y073444D01*
X012466Y073493D01*
X012460Y073543D01*
X012458Y073593D01*
X066761Y080674D02*
X066763Y080724D01*
X066769Y080774D01*
X066779Y080823D01*
X066793Y080871D01*
X066810Y080918D01*
X066831Y080963D01*
X066856Y081007D01*
X066884Y081048D01*
X066916Y081087D01*
X066950Y081124D01*
X066987Y081158D01*
X067027Y081188D01*
X067069Y081215D01*
X067113Y081239D01*
X067159Y081260D01*
X067206Y081276D01*
X067254Y081289D01*
X067304Y081298D01*
X067353Y081303D01*
X067404Y081304D01*
X067454Y081301D01*
X067503Y081294D01*
X067552Y081283D01*
X067600Y081268D01*
X067646Y081250D01*
X067691Y081228D01*
X067734Y081202D01*
X067775Y081173D01*
X067814Y081141D01*
X067850Y081106D01*
X067882Y081068D01*
X067912Y081028D01*
X067939Y080985D01*
X067962Y080941D01*
X067981Y080895D01*
X067997Y080847D01*
X068009Y080798D01*
X068017Y080749D01*
X068021Y080699D01*
X068021Y080649D01*
X068017Y080599D01*
X068009Y080550D01*
X067997Y080501D01*
X067981Y080453D01*
X067962Y080407D01*
X067939Y080363D01*
X067912Y080320D01*
X067882Y080280D01*
X067850Y080242D01*
X067814Y080207D01*
X067775Y080175D01*
X067734Y080146D01*
X067691Y080120D01*
X067646Y080098D01*
X067600Y080080D01*
X067552Y080065D01*
X067503Y080054D01*
X067454Y080047D01*
X067404Y080044D01*
X067353Y080045D01*
X067304Y080050D01*
X067254Y080059D01*
X067206Y080072D01*
X067159Y080088D01*
X067113Y080109D01*
X067069Y080133D01*
X067027Y080160D01*
X066987Y080190D01*
X066950Y080224D01*
X066916Y080261D01*
X066884Y080300D01*
X066856Y080341D01*
X066831Y080385D01*
X066810Y080430D01*
X066793Y080477D01*
X066779Y080525D01*
X066769Y080574D01*
X066763Y080624D01*
X066761Y080674D01*
X066761Y043470D02*
X066763Y043520D01*
X066769Y043570D01*
X066779Y043619D01*
X066793Y043667D01*
X066810Y043714D01*
X066831Y043759D01*
X066856Y043803D01*
X066884Y043844D01*
X066916Y043883D01*
X066950Y043920D01*
X066987Y043954D01*
X067027Y043984D01*
X067069Y044011D01*
X067113Y044035D01*
X067159Y044056D01*
X067206Y044072D01*
X067254Y044085D01*
X067304Y044094D01*
X067353Y044099D01*
X067404Y044100D01*
X067454Y044097D01*
X067503Y044090D01*
X067552Y044079D01*
X067600Y044064D01*
X067646Y044046D01*
X067691Y044024D01*
X067734Y043998D01*
X067775Y043969D01*
X067814Y043937D01*
X067850Y043902D01*
X067882Y043864D01*
X067912Y043824D01*
X067939Y043781D01*
X067962Y043737D01*
X067981Y043691D01*
X067997Y043643D01*
X068009Y043594D01*
X068017Y043545D01*
X068021Y043495D01*
X068021Y043445D01*
X068017Y043395D01*
X068009Y043346D01*
X067997Y043297D01*
X067981Y043249D01*
X067962Y043203D01*
X067939Y043159D01*
X067912Y043116D01*
X067882Y043076D01*
X067850Y043038D01*
X067814Y043003D01*
X067775Y042971D01*
X067734Y042942D01*
X067691Y042916D01*
X067646Y042894D01*
X067600Y042876D01*
X067552Y042861D01*
X067503Y042850D01*
X067454Y042843D01*
X067404Y042840D01*
X067353Y042841D01*
X067304Y042846D01*
X067254Y042855D01*
X067206Y042868D01*
X067159Y042884D01*
X067113Y042905D01*
X067069Y042929D01*
X067027Y042956D01*
X066987Y042986D01*
X066950Y043020D01*
X066916Y043057D01*
X066884Y043096D01*
X066856Y043137D01*
X066831Y043181D01*
X066810Y043226D01*
X066793Y043273D01*
X066779Y043321D01*
X066769Y043370D01*
X066763Y043420D01*
X066761Y043470D01*
X114005Y043470D02*
X114007Y043520D01*
X114013Y043570D01*
X114023Y043619D01*
X114037Y043667D01*
X114054Y043714D01*
X114075Y043759D01*
X114100Y043803D01*
X114128Y043844D01*
X114160Y043883D01*
X114194Y043920D01*
X114231Y043954D01*
X114271Y043984D01*
X114313Y044011D01*
X114357Y044035D01*
X114403Y044056D01*
X114450Y044072D01*
X114498Y044085D01*
X114548Y044094D01*
X114597Y044099D01*
X114648Y044100D01*
X114698Y044097D01*
X114747Y044090D01*
X114796Y044079D01*
X114844Y044064D01*
X114890Y044046D01*
X114935Y044024D01*
X114978Y043998D01*
X115019Y043969D01*
X115058Y043937D01*
X115094Y043902D01*
X115126Y043864D01*
X115156Y043824D01*
X115183Y043781D01*
X115206Y043737D01*
X115225Y043691D01*
X115241Y043643D01*
X115253Y043594D01*
X115261Y043545D01*
X115265Y043495D01*
X115265Y043445D01*
X115261Y043395D01*
X115253Y043346D01*
X115241Y043297D01*
X115225Y043249D01*
X115206Y043203D01*
X115183Y043159D01*
X115156Y043116D01*
X115126Y043076D01*
X115094Y043038D01*
X115058Y043003D01*
X115019Y042971D01*
X114978Y042942D01*
X114935Y042916D01*
X114890Y042894D01*
X114844Y042876D01*
X114796Y042861D01*
X114747Y042850D01*
X114698Y042843D01*
X114648Y042840D01*
X114597Y042841D01*
X114548Y042846D01*
X114498Y042855D01*
X114450Y042868D01*
X114403Y042884D01*
X114357Y042905D01*
X114313Y042929D01*
X114271Y042956D01*
X114231Y042986D01*
X114194Y043020D01*
X114160Y043057D01*
X114128Y043096D01*
X114100Y043137D01*
X114075Y043181D01*
X114054Y043226D01*
X114037Y043273D01*
X114023Y043321D01*
X114013Y043370D01*
X114007Y043420D01*
X114005Y043470D01*
X121092Y080674D02*
X121094Y080724D01*
X121100Y080774D01*
X121110Y080823D01*
X121124Y080871D01*
X121141Y080918D01*
X121162Y080963D01*
X121187Y081007D01*
X121215Y081048D01*
X121247Y081087D01*
X121281Y081124D01*
X121318Y081158D01*
X121358Y081188D01*
X121400Y081215D01*
X121444Y081239D01*
X121490Y081260D01*
X121537Y081276D01*
X121585Y081289D01*
X121635Y081298D01*
X121684Y081303D01*
X121735Y081304D01*
X121785Y081301D01*
X121834Y081294D01*
X121883Y081283D01*
X121931Y081268D01*
X121977Y081250D01*
X122022Y081228D01*
X122065Y081202D01*
X122106Y081173D01*
X122145Y081141D01*
X122181Y081106D01*
X122213Y081068D01*
X122243Y081028D01*
X122270Y080985D01*
X122293Y080941D01*
X122312Y080895D01*
X122328Y080847D01*
X122340Y080798D01*
X122348Y080749D01*
X122352Y080699D01*
X122352Y080649D01*
X122348Y080599D01*
X122340Y080550D01*
X122328Y080501D01*
X122312Y080453D01*
X122293Y080407D01*
X122270Y080363D01*
X122243Y080320D01*
X122213Y080280D01*
X122181Y080242D01*
X122145Y080207D01*
X122106Y080175D01*
X122065Y080146D01*
X122022Y080120D01*
X121977Y080098D01*
X121931Y080080D01*
X121883Y080065D01*
X121834Y080054D01*
X121785Y080047D01*
X121735Y080044D01*
X121684Y080045D01*
X121635Y080050D01*
X121585Y080059D01*
X121537Y080072D01*
X121490Y080088D01*
X121444Y080109D01*
X121400Y080133D01*
X121358Y080160D01*
X121318Y080190D01*
X121281Y080224D01*
X121247Y080261D01*
X121215Y080300D01*
X121187Y080341D01*
X121162Y080385D01*
X121141Y080430D01*
X121124Y080477D01*
X121110Y080525D01*
X121100Y080574D01*
X121094Y080624D01*
X121092Y080674D01*
X121092Y006265D02*
X121094Y006315D01*
X121100Y006365D01*
X121110Y006414D01*
X121124Y006462D01*
X121141Y006509D01*
X121162Y006554D01*
X121187Y006598D01*
X121215Y006639D01*
X121247Y006678D01*
X121281Y006715D01*
X121318Y006749D01*
X121358Y006779D01*
X121400Y006806D01*
X121444Y006830D01*
X121490Y006851D01*
X121537Y006867D01*
X121585Y006880D01*
X121635Y006889D01*
X121684Y006894D01*
X121735Y006895D01*
X121785Y006892D01*
X121834Y006885D01*
X121883Y006874D01*
X121931Y006859D01*
X121977Y006841D01*
X122022Y006819D01*
X122065Y006793D01*
X122106Y006764D01*
X122145Y006732D01*
X122181Y006697D01*
X122213Y006659D01*
X122243Y006619D01*
X122270Y006576D01*
X122293Y006532D01*
X122312Y006486D01*
X122328Y006438D01*
X122340Y006389D01*
X122348Y006340D01*
X122352Y006290D01*
X122352Y006240D01*
X122348Y006190D01*
X122340Y006141D01*
X122328Y006092D01*
X122312Y006044D01*
X122293Y005998D01*
X122270Y005954D01*
X122243Y005911D01*
X122213Y005871D01*
X122181Y005833D01*
X122145Y005798D01*
X122106Y005766D01*
X122065Y005737D01*
X122022Y005711D01*
X121977Y005689D01*
X121931Y005671D01*
X121883Y005656D01*
X121834Y005645D01*
X121785Y005638D01*
X121735Y005635D01*
X121684Y005636D01*
X121635Y005641D01*
X121585Y005650D01*
X121537Y005663D01*
X121490Y005679D01*
X121444Y005700D01*
X121400Y005724D01*
X121358Y005751D01*
X121318Y005781D01*
X121281Y005815D01*
X121247Y005852D01*
X121215Y005891D01*
X121187Y005932D01*
X121162Y005976D01*
X121141Y006021D01*
X121124Y006068D01*
X121110Y006116D01*
X121100Y006165D01*
X121094Y006215D01*
X121092Y006265D01*
X066761Y006265D02*
X066763Y006315D01*
X066769Y006365D01*
X066779Y006414D01*
X066793Y006462D01*
X066810Y006509D01*
X066831Y006554D01*
X066856Y006598D01*
X066884Y006639D01*
X066916Y006678D01*
X066950Y006715D01*
X066987Y006749D01*
X067027Y006779D01*
X067069Y006806D01*
X067113Y006830D01*
X067159Y006851D01*
X067206Y006867D01*
X067254Y006880D01*
X067304Y006889D01*
X067353Y006894D01*
X067404Y006895D01*
X067454Y006892D01*
X067503Y006885D01*
X067552Y006874D01*
X067600Y006859D01*
X067646Y006841D01*
X067691Y006819D01*
X067734Y006793D01*
X067775Y006764D01*
X067814Y006732D01*
X067850Y006697D01*
X067882Y006659D01*
X067912Y006619D01*
X067939Y006576D01*
X067962Y006532D01*
X067981Y006486D01*
X067997Y006438D01*
X068009Y006389D01*
X068017Y006340D01*
X068021Y006290D01*
X068021Y006240D01*
X068017Y006190D01*
X068009Y006141D01*
X067997Y006092D01*
X067981Y006044D01*
X067962Y005998D01*
X067939Y005954D01*
X067912Y005911D01*
X067882Y005871D01*
X067850Y005833D01*
X067814Y005798D01*
X067775Y005766D01*
X067734Y005737D01*
X067691Y005711D01*
X067646Y005689D01*
X067600Y005671D01*
X067552Y005656D01*
X067503Y005645D01*
X067454Y005638D01*
X067404Y005635D01*
X067353Y005636D01*
X067304Y005641D01*
X067254Y005650D01*
X067206Y005663D01*
X067159Y005679D01*
X067113Y005700D01*
X067069Y005724D01*
X067027Y005751D01*
X066987Y005781D01*
X066950Y005815D01*
X066916Y005852D01*
X066884Y005891D01*
X066856Y005932D01*
X066831Y005976D01*
X066810Y006021D01*
X066793Y006068D01*
X066779Y006116D01*
X066769Y006165D01*
X066763Y006215D01*
X066761Y006265D01*
D11*
X004792Y062162D03*
X004792Y062988D03*
D12*
X004792Y054381D03*
X004792Y053712D03*
X069755Y046182D03*
X069755Y045513D03*
D13*
X005501Y055820D02*
X004438Y055820D01*
X004438Y057474D02*
X005501Y057474D01*
X005501Y059127D02*
X004438Y059127D01*
X004438Y060781D02*
X005501Y060781D01*
D14*
X011596Y060773D02*
X011596Y060473D01*
X018789Y060473D01*
X018789Y060173D01*
X011596Y060173D01*
X011596Y059873D01*
X018789Y059873D01*
X018789Y059573D01*
X011596Y059573D01*
X011596Y059273D01*
X018789Y059273D01*
X018789Y058973D01*
X011596Y058973D01*
X011596Y058673D01*
X018789Y058673D01*
X018789Y058373D01*
X011596Y058373D01*
X011596Y058073D01*
X018789Y058073D01*
X018789Y057773D01*
X011596Y057773D01*
X011596Y057473D01*
X018789Y057473D01*
X018789Y057173D01*
X011622Y057173D01*
X011622Y056873D01*
X018789Y056873D01*
X018789Y056573D01*
X011589Y056573D01*
X011589Y056273D01*
X018789Y056273D01*
X018789Y055973D01*
X011589Y055973D01*
X011589Y055673D01*
X018789Y055673D01*
X018789Y055373D01*
X011949Y055373D01*
X011949Y055073D01*
X018789Y055073D01*
X018789Y054773D01*
X012489Y054773D01*
X012489Y054473D01*
X018789Y054473D01*
X018789Y054173D01*
X013209Y054173D01*
X013209Y053873D01*
X018789Y053873D01*
X018789Y053573D01*
X013569Y053573D01*
X013569Y053273D01*
X018789Y053273D01*
X018789Y052973D01*
X013569Y052973D01*
X013569Y052673D01*
X018789Y052673D01*
X018789Y052373D01*
X013569Y052373D01*
X013569Y052073D01*
X018789Y052073D01*
X018789Y051773D01*
X013569Y051773D01*
X013569Y051473D01*
X018789Y051473D01*
X018789Y051173D01*
X013569Y051173D01*
X013569Y050873D01*
X018789Y050873D01*
X018789Y050573D01*
X013569Y050573D01*
X013569Y050273D01*
X018789Y050273D01*
X018789Y049973D01*
X013569Y049973D01*
X013569Y049673D01*
X018789Y049673D01*
X018789Y049373D01*
X013569Y049313D01*
X013569Y049013D01*
X018789Y049073D01*
X018789Y048713D01*
X013569Y048713D01*
X013569Y048413D01*
X018789Y048413D01*
X018789Y048113D01*
X013569Y048113D01*
X013569Y047813D01*
X018789Y047813D01*
X018789Y047513D01*
X013569Y047513D01*
X013569Y047213D01*
X018789Y047213D01*
X018789Y046913D01*
X016869Y046913D01*
X016869Y046613D01*
X018789Y046613D01*
X018789Y046313D01*
X016869Y046313D01*
X016869Y046013D01*
X018789Y046013D01*
X018789Y045713D01*
X016869Y045713D01*
X016869Y045413D01*
X018789Y045413D01*
X018789Y045113D01*
X016869Y045113D01*
X016869Y044813D01*
X018789Y044813D01*
X018789Y044513D01*
X016869Y044513D01*
X016869Y044213D01*
X018789Y044213D01*
X018789Y043913D01*
X016869Y043913D01*
X016869Y043613D01*
X018789Y043613D01*
X018789Y043313D01*
X016869Y043313D01*
X016869Y043013D01*
X018789Y043013D01*
X018789Y042713D01*
X016869Y042713D01*
X016869Y042413D01*
X018789Y042413D01*
X018789Y042113D01*
X016869Y042113D01*
X016869Y041813D01*
X018789Y041813D01*
X018789Y041513D01*
X016869Y041513D01*
X016869Y041213D01*
X018789Y041213D01*
X018789Y040913D01*
X016869Y040913D01*
X016869Y040613D01*
X018789Y040613D01*
X018789Y040313D01*
X016869Y040313D01*
X016869Y040013D01*
X018789Y040013D01*
X018789Y039713D01*
X013629Y039713D01*
X013629Y039413D01*
X018789Y039413D01*
X018789Y039113D01*
X013629Y039113D01*
X013629Y038813D01*
X018789Y038813D01*
X018789Y038513D01*
X013629Y038513D01*
X013629Y038213D01*
X018789Y038213D01*
X018789Y037913D01*
X013629Y037913D01*
X013629Y037613D01*
X018789Y037613D01*
X018789Y037313D01*
X013629Y037313D01*
X013629Y037013D01*
X018789Y037013D01*
X018789Y036713D01*
X013629Y036713D01*
X013629Y036413D01*
X018789Y036413D01*
X018789Y036113D01*
X013629Y036113D01*
X013629Y035813D01*
X018789Y035813D01*
X018789Y035513D01*
X013629Y035513D01*
X013629Y035213D01*
X018789Y035213D01*
X018789Y034913D01*
X013629Y034913D01*
X013629Y034613D01*
X018789Y034613D01*
X018789Y034313D01*
X013629Y034313D01*
X013629Y034013D01*
X018789Y034013D01*
X018789Y033713D01*
X013629Y033713D01*
X013629Y033413D01*
X018789Y033413D01*
X018789Y033113D01*
X013629Y033113D01*
X013629Y032813D01*
X018789Y032813D01*
X018789Y032513D01*
X013629Y032513D01*
X013629Y032213D01*
X018789Y032213D01*
X018789Y031913D01*
X013629Y031913D01*
X013629Y031613D01*
X018789Y031613D01*
X018789Y031313D01*
X013629Y031313D01*
X013629Y031013D01*
X018789Y031013D01*
X018789Y030713D01*
X013629Y030713D01*
X013629Y030413D01*
X018789Y030413D01*
X018789Y030113D01*
X013629Y030113D01*
X013629Y029813D01*
X018789Y029813D01*
X018789Y029513D01*
X013629Y029513D01*
X013629Y029213D01*
X018789Y029213D01*
X018789Y028913D01*
X013629Y028913D01*
X013629Y028613D01*
X018789Y028613D01*
X018789Y028313D01*
X013629Y028313D01*
X013629Y028013D01*
X018789Y028013D01*
X018789Y027713D01*
X013629Y027713D01*
X013629Y027413D01*
X018789Y027413D01*
X018789Y027113D01*
X013629Y027113D01*
X013629Y026813D01*
X018789Y026813D01*
X018789Y026513D01*
X013629Y026513D01*
X013629Y026213D01*
X018789Y026213D01*
X018789Y025913D01*
X013629Y025913D01*
X013629Y025613D01*
X018789Y025613D01*
X018789Y025313D01*
X013629Y025313D01*
X013629Y025013D01*
X018789Y025013D01*
X018789Y024713D01*
X013629Y024713D01*
X013629Y024413D01*
X018789Y024413D01*
X018789Y024113D01*
X013629Y024113D01*
X013629Y023813D01*
X018789Y023813D01*
X018789Y023513D01*
X013629Y023513D01*
X013629Y023213D01*
X018789Y023213D01*
X018789Y022913D01*
X013629Y022913D01*
X013629Y022613D01*
X018789Y022613D01*
X018789Y022313D01*
X013629Y022313D01*
X013629Y022013D01*
X018789Y022013D01*
X018789Y021713D01*
X013629Y021713D01*
X013629Y021413D01*
X018789Y021413D01*
X018789Y021113D01*
X013629Y021113D01*
X013629Y020813D01*
X018789Y020813D01*
X018789Y020513D01*
X013629Y020513D01*
X013629Y020213D01*
X018789Y020213D01*
X018789Y019913D01*
X013629Y019913D01*
X013629Y019613D01*
X018789Y019613D01*
X018789Y019313D01*
X013629Y019313D01*
X013629Y019013D01*
X018789Y019013D01*
X018789Y018713D01*
X013629Y018713D01*
X013629Y018413D01*
X018789Y018413D01*
X018789Y018113D01*
X013629Y018113D01*
X013629Y017813D01*
X018729Y017813D01*
X018729Y017513D01*
X014049Y017513D01*
X014049Y017213D01*
X018729Y017213D01*
X018729Y016913D01*
X016389Y016913D01*
X016389Y016613D01*
X018729Y016613D01*
X018729Y016313D01*
X016389Y016313D01*
X016389Y016013D01*
X018729Y016013D01*
X018729Y015713D01*
X016389Y015713D01*
X016389Y015413D01*
X018729Y015413D01*
X018729Y015113D01*
X015969Y015113D01*
X015969Y014813D01*
X018729Y014813D01*
X018729Y014513D01*
X015429Y014513D01*
X015429Y014213D01*
X018729Y014213D01*
X018729Y013913D01*
X015429Y013913D01*
X015429Y013613D01*
X018669Y013613D01*
X018669Y013313D01*
X015429Y013313D01*
X015429Y013013D01*
X018729Y013013D01*
X018729Y012713D01*
X015429Y012713D01*
X015429Y012413D01*
X018729Y012413D01*
X018729Y012113D01*
X015129Y012113D01*
X015129Y015233D01*
X022089Y006803D02*
X022389Y006803D01*
X022389Y080164D01*
X022689Y080164D01*
X022689Y006803D01*
X022989Y006803D01*
X022989Y080164D01*
X023289Y080164D01*
X023289Y006803D01*
X023589Y006803D01*
X023589Y080164D01*
X023889Y080164D01*
X023889Y006803D01*
X024189Y006803D01*
X024189Y080164D01*
X024489Y080164D01*
X024489Y006803D01*
X024789Y006803D01*
X024789Y080164D01*
X025089Y080164D01*
X025089Y006803D01*
X025389Y006803D01*
X025389Y080164D01*
X025689Y080164D01*
X025689Y006803D01*
X025989Y006803D01*
X025989Y080164D01*
X026289Y080164D01*
X026289Y006803D01*
X026589Y006803D01*
X026589Y080164D01*
X026889Y080164D01*
X026889Y006803D01*
X027189Y006803D01*
X027189Y080164D01*
X027489Y080164D01*
X027489Y006803D01*
X027789Y006803D01*
X027789Y080164D01*
X028089Y080164D01*
X028089Y006803D01*
X028389Y006803D01*
X028389Y080164D01*
X028689Y080164D01*
X028689Y006803D01*
X028989Y006803D01*
X028989Y080164D01*
X029289Y080164D01*
X029289Y006803D01*
X029589Y006803D01*
X029589Y080164D01*
X029889Y080164D01*
X029889Y006803D01*
X030189Y006803D01*
X030189Y080164D01*
X030489Y080164D01*
X030489Y006803D01*
X030789Y006803D01*
X030789Y080164D01*
X031089Y080164D01*
X031089Y006803D01*
X031389Y006803D01*
X031389Y080164D01*
X031689Y080164D01*
X031689Y006803D01*
X031989Y006803D01*
X031989Y080164D01*
X032289Y080164D01*
X032289Y006803D01*
X032589Y006803D01*
X032589Y080164D01*
X032889Y080164D01*
X032889Y006803D01*
X033189Y006803D01*
X033189Y080164D01*
X033489Y080164D01*
X033489Y006803D01*
X033789Y006803D01*
X033789Y080164D01*
X034089Y080164D01*
X034089Y006803D01*
X034389Y006803D01*
X034389Y080164D01*
X034689Y080164D01*
X034689Y006803D01*
X034989Y006803D01*
X034989Y080164D01*
X035289Y080164D01*
X035289Y006803D01*
X035589Y006803D01*
X035589Y080164D01*
X035889Y080164D01*
X035889Y006803D01*
X036189Y006803D01*
X036189Y080164D01*
X036489Y080164D01*
X036489Y006803D01*
X036789Y006803D01*
X036789Y080164D01*
X037089Y080164D01*
X037089Y006803D01*
X037389Y006803D01*
X037389Y080164D01*
X037689Y080164D01*
X037689Y006803D01*
X037989Y006803D01*
X037989Y080164D01*
X038289Y080164D01*
X038289Y006803D01*
X038589Y006803D01*
X038589Y080164D01*
X038889Y080164D01*
X038889Y006803D01*
X039189Y006803D01*
X039189Y080164D01*
X039489Y080164D01*
X039489Y006803D01*
X039789Y006803D01*
X039789Y080164D01*
X040089Y080164D01*
X040089Y006803D01*
X040389Y006803D01*
X040389Y080164D01*
X040689Y080164D01*
X040689Y006803D01*
X040989Y006803D01*
X040989Y080164D01*
X041289Y080164D01*
X041289Y006803D01*
X041589Y006803D01*
X041589Y080754D01*
X041889Y080164D02*
X041889Y005893D01*
X042189Y006808D02*
X042489Y006808D01*
X042489Y080142D01*
X042789Y080142D01*
X042789Y006808D01*
X043089Y006808D01*
X043089Y080142D01*
X043389Y080142D01*
X043389Y006808D01*
X043689Y006808D01*
X043689Y080142D01*
X043989Y080142D01*
X043989Y006808D01*
X044289Y006808D01*
X044289Y080142D01*
X044589Y080142D01*
X044589Y006808D01*
X044889Y006808D01*
X044889Y080142D01*
X045189Y080142D01*
X045189Y006808D01*
X045489Y006808D01*
X045489Y080142D01*
X045789Y080142D01*
X045789Y006808D01*
X046089Y006808D01*
X046089Y080142D01*
X046389Y080142D01*
X046389Y006808D01*
X046689Y006808D01*
X046689Y080142D01*
X046989Y080142D01*
X046989Y006808D01*
X047289Y006808D01*
X047289Y080142D01*
X047589Y080142D01*
X047589Y006808D01*
X047889Y006808D01*
X047889Y080142D01*
X048189Y080142D01*
X048189Y006808D01*
X048489Y006808D01*
X048489Y080142D01*
X048789Y080142D01*
X048789Y006803D01*
X049089Y006803D01*
X049089Y080164D01*
X049389Y080164D01*
X049389Y006803D01*
X049689Y006803D01*
X049689Y080164D01*
X049989Y080164D01*
X049989Y006803D01*
X050289Y006803D01*
X050289Y080164D01*
X050589Y080164D01*
X050589Y006803D01*
X050889Y006803D01*
X050889Y080164D01*
X051189Y080164D01*
X051189Y006803D01*
X051489Y006803D01*
X051489Y080164D01*
X051789Y080164D01*
X051789Y006803D01*
X052089Y006803D01*
X052089Y080164D01*
X052389Y080164D01*
X052389Y006803D01*
X052689Y006803D01*
X052689Y080164D01*
X052989Y080164D01*
X052989Y006803D01*
X053289Y006803D01*
X053289Y080164D01*
X053589Y080164D01*
X053589Y006803D01*
X053889Y006803D01*
X053889Y080164D01*
X054189Y080164D01*
X054189Y006803D01*
X054489Y006803D01*
X054489Y080164D01*
X054789Y080164D01*
X054789Y006803D01*
X055089Y006803D01*
X055089Y080164D01*
X055389Y080164D01*
X055389Y006803D01*
X055689Y006803D01*
X055689Y080164D01*
X055989Y080164D01*
X055989Y006803D01*
X056289Y006803D01*
X056289Y080164D01*
X056589Y080164D01*
X056589Y006803D01*
X056889Y006803D01*
X056889Y080164D01*
X057189Y080164D01*
X057189Y006803D01*
X057489Y006803D01*
X057489Y080164D01*
X057789Y080164D01*
X057789Y006803D01*
X058089Y006803D01*
X058089Y080164D01*
X058389Y080164D01*
X058389Y006803D01*
X058689Y006803D01*
X058689Y080164D01*
X058989Y080164D01*
X058989Y006803D01*
X059289Y006803D01*
X059289Y080164D01*
X059589Y080164D01*
X059589Y006803D01*
X059889Y006803D01*
X059889Y080164D01*
X060189Y080164D01*
X060189Y006803D01*
X060489Y006803D01*
X060489Y080164D01*
X060789Y080164D01*
X060789Y006803D01*
X061089Y006803D01*
X061089Y080164D01*
X061389Y080164D01*
X061389Y006803D01*
X061689Y006803D01*
X061689Y080164D01*
X061989Y080164D01*
X061989Y006803D01*
X062289Y006803D01*
X062289Y080164D01*
X062589Y080164D01*
X062589Y006803D01*
X062889Y006803D01*
X062889Y080164D01*
X063189Y080164D01*
X063189Y006832D01*
X063489Y006832D01*
X063489Y077164D01*
X063789Y077164D01*
X063789Y009832D01*
X064089Y009832D01*
X064089Y076864D01*
X064389Y076864D01*
X064389Y009952D01*
X064689Y009952D01*
X064689Y076864D01*
X064989Y076864D01*
X064989Y009952D01*
X065289Y009952D01*
X065289Y076864D01*
X065589Y076864D01*
X065589Y009952D01*
X065889Y009952D01*
X065889Y041513D01*
X066189Y041513D01*
X066189Y009953D01*
X066189Y009952D02*
X066489Y009952D01*
X066489Y009983D02*
X066489Y041506D01*
X066789Y041506D01*
X066789Y009983D01*
X066789Y009952D02*
X067089Y009952D01*
X067089Y009983D02*
X067089Y041506D01*
X067389Y041506D01*
X067389Y009953D01*
X067389Y009945D02*
X067689Y009945D01*
X067689Y009953D02*
X067689Y041506D01*
X067989Y041506D01*
X067989Y009953D01*
X067989Y009945D02*
X068289Y009945D01*
X068289Y009953D02*
X068289Y041506D01*
X068589Y041506D01*
X068589Y009953D01*
X068589Y009945D02*
X068889Y009945D01*
X068889Y009953D02*
X068889Y042473D01*
X069489Y042473D01*
X069489Y044573D01*
X068889Y044573D01*
X068889Y045413D01*
X065889Y045413D01*
X065889Y076853D01*
X065889Y076864D02*
X066189Y076864D01*
X066189Y045713D01*
X066489Y045713D01*
X066489Y076853D01*
X066489Y076864D02*
X066789Y076864D01*
X066789Y076853D02*
X066789Y045721D01*
X067089Y045721D01*
X067089Y076853D01*
X067089Y076864D02*
X067389Y076864D01*
X067389Y076853D02*
X067389Y045721D01*
X067689Y045721D01*
X067689Y076913D01*
X067989Y076913D01*
X067989Y045721D01*
X068289Y045721D01*
X068289Y076913D01*
X068589Y076913D01*
X068589Y045721D01*
X068889Y045721D01*
X068889Y078593D01*
X068949Y078593D01*
X069189Y076902D02*
X069189Y044993D01*
X070389Y044993D01*
X070389Y009945D01*
X070089Y009945D01*
X070089Y044693D01*
X069789Y044693D01*
X069789Y009945D01*
X069489Y009945D01*
X069489Y042173D01*
X069189Y042173D01*
X069189Y009113D01*
X070689Y009945D02*
X070989Y009945D01*
X070989Y076902D01*
X071289Y076902D01*
X071289Y006829D01*
X071589Y006829D01*
X071589Y080142D01*
X071889Y080142D01*
X071889Y006829D01*
X072189Y006829D01*
X072189Y080142D01*
X072489Y080142D01*
X072489Y006829D01*
X072789Y006829D01*
X072789Y080142D01*
X073089Y080142D01*
X073089Y006829D01*
X073389Y006829D01*
X073389Y080142D01*
X073689Y080142D01*
X073689Y006829D01*
X073989Y006829D01*
X073989Y080142D01*
X074289Y080142D01*
X074289Y006807D01*
X074589Y006807D01*
X074589Y080164D01*
X074889Y080164D01*
X074889Y006803D01*
X075189Y006803D01*
X075189Y080164D01*
X075489Y080164D01*
X075489Y006803D01*
X075789Y006803D01*
X075789Y080164D01*
X076089Y080164D01*
X076089Y006803D01*
X076389Y006803D01*
X076389Y080164D01*
X076689Y080164D01*
X076689Y006803D01*
X076989Y006803D01*
X076989Y080164D01*
X077289Y080164D01*
X077289Y006803D01*
X077589Y006803D01*
X077589Y080164D01*
X077889Y080164D01*
X077889Y006803D01*
X078189Y006803D01*
X078189Y080164D01*
X078489Y080164D01*
X078489Y006803D01*
X078789Y006803D01*
X078789Y080164D01*
X079089Y080164D01*
X079089Y006803D01*
X079389Y006803D01*
X079389Y080164D01*
X079689Y080164D01*
X079689Y006803D01*
X079989Y006803D01*
X079989Y080164D01*
X080289Y080164D01*
X080289Y006803D01*
X080589Y006803D01*
X080589Y080164D01*
X080889Y080164D01*
X080889Y006803D01*
X081189Y006803D01*
X081189Y080164D01*
X081489Y080164D01*
X081489Y006803D01*
X081789Y006803D01*
X081789Y080164D01*
X082089Y080164D01*
X082089Y006803D01*
X082389Y006803D01*
X082389Y080164D01*
X082689Y080164D01*
X082689Y006803D01*
X082989Y006803D01*
X082989Y080164D01*
X083289Y080164D01*
X083289Y006803D01*
X083589Y006803D01*
X083589Y080164D01*
X083889Y080164D01*
X083889Y006803D01*
X084189Y006803D01*
X084189Y080164D01*
X084489Y080164D01*
X084489Y006803D01*
X084789Y006803D01*
X084789Y080164D01*
X085089Y080164D01*
X085089Y006803D01*
X085389Y006803D01*
X085389Y080164D01*
X085689Y080164D01*
X085689Y006803D01*
X085989Y006803D01*
X085989Y080164D01*
X086289Y080164D01*
X086289Y006803D01*
X086589Y006803D01*
X086589Y080164D01*
X086889Y080164D01*
X086889Y006803D01*
X087189Y006803D01*
X087189Y080164D01*
X087489Y080164D01*
X087489Y006803D01*
X087789Y006803D01*
X087789Y080164D01*
X088089Y080164D01*
X088089Y006803D01*
X088389Y006803D01*
X088389Y080164D01*
X088689Y080164D01*
X088689Y006803D01*
X088989Y006803D01*
X088989Y080164D01*
X089289Y080164D01*
X089289Y006803D01*
X089589Y006803D01*
X089589Y080164D01*
X089889Y080164D01*
X089889Y006803D01*
X090189Y006803D01*
X090189Y080164D01*
X090489Y080164D01*
X090489Y006803D01*
X090789Y006803D01*
X090789Y080164D01*
X091089Y080164D01*
X091089Y006803D01*
X091389Y006803D01*
X091389Y080164D01*
X091689Y080164D01*
X091689Y006803D01*
X091989Y006803D01*
X091989Y080164D01*
X092289Y080164D01*
X092289Y006803D01*
X092589Y006803D01*
X092589Y080164D01*
X092889Y080164D01*
X092889Y006803D01*
X093189Y006803D01*
X093189Y080142D01*
X093489Y080142D01*
X093489Y006825D01*
X093789Y006825D01*
X093789Y080142D01*
X094089Y080142D01*
X094089Y006825D01*
X094389Y006825D01*
X094389Y080142D01*
X094689Y080142D01*
X094689Y006825D01*
X094989Y006825D01*
X094989Y080142D01*
X095289Y080142D01*
X095289Y006825D01*
X095589Y006825D01*
X095589Y080142D01*
X095889Y080142D01*
X095889Y006825D01*
X096189Y006825D01*
X096189Y080967D01*
X096489Y080142D02*
X096489Y006194D01*
X096789Y006825D02*
X097089Y006825D01*
X097089Y080142D01*
X097389Y080142D01*
X097389Y005025D01*
X097689Y005025D01*
X097689Y080142D01*
X097989Y080142D01*
X097989Y005025D01*
X098289Y005025D01*
X098289Y080142D01*
X098589Y080142D01*
X098589Y005025D01*
X098889Y005025D01*
X098889Y080142D01*
X099189Y080142D01*
X099189Y005025D01*
X099489Y005025D01*
X099489Y080104D01*
X099789Y080104D01*
X099789Y005041D01*
X100089Y005041D01*
X100089Y080164D01*
X100389Y080164D01*
X100389Y005041D01*
X100689Y005041D01*
X100689Y080164D01*
X100989Y080164D01*
X100989Y005041D01*
X101289Y005041D01*
X101289Y080164D01*
X101589Y080164D01*
X101589Y005041D01*
X101889Y005041D01*
X101889Y080164D01*
X102189Y080164D01*
X102189Y005041D01*
X102489Y005041D01*
X102489Y080164D01*
X102789Y080164D01*
X102789Y005041D01*
X103089Y005041D01*
X103089Y080164D01*
X103389Y080164D01*
X103389Y005041D01*
X103689Y005041D01*
X103689Y080164D01*
X103989Y080164D01*
X103989Y005041D01*
X104289Y005041D01*
X104289Y080164D01*
X104589Y080164D01*
X104589Y005041D01*
X104889Y005041D01*
X104889Y080164D01*
X105189Y080164D01*
X105189Y005041D01*
X105489Y005041D01*
X105489Y080164D01*
X105789Y080164D01*
X105789Y005041D01*
X106089Y005041D01*
X106089Y080164D01*
X106389Y080164D01*
X106389Y005041D01*
X106689Y005041D01*
X106689Y080164D01*
X106989Y080164D01*
X106989Y005041D01*
X107289Y005041D01*
X107289Y080164D01*
X107589Y080164D01*
X107589Y005041D01*
X107889Y005041D01*
X107889Y080164D01*
X108189Y080164D01*
X108189Y005041D01*
X108489Y005041D01*
X108489Y080164D01*
X108789Y080164D01*
X108789Y005041D01*
X109089Y005041D01*
X109089Y080164D01*
X109389Y080164D01*
X109389Y005041D01*
X109689Y005041D01*
X109689Y080164D01*
X109989Y080164D01*
X109989Y005041D01*
X110289Y005041D01*
X110289Y080164D01*
X110589Y080164D01*
X110589Y005041D01*
X110889Y005041D01*
X110889Y080164D01*
X111189Y080164D01*
X111189Y005041D01*
X111489Y005041D01*
X111489Y080164D01*
X111789Y080164D01*
X111789Y005041D01*
X112089Y005041D01*
X112089Y080164D01*
X112389Y080164D01*
X112389Y005041D01*
X119795Y005041D01*
X119795Y005393D01*
X112689Y005393D01*
X112689Y005693D01*
X119795Y005693D01*
X119795Y005993D01*
X112689Y005993D01*
X112689Y006293D01*
X119795Y006293D01*
X119795Y006593D01*
X112689Y006593D01*
X112689Y006893D01*
X119795Y006893D01*
X119795Y007193D01*
X112689Y007193D01*
X112689Y007493D01*
X119795Y007493D01*
X119795Y007793D01*
X112689Y007793D01*
X112689Y008093D01*
X123249Y008093D01*
X123249Y008393D01*
X112689Y008393D01*
X112689Y008693D01*
X123249Y008693D01*
X123249Y008993D01*
X112689Y008993D01*
X112689Y009293D01*
X123249Y009293D01*
X123249Y009593D01*
X112689Y009593D01*
X112689Y009893D01*
X123249Y009893D01*
X123249Y010193D01*
X112689Y010193D01*
X112689Y010493D01*
X123249Y010493D01*
X123249Y010793D01*
X112689Y010793D01*
X112689Y011093D01*
X123249Y011093D01*
X123249Y011393D01*
X112689Y011393D01*
X112689Y011693D01*
X123249Y011693D01*
X123249Y011993D01*
X112689Y011993D01*
X112689Y012293D01*
X123249Y012293D01*
X123249Y012593D01*
X112689Y012593D01*
X112689Y012893D01*
X123249Y012893D01*
X123249Y013193D01*
X112689Y013193D01*
X112689Y013493D01*
X123249Y013493D01*
X123249Y013793D01*
X112689Y013793D01*
X112689Y014093D01*
X123249Y014093D01*
X123249Y014393D01*
X112689Y014393D01*
X112689Y014693D01*
X123249Y014693D01*
X123249Y014993D01*
X112689Y014993D01*
X112689Y015293D01*
X123249Y015293D01*
X123249Y015593D01*
X112689Y015593D01*
X112689Y015893D01*
X123249Y015893D01*
X123249Y016193D01*
X112689Y016193D01*
X112689Y016493D01*
X123249Y016493D01*
X123249Y016793D01*
X112689Y016793D01*
X112689Y017093D01*
X123249Y017093D01*
X123249Y017393D01*
X112689Y017393D01*
X112689Y017693D01*
X123249Y017693D01*
X123249Y017993D01*
X112689Y017993D01*
X112689Y018293D01*
X123249Y018293D01*
X123249Y018593D01*
X112689Y018593D01*
X112689Y018893D01*
X123249Y018893D01*
X123249Y019193D01*
X112689Y019193D01*
X112689Y019493D01*
X123249Y019493D01*
X123249Y019793D01*
X112689Y019793D01*
X112689Y020093D01*
X123249Y020093D01*
X123249Y020393D01*
X112689Y020393D01*
X112689Y020693D01*
X123249Y020693D01*
X123249Y020993D01*
X112689Y020993D01*
X112689Y021293D01*
X123249Y021293D01*
X123249Y021593D01*
X112689Y021593D01*
X112689Y021893D01*
X123249Y021893D01*
X123249Y022193D01*
X112689Y022193D01*
X112689Y022493D01*
X123249Y022493D01*
X123249Y022793D01*
X112689Y022793D01*
X112689Y023093D01*
X123249Y023093D01*
X123249Y023393D01*
X112689Y023393D01*
X112689Y023693D01*
X123249Y023693D01*
X123249Y023993D01*
X112689Y023993D01*
X112689Y024293D01*
X123249Y024293D01*
X123249Y024593D01*
X112689Y024593D01*
X112689Y024893D01*
X123249Y024893D01*
X123249Y025193D01*
X112689Y025193D01*
X112689Y025493D01*
X123249Y025493D01*
X123249Y025793D01*
X112689Y025793D01*
X112689Y026093D01*
X123249Y026093D01*
X123249Y026393D01*
X112689Y026393D01*
X112689Y026693D01*
X123249Y026693D01*
X123249Y026993D01*
X112689Y026993D01*
X112689Y027293D01*
X123249Y027293D01*
X123249Y027593D01*
X112689Y027593D01*
X112689Y027893D01*
X123249Y027893D01*
X123249Y028193D01*
X112689Y028193D01*
X112689Y028493D01*
X123249Y028493D01*
X123249Y028793D01*
X112689Y028793D01*
X112689Y029093D01*
X123249Y029093D01*
X123249Y029393D01*
X112689Y029393D01*
X112689Y029693D01*
X123249Y029693D01*
X123249Y029993D01*
X112689Y029993D01*
X112689Y030293D01*
X123249Y030293D01*
X123249Y030593D01*
X112689Y030593D01*
X112689Y030893D01*
X123249Y030893D01*
X123249Y031193D01*
X112689Y031193D01*
X112689Y031493D01*
X123249Y031493D01*
X123249Y031793D01*
X112689Y031793D01*
X112689Y032093D01*
X123249Y032093D01*
X123249Y032393D01*
X112689Y032393D01*
X112689Y032693D01*
X123249Y032693D01*
X123249Y032993D01*
X112689Y032993D01*
X112689Y033293D01*
X123249Y033293D01*
X123249Y033593D01*
X112689Y033593D01*
X112689Y033893D01*
X123249Y033893D01*
X123249Y034193D01*
X112689Y034193D01*
X112689Y034493D01*
X123249Y034493D01*
X123249Y034793D01*
X112689Y034793D01*
X112689Y035093D01*
X123249Y035093D01*
X123249Y035393D01*
X112689Y035393D01*
X112689Y035693D01*
X123249Y035693D01*
X123249Y035993D01*
X112689Y035993D01*
X112689Y036293D01*
X123249Y036293D01*
X123249Y036593D01*
X112689Y036593D01*
X112689Y036893D01*
X123249Y036893D01*
X123249Y037193D01*
X112689Y037193D01*
X112689Y037493D01*
X123249Y037493D01*
X123249Y037793D01*
X112689Y037793D01*
X112689Y038093D01*
X123249Y038093D01*
X123249Y038393D01*
X112689Y038393D01*
X112689Y038693D01*
X123249Y038693D01*
X123249Y038993D01*
X112689Y038993D01*
X112689Y039293D01*
X122769Y039293D01*
X122769Y039593D01*
X112715Y039593D01*
X112715Y039893D01*
X116615Y039893D01*
X116615Y040193D01*
X112715Y040193D01*
X112715Y040493D01*
X116315Y040493D01*
X116315Y040793D01*
X112715Y040793D01*
X112715Y041093D01*
X116265Y041093D01*
X116265Y041393D01*
X112715Y041393D01*
X112715Y045393D01*
X116265Y045393D01*
X116265Y045693D01*
X112715Y045693D01*
X112715Y045993D01*
X116215Y045993D01*
X116215Y046293D01*
X112715Y046293D01*
X112715Y046593D01*
X116215Y046593D01*
X116215Y046893D01*
X112715Y046893D01*
X112715Y047213D01*
X122709Y047213D01*
X122709Y047513D01*
X112689Y047513D01*
X112689Y047813D01*
X123189Y047813D01*
X123189Y048113D01*
X112689Y048113D01*
X112689Y048413D01*
X123249Y048413D01*
X123249Y048713D01*
X112689Y048713D01*
X112689Y049013D01*
X123249Y049013D01*
X123249Y049313D01*
X112689Y049313D01*
X112689Y049613D01*
X123249Y049613D01*
X123249Y049913D01*
X112689Y049913D01*
X112689Y050213D01*
X123309Y050213D01*
X123309Y050513D01*
X112689Y050513D01*
X112689Y050813D01*
X123249Y050813D01*
X123249Y051113D01*
X112689Y051113D01*
X112689Y051413D01*
X123249Y051413D01*
X123249Y051713D01*
X112689Y051713D01*
X112689Y052013D01*
X123249Y052013D01*
X123249Y052313D01*
X112689Y052313D01*
X112689Y052613D01*
X123249Y052613D01*
X123249Y052913D01*
X112689Y052913D01*
X112689Y053213D01*
X123249Y053213D01*
X123249Y053513D01*
X112689Y053513D01*
X112689Y053813D01*
X123249Y053813D01*
X123249Y054113D01*
X112689Y054113D01*
X112689Y054413D01*
X123249Y054413D01*
X123249Y054713D01*
X112689Y054713D01*
X112689Y055013D01*
X123249Y055013D01*
X123249Y055313D01*
X112689Y055313D01*
X112689Y055613D01*
X123249Y055613D01*
X123249Y055913D01*
X112689Y055913D01*
X112689Y056213D01*
X123249Y056213D01*
X123249Y056513D01*
X112689Y056513D01*
X112689Y056813D01*
X123249Y056813D01*
X123249Y057113D01*
X112689Y057113D01*
X112689Y057413D01*
X123249Y057413D01*
X123249Y057713D01*
X112689Y057713D01*
X112689Y058013D01*
X123249Y058013D01*
X123249Y058313D01*
X112689Y058313D01*
X112689Y058613D01*
X123249Y058613D01*
X123249Y058913D01*
X112689Y058913D01*
X112689Y059213D01*
X123249Y059213D01*
X123249Y059513D01*
X112689Y059513D01*
X112689Y059813D01*
X123249Y059813D01*
X123249Y060113D01*
X112689Y060113D01*
X112689Y060413D01*
X123249Y060413D01*
X123249Y060713D01*
X112689Y060713D01*
X112689Y061013D01*
X123249Y061013D01*
X123249Y061313D01*
X112689Y061313D01*
X112689Y061613D01*
X123249Y061613D01*
X123249Y061913D01*
X112689Y061913D01*
X112689Y062213D01*
X123249Y062213D01*
X123249Y062513D01*
X112689Y062513D01*
X112689Y062813D01*
X123249Y062813D01*
X123249Y063113D01*
X112689Y063113D01*
X112689Y063413D01*
X123249Y063413D01*
X123249Y063713D01*
X112689Y063713D01*
X112689Y064013D01*
X123249Y064013D01*
X123249Y064313D01*
X112689Y064313D01*
X112689Y064613D01*
X123249Y064613D01*
X123249Y064913D01*
X112689Y064913D01*
X112689Y065213D01*
X123249Y065213D01*
X123249Y065513D01*
X112689Y065513D01*
X112689Y065813D01*
X123249Y065813D01*
X123249Y066113D01*
X112689Y066113D01*
X112689Y066413D01*
X123249Y066413D01*
X123249Y066713D01*
X112689Y066713D01*
X112689Y067013D01*
X123249Y067013D01*
X123249Y067313D01*
X112689Y067313D01*
X112689Y067613D01*
X123249Y067613D01*
X123249Y067913D01*
X112689Y067913D01*
X112689Y068213D01*
X123249Y068213D01*
X123249Y068513D01*
X112689Y068513D01*
X112689Y068813D01*
X123249Y068813D01*
X123249Y069113D01*
X112689Y069113D01*
X112689Y069413D01*
X123249Y069413D01*
X123249Y069713D01*
X112689Y069713D01*
X112689Y070013D01*
X123249Y070013D01*
X123249Y070313D01*
X112689Y070313D01*
X112689Y070613D01*
X123249Y070613D01*
X123249Y070913D01*
X112689Y070913D01*
X112689Y071213D01*
X123249Y071213D01*
X123249Y071513D01*
X112689Y071513D01*
X112689Y071813D01*
X123249Y071813D01*
X123249Y072113D01*
X112689Y072113D01*
X112689Y072413D01*
X123249Y072413D01*
X123249Y072713D01*
X112689Y072713D01*
X112689Y073013D01*
X123249Y073013D01*
X123249Y073313D01*
X112689Y073313D01*
X112689Y073613D01*
X123249Y073613D01*
X123249Y073913D01*
X112689Y073913D01*
X112689Y074213D01*
X123249Y074213D01*
X123249Y074513D01*
X112689Y074513D01*
X112689Y074813D01*
X123249Y074813D01*
X123249Y075113D01*
X112689Y075113D01*
X112689Y075413D01*
X123249Y075413D01*
X123249Y075713D01*
X112689Y075713D01*
X112689Y076013D01*
X123249Y076013D01*
X123249Y076313D01*
X112689Y076313D01*
X112689Y076613D01*
X123249Y076613D01*
X123249Y076913D01*
X112689Y076913D01*
X112689Y077213D01*
X123249Y077213D01*
X123249Y077513D01*
X112689Y077513D01*
X112689Y077813D01*
X123249Y077813D01*
X123249Y078113D01*
X112689Y078113D01*
X112689Y078413D01*
X123249Y078413D01*
X123249Y078713D01*
X112689Y078713D01*
X112689Y079013D01*
X120129Y079013D01*
X120129Y079313D01*
X112689Y079313D01*
X112689Y079613D01*
X119735Y079613D01*
X119735Y079913D01*
X112689Y079913D01*
X112689Y080213D01*
X119735Y080213D01*
X119735Y081173D01*
X119049Y081173D01*
X096789Y080142D02*
X096489Y080142D01*
X096789Y080142D02*
X096789Y006825D01*
X070689Y009945D02*
X070689Y076902D01*
X070389Y076902D01*
X070389Y046693D01*
X070089Y046693D01*
X070089Y076902D01*
X069789Y076902D01*
X069789Y046693D01*
X069489Y046693D01*
X069489Y076902D01*
X069189Y076902D01*
X042189Y080164D02*
X041889Y080164D01*
X042189Y080164D02*
X042189Y006808D01*
X022089Y006803D02*
X022089Y080704D01*
X021789Y080704D01*
X021789Y004883D01*
X021489Y004883D01*
X021489Y082144D01*
X021189Y082144D01*
X021189Y004883D01*
X020889Y004883D01*
X020889Y082144D01*
X020589Y082144D01*
X020589Y004883D01*
X020289Y004883D01*
X020289Y082144D01*
X019989Y082144D01*
X019989Y004883D01*
X019689Y004883D01*
X019689Y082144D01*
X019389Y082144D01*
X019389Y004883D01*
X019089Y004883D01*
X019089Y081784D01*
X018789Y081784D01*
X018789Y081773D02*
X018789Y072173D01*
X016749Y072173D01*
X016749Y071873D01*
X018789Y071873D01*
X018789Y071573D01*
X016329Y071573D01*
X016329Y071273D01*
X018789Y071273D01*
X018789Y070973D01*
X015669Y070973D01*
X015669Y070673D01*
X018789Y070673D01*
X018789Y070373D01*
X015129Y070373D01*
X015129Y070073D01*
X018789Y070073D01*
X018789Y069773D01*
X014529Y069773D01*
X014529Y069473D01*
X018789Y069473D01*
X018789Y069173D01*
X013689Y069173D01*
X013689Y068873D01*
X018789Y068873D01*
X018789Y068573D01*
X013689Y068573D01*
X013689Y068273D01*
X018789Y068273D01*
X018789Y067973D01*
X013689Y067973D01*
X013689Y067673D01*
X018789Y067673D01*
X018789Y067373D01*
X013689Y067373D01*
X013689Y067073D01*
X018789Y067073D01*
X018789Y066773D01*
X013689Y066773D01*
X013689Y066473D01*
X018789Y066473D01*
X018789Y066173D01*
X013689Y066173D01*
X013689Y065873D01*
X018789Y065873D01*
X018789Y065573D01*
X013689Y065573D01*
X013689Y065273D01*
X018789Y065273D01*
X018789Y064973D01*
X013689Y064973D01*
X013689Y064673D01*
X018789Y064673D01*
X018789Y064373D01*
X013765Y064373D01*
X013765Y064073D01*
X018789Y064073D01*
X018789Y063773D01*
X013679Y063773D01*
X013679Y063473D01*
X018789Y063473D01*
X018789Y063173D01*
X013696Y063173D01*
X013696Y062873D01*
X018789Y062873D01*
X018789Y062573D01*
X012676Y062573D01*
X012676Y062273D01*
X018789Y062273D01*
X018789Y061973D01*
X012136Y061973D01*
X012136Y061673D01*
X018789Y061673D01*
X018789Y061373D01*
X011596Y061373D01*
X011596Y061073D01*
X018789Y061073D01*
X018789Y060773D01*
X011596Y060773D01*
X019389Y049253D02*
X019389Y042293D01*
X068889Y045421D02*
X068889Y045413D01*
X069556Y045438D02*
X070344Y045438D01*
X070344Y046226D02*
X069556Y046226D01*
D15*
X070344Y046226D03*
X070344Y045438D03*
D16*
X070310Y077969D02*
X064532Y077969D01*
X064532Y081265D01*
X023100Y081265D01*
X016647Y073451D02*
X015859Y073451D01*
X015749Y073413D02*
X015509Y072320D01*
X012470Y069675D01*
X012470Y063942D01*
X011289Y062761D01*
X007352Y062761D01*
X005383Y060793D01*
X004746Y060793D01*
X004717Y055832D02*
X005619Y055832D01*
X007352Y054100D01*
X011289Y054100D01*
X012415Y052974D01*
X012415Y046073D01*
X015655Y046073D01*
X015655Y040913D01*
X012475Y040913D01*
X012475Y016599D01*
X012863Y016211D01*
X012969Y016071D02*
X013086Y015953D01*
X015055Y015953D01*
X022989Y005660D02*
X043029Y005660D01*
X043043Y005674D01*
X064746Y005674D01*
X064746Y008850D01*
X070096Y008850D01*
X070096Y005674D01*
X093759Y005674D01*
X096309Y005693D01*
X070310Y077969D02*
X070310Y081265D01*
X118803Y081265D01*
D17*
X024489Y081233D03*
X024489Y080693D03*
X023949Y080693D03*
X023949Y081233D03*
X023949Y081773D03*
X024489Y081773D03*
X023409Y081773D03*
X023409Y081233D03*
X023409Y080693D03*
X022869Y080693D03*
X022869Y081233D03*
X022869Y081773D03*
X016689Y073793D03*
X016689Y073373D03*
X016689Y072953D03*
X016209Y072953D03*
X016209Y073373D03*
X016209Y073793D03*
X015729Y073793D03*
X015729Y073373D03*
X015729Y072953D03*
X015249Y072953D03*
X015249Y073373D03*
X015249Y073793D03*
X015309Y016433D03*
X015309Y015953D03*
X014829Y015953D03*
X014829Y016433D03*
X014349Y016433D03*
X014349Y015953D03*
X013869Y015953D03*
X013869Y016433D03*
X013869Y015413D03*
X014349Y015413D03*
X014829Y015413D03*
X015309Y015413D03*
X022929Y006233D03*
X023469Y006233D03*
X024009Y006233D03*
X024549Y006233D03*
X024549Y005693D03*
X024549Y005153D03*
X024009Y005153D03*
X024009Y005693D03*
X023469Y005693D03*
X023469Y005153D03*
X022929Y005153D03*
X022929Y005693D03*
D18*
X012969Y016071D02*
X012970Y016090D01*
X012968Y016109D01*
X012963Y016128D01*
X012956Y016146D01*
X012945Y016163D01*
X012932Y016177D01*
X012917Y016190D01*
X012900Y016199D01*
X012882Y016207D01*
X012863Y016211D01*
D19*
X004765Y053693D02*
X004565Y053693D01*
X003615Y054643D01*
X003615Y061943D01*
X004665Y062993D01*
X004765Y062143D02*
X004765Y061443D01*
X004765Y055593D02*
X004765Y054493D01*
M02*
