G75*
%MOIN*%
%OFA0B0*%
%FSLAX24Y24*%
%IPPOS*%
%LPD*%
%AMOC8*
5,1,8,0,0,1.08239X$1,22.5*
%
%ADD10C,0.0000*%
%ADD11R,0.0034X2.9528*%
%ADD12R,0.0034X2.9528*%
%ADD13R,0.0034X0.0068*%
%ADD14R,0.0034X0.0068*%
%ADD15R,0.0034X0.0068*%
%ADD16R,0.0034X2.8713*%
%ADD17R,0.0034X2.8713*%
%ADD18R,0.0034X2.8713*%
%ADD19R,0.0034X0.0170*%
%ADD20R,0.0034X0.0204*%
%ADD21R,0.0034X0.0034*%
%ADD22R,0.0034X0.9266*%
%ADD23R,0.0034X0.0136*%
%ADD24R,0.0034X0.0136*%
%ADD25R,0.0034X0.0136*%
%ADD26R,0.0034X0.0136*%
%ADD27R,0.0034X0.0136*%
%ADD28R,0.0034X0.0136*%
%ADD29R,0.0034X0.0238*%
%ADD30R,0.0034X0.0339*%
%ADD31R,0.0034X0.0407*%
%ADD32R,0.0034X0.0102*%
%ADD33R,0.0034X0.0102*%
%ADD34R,0.0034X0.0204*%
%ADD35R,0.0034X0.0102*%
%ADD36R,0.0034X0.0102*%
%ADD37R,0.0034X0.0339*%
%ADD38R,0.0034X0.0305*%
%ADD39R,0.0034X0.0170*%
%ADD40R,0.0034X0.0102*%
%ADD41R,0.0034X0.0272*%
%ADD42R,0.0034X0.0373*%
%ADD43R,0.0034X0.0373*%
%ADD44R,0.0034X0.0339*%
%ADD45R,0.0034X0.0407*%
%ADD46R,0.0034X0.0713*%
%ADD47R,0.0034X0.0170*%
%ADD48R,0.0034X0.0305*%
%ADD49R,0.0034X0.0441*%
%ADD50R,0.0034X0.0102*%
%ADD51R,0.0034X0.0441*%
%ADD52R,0.0034X0.0645*%
%ADD53R,0.0034X0.1154*%
%ADD54R,0.0034X0.0373*%
%ADD55R,0.0034X0.0238*%
%ADD56R,0.0034X0.0339*%
%ADD57R,0.0034X0.0407*%
%ADD58R,0.0034X0.0407*%
%ADD59R,0.0034X0.1459*%
%ADD60R,0.0034X0.0068*%
%ADD61R,0.0034X0.0305*%
%ADD62R,0.0034X0.0305*%
%ADD63R,0.0034X0.0373*%
%ADD64R,0.0034X0.1731*%
%ADD65R,0.0034X0.0204*%
%ADD66R,0.0034X0.0170*%
%ADD67R,0.0034X0.0068*%
%ADD68R,0.0034X0.1969*%
%ADD69R,0.0034X0.2172*%
%ADD70R,0.0034X0.0034*%
%ADD71R,0.0034X0.6482*%
%ADD72R,0.0034X0.2342*%
%ADD73R,0.0034X0.6652*%
%ADD74R,0.0034X0.2545*%
%ADD75R,0.0034X0.6754*%
%ADD76R,0.0034X0.2681*%
%ADD77R,0.0034X0.6822*%
%ADD78R,0.0034X0.2851*%
%ADD79R,0.0034X0.6890*%
%ADD80R,0.0034X0.2987*%
%ADD81R,0.0034X0.0068*%
%ADD82R,0.0034X0.6924*%
%ADD83R,0.0034X0.3089*%
%ADD84R,0.0034X0.6958*%
%ADD85R,0.0034X0.0034*%
%ADD86R,0.0034X0.3224*%
%ADD87R,0.0034X0.6992*%
%ADD88R,0.0034X0.3360*%
%ADD89R,0.0034X0.7026*%
%ADD90R,0.0034X0.1358*%
%ADD91R,0.0034X0.7026*%
%ADD92R,0.0034X0.1222*%
%ADD93R,0.0034X0.1188*%
%ADD94R,0.0034X0.1120*%
%ADD95R,0.0034X0.1052*%
%ADD96R,0.0034X0.0984*%
%ADD97R,0.0034X0.1018*%
%ADD98R,0.0034X0.0475*%
%ADD99R,0.0034X0.0950*%
%ADD100R,0.0034X0.0441*%
%ADD101R,0.0034X0.0916*%
%ADD102R,0.0034X0.0916*%
%ADD103R,0.0034X0.0475*%
%ADD104R,0.0034X0.0882*%
%ADD105R,0.0034X0.0849*%
%ADD106R,0.0034X0.0034*%
%ADD107R,0.0034X0.0475*%
%ADD108R,0.0034X0.0849*%
%ADD109R,0.0034X0.0815*%
%ADD110R,0.0034X0.3055*%
%ADD111R,0.0034X0.0815*%
%ADD112R,0.0034X0.3055*%
%ADD113R,0.0034X0.0781*%
%ADD114R,0.0034X0.0781*%
%ADD115R,0.0034X0.3055*%
%ADD116R,0.0034X0.0034*%
%ADD117R,0.0034X0.0781*%
%ADD118R,0.0034X0.0747*%
%ADD119R,0.0034X0.0747*%
%ADD120R,0.0034X0.0747*%
%ADD121R,0.0034X0.0679*%
%ADD122R,0.0034X0.0679*%
%ADD123R,0.0034X0.0679*%
%ADD124R,0.0034X0.4921*%
%ADD125R,0.0034X0.0204*%
%ADD126R,0.0034X0.0170*%
%ADD127R,0.0034X0.4955*%
%ADD128R,0.0034X0.0170*%
%ADD129R,0.0034X0.0271*%
%ADD130R,0.0034X0.0305*%
%ADD131R,0.0034X0.5023*%
%ADD132R,0.0034X0.4378*%
%ADD133R,0.0034X0.0645*%
%ADD134R,0.0034X0.4412*%
%ADD135R,0.0034X0.0204*%
%ADD136R,0.0034X0.0645*%
%ADD137R,0.0034X0.4446*%
%ADD138R,0.0034X0.0238*%
%ADD139R,0.0034X0.0611*%
%ADD140R,0.0034X0.4480*%
%ADD141R,0.0034X0.0034*%
%ADD142R,0.0034X0.0441*%
%ADD143R,0.0034X0.0441*%
%ADD144R,0.0034X0.0611*%
%ADD145R,0.0034X0.4514*%
%ADD146R,0.0034X0.0611*%
%ADD147R,0.0034X0.4548*%
%ADD148R,0.0034X0.0577*%
%ADD149R,0.0034X0.4582*%
%ADD150R,0.0034X0.0577*%
%ADD151R,0.0034X0.1324*%
%ADD152R,0.0034X0.0713*%
%ADD153R,0.0034X0.0543*%
%ADD154R,0.0034X0.0543*%
%ADD155R,0.0034X0.0713*%
%ADD156R,0.0034X0.0339*%
%ADD157R,0.0034X0.0373*%
%ADD158R,0.0034X0.0543*%
%ADD159R,0.0034X0.0713*%
%ADD160R,0.0034X0.0679*%
%ADD161R,0.0034X0.0543*%
%ADD162R,0.0034X0.0509*%
%ADD163R,0.0034X0.0713*%
%ADD164R,0.0034X0.0339*%
%ADD165R,0.0034X0.0305*%
%ADD166R,0.0034X0.0713*%
%ADD167R,0.0034X0.0509*%
%ADD168R,0.0034X0.0475*%
%ADD169R,0.0034X0.0509*%
%ADD170R,0.0034X0.0916*%
%ADD171R,0.0034X0.0509*%
%ADD172R,0.0034X0.0882*%
%ADD173R,0.0034X0.0882*%
%ADD174R,0.0034X0.0509*%
%ADD175R,0.0034X0.0204*%
%ADD176R,0.0034X0.0238*%
%ADD177R,0.0034X0.0373*%
%ADD178R,0.0034X0.0407*%
%ADD179R,0.0034X0.1018*%
%ADD180R,0.0034X0.1052*%
%ADD181R,0.0034X0.0475*%
%ADD182R,0.0034X0.0441*%
%ADD183R,0.0034X0.0475*%
%ADD184R,0.0034X0.0577*%
%ADD185R,0.0034X0.2206*%
%ADD186R,0.0034X0.2206*%
%ADD187R,0.0034X0.2138*%
%ADD188R,0.0034X0.2138*%
%ADD189R,0.0034X0.2104*%
%ADD190R,0.0034X0.2036*%
%ADD191R,0.0034X0.2036*%
%ADD192R,0.0034X0.2070*%
%ADD193R,0.0034X0.3122*%
%ADD194R,0.0034X0.3190*%
%ADD195R,0.0034X0.3224*%
%ADD196R,0.0034X0.3258*%
%ADD197R,0.0034X0.3326*%
%ADD198R,0.0034X0.3360*%
%ADD199R,0.0034X0.3224*%
%ADD200R,0.0034X0.3021*%
%ADD201R,0.0034X0.2817*%
%ADD202R,0.0034X0.2681*%
%ADD203R,0.0034X0.2715*%
%ADD204R,0.0034X0.2783*%
%ADD205R,0.0034X0.2070*%
%ADD206R,0.0034X0.1867*%
%ADD207R,0.0034X0.1697*%
%ADD208R,0.0034X0.1493*%
%ADD209R,0.0034X0.1324*%
%ADD210R,0.0034X0.1188*%
%ADD211R,0.0034X0.1120*%
%ADD212R,0.0034X0.0611*%
%ADD213R,0.0034X0.1086*%
%ADD214R,0.0034X0.0238*%
%ADD215R,0.0034X0.0271*%
%ADD216R,0.0034X0.0272*%
%ADD217R,0.0034X0.0238*%
%ADD218R,0.0034X0.1086*%
%ADD219R,0.0034X0.1086*%
%ADD220R,0.0034X0.0679*%
%ADD221R,0.0034X0.0747*%
%ADD222R,0.0034X0.0272*%
%ADD223R,0.0034X0.0747*%
%ADD224R,0.0034X0.0577*%
%ADD225R,0.0034X0.0645*%
%ADD226R,0.0034X0.0543*%
%ADD227R,0.0034X0.1290*%
%ADD228R,0.0034X0.0577*%
%ADD229R,0.0034X0.1188*%
%ADD230R,0.0034X0.1120*%
%ADD231R,0.0034X0.0984*%
%ADD232R,0.0034X0.0815*%
%ADD233R,0.0034X0.0645*%
%ADD234R,0.0034X0.0781*%
%ADD235R,0.0034X0.0645*%
%ADD236R,0.0034X1.0521*%
%ADD237R,0.0034X1.0521*%
%ADD238R,0.0034X1.0521*%
%ADD239R,0.0034X0.0882*%
%ADD240R,0.0034X0.0916*%
%ADD241R,0.0034X0.0916*%
%ADD242R,0.0034X0.0950*%
%ADD243R,0.0034X0.1018*%
%ADD244R,0.0034X0.1188*%
%ADD245R,0.0034X0.1154*%
%ADD246R,0.0034X0.1493*%
%ADD247R,0.0034X0.1290*%
%ADD248R,0.0034X0.1256*%
%ADD249R,0.0034X0.1629*%
%ADD250R,0.0034X0.1493*%
%ADD251R,0.0034X0.1527*%
%ADD252R,0.0034X0.0781*%
%ADD253R,0.0034X0.1697*%
%ADD254R,0.0034X0.3292*%
%ADD255R,0.0034X0.1731*%
%ADD256R,0.0034X0.0271*%
%ADD257R,0.0034X0.3156*%
%ADD258R,0.0034X0.3021*%
%ADD259R,0.0034X0.0781*%
%ADD260R,0.0034X0.2885*%
%ADD261R,0.0034X0.2749*%
%ADD262R,0.0034X0.2613*%
%ADD263R,0.0034X0.2444*%
%ADD264R,0.0034X0.2274*%
%ADD265R,0.0034X0.1867*%
%ADD266R,0.0034X0.1595*%
%ADD267R,0.0034X0.0815*%
%ADD268R,0.0034X0.1018*%
%ADD269R,0.0034X1.0589*%
%ADD270R,0.0034X2.9528*%
D10*
X012470Y011579D02*
X017193Y011579D01*
X017193Y011578D02*
X017259Y011576D01*
X017325Y011571D01*
X017391Y011561D01*
X017456Y011548D01*
X017520Y011532D01*
X017583Y011512D01*
X017645Y011488D01*
X017705Y011461D01*
X017764Y011431D01*
X017821Y011397D01*
X017876Y011360D01*
X017929Y011320D01*
X017980Y011278D01*
X018028Y011232D01*
X018074Y011184D01*
X018116Y011133D01*
X018156Y011080D01*
X018193Y011025D01*
X018227Y010968D01*
X018257Y010909D01*
X018284Y010849D01*
X018308Y010787D01*
X018328Y010724D01*
X018344Y010660D01*
X018357Y010595D01*
X018367Y010529D01*
X018372Y010463D01*
X018374Y010397D01*
X018374Y005674D01*
X018375Y005674D02*
X018377Y005608D01*
X018382Y005542D01*
X018392Y005476D01*
X018405Y005411D01*
X018421Y005347D01*
X018441Y005284D01*
X018465Y005222D01*
X018492Y005162D01*
X018522Y005103D01*
X018556Y005046D01*
X018593Y004991D01*
X018633Y004938D01*
X018675Y004887D01*
X018721Y004839D01*
X018769Y004793D01*
X018820Y004751D01*
X018873Y004711D01*
X018928Y004674D01*
X018985Y004640D01*
X019044Y004610D01*
X019104Y004583D01*
X019166Y004559D01*
X019229Y004539D01*
X019293Y004523D01*
X019358Y004510D01*
X019424Y004500D01*
X019490Y004495D01*
X019556Y004493D01*
X122312Y004493D01*
X122378Y004495D01*
X122444Y004500D01*
X122510Y004510D01*
X122575Y004523D01*
X122639Y004539D01*
X122702Y004559D01*
X122764Y004583D01*
X122824Y004610D01*
X122883Y004640D01*
X122940Y004674D01*
X122995Y004711D01*
X123048Y004751D01*
X123099Y004793D01*
X123147Y004839D01*
X123193Y004887D01*
X123235Y004938D01*
X123275Y004991D01*
X123312Y005046D01*
X123346Y005103D01*
X123376Y005162D01*
X123403Y005222D01*
X123427Y005284D01*
X123447Y005347D01*
X123463Y005411D01*
X123476Y005476D01*
X123486Y005542D01*
X123491Y005608D01*
X123493Y005674D01*
X123493Y038745D01*
X123491Y038811D01*
X123486Y038877D01*
X123476Y038943D01*
X123463Y039008D01*
X123447Y039072D01*
X123427Y039135D01*
X123403Y039197D01*
X123376Y039257D01*
X123346Y039316D01*
X123312Y039373D01*
X123275Y039428D01*
X123235Y039481D01*
X123193Y039532D01*
X123147Y039580D01*
X123099Y039626D01*
X123048Y039668D01*
X122995Y039708D01*
X122940Y039745D01*
X122883Y039779D01*
X122824Y039809D01*
X122764Y039836D01*
X122702Y039860D01*
X122639Y039880D01*
X122575Y039896D01*
X122510Y039909D01*
X122444Y039919D01*
X122378Y039924D01*
X122312Y039926D01*
X117588Y039926D01*
X117523Y039931D01*
X117458Y039940D01*
X117394Y039953D01*
X117331Y039970D01*
X117269Y039990D01*
X117208Y040014D01*
X117149Y040041D01*
X117091Y040072D01*
X117035Y040106D01*
X116982Y040143D01*
X116930Y040183D01*
X116881Y040227D01*
X116835Y040273D01*
X116791Y040321D01*
X116750Y040372D01*
X116713Y040425D01*
X116678Y040481D01*
X116647Y040538D01*
X116619Y040597D01*
X116595Y040658D01*
X116574Y040720D01*
X116557Y040783D01*
X116543Y040847D01*
X116533Y040911D01*
X116527Y040976D01*
X116525Y041042D01*
X116527Y041107D01*
X116527Y045832D01*
X116525Y045897D01*
X116527Y045963D01*
X116533Y046028D01*
X116543Y046092D01*
X116557Y046156D01*
X116574Y046219D01*
X116595Y046281D01*
X116619Y046342D01*
X116647Y046401D01*
X116678Y046458D01*
X116713Y046514D01*
X116750Y046567D01*
X116791Y046618D01*
X116835Y046666D01*
X116881Y046712D01*
X116930Y046756D01*
X116982Y046796D01*
X117035Y046833D01*
X117091Y046867D01*
X117149Y046898D01*
X117208Y046925D01*
X117269Y046949D01*
X117331Y046969D01*
X117394Y046986D01*
X117458Y046999D01*
X117523Y047008D01*
X117588Y047013D01*
X122509Y047013D01*
X122571Y047015D01*
X122632Y047021D01*
X122693Y047030D01*
X122754Y047044D01*
X122813Y047061D01*
X122871Y047082D01*
X122928Y047107D01*
X122983Y047135D01*
X123036Y047166D01*
X123087Y047201D01*
X123136Y047239D01*
X123183Y047280D01*
X123226Y047323D01*
X123267Y047370D01*
X123305Y047419D01*
X123340Y047470D01*
X123371Y047523D01*
X123399Y047578D01*
X123424Y047635D01*
X123445Y047693D01*
X123462Y047752D01*
X123476Y047813D01*
X123485Y047874D01*
X123491Y047935D01*
X123493Y047997D01*
X123490Y047879D02*
X123490Y081263D01*
X123493Y081265D02*
X123491Y081331D01*
X123486Y081397D01*
X123476Y081463D01*
X123463Y081528D01*
X123447Y081592D01*
X123427Y081655D01*
X123403Y081717D01*
X123376Y081777D01*
X123346Y081836D01*
X123312Y081893D01*
X123275Y081948D01*
X123235Y082001D01*
X123193Y082052D01*
X123147Y082100D01*
X123099Y082146D01*
X123048Y082188D01*
X122995Y082228D01*
X122940Y082265D01*
X122883Y082299D01*
X122824Y082329D01*
X122764Y082356D01*
X122702Y082380D01*
X122639Y082400D01*
X122575Y082416D01*
X122510Y082429D01*
X122444Y082439D01*
X122378Y082444D01*
X122312Y082446D01*
X019556Y082446D01*
X019555Y082444D02*
X019489Y082442D01*
X019423Y082437D01*
X019357Y082427D01*
X019292Y082414D01*
X019228Y082398D01*
X019165Y082378D01*
X019103Y082354D01*
X019043Y082327D01*
X018984Y082297D01*
X018927Y082263D01*
X018872Y082226D01*
X018819Y082186D01*
X018768Y082144D01*
X018720Y082098D01*
X018674Y082050D01*
X018632Y081999D01*
X018592Y081946D01*
X018555Y081891D01*
X018521Y081834D01*
X018491Y081775D01*
X018464Y081715D01*
X018440Y081653D01*
X018420Y081590D01*
X018404Y081526D01*
X018391Y081461D01*
X018381Y081395D01*
X018376Y081329D01*
X018374Y081263D01*
X018374Y076579D01*
X018375Y076737D02*
X018375Y076147D01*
X018373Y076093D01*
X018368Y076040D01*
X018359Y075987D01*
X018346Y075935D01*
X018330Y075883D01*
X018310Y075833D01*
X018287Y075785D01*
X018260Y075738D01*
X018231Y075693D01*
X018198Y075650D01*
X018163Y075610D01*
X018125Y075572D01*
X018085Y075537D01*
X018042Y075504D01*
X017997Y075475D01*
X017950Y075448D01*
X017902Y075425D01*
X017852Y075405D01*
X017800Y075389D01*
X017748Y075376D01*
X017695Y075367D01*
X017642Y075362D01*
X017588Y075360D01*
X017588Y075359D02*
X012470Y075359D01*
X012404Y075357D01*
X012338Y075352D01*
X012272Y075342D01*
X012207Y075329D01*
X012143Y075313D01*
X012080Y075293D01*
X012018Y075269D01*
X011958Y075242D01*
X011899Y075212D01*
X011842Y075178D01*
X011787Y075141D01*
X011734Y075101D01*
X011683Y075059D01*
X011635Y075013D01*
X011589Y074965D01*
X011547Y074914D01*
X011507Y074861D01*
X011470Y074806D01*
X011436Y074749D01*
X011406Y074690D01*
X011379Y074630D01*
X011355Y074568D01*
X011335Y074505D01*
X011319Y074441D01*
X011306Y074376D01*
X011296Y074310D01*
X011291Y074244D01*
X011289Y074178D01*
X011289Y065123D01*
X011288Y065123D02*
X011286Y065057D01*
X011281Y064991D01*
X011271Y064925D01*
X011258Y064860D01*
X011242Y064796D01*
X011222Y064733D01*
X011198Y064671D01*
X011171Y064611D01*
X011141Y064552D01*
X011107Y064495D01*
X011070Y064440D01*
X011030Y064387D01*
X010988Y064336D01*
X010942Y064288D01*
X010894Y064242D01*
X010843Y064200D01*
X010790Y064160D01*
X010735Y064123D01*
X010678Y064089D01*
X010619Y064059D01*
X010559Y064032D01*
X010497Y064008D01*
X010434Y063988D01*
X010370Y063972D01*
X010305Y063959D01*
X010239Y063949D01*
X010173Y063944D01*
X010107Y063942D01*
X004596Y063942D01*
X004530Y063940D01*
X004464Y063935D01*
X004398Y063925D01*
X004333Y063912D01*
X004269Y063896D01*
X004206Y063876D01*
X004144Y063852D01*
X004084Y063825D01*
X004025Y063795D01*
X003968Y063761D01*
X003913Y063724D01*
X003860Y063684D01*
X003809Y063642D01*
X003761Y063596D01*
X003715Y063548D01*
X003673Y063497D01*
X003633Y063444D01*
X003596Y063389D01*
X003562Y063332D01*
X003532Y063273D01*
X003505Y063213D01*
X003481Y063151D01*
X003461Y063088D01*
X003445Y063024D01*
X003432Y062959D01*
X003422Y062893D01*
X003417Y062827D01*
X003415Y062761D01*
X003415Y054100D01*
X003417Y054034D01*
X003422Y053968D01*
X003432Y053902D01*
X003445Y053837D01*
X003461Y053773D01*
X003481Y053710D01*
X003505Y053648D01*
X003532Y053588D01*
X003562Y053529D01*
X003596Y053472D01*
X003633Y053417D01*
X003673Y053364D01*
X003715Y053313D01*
X003761Y053265D01*
X003809Y053219D01*
X003860Y053177D01*
X003913Y053137D01*
X003968Y053100D01*
X004025Y053066D01*
X004084Y053036D01*
X004144Y053009D01*
X004206Y052985D01*
X004269Y052965D01*
X004333Y052949D01*
X004398Y052936D01*
X004464Y052926D01*
X004530Y052921D01*
X004596Y052919D01*
X010107Y052919D01*
X010107Y052918D02*
X010173Y052916D01*
X010239Y052911D01*
X010305Y052901D01*
X010370Y052888D01*
X010434Y052872D01*
X010497Y052852D01*
X010559Y052828D01*
X010619Y052801D01*
X010678Y052771D01*
X010735Y052737D01*
X010790Y052700D01*
X010843Y052660D01*
X010894Y052618D01*
X010942Y052572D01*
X010988Y052524D01*
X011030Y052473D01*
X011070Y052420D01*
X011107Y052365D01*
X011141Y052308D01*
X011171Y052249D01*
X011198Y052189D01*
X011222Y052127D01*
X011242Y052064D01*
X011258Y052000D01*
X011271Y051935D01*
X011281Y051869D01*
X011286Y051803D01*
X011288Y051737D01*
X011289Y051737D02*
X011289Y012760D01*
X011291Y012694D01*
X011296Y012628D01*
X011306Y012562D01*
X011319Y012497D01*
X011335Y012433D01*
X011355Y012370D01*
X011379Y012308D01*
X011406Y012248D01*
X011436Y012189D01*
X011470Y012132D01*
X011507Y012077D01*
X011547Y012024D01*
X011589Y011973D01*
X011635Y011925D01*
X011683Y011879D01*
X011734Y011837D01*
X011787Y011797D01*
X011842Y011760D01*
X011899Y011726D01*
X011958Y011696D01*
X012018Y011669D01*
X012080Y011645D01*
X012143Y011625D01*
X012207Y011609D01*
X012272Y011596D01*
X012338Y011586D01*
X012404Y011581D01*
X012470Y011579D01*
X012430Y013352D02*
X012432Y013402D01*
X012438Y013452D01*
X012448Y013501D01*
X012462Y013549D01*
X012479Y013596D01*
X012500Y013641D01*
X012525Y013685D01*
X012553Y013726D01*
X012585Y013765D01*
X012619Y013802D01*
X012656Y013836D01*
X012696Y013866D01*
X012738Y013893D01*
X012782Y013917D01*
X012828Y013938D01*
X012875Y013954D01*
X012923Y013967D01*
X012973Y013976D01*
X013022Y013981D01*
X013073Y013982D01*
X013123Y013979D01*
X013172Y013972D01*
X013221Y013961D01*
X013269Y013946D01*
X013315Y013928D01*
X013360Y013906D01*
X013403Y013880D01*
X013444Y013851D01*
X013483Y013819D01*
X013519Y013784D01*
X013551Y013746D01*
X013581Y013706D01*
X013608Y013663D01*
X013631Y013619D01*
X013650Y013573D01*
X013666Y013525D01*
X013678Y013476D01*
X013686Y013427D01*
X013690Y013377D01*
X013690Y013327D01*
X013686Y013277D01*
X013678Y013228D01*
X013666Y013179D01*
X013650Y013131D01*
X013631Y013085D01*
X013608Y013041D01*
X013581Y012998D01*
X013551Y012958D01*
X013519Y012920D01*
X013483Y012885D01*
X013444Y012853D01*
X013403Y012824D01*
X013360Y012798D01*
X013315Y012776D01*
X013269Y012758D01*
X013221Y012743D01*
X013172Y012732D01*
X013123Y012725D01*
X013073Y012722D01*
X013022Y012723D01*
X012973Y012728D01*
X012923Y012737D01*
X012875Y012750D01*
X012828Y012766D01*
X012782Y012787D01*
X012738Y012811D01*
X012696Y012838D01*
X012656Y012868D01*
X012619Y012902D01*
X012585Y012939D01*
X012553Y012978D01*
X012525Y013019D01*
X012500Y013063D01*
X012479Y013108D01*
X012462Y013155D01*
X012448Y013203D01*
X012438Y013252D01*
X012432Y013302D01*
X012430Y013352D01*
X012430Y043470D02*
X012432Y043520D01*
X012438Y043570D01*
X012448Y043619D01*
X012462Y043667D01*
X012479Y043714D01*
X012500Y043759D01*
X012525Y043803D01*
X012553Y043844D01*
X012585Y043883D01*
X012619Y043920D01*
X012656Y043954D01*
X012696Y043984D01*
X012738Y044011D01*
X012782Y044035D01*
X012828Y044056D01*
X012875Y044072D01*
X012923Y044085D01*
X012973Y044094D01*
X013022Y044099D01*
X013073Y044100D01*
X013123Y044097D01*
X013172Y044090D01*
X013221Y044079D01*
X013269Y044064D01*
X013315Y044046D01*
X013360Y044024D01*
X013403Y043998D01*
X013444Y043969D01*
X013483Y043937D01*
X013519Y043902D01*
X013551Y043864D01*
X013581Y043824D01*
X013608Y043781D01*
X013631Y043737D01*
X013650Y043691D01*
X013666Y043643D01*
X013678Y043594D01*
X013686Y043545D01*
X013690Y043495D01*
X013690Y043445D01*
X013686Y043395D01*
X013678Y043346D01*
X013666Y043297D01*
X013650Y043249D01*
X013631Y043203D01*
X013608Y043159D01*
X013581Y043116D01*
X013551Y043076D01*
X013519Y043038D01*
X013483Y043003D01*
X013444Y042971D01*
X013403Y042942D01*
X013360Y042916D01*
X013315Y042894D01*
X013269Y042876D01*
X013221Y042861D01*
X013172Y042850D01*
X013123Y042843D01*
X013073Y042840D01*
X013022Y042841D01*
X012973Y042846D01*
X012923Y042855D01*
X012875Y042868D01*
X012828Y042884D01*
X012782Y042905D01*
X012738Y042929D01*
X012696Y042956D01*
X012656Y042986D01*
X012619Y043020D01*
X012585Y043057D01*
X012553Y043096D01*
X012525Y043137D01*
X012500Y043181D01*
X012479Y043226D01*
X012462Y043273D01*
X012448Y043321D01*
X012438Y043370D01*
X012432Y043420D01*
X012430Y043470D01*
X007784Y055820D02*
X007786Y055868D01*
X007792Y055916D01*
X007802Y055963D01*
X007815Y056009D01*
X007833Y056054D01*
X007853Y056098D01*
X007878Y056140D01*
X007906Y056179D01*
X007936Y056216D01*
X007970Y056250D01*
X008007Y056282D01*
X008045Y056311D01*
X008086Y056336D01*
X008129Y056358D01*
X008174Y056376D01*
X008220Y056390D01*
X008267Y056401D01*
X008315Y056408D01*
X008363Y056411D01*
X008411Y056410D01*
X008459Y056405D01*
X008507Y056396D01*
X008553Y056384D01*
X008598Y056367D01*
X008642Y056347D01*
X008684Y056324D01*
X008724Y056297D01*
X008762Y056267D01*
X008797Y056234D01*
X008829Y056198D01*
X008859Y056160D01*
X008885Y056119D01*
X008907Y056076D01*
X008927Y056032D01*
X008942Y055987D01*
X008954Y055940D01*
X008962Y055892D01*
X008966Y055844D01*
X008966Y055796D01*
X008962Y055748D01*
X008954Y055700D01*
X008942Y055653D01*
X008927Y055608D01*
X008907Y055564D01*
X008885Y055521D01*
X008859Y055480D01*
X008829Y055442D01*
X008797Y055406D01*
X008762Y055373D01*
X008724Y055343D01*
X008684Y055316D01*
X008642Y055293D01*
X008598Y055273D01*
X008553Y055256D01*
X008507Y055244D01*
X008459Y055235D01*
X008411Y055230D01*
X008363Y055229D01*
X008315Y055232D01*
X008267Y055239D01*
X008220Y055250D01*
X008174Y055264D01*
X008129Y055282D01*
X008086Y055304D01*
X008045Y055329D01*
X008007Y055358D01*
X007970Y055390D01*
X007936Y055424D01*
X007906Y055461D01*
X007878Y055500D01*
X007853Y055542D01*
X007833Y055586D01*
X007815Y055631D01*
X007802Y055677D01*
X007792Y055724D01*
X007786Y055772D01*
X007784Y055820D01*
X007784Y060781D02*
X007786Y060829D01*
X007792Y060877D01*
X007802Y060924D01*
X007815Y060970D01*
X007833Y061015D01*
X007853Y061059D01*
X007878Y061101D01*
X007906Y061140D01*
X007936Y061177D01*
X007970Y061211D01*
X008007Y061243D01*
X008045Y061272D01*
X008086Y061297D01*
X008129Y061319D01*
X008174Y061337D01*
X008220Y061351D01*
X008267Y061362D01*
X008315Y061369D01*
X008363Y061372D01*
X008411Y061371D01*
X008459Y061366D01*
X008507Y061357D01*
X008553Y061345D01*
X008598Y061328D01*
X008642Y061308D01*
X008684Y061285D01*
X008724Y061258D01*
X008762Y061228D01*
X008797Y061195D01*
X008829Y061159D01*
X008859Y061121D01*
X008885Y061080D01*
X008907Y061037D01*
X008927Y060993D01*
X008942Y060948D01*
X008954Y060901D01*
X008962Y060853D01*
X008966Y060805D01*
X008966Y060757D01*
X008962Y060709D01*
X008954Y060661D01*
X008942Y060614D01*
X008927Y060569D01*
X008907Y060525D01*
X008885Y060482D01*
X008859Y060441D01*
X008829Y060403D01*
X008797Y060367D01*
X008762Y060334D01*
X008724Y060304D01*
X008684Y060277D01*
X008642Y060254D01*
X008598Y060234D01*
X008553Y060217D01*
X008507Y060205D01*
X008459Y060196D01*
X008411Y060191D01*
X008363Y060190D01*
X008315Y060193D01*
X008267Y060200D01*
X008220Y060211D01*
X008174Y060225D01*
X008129Y060243D01*
X008086Y060265D01*
X008045Y060290D01*
X008007Y060319D01*
X007970Y060351D01*
X007936Y060385D01*
X007906Y060422D01*
X007878Y060461D01*
X007853Y060503D01*
X007833Y060547D01*
X007815Y060592D01*
X007802Y060638D01*
X007792Y060685D01*
X007786Y060733D01*
X007784Y060781D01*
X012458Y073593D02*
X012460Y073643D01*
X012466Y073693D01*
X012476Y073742D01*
X012490Y073790D01*
X012507Y073837D01*
X012528Y073882D01*
X012553Y073926D01*
X012581Y073967D01*
X012613Y074006D01*
X012647Y074043D01*
X012684Y074077D01*
X012724Y074107D01*
X012766Y074134D01*
X012810Y074158D01*
X012856Y074179D01*
X012903Y074195D01*
X012951Y074208D01*
X013001Y074217D01*
X013050Y074222D01*
X013101Y074223D01*
X013151Y074220D01*
X013200Y074213D01*
X013249Y074202D01*
X013297Y074187D01*
X013343Y074169D01*
X013388Y074147D01*
X013431Y074121D01*
X013472Y074092D01*
X013511Y074060D01*
X013547Y074025D01*
X013579Y073987D01*
X013609Y073947D01*
X013636Y073904D01*
X013659Y073860D01*
X013678Y073814D01*
X013694Y073766D01*
X013706Y073717D01*
X013714Y073668D01*
X013718Y073618D01*
X013718Y073568D01*
X013714Y073518D01*
X013706Y073469D01*
X013694Y073420D01*
X013678Y073372D01*
X013659Y073326D01*
X013636Y073282D01*
X013609Y073239D01*
X013579Y073199D01*
X013547Y073161D01*
X013511Y073126D01*
X013472Y073094D01*
X013431Y073065D01*
X013388Y073039D01*
X013343Y073017D01*
X013297Y072999D01*
X013249Y072984D01*
X013200Y072973D01*
X013151Y072966D01*
X013101Y072963D01*
X013050Y072964D01*
X013001Y072969D01*
X012951Y072978D01*
X012903Y072991D01*
X012856Y073007D01*
X012810Y073028D01*
X012766Y073052D01*
X012724Y073079D01*
X012684Y073109D01*
X012647Y073143D01*
X012613Y073180D01*
X012581Y073219D01*
X012553Y073260D01*
X012528Y073304D01*
X012507Y073349D01*
X012490Y073396D01*
X012476Y073444D01*
X012466Y073493D01*
X012460Y073543D01*
X012458Y073593D01*
X066761Y080674D02*
X066763Y080724D01*
X066769Y080774D01*
X066779Y080823D01*
X066793Y080871D01*
X066810Y080918D01*
X066831Y080963D01*
X066856Y081007D01*
X066884Y081048D01*
X066916Y081087D01*
X066950Y081124D01*
X066987Y081158D01*
X067027Y081188D01*
X067069Y081215D01*
X067113Y081239D01*
X067159Y081260D01*
X067206Y081276D01*
X067254Y081289D01*
X067304Y081298D01*
X067353Y081303D01*
X067404Y081304D01*
X067454Y081301D01*
X067503Y081294D01*
X067552Y081283D01*
X067600Y081268D01*
X067646Y081250D01*
X067691Y081228D01*
X067734Y081202D01*
X067775Y081173D01*
X067814Y081141D01*
X067850Y081106D01*
X067882Y081068D01*
X067912Y081028D01*
X067939Y080985D01*
X067962Y080941D01*
X067981Y080895D01*
X067997Y080847D01*
X068009Y080798D01*
X068017Y080749D01*
X068021Y080699D01*
X068021Y080649D01*
X068017Y080599D01*
X068009Y080550D01*
X067997Y080501D01*
X067981Y080453D01*
X067962Y080407D01*
X067939Y080363D01*
X067912Y080320D01*
X067882Y080280D01*
X067850Y080242D01*
X067814Y080207D01*
X067775Y080175D01*
X067734Y080146D01*
X067691Y080120D01*
X067646Y080098D01*
X067600Y080080D01*
X067552Y080065D01*
X067503Y080054D01*
X067454Y080047D01*
X067404Y080044D01*
X067353Y080045D01*
X067304Y080050D01*
X067254Y080059D01*
X067206Y080072D01*
X067159Y080088D01*
X067113Y080109D01*
X067069Y080133D01*
X067027Y080160D01*
X066987Y080190D01*
X066950Y080224D01*
X066916Y080261D01*
X066884Y080300D01*
X066856Y080341D01*
X066831Y080385D01*
X066810Y080430D01*
X066793Y080477D01*
X066779Y080525D01*
X066769Y080574D01*
X066763Y080624D01*
X066761Y080674D01*
X066761Y043470D02*
X066763Y043520D01*
X066769Y043570D01*
X066779Y043619D01*
X066793Y043667D01*
X066810Y043714D01*
X066831Y043759D01*
X066856Y043803D01*
X066884Y043844D01*
X066916Y043883D01*
X066950Y043920D01*
X066987Y043954D01*
X067027Y043984D01*
X067069Y044011D01*
X067113Y044035D01*
X067159Y044056D01*
X067206Y044072D01*
X067254Y044085D01*
X067304Y044094D01*
X067353Y044099D01*
X067404Y044100D01*
X067454Y044097D01*
X067503Y044090D01*
X067552Y044079D01*
X067600Y044064D01*
X067646Y044046D01*
X067691Y044024D01*
X067734Y043998D01*
X067775Y043969D01*
X067814Y043937D01*
X067850Y043902D01*
X067882Y043864D01*
X067912Y043824D01*
X067939Y043781D01*
X067962Y043737D01*
X067981Y043691D01*
X067997Y043643D01*
X068009Y043594D01*
X068017Y043545D01*
X068021Y043495D01*
X068021Y043445D01*
X068017Y043395D01*
X068009Y043346D01*
X067997Y043297D01*
X067981Y043249D01*
X067962Y043203D01*
X067939Y043159D01*
X067912Y043116D01*
X067882Y043076D01*
X067850Y043038D01*
X067814Y043003D01*
X067775Y042971D01*
X067734Y042942D01*
X067691Y042916D01*
X067646Y042894D01*
X067600Y042876D01*
X067552Y042861D01*
X067503Y042850D01*
X067454Y042843D01*
X067404Y042840D01*
X067353Y042841D01*
X067304Y042846D01*
X067254Y042855D01*
X067206Y042868D01*
X067159Y042884D01*
X067113Y042905D01*
X067069Y042929D01*
X067027Y042956D01*
X066987Y042986D01*
X066950Y043020D01*
X066916Y043057D01*
X066884Y043096D01*
X066856Y043137D01*
X066831Y043181D01*
X066810Y043226D01*
X066793Y043273D01*
X066779Y043321D01*
X066769Y043370D01*
X066763Y043420D01*
X066761Y043470D01*
X114005Y043470D02*
X114007Y043520D01*
X114013Y043570D01*
X114023Y043619D01*
X114037Y043667D01*
X114054Y043714D01*
X114075Y043759D01*
X114100Y043803D01*
X114128Y043844D01*
X114160Y043883D01*
X114194Y043920D01*
X114231Y043954D01*
X114271Y043984D01*
X114313Y044011D01*
X114357Y044035D01*
X114403Y044056D01*
X114450Y044072D01*
X114498Y044085D01*
X114548Y044094D01*
X114597Y044099D01*
X114648Y044100D01*
X114698Y044097D01*
X114747Y044090D01*
X114796Y044079D01*
X114844Y044064D01*
X114890Y044046D01*
X114935Y044024D01*
X114978Y043998D01*
X115019Y043969D01*
X115058Y043937D01*
X115094Y043902D01*
X115126Y043864D01*
X115156Y043824D01*
X115183Y043781D01*
X115206Y043737D01*
X115225Y043691D01*
X115241Y043643D01*
X115253Y043594D01*
X115261Y043545D01*
X115265Y043495D01*
X115265Y043445D01*
X115261Y043395D01*
X115253Y043346D01*
X115241Y043297D01*
X115225Y043249D01*
X115206Y043203D01*
X115183Y043159D01*
X115156Y043116D01*
X115126Y043076D01*
X115094Y043038D01*
X115058Y043003D01*
X115019Y042971D01*
X114978Y042942D01*
X114935Y042916D01*
X114890Y042894D01*
X114844Y042876D01*
X114796Y042861D01*
X114747Y042850D01*
X114698Y042843D01*
X114648Y042840D01*
X114597Y042841D01*
X114548Y042846D01*
X114498Y042855D01*
X114450Y042868D01*
X114403Y042884D01*
X114357Y042905D01*
X114313Y042929D01*
X114271Y042956D01*
X114231Y042986D01*
X114194Y043020D01*
X114160Y043057D01*
X114128Y043096D01*
X114100Y043137D01*
X114075Y043181D01*
X114054Y043226D01*
X114037Y043273D01*
X114023Y043321D01*
X114013Y043370D01*
X114007Y043420D01*
X114005Y043470D01*
X121092Y080674D02*
X121094Y080724D01*
X121100Y080774D01*
X121110Y080823D01*
X121124Y080871D01*
X121141Y080918D01*
X121162Y080963D01*
X121187Y081007D01*
X121215Y081048D01*
X121247Y081087D01*
X121281Y081124D01*
X121318Y081158D01*
X121358Y081188D01*
X121400Y081215D01*
X121444Y081239D01*
X121490Y081260D01*
X121537Y081276D01*
X121585Y081289D01*
X121635Y081298D01*
X121684Y081303D01*
X121735Y081304D01*
X121785Y081301D01*
X121834Y081294D01*
X121883Y081283D01*
X121931Y081268D01*
X121977Y081250D01*
X122022Y081228D01*
X122065Y081202D01*
X122106Y081173D01*
X122145Y081141D01*
X122181Y081106D01*
X122213Y081068D01*
X122243Y081028D01*
X122270Y080985D01*
X122293Y080941D01*
X122312Y080895D01*
X122328Y080847D01*
X122340Y080798D01*
X122348Y080749D01*
X122352Y080699D01*
X122352Y080649D01*
X122348Y080599D01*
X122340Y080550D01*
X122328Y080501D01*
X122312Y080453D01*
X122293Y080407D01*
X122270Y080363D01*
X122243Y080320D01*
X122213Y080280D01*
X122181Y080242D01*
X122145Y080207D01*
X122106Y080175D01*
X122065Y080146D01*
X122022Y080120D01*
X121977Y080098D01*
X121931Y080080D01*
X121883Y080065D01*
X121834Y080054D01*
X121785Y080047D01*
X121735Y080044D01*
X121684Y080045D01*
X121635Y080050D01*
X121585Y080059D01*
X121537Y080072D01*
X121490Y080088D01*
X121444Y080109D01*
X121400Y080133D01*
X121358Y080160D01*
X121318Y080190D01*
X121281Y080224D01*
X121247Y080261D01*
X121215Y080300D01*
X121187Y080341D01*
X121162Y080385D01*
X121141Y080430D01*
X121124Y080477D01*
X121110Y080525D01*
X121100Y080574D01*
X121094Y080624D01*
X121092Y080674D01*
X121092Y006265D02*
X121094Y006315D01*
X121100Y006365D01*
X121110Y006414D01*
X121124Y006462D01*
X121141Y006509D01*
X121162Y006554D01*
X121187Y006598D01*
X121215Y006639D01*
X121247Y006678D01*
X121281Y006715D01*
X121318Y006749D01*
X121358Y006779D01*
X121400Y006806D01*
X121444Y006830D01*
X121490Y006851D01*
X121537Y006867D01*
X121585Y006880D01*
X121635Y006889D01*
X121684Y006894D01*
X121735Y006895D01*
X121785Y006892D01*
X121834Y006885D01*
X121883Y006874D01*
X121931Y006859D01*
X121977Y006841D01*
X122022Y006819D01*
X122065Y006793D01*
X122106Y006764D01*
X122145Y006732D01*
X122181Y006697D01*
X122213Y006659D01*
X122243Y006619D01*
X122270Y006576D01*
X122293Y006532D01*
X122312Y006486D01*
X122328Y006438D01*
X122340Y006389D01*
X122348Y006340D01*
X122352Y006290D01*
X122352Y006240D01*
X122348Y006190D01*
X122340Y006141D01*
X122328Y006092D01*
X122312Y006044D01*
X122293Y005998D01*
X122270Y005954D01*
X122243Y005911D01*
X122213Y005871D01*
X122181Y005833D01*
X122145Y005798D01*
X122106Y005766D01*
X122065Y005737D01*
X122022Y005711D01*
X121977Y005689D01*
X121931Y005671D01*
X121883Y005656D01*
X121834Y005645D01*
X121785Y005638D01*
X121735Y005635D01*
X121684Y005636D01*
X121635Y005641D01*
X121585Y005650D01*
X121537Y005663D01*
X121490Y005679D01*
X121444Y005700D01*
X121400Y005724D01*
X121358Y005751D01*
X121318Y005781D01*
X121281Y005815D01*
X121247Y005852D01*
X121215Y005891D01*
X121187Y005932D01*
X121162Y005976D01*
X121141Y006021D01*
X121124Y006068D01*
X121110Y006116D01*
X121100Y006165D01*
X121094Y006215D01*
X121092Y006265D01*
X066761Y006265D02*
X066763Y006315D01*
X066769Y006365D01*
X066779Y006414D01*
X066793Y006462D01*
X066810Y006509D01*
X066831Y006554D01*
X066856Y006598D01*
X066884Y006639D01*
X066916Y006678D01*
X066950Y006715D01*
X066987Y006749D01*
X067027Y006779D01*
X067069Y006806D01*
X067113Y006830D01*
X067159Y006851D01*
X067206Y006867D01*
X067254Y006880D01*
X067304Y006889D01*
X067353Y006894D01*
X067404Y006895D01*
X067454Y006892D01*
X067503Y006885D01*
X067552Y006874D01*
X067600Y006859D01*
X067646Y006841D01*
X067691Y006819D01*
X067734Y006793D01*
X067775Y006764D01*
X067814Y006732D01*
X067850Y006697D01*
X067882Y006659D01*
X067912Y006619D01*
X067939Y006576D01*
X067962Y006532D01*
X067981Y006486D01*
X067997Y006438D01*
X068009Y006389D01*
X068017Y006340D01*
X068021Y006290D01*
X068021Y006240D01*
X068017Y006190D01*
X068009Y006141D01*
X067997Y006092D01*
X067981Y006044D01*
X067962Y005998D01*
X067939Y005954D01*
X067912Y005911D01*
X067882Y005871D01*
X067850Y005833D01*
X067814Y005798D01*
X067775Y005766D01*
X067734Y005737D01*
X067691Y005711D01*
X067646Y005689D01*
X067600Y005671D01*
X067552Y005656D01*
X067503Y005645D01*
X067454Y005638D01*
X067404Y005635D01*
X067353Y005636D01*
X067304Y005641D01*
X067254Y005650D01*
X067206Y005663D01*
X067159Y005679D01*
X067113Y005700D01*
X067069Y005724D01*
X067027Y005751D01*
X066987Y005781D01*
X066950Y005815D01*
X066916Y005852D01*
X066884Y005891D01*
X066856Y005932D01*
X066831Y005976D01*
X066810Y006021D01*
X066793Y006068D01*
X066779Y006116D01*
X066769Y006165D01*
X066763Y006215D01*
X066761Y006265D01*
D11*
X110107Y043650D03*
D12*
X110073Y043650D03*
X100095Y043650D03*
D13*
X105424Y042190D03*
X107121Y041104D03*
X106849Y039339D03*
X106849Y039237D03*
X101962Y039814D03*
X101283Y039814D03*
X106849Y047247D03*
X105254Y049861D03*
X105016Y049861D03*
X107392Y050675D03*
X107833Y051116D03*
X108105Y051490D03*
X108173Y051591D03*
X108207Y051659D03*
X108309Y051863D03*
X108377Y051999D03*
X108410Y052101D03*
X106849Y052067D03*
X106646Y052236D03*
X106578Y052406D03*
X106646Y052440D03*
X106680Y052474D03*
X106747Y052474D03*
X106849Y052474D03*
X106883Y052474D03*
X106883Y052678D03*
X106849Y052678D03*
X106747Y052678D03*
X106680Y052678D03*
X106646Y052644D03*
X106578Y052610D03*
X106476Y052610D03*
X106442Y052610D03*
X106408Y052644D03*
X106442Y052813D03*
X106476Y052813D03*
X106408Y052847D03*
X106340Y052881D03*
X106408Y053051D03*
X106442Y053051D03*
X106476Y053017D03*
X106578Y053051D03*
X106646Y053051D03*
X106680Y053085D03*
X106849Y053085D03*
X106883Y053085D03*
X106883Y052881D03*
X106849Y052881D03*
X106747Y052881D03*
X106680Y052881D03*
X106646Y052847D03*
X106578Y052847D03*
X106340Y053085D03*
X106238Y053119D03*
X106204Y053119D03*
X106136Y053085D03*
X106103Y053085D03*
X106001Y053051D03*
X106204Y053322D03*
X106238Y053322D03*
X106340Y053492D03*
X106408Y053458D03*
X106442Y053458D03*
X106476Y053458D03*
X106578Y053458D03*
X106646Y053492D03*
X106680Y053492D03*
X106747Y053526D03*
X106883Y053492D03*
X106883Y053696D03*
X106680Y053696D03*
X106646Y053696D03*
X106578Y053662D03*
X106476Y053662D03*
X106442Y053662D03*
X106408Y053662D03*
X106340Y053696D03*
X106103Y053696D03*
X106747Y053933D03*
X106849Y053933D03*
X106849Y054137D03*
X106747Y054137D03*
X106680Y054307D03*
X106646Y054307D03*
X106747Y054341D03*
X106849Y054341D03*
X106849Y054544D03*
X106883Y054544D03*
X107969Y055393D03*
X107901Y055495D03*
X107867Y055528D03*
X108173Y055087D03*
X108207Y055019D03*
X108377Y054680D03*
X106747Y053322D03*
X106408Y052440D03*
X106442Y052406D03*
X106476Y052406D03*
X106238Y052474D03*
X106204Y052474D03*
X105118Y052033D03*
X102743Y050845D03*
X102709Y050879D03*
X102641Y050947D03*
X102267Y051422D03*
X102199Y051524D03*
X101996Y051897D03*
X101962Y051965D03*
X101656Y053153D03*
X101928Y054646D03*
X101996Y054782D03*
X102064Y054918D03*
X102166Y055121D03*
X102301Y055325D03*
X102403Y055461D03*
X102539Y055630D03*
X103387Y055121D03*
X103387Y058379D03*
X103455Y058379D03*
X103489Y058379D03*
X103523Y058379D03*
X103625Y058379D03*
X103693Y058379D03*
X103727Y058379D03*
X103795Y058379D03*
X103896Y058379D03*
X103930Y058379D03*
X103964Y058379D03*
X104032Y058379D03*
X104134Y058379D03*
X104168Y058379D03*
X104236Y058379D03*
X104270Y058379D03*
X104372Y058379D03*
X104439Y058379D03*
X104473Y058379D03*
X104507Y058379D03*
X104609Y058379D03*
X104677Y058379D03*
X104711Y058379D03*
X104779Y058379D03*
X104881Y058379D03*
X104915Y058379D03*
X104949Y058379D03*
X105016Y058379D03*
X105118Y058379D03*
X105152Y058379D03*
X105220Y058379D03*
X105254Y058379D03*
X105356Y058379D03*
X105424Y058379D03*
X105458Y058379D03*
X105492Y058379D03*
X105593Y058379D03*
X105661Y058379D03*
X105695Y058379D03*
X105763Y058379D03*
X105865Y058379D03*
X105899Y058379D03*
X105933Y058379D03*
X106001Y058379D03*
X106103Y058379D03*
X106136Y058379D03*
X106204Y058379D03*
X106238Y058379D03*
X106340Y058379D03*
X106408Y058379D03*
X106442Y058379D03*
X106476Y058379D03*
X106578Y058379D03*
X106646Y058379D03*
X106680Y058379D03*
X106747Y058379D03*
X106849Y058379D03*
X106883Y058379D03*
X106917Y058379D03*
X106985Y058379D03*
X107087Y058379D03*
X107121Y058379D03*
X107189Y058379D03*
X107223Y058379D03*
X107324Y058379D03*
X107392Y058379D03*
X107426Y058379D03*
X107460Y058379D03*
X107562Y058379D03*
X107630Y058379D03*
X107664Y058379D03*
X107732Y058379D03*
X107833Y058379D03*
X107867Y058379D03*
X107901Y058379D03*
X107969Y058379D03*
X108071Y058379D03*
X108105Y058379D03*
X108173Y058379D03*
X108207Y058379D03*
X108309Y058379D03*
X108377Y058379D03*
X108410Y058379D03*
X108444Y058379D03*
X108546Y058379D03*
X108614Y058379D03*
X108648Y058379D03*
X108716Y058379D03*
X108818Y058379D03*
X108852Y058379D03*
X108886Y058379D03*
X108953Y058379D03*
X109055Y058379D03*
X109089Y058379D03*
X109157Y058379D03*
X109191Y058379D03*
X109293Y058379D03*
X109361Y058379D03*
X109395Y058379D03*
X109429Y058379D03*
X109530Y058379D03*
X109598Y058379D03*
X109632Y058379D03*
X109700Y058379D03*
X109802Y058379D03*
X109836Y058379D03*
X109870Y058379D03*
X109938Y058379D03*
X110040Y058379D03*
X103286Y058379D03*
X103252Y058379D03*
X103184Y058379D03*
X103150Y058379D03*
X103048Y058379D03*
X102980Y058379D03*
X102946Y058379D03*
X102912Y058379D03*
X102810Y058379D03*
X102743Y058379D03*
X102709Y058379D03*
X102641Y058379D03*
X102539Y058379D03*
X102505Y058379D03*
X102471Y058379D03*
X102403Y058379D03*
X102301Y058379D03*
X102267Y058379D03*
X102199Y058379D03*
X102166Y058379D03*
X102064Y058379D03*
X101996Y058379D03*
X101962Y058379D03*
X101928Y058379D03*
X101826Y058379D03*
X101758Y058379D03*
X101724Y058379D03*
X101656Y058379D03*
X101555Y058379D03*
X101521Y058379D03*
X101487Y058379D03*
X101419Y058379D03*
X101317Y058379D03*
X101283Y058379D03*
X101215Y058379D03*
X101181Y058379D03*
X101079Y058379D03*
X101012Y058379D03*
X100978Y058379D03*
X100944Y058379D03*
X100842Y058379D03*
X100774Y058379D03*
X100740Y058379D03*
X100672Y058379D03*
X100570Y058379D03*
X100536Y058379D03*
X100502Y058379D03*
X100435Y058379D03*
X100333Y058379D03*
X100299Y058379D03*
X100231Y058379D03*
X100197Y058379D03*
X100197Y028920D03*
X100231Y028920D03*
X100299Y028920D03*
X100333Y028920D03*
X100435Y028920D03*
X100502Y028920D03*
X100536Y028920D03*
X100570Y028920D03*
X100672Y028920D03*
X100740Y028920D03*
X100774Y028920D03*
X100842Y028920D03*
X100944Y028920D03*
X100978Y028920D03*
X101012Y028920D03*
X101079Y028920D03*
X101181Y028920D03*
X101215Y028920D03*
X101283Y028920D03*
X101317Y028920D03*
X101419Y028920D03*
X101487Y028920D03*
X101521Y028920D03*
X101555Y028920D03*
X101656Y028920D03*
X101724Y028920D03*
X101758Y028920D03*
X101826Y028920D03*
X101928Y028920D03*
X101962Y028920D03*
X101996Y028920D03*
X102064Y028920D03*
X102166Y028920D03*
X102199Y028920D03*
X102267Y028920D03*
X102301Y028920D03*
X102403Y028920D03*
X102471Y028920D03*
X102505Y028920D03*
X102539Y028920D03*
X102641Y028920D03*
X102709Y028920D03*
X102743Y028920D03*
X102810Y028920D03*
X102912Y028920D03*
X102946Y028920D03*
X102980Y028920D03*
X103048Y028920D03*
X103150Y028920D03*
X103184Y028920D03*
X103252Y028920D03*
X103286Y028920D03*
X103387Y028920D03*
X103455Y028920D03*
X103489Y028920D03*
X103523Y028920D03*
X103625Y028920D03*
X103693Y028920D03*
X103727Y028920D03*
X103795Y028920D03*
X103896Y028920D03*
X103930Y028920D03*
X103964Y028920D03*
X104032Y028920D03*
X104134Y028920D03*
X104168Y028920D03*
X104236Y028920D03*
X104270Y028920D03*
X104372Y028920D03*
X104439Y028920D03*
X104473Y028920D03*
X104507Y028920D03*
X104609Y028920D03*
X104677Y028920D03*
X104711Y028920D03*
X104779Y028920D03*
X104881Y028920D03*
X104915Y028920D03*
X104949Y028920D03*
X105016Y028920D03*
X105118Y028920D03*
X105152Y028920D03*
X105220Y028920D03*
X105254Y028920D03*
X105356Y028920D03*
X105424Y028920D03*
X105458Y028920D03*
X105492Y028920D03*
X105593Y028920D03*
X105661Y028920D03*
X105695Y028920D03*
X105763Y028920D03*
X105865Y028920D03*
X105899Y028920D03*
X105933Y028920D03*
X106001Y028920D03*
X106103Y028920D03*
X106136Y028920D03*
X106204Y028920D03*
X106238Y028920D03*
X106340Y028920D03*
X106408Y028920D03*
X106442Y028920D03*
X106476Y028920D03*
X106578Y028920D03*
X106646Y028920D03*
X106680Y028920D03*
X106747Y028920D03*
X106849Y028920D03*
X106883Y028920D03*
X106917Y028920D03*
X106985Y028920D03*
X107087Y028920D03*
X107121Y028920D03*
X107189Y028920D03*
X107223Y028920D03*
X107324Y028920D03*
X107392Y028920D03*
X107426Y028920D03*
X107460Y028920D03*
X107562Y028920D03*
X107630Y028920D03*
X107664Y028920D03*
X107732Y028920D03*
X107833Y028920D03*
X107867Y028920D03*
X107901Y028920D03*
X107969Y028920D03*
X108071Y028920D03*
X108105Y028920D03*
X108173Y028920D03*
X108207Y028920D03*
X108309Y028920D03*
X108377Y028920D03*
X108410Y028920D03*
X108444Y028920D03*
X108546Y028920D03*
X108614Y028920D03*
X108648Y028920D03*
X108716Y028920D03*
X108818Y028920D03*
X108852Y028920D03*
X108886Y028920D03*
X108953Y028920D03*
X109055Y028920D03*
X109089Y028920D03*
X109157Y028920D03*
X109191Y028920D03*
X109293Y028920D03*
X109361Y028920D03*
X109395Y028920D03*
X109429Y028920D03*
X109530Y028920D03*
X109598Y028920D03*
X109632Y028920D03*
X109700Y028920D03*
X109802Y028920D03*
X109836Y028920D03*
X109870Y028920D03*
X109938Y028920D03*
X110040Y028920D03*
D14*
X110006Y028920D03*
X109904Y028920D03*
X109768Y028920D03*
X109666Y028920D03*
X109564Y028920D03*
X109463Y028920D03*
X109327Y028920D03*
X109225Y028920D03*
X109123Y028920D03*
X109021Y028920D03*
X108920Y028920D03*
X108784Y028920D03*
X108682Y028920D03*
X108580Y028920D03*
X108478Y028920D03*
X108343Y028920D03*
X108241Y028920D03*
X108139Y028920D03*
X108037Y028920D03*
X107935Y028920D03*
X107800Y028920D03*
X107698Y028920D03*
X107596Y028920D03*
X107494Y028920D03*
X107358Y028920D03*
X107256Y028920D03*
X107155Y028920D03*
X107053Y028920D03*
X106951Y028920D03*
X106815Y028920D03*
X106713Y028920D03*
X106612Y028920D03*
X106510Y028920D03*
X106374Y028920D03*
X106272Y028920D03*
X106170Y028920D03*
X106069Y028920D03*
X105967Y028920D03*
X105831Y028920D03*
X105729Y028920D03*
X105627Y028920D03*
X105526Y028920D03*
X105390Y028920D03*
X105288Y028920D03*
X105186Y028920D03*
X105084Y028920D03*
X104983Y028920D03*
X104847Y028920D03*
X104745Y028920D03*
X104643Y028920D03*
X104541Y028920D03*
X104406Y028920D03*
X104304Y028920D03*
X104202Y028920D03*
X104100Y028920D03*
X103998Y028920D03*
X103863Y028920D03*
X103761Y028920D03*
X103659Y028920D03*
X103557Y028920D03*
X103421Y028920D03*
X103319Y028920D03*
X103218Y028920D03*
X103116Y028920D03*
X103014Y028920D03*
X102878Y028920D03*
X102776Y028920D03*
X102675Y028920D03*
X102573Y028920D03*
X102437Y028920D03*
X102335Y028920D03*
X102233Y028920D03*
X102132Y028920D03*
X102030Y028920D03*
X101894Y028920D03*
X101792Y028920D03*
X101690Y028920D03*
X101589Y028920D03*
X101453Y028920D03*
X101351Y028920D03*
X101249Y028920D03*
X101147Y028920D03*
X101046Y028920D03*
X100910Y028920D03*
X100808Y028920D03*
X100706Y028920D03*
X100604Y028920D03*
X100469Y028920D03*
X100367Y028920D03*
X100265Y028920D03*
X100163Y028920D03*
X106951Y039373D03*
X107155Y041104D03*
X105288Y049861D03*
X105084Y049861D03*
X104983Y049861D03*
X102675Y050913D03*
X102437Y051184D03*
X102030Y051829D03*
X101894Y054544D03*
X102030Y054850D03*
X102132Y055053D03*
X102573Y055664D03*
X102878Y055970D03*
X106069Y053696D03*
X106272Y053526D03*
X106374Y053458D03*
X106272Y053322D03*
X106170Y053322D03*
X106170Y053119D03*
X106272Y053085D03*
X106374Y053051D03*
X106510Y053017D03*
X106612Y053051D03*
X106713Y053085D03*
X106713Y052881D03*
X106815Y052881D03*
X106815Y052678D03*
X106713Y052678D03*
X106612Y052644D03*
X106510Y052610D03*
X106612Y052440D03*
X106713Y052474D03*
X106815Y052474D03*
X106510Y052406D03*
X106374Y052440D03*
X106272Y052474D03*
X106374Y052847D03*
X106272Y052881D03*
X106510Y052813D03*
X106612Y052847D03*
X106510Y053221D03*
X106612Y053458D03*
X106713Y053492D03*
X106815Y053526D03*
X106815Y053322D03*
X106612Y053662D03*
X106510Y053662D03*
X106374Y053696D03*
X106815Y053933D03*
X106815Y054137D03*
X106815Y054341D03*
X106713Y054341D03*
X106815Y054544D03*
X108139Y055155D03*
X106069Y053051D03*
X106612Y052236D03*
X106815Y052067D03*
X108037Y051388D03*
X108241Y051727D03*
X108343Y051931D03*
X108343Y058379D03*
X108241Y058379D03*
X108139Y058379D03*
X108037Y058379D03*
X107935Y058379D03*
X107800Y058379D03*
X107698Y058379D03*
X107596Y058379D03*
X107494Y058379D03*
X107358Y058379D03*
X107256Y058379D03*
X107155Y058379D03*
X107053Y058379D03*
X106951Y058379D03*
X106815Y058379D03*
X106713Y058379D03*
X106612Y058379D03*
X106510Y058379D03*
X106374Y058379D03*
X106272Y058379D03*
X106170Y058379D03*
X106069Y058379D03*
X105967Y058379D03*
X105831Y058379D03*
X105729Y058379D03*
X105627Y058379D03*
X105526Y058379D03*
X105390Y058379D03*
X105288Y058379D03*
X105186Y058379D03*
X105084Y058379D03*
X104983Y058379D03*
X104847Y058379D03*
X104745Y058379D03*
X104643Y058379D03*
X104541Y058379D03*
X104406Y058379D03*
X104304Y058379D03*
X104202Y058379D03*
X104100Y058379D03*
X103998Y058379D03*
X103863Y058379D03*
X103761Y058379D03*
X103659Y058379D03*
X103557Y058379D03*
X103421Y058379D03*
X103319Y058379D03*
X103218Y058379D03*
X103116Y058379D03*
X103014Y058379D03*
X102878Y058379D03*
X102776Y058379D03*
X102675Y058379D03*
X102573Y058379D03*
X102437Y058379D03*
X102335Y058379D03*
X102233Y058379D03*
X102132Y058379D03*
X102030Y058379D03*
X101894Y058379D03*
X101792Y058379D03*
X101690Y058379D03*
X101589Y058379D03*
X101453Y058379D03*
X101351Y058379D03*
X101249Y058379D03*
X101147Y058379D03*
X101046Y058379D03*
X100910Y058379D03*
X100808Y058379D03*
X100706Y058379D03*
X100604Y058379D03*
X100469Y058379D03*
X100367Y058379D03*
X100265Y058379D03*
X100163Y058379D03*
X108478Y058379D03*
X108580Y058379D03*
X108682Y058379D03*
X108784Y058379D03*
X108920Y058379D03*
X109021Y058379D03*
X109123Y058379D03*
X109225Y058379D03*
X109327Y058379D03*
X109463Y058379D03*
X109564Y058379D03*
X109666Y058379D03*
X109768Y058379D03*
X109904Y058379D03*
X110006Y058379D03*
D15*
X109972Y058379D03*
X109734Y058379D03*
X109497Y058379D03*
X109259Y058379D03*
X108987Y058379D03*
X108750Y058379D03*
X108512Y058379D03*
X108275Y058379D03*
X108003Y058379D03*
X107766Y058379D03*
X107528Y058379D03*
X107290Y058379D03*
X107019Y058379D03*
X106781Y058379D03*
X106544Y058379D03*
X106306Y058379D03*
X106035Y058379D03*
X105797Y058379D03*
X105560Y058379D03*
X105322Y058379D03*
X105050Y058379D03*
X104813Y058379D03*
X104575Y058379D03*
X104338Y058379D03*
X104066Y058379D03*
X103829Y058379D03*
X103591Y058379D03*
X103353Y058379D03*
X103082Y058379D03*
X102844Y058379D03*
X102607Y058379D03*
X102369Y058379D03*
X102098Y058379D03*
X101860Y058379D03*
X101622Y058379D03*
X101385Y058379D03*
X101113Y058379D03*
X100876Y058379D03*
X100638Y058379D03*
X100401Y058379D03*
X102098Y054985D03*
X101860Y054442D03*
X101860Y052236D03*
X102098Y051693D03*
X102607Y050981D03*
X105050Y049861D03*
X105322Y049861D03*
X106781Y052067D03*
X106781Y052474D03*
X106781Y052678D03*
X106544Y052610D03*
X106544Y052813D03*
X106544Y053017D03*
X106306Y053085D03*
X106306Y052881D03*
X106035Y053051D03*
X106306Y053492D03*
X106306Y053696D03*
X106544Y053662D03*
X106544Y053458D03*
X106781Y053526D03*
X106781Y053322D03*
X106781Y053119D03*
X106544Y052406D03*
X106306Y052474D03*
X106781Y053933D03*
X106781Y054137D03*
X106781Y054341D03*
X106781Y054544D03*
X108003Y055359D03*
X108275Y054918D03*
X107019Y041070D03*
X108275Y040222D03*
X108275Y028920D03*
X108512Y028920D03*
X108750Y028920D03*
X108987Y028920D03*
X109259Y028920D03*
X109497Y028920D03*
X109734Y028920D03*
X109972Y028920D03*
X108003Y028920D03*
X107766Y028920D03*
X107528Y028920D03*
X107290Y028920D03*
X107019Y028920D03*
X106781Y028920D03*
X106544Y028920D03*
X106306Y028920D03*
X106035Y028920D03*
X105797Y028920D03*
X105560Y028920D03*
X105322Y028920D03*
X105050Y028920D03*
X104813Y028920D03*
X104575Y028920D03*
X104338Y028920D03*
X104066Y028920D03*
X103829Y028920D03*
X103591Y028920D03*
X103353Y028920D03*
X103082Y028920D03*
X102844Y028920D03*
X102607Y028920D03*
X102369Y028920D03*
X102098Y028920D03*
X101860Y028920D03*
X101622Y028920D03*
X101385Y028920D03*
X101113Y028920D03*
X100876Y028920D03*
X100638Y028920D03*
X100401Y028920D03*
D16*
X109734Y043650D03*
D17*
X109700Y043650D03*
X109632Y043650D03*
X100570Y043650D03*
X100536Y043650D03*
X100502Y043650D03*
D18*
X100469Y043650D03*
X109666Y043650D03*
D19*
X108716Y042682D03*
X107223Y041834D03*
X107223Y041155D03*
X107189Y041155D03*
X105865Y041562D03*
X104270Y040069D03*
X104236Y040069D03*
X104168Y040069D03*
X104134Y040069D03*
X104032Y040069D03*
X103964Y040069D03*
X103930Y040069D03*
X103896Y040069D03*
X103795Y040069D03*
X103795Y039696D03*
X103727Y039696D03*
X104134Y039730D03*
X104168Y039730D03*
X104236Y039730D03*
X104270Y039730D03*
X104270Y039119D03*
X104236Y039119D03*
X104168Y039119D03*
X104134Y039119D03*
X103896Y039119D03*
X103795Y039119D03*
X103727Y039119D03*
X103693Y039119D03*
X102199Y039831D03*
X101656Y039831D03*
X101317Y039831D03*
X101758Y039288D03*
X101996Y039153D03*
X103625Y042750D03*
X103693Y042750D03*
X103727Y042750D03*
X103795Y042750D03*
X103896Y042750D03*
X104134Y042750D03*
X104168Y042750D03*
X104236Y042750D03*
X104270Y042750D03*
X104372Y042750D03*
X104439Y042750D03*
X104473Y042750D03*
X104473Y043327D03*
X104439Y043327D03*
X104372Y043327D03*
X104270Y043327D03*
X104236Y043327D03*
X104168Y043327D03*
X104134Y043327D03*
X103896Y043327D03*
X103795Y043327D03*
X103727Y043327D03*
X103693Y043327D03*
X103625Y043327D03*
X104236Y043667D03*
X104270Y043667D03*
X104473Y043802D03*
X104439Y044108D03*
X104270Y044108D03*
X104236Y044108D03*
X104168Y044108D03*
X103964Y044108D03*
X104134Y044583D03*
X104236Y045126D03*
X104270Y045126D03*
X104473Y045262D03*
X104439Y045567D03*
X104270Y045567D03*
X104236Y045567D03*
X104168Y045567D03*
X103964Y045567D03*
X104032Y045974D03*
X104134Y045974D03*
X104168Y045974D03*
X104236Y045974D03*
X104270Y045974D03*
X104372Y045974D03*
X104439Y045974D03*
X104473Y045974D03*
X104236Y046484D03*
X104168Y046484D03*
X104134Y046484D03*
X104032Y046484D03*
X103964Y046517D03*
X104032Y046993D03*
X104134Y046993D03*
X104168Y046993D03*
X104236Y046993D03*
X104439Y046993D03*
X104473Y046993D03*
X103795Y046993D03*
X103727Y046993D03*
X103693Y046993D03*
X103625Y046993D03*
X103795Y045974D03*
X106747Y046280D03*
X107189Y045160D03*
X106849Y043090D03*
X105865Y042784D03*
X108648Y040578D03*
X108716Y040578D03*
X108546Y039288D03*
X106849Y047604D03*
X105661Y051880D03*
X106408Y054120D03*
X108614Y052932D03*
X101724Y053882D03*
X109598Y029378D03*
D20*
X104609Y034656D03*
X109598Y038457D03*
X106849Y040391D03*
X103964Y041511D03*
X103964Y041919D03*
X103930Y041919D03*
X105424Y042835D03*
X105865Y043344D03*
X105865Y043887D03*
X104270Y044464D03*
X104236Y044498D03*
D21*
X109598Y048690D03*
X107460Y050726D03*
X107426Y050692D03*
X107324Y050624D03*
X107223Y050556D03*
X107189Y050522D03*
X107121Y050454D03*
X107087Y050454D03*
X106985Y050387D03*
X106917Y050353D03*
X106747Y050251D03*
X106680Y050217D03*
X106646Y050183D03*
X106476Y050115D03*
X106442Y050115D03*
X106340Y050081D03*
X106238Y050047D03*
X106204Y050013D03*
X106136Y050013D03*
X105933Y049945D03*
X105899Y049945D03*
X105865Y049945D03*
X105763Y049911D03*
X105695Y049911D03*
X105492Y049878D03*
X105458Y049878D03*
X105424Y049878D03*
X105356Y049878D03*
X105220Y049844D03*
X105152Y049844D03*
X105118Y049844D03*
X104949Y049878D03*
X104915Y049878D03*
X104881Y049878D03*
X104779Y049878D03*
X104609Y049911D03*
X104473Y049945D03*
X104439Y049945D03*
X104372Y049945D03*
X104270Y049979D03*
X104236Y049979D03*
X104168Y050013D03*
X104134Y050013D03*
X104032Y050047D03*
X103964Y050081D03*
X103930Y050081D03*
X103896Y050115D03*
X103795Y050149D03*
X103727Y050183D03*
X103693Y050183D03*
X103625Y050217D03*
X103523Y050285D03*
X103489Y050285D03*
X103387Y050353D03*
X103286Y050421D03*
X103184Y050488D03*
X103150Y050522D03*
X103048Y050590D03*
X102980Y050624D03*
X102946Y050658D03*
X102912Y050692D03*
X102539Y051065D03*
X102505Y051099D03*
X102471Y051133D03*
X102403Y051235D03*
X102301Y051371D03*
X102166Y051574D03*
X101724Y052694D03*
X101656Y053543D03*
X102199Y055172D03*
X102267Y055274D03*
X102471Y055545D03*
X102505Y055579D03*
X102641Y055749D03*
X102709Y055817D03*
X102743Y055851D03*
X102810Y055919D03*
X102912Y055987D03*
X102946Y056021D03*
X102980Y056055D03*
X103150Y056190D03*
X103184Y056190D03*
X103252Y056258D03*
X103286Y056258D03*
X103387Y056326D03*
X103455Y056360D03*
X103489Y056394D03*
X103523Y056428D03*
X103625Y056462D03*
X103693Y056496D03*
X103795Y056530D03*
X103896Y056598D03*
X103930Y056598D03*
X103964Y056598D03*
X104032Y056631D03*
X104134Y056665D03*
X104168Y056665D03*
X104372Y056733D03*
X104473Y056767D03*
X104507Y056767D03*
X104677Y056801D03*
X104711Y056801D03*
X104779Y056801D03*
X104881Y056801D03*
X104915Y056835D03*
X104949Y056835D03*
X105016Y056835D03*
X105118Y056835D03*
X105152Y056835D03*
X105220Y056835D03*
X105254Y056835D03*
X105356Y056835D03*
X105424Y056835D03*
X105458Y056801D03*
X105492Y056801D03*
X105593Y056801D03*
X105661Y056801D03*
X105763Y056767D03*
X105899Y056733D03*
X105933Y056733D03*
X106204Y056665D03*
X106238Y056665D03*
X106408Y056598D03*
X106476Y056564D03*
X106578Y056530D03*
X106646Y056496D03*
X106680Y056462D03*
X106747Y056428D03*
X106849Y056394D03*
X106883Y056360D03*
X106917Y056360D03*
X106985Y056292D03*
X107087Y056258D03*
X107189Y056156D03*
X107223Y056156D03*
X107324Y056055D03*
X107392Y056021D03*
X107426Y055987D03*
X107460Y055953D03*
X107562Y055851D03*
X107630Y055783D03*
X107664Y055749D03*
X107732Y055681D03*
X107833Y055579D03*
X108105Y055206D03*
X108614Y053882D03*
X108614Y052796D03*
X106883Y052050D03*
X106747Y052084D03*
X106340Y052457D03*
X106747Y053102D03*
X106476Y053238D03*
X106238Y053509D03*
X105933Y053238D03*
X106883Y053916D03*
X106883Y054120D03*
X106883Y054324D03*
X106578Y054290D03*
X108071Y051439D03*
X107901Y051201D03*
X107867Y051167D03*
X107732Y050998D03*
X107664Y050930D03*
X107630Y050896D03*
X107562Y050828D03*
X107087Y034808D03*
X107087Y034028D03*
X107087Y033247D03*
X104507Y033858D03*
X104507Y034639D03*
D22*
X109598Y053373D03*
D23*
X108580Y054001D03*
X108580Y052678D03*
X101792Y052474D03*
X101792Y057938D03*
X101690Y057938D03*
X101589Y057938D03*
X101453Y057938D03*
X101351Y057938D03*
X101249Y057938D03*
X101147Y057938D03*
X101046Y057938D03*
X100910Y057938D03*
X100808Y057938D03*
X100706Y057938D03*
X101894Y057938D03*
X102030Y057938D03*
X102132Y057938D03*
X102233Y057938D03*
X102335Y057938D03*
X102437Y057938D03*
X102573Y057938D03*
X102675Y057938D03*
X102776Y057938D03*
X102878Y057938D03*
X103014Y057938D03*
X103116Y057938D03*
X103218Y057938D03*
X103319Y057938D03*
X103421Y057938D03*
X103557Y057938D03*
X103659Y057938D03*
X103761Y057938D03*
X103863Y057938D03*
X103998Y057938D03*
X104100Y057938D03*
X104202Y057938D03*
X104304Y057938D03*
X104406Y057938D03*
X104541Y057938D03*
X104643Y057938D03*
X104745Y057938D03*
X104847Y057938D03*
X104983Y057938D03*
X105084Y057938D03*
X105186Y057938D03*
X105288Y057938D03*
X105390Y057938D03*
X105526Y057938D03*
X105627Y057938D03*
X105729Y057938D03*
X105831Y057938D03*
X105967Y057938D03*
X106069Y057938D03*
X106170Y057938D03*
X106272Y057938D03*
X106374Y057938D03*
X106510Y057938D03*
X106612Y057938D03*
X106713Y057938D03*
X106815Y057938D03*
X106951Y057938D03*
X107053Y057938D03*
X107155Y057938D03*
X107256Y057938D03*
X107358Y057938D03*
X107494Y057938D03*
X107596Y057938D03*
X107698Y057938D03*
X107800Y057938D03*
X107935Y057938D03*
X108037Y057938D03*
X108139Y057938D03*
X108241Y057938D03*
X108343Y057938D03*
X108478Y057938D03*
X108580Y057938D03*
X108682Y057938D03*
X108784Y057938D03*
X108920Y057938D03*
X109021Y057938D03*
X109123Y057938D03*
X109225Y057938D03*
X109327Y057938D03*
X109463Y057938D03*
X109564Y057938D03*
X107155Y046534D03*
X106951Y046568D03*
X106713Y046297D03*
X107155Y045143D03*
X106951Y044328D03*
X106951Y044057D03*
X107155Y044023D03*
X107155Y043785D03*
X106951Y043751D03*
X106951Y043208D03*
X106951Y042122D03*
X107155Y042088D03*
X107053Y041240D03*
X107155Y040561D03*
X107155Y040222D03*
X106951Y040256D03*
X105729Y040833D03*
X105390Y040833D03*
X105390Y041138D03*
X105526Y042699D03*
X108580Y042564D03*
X105729Y039679D03*
X105526Y039713D03*
X102233Y040629D03*
X102132Y040561D03*
X101792Y040357D03*
X101690Y040323D03*
X101589Y040256D03*
X101453Y040188D03*
X101351Y040120D03*
X101249Y040052D03*
X101147Y039645D03*
X101249Y039577D03*
X101589Y039373D03*
X101690Y039339D03*
X101792Y039271D03*
X101894Y039203D03*
X102030Y039136D03*
X102132Y039068D03*
X101792Y039814D03*
X101792Y029361D03*
X101690Y029361D03*
X101589Y029361D03*
X101453Y029361D03*
X101351Y029361D03*
X101249Y029361D03*
X101147Y029361D03*
X101046Y029361D03*
X100910Y029361D03*
X100808Y029361D03*
X100706Y029361D03*
X100604Y029361D03*
X101894Y029361D03*
X102030Y029361D03*
X102132Y029361D03*
X102233Y029361D03*
X102335Y029361D03*
X102437Y029361D03*
X102573Y029361D03*
X102675Y029361D03*
X102776Y029361D03*
X102878Y029361D03*
X103014Y029361D03*
X103116Y029361D03*
X103218Y029361D03*
X103319Y029361D03*
X103421Y029361D03*
X103557Y029361D03*
X103659Y029361D03*
X103761Y029361D03*
X103863Y029361D03*
X103998Y029361D03*
X104100Y029361D03*
X104202Y029361D03*
X104304Y029361D03*
X104406Y029361D03*
X104541Y029361D03*
X104643Y029361D03*
X104745Y029361D03*
X104847Y029361D03*
X104983Y029361D03*
X105084Y029361D03*
X105186Y029361D03*
X105288Y029361D03*
X105390Y029361D03*
X105526Y029361D03*
X105627Y029361D03*
X105729Y029361D03*
X105831Y029361D03*
X105967Y029361D03*
X106069Y029361D03*
X106170Y029361D03*
X106272Y029361D03*
X106374Y029361D03*
X106510Y029361D03*
X106612Y029361D03*
X106713Y029361D03*
X106815Y029361D03*
X106951Y029361D03*
X107053Y029361D03*
X107155Y029361D03*
X107256Y029361D03*
X107358Y029361D03*
X107494Y029361D03*
X107596Y029361D03*
X107698Y029361D03*
X107800Y029361D03*
X107935Y029361D03*
X108037Y029361D03*
X108139Y029361D03*
X108241Y029361D03*
X108343Y029361D03*
X108478Y029361D03*
X108580Y029361D03*
X108682Y029361D03*
X108784Y029361D03*
X108920Y029361D03*
X109021Y029361D03*
X109123Y029361D03*
X109225Y029361D03*
X109327Y029361D03*
X109463Y029361D03*
X109564Y029361D03*
D24*
X109564Y038457D03*
X109463Y038457D03*
X109327Y038457D03*
X109225Y038457D03*
X109123Y038457D03*
X109021Y038457D03*
X108920Y038457D03*
X108784Y038457D03*
X108682Y038457D03*
X108580Y038457D03*
X108478Y038457D03*
X108343Y038457D03*
X108241Y038457D03*
X108139Y038457D03*
X108037Y038457D03*
X107935Y038457D03*
X107800Y038457D03*
X107698Y038457D03*
X107596Y038457D03*
X107494Y038457D03*
X107358Y038457D03*
X107256Y038457D03*
X107155Y038457D03*
X107053Y038457D03*
X106951Y038457D03*
X106815Y038457D03*
X106713Y038457D03*
X106612Y038457D03*
X106510Y038457D03*
X106374Y038457D03*
X106272Y038457D03*
X106170Y038457D03*
X106069Y038457D03*
X105967Y038457D03*
X105831Y038457D03*
X105729Y038457D03*
X105627Y038457D03*
X105526Y038457D03*
X105390Y038457D03*
X105288Y038457D03*
X105186Y038457D03*
X105084Y038457D03*
X104983Y038457D03*
X104847Y038457D03*
X104745Y038457D03*
X104643Y038457D03*
X104541Y038457D03*
X104406Y038457D03*
X104304Y038457D03*
X104202Y038457D03*
X104100Y038457D03*
X103998Y038457D03*
X103863Y038457D03*
X103761Y038457D03*
X103659Y038457D03*
X103557Y038457D03*
X103421Y038457D03*
X103319Y038457D03*
X103218Y038457D03*
X103116Y038457D03*
X103014Y038457D03*
X102878Y038457D03*
X102776Y038457D03*
X102573Y038457D03*
X102437Y038457D03*
X102335Y038457D03*
X102233Y038457D03*
X102132Y038457D03*
X102030Y038457D03*
X101894Y038457D03*
X101792Y038457D03*
X101690Y038457D03*
X101589Y038457D03*
X101453Y038457D03*
X101351Y038457D03*
X101249Y038457D03*
X101147Y038457D03*
X101046Y038457D03*
X100910Y038457D03*
X100808Y038457D03*
X100706Y038457D03*
X101351Y039509D03*
X101453Y039475D03*
X101147Y040018D03*
X101046Y039950D03*
X101894Y040425D03*
X102030Y040493D03*
X102233Y039034D03*
X105526Y039984D03*
X105729Y040018D03*
X106951Y040527D03*
X106951Y042394D03*
X107155Y042428D03*
X107155Y043446D03*
X106951Y043480D03*
X107155Y044362D03*
X106951Y045414D03*
X107155Y045448D03*
X106951Y046840D03*
X107155Y046874D03*
X107155Y048842D03*
X107256Y048842D03*
X107358Y048842D03*
X107494Y048842D03*
X107596Y048842D03*
X107698Y048842D03*
X107800Y048842D03*
X107935Y048842D03*
X108037Y048842D03*
X108139Y048842D03*
X108241Y048842D03*
X108343Y048842D03*
X108478Y048842D03*
X108580Y048842D03*
X108682Y048842D03*
X108784Y048842D03*
X108920Y048842D03*
X109021Y048842D03*
X109123Y048842D03*
X109225Y048842D03*
X109327Y048842D03*
X109463Y048842D03*
X109564Y048842D03*
X107053Y048842D03*
X106951Y048842D03*
X106815Y048842D03*
X106713Y048842D03*
X106612Y048842D03*
X106510Y048842D03*
X106374Y048842D03*
X106272Y048842D03*
X106170Y048842D03*
X106069Y048842D03*
X105967Y048842D03*
X105831Y048842D03*
X105729Y048842D03*
X105627Y048842D03*
X105526Y048842D03*
X105390Y048842D03*
X105288Y048842D03*
X105186Y048842D03*
X105084Y048842D03*
X104983Y048842D03*
X104847Y048842D03*
X104745Y048842D03*
X104643Y048842D03*
X104541Y048842D03*
X104406Y048842D03*
X104304Y048842D03*
X104202Y048842D03*
X104100Y048842D03*
X103998Y048842D03*
X103863Y048842D03*
X103761Y048842D03*
X103659Y048842D03*
X103557Y048842D03*
X103421Y048842D03*
X103319Y048842D03*
X103218Y048842D03*
X103116Y048842D03*
X103014Y048842D03*
X102878Y048842D03*
X102776Y048842D03*
X105526Y043480D03*
X105288Y042496D03*
X108580Y042869D03*
X108784Y042869D03*
D25*
X108614Y042597D03*
X108410Y042564D03*
X108377Y042597D03*
X108377Y042292D03*
X108377Y042020D03*
X107189Y042122D03*
X106985Y042088D03*
X106917Y041274D03*
X106883Y041274D03*
X106883Y041036D03*
X106917Y041036D03*
X106985Y040799D03*
X106883Y040765D03*
X106985Y040561D03*
X106985Y040222D03*
X107189Y040256D03*
X107223Y039102D03*
X108377Y039305D03*
X108614Y039848D03*
X108410Y040086D03*
X105865Y040290D03*
X105763Y040866D03*
X105492Y040833D03*
X105661Y041206D03*
X105763Y041206D03*
X105763Y041749D03*
X105865Y043005D03*
X105763Y044023D03*
X106985Y044023D03*
X107189Y044057D03*
X107189Y044328D03*
X107189Y043751D03*
X106985Y043785D03*
X107189Y043208D03*
X106985Y045143D03*
X107189Y045991D03*
X107189Y046568D03*
X106985Y046534D03*
X106985Y047111D03*
X107189Y047756D03*
X108546Y052542D03*
X108546Y054171D03*
X108546Y057938D03*
X108614Y057938D03*
X108648Y057938D03*
X108716Y057938D03*
X108818Y057938D03*
X108852Y057938D03*
X108886Y057938D03*
X108953Y057938D03*
X109055Y057938D03*
X109089Y057938D03*
X109157Y057938D03*
X109191Y057938D03*
X109293Y057938D03*
X109361Y057938D03*
X109395Y057938D03*
X109429Y057938D03*
X109530Y057938D03*
X108444Y057938D03*
X108410Y057938D03*
X108377Y057938D03*
X108309Y057938D03*
X108207Y057938D03*
X108173Y057938D03*
X108105Y057938D03*
X108071Y057938D03*
X107969Y057938D03*
X107901Y057938D03*
X107867Y057938D03*
X107833Y057938D03*
X107732Y057938D03*
X107664Y057938D03*
X107630Y057938D03*
X107562Y057938D03*
X107460Y057938D03*
X107426Y057938D03*
X107392Y057938D03*
X107324Y057938D03*
X107223Y057938D03*
X107189Y057938D03*
X107121Y057938D03*
X107087Y057938D03*
X106985Y057938D03*
X106917Y057938D03*
X106883Y057938D03*
X106849Y057938D03*
X106747Y057938D03*
X106680Y057938D03*
X106646Y057938D03*
X106578Y057938D03*
X106476Y057938D03*
X106442Y057938D03*
X106408Y057938D03*
X106340Y057938D03*
X106238Y057938D03*
X106204Y057938D03*
X106136Y057938D03*
X106103Y057938D03*
X106001Y057938D03*
X105933Y057938D03*
X105899Y057938D03*
X105865Y057938D03*
X105763Y057938D03*
X105695Y057938D03*
X105661Y057938D03*
X105593Y057938D03*
X105492Y057938D03*
X105458Y057938D03*
X105424Y057938D03*
X105356Y057938D03*
X105254Y057938D03*
X105220Y057938D03*
X105152Y057938D03*
X105118Y057938D03*
X105016Y057938D03*
X104949Y057938D03*
X104915Y057938D03*
X104881Y057938D03*
X104779Y057938D03*
X104711Y057938D03*
X104677Y057938D03*
X104609Y057938D03*
X104507Y057938D03*
X104473Y057938D03*
X104439Y057938D03*
X104372Y057938D03*
X104270Y057938D03*
X104236Y057938D03*
X104168Y057938D03*
X104134Y057938D03*
X104032Y057938D03*
X103964Y057938D03*
X103930Y057938D03*
X103896Y057938D03*
X103795Y057938D03*
X103727Y057938D03*
X103693Y057938D03*
X103625Y057938D03*
X103523Y057938D03*
X103489Y057938D03*
X103455Y057938D03*
X103387Y057938D03*
X103286Y057938D03*
X103252Y057938D03*
X103184Y057938D03*
X103150Y057938D03*
X103048Y057938D03*
X102980Y057938D03*
X102946Y057938D03*
X102912Y057938D03*
X102810Y057938D03*
X102743Y057938D03*
X102709Y057938D03*
X102641Y057938D03*
X102539Y057938D03*
X102505Y057938D03*
X102471Y057938D03*
X102403Y057938D03*
X102301Y057938D03*
X102267Y057938D03*
X102199Y057938D03*
X102166Y057938D03*
X102064Y057938D03*
X101996Y057938D03*
X101962Y057938D03*
X101928Y057938D03*
X101826Y057938D03*
X101758Y057938D03*
X101724Y057938D03*
X101656Y057938D03*
X101555Y057938D03*
X101521Y057938D03*
X101487Y057938D03*
X101419Y057938D03*
X101317Y057938D03*
X101283Y057938D03*
X101215Y057938D03*
X101181Y057938D03*
X101079Y057938D03*
X101012Y057938D03*
X100978Y057938D03*
X100944Y057938D03*
X100842Y057938D03*
X100774Y057938D03*
X100740Y057938D03*
X100672Y057938D03*
X103455Y055121D03*
X101758Y054069D03*
X101758Y052610D03*
X102267Y040629D03*
X102199Y040595D03*
X102166Y040595D03*
X101826Y040391D03*
X101758Y040357D03*
X101724Y040323D03*
X101656Y040290D03*
X101555Y040222D03*
X101521Y040222D03*
X101487Y040188D03*
X101419Y040154D03*
X101317Y040086D03*
X101283Y040086D03*
X101215Y040052D03*
X100978Y039746D03*
X101012Y039713D03*
X101079Y039679D03*
X101181Y039611D03*
X101215Y039611D03*
X101555Y039407D03*
X101656Y039339D03*
X101724Y039305D03*
X101826Y039237D03*
X101928Y039203D03*
X101962Y039170D03*
X102064Y039102D03*
X102166Y039068D03*
X102064Y039814D03*
X101826Y039814D03*
X101758Y039814D03*
X101724Y039814D03*
X105763Y039713D03*
X105763Y029361D03*
X105695Y029361D03*
X105661Y029361D03*
X105593Y029361D03*
X105492Y029361D03*
X105458Y029361D03*
X105424Y029361D03*
X105356Y029361D03*
X105254Y029361D03*
X105220Y029361D03*
X105152Y029361D03*
X105118Y029361D03*
X105016Y029361D03*
X104949Y029361D03*
X104915Y029361D03*
X104881Y029361D03*
X104779Y029361D03*
X104711Y029361D03*
X104677Y029361D03*
X104609Y029361D03*
X104507Y029361D03*
X104473Y029361D03*
X104439Y029361D03*
X104372Y029361D03*
X104270Y029361D03*
X104236Y029361D03*
X104168Y029361D03*
X104134Y029361D03*
X104032Y029361D03*
X103964Y029361D03*
X103930Y029361D03*
X103896Y029361D03*
X103795Y029361D03*
X103727Y029361D03*
X103693Y029361D03*
X103625Y029361D03*
X103523Y029361D03*
X103489Y029361D03*
X103455Y029361D03*
X103387Y029361D03*
X103286Y029361D03*
X103252Y029361D03*
X103184Y029361D03*
X103150Y029361D03*
X103048Y029361D03*
X102980Y029361D03*
X102946Y029361D03*
X102912Y029361D03*
X102810Y029361D03*
X102743Y029361D03*
X102709Y029361D03*
X102641Y029361D03*
X102539Y029361D03*
X102505Y029361D03*
X102471Y029361D03*
X102403Y029361D03*
X102301Y029361D03*
X102267Y029361D03*
X102199Y029361D03*
X102166Y029361D03*
X102064Y029361D03*
X101996Y029361D03*
X101962Y029361D03*
X101928Y029361D03*
X101826Y029361D03*
X101758Y029361D03*
X101724Y029361D03*
X101656Y029361D03*
X101555Y029361D03*
X101521Y029361D03*
X101487Y029361D03*
X101419Y029361D03*
X101317Y029361D03*
X101283Y029361D03*
X101215Y029361D03*
X101181Y029361D03*
X101079Y029361D03*
X101012Y029361D03*
X100978Y029361D03*
X100944Y029361D03*
X100842Y029361D03*
X100774Y029361D03*
X100740Y029361D03*
X100672Y029361D03*
X105865Y029361D03*
X105899Y029361D03*
X105933Y029361D03*
X106001Y029361D03*
X106103Y029361D03*
X106136Y029361D03*
X106204Y029361D03*
X106238Y029361D03*
X106340Y029361D03*
X106408Y029361D03*
X106442Y029361D03*
X106476Y029361D03*
X106578Y029361D03*
X106646Y029361D03*
X106680Y029361D03*
X106747Y029361D03*
X106849Y029361D03*
X106883Y029361D03*
X106917Y029361D03*
X106985Y029361D03*
X107087Y029361D03*
X107121Y029361D03*
X107189Y029361D03*
X107223Y029361D03*
X107324Y029361D03*
X107392Y029361D03*
X107426Y029361D03*
X107460Y029361D03*
X107562Y029361D03*
X107630Y029361D03*
X107664Y029361D03*
X107732Y029361D03*
X107833Y029361D03*
X107867Y029361D03*
X107901Y029361D03*
X107969Y029361D03*
X108071Y029361D03*
X108105Y029361D03*
X108173Y029361D03*
X108207Y029361D03*
X108309Y029361D03*
X108377Y029361D03*
X108410Y029361D03*
X108444Y029361D03*
X108546Y029361D03*
X108614Y029361D03*
X108648Y029361D03*
X108716Y029361D03*
X108818Y029361D03*
X108852Y029361D03*
X108886Y029361D03*
X108953Y029361D03*
X109055Y029361D03*
X109089Y029361D03*
X109157Y029361D03*
X109191Y029361D03*
X109293Y029361D03*
X109361Y029361D03*
X109395Y029361D03*
X109429Y029361D03*
X109530Y029361D03*
D26*
X109530Y038457D03*
X109429Y038457D03*
X109395Y038457D03*
X109361Y038457D03*
X109293Y038457D03*
X109191Y038457D03*
X109157Y038457D03*
X109089Y038457D03*
X109055Y038457D03*
X108953Y038457D03*
X108886Y038457D03*
X108852Y038457D03*
X108818Y038457D03*
X108716Y038457D03*
X108648Y038457D03*
X108614Y038457D03*
X108546Y038457D03*
X108444Y038457D03*
X108410Y038457D03*
X108377Y038457D03*
X108309Y038457D03*
X108207Y038457D03*
X108173Y038457D03*
X108105Y038457D03*
X108071Y038457D03*
X107969Y038457D03*
X107901Y038457D03*
X107867Y038457D03*
X107833Y038457D03*
X107732Y038457D03*
X107664Y038457D03*
X107630Y038457D03*
X107562Y038457D03*
X107460Y038457D03*
X107426Y038457D03*
X107392Y038457D03*
X107324Y038457D03*
X107223Y038457D03*
X107189Y038457D03*
X107121Y038457D03*
X107087Y038457D03*
X106985Y038457D03*
X106917Y038457D03*
X106883Y038457D03*
X106849Y038457D03*
X106747Y038457D03*
X106680Y038457D03*
X106646Y038457D03*
X106578Y038457D03*
X106476Y038457D03*
X106442Y038457D03*
X106408Y038457D03*
X106340Y038457D03*
X106238Y038457D03*
X106204Y038457D03*
X106136Y038457D03*
X106103Y038457D03*
X106001Y038457D03*
X105933Y038457D03*
X105899Y038457D03*
X105865Y038457D03*
X105763Y038457D03*
X105695Y038457D03*
X105661Y038457D03*
X105593Y038457D03*
X105492Y038457D03*
X105458Y038457D03*
X105424Y038457D03*
X105356Y038457D03*
X105254Y038457D03*
X105220Y038457D03*
X105152Y038457D03*
X105118Y038457D03*
X105016Y038457D03*
X104949Y038457D03*
X104915Y038457D03*
X104881Y038457D03*
X104779Y038457D03*
X104711Y038457D03*
X104677Y038457D03*
X104609Y038457D03*
X104507Y038457D03*
X104473Y038457D03*
X104439Y038457D03*
X104372Y038457D03*
X104270Y038457D03*
X104236Y038457D03*
X104168Y038457D03*
X104134Y038457D03*
X104032Y038457D03*
X103964Y038457D03*
X103930Y038457D03*
X103896Y038457D03*
X103795Y038457D03*
X103727Y038457D03*
X103693Y038457D03*
X103625Y038457D03*
X103523Y038457D03*
X103489Y038457D03*
X103455Y038457D03*
X103387Y038457D03*
X103286Y038457D03*
X103252Y038457D03*
X103184Y038457D03*
X103150Y038457D03*
X103048Y038457D03*
X102980Y038457D03*
X102946Y038457D03*
X102912Y038457D03*
X102810Y038457D03*
X102539Y038457D03*
X102505Y038457D03*
X102471Y038457D03*
X102403Y038457D03*
X102301Y038457D03*
X102267Y038457D03*
X102199Y038457D03*
X102166Y038457D03*
X102064Y038457D03*
X101996Y038457D03*
X101962Y038457D03*
X101928Y038457D03*
X101826Y038457D03*
X101758Y038457D03*
X101724Y038457D03*
X101656Y038457D03*
X101555Y038457D03*
X101521Y038457D03*
X101487Y038457D03*
X101419Y038457D03*
X101317Y038457D03*
X101283Y038457D03*
X101215Y038457D03*
X101181Y038457D03*
X101079Y038457D03*
X101012Y038457D03*
X100978Y038457D03*
X100944Y038457D03*
X100842Y038457D03*
X100774Y038457D03*
X100740Y038457D03*
X100672Y038457D03*
X101419Y039475D03*
X101487Y039441D03*
X101317Y039543D03*
X101012Y039916D03*
X100978Y039916D03*
X101181Y040018D03*
X101928Y040459D03*
X101962Y040459D03*
X101996Y040493D03*
X102064Y040527D03*
X102199Y039034D03*
X105763Y039984D03*
X107189Y040527D03*
X108377Y040459D03*
X108377Y041477D03*
X108614Y041477D03*
X107189Y042394D03*
X106985Y042428D03*
X106985Y043446D03*
X107189Y043480D03*
X106985Y044362D03*
X107189Y045414D03*
X106985Y045448D03*
X107189Y046840D03*
X106985Y046874D03*
X106985Y048842D03*
X106917Y048842D03*
X106883Y048842D03*
X106849Y048842D03*
X106747Y048842D03*
X106680Y048842D03*
X106646Y048842D03*
X106578Y048842D03*
X106476Y048842D03*
X106442Y048842D03*
X106408Y048842D03*
X106340Y048842D03*
X106238Y048842D03*
X106204Y048842D03*
X106136Y048842D03*
X106103Y048842D03*
X106001Y048842D03*
X105933Y048842D03*
X105899Y048842D03*
X105865Y048842D03*
X105763Y048842D03*
X105695Y048842D03*
X105661Y048842D03*
X105593Y048842D03*
X105492Y048842D03*
X105458Y048842D03*
X105424Y048842D03*
X105356Y048842D03*
X105254Y048842D03*
X105220Y048842D03*
X105152Y048842D03*
X105118Y048842D03*
X105016Y048842D03*
X104949Y048842D03*
X104915Y048842D03*
X104881Y048842D03*
X104779Y048842D03*
X104711Y048842D03*
X104677Y048842D03*
X104609Y048842D03*
X104507Y048842D03*
X104473Y048842D03*
X104439Y048842D03*
X104372Y048842D03*
X104270Y048842D03*
X104236Y048842D03*
X104168Y048842D03*
X104134Y048842D03*
X104032Y048842D03*
X103964Y048842D03*
X103930Y048842D03*
X103896Y048842D03*
X103795Y048842D03*
X103727Y048842D03*
X103693Y048842D03*
X103625Y048842D03*
X103523Y048842D03*
X103489Y048842D03*
X103455Y048842D03*
X103387Y048842D03*
X103286Y048842D03*
X103252Y048842D03*
X103184Y048842D03*
X103150Y048842D03*
X103048Y048842D03*
X102980Y048842D03*
X102946Y048842D03*
X102912Y048842D03*
X102810Y048842D03*
X107087Y048842D03*
X107121Y048842D03*
X107189Y048842D03*
X107223Y048842D03*
X107324Y048842D03*
X107392Y048842D03*
X107426Y048842D03*
X107460Y048842D03*
X107562Y048842D03*
X107630Y048842D03*
X107664Y048842D03*
X107732Y048842D03*
X107833Y048842D03*
X107867Y048842D03*
X107901Y048842D03*
X107969Y048842D03*
X108071Y048842D03*
X108105Y048842D03*
X108173Y048842D03*
X108207Y048842D03*
X108309Y048842D03*
X108377Y048842D03*
X108410Y048842D03*
X108444Y048842D03*
X108546Y048842D03*
X108614Y048842D03*
X108648Y048842D03*
X108716Y048842D03*
X108818Y048842D03*
X108852Y048842D03*
X108886Y048842D03*
X108953Y048842D03*
X109055Y048842D03*
X109089Y048842D03*
X109157Y048842D03*
X109191Y048842D03*
X109293Y048842D03*
X109361Y048842D03*
X109395Y048842D03*
X109429Y048842D03*
X109530Y048842D03*
X108614Y053764D03*
X101724Y052813D03*
X105763Y043480D03*
X105763Y042971D03*
X105593Y042971D03*
X105763Y041477D03*
X108410Y042869D03*
X108614Y039034D03*
D27*
X107019Y040799D03*
X105560Y039679D03*
X103829Y041138D03*
X105560Y042054D03*
X107290Y041851D03*
X103829Y046195D03*
X101622Y040290D03*
X101385Y040154D03*
X101113Y039645D03*
X100876Y039814D03*
X101622Y039373D03*
X101860Y039237D03*
X102098Y039102D03*
X102098Y029361D03*
X101860Y029361D03*
X101622Y029361D03*
X101385Y029361D03*
X101113Y029361D03*
X100876Y029361D03*
X100638Y029361D03*
X102369Y029361D03*
X102607Y029361D03*
X102844Y029361D03*
X103082Y029361D03*
X103353Y029361D03*
X103591Y029361D03*
X103829Y029361D03*
X104066Y029361D03*
X104338Y029361D03*
X104575Y029361D03*
X104813Y029361D03*
X105050Y029361D03*
X105322Y029361D03*
X105560Y029361D03*
X105797Y029361D03*
X106035Y029361D03*
X106306Y029361D03*
X106544Y029361D03*
X106781Y029361D03*
X107019Y029361D03*
X107290Y029361D03*
X107528Y029361D03*
X107766Y029361D03*
X108003Y029361D03*
X108275Y029361D03*
X108512Y029361D03*
X108750Y029361D03*
X108987Y029361D03*
X109259Y029361D03*
X109497Y029361D03*
X109497Y057938D03*
X109259Y057938D03*
X108987Y057938D03*
X108750Y057938D03*
X108512Y057938D03*
X108275Y057938D03*
X108003Y057938D03*
X107766Y057938D03*
X107528Y057938D03*
X107290Y057938D03*
X107019Y057938D03*
X106781Y057938D03*
X106544Y057938D03*
X106306Y057938D03*
X106035Y057938D03*
X105797Y057938D03*
X105560Y057938D03*
X105322Y057938D03*
X105050Y057938D03*
X104813Y057938D03*
X104575Y057938D03*
X104338Y057938D03*
X104066Y057938D03*
X103829Y057938D03*
X103591Y057938D03*
X103353Y057938D03*
X103082Y057938D03*
X102844Y057938D03*
X102607Y057938D03*
X102369Y057938D03*
X102098Y057938D03*
X101860Y057938D03*
X101622Y057938D03*
X101385Y057938D03*
X101113Y057938D03*
X100876Y057938D03*
X100638Y057938D03*
D28*
X102844Y048842D03*
X103082Y048842D03*
X103353Y048842D03*
X103591Y048842D03*
X103829Y048842D03*
X104066Y048842D03*
X104338Y048842D03*
X104575Y048842D03*
X104813Y048842D03*
X105050Y048842D03*
X105322Y048842D03*
X105560Y048842D03*
X105797Y048842D03*
X106035Y048842D03*
X106306Y048842D03*
X106544Y048842D03*
X106781Y048842D03*
X107019Y048842D03*
X107290Y048842D03*
X107528Y048842D03*
X107766Y048842D03*
X108003Y048842D03*
X108275Y048842D03*
X108512Y048842D03*
X108750Y048842D03*
X108987Y048842D03*
X109259Y048842D03*
X109497Y048842D03*
X107290Y040900D03*
X105560Y040018D03*
X105560Y038457D03*
X105797Y038457D03*
X106035Y038457D03*
X106306Y038457D03*
X106544Y038457D03*
X106781Y038457D03*
X107019Y038457D03*
X107290Y038457D03*
X107528Y038457D03*
X107766Y038457D03*
X108003Y038457D03*
X108275Y038457D03*
X108512Y038457D03*
X108750Y038457D03*
X108987Y038457D03*
X109259Y038457D03*
X109497Y038457D03*
X105322Y038457D03*
X105050Y038457D03*
X104813Y038457D03*
X104575Y038457D03*
X104338Y038457D03*
X104066Y038457D03*
X103829Y038457D03*
X103591Y038457D03*
X103353Y038457D03*
X103082Y038457D03*
X102844Y038457D03*
X102369Y038457D03*
X102098Y038457D03*
X101860Y038457D03*
X101622Y038457D03*
X101385Y038457D03*
X101113Y038457D03*
X100876Y038457D03*
X100638Y038457D03*
X101385Y039509D03*
X101113Y039984D03*
X101860Y040425D03*
X104575Y033094D03*
D29*
X102064Y033892D03*
X106985Y034808D03*
X103693Y039662D03*
X105424Y040239D03*
X105458Y040239D03*
X105492Y040239D03*
X106849Y041800D03*
X106883Y041800D03*
X106917Y041800D03*
X108309Y042207D03*
X108886Y042716D03*
X108377Y040137D03*
X105492Y042105D03*
X105661Y042784D03*
X103964Y046008D03*
X103930Y046551D03*
X101724Y047977D03*
X106917Y047162D03*
X106917Y046246D03*
X106883Y046246D03*
X106849Y046246D03*
X101419Y039831D03*
D30*
X104439Y040222D03*
X106883Y042258D03*
X106883Y043616D03*
X106883Y044193D03*
X108852Y042699D03*
X108309Y039170D03*
X106917Y034791D03*
X105899Y034825D03*
X105593Y033875D03*
X105492Y033841D03*
X105424Y033807D03*
X105356Y033807D03*
X105220Y033773D03*
X105152Y033773D03*
X105118Y033773D03*
X104949Y033807D03*
X104915Y033807D03*
X104881Y033807D03*
X105933Y033298D03*
X106001Y033332D03*
X106103Y033366D03*
X106136Y033366D03*
X106204Y033400D03*
X106238Y033400D03*
X106442Y033400D03*
X106476Y033400D03*
X106646Y033366D03*
X106680Y033332D03*
X102064Y044159D03*
X101996Y047044D03*
X101317Y047044D03*
X101079Y047587D03*
X106103Y052101D03*
D31*
X101215Y047621D03*
X101181Y047621D03*
X106917Y044193D03*
X107223Y044193D03*
X108818Y042699D03*
D32*
X108784Y042547D03*
X108682Y042309D03*
X108580Y042309D03*
X108478Y042309D03*
X108478Y042547D03*
X108478Y042004D03*
X108580Y042004D03*
X108682Y042004D03*
X108682Y041732D03*
X108580Y041732D03*
X108478Y041732D03*
X108343Y041732D03*
X108139Y041732D03*
X108478Y041189D03*
X108580Y041189D03*
X108478Y040680D03*
X108580Y040646D03*
X108343Y040714D03*
X108478Y040069D03*
X108580Y040069D03*
X108682Y040069D03*
X108580Y039322D03*
X107256Y039085D03*
X107053Y039153D03*
X106951Y039186D03*
X106713Y039288D03*
X107053Y039424D03*
X107053Y039696D03*
X107155Y039696D03*
X107256Y039696D03*
X106951Y039696D03*
X106815Y039696D03*
X106713Y039696D03*
X107053Y040205D03*
X107053Y040578D03*
X106951Y040782D03*
X107053Y040816D03*
X107053Y041087D03*
X107155Y041223D03*
X106951Y041257D03*
X106951Y041800D03*
X107053Y041800D03*
X107155Y041800D03*
X107053Y042071D03*
X106815Y041800D03*
X105831Y041766D03*
X105729Y041766D03*
X105627Y041766D03*
X105526Y041766D03*
X105627Y042037D03*
X105729Y042037D03*
X105831Y042037D03*
X105729Y042682D03*
X105729Y042988D03*
X105831Y042988D03*
X105729Y043191D03*
X105627Y043191D03*
X105526Y043225D03*
X105526Y042988D03*
X105729Y043497D03*
X105729Y043700D03*
X105526Y043734D03*
X105526Y044006D03*
X105831Y044277D03*
X106713Y044583D03*
X106815Y044583D03*
X106951Y044583D03*
X107053Y044583D03*
X107155Y044583D03*
X107256Y044583D03*
X107053Y045126D03*
X106815Y045126D03*
X106713Y045126D03*
X107053Y045465D03*
X107155Y045669D03*
X106951Y045703D03*
X106951Y045974D03*
X106951Y046246D03*
X107053Y046246D03*
X107155Y046246D03*
X107256Y046246D03*
X107053Y046517D03*
X106815Y046246D03*
X107053Y047094D03*
X107155Y047094D03*
X107256Y047094D03*
X107155Y047434D03*
X106951Y047468D03*
X106951Y047739D03*
X107053Y044006D03*
X107053Y043802D03*
X107155Y043225D03*
X108682Y043157D03*
X105729Y041223D03*
X105729Y040239D03*
X105627Y040239D03*
X105526Y040239D03*
X105390Y040239D03*
X105627Y040035D03*
X105627Y039662D03*
X105627Y039424D03*
X105729Y039424D03*
X105831Y039424D03*
X105831Y039051D03*
X105729Y039051D03*
X105627Y039051D03*
X105390Y039051D03*
X105288Y039051D03*
X105288Y039424D03*
X105390Y039424D03*
X102233Y039831D03*
X101894Y039831D03*
X104541Y034639D03*
X104541Y033858D03*
X107053Y033247D03*
X107053Y034808D03*
X101894Y052151D03*
X103421Y055138D03*
X108478Y054391D03*
D33*
X108512Y054290D03*
X107019Y046891D03*
X107019Y044379D03*
X107019Y043429D03*
X107019Y042920D03*
X107019Y042445D03*
X105797Y042445D03*
X105560Y042445D03*
X105560Y041460D03*
X106781Y039967D03*
X107019Y039967D03*
X107290Y039967D03*
X107290Y039492D03*
X108275Y040442D03*
X108512Y040510D03*
X108512Y040951D03*
X108275Y040951D03*
X108275Y042886D03*
X108512Y042886D03*
X108750Y042886D03*
D34*
X106849Y042258D03*
X106849Y043616D03*
X106849Y044193D03*
X104473Y044125D03*
X104032Y044091D03*
X103930Y044091D03*
X103930Y043717D03*
X103964Y043684D03*
X104168Y044566D03*
X104032Y044668D03*
X103964Y044736D03*
X103930Y044770D03*
X103964Y045143D03*
X103930Y045177D03*
X103930Y045550D03*
X104032Y045550D03*
X104473Y045584D03*
X104270Y046501D03*
X104473Y046704D03*
X104270Y046976D03*
X103964Y046976D03*
X103795Y046704D03*
X106849Y046704D03*
X108716Y041342D03*
X108716Y039713D03*
X108716Y039170D03*
X105865Y039848D03*
X105424Y039848D03*
X104473Y040222D03*
X103896Y039645D03*
X102166Y039814D03*
X101555Y039814D03*
X101521Y039814D03*
X101487Y039814D03*
X103795Y041783D03*
X104609Y033875D03*
X106985Y033264D03*
X103489Y055121D03*
D35*
X101826Y054324D03*
X101826Y052355D03*
X101928Y052050D03*
X106442Y054120D03*
X106849Y053509D03*
X108444Y054493D03*
X108410Y054595D03*
X108309Y054833D03*
X108444Y052185D03*
X106985Y047773D03*
X106985Y047434D03*
X107121Y047434D03*
X107189Y047468D03*
X107189Y047094D03*
X107223Y047094D03*
X107121Y047094D03*
X107087Y047094D03*
X106883Y047094D03*
X106849Y047094D03*
X106883Y047230D03*
X107087Y046517D03*
X107121Y046517D03*
X107121Y046246D03*
X107087Y046246D03*
X107189Y046246D03*
X107223Y046246D03*
X106985Y046246D03*
X106985Y046008D03*
X106985Y045669D03*
X107121Y045669D03*
X107189Y045703D03*
X107121Y045465D03*
X107087Y045465D03*
X107087Y045126D03*
X107121Y045126D03*
X106849Y045126D03*
X106747Y045126D03*
X106747Y044583D03*
X106849Y044583D03*
X106883Y044583D03*
X106917Y044583D03*
X106985Y044583D03*
X107087Y044583D03*
X107121Y044583D03*
X107189Y044583D03*
X107223Y044583D03*
X107121Y044006D03*
X107087Y044006D03*
X107087Y043802D03*
X107121Y043802D03*
X106985Y043225D03*
X107087Y042071D03*
X107121Y042071D03*
X107121Y041800D03*
X107087Y041800D03*
X107189Y041800D03*
X106985Y041800D03*
X106747Y041800D03*
X106985Y041257D03*
X107087Y041223D03*
X107121Y041223D03*
X107087Y041087D03*
X107087Y040816D03*
X106917Y040782D03*
X107087Y040578D03*
X107121Y040578D03*
X107121Y040205D03*
X107087Y040205D03*
X107087Y039696D03*
X107121Y039696D03*
X107189Y039696D03*
X107223Y039696D03*
X106985Y039696D03*
X106917Y039696D03*
X106883Y039696D03*
X106849Y039696D03*
X106747Y039696D03*
X106883Y039356D03*
X106917Y039356D03*
X106985Y039390D03*
X106917Y039220D03*
X106883Y039220D03*
X106985Y039186D03*
X107189Y039119D03*
X106747Y039288D03*
X105865Y039424D03*
X105763Y039424D03*
X105695Y039424D03*
X105661Y039424D03*
X105492Y039424D03*
X105458Y039424D03*
X105424Y039424D03*
X105356Y039424D03*
X105593Y039662D03*
X105661Y039662D03*
X105695Y039662D03*
X105695Y040035D03*
X105661Y040035D03*
X105593Y040035D03*
X105593Y040239D03*
X105661Y040239D03*
X105695Y040239D03*
X105763Y040239D03*
X105356Y040239D03*
X105424Y040816D03*
X105458Y040816D03*
X105695Y040816D03*
X105695Y041223D03*
X105458Y041189D03*
X105424Y041189D03*
X105424Y041766D03*
X105458Y041766D03*
X105492Y041766D03*
X105593Y041766D03*
X105661Y041766D03*
X105695Y041766D03*
X105865Y041766D03*
X105865Y042037D03*
X105763Y042037D03*
X105695Y042037D03*
X105661Y042037D03*
X105593Y042037D03*
X105458Y042037D03*
X105424Y042037D03*
X105458Y042173D03*
X105695Y042682D03*
X105763Y042682D03*
X105695Y042988D03*
X105661Y042988D03*
X105661Y043191D03*
X105695Y043191D03*
X105763Y043225D03*
X105593Y043191D03*
X105593Y043700D03*
X105695Y043700D03*
X105763Y043734D03*
X105593Y044040D03*
X105865Y044277D03*
X103795Y046212D03*
X108648Y043157D03*
X108716Y043157D03*
X108546Y042547D03*
X108444Y042547D03*
X108444Y042309D03*
X108410Y042309D03*
X108546Y042309D03*
X108614Y042309D03*
X108648Y042309D03*
X108716Y042309D03*
X108716Y042004D03*
X108648Y042004D03*
X108614Y042004D03*
X108546Y042004D03*
X108444Y042004D03*
X108410Y042004D03*
X108309Y042004D03*
X108309Y041732D03*
X108377Y041732D03*
X108410Y041732D03*
X108444Y041732D03*
X108546Y041732D03*
X108614Y041732D03*
X108648Y041732D03*
X108716Y041732D03*
X108207Y041732D03*
X108173Y041732D03*
X108377Y041223D03*
X108410Y041189D03*
X108444Y041189D03*
X108546Y041189D03*
X108614Y041223D03*
X108377Y040714D03*
X108410Y040680D03*
X108444Y040680D03*
X108546Y040646D03*
X108614Y040646D03*
X108309Y040714D03*
X108309Y040205D03*
X108309Y040069D03*
X108444Y040069D03*
X108546Y040069D03*
X108614Y040069D03*
X108648Y040069D03*
X108716Y040069D03*
X108444Y039865D03*
X108410Y039865D03*
X108377Y039831D03*
X108377Y039560D03*
X108614Y039560D03*
X108614Y039322D03*
X108410Y039322D03*
X105865Y039051D03*
X105763Y039051D03*
X105695Y039051D03*
X105661Y039051D03*
X105492Y039051D03*
X105458Y039051D03*
X105424Y039051D03*
X105356Y039051D03*
X103795Y041155D03*
X101928Y039831D03*
D36*
X102267Y039017D03*
X105424Y041460D03*
X105458Y041460D03*
X105492Y041460D03*
X105593Y041460D03*
X105661Y041460D03*
X105695Y041460D03*
X105695Y042445D03*
X105661Y042445D03*
X105593Y042445D03*
X105763Y042445D03*
X105865Y042445D03*
X106985Y042920D03*
X107087Y042920D03*
X107121Y042920D03*
X107189Y042954D03*
X107121Y043429D03*
X107087Y043429D03*
X107087Y044379D03*
X107121Y044379D03*
X108444Y042886D03*
X108546Y042886D03*
X108716Y042886D03*
X107121Y042445D03*
X107087Y042445D03*
X108410Y041494D03*
X108410Y040951D03*
X108377Y040951D03*
X108444Y040951D03*
X108546Y040951D03*
X108614Y040951D03*
X108648Y040951D03*
X108716Y040951D03*
X108309Y040951D03*
X108207Y040951D03*
X108173Y040951D03*
X108309Y040442D03*
X108410Y040476D03*
X108444Y040476D03*
X108546Y040510D03*
X108614Y040510D03*
X108546Y039526D03*
X108444Y039526D03*
X108410Y039526D03*
X108410Y039017D03*
X108377Y039017D03*
X107223Y039458D03*
X107189Y039458D03*
X107189Y039967D03*
X107223Y039967D03*
X107121Y039967D03*
X107087Y039967D03*
X106985Y039967D03*
X106917Y039967D03*
X106883Y039967D03*
X106849Y039967D03*
X106747Y039967D03*
X107087Y046891D03*
X107121Y046891D03*
D37*
X107256Y044193D03*
X107256Y043616D03*
X107256Y042258D03*
X108343Y039170D03*
X108682Y039170D03*
X105967Y034859D03*
X105831Y034791D03*
X105526Y033841D03*
X105390Y033807D03*
X105186Y033773D03*
X104847Y033841D03*
X104745Y033875D03*
X106069Y033366D03*
X106272Y033400D03*
X106510Y033400D03*
X106612Y033366D03*
X106713Y033332D03*
X101249Y041715D03*
X101046Y047587D03*
D38*
X101351Y047061D03*
X101453Y047094D03*
X101792Y047094D03*
X102030Y047027D03*
X101894Y046212D03*
X101690Y046178D03*
X101589Y046178D03*
X102030Y044176D03*
X102132Y042207D03*
X102233Y042173D03*
X102335Y042139D03*
X102030Y041732D03*
X101894Y041766D03*
X101351Y041766D03*
X108478Y039153D03*
X108682Y039696D03*
X105288Y033790D03*
X105084Y033790D03*
X104983Y033790D03*
X104643Y033892D03*
X106170Y033383D03*
X106374Y033417D03*
X107256Y047604D03*
D39*
X104202Y046993D03*
X104100Y046993D03*
X103761Y046993D03*
X103659Y046993D03*
X103557Y046993D03*
X103998Y046517D03*
X104100Y046484D03*
X104202Y046484D03*
X104304Y046517D03*
X104304Y045974D03*
X104406Y045974D03*
X104202Y045974D03*
X104100Y045974D03*
X103863Y045974D03*
X103863Y046178D03*
X103998Y045567D03*
X104202Y045567D03*
X104304Y045126D03*
X103998Y045126D03*
X104100Y044617D03*
X103998Y044108D03*
X104202Y044108D03*
X104304Y043667D03*
X103998Y043667D03*
X104100Y043327D03*
X104202Y043327D03*
X104304Y043327D03*
X104406Y043327D03*
X103863Y043327D03*
X103761Y043327D03*
X103659Y043327D03*
X103557Y043327D03*
X103557Y042750D03*
X103659Y042750D03*
X103761Y042750D03*
X103863Y042750D03*
X104100Y042750D03*
X104202Y042750D03*
X104304Y042750D03*
X104406Y042750D03*
X103863Y041121D03*
X103863Y040069D03*
X103998Y040069D03*
X104100Y040069D03*
X104202Y040069D03*
X104304Y040069D03*
X104202Y039730D03*
X104304Y039696D03*
X103761Y039696D03*
X103761Y039119D03*
X103863Y039119D03*
X104100Y039119D03*
X104202Y039119D03*
X104304Y039119D03*
X105831Y040273D03*
X106815Y039288D03*
X108682Y040578D03*
X107256Y041155D03*
X107256Y041834D03*
X106951Y045160D03*
X101690Y039831D03*
X101046Y039696D03*
X100604Y057921D03*
D40*
X101792Y054222D03*
X108478Y052287D03*
X107053Y046891D03*
X107053Y044379D03*
X107053Y043429D03*
X106951Y042954D03*
X107053Y042920D03*
X107155Y042920D03*
X107053Y042445D03*
X105831Y042445D03*
X105729Y042445D03*
X105627Y042445D03*
X105526Y042445D03*
X105390Y042445D03*
X105526Y041460D03*
X105627Y041460D03*
X105729Y041460D03*
X106713Y039967D03*
X106815Y039967D03*
X106951Y039967D03*
X107053Y039967D03*
X107155Y039967D03*
X107256Y039967D03*
X107256Y039492D03*
X108580Y039526D03*
X108580Y039017D03*
X108343Y040442D03*
X108478Y040476D03*
X108580Y040510D03*
X108580Y040951D03*
X108478Y040951D03*
X108343Y040951D03*
X108139Y040951D03*
X108682Y040951D03*
X108580Y041494D03*
X108478Y042886D03*
X107053Y034028D03*
X104541Y033077D03*
D41*
X104643Y034656D03*
X106951Y034011D03*
X108682Y041342D03*
X105831Y043344D03*
X102335Y044973D03*
X102233Y044973D03*
X102132Y044973D03*
X102030Y044973D03*
X101894Y044973D03*
X101792Y044973D03*
X101690Y044973D03*
X101589Y044973D03*
X101453Y044973D03*
X101351Y044973D03*
X101249Y044973D03*
X101792Y042869D03*
X101690Y042835D03*
X101589Y042801D03*
X101589Y042360D03*
X101351Y042428D03*
X102132Y042971D03*
X101792Y040934D03*
X101690Y040934D03*
X101589Y040934D03*
X101690Y047960D03*
X102335Y048299D03*
X103557Y055121D03*
D42*
X105729Y052389D03*
X102132Y048248D03*
X101249Y046993D03*
X107256Y045262D03*
X108682Y042750D03*
X105831Y041019D03*
X101046Y042580D03*
X105729Y034740D03*
X105627Y034673D03*
X105729Y033960D03*
X105627Y033892D03*
X105831Y033247D03*
X105729Y033179D03*
D43*
X105899Y033281D03*
X106747Y033315D03*
X106849Y034808D03*
X106883Y034808D03*
X105933Y034842D03*
X105865Y034808D03*
X104779Y033858D03*
X107087Y039288D03*
X107121Y039288D03*
X108648Y039186D03*
X108648Y039696D03*
X101215Y041664D03*
X103896Y046076D03*
X103930Y046076D03*
X106917Y047604D03*
X107223Y047604D03*
D44*
X106883Y046704D03*
X104439Y046704D03*
X102064Y046297D03*
X101283Y046263D03*
X101283Y047010D03*
X102199Y048265D03*
X106001Y052168D03*
X105933Y052236D03*
X105899Y052270D03*
X105492Y043344D03*
X105458Y042835D03*
X106917Y043073D03*
X107223Y043073D03*
X108648Y041342D03*
X106883Y040391D03*
X105458Y039848D03*
X102064Y041036D03*
X101317Y041002D03*
X100944Y041376D03*
X101012Y042597D03*
X102064Y043514D03*
X104677Y034689D03*
X104915Y034588D03*
X104949Y034588D03*
X105356Y034588D03*
X105424Y034588D03*
X105492Y034622D03*
X105593Y034656D03*
X105661Y034689D03*
X106001Y034893D03*
X106103Y034927D03*
X106136Y034927D03*
X106340Y034961D03*
X106408Y034961D03*
X106442Y034961D03*
X106476Y034961D03*
X106578Y034927D03*
X106646Y034927D03*
X106680Y034893D03*
X106578Y034146D03*
X106646Y034113D03*
X106680Y034113D03*
X106747Y034079D03*
X106917Y034011D03*
X106136Y034146D03*
X106103Y034146D03*
X106001Y034113D03*
X105899Y034045D03*
X105695Y033162D03*
X105492Y033060D03*
X105458Y033060D03*
X105356Y033026D03*
X104949Y033026D03*
X104915Y033026D03*
X104881Y033060D03*
X104779Y033094D03*
X104677Y033128D03*
X104677Y033909D03*
D45*
X105492Y039848D03*
X106917Y040391D03*
X107223Y040391D03*
X105356Y041002D03*
X106917Y042258D03*
X107223Y042258D03*
X107223Y043616D03*
X106917Y043616D03*
X108648Y042733D03*
X107223Y045279D03*
X106917Y045279D03*
X106917Y046704D03*
X107223Y046704D03*
X102064Y048231D03*
X101215Y046331D03*
X101079Y042597D03*
X105695Y052440D03*
D46*
X104609Y052796D03*
X104507Y052695D03*
X104473Y052661D03*
X104134Y052321D03*
X103727Y051914D03*
X103693Y051880D03*
X103625Y051812D03*
X103523Y051710D03*
X103489Y051676D03*
X103048Y051201D03*
X105458Y053645D03*
X105492Y053679D03*
X105593Y053781D03*
X105933Y054120D03*
X106001Y054188D03*
X106103Y054290D03*
X106136Y054324D03*
X106442Y054629D03*
X106476Y054663D03*
X106578Y054765D03*
X106917Y055104D03*
X107426Y055342D03*
X107460Y055308D03*
X108648Y053339D03*
X107460Y051371D03*
X107426Y051337D03*
X107392Y051303D03*
X102267Y041359D03*
X103930Y039390D03*
X104372Y039390D03*
D47*
X104439Y040510D03*
X104473Y040510D03*
X104270Y040510D03*
X104236Y040510D03*
X104168Y040510D03*
X104134Y040510D03*
X104032Y040510D03*
X103964Y040510D03*
X103930Y040510D03*
X103896Y040510D03*
X103795Y040510D03*
X103795Y040917D03*
X104032Y040917D03*
X104134Y040917D03*
X104168Y040917D03*
X104236Y040917D03*
X104270Y040917D03*
X104372Y040917D03*
X104439Y040917D03*
X104473Y040917D03*
X104473Y041494D03*
X104439Y041494D03*
X104372Y041494D03*
X104270Y041494D03*
X104236Y041494D03*
X104168Y041494D03*
X104134Y041494D03*
X104032Y041494D03*
X103795Y041494D03*
X104032Y041936D03*
X104134Y041936D03*
X104168Y041936D03*
X104236Y041936D03*
X104270Y041936D03*
X104372Y041936D03*
X104439Y041936D03*
X104473Y041936D03*
X105356Y042479D03*
X105424Y043361D03*
X105424Y043870D03*
X106849Y045330D03*
X106849Y045839D03*
X104473Y047332D03*
X104439Y047332D03*
X104372Y047332D03*
X102539Y048825D03*
X102505Y048825D03*
X102471Y048825D03*
X102403Y048825D03*
X102301Y048825D03*
X102267Y048825D03*
X102199Y048825D03*
X102166Y048825D03*
X102064Y048825D03*
X101996Y048825D03*
X101962Y048825D03*
X101928Y048825D03*
X101826Y048825D03*
X101758Y048825D03*
X101724Y048825D03*
X101656Y048825D03*
X101555Y048825D03*
X101521Y048825D03*
X101487Y048825D03*
X101419Y048825D03*
X101317Y048825D03*
X101283Y048825D03*
X101215Y048825D03*
X101181Y048825D03*
X101079Y048825D03*
X101012Y048825D03*
X100978Y048825D03*
X100944Y048825D03*
X100842Y048825D03*
X100774Y048825D03*
X100740Y048825D03*
X100672Y048825D03*
X108377Y042852D03*
X108614Y042852D03*
X106985Y041019D03*
X107189Y040883D03*
X107223Y040883D03*
X108444Y039051D03*
X101521Y039424D03*
X101283Y039560D03*
X101079Y039967D03*
D48*
X101385Y041766D03*
X102098Y042207D03*
X101622Y046178D03*
X101385Y046212D03*
X101385Y047061D03*
X101860Y047094D03*
X108512Y039186D03*
X105322Y033790D03*
X105050Y033790D03*
D49*
X103082Y034469D03*
X102607Y033586D03*
X107019Y036743D03*
X108512Y039696D03*
X105797Y041019D03*
X103829Y043904D03*
X103829Y045364D03*
X105050Y050319D03*
X105322Y050319D03*
D50*
X108512Y052389D03*
X107019Y047773D03*
X107019Y047434D03*
X107019Y047094D03*
X107290Y047094D03*
X107019Y046517D03*
X107019Y046246D03*
X107019Y046008D03*
X107019Y045669D03*
X107019Y045465D03*
X107019Y045126D03*
X106781Y045126D03*
X107290Y045126D03*
X107290Y044583D03*
X107019Y044583D03*
X106781Y044583D03*
X107019Y044006D03*
X107019Y043802D03*
X105797Y044277D03*
X105560Y044040D03*
X105560Y043700D03*
X105560Y043497D03*
X105560Y043191D03*
X105560Y042988D03*
X105560Y042682D03*
X105797Y042037D03*
X105560Y041766D03*
X106781Y041800D03*
X107019Y041800D03*
X107019Y042071D03*
X107019Y041257D03*
X107290Y041155D03*
X107019Y040578D03*
X107019Y040205D03*
X107019Y039696D03*
X106781Y039696D03*
X107019Y039390D03*
X107019Y039186D03*
X107290Y039085D03*
X107290Y039696D03*
X108275Y040069D03*
X108512Y040069D03*
X108512Y040646D03*
X108275Y040714D03*
X108512Y041189D03*
X108512Y041732D03*
X108275Y041732D03*
X108275Y042004D03*
X108512Y042004D03*
X108512Y042309D03*
X108512Y042547D03*
X105560Y040239D03*
X105322Y040239D03*
X105322Y039424D03*
X105322Y039051D03*
X105797Y039051D03*
X105797Y039424D03*
X101860Y039831D03*
X107290Y046246D03*
D51*
X107053Y045839D03*
X105627Y043870D03*
X101147Y042580D03*
X107155Y039288D03*
X108478Y039696D03*
X107800Y037184D03*
X106374Y036370D03*
X105729Y035996D03*
X103319Y034605D03*
X102675Y034231D03*
X106069Y031584D03*
X106713Y031211D03*
X106951Y031075D03*
X107800Y030600D03*
X101249Y047638D03*
X102030Y048214D03*
X104983Y050319D03*
X105288Y050319D03*
X105390Y050319D03*
X104847Y056360D03*
D52*
X103150Y055613D03*
X108410Y053339D03*
X107223Y051133D03*
X102301Y043836D03*
X104439Y039356D03*
D53*
X108377Y053356D03*
X105661Y054069D03*
D54*
X101147Y047604D03*
X108343Y039696D03*
X106815Y034842D03*
X106815Y033281D03*
X105967Y033315D03*
D55*
X101453Y039831D03*
X100910Y039831D03*
X105526Y042105D03*
X105831Y042784D03*
X108343Y040137D03*
X106951Y047162D03*
X101792Y048011D03*
D56*
X102233Y048265D03*
X102030Y046263D03*
X101249Y046297D03*
X105627Y042869D03*
X108343Y041342D03*
X107256Y040391D03*
X105831Y039848D03*
X101249Y041036D03*
X107256Y046704D03*
X106069Y052135D03*
X105967Y052202D03*
X105831Y052304D03*
X106272Y034961D03*
X106374Y034961D03*
X106170Y034927D03*
X106069Y034893D03*
X106612Y034927D03*
X106713Y034893D03*
X106612Y034146D03*
X106713Y034113D03*
X106815Y034045D03*
X106374Y034180D03*
X106170Y034146D03*
X106069Y034113D03*
X105967Y034079D03*
X105831Y034011D03*
X105526Y034622D03*
X105390Y034588D03*
X104847Y034622D03*
X104745Y034656D03*
X104745Y033094D03*
X104847Y033060D03*
X104983Y033026D03*
X105390Y033026D03*
X105526Y033094D03*
X105627Y033128D03*
D57*
X108343Y042156D03*
D58*
X108343Y042733D03*
X103659Y055121D03*
D59*
X108343Y053339D03*
D60*
X106815Y053730D03*
X106713Y053730D03*
X106272Y053730D03*
X106170Y053730D03*
X106069Y053288D03*
X105967Y053255D03*
X106374Y053255D03*
X106612Y053255D03*
X106713Y053288D03*
X106612Y054273D03*
X108343Y054748D03*
X106815Y052270D03*
X106713Y052270D03*
X102776Y050811D03*
X102335Y051320D03*
X102233Y055223D03*
X107053Y040968D03*
D61*
X108309Y039696D03*
X106883Y043090D03*
X104168Y045228D03*
X101996Y044176D03*
X102199Y042173D03*
X102301Y042139D03*
X102064Y041698D03*
X101996Y041732D03*
X101928Y041766D03*
X101317Y041732D03*
X101283Y041732D03*
X101656Y046178D03*
X101724Y046178D03*
X101928Y046212D03*
X101419Y046212D03*
X100944Y046653D03*
X101487Y047094D03*
X101521Y047094D03*
X101826Y047094D03*
X101928Y047061D03*
X101962Y047061D03*
X101012Y047570D03*
X100978Y047570D03*
X106883Y047604D03*
X106136Y052084D03*
X105458Y033824D03*
X105254Y033790D03*
X105016Y033790D03*
X106340Y033417D03*
X106408Y033417D03*
X106578Y033383D03*
X106917Y033247D03*
D62*
X106476Y034163D03*
X106442Y034163D03*
X106408Y034163D03*
X106340Y034163D03*
X106238Y034163D03*
X106204Y034163D03*
X106204Y034944D03*
X106238Y034944D03*
X105458Y034605D03*
X105254Y034571D03*
X105220Y034571D03*
X105152Y034571D03*
X105118Y034571D03*
X105016Y034571D03*
X104881Y034605D03*
X105016Y033009D03*
X105118Y033009D03*
X105152Y033009D03*
X105220Y033009D03*
X105254Y033009D03*
X105424Y033043D03*
X101996Y040985D03*
X101962Y040985D03*
X101826Y040951D03*
X101521Y040951D03*
X101487Y040951D03*
X101419Y040951D03*
X101283Y041019D03*
X100978Y042580D03*
X101521Y042784D03*
X101656Y042818D03*
X101724Y042852D03*
X101758Y042852D03*
X102166Y042988D03*
X102199Y042988D03*
X102267Y043022D03*
X102301Y043022D03*
X101962Y043463D03*
X101928Y043463D03*
X101826Y043463D03*
X101758Y043463D03*
X101724Y043463D03*
X101656Y043463D03*
X101555Y043463D03*
X101521Y043463D03*
X101487Y043463D03*
X101419Y043463D03*
X101317Y043463D03*
X101283Y043463D03*
X101215Y043463D03*
X101181Y043463D03*
X101079Y043463D03*
X101012Y043463D03*
X100978Y043463D03*
X104168Y043768D03*
X104439Y043802D03*
X105458Y043870D03*
X105458Y043361D03*
X104439Y045262D03*
X102301Y045737D03*
X102267Y045737D03*
X102199Y045737D03*
X102166Y045737D03*
X102064Y045737D03*
X101996Y045737D03*
X101962Y045737D03*
X101928Y045737D03*
X101826Y045737D03*
X101758Y045737D03*
X101724Y045737D03*
X101656Y045737D03*
X101555Y045737D03*
X101521Y045737D03*
X101487Y045737D03*
X101419Y045737D03*
X101317Y045737D03*
X101283Y045737D03*
X101215Y045737D03*
X101181Y045737D03*
X101079Y045737D03*
X101012Y045737D03*
X100978Y045737D03*
X101317Y046246D03*
X101962Y046246D03*
X101996Y046246D03*
X102267Y048282D03*
X102301Y048282D03*
X106883Y045839D03*
X108309Y041359D03*
D63*
X108309Y042750D03*
X105492Y042852D03*
X105492Y043870D03*
X106883Y045262D03*
X106917Y045839D03*
X107223Y045839D03*
X102064Y046993D03*
X101215Y046959D03*
X102166Y048248D03*
X105593Y051880D03*
X105865Y052287D03*
X105763Y052355D03*
X103625Y055104D03*
X103896Y041019D03*
X103930Y041019D03*
X105593Y041053D03*
X101215Y041087D03*
X104711Y034673D03*
X104779Y034639D03*
X104711Y033892D03*
X104711Y033111D03*
X105593Y033111D03*
X105661Y033145D03*
X105763Y033213D03*
X105865Y033247D03*
X105695Y033926D03*
X105661Y033926D03*
X105763Y033960D03*
X105865Y034028D03*
X105933Y034062D03*
X105695Y034706D03*
X105763Y034740D03*
X106747Y034876D03*
X106849Y034028D03*
X106883Y033994D03*
X106883Y033247D03*
X106849Y033247D03*
D64*
X108309Y053339D03*
D65*
X107290Y047621D03*
X107290Y046704D03*
X104338Y045143D03*
X104066Y044634D03*
X104338Y043684D03*
X107290Y043616D03*
X107290Y043073D03*
X107290Y042258D03*
X107290Y044193D03*
X104338Y040086D03*
X104338Y039679D03*
X104066Y039679D03*
X102098Y039814D03*
X101622Y039814D03*
X108275Y039170D03*
D66*
X108275Y039696D03*
X106781Y039288D03*
X105797Y040273D03*
X104066Y040069D03*
X103829Y040069D03*
X103829Y039696D03*
X103829Y039119D03*
X104066Y039119D03*
X104338Y039119D03*
X108275Y041359D03*
X108275Y042207D03*
X108275Y042682D03*
X104338Y042750D03*
X104066Y042750D03*
X103829Y042750D03*
X103591Y042750D03*
X103591Y043327D03*
X103829Y043327D03*
X104066Y043327D03*
X104338Y043327D03*
X104338Y045974D03*
X104066Y045974D03*
X103829Y045974D03*
X104066Y046484D03*
X104066Y046993D03*
X103829Y046993D03*
X103591Y046993D03*
X106781Y046280D03*
X107019Y034808D03*
X107019Y033247D03*
X104575Y033858D03*
D67*
X107019Y040968D03*
X108275Y051795D03*
X106781Y052270D03*
X106306Y053288D03*
X106035Y053255D03*
X106781Y053730D03*
D68*
X108275Y053356D03*
D69*
X108241Y053356D03*
D70*
X106815Y053102D03*
X106510Y053441D03*
X106713Y053916D03*
X105967Y053034D03*
X106374Y052627D03*
X106170Y052491D03*
X107698Y050964D03*
X107800Y051065D03*
X107935Y051235D03*
X108139Y051541D03*
X107596Y050862D03*
X107494Y050760D03*
X107358Y050658D03*
X107256Y050556D03*
X107155Y050488D03*
X107053Y050421D03*
X106951Y050353D03*
X106815Y050285D03*
X106713Y050217D03*
X106612Y050183D03*
X106510Y050149D03*
X106374Y050081D03*
X106272Y050047D03*
X106170Y050013D03*
X106069Y049979D03*
X105729Y049911D03*
X105627Y049878D03*
X105526Y049878D03*
X105390Y049878D03*
X105186Y049844D03*
X104847Y049878D03*
X104643Y049911D03*
X104541Y049911D03*
X104406Y049945D03*
X104304Y049979D03*
X103863Y050115D03*
X103761Y050149D03*
X103659Y050217D03*
X103557Y050251D03*
X103319Y050387D03*
X103218Y050454D03*
X103116Y050522D03*
X103014Y050624D03*
X102878Y050726D03*
X102573Y051031D03*
X102233Y051473D03*
X102132Y051642D03*
X102335Y055376D03*
X102437Y055511D03*
X102675Y055783D03*
X102776Y055885D03*
X103014Y056088D03*
X103116Y056156D03*
X103319Y056292D03*
X103421Y056360D03*
X103557Y056428D03*
X103659Y056496D03*
X103761Y056530D03*
X103863Y056564D03*
X103998Y056631D03*
X104100Y056665D03*
X104406Y056733D03*
X104541Y056767D03*
X104643Y056801D03*
X104745Y056801D03*
X104847Y056801D03*
X104983Y056835D03*
X105084Y056835D03*
X105186Y056835D03*
X105288Y056835D03*
X105390Y056835D03*
X105526Y056801D03*
X105729Y056767D03*
X105831Y056767D03*
X105967Y056733D03*
X106170Y056665D03*
X106272Y056631D03*
X106374Y056598D03*
X106510Y056564D03*
X106612Y056496D03*
X106713Y056462D03*
X106815Y056394D03*
X106951Y056326D03*
X107053Y056258D03*
X107155Y056190D03*
X107256Y056122D03*
X107358Y056055D03*
X107494Y055919D03*
X107596Y055817D03*
X107800Y055613D03*
X107935Y055444D03*
X108037Y055308D03*
X108241Y054968D03*
D71*
X108207Y033892D03*
D72*
X108207Y053339D03*
D73*
X108173Y033875D03*
D74*
X108173Y053339D03*
D75*
X108139Y033892D03*
D76*
X108139Y053339D03*
D77*
X108105Y033892D03*
D78*
X108105Y053356D03*
D79*
X108071Y033892D03*
D80*
X108071Y053356D03*
D81*
X106883Y053288D03*
X106849Y053288D03*
X106680Y053288D03*
X106646Y053288D03*
X106578Y053255D03*
X106442Y053255D03*
X106408Y053255D03*
X106340Y053288D03*
X106136Y053288D03*
X106103Y053288D03*
X106001Y053255D03*
X105899Y053255D03*
X105865Y053255D03*
X106136Y053730D03*
X106204Y053730D03*
X106238Y053730D03*
X106747Y053730D03*
X106849Y053730D03*
X108071Y055257D03*
X106883Y052270D03*
X106849Y052270D03*
X106747Y052270D03*
X106680Y052270D03*
X107969Y051286D03*
X102064Y051761D03*
X101962Y054714D03*
X107087Y040968D03*
D82*
X108037Y033875D03*
D83*
X108037Y053339D03*
D84*
X108003Y033892D03*
D85*
X105797Y049911D03*
X106035Y049979D03*
X106306Y050047D03*
X106544Y050149D03*
X106781Y050251D03*
X107290Y050590D03*
X107766Y051031D03*
X108003Y051337D03*
X106781Y052898D03*
X106544Y053238D03*
X106035Y053679D03*
X107766Y055647D03*
X107528Y055885D03*
X107290Y056088D03*
X107019Y056292D03*
X106781Y056428D03*
X106544Y056530D03*
X106306Y056631D03*
X105797Y056767D03*
X105560Y056801D03*
X105322Y056835D03*
X105050Y056835D03*
X104813Y056801D03*
X104575Y056767D03*
X104338Y056733D03*
X103829Y056564D03*
X103591Y056462D03*
X103353Y056326D03*
X103082Y056122D03*
X102844Y055953D03*
X102369Y055410D03*
X102369Y051269D03*
X102844Y050760D03*
X103082Y050556D03*
X103353Y050387D03*
X103591Y050251D03*
X104066Y050047D03*
X104575Y049911D03*
X104813Y049878D03*
D86*
X108003Y053339D03*
D87*
X107969Y033875D03*
D88*
X107969Y053339D03*
D89*
X107935Y033892D03*
D90*
X107935Y052304D03*
X107935Y054408D03*
D91*
X107901Y033892D03*
X107867Y033892D03*
X107833Y033892D03*
D92*
X107901Y052168D03*
D93*
X107901Y054527D03*
D94*
X107867Y054629D03*
X105695Y054086D03*
X104439Y054867D03*
X107867Y052084D03*
D95*
X107833Y051982D03*
X107833Y054697D03*
X104168Y055070D03*
X104134Y055070D03*
X103252Y051235D03*
D96*
X107800Y051914D03*
X102132Y046653D03*
X102030Y042580D03*
D97*
X101147Y044973D03*
X101046Y044973D03*
X103218Y051218D03*
X104100Y055087D03*
X107800Y054782D03*
D98*
X106035Y056241D03*
X105797Y056309D03*
X105560Y056343D03*
X105322Y056377D03*
X105050Y056377D03*
X104813Y056343D03*
X104575Y056309D03*
X104066Y056173D03*
X105560Y051897D03*
X106035Y050438D03*
X105797Y050370D03*
X105560Y050336D03*
X104813Y050336D03*
X104575Y050370D03*
X104338Y050438D03*
X106306Y050539D03*
X107766Y037167D03*
X107528Y037031D03*
X107290Y036896D03*
X106781Y036590D03*
X106544Y036454D03*
X106306Y036319D03*
X106035Y036183D03*
X105797Y036047D03*
X105560Y035911D03*
X105322Y035776D03*
X105050Y035606D03*
X104813Y035470D03*
X104575Y035334D03*
X104338Y035199D03*
X104066Y035029D03*
X103829Y034893D03*
X103591Y034757D03*
X103353Y034622D03*
X102607Y034180D03*
X102844Y033434D03*
X103082Y033298D03*
X103353Y033162D03*
X103591Y033026D03*
X103829Y032891D03*
X104066Y032755D03*
X104338Y032585D03*
X104575Y032449D03*
X104813Y032314D03*
X105050Y032178D03*
X105322Y032008D03*
X105560Y031873D03*
X105797Y031737D03*
X106035Y031601D03*
X106306Y031465D03*
X106544Y031295D03*
X106781Y031160D03*
X107019Y031024D03*
X107290Y030888D03*
X107528Y030752D03*
X107766Y030617D03*
D99*
X107766Y051829D03*
X105797Y054103D03*
X104066Y055087D03*
X107766Y054850D03*
D100*
X105492Y056360D03*
X105458Y056360D03*
X105424Y056360D03*
X104881Y056360D03*
X105661Y052491D03*
X105661Y050353D03*
X105356Y050319D03*
X105152Y050319D03*
X105016Y050319D03*
X104949Y050319D03*
X104915Y050319D03*
X104677Y050353D03*
X101996Y048214D03*
X101283Y047638D03*
X105661Y043870D03*
X107087Y045839D03*
X101181Y042580D03*
X107732Y037150D03*
X106136Y036234D03*
X105492Y035860D03*
X103964Y034978D03*
X103727Y034842D03*
X103489Y033077D03*
X104134Y032704D03*
X105661Y031822D03*
X107732Y030634D03*
D101*
X107732Y051778D03*
D102*
X107732Y054901D03*
X103150Y051235D03*
X102166Y046653D03*
X101928Y042580D03*
X102471Y033892D03*
D103*
X102573Y034180D03*
X102776Y034282D03*
X102878Y034350D03*
X103014Y034418D03*
X103116Y034486D03*
X103218Y034554D03*
X103421Y034656D03*
X103557Y034757D03*
X103659Y034791D03*
X103761Y034859D03*
X103863Y034927D03*
X103998Y034995D03*
X104100Y035063D03*
X104202Y035131D03*
X104304Y035165D03*
X104406Y035233D03*
X104643Y035368D03*
X104745Y035436D03*
X104847Y035504D03*
X104983Y035572D03*
X105084Y035640D03*
X105186Y035674D03*
X105288Y035742D03*
X105390Y035810D03*
X105526Y035877D03*
X105627Y035945D03*
X105831Y036047D03*
X105967Y036149D03*
X106069Y036183D03*
X106170Y036251D03*
X106272Y036319D03*
X106510Y036454D03*
X106612Y036522D03*
X106713Y036556D03*
X106815Y036624D03*
X106951Y036692D03*
X107053Y036760D03*
X107155Y036828D03*
X107256Y036896D03*
X107358Y036930D03*
X107494Y037031D03*
X107596Y037065D03*
X107698Y037133D03*
X104100Y032721D03*
X103998Y032789D03*
X103863Y032857D03*
X103761Y032925D03*
X103659Y032993D03*
X103557Y033026D03*
X103421Y033128D03*
X103319Y033162D03*
X103218Y033230D03*
X103116Y033298D03*
X103014Y033366D03*
X102878Y033434D03*
X102776Y033502D03*
X102675Y033536D03*
X102573Y033603D03*
X102132Y033875D03*
X104202Y032653D03*
X104304Y032619D03*
X104406Y032551D03*
X104541Y032483D03*
X104643Y032416D03*
X104847Y032280D03*
X104983Y032212D03*
X105084Y032144D03*
X105186Y032110D03*
X105288Y032042D03*
X105390Y031974D03*
X105526Y031906D03*
X105627Y031839D03*
X105729Y031771D03*
X105831Y031737D03*
X105967Y031635D03*
X106170Y031533D03*
X106272Y031465D03*
X106374Y031397D03*
X106510Y031329D03*
X106612Y031262D03*
X106815Y031160D03*
X107053Y031024D03*
X107155Y030956D03*
X107256Y030888D03*
X107358Y030854D03*
X107494Y030752D03*
X107596Y030719D03*
X107698Y030651D03*
X105627Y050336D03*
X105526Y050336D03*
X105729Y050370D03*
X105186Y050302D03*
X105084Y050302D03*
X104847Y050336D03*
X104745Y050336D03*
X104643Y050370D03*
X104541Y050370D03*
X104406Y050404D03*
X104304Y050438D03*
X104202Y050471D03*
X104100Y050505D03*
X105627Y052508D03*
X105627Y054442D03*
X105526Y054510D03*
X105729Y056309D03*
X105831Y056309D03*
X105967Y056275D03*
X106069Y056241D03*
X106170Y056207D03*
X105627Y056343D03*
X105526Y056343D03*
X105390Y056377D03*
X105288Y056377D03*
X105186Y056377D03*
X105084Y056377D03*
X104983Y056377D03*
X104745Y056343D03*
X104643Y056343D03*
X104541Y056309D03*
X104406Y056275D03*
X104304Y056241D03*
D104*
X103998Y055087D03*
X105831Y054103D03*
X107698Y051727D03*
X101147Y041376D03*
X102437Y033875D03*
D105*
X102675Y051642D03*
X106272Y054391D03*
X107698Y054968D03*
D106*
X107698Y055715D03*
X106069Y056699D03*
X104202Y056699D03*
X103218Y056224D03*
X103421Y050319D03*
D107*
X104270Y050438D03*
X104439Y050404D03*
X104473Y050404D03*
X104507Y050370D03*
X104609Y050370D03*
X104711Y050336D03*
X104779Y050336D03*
X104881Y050336D03*
X105118Y050302D03*
X105220Y050302D03*
X105254Y050302D03*
X105424Y050336D03*
X105458Y050336D03*
X105492Y050336D03*
X105593Y050336D03*
X105695Y050370D03*
X105763Y050370D03*
X105865Y050404D03*
X105899Y050404D03*
X105933Y050404D03*
X106001Y050438D03*
X106136Y050471D03*
X106238Y050505D03*
X105593Y054476D03*
X103693Y055121D03*
X104168Y056207D03*
X104270Y056241D03*
X104372Y056275D03*
X104439Y056275D03*
X104473Y056309D03*
X104507Y056309D03*
X104609Y056309D03*
X104677Y056343D03*
X104711Y056343D03*
X104779Y056343D03*
X104915Y056377D03*
X104949Y056377D03*
X105016Y056377D03*
X105118Y056377D03*
X105152Y056377D03*
X105220Y056377D03*
X105254Y056377D03*
X105356Y056377D03*
X105593Y056343D03*
X105661Y056343D03*
X105695Y056343D03*
X105763Y056309D03*
X105865Y056309D03*
X105899Y056275D03*
X105933Y056275D03*
X106136Y056207D03*
X101962Y048198D03*
X101928Y048198D03*
X101317Y047654D03*
X101215Y042597D03*
X100978Y041376D03*
X106408Y036386D03*
X106442Y036420D03*
X106476Y036420D03*
X106578Y036488D03*
X106646Y036522D03*
X106680Y036556D03*
X106747Y036590D03*
X106849Y036658D03*
X106883Y036658D03*
X106917Y036692D03*
X106985Y036726D03*
X107087Y036794D03*
X107121Y036794D03*
X107189Y036828D03*
X107223Y036862D03*
X107324Y036930D03*
X107392Y036963D03*
X107426Y036963D03*
X107460Y036997D03*
X107562Y037065D03*
X107630Y037099D03*
X107664Y037099D03*
X106340Y036353D03*
X106103Y036217D03*
X106001Y036149D03*
X105933Y036115D03*
X105899Y036081D03*
X105865Y036081D03*
X105763Y036013D03*
X105695Y035979D03*
X105661Y035945D03*
X105593Y035911D03*
X105458Y035843D03*
X105424Y035810D03*
X105356Y035776D03*
X105254Y035708D03*
X105220Y035708D03*
X105152Y035674D03*
X105118Y035640D03*
X105016Y035572D03*
X104949Y035538D03*
X104915Y035538D03*
X104881Y035504D03*
X104779Y035436D03*
X104711Y035402D03*
X104677Y035402D03*
X104609Y035334D03*
X104473Y035266D03*
X104439Y035266D03*
X104372Y035199D03*
X104270Y035165D03*
X104236Y035131D03*
X104168Y035097D03*
X104134Y035063D03*
X104032Y035029D03*
X103930Y034961D03*
X103896Y034927D03*
X103795Y034893D03*
X103693Y034825D03*
X103625Y034791D03*
X103523Y034723D03*
X103489Y034689D03*
X103455Y034689D03*
X103387Y034656D03*
X103286Y034588D03*
X103252Y034554D03*
X103184Y034520D03*
X103150Y034520D03*
X103048Y034452D03*
X102980Y034418D03*
X102946Y034384D03*
X102912Y034384D03*
X102743Y034282D03*
X102709Y034248D03*
X102641Y034214D03*
X102539Y034146D03*
X102505Y034146D03*
X102505Y033637D03*
X102539Y033637D03*
X102641Y033569D03*
X102709Y033536D03*
X102743Y033502D03*
X102810Y033468D03*
X102912Y033400D03*
X102946Y033400D03*
X102980Y033366D03*
X103150Y033264D03*
X103184Y033264D03*
X103252Y033230D03*
X103286Y033196D03*
X103387Y033128D03*
X103455Y033094D03*
X103523Y033060D03*
X103625Y032993D03*
X103693Y032959D03*
X103727Y032925D03*
X103795Y032891D03*
X103896Y032857D03*
X103930Y032823D03*
X103964Y032789D03*
X104032Y032755D03*
X104168Y032687D03*
X104236Y032653D03*
X104270Y032619D03*
X104372Y032551D03*
X104439Y032517D03*
X104473Y032517D03*
X104507Y032483D03*
X104609Y032416D03*
X104677Y032382D03*
X104711Y032382D03*
X104881Y032280D03*
X104915Y032246D03*
X104949Y032246D03*
X105016Y032178D03*
X105118Y032144D03*
X105152Y032110D03*
X105220Y032076D03*
X105254Y032042D03*
X105356Y032008D03*
X105424Y031974D03*
X105458Y031940D03*
X105492Y031906D03*
X105593Y031873D03*
X105695Y031805D03*
X105763Y031771D03*
X105865Y031703D03*
X105899Y031669D03*
X105933Y031669D03*
X106001Y031635D03*
X106103Y031567D03*
X106136Y031533D03*
X106204Y031499D03*
X106238Y031499D03*
X106340Y031431D03*
X106408Y031397D03*
X106578Y031295D03*
X106646Y031262D03*
X106680Y031228D03*
X106747Y031194D03*
X106849Y031126D03*
X106883Y031126D03*
X106917Y031092D03*
X106985Y031058D03*
X107087Y030990D03*
X107121Y030990D03*
X107189Y030922D03*
X107223Y030922D03*
X107324Y030854D03*
X107392Y030820D03*
X107426Y030786D03*
X107460Y030786D03*
X107562Y030719D03*
X107630Y030685D03*
X107664Y030651D03*
D108*
X102403Y033892D03*
X102199Y041359D03*
X102199Y043836D03*
X107664Y051676D03*
X105865Y054120D03*
X107664Y055036D03*
X102641Y055002D03*
D109*
X102709Y055087D03*
X103964Y055087D03*
X106238Y054375D03*
X107630Y055087D03*
X107630Y051625D03*
X102709Y051591D03*
X101079Y046636D03*
D110*
X107358Y034011D03*
X107494Y034011D03*
X107596Y034011D03*
D111*
X102233Y046636D03*
X107596Y051558D03*
X105390Y054408D03*
X107596Y055121D03*
X102675Y055053D03*
X101690Y053356D03*
D112*
X107324Y034011D03*
X107392Y034011D03*
X107426Y034011D03*
X107460Y034011D03*
X107562Y034011D03*
D113*
X107562Y051507D03*
X105899Y054120D03*
X106204Y054358D03*
X106747Y054901D03*
X103930Y055104D03*
X102743Y051541D03*
D114*
X102743Y055138D03*
X102810Y055240D03*
X107562Y055172D03*
D115*
X107528Y034011D03*
D116*
X107528Y050794D03*
X102607Y055715D03*
D117*
X107528Y051473D03*
X102369Y033892D03*
D118*
X102844Y055291D03*
X107528Y055223D03*
D119*
X106713Y054884D03*
X107494Y051422D03*
X102776Y051490D03*
D120*
X106170Y054341D03*
X107494Y055257D03*
X102878Y055325D03*
X102776Y055189D03*
X103998Y043039D03*
D121*
X104270Y052440D03*
X105424Y053594D03*
X107392Y055393D03*
X102980Y055427D03*
X102946Y055393D03*
D122*
X105967Y054137D03*
X104202Y052372D03*
X103998Y052168D03*
X103014Y051218D03*
X107358Y051252D03*
X101046Y041376D03*
D123*
X107358Y055427D03*
D124*
X107324Y053339D03*
D125*
X107290Y045856D03*
X104338Y044396D03*
X107290Y040391D03*
D126*
X105322Y042479D03*
X104338Y041936D03*
X104066Y041936D03*
X104066Y041494D03*
X103829Y041494D03*
X104338Y041494D03*
X104338Y040917D03*
X104066Y040917D03*
X103829Y040917D03*
X103829Y040510D03*
X104066Y040510D03*
X102098Y040544D03*
X107290Y045330D03*
X104338Y047332D03*
X102369Y048825D03*
X102098Y048825D03*
X101860Y048825D03*
X101622Y048825D03*
X101385Y048825D03*
X101113Y048825D03*
X100876Y048825D03*
X100638Y048825D03*
X104575Y034639D03*
X107019Y034028D03*
D127*
X107290Y053356D03*
D128*
X102573Y048825D03*
X102437Y048825D03*
X102335Y048825D03*
X102233Y048825D03*
X102132Y048825D03*
X102030Y048825D03*
X101894Y048825D03*
X101792Y048825D03*
X101690Y048825D03*
X101589Y048825D03*
X101453Y048825D03*
X101351Y048825D03*
X101249Y048825D03*
X101147Y048825D03*
X101046Y048825D03*
X100910Y048825D03*
X100808Y048825D03*
X100706Y048825D03*
X104406Y047332D03*
X104406Y041936D03*
X104304Y041936D03*
X104202Y041936D03*
X104100Y041936D03*
X103998Y041936D03*
X103998Y041494D03*
X104100Y041494D03*
X104202Y041494D03*
X104304Y041494D03*
X104406Y041494D03*
X104406Y040917D03*
X104304Y040917D03*
X104202Y040917D03*
X104100Y040917D03*
X103863Y040917D03*
X103863Y040510D03*
X103998Y040510D03*
X104100Y040510D03*
X104202Y040510D03*
X106951Y041019D03*
X107256Y040883D03*
D129*
X105627Y041138D03*
X107256Y043073D03*
X101894Y044193D03*
X101792Y044193D03*
X101690Y044193D03*
X101589Y044193D03*
X101453Y044193D03*
X101351Y044193D03*
X101249Y044193D03*
X101147Y044193D03*
X101046Y044193D03*
X101453Y042767D03*
X101351Y042733D03*
X101453Y046195D03*
X101792Y046195D03*
X101894Y047077D03*
X101690Y047111D03*
X101589Y047111D03*
X101589Y047553D03*
X101690Y047553D03*
X101792Y047553D03*
X101894Y047553D03*
X102030Y047553D03*
X102132Y047553D03*
X102233Y047553D03*
X102335Y047553D03*
X101453Y047553D03*
X106951Y034791D03*
X106951Y033264D03*
D130*
X106510Y034163D03*
X106272Y034163D03*
X106510Y034944D03*
X105288Y034571D03*
X105186Y034571D03*
X105084Y034571D03*
X104983Y034571D03*
X104643Y033111D03*
X105084Y033009D03*
X105186Y033009D03*
X105288Y033009D03*
X101894Y040951D03*
X102030Y041019D03*
X101453Y040951D03*
X101351Y040985D03*
X101792Y042309D03*
X101690Y042343D03*
X101453Y042411D03*
X102233Y042988D03*
X102335Y043022D03*
X102030Y043497D03*
X101894Y043463D03*
X101792Y043463D03*
X101690Y043463D03*
X101589Y043463D03*
X101453Y043463D03*
X101351Y043463D03*
X101249Y043463D03*
X101147Y043463D03*
X101046Y043463D03*
X101046Y045737D03*
X101147Y045737D03*
X101249Y045737D03*
X101351Y045737D03*
X101453Y045737D03*
X101589Y045737D03*
X101690Y045737D03*
X101792Y045737D03*
X101894Y045737D03*
X102030Y045737D03*
X102132Y045737D03*
X102233Y045737D03*
X102335Y045737D03*
X101351Y046246D03*
X105831Y043870D03*
X107256Y045839D03*
X105627Y051880D03*
D131*
X107256Y053356D03*
D132*
X107223Y053679D03*
D133*
X105424Y054493D03*
X103048Y055511D03*
X107189Y051099D03*
X102301Y046653D03*
D134*
X107189Y053696D03*
D135*
X104304Y044430D03*
X103998Y040934D03*
X104304Y040493D03*
X105288Y041002D03*
X107155Y040900D03*
D136*
X102233Y033892D03*
X107155Y051065D03*
X103014Y055478D03*
D137*
X107155Y053713D03*
D138*
X101826Y048316D03*
X101758Y048316D03*
X101724Y048316D03*
X101656Y048316D03*
X101555Y048316D03*
X101521Y048316D03*
X101487Y048316D03*
X101419Y048316D03*
X101317Y048316D03*
X101283Y048316D03*
X101215Y048316D03*
X101181Y048316D03*
X101079Y048316D03*
X101012Y048316D03*
X100978Y048316D03*
X101521Y047875D03*
X101656Y047943D03*
X105424Y042445D03*
X105458Y042445D03*
X105492Y042445D03*
X105865Y041019D03*
X107121Y040883D03*
X103964Y040951D03*
X103930Y041528D03*
X106985Y034028D03*
X104609Y033111D03*
D139*
X103896Y041715D03*
X101012Y046636D03*
X107087Y051014D03*
X107121Y051048D03*
D140*
X107121Y053730D03*
X107087Y053730D03*
D141*
X107121Y056224D03*
X106103Y056699D03*
X104270Y056699D03*
X104236Y056699D03*
X102810Y050794D03*
X103455Y050319D03*
X106883Y050319D03*
X104507Y033077D03*
D142*
X104779Y032331D03*
X107087Y047604D03*
D143*
X107053Y047604D03*
D144*
X107053Y050981D03*
X105390Y052881D03*
X103218Y055664D03*
D145*
X107053Y053747D03*
D146*
X107019Y050947D03*
D147*
X107019Y053764D03*
D148*
X105492Y052728D03*
X105458Y052762D03*
X105424Y052830D03*
X105254Y052355D03*
X105356Y052185D03*
X105424Y052084D03*
X105492Y051948D03*
X106985Y050930D03*
X106917Y050862D03*
X106883Y050862D03*
X106849Y050828D03*
X106747Y050760D03*
X103523Y050794D03*
X103387Y050896D03*
X103795Y055104D03*
X103455Y055851D03*
X106849Y055851D03*
X106917Y055817D03*
X103896Y045364D03*
X104372Y044583D03*
X104439Y044583D03*
X104473Y044583D03*
X103896Y043904D03*
X104372Y040307D03*
X104473Y039322D03*
X102199Y033892D03*
D149*
X106985Y053781D03*
D150*
X105526Y052661D03*
X105288Y052287D03*
X105390Y052118D03*
X106951Y050896D03*
X103421Y050862D03*
X103863Y046789D03*
X104406Y046789D03*
X104406Y045364D03*
X104406Y044583D03*
X104406Y043904D03*
X104406Y040307D03*
X103557Y039322D03*
X103761Y055104D03*
X103319Y055749D03*
X103421Y055817D03*
X103557Y055919D03*
X106815Y055885D03*
D151*
X106951Y055410D03*
D152*
X106883Y055070D03*
X106849Y055036D03*
X106408Y054595D03*
X104439Y052627D03*
X104372Y052559D03*
X103930Y052118D03*
X103896Y052084D03*
X103795Y051982D03*
X103455Y051642D03*
X103387Y051574D03*
X102912Y055376D03*
X102301Y033892D03*
X102267Y033892D03*
D153*
X101317Y042597D03*
X104134Y043921D03*
X103896Y044600D03*
X103795Y044600D03*
X104134Y045380D03*
X101419Y047688D03*
X103489Y050811D03*
X103455Y050845D03*
X103625Y050743D03*
X103727Y050675D03*
X103795Y050641D03*
X105220Y052406D03*
X105118Y052576D03*
X106476Y050607D03*
X106646Y050709D03*
X106680Y050709D03*
X106883Y055834D03*
X106747Y055936D03*
X103727Y056004D03*
X103693Y056004D03*
X103523Y055902D03*
X103489Y055868D03*
D154*
X103761Y056038D03*
X106612Y056004D03*
X106713Y055936D03*
X105186Y052474D03*
X105526Y051931D03*
X106612Y050675D03*
X106713Y050743D03*
X106815Y050811D03*
X103863Y050607D03*
X103659Y050709D03*
X103557Y050777D03*
X103863Y044600D03*
X102335Y043819D03*
D155*
X101046Y046653D03*
X103421Y051608D03*
X103761Y051948D03*
X103863Y052050D03*
X104304Y052491D03*
X104406Y052593D03*
X105390Y053577D03*
X106815Y055002D03*
D156*
X102369Y046636D03*
X102098Y044125D03*
X106781Y034859D03*
X105560Y033875D03*
X106035Y033332D03*
X106306Y033400D03*
X106544Y033400D03*
X106781Y033298D03*
X104813Y033841D03*
D157*
X105797Y033994D03*
X105797Y033213D03*
X106781Y034062D03*
X102098Y033892D03*
X105560Y040985D03*
X105797Y043870D03*
X104066Y044006D03*
X104066Y045465D03*
X102098Y046959D03*
X102098Y043531D03*
D158*
X103829Y044600D03*
X103591Y050743D03*
X105322Y052236D03*
X105560Y052610D03*
X106544Y050641D03*
X106781Y050777D03*
X106781Y055902D03*
X106544Y056038D03*
X103829Y056072D03*
X103591Y055936D03*
D159*
X106781Y054968D03*
X104338Y052525D03*
X103829Y052016D03*
D160*
X103964Y052135D03*
X104032Y052202D03*
X104168Y052338D03*
X104236Y052406D03*
X102980Y051252D03*
X102946Y051286D03*
X102912Y051320D03*
X106646Y054816D03*
X106680Y054850D03*
X103964Y039373D03*
X103625Y039373D03*
D161*
X103625Y055970D03*
X106680Y055970D03*
D162*
X106646Y055987D03*
X106578Y056021D03*
X106476Y056088D03*
X106442Y056088D03*
X106408Y056122D03*
X106340Y056122D03*
X106238Y056190D03*
X106204Y056190D03*
X106103Y056224D03*
X106001Y056258D03*
X104236Y056224D03*
X104134Y056190D03*
X104032Y056156D03*
X103964Y056122D03*
X103930Y056122D03*
X103896Y056088D03*
X103795Y056055D03*
X103727Y055104D03*
X105458Y054527D03*
X105492Y054527D03*
X105593Y052559D03*
X106408Y050590D03*
X106442Y050590D03*
X106578Y050658D03*
X106204Y050488D03*
X106103Y050454D03*
X104372Y050421D03*
X104236Y050454D03*
X104168Y050488D03*
X104134Y050488D03*
X104032Y050522D03*
X103930Y050590D03*
X103896Y050590D03*
X103693Y050692D03*
X100978Y046653D03*
X101283Y042580D03*
X102166Y033892D03*
D163*
X103659Y039390D03*
X103998Y039390D03*
X104406Y039390D03*
X102878Y051371D03*
X103557Y051744D03*
X103659Y051846D03*
X104100Y052287D03*
X104541Y052728D03*
X104643Y052830D03*
X105526Y053713D03*
X105627Y053815D03*
X106069Y054256D03*
X106510Y054697D03*
X106612Y054799D03*
X103863Y055104D03*
D164*
X103591Y055121D03*
X105797Y052338D03*
X106035Y052168D03*
X103829Y046704D03*
X102369Y043819D03*
X105797Y043344D03*
X105322Y041002D03*
X103829Y041783D03*
X102369Y041376D03*
X104813Y034622D03*
X105560Y034656D03*
X106035Y034893D03*
X106306Y034961D03*
X106544Y034146D03*
X106035Y034113D03*
X105560Y033094D03*
X105322Y033026D03*
X104813Y033060D03*
D165*
X105050Y033009D03*
X106306Y034163D03*
X106544Y034944D03*
X105322Y034571D03*
X105050Y034571D03*
X101860Y040951D03*
X101385Y040985D03*
X101622Y042818D03*
X102098Y042954D03*
X101860Y043463D03*
X101622Y043463D03*
X101385Y043463D03*
X101113Y043463D03*
X101113Y045737D03*
X101385Y045737D03*
X101622Y045737D03*
X101860Y045737D03*
X102098Y045737D03*
D166*
X102844Y051405D03*
X103591Y051778D03*
X104575Y052762D03*
X105560Y053747D03*
X106035Y054222D03*
X106544Y054731D03*
D167*
X106510Y056055D03*
X106374Y056122D03*
X106272Y056156D03*
X104202Y056224D03*
X104100Y056190D03*
X103998Y056156D03*
X103863Y056088D03*
X103761Y050658D03*
X105831Y050387D03*
X105967Y050421D03*
X106069Y050454D03*
X106170Y050488D03*
X106272Y050522D03*
X106510Y050624D03*
X101894Y048181D03*
X101351Y047671D03*
X102335Y046653D03*
X103863Y045364D03*
X104100Y045397D03*
X104100Y043938D03*
X103863Y043904D03*
X101249Y042580D03*
X102335Y041359D03*
D168*
X105593Y039237D03*
X106204Y036285D03*
X106238Y036285D03*
X104507Y035300D03*
X102810Y034316D03*
X103048Y033332D03*
X106442Y031363D03*
X106476Y031363D03*
D169*
X106374Y050556D03*
X103998Y050556D03*
D170*
X106374Y054459D03*
X102573Y054867D03*
X101147Y046653D03*
X102132Y043836D03*
X101894Y042580D03*
X102132Y041359D03*
D171*
X103964Y050556D03*
X106340Y050556D03*
D172*
X102641Y051693D03*
X101928Y053356D03*
X104032Y055087D03*
X106340Y054442D03*
X102199Y046636D03*
X102166Y043819D03*
X101826Y042597D03*
X102166Y041376D03*
D173*
X101860Y042597D03*
X101113Y046636D03*
X106306Y054408D03*
D174*
X106306Y056156D03*
X104338Y056258D03*
X103829Y050624D03*
X104066Y050522D03*
X101385Y047671D03*
D175*
X103998Y046976D03*
X103998Y045991D03*
X104304Y045550D03*
X104202Y045143D03*
X103998Y044702D03*
X104202Y044532D03*
X104304Y044091D03*
X104202Y043684D03*
X104100Y039713D03*
X103863Y039679D03*
X102132Y039814D03*
X101589Y039814D03*
X101351Y039814D03*
X106170Y052067D03*
D176*
X101792Y048316D03*
X101690Y048316D03*
X101589Y048316D03*
X101453Y048316D03*
X101351Y048316D03*
X101249Y048316D03*
X101147Y048316D03*
X101046Y048316D03*
X101453Y047841D03*
X101589Y047909D03*
X104304Y046959D03*
X105831Y041562D03*
X105526Y040883D03*
D177*
X102098Y041664D03*
X101113Y047604D03*
X105797Y034774D03*
D178*
X105797Y039848D03*
X105797Y041613D03*
X105797Y042835D03*
X102098Y041070D03*
X101113Y042597D03*
X102098Y046331D03*
X102098Y048231D03*
D179*
X101215Y044973D03*
X101181Y044973D03*
X101079Y044973D03*
X101012Y044973D03*
X100978Y044973D03*
X102064Y042597D03*
X102505Y051965D03*
X105763Y054103D03*
D180*
X105729Y054086D03*
D181*
X105560Y039237D03*
X102844Y034316D03*
D182*
X105560Y054493D03*
D183*
X105526Y039237D03*
X104541Y035300D03*
X104745Y032348D03*
D184*
X105458Y052016D03*
X105152Y052525D03*
D185*
X105356Y053747D03*
D186*
X105322Y053781D03*
D187*
X105288Y053815D03*
D188*
X105254Y053848D03*
D189*
X105220Y053899D03*
D190*
X105186Y053933D03*
D191*
X105152Y053967D03*
D192*
X105118Y053984D03*
X102064Y053339D03*
D193*
X105084Y053458D03*
D194*
X105050Y053458D03*
D195*
X105016Y053441D03*
D196*
X104983Y053458D03*
D197*
X104949Y053458D03*
X104915Y053458D03*
D198*
X104881Y053475D03*
D199*
X104847Y053577D03*
D200*
X104813Y053679D03*
D201*
X104779Y053815D03*
D202*
X104745Y053916D03*
D203*
X104711Y053899D03*
D204*
X104677Y053899D03*
D205*
X104643Y054256D03*
D206*
X104609Y054391D03*
D207*
X104575Y054510D03*
D208*
X104541Y054612D03*
D209*
X104507Y054731D03*
X101962Y053339D03*
D210*
X104473Y054833D03*
D211*
X104406Y054901D03*
D212*
X103387Y055800D03*
X103286Y055732D03*
X103252Y055698D03*
X103184Y055630D03*
X103896Y046772D03*
X104372Y046772D03*
X104372Y045347D03*
X104372Y043887D03*
X102301Y041376D03*
X101012Y041376D03*
D213*
X102471Y052033D03*
X102471Y054646D03*
X104236Y055019D03*
X104270Y054985D03*
X104372Y054918D03*
D214*
X101860Y048316D03*
X101622Y048316D03*
X101385Y048316D03*
X101113Y048316D03*
X104338Y040476D03*
D215*
X101385Y042733D03*
X101385Y044193D03*
X101622Y044193D03*
X101860Y044193D03*
X101113Y044193D03*
X101860Y046195D03*
X101622Y047111D03*
X101622Y047553D03*
X101860Y047553D03*
X102098Y047553D03*
X104338Y044057D03*
D216*
X104338Y045516D03*
X104338Y046942D03*
X101622Y047926D03*
X101622Y044973D03*
X101385Y044973D03*
X101860Y044973D03*
X102098Y044973D03*
X101385Y042428D03*
X101622Y042360D03*
X101622Y040934D03*
D217*
X101385Y039831D03*
X104338Y046551D03*
X101860Y048045D03*
D218*
X104338Y054951D03*
D219*
X104304Y054985D03*
X104202Y055053D03*
D220*
X104066Y052236D03*
D221*
X102267Y043819D03*
X103930Y043039D03*
X103964Y043039D03*
X104032Y043039D03*
X101079Y041376D03*
X104032Y039407D03*
D222*
X101928Y040968D03*
X101758Y040934D03*
X101724Y040934D03*
X101656Y040934D03*
X101555Y040934D03*
X101724Y042326D03*
X101758Y042326D03*
X101656Y042360D03*
X101555Y042394D03*
X101521Y042394D03*
X101487Y042394D03*
X101419Y042428D03*
X101555Y042801D03*
X101996Y043480D03*
X101996Y044973D03*
X101962Y044973D03*
X101928Y044973D03*
X101826Y044973D03*
X101758Y044973D03*
X101724Y044973D03*
X101656Y044973D03*
X101555Y044973D03*
X101521Y044973D03*
X101487Y044973D03*
X101419Y044973D03*
X101317Y044973D03*
X101283Y044973D03*
X102064Y044973D03*
X102166Y044973D03*
X102199Y044973D03*
X102267Y044973D03*
X102301Y044973D03*
X103795Y045347D03*
X103795Y043887D03*
X103930Y046942D03*
X101555Y047892D03*
X101487Y047858D03*
X103523Y055121D03*
D223*
X103896Y055087D03*
X102810Y051456D03*
X102267Y046636D03*
D224*
X103863Y041698D03*
D225*
X103591Y039356D03*
X103829Y055104D03*
D226*
X103659Y055970D03*
D227*
X103353Y051252D03*
D228*
X103353Y055783D03*
D229*
X103319Y051235D03*
D230*
X103286Y051235D03*
D231*
X103184Y051235D03*
X102539Y051880D03*
X101181Y046653D03*
X101996Y042580D03*
D232*
X103116Y051218D03*
D233*
X103116Y055579D03*
D234*
X103082Y051201D03*
D235*
X103082Y055545D03*
D236*
X102743Y043650D03*
X102709Y043650D03*
X102641Y043650D03*
D237*
X102675Y043650D03*
D238*
X102607Y043650D03*
D239*
X102607Y051761D03*
D240*
X102607Y054935D03*
D241*
X102573Y051812D03*
D242*
X102539Y054816D03*
X101962Y042597D03*
X101181Y041376D03*
D243*
X102505Y054748D03*
D244*
X102437Y052118D03*
D245*
X102437Y054578D03*
D246*
X102403Y039814D03*
D247*
X102403Y052236D03*
D248*
X102403Y054459D03*
D249*
X102369Y039814D03*
D250*
X102369Y052406D03*
D251*
X102369Y054290D03*
D252*
X102335Y033892D03*
D253*
X102335Y039814D03*
D254*
X102335Y053339D03*
D255*
X102301Y039831D03*
D256*
X100944Y039814D03*
X101419Y041783D03*
X101962Y041749D03*
X102166Y042190D03*
X102267Y042156D03*
X101487Y042767D03*
X101419Y042767D03*
X101419Y044193D03*
X101487Y044193D03*
X101521Y044193D03*
X101555Y044193D03*
X101656Y044193D03*
X101724Y044193D03*
X101758Y044193D03*
X101826Y044193D03*
X101928Y044193D03*
X101962Y044193D03*
X101317Y044193D03*
X101283Y044193D03*
X101215Y044193D03*
X101181Y044193D03*
X101079Y044193D03*
X101012Y044193D03*
X100978Y044193D03*
X101487Y046195D03*
X101521Y046195D03*
X101555Y046195D03*
X101758Y046195D03*
X101826Y046195D03*
X101758Y047111D03*
X101724Y047111D03*
X101656Y047111D03*
X101555Y047111D03*
X101419Y047077D03*
X101487Y047553D03*
X101521Y047553D03*
X101555Y047553D03*
X101656Y047553D03*
X101724Y047553D03*
X101758Y047553D03*
X101826Y047553D03*
X101928Y047553D03*
X101962Y047553D03*
X101996Y047553D03*
X102064Y047553D03*
X102166Y047553D03*
X102199Y047553D03*
X102267Y047553D03*
X102301Y047553D03*
X101826Y048028D03*
X101758Y047994D03*
D257*
X102301Y053339D03*
D258*
X102267Y053339D03*
D259*
X102233Y043836D03*
X102233Y041359D03*
D260*
X102233Y053339D03*
D261*
X102199Y053339D03*
D262*
X102166Y053339D03*
D263*
X102132Y053356D03*
D264*
X102098Y053339D03*
D265*
X102030Y053339D03*
D266*
X101996Y053339D03*
D267*
X101113Y041376D03*
D268*
X101113Y044973D03*
D269*
X100604Y043650D03*
D270*
X100129Y043650D03*
M02*
