G75*
%MOIN*%
%OFA0B0*%
%FSLAX24Y24*%
%IPPOS*%
%LPD*%
%AMOC8*
5,1,8,0,0,1.08239X$1,22.5*
%
%ADD10C,0.0000*%
%ADD11C,0.1063*%
%ADD12R,0.0317X0.0317*%
%ADD13C,0.0400*%
%ADD14C,0.0120*%
%ADD15C,0.0280*%
%ADD16C,0.0160*%
D10*
X012470Y011579D02*
X017193Y011579D01*
X017193Y011578D02*
X017259Y011576D01*
X017325Y011571D01*
X017391Y011561D01*
X017456Y011548D01*
X017520Y011532D01*
X017583Y011512D01*
X017645Y011488D01*
X017705Y011461D01*
X017764Y011431D01*
X017821Y011397D01*
X017876Y011360D01*
X017929Y011320D01*
X017980Y011278D01*
X018028Y011232D01*
X018074Y011184D01*
X018116Y011133D01*
X018156Y011080D01*
X018193Y011025D01*
X018227Y010968D01*
X018257Y010909D01*
X018284Y010849D01*
X018308Y010787D01*
X018328Y010724D01*
X018344Y010660D01*
X018357Y010595D01*
X018367Y010529D01*
X018372Y010463D01*
X018374Y010397D01*
X018374Y005674D01*
X018375Y005674D02*
X018377Y005608D01*
X018382Y005542D01*
X018392Y005476D01*
X018405Y005411D01*
X018421Y005347D01*
X018441Y005284D01*
X018465Y005222D01*
X018492Y005162D01*
X018522Y005103D01*
X018556Y005046D01*
X018593Y004991D01*
X018633Y004938D01*
X018675Y004887D01*
X018721Y004839D01*
X018769Y004793D01*
X018820Y004751D01*
X018873Y004711D01*
X018928Y004674D01*
X018985Y004640D01*
X019044Y004610D01*
X019104Y004583D01*
X019166Y004559D01*
X019229Y004539D01*
X019293Y004523D01*
X019358Y004510D01*
X019424Y004500D01*
X019490Y004495D01*
X019556Y004493D01*
X122312Y004493D01*
X122378Y004495D01*
X122444Y004500D01*
X122510Y004510D01*
X122575Y004523D01*
X122639Y004539D01*
X122702Y004559D01*
X122764Y004583D01*
X122824Y004610D01*
X122883Y004640D01*
X122940Y004674D01*
X122995Y004711D01*
X123048Y004751D01*
X123099Y004793D01*
X123147Y004839D01*
X123193Y004887D01*
X123235Y004938D01*
X123275Y004991D01*
X123312Y005046D01*
X123346Y005103D01*
X123376Y005162D01*
X123403Y005222D01*
X123427Y005284D01*
X123447Y005347D01*
X123463Y005411D01*
X123476Y005476D01*
X123486Y005542D01*
X123491Y005608D01*
X123493Y005674D01*
X123493Y038745D01*
X123491Y038811D01*
X123486Y038877D01*
X123476Y038943D01*
X123463Y039008D01*
X123447Y039072D01*
X123427Y039135D01*
X123403Y039197D01*
X123376Y039257D01*
X123346Y039316D01*
X123312Y039373D01*
X123275Y039428D01*
X123235Y039481D01*
X123193Y039532D01*
X123147Y039580D01*
X123099Y039626D01*
X123048Y039668D01*
X122995Y039708D01*
X122940Y039745D01*
X122883Y039779D01*
X122824Y039809D01*
X122764Y039836D01*
X122702Y039860D01*
X122639Y039880D01*
X122575Y039896D01*
X122510Y039909D01*
X122444Y039919D01*
X122378Y039924D01*
X122312Y039926D01*
X117588Y039926D01*
X117523Y039931D01*
X117458Y039940D01*
X117394Y039953D01*
X117331Y039970D01*
X117269Y039990D01*
X117208Y040014D01*
X117149Y040041D01*
X117091Y040072D01*
X117035Y040106D01*
X116982Y040143D01*
X116930Y040183D01*
X116881Y040227D01*
X116835Y040273D01*
X116791Y040321D01*
X116750Y040372D01*
X116713Y040425D01*
X116678Y040481D01*
X116647Y040538D01*
X116619Y040597D01*
X116595Y040658D01*
X116574Y040720D01*
X116557Y040783D01*
X116543Y040847D01*
X116533Y040911D01*
X116527Y040976D01*
X116525Y041042D01*
X116527Y041107D01*
X116527Y045832D01*
X116525Y045897D01*
X116527Y045963D01*
X116533Y046028D01*
X116543Y046092D01*
X116557Y046156D01*
X116574Y046219D01*
X116595Y046281D01*
X116619Y046342D01*
X116647Y046401D01*
X116678Y046458D01*
X116713Y046514D01*
X116750Y046567D01*
X116791Y046618D01*
X116835Y046666D01*
X116881Y046712D01*
X116930Y046756D01*
X116982Y046796D01*
X117035Y046833D01*
X117091Y046867D01*
X117149Y046898D01*
X117208Y046925D01*
X117269Y046949D01*
X117331Y046969D01*
X117394Y046986D01*
X117458Y046999D01*
X117523Y047008D01*
X117588Y047013D01*
X122509Y047013D01*
X122571Y047015D01*
X122632Y047021D01*
X122693Y047030D01*
X122754Y047044D01*
X122813Y047061D01*
X122871Y047082D01*
X122928Y047107D01*
X122983Y047135D01*
X123036Y047166D01*
X123087Y047201D01*
X123136Y047239D01*
X123183Y047280D01*
X123226Y047323D01*
X123267Y047370D01*
X123305Y047419D01*
X123340Y047470D01*
X123371Y047523D01*
X123399Y047578D01*
X123424Y047635D01*
X123445Y047693D01*
X123462Y047752D01*
X123476Y047813D01*
X123485Y047874D01*
X123491Y047935D01*
X123493Y047997D01*
X123490Y047879D02*
X123490Y081263D01*
X123493Y081265D02*
X123491Y081331D01*
X123486Y081397D01*
X123476Y081463D01*
X123463Y081528D01*
X123447Y081592D01*
X123427Y081655D01*
X123403Y081717D01*
X123376Y081777D01*
X123346Y081836D01*
X123312Y081893D01*
X123275Y081948D01*
X123235Y082001D01*
X123193Y082052D01*
X123147Y082100D01*
X123099Y082146D01*
X123048Y082188D01*
X122995Y082228D01*
X122940Y082265D01*
X122883Y082299D01*
X122824Y082329D01*
X122764Y082356D01*
X122702Y082380D01*
X122639Y082400D01*
X122575Y082416D01*
X122510Y082429D01*
X122444Y082439D01*
X122378Y082444D01*
X122312Y082446D01*
X019556Y082446D01*
X019555Y082444D02*
X019489Y082442D01*
X019423Y082437D01*
X019357Y082427D01*
X019292Y082414D01*
X019228Y082398D01*
X019165Y082378D01*
X019103Y082354D01*
X019043Y082327D01*
X018984Y082297D01*
X018927Y082263D01*
X018872Y082226D01*
X018819Y082186D01*
X018768Y082144D01*
X018720Y082098D01*
X018674Y082050D01*
X018632Y081999D01*
X018592Y081946D01*
X018555Y081891D01*
X018521Y081834D01*
X018491Y081775D01*
X018464Y081715D01*
X018440Y081653D01*
X018420Y081590D01*
X018404Y081526D01*
X018391Y081461D01*
X018381Y081395D01*
X018376Y081329D01*
X018374Y081263D01*
X018374Y076579D01*
X018375Y076737D02*
X018375Y076147D01*
X018373Y076093D01*
X018368Y076040D01*
X018359Y075987D01*
X018346Y075935D01*
X018330Y075883D01*
X018310Y075833D01*
X018287Y075785D01*
X018260Y075738D01*
X018231Y075693D01*
X018198Y075650D01*
X018163Y075610D01*
X018125Y075572D01*
X018085Y075537D01*
X018042Y075504D01*
X017997Y075475D01*
X017950Y075448D01*
X017902Y075425D01*
X017852Y075405D01*
X017800Y075389D01*
X017748Y075376D01*
X017695Y075367D01*
X017642Y075362D01*
X017588Y075360D01*
X017588Y075359D02*
X012470Y075359D01*
X012404Y075357D01*
X012338Y075352D01*
X012272Y075342D01*
X012207Y075329D01*
X012143Y075313D01*
X012080Y075293D01*
X012018Y075269D01*
X011958Y075242D01*
X011899Y075212D01*
X011842Y075178D01*
X011787Y075141D01*
X011734Y075101D01*
X011683Y075059D01*
X011635Y075013D01*
X011589Y074965D01*
X011547Y074914D01*
X011507Y074861D01*
X011470Y074806D01*
X011436Y074749D01*
X011406Y074690D01*
X011379Y074630D01*
X011355Y074568D01*
X011335Y074505D01*
X011319Y074441D01*
X011306Y074376D01*
X011296Y074310D01*
X011291Y074244D01*
X011289Y074178D01*
X011289Y065123D01*
X011288Y065123D02*
X011286Y065057D01*
X011281Y064991D01*
X011271Y064925D01*
X011258Y064860D01*
X011242Y064796D01*
X011222Y064733D01*
X011198Y064671D01*
X011171Y064611D01*
X011141Y064552D01*
X011107Y064495D01*
X011070Y064440D01*
X011030Y064387D01*
X010988Y064336D01*
X010942Y064288D01*
X010894Y064242D01*
X010843Y064200D01*
X010790Y064160D01*
X010735Y064123D01*
X010678Y064089D01*
X010619Y064059D01*
X010559Y064032D01*
X010497Y064008D01*
X010434Y063988D01*
X010370Y063972D01*
X010305Y063959D01*
X010239Y063949D01*
X010173Y063944D01*
X010107Y063942D01*
X004596Y063942D01*
X004530Y063940D01*
X004464Y063935D01*
X004398Y063925D01*
X004333Y063912D01*
X004269Y063896D01*
X004206Y063876D01*
X004144Y063852D01*
X004084Y063825D01*
X004025Y063795D01*
X003968Y063761D01*
X003913Y063724D01*
X003860Y063684D01*
X003809Y063642D01*
X003761Y063596D01*
X003715Y063548D01*
X003673Y063497D01*
X003633Y063444D01*
X003596Y063389D01*
X003562Y063332D01*
X003532Y063273D01*
X003505Y063213D01*
X003481Y063151D01*
X003461Y063088D01*
X003445Y063024D01*
X003432Y062959D01*
X003422Y062893D01*
X003417Y062827D01*
X003415Y062761D01*
X003415Y054100D01*
X003417Y054034D01*
X003422Y053968D01*
X003432Y053902D01*
X003445Y053837D01*
X003461Y053773D01*
X003481Y053710D01*
X003505Y053648D01*
X003532Y053588D01*
X003562Y053529D01*
X003596Y053472D01*
X003633Y053417D01*
X003673Y053364D01*
X003715Y053313D01*
X003761Y053265D01*
X003809Y053219D01*
X003860Y053177D01*
X003913Y053137D01*
X003968Y053100D01*
X004025Y053066D01*
X004084Y053036D01*
X004144Y053009D01*
X004206Y052985D01*
X004269Y052965D01*
X004333Y052949D01*
X004398Y052936D01*
X004464Y052926D01*
X004530Y052921D01*
X004596Y052919D01*
X010107Y052919D01*
X010107Y052918D02*
X010173Y052916D01*
X010239Y052911D01*
X010305Y052901D01*
X010370Y052888D01*
X010434Y052872D01*
X010497Y052852D01*
X010559Y052828D01*
X010619Y052801D01*
X010678Y052771D01*
X010735Y052737D01*
X010790Y052700D01*
X010843Y052660D01*
X010894Y052618D01*
X010942Y052572D01*
X010988Y052524D01*
X011030Y052473D01*
X011070Y052420D01*
X011107Y052365D01*
X011141Y052308D01*
X011171Y052249D01*
X011198Y052189D01*
X011222Y052127D01*
X011242Y052064D01*
X011258Y052000D01*
X011271Y051935D01*
X011281Y051869D01*
X011286Y051803D01*
X011288Y051737D01*
X011289Y051737D02*
X011289Y012760D01*
X011291Y012694D01*
X011296Y012628D01*
X011306Y012562D01*
X011319Y012497D01*
X011335Y012433D01*
X011355Y012370D01*
X011379Y012308D01*
X011406Y012248D01*
X011436Y012189D01*
X011470Y012132D01*
X011507Y012077D01*
X011547Y012024D01*
X011589Y011973D01*
X011635Y011925D01*
X011683Y011879D01*
X011734Y011837D01*
X011787Y011797D01*
X011842Y011760D01*
X011899Y011726D01*
X011958Y011696D01*
X012018Y011669D01*
X012080Y011645D01*
X012143Y011625D01*
X012207Y011609D01*
X012272Y011596D01*
X012338Y011586D01*
X012404Y011581D01*
X012470Y011579D01*
X012430Y013352D02*
X012432Y013402D01*
X012438Y013452D01*
X012448Y013501D01*
X012462Y013549D01*
X012479Y013596D01*
X012500Y013641D01*
X012525Y013685D01*
X012553Y013726D01*
X012585Y013765D01*
X012619Y013802D01*
X012656Y013836D01*
X012696Y013866D01*
X012738Y013893D01*
X012782Y013917D01*
X012828Y013938D01*
X012875Y013954D01*
X012923Y013967D01*
X012973Y013976D01*
X013022Y013981D01*
X013073Y013982D01*
X013123Y013979D01*
X013172Y013972D01*
X013221Y013961D01*
X013269Y013946D01*
X013315Y013928D01*
X013360Y013906D01*
X013403Y013880D01*
X013444Y013851D01*
X013483Y013819D01*
X013519Y013784D01*
X013551Y013746D01*
X013581Y013706D01*
X013608Y013663D01*
X013631Y013619D01*
X013650Y013573D01*
X013666Y013525D01*
X013678Y013476D01*
X013686Y013427D01*
X013690Y013377D01*
X013690Y013327D01*
X013686Y013277D01*
X013678Y013228D01*
X013666Y013179D01*
X013650Y013131D01*
X013631Y013085D01*
X013608Y013041D01*
X013581Y012998D01*
X013551Y012958D01*
X013519Y012920D01*
X013483Y012885D01*
X013444Y012853D01*
X013403Y012824D01*
X013360Y012798D01*
X013315Y012776D01*
X013269Y012758D01*
X013221Y012743D01*
X013172Y012732D01*
X013123Y012725D01*
X013073Y012722D01*
X013022Y012723D01*
X012973Y012728D01*
X012923Y012737D01*
X012875Y012750D01*
X012828Y012766D01*
X012782Y012787D01*
X012738Y012811D01*
X012696Y012838D01*
X012656Y012868D01*
X012619Y012902D01*
X012585Y012939D01*
X012553Y012978D01*
X012525Y013019D01*
X012500Y013063D01*
X012479Y013108D01*
X012462Y013155D01*
X012448Y013203D01*
X012438Y013252D01*
X012432Y013302D01*
X012430Y013352D01*
X012430Y043470D02*
X012432Y043520D01*
X012438Y043570D01*
X012448Y043619D01*
X012462Y043667D01*
X012479Y043714D01*
X012500Y043759D01*
X012525Y043803D01*
X012553Y043844D01*
X012585Y043883D01*
X012619Y043920D01*
X012656Y043954D01*
X012696Y043984D01*
X012738Y044011D01*
X012782Y044035D01*
X012828Y044056D01*
X012875Y044072D01*
X012923Y044085D01*
X012973Y044094D01*
X013022Y044099D01*
X013073Y044100D01*
X013123Y044097D01*
X013172Y044090D01*
X013221Y044079D01*
X013269Y044064D01*
X013315Y044046D01*
X013360Y044024D01*
X013403Y043998D01*
X013444Y043969D01*
X013483Y043937D01*
X013519Y043902D01*
X013551Y043864D01*
X013581Y043824D01*
X013608Y043781D01*
X013631Y043737D01*
X013650Y043691D01*
X013666Y043643D01*
X013678Y043594D01*
X013686Y043545D01*
X013690Y043495D01*
X013690Y043445D01*
X013686Y043395D01*
X013678Y043346D01*
X013666Y043297D01*
X013650Y043249D01*
X013631Y043203D01*
X013608Y043159D01*
X013581Y043116D01*
X013551Y043076D01*
X013519Y043038D01*
X013483Y043003D01*
X013444Y042971D01*
X013403Y042942D01*
X013360Y042916D01*
X013315Y042894D01*
X013269Y042876D01*
X013221Y042861D01*
X013172Y042850D01*
X013123Y042843D01*
X013073Y042840D01*
X013022Y042841D01*
X012973Y042846D01*
X012923Y042855D01*
X012875Y042868D01*
X012828Y042884D01*
X012782Y042905D01*
X012738Y042929D01*
X012696Y042956D01*
X012656Y042986D01*
X012619Y043020D01*
X012585Y043057D01*
X012553Y043096D01*
X012525Y043137D01*
X012500Y043181D01*
X012479Y043226D01*
X012462Y043273D01*
X012448Y043321D01*
X012438Y043370D01*
X012432Y043420D01*
X012430Y043470D01*
X007784Y055820D02*
X007786Y055868D01*
X007792Y055916D01*
X007802Y055963D01*
X007815Y056009D01*
X007833Y056054D01*
X007853Y056098D01*
X007878Y056140D01*
X007906Y056179D01*
X007936Y056216D01*
X007970Y056250D01*
X008007Y056282D01*
X008045Y056311D01*
X008086Y056336D01*
X008129Y056358D01*
X008174Y056376D01*
X008220Y056390D01*
X008267Y056401D01*
X008315Y056408D01*
X008363Y056411D01*
X008411Y056410D01*
X008459Y056405D01*
X008507Y056396D01*
X008553Y056384D01*
X008598Y056367D01*
X008642Y056347D01*
X008684Y056324D01*
X008724Y056297D01*
X008762Y056267D01*
X008797Y056234D01*
X008829Y056198D01*
X008859Y056160D01*
X008885Y056119D01*
X008907Y056076D01*
X008927Y056032D01*
X008942Y055987D01*
X008954Y055940D01*
X008962Y055892D01*
X008966Y055844D01*
X008966Y055796D01*
X008962Y055748D01*
X008954Y055700D01*
X008942Y055653D01*
X008927Y055608D01*
X008907Y055564D01*
X008885Y055521D01*
X008859Y055480D01*
X008829Y055442D01*
X008797Y055406D01*
X008762Y055373D01*
X008724Y055343D01*
X008684Y055316D01*
X008642Y055293D01*
X008598Y055273D01*
X008553Y055256D01*
X008507Y055244D01*
X008459Y055235D01*
X008411Y055230D01*
X008363Y055229D01*
X008315Y055232D01*
X008267Y055239D01*
X008220Y055250D01*
X008174Y055264D01*
X008129Y055282D01*
X008086Y055304D01*
X008045Y055329D01*
X008007Y055358D01*
X007970Y055390D01*
X007936Y055424D01*
X007906Y055461D01*
X007878Y055500D01*
X007853Y055542D01*
X007833Y055586D01*
X007815Y055631D01*
X007802Y055677D01*
X007792Y055724D01*
X007786Y055772D01*
X007784Y055820D01*
X007784Y060781D02*
X007786Y060829D01*
X007792Y060877D01*
X007802Y060924D01*
X007815Y060970D01*
X007833Y061015D01*
X007853Y061059D01*
X007878Y061101D01*
X007906Y061140D01*
X007936Y061177D01*
X007970Y061211D01*
X008007Y061243D01*
X008045Y061272D01*
X008086Y061297D01*
X008129Y061319D01*
X008174Y061337D01*
X008220Y061351D01*
X008267Y061362D01*
X008315Y061369D01*
X008363Y061372D01*
X008411Y061371D01*
X008459Y061366D01*
X008507Y061357D01*
X008553Y061345D01*
X008598Y061328D01*
X008642Y061308D01*
X008684Y061285D01*
X008724Y061258D01*
X008762Y061228D01*
X008797Y061195D01*
X008829Y061159D01*
X008859Y061121D01*
X008885Y061080D01*
X008907Y061037D01*
X008927Y060993D01*
X008942Y060948D01*
X008954Y060901D01*
X008962Y060853D01*
X008966Y060805D01*
X008966Y060757D01*
X008962Y060709D01*
X008954Y060661D01*
X008942Y060614D01*
X008927Y060569D01*
X008907Y060525D01*
X008885Y060482D01*
X008859Y060441D01*
X008829Y060403D01*
X008797Y060367D01*
X008762Y060334D01*
X008724Y060304D01*
X008684Y060277D01*
X008642Y060254D01*
X008598Y060234D01*
X008553Y060217D01*
X008507Y060205D01*
X008459Y060196D01*
X008411Y060191D01*
X008363Y060190D01*
X008315Y060193D01*
X008267Y060200D01*
X008220Y060211D01*
X008174Y060225D01*
X008129Y060243D01*
X008086Y060265D01*
X008045Y060290D01*
X008007Y060319D01*
X007970Y060351D01*
X007936Y060385D01*
X007906Y060422D01*
X007878Y060461D01*
X007853Y060503D01*
X007833Y060547D01*
X007815Y060592D01*
X007802Y060638D01*
X007792Y060685D01*
X007786Y060733D01*
X007784Y060781D01*
X012458Y073593D02*
X012460Y073643D01*
X012466Y073693D01*
X012476Y073742D01*
X012490Y073790D01*
X012507Y073837D01*
X012528Y073882D01*
X012553Y073926D01*
X012581Y073967D01*
X012613Y074006D01*
X012647Y074043D01*
X012684Y074077D01*
X012724Y074107D01*
X012766Y074134D01*
X012810Y074158D01*
X012856Y074179D01*
X012903Y074195D01*
X012951Y074208D01*
X013001Y074217D01*
X013050Y074222D01*
X013101Y074223D01*
X013151Y074220D01*
X013200Y074213D01*
X013249Y074202D01*
X013297Y074187D01*
X013343Y074169D01*
X013388Y074147D01*
X013431Y074121D01*
X013472Y074092D01*
X013511Y074060D01*
X013547Y074025D01*
X013579Y073987D01*
X013609Y073947D01*
X013636Y073904D01*
X013659Y073860D01*
X013678Y073814D01*
X013694Y073766D01*
X013706Y073717D01*
X013714Y073668D01*
X013718Y073618D01*
X013718Y073568D01*
X013714Y073518D01*
X013706Y073469D01*
X013694Y073420D01*
X013678Y073372D01*
X013659Y073326D01*
X013636Y073282D01*
X013609Y073239D01*
X013579Y073199D01*
X013547Y073161D01*
X013511Y073126D01*
X013472Y073094D01*
X013431Y073065D01*
X013388Y073039D01*
X013343Y073017D01*
X013297Y072999D01*
X013249Y072984D01*
X013200Y072973D01*
X013151Y072966D01*
X013101Y072963D01*
X013050Y072964D01*
X013001Y072969D01*
X012951Y072978D01*
X012903Y072991D01*
X012856Y073007D01*
X012810Y073028D01*
X012766Y073052D01*
X012724Y073079D01*
X012684Y073109D01*
X012647Y073143D01*
X012613Y073180D01*
X012581Y073219D01*
X012553Y073260D01*
X012528Y073304D01*
X012507Y073349D01*
X012490Y073396D01*
X012476Y073444D01*
X012466Y073493D01*
X012460Y073543D01*
X012458Y073593D01*
X066761Y080674D02*
X066763Y080724D01*
X066769Y080774D01*
X066779Y080823D01*
X066793Y080871D01*
X066810Y080918D01*
X066831Y080963D01*
X066856Y081007D01*
X066884Y081048D01*
X066916Y081087D01*
X066950Y081124D01*
X066987Y081158D01*
X067027Y081188D01*
X067069Y081215D01*
X067113Y081239D01*
X067159Y081260D01*
X067206Y081276D01*
X067254Y081289D01*
X067304Y081298D01*
X067353Y081303D01*
X067404Y081304D01*
X067454Y081301D01*
X067503Y081294D01*
X067552Y081283D01*
X067600Y081268D01*
X067646Y081250D01*
X067691Y081228D01*
X067734Y081202D01*
X067775Y081173D01*
X067814Y081141D01*
X067850Y081106D01*
X067882Y081068D01*
X067912Y081028D01*
X067939Y080985D01*
X067962Y080941D01*
X067981Y080895D01*
X067997Y080847D01*
X068009Y080798D01*
X068017Y080749D01*
X068021Y080699D01*
X068021Y080649D01*
X068017Y080599D01*
X068009Y080550D01*
X067997Y080501D01*
X067981Y080453D01*
X067962Y080407D01*
X067939Y080363D01*
X067912Y080320D01*
X067882Y080280D01*
X067850Y080242D01*
X067814Y080207D01*
X067775Y080175D01*
X067734Y080146D01*
X067691Y080120D01*
X067646Y080098D01*
X067600Y080080D01*
X067552Y080065D01*
X067503Y080054D01*
X067454Y080047D01*
X067404Y080044D01*
X067353Y080045D01*
X067304Y080050D01*
X067254Y080059D01*
X067206Y080072D01*
X067159Y080088D01*
X067113Y080109D01*
X067069Y080133D01*
X067027Y080160D01*
X066987Y080190D01*
X066950Y080224D01*
X066916Y080261D01*
X066884Y080300D01*
X066856Y080341D01*
X066831Y080385D01*
X066810Y080430D01*
X066793Y080477D01*
X066779Y080525D01*
X066769Y080574D01*
X066763Y080624D01*
X066761Y080674D01*
X066761Y043470D02*
X066763Y043520D01*
X066769Y043570D01*
X066779Y043619D01*
X066793Y043667D01*
X066810Y043714D01*
X066831Y043759D01*
X066856Y043803D01*
X066884Y043844D01*
X066916Y043883D01*
X066950Y043920D01*
X066987Y043954D01*
X067027Y043984D01*
X067069Y044011D01*
X067113Y044035D01*
X067159Y044056D01*
X067206Y044072D01*
X067254Y044085D01*
X067304Y044094D01*
X067353Y044099D01*
X067404Y044100D01*
X067454Y044097D01*
X067503Y044090D01*
X067552Y044079D01*
X067600Y044064D01*
X067646Y044046D01*
X067691Y044024D01*
X067734Y043998D01*
X067775Y043969D01*
X067814Y043937D01*
X067850Y043902D01*
X067882Y043864D01*
X067912Y043824D01*
X067939Y043781D01*
X067962Y043737D01*
X067981Y043691D01*
X067997Y043643D01*
X068009Y043594D01*
X068017Y043545D01*
X068021Y043495D01*
X068021Y043445D01*
X068017Y043395D01*
X068009Y043346D01*
X067997Y043297D01*
X067981Y043249D01*
X067962Y043203D01*
X067939Y043159D01*
X067912Y043116D01*
X067882Y043076D01*
X067850Y043038D01*
X067814Y043003D01*
X067775Y042971D01*
X067734Y042942D01*
X067691Y042916D01*
X067646Y042894D01*
X067600Y042876D01*
X067552Y042861D01*
X067503Y042850D01*
X067454Y042843D01*
X067404Y042840D01*
X067353Y042841D01*
X067304Y042846D01*
X067254Y042855D01*
X067206Y042868D01*
X067159Y042884D01*
X067113Y042905D01*
X067069Y042929D01*
X067027Y042956D01*
X066987Y042986D01*
X066950Y043020D01*
X066916Y043057D01*
X066884Y043096D01*
X066856Y043137D01*
X066831Y043181D01*
X066810Y043226D01*
X066793Y043273D01*
X066779Y043321D01*
X066769Y043370D01*
X066763Y043420D01*
X066761Y043470D01*
X114005Y043470D02*
X114007Y043520D01*
X114013Y043570D01*
X114023Y043619D01*
X114037Y043667D01*
X114054Y043714D01*
X114075Y043759D01*
X114100Y043803D01*
X114128Y043844D01*
X114160Y043883D01*
X114194Y043920D01*
X114231Y043954D01*
X114271Y043984D01*
X114313Y044011D01*
X114357Y044035D01*
X114403Y044056D01*
X114450Y044072D01*
X114498Y044085D01*
X114548Y044094D01*
X114597Y044099D01*
X114648Y044100D01*
X114698Y044097D01*
X114747Y044090D01*
X114796Y044079D01*
X114844Y044064D01*
X114890Y044046D01*
X114935Y044024D01*
X114978Y043998D01*
X115019Y043969D01*
X115058Y043937D01*
X115094Y043902D01*
X115126Y043864D01*
X115156Y043824D01*
X115183Y043781D01*
X115206Y043737D01*
X115225Y043691D01*
X115241Y043643D01*
X115253Y043594D01*
X115261Y043545D01*
X115265Y043495D01*
X115265Y043445D01*
X115261Y043395D01*
X115253Y043346D01*
X115241Y043297D01*
X115225Y043249D01*
X115206Y043203D01*
X115183Y043159D01*
X115156Y043116D01*
X115126Y043076D01*
X115094Y043038D01*
X115058Y043003D01*
X115019Y042971D01*
X114978Y042942D01*
X114935Y042916D01*
X114890Y042894D01*
X114844Y042876D01*
X114796Y042861D01*
X114747Y042850D01*
X114698Y042843D01*
X114648Y042840D01*
X114597Y042841D01*
X114548Y042846D01*
X114498Y042855D01*
X114450Y042868D01*
X114403Y042884D01*
X114357Y042905D01*
X114313Y042929D01*
X114271Y042956D01*
X114231Y042986D01*
X114194Y043020D01*
X114160Y043057D01*
X114128Y043096D01*
X114100Y043137D01*
X114075Y043181D01*
X114054Y043226D01*
X114037Y043273D01*
X114023Y043321D01*
X114013Y043370D01*
X114007Y043420D01*
X114005Y043470D01*
X121092Y080674D02*
X121094Y080724D01*
X121100Y080774D01*
X121110Y080823D01*
X121124Y080871D01*
X121141Y080918D01*
X121162Y080963D01*
X121187Y081007D01*
X121215Y081048D01*
X121247Y081087D01*
X121281Y081124D01*
X121318Y081158D01*
X121358Y081188D01*
X121400Y081215D01*
X121444Y081239D01*
X121490Y081260D01*
X121537Y081276D01*
X121585Y081289D01*
X121635Y081298D01*
X121684Y081303D01*
X121735Y081304D01*
X121785Y081301D01*
X121834Y081294D01*
X121883Y081283D01*
X121931Y081268D01*
X121977Y081250D01*
X122022Y081228D01*
X122065Y081202D01*
X122106Y081173D01*
X122145Y081141D01*
X122181Y081106D01*
X122213Y081068D01*
X122243Y081028D01*
X122270Y080985D01*
X122293Y080941D01*
X122312Y080895D01*
X122328Y080847D01*
X122340Y080798D01*
X122348Y080749D01*
X122352Y080699D01*
X122352Y080649D01*
X122348Y080599D01*
X122340Y080550D01*
X122328Y080501D01*
X122312Y080453D01*
X122293Y080407D01*
X122270Y080363D01*
X122243Y080320D01*
X122213Y080280D01*
X122181Y080242D01*
X122145Y080207D01*
X122106Y080175D01*
X122065Y080146D01*
X122022Y080120D01*
X121977Y080098D01*
X121931Y080080D01*
X121883Y080065D01*
X121834Y080054D01*
X121785Y080047D01*
X121735Y080044D01*
X121684Y080045D01*
X121635Y080050D01*
X121585Y080059D01*
X121537Y080072D01*
X121490Y080088D01*
X121444Y080109D01*
X121400Y080133D01*
X121358Y080160D01*
X121318Y080190D01*
X121281Y080224D01*
X121247Y080261D01*
X121215Y080300D01*
X121187Y080341D01*
X121162Y080385D01*
X121141Y080430D01*
X121124Y080477D01*
X121110Y080525D01*
X121100Y080574D01*
X121094Y080624D01*
X121092Y080674D01*
X121092Y006265D02*
X121094Y006315D01*
X121100Y006365D01*
X121110Y006414D01*
X121124Y006462D01*
X121141Y006509D01*
X121162Y006554D01*
X121187Y006598D01*
X121215Y006639D01*
X121247Y006678D01*
X121281Y006715D01*
X121318Y006749D01*
X121358Y006779D01*
X121400Y006806D01*
X121444Y006830D01*
X121490Y006851D01*
X121537Y006867D01*
X121585Y006880D01*
X121635Y006889D01*
X121684Y006894D01*
X121735Y006895D01*
X121785Y006892D01*
X121834Y006885D01*
X121883Y006874D01*
X121931Y006859D01*
X121977Y006841D01*
X122022Y006819D01*
X122065Y006793D01*
X122106Y006764D01*
X122145Y006732D01*
X122181Y006697D01*
X122213Y006659D01*
X122243Y006619D01*
X122270Y006576D01*
X122293Y006532D01*
X122312Y006486D01*
X122328Y006438D01*
X122340Y006389D01*
X122348Y006340D01*
X122352Y006290D01*
X122352Y006240D01*
X122348Y006190D01*
X122340Y006141D01*
X122328Y006092D01*
X122312Y006044D01*
X122293Y005998D01*
X122270Y005954D01*
X122243Y005911D01*
X122213Y005871D01*
X122181Y005833D01*
X122145Y005798D01*
X122106Y005766D01*
X122065Y005737D01*
X122022Y005711D01*
X121977Y005689D01*
X121931Y005671D01*
X121883Y005656D01*
X121834Y005645D01*
X121785Y005638D01*
X121735Y005635D01*
X121684Y005636D01*
X121635Y005641D01*
X121585Y005650D01*
X121537Y005663D01*
X121490Y005679D01*
X121444Y005700D01*
X121400Y005724D01*
X121358Y005751D01*
X121318Y005781D01*
X121281Y005815D01*
X121247Y005852D01*
X121215Y005891D01*
X121187Y005932D01*
X121162Y005976D01*
X121141Y006021D01*
X121124Y006068D01*
X121110Y006116D01*
X121100Y006165D01*
X121094Y006215D01*
X121092Y006265D01*
X066761Y006265D02*
X066763Y006315D01*
X066769Y006365D01*
X066779Y006414D01*
X066793Y006462D01*
X066810Y006509D01*
X066831Y006554D01*
X066856Y006598D01*
X066884Y006639D01*
X066916Y006678D01*
X066950Y006715D01*
X066987Y006749D01*
X067027Y006779D01*
X067069Y006806D01*
X067113Y006830D01*
X067159Y006851D01*
X067206Y006867D01*
X067254Y006880D01*
X067304Y006889D01*
X067353Y006894D01*
X067404Y006895D01*
X067454Y006892D01*
X067503Y006885D01*
X067552Y006874D01*
X067600Y006859D01*
X067646Y006841D01*
X067691Y006819D01*
X067734Y006793D01*
X067775Y006764D01*
X067814Y006732D01*
X067850Y006697D01*
X067882Y006659D01*
X067912Y006619D01*
X067939Y006576D01*
X067962Y006532D01*
X067981Y006486D01*
X067997Y006438D01*
X068009Y006389D01*
X068017Y006340D01*
X068021Y006290D01*
X068021Y006240D01*
X068017Y006190D01*
X068009Y006141D01*
X067997Y006092D01*
X067981Y006044D01*
X067962Y005998D01*
X067939Y005954D01*
X067912Y005911D01*
X067882Y005871D01*
X067850Y005833D01*
X067814Y005798D01*
X067775Y005766D01*
X067734Y005737D01*
X067691Y005711D01*
X067646Y005689D01*
X067600Y005671D01*
X067552Y005656D01*
X067503Y005645D01*
X067454Y005638D01*
X067404Y005635D01*
X067353Y005636D01*
X067304Y005641D01*
X067254Y005650D01*
X067206Y005663D01*
X067159Y005679D01*
X067113Y005700D01*
X067069Y005724D01*
X067027Y005751D01*
X066987Y005781D01*
X066950Y005815D01*
X066916Y005852D01*
X066884Y005891D01*
X066856Y005932D01*
X066831Y005976D01*
X066810Y006021D01*
X066793Y006068D01*
X066779Y006116D01*
X066769Y006165D01*
X066763Y006215D01*
X066761Y006265D01*
D11*
X005501Y055820D02*
X004438Y055820D01*
X004438Y057474D02*
X005501Y057474D01*
X005501Y059127D02*
X004438Y059127D01*
X004438Y060781D02*
X005501Y060781D01*
D12*
X070344Y046226D03*
X070344Y045438D03*
D13*
X019804Y045438D01*
X019809Y045433D02*
X019609Y045433D01*
X013257Y051785D01*
X013257Y056068D01*
X013255Y056093D02*
X011875Y057473D01*
X005455Y057473D01*
X005455Y059093D02*
X011635Y059093D01*
X014035Y056693D01*
X014035Y052073D01*
X014044Y052027D02*
X019849Y046223D01*
X019872Y046226D02*
X070344Y046226D01*
D14*
X022562Y079030D02*
X020057Y079030D01*
X019959Y078911D02*
X022471Y078911D01*
X022381Y078793D02*
X019861Y078793D01*
X019763Y078674D02*
X022290Y078674D01*
X022200Y078556D02*
X019664Y078556D01*
X019566Y078437D02*
X022109Y078437D01*
X022019Y078319D02*
X019468Y078319D01*
X019370Y078200D02*
X021928Y078200D01*
X021838Y078082D02*
X019272Y078082D01*
X019174Y077963D02*
X021747Y077963D01*
X021657Y077845D02*
X019149Y077845D01*
X019149Y077933D02*
X022629Y082133D01*
X024269Y082133D01*
X024411Y082127D01*
X024551Y082098D01*
X024685Y082048D01*
X024809Y081977D01*
X024921Y081888D01*
X025017Y081782D01*
X025096Y081663D01*
X025155Y081533D01*
X025193Y081395D01*
X025209Y081253D01*
X025223Y081140D01*
X025220Y081027D01*
X025199Y080915D01*
X025161Y080807D01*
X025107Y080707D01*
X025037Y080617D01*
X024955Y080539D01*
X024861Y080474D01*
X024758Y080426D01*
X024649Y080393D01*
X023649Y080453D01*
X021129Y077153D01*
X021129Y073593D01*
X021118Y073451D01*
X021088Y073312D01*
X021038Y073178D01*
X020970Y073053D01*
X020884Y072938D01*
X020783Y072838D01*
X020669Y072752D01*
X020544Y072684D01*
X020410Y072634D01*
X020271Y072603D01*
X020129Y072593D01*
X015389Y072653D01*
X015298Y072684D01*
X015214Y072729D01*
X015137Y072786D01*
X015070Y072854D01*
X015015Y072932D01*
X014973Y073018D01*
X014945Y073109D01*
X014931Y073204D01*
X014932Y073299D01*
X014949Y073393D01*
X014935Y073519D01*
X014941Y073645D01*
X014967Y073768D01*
X015011Y073886D01*
X015074Y073996D01*
X015153Y074094D01*
X015246Y074179D01*
X015352Y074248D01*
X015467Y074300D01*
X015589Y074333D01*
X018149Y074333D01*
X018291Y074343D01*
X018430Y074374D01*
X018564Y074424D01*
X018689Y074492D01*
X018803Y074578D01*
X018904Y074678D01*
X018990Y074793D01*
X019058Y074918D01*
X019108Y075052D01*
X019138Y075191D01*
X019149Y075333D01*
X019149Y077933D01*
X019149Y077726D02*
X021566Y077726D01*
X021476Y077608D02*
X019149Y077608D01*
X019149Y077489D02*
X021385Y077489D01*
X021295Y077371D02*
X019149Y077371D01*
X019149Y077252D02*
X021204Y077252D01*
X021129Y077134D02*
X019149Y077134D01*
X019149Y077015D02*
X021129Y077015D01*
X021129Y076897D02*
X019149Y076897D01*
X019149Y076778D02*
X021129Y076778D01*
X021129Y076660D02*
X019149Y076660D01*
X019149Y076541D02*
X021129Y076541D01*
X021129Y076423D02*
X019149Y076423D01*
X019149Y076304D02*
X021129Y076304D01*
X021129Y076186D02*
X019149Y076186D01*
X019149Y076067D02*
X021129Y076067D01*
X021129Y075949D02*
X019149Y075949D01*
X019149Y075830D02*
X021129Y075830D01*
X021129Y075712D02*
X019149Y075712D01*
X019149Y075593D02*
X021129Y075593D01*
X021129Y075475D02*
X019149Y075475D01*
X019149Y075356D02*
X021129Y075356D01*
X021129Y075238D02*
X019142Y075238D01*
X019123Y075119D02*
X021129Y075119D01*
X021129Y075001D02*
X019089Y075001D01*
X019039Y074882D02*
X021129Y074882D01*
X021129Y074764D02*
X018968Y074764D01*
X018871Y074645D02*
X021129Y074645D01*
X021129Y074527D02*
X018736Y074527D01*
X018523Y074408D02*
X021129Y074408D01*
X021129Y074290D02*
X015444Y074290D01*
X015238Y074171D02*
X021129Y074171D01*
X021129Y074053D02*
X015120Y074053D01*
X015039Y073934D02*
X021129Y073934D01*
X021129Y073816D02*
X014985Y073816D01*
X014952Y073697D02*
X021129Y073697D01*
X021128Y073579D02*
X014938Y073579D01*
X014941Y073460D02*
X021119Y073460D01*
X021095Y073342D02*
X014940Y073342D01*
X014931Y073223D02*
X021055Y073223D01*
X020998Y073105D02*
X014946Y073105D01*
X014989Y072986D02*
X020920Y072986D01*
X020814Y072868D02*
X015061Y072868D01*
X015186Y072749D02*
X020664Y072749D01*
X020397Y072631D02*
X017155Y072631D01*
X020155Y079148D02*
X022652Y079148D01*
X022743Y079267D02*
X020254Y079267D01*
X020352Y079385D02*
X022833Y079385D01*
X022924Y079504D02*
X020450Y079504D01*
X020548Y079622D02*
X023014Y079622D01*
X023105Y079741D02*
X020646Y079741D01*
X020744Y079859D02*
X023195Y079859D01*
X023286Y079978D02*
X020843Y079978D01*
X020941Y080096D02*
X023376Y080096D01*
X023467Y080215D02*
X021039Y080215D01*
X021137Y080333D02*
X023557Y080333D01*
X023648Y080452D02*
X021235Y080452D01*
X021334Y080570D02*
X024988Y080570D01*
X025093Y080689D02*
X021432Y080689D01*
X021530Y080807D02*
X025161Y080807D01*
X025201Y080926D02*
X021628Y080926D01*
X021726Y081044D02*
X025221Y081044D01*
X025220Y081163D02*
X021825Y081163D01*
X021923Y081281D02*
X025205Y081281D01*
X025191Y081400D02*
X022021Y081400D01*
X022119Y081518D02*
X025159Y081518D01*
X025108Y081637D02*
X022217Y081637D01*
X022315Y081755D02*
X025035Y081755D01*
X024934Y081874D02*
X022414Y081874D01*
X022512Y081992D02*
X024782Y081992D01*
X024488Y082111D02*
X022610Y082111D01*
X023671Y080452D02*
X024813Y080452D01*
X017949Y017213D02*
X014149Y017213D01*
X014006Y017203D01*
X013867Y017173D01*
X017977Y017173D01*
X017949Y017213D02*
X025029Y007073D01*
X025029Y004933D01*
X025025Y004902D01*
X025015Y004873D01*
X024998Y004846D01*
X024976Y004824D01*
X024949Y004807D01*
X024920Y004797D01*
X024889Y004793D01*
X023069Y004793D01*
X022996Y004784D01*
X022923Y004787D01*
X022851Y004803D01*
X022784Y004831D01*
X022722Y004871D01*
X022668Y004920D01*
X022624Y004979D01*
X022590Y005043D01*
X022569Y005113D01*
X022569Y006813D01*
X022429Y006953D01*
X017169Y014873D01*
X014089Y014933D01*
X013959Y014925D01*
X013829Y014936D01*
X013703Y014968D01*
X013584Y015019D01*
X013474Y015089D01*
X013376Y015174D01*
X013292Y015274D01*
X013226Y015386D01*
X013177Y015507D01*
X013149Y015633D01*
X013149Y016213D01*
X013159Y016356D01*
X013189Y016495D01*
X013239Y016629D01*
X013307Y016754D01*
X013393Y016868D01*
X013494Y016969D01*
X013608Y017055D01*
X013733Y017123D01*
X013867Y017173D01*
X013608Y017054D02*
X018060Y017054D01*
X018142Y016936D02*
X013460Y016936D01*
X013355Y016817D02*
X018225Y016817D01*
X018308Y016699D02*
X013277Y016699D01*
X013221Y016580D02*
X018390Y016580D01*
X018473Y016462D02*
X013182Y016462D01*
X013158Y016343D02*
X018556Y016343D01*
X018639Y016225D02*
X013149Y016225D01*
X013149Y016106D02*
X018721Y016106D01*
X018804Y015988D02*
X013149Y015988D01*
X013149Y015869D02*
X018887Y015869D01*
X018970Y015751D02*
X013149Y015751D01*
X013149Y015632D02*
X019052Y015632D01*
X019135Y015514D02*
X013176Y015514D01*
X013222Y015395D02*
X019218Y015395D01*
X019301Y015277D02*
X013291Y015277D01*
X013394Y015158D02*
X019383Y015158D01*
X019466Y015040D02*
X013551Y015040D01*
X014703Y014921D02*
X019549Y014921D01*
X019632Y014803D02*
X017215Y014803D01*
X017294Y014684D02*
X019714Y014684D01*
X019797Y014566D02*
X017373Y014566D01*
X017451Y014447D02*
X019880Y014447D01*
X019963Y014329D02*
X017530Y014329D01*
X017609Y014210D02*
X020045Y014210D01*
X020128Y014092D02*
X017688Y014092D01*
X017766Y013973D02*
X020211Y013973D01*
X020294Y013855D02*
X017845Y013855D01*
X017924Y013736D02*
X020376Y013736D01*
X020459Y013618D02*
X018002Y013618D01*
X018081Y013499D02*
X020542Y013499D01*
X020624Y013381D02*
X018160Y013381D01*
X018238Y013262D02*
X020707Y013262D01*
X020790Y013144D02*
X018317Y013144D01*
X018396Y013025D02*
X020873Y013025D01*
X020955Y012907D02*
X018475Y012907D01*
X018553Y012788D02*
X021038Y012788D01*
X021121Y012670D02*
X018632Y012670D01*
X018711Y012551D02*
X021204Y012551D01*
X021286Y012433D02*
X018789Y012433D01*
X018868Y012314D02*
X021369Y012314D01*
X021452Y012196D02*
X018947Y012196D01*
X019025Y012077D02*
X021535Y012077D01*
X021617Y011959D02*
X019104Y011959D01*
X019183Y011840D02*
X021700Y011840D01*
X021783Y011722D02*
X019262Y011722D01*
X019340Y011603D02*
X021866Y011603D01*
X021948Y011485D02*
X019419Y011485D01*
X019498Y011366D02*
X022031Y011366D01*
X022114Y011248D02*
X019576Y011248D01*
X019655Y011129D02*
X022197Y011129D01*
X022279Y011011D02*
X019734Y011011D01*
X019812Y010892D02*
X022362Y010892D01*
X022445Y010774D02*
X019891Y010774D01*
X019970Y010655D02*
X022527Y010655D01*
X022610Y010537D02*
X020049Y010537D01*
X020127Y010418D02*
X022693Y010418D01*
X022776Y010300D02*
X020206Y010300D01*
X020285Y010181D02*
X022858Y010181D01*
X022941Y010063D02*
X020363Y010063D01*
X020442Y009944D02*
X023024Y009944D01*
X023107Y009826D02*
X020521Y009826D01*
X020599Y009707D02*
X023189Y009707D01*
X023272Y009589D02*
X020678Y009589D01*
X020757Y009470D02*
X023355Y009470D01*
X023438Y009352D02*
X020836Y009352D01*
X020914Y009233D02*
X023520Y009233D01*
X023603Y009115D02*
X020993Y009115D01*
X021072Y008996D02*
X023686Y008996D01*
X023769Y008878D02*
X021150Y008878D01*
X021229Y008759D02*
X023851Y008759D01*
X023934Y008641D02*
X021308Y008641D01*
X021386Y008522D02*
X024017Y008522D01*
X024100Y008404D02*
X021465Y008404D01*
X021544Y008285D02*
X024182Y008285D01*
X024265Y008167D02*
X021623Y008167D01*
X021701Y008048D02*
X024348Y008048D01*
X024430Y007930D02*
X021780Y007930D01*
X021859Y007811D02*
X024513Y007811D01*
X024596Y007693D02*
X021937Y007693D01*
X022016Y007574D02*
X024679Y007574D01*
X024761Y007456D02*
X022095Y007456D01*
X022173Y007337D02*
X024844Y007337D01*
X024927Y007219D02*
X022252Y007219D01*
X022331Y007100D02*
X025010Y007100D01*
X025029Y006982D02*
X022410Y006982D01*
X022519Y006863D02*
X025029Y006863D01*
X025029Y006745D02*
X022569Y006745D01*
X022569Y006626D02*
X025029Y006626D01*
X025029Y006508D02*
X022569Y006508D01*
X022569Y006389D02*
X025029Y006389D01*
X025029Y006271D02*
X022569Y006271D01*
X022569Y006152D02*
X025029Y006152D01*
X025029Y006034D02*
X022569Y006034D01*
X022569Y005915D02*
X025029Y005915D01*
X025029Y005797D02*
X022569Y005797D01*
X022569Y005678D02*
X025029Y005678D01*
X025029Y005560D02*
X022569Y005560D01*
X022569Y005441D02*
X025029Y005441D01*
X025029Y005323D02*
X022569Y005323D01*
X022569Y005204D02*
X025029Y005204D01*
X025029Y005086D02*
X022577Y005086D01*
X022633Y004967D02*
X025029Y004967D01*
X025000Y004849D02*
X022757Y004849D01*
D15*
X022929Y005153D03*
X023469Y005153D03*
X024009Y005153D03*
X024549Y005153D03*
X024549Y005693D03*
X024549Y006233D03*
X024009Y006233D03*
X024009Y005693D03*
X023469Y005693D03*
X023469Y006233D03*
X022929Y006233D03*
X022929Y005693D03*
X015309Y015413D03*
X014829Y015413D03*
X014349Y015413D03*
X013869Y015413D03*
X013869Y015953D03*
X014349Y015953D03*
X014829Y015953D03*
X015309Y015953D03*
X015309Y016433D03*
X014829Y016433D03*
X014349Y016433D03*
X013869Y016433D03*
X015249Y072953D03*
X015249Y073373D03*
X015249Y073793D03*
X015729Y073793D03*
X015729Y073373D03*
X015729Y072953D03*
X016209Y072953D03*
X016209Y073373D03*
X016209Y073793D03*
X016689Y073793D03*
X016689Y073373D03*
X016689Y072953D03*
X022869Y080693D03*
X023409Y080693D03*
X023949Y080693D03*
X024489Y080693D03*
X024489Y081233D03*
X024489Y081773D03*
X023949Y081773D03*
X023949Y081233D03*
X023409Y081233D03*
X023409Y081773D03*
X022869Y081773D03*
X022869Y081233D03*
D16*
X015081Y010839D02*
X015189Y004073D01*
X018460Y004089D01*
X018377Y004137D01*
X018377Y004137D01*
X018377Y004137D01*
X018019Y004495D01*
X018019Y004495D01*
X017766Y004933D01*
X017635Y005421D01*
X017635Y005524D01*
X017634Y005527D01*
X017634Y010397D01*
X017630Y010455D01*
X017600Y010566D01*
X017543Y010666D01*
X017461Y010747D01*
X017361Y010805D01*
X017250Y010835D01*
X017193Y010839D01*
X015081Y010839D01*
X015086Y010513D02*
X017614Y010513D01*
X017175Y010839D02*
X017175Y004083D01*
X018035Y004087D02*
X018035Y004479D01*
X018020Y004493D02*
X015182Y004493D01*
X015455Y004075D02*
X015455Y010839D01*
X016315Y010839D02*
X016315Y004079D01*
X015168Y005353D02*
X017653Y005353D01*
X017634Y006213D02*
X015154Y006213D01*
X015141Y007073D02*
X017634Y007073D01*
X017634Y007933D02*
X015127Y007933D01*
X015113Y008793D02*
X017634Y008793D01*
X017634Y009653D02*
X015099Y009653D01*
X015057Y012319D02*
X015039Y013416D01*
X015019Y013670D01*
X014966Y013919D01*
X014896Y014117D01*
X016734Y014082D01*
X018028Y012134D01*
X017934Y012188D01*
X017446Y012319D01*
X015057Y012319D01*
X015455Y012319D02*
X015455Y014107D01*
X014954Y013953D02*
X016819Y013953D01*
X016315Y014090D02*
X016315Y012319D01*
X017175Y012319D02*
X017175Y013418D01*
X017390Y013093D02*
X015045Y013093D01*
X017764Y012233D02*
X017962Y012233D01*
X017934Y012188D02*
X017934Y012188D01*
X019114Y010498D02*
X021719Y006575D01*
X021750Y006500D01*
X021769Y006482D01*
X021769Y005233D01*
X019703Y005233D01*
X019556Y005233D01*
X019499Y005237D01*
X019387Y005267D01*
X019288Y005324D01*
X019206Y005406D01*
X019149Y005506D01*
X019119Y005617D01*
X019115Y005674D01*
X019115Y005822D01*
X019114Y005825D01*
X019114Y010498D01*
X019114Y009653D02*
X019675Y009653D01*
X019755Y009534D02*
X019755Y005233D01*
X019259Y005353D02*
X021769Y005353D01*
X021475Y005233D02*
X021475Y006944D01*
X021388Y007073D02*
X019114Y007073D01*
X019114Y006213D02*
X021769Y006213D01*
X020615Y005233D02*
X020615Y008239D01*
X020817Y007933D02*
X019114Y007933D01*
X019114Y008793D02*
X020246Y008793D01*
X023195Y011097D02*
X023195Y044498D01*
X024055Y044498D02*
X024055Y009866D01*
X024203Y009653D02*
X122753Y009653D01*
X122753Y008793D02*
X024803Y008793D01*
X024915Y008634D02*
X024915Y044498D01*
X025775Y044498D02*
X025775Y007402D01*
X025776Y007401D02*
X025734Y007460D01*
X025707Y007526D01*
X025644Y007589D01*
X018654Y017600D01*
X018627Y017666D01*
X018564Y017729D01*
X018513Y017802D01*
X018453Y017841D01*
X018402Y017892D01*
X018320Y017925D01*
X018245Y017973D01*
X018174Y017986D01*
X018108Y018013D01*
X018019Y018013D01*
X017932Y018029D01*
X017861Y018013D01*
X014278Y018013D01*
X014250Y018023D01*
X014120Y018013D01*
X014021Y018013D01*
X013992Y018019D01*
X013892Y017997D01*
X013790Y017990D01*
X013765Y017977D01*
X013736Y017978D01*
X013641Y017942D01*
X013541Y017921D01*
X013518Y017904D01*
X013489Y017901D01*
X013400Y017853D01*
X013304Y017817D01*
X013284Y017797D01*
X013256Y017790D01*
X013174Y017729D01*
X013085Y017680D01*
X013067Y017658D01*
X013041Y017647D01*
X012968Y017575D01*
X012887Y017514D01*
X012872Y017490D01*
X012848Y017475D01*
X012787Y017393D01*
X012715Y017321D01*
X012704Y017295D01*
X012681Y017277D01*
X012633Y017188D01*
X012571Y017106D01*
X012564Y017078D01*
X012545Y017057D01*
X012509Y016962D01*
X012460Y016872D01*
X012457Y016844D01*
X012441Y016821D01*
X012419Y016721D01*
X012384Y016626D01*
X012385Y016597D01*
X012372Y016571D01*
X012365Y016470D01*
X012343Y016370D01*
X012349Y016340D01*
X012349Y016242D01*
X012339Y016112D01*
X012349Y016084D01*
X012349Y015701D01*
X012333Y015611D01*
X012349Y015543D01*
X012349Y015474D01*
X012376Y015407D01*
X012376Y015357D01*
X012377Y015353D01*
X012029Y015353D01*
X012029Y041586D01*
X013101Y041598D01*
X013351Y041637D01*
X013593Y041709D01*
X013824Y041810D01*
X014039Y041941D01*
X014237Y042099D01*
X014411Y042281D01*
X014561Y042484D01*
X014684Y042704D01*
X014777Y042939D01*
X014838Y043184D01*
X014868Y043434D01*
X014865Y043687D01*
X014851Y043890D01*
X014811Y044090D01*
X014746Y044282D01*
X014656Y044465D01*
X014543Y044634D01*
X014409Y044787D01*
X014256Y044922D01*
X014086Y045035D01*
X013904Y045125D01*
X013711Y045190D01*
X013511Y045230D01*
X013308Y045243D01*
X012029Y045243D01*
X012029Y051990D01*
X011898Y052479D01*
X011645Y052917D01*
X011287Y053275D01*
X010849Y053528D01*
X010360Y053659D01*
X004596Y053659D01*
X004538Y053662D01*
X004427Y053692D01*
X004327Y053750D01*
X004246Y053831D01*
X004188Y053931D01*
X004158Y054042D01*
X004155Y054100D01*
X004155Y054580D01*
X004271Y054549D01*
X005669Y054549D01*
X005992Y054636D01*
X006282Y054803D01*
X006519Y055040D01*
X006686Y055330D01*
X006773Y055653D01*
X006773Y055988D01*
X006686Y056311D01*
X006558Y056533D01*
X007250Y056533D01*
X007135Y056334D01*
X007045Y055996D01*
X007045Y055645D01*
X007135Y055307D01*
X007310Y055003D01*
X007558Y054756D01*
X007862Y054581D01*
X008200Y054490D01*
X008550Y054490D01*
X008889Y054581D01*
X009192Y054756D01*
X009440Y055003D01*
X009615Y055307D01*
X009706Y055645D01*
X009706Y055996D01*
X009615Y056334D01*
X009500Y056533D01*
X011485Y056533D01*
X012317Y055701D01*
X012317Y051598D01*
X012460Y051252D01*
X012725Y050988D01*
X019076Y044636D01*
X019422Y044493D01*
X019996Y044493D01*
X020007Y044498D01*
X065373Y044498D01*
X065339Y044447D01*
X065341Y044434D01*
X065281Y044311D01*
X065269Y044305D01*
X065249Y044247D01*
X065222Y044191D01*
X065226Y044178D01*
X065182Y044049D01*
X065171Y044042D01*
X065159Y043981D01*
X065139Y043922D01*
X065145Y043910D01*
X065118Y043776D01*
X065108Y043767D01*
X065104Y043705D01*
X065092Y043644D01*
X065099Y043633D01*
X065091Y043503D01*
X065086Y043499D01*
X065086Y043479D01*
X065082Y043474D01*
X065085Y043418D01*
X065082Y043363D01*
X065086Y043358D01*
X065086Y043338D01*
X065091Y043333D01*
X065099Y043204D01*
X065092Y043193D01*
X065104Y043132D01*
X065108Y043069D01*
X065118Y043061D01*
X065145Y042927D01*
X065139Y042915D01*
X065159Y042856D01*
X065171Y042795D01*
X065182Y042788D01*
X065226Y042658D01*
X065222Y042646D01*
X065249Y042590D01*
X065269Y042531D01*
X065281Y042525D01*
X065341Y042403D01*
X065339Y042390D01*
X065373Y042338D01*
X065401Y042282D01*
X065414Y042278D01*
X065489Y042165D01*
X065488Y042151D01*
X065529Y042105D01*
X065564Y042053D01*
X065577Y042050D01*
X065667Y041948D01*
X065668Y041934D01*
X065715Y041893D01*
X065756Y041847D01*
X065769Y041846D01*
X065871Y041756D01*
X065874Y041743D01*
X065926Y041708D01*
X065973Y041667D01*
X065986Y041668D01*
X066099Y041592D01*
X066104Y041580D01*
X066159Y041552D01*
X066211Y041518D01*
X066224Y041520D01*
X066346Y041460D01*
X066352Y041448D01*
X066411Y041428D01*
X066467Y041400D01*
X066480Y041405D01*
X066609Y041361D01*
X066616Y041350D01*
X066677Y041338D01*
X066736Y041318D01*
X066748Y041324D01*
X066882Y041297D01*
X066891Y041287D01*
X066953Y041283D01*
X067014Y041271D01*
X067025Y041278D01*
X067154Y041270D01*
X067159Y041265D01*
X067227Y041265D01*
X067295Y041260D01*
X067300Y041265D01*
X067479Y041265D01*
X067484Y041260D01*
X067552Y041265D01*
X067620Y041265D01*
X067625Y041270D01*
X067754Y041278D01*
X067765Y041271D01*
X067826Y041283D01*
X067888Y041287D01*
X067897Y041297D01*
X068031Y041324D01*
X068043Y041318D01*
X068102Y041338D01*
X068163Y041350D01*
X068170Y041361D01*
X068299Y041405D01*
X068312Y041400D01*
X068368Y041428D01*
X068427Y041448D01*
X068433Y041460D01*
X068555Y041520D01*
X068568Y041518D01*
X068620Y041552D01*
X068675Y041580D01*
X068680Y041592D01*
X068793Y041668D01*
X068806Y041667D01*
X068853Y041708D01*
X068905Y041743D01*
X068908Y041756D01*
X069010Y041846D01*
X069023Y041847D01*
X069064Y041893D01*
X069111Y041934D01*
X069112Y041948D01*
X069202Y042050D01*
X069215Y042053D01*
X069250Y042105D01*
X069291Y042151D01*
X069290Y042165D01*
X069365Y042278D01*
X069378Y042282D01*
X069406Y042338D01*
X069440Y042390D01*
X069438Y042403D01*
X069498Y042525D01*
X069510Y042531D01*
X069530Y042590D01*
X069557Y042646D01*
X069553Y042658D01*
X069597Y042788D01*
X069608Y042795D01*
X069620Y042856D01*
X069640Y042915D01*
X069634Y042927D01*
X069661Y043061D01*
X069671Y043069D01*
X069675Y043132D01*
X069687Y043193D01*
X069680Y043204D01*
X069688Y043333D01*
X069693Y043338D01*
X069693Y043358D01*
X069697Y043363D01*
X069694Y043418D01*
X069697Y043474D01*
X069693Y043479D01*
X069693Y043499D01*
X069688Y043503D01*
X069680Y043633D01*
X069687Y043644D01*
X069675Y043705D01*
X069671Y043767D01*
X069661Y043776D01*
X069634Y043910D01*
X069640Y043922D01*
X069620Y043981D01*
X069608Y044042D01*
X069597Y044049D01*
X069553Y044178D01*
X069557Y044191D01*
X069530Y044247D01*
X069510Y044305D01*
X069498Y044311D01*
X069438Y044434D01*
X069440Y044447D01*
X069406Y044498D01*
X070531Y044498D01*
X070631Y044540D01*
X070649Y044540D01*
X070921Y044652D01*
X071129Y044861D01*
X071242Y045133D01*
X071242Y045151D01*
X071284Y045251D01*
X071284Y045625D01*
X071242Y045726D01*
X071242Y045744D01*
X071206Y045832D01*
X071242Y045920D01*
X071242Y045938D01*
X071284Y046039D01*
X071284Y046413D01*
X071242Y046513D01*
X071242Y046531D01*
X071129Y046803D01*
X070921Y047011D01*
X070649Y047124D01*
X070631Y047124D01*
X070531Y047166D01*
X020236Y047166D01*
X014975Y052427D01*
X014975Y056880D01*
X014831Y057226D01*
X012431Y059626D01*
X012167Y059890D01*
X011821Y060033D01*
X009480Y060033D01*
X009615Y060267D01*
X009706Y060606D01*
X009706Y060956D01*
X009615Y061295D01*
X009440Y061598D01*
X009192Y061846D01*
X008889Y062021D01*
X008550Y062112D01*
X008200Y062112D01*
X007862Y062021D01*
X007558Y061846D01*
X007310Y061598D01*
X007135Y061295D01*
X007045Y060956D01*
X007045Y060606D01*
X007135Y060267D01*
X007270Y060033D01*
X006538Y060033D01*
X006686Y060290D01*
X006773Y060614D01*
X006773Y060948D01*
X006686Y061272D01*
X006519Y061562D01*
X006282Y061798D01*
X005992Y061966D01*
X005669Y062053D01*
X004271Y062053D01*
X004155Y062021D01*
X004155Y062761D01*
X004158Y062819D01*
X004188Y062930D01*
X004246Y063030D01*
X004327Y063111D01*
X004427Y063169D01*
X004538Y063198D01*
X004596Y063202D01*
X010360Y063202D01*
X010849Y063333D01*
X011287Y063586D01*
X011645Y063944D01*
X011898Y064382D01*
X012029Y064870D01*
X012029Y071573D01*
X017949Y071573D01*
X122750Y071573D01*
X122750Y070713D02*
X012029Y070713D01*
X012029Y069853D02*
X122750Y069853D01*
X122750Y068993D02*
X012029Y068993D01*
X012029Y068133D02*
X122750Y068133D01*
X122750Y067273D02*
X012029Y067273D01*
X012029Y066413D02*
X122750Y066413D01*
X122750Y065553D02*
X012029Y065553D01*
X012015Y064818D02*
X012015Y059953D01*
X012524Y059533D02*
X122750Y059533D01*
X122750Y058673D02*
X013384Y058673D01*
X013735Y058323D02*
X013735Y071573D01*
X014595Y071573D02*
X014595Y057463D01*
X014244Y057813D02*
X122750Y057813D01*
X122750Y056953D02*
X014944Y056953D01*
X014975Y056093D02*
X122750Y056093D01*
X122750Y055233D02*
X014975Y055233D01*
X014975Y054373D02*
X122750Y054373D01*
X122750Y053513D02*
X014975Y053513D01*
X014975Y052653D02*
X122750Y052653D01*
X122750Y051793D02*
X015608Y051793D01*
X015455Y051947D02*
X015455Y071573D01*
X016315Y071573D02*
X016315Y051087D01*
X016468Y050933D02*
X122750Y050933D01*
X122750Y050073D02*
X017328Y050073D01*
X017175Y050227D02*
X017175Y071573D01*
X017949Y071573D02*
X017951Y071821D01*
X019994Y071795D01*
X020027Y071784D01*
X020152Y071793D01*
X020266Y071792D01*
X020285Y071788D01*
X020385Y071810D01*
X020487Y071817D01*
X020512Y071830D01*
X020541Y071829D01*
X020636Y071864D01*
X020736Y071886D01*
X020759Y071902D01*
X020788Y071905D01*
X020877Y071954D01*
X020973Y071990D01*
X020994Y072009D01*
X021021Y072016D01*
X021103Y072077D01*
X021192Y072126D01*
X021210Y072148D01*
X021237Y072159D01*
X021309Y072231D01*
X021390Y072292D01*
X021405Y072317D01*
X021429Y072332D01*
X021490Y072413D01*
X021562Y072485D01*
X021573Y072512D01*
X021596Y072530D01*
X021645Y072619D01*
X021706Y072701D01*
X021713Y072728D01*
X021732Y072749D01*
X021768Y072845D01*
X021817Y072934D01*
X021820Y072963D01*
X021836Y072986D01*
X021858Y073086D01*
X021893Y073181D01*
X021892Y073210D01*
X021905Y073235D01*
X021912Y073337D01*
X021934Y073436D01*
X021929Y073466D01*
X021929Y073565D01*
X021938Y073695D01*
X021929Y073723D01*
X021929Y076883D01*
X024026Y079629D01*
X024582Y079596D01*
X024722Y079581D01*
X024740Y079586D01*
X024759Y079585D01*
X024892Y079631D01*
X024893Y079631D01*
X024958Y079635D01*
X025044Y079676D01*
X025137Y079703D01*
X025157Y079719D01*
X025182Y079725D01*
X025261Y079779D01*
X025348Y079820D01*
X025365Y079839D01*
X025389Y079848D01*
X025459Y079915D01*
X025538Y079969D01*
X025552Y079990D01*
X025574Y080003D01*
X025633Y080079D01*
X025703Y080145D01*
X025713Y080169D01*
X025733Y080185D01*
X025779Y080269D01*
X025838Y080346D01*
X025844Y080370D01*
X025862Y080389D01*
X025894Y080480D01*
X025940Y080564D01*
X025942Y080590D01*
X025956Y080611D01*
X025974Y080706D01*
X026006Y080797D01*
X026005Y080822D01*
X026015Y080846D01*
X026018Y080942D01*
X026036Y081036D01*
X026030Y081061D01*
X026037Y081086D01*
X026025Y081181D01*
X026027Y081278D01*
X026004Y081338D01*
X026003Y081350D01*
X025998Y081390D01*
X026006Y081454D01*
X025981Y081547D01*
X025970Y081642D01*
X025950Y081678D01*
X025949Y081706D01*
X065365Y081706D01*
X065365Y080722D01*
X065381Y080465D01*
X065432Y080212D01*
X065514Y079968D01*
X065628Y079738D01*
X065771Y079523D01*
X065941Y079330D01*
X066135Y079160D01*
X066349Y079017D01*
X066580Y078903D01*
X066824Y078820D01*
X067076Y078770D01*
X067333Y078753D01*
X067496Y078753D01*
X067753Y078770D01*
X068005Y078820D01*
X068249Y078903D01*
X068480Y079017D01*
X068694Y079160D01*
X068888Y079330D01*
X069058Y079523D01*
X069201Y079738D01*
X069315Y079968D01*
X069397Y080212D01*
X069448Y080465D01*
X069465Y080722D01*
X069465Y081706D01*
X119698Y081706D01*
X119701Y080828D01*
X119707Y080567D01*
X119748Y080309D01*
X119821Y080059D01*
X119926Y079820D01*
X120062Y079597D01*
X120226Y079393D01*
X120414Y079213D01*
X120625Y079059D01*
X120853Y078933D01*
X121097Y078838D01*
X121350Y078776D01*
X121610Y078747D01*
X122750Y078747D01*
X122750Y047961D01*
X122735Y047904D01*
X122703Y047849D01*
X122658Y047803D01*
X122602Y047772D01*
X122541Y047755D01*
X122509Y047753D01*
X117714Y047753D01*
X117695Y047760D01*
X117568Y047753D01*
X117441Y047753D01*
X117422Y047745D01*
X117303Y047739D01*
X116837Y047587D01*
X116426Y047319D01*
X116098Y046954D01*
X115876Y046517D01*
X115775Y046037D01*
X115787Y045812D01*
X115787Y045393D01*
X114708Y045393D01*
X114453Y045377D01*
X114203Y045327D01*
X113961Y045246D01*
X113731Y045134D01*
X113518Y044993D01*
X113325Y044826D01*
X113155Y044635D01*
X113012Y044423D01*
X112897Y044195D01*
X112812Y043954D01*
X112760Y043704D01*
X112740Y043450D01*
X112740Y043437D01*
X112754Y043178D01*
X112801Y042922D01*
X112882Y042676D01*
X112995Y042442D01*
X113138Y042225D01*
X113307Y042029D01*
X113502Y041856D01*
X113717Y041711D01*
X113949Y041596D01*
X114195Y041511D01*
X114449Y041460D01*
X114708Y041443D01*
X115787Y041443D01*
X115787Y041127D01*
X115775Y040902D01*
X115876Y040422D01*
X116098Y039985D01*
X116426Y039620D01*
X116837Y039353D01*
X117303Y039201D01*
X117422Y039194D01*
X117441Y039186D01*
X117568Y039186D01*
X117695Y039180D01*
X117714Y039186D01*
X122312Y039186D01*
X122370Y039183D01*
X122481Y039153D01*
X122581Y039095D01*
X122662Y039014D01*
X122720Y038914D01*
X122749Y038803D01*
X122753Y038745D01*
X122753Y008213D01*
X121670Y008213D01*
X121414Y008197D01*
X121162Y008147D01*
X120918Y008064D01*
X120688Y007951D01*
X120474Y007808D01*
X120281Y007639D01*
X120111Y007446D01*
X119968Y007233D01*
X119853Y007003D01*
X119770Y006760D01*
X119719Y006508D01*
X119702Y006252D01*
X119698Y005233D01*
X069252Y005233D01*
X069249Y006332D01*
X069234Y006554D01*
X069190Y006773D01*
X069118Y006983D01*
X069019Y007183D01*
X068895Y007368D01*
X068748Y007535D01*
X068580Y007682D01*
X068395Y007806D01*
X068195Y007904D01*
X067984Y007975D01*
X067765Y008019D01*
X067543Y008033D01*
X067297Y008037D01*
X067052Y008008D01*
X066813Y007948D01*
X066584Y007857D01*
X066368Y007736D01*
X066171Y007589D01*
X065994Y007417D01*
X065841Y007224D01*
X065715Y007012D01*
X065617Y006786D01*
X065550Y006549D01*
X065515Y006305D01*
X065515Y005233D01*
X025829Y005233D01*
X025829Y007003D01*
X025844Y007090D01*
X025829Y007160D01*
X025829Y007232D01*
X025795Y007314D01*
X025776Y007401D01*
X025841Y007073D02*
X065751Y007073D01*
X066195Y007607D02*
X066195Y041529D01*
X066319Y041473D02*
X012029Y041473D01*
X012875Y041596D02*
X012875Y017493D01*
X012787Y017393D02*
X012029Y017393D01*
X012029Y016533D02*
X012369Y016533D01*
X012344Y015673D02*
X012029Y015673D01*
X013735Y017977D02*
X013735Y041771D01*
X014450Y042333D02*
X065376Y042333D01*
X065335Y042417D02*
X065335Y005233D01*
X065515Y005353D02*
X025829Y005353D01*
X026635Y005233D02*
X026635Y044498D01*
X027495Y044498D02*
X027495Y005233D01*
X028355Y005233D02*
X028355Y044498D01*
X029215Y044498D02*
X029215Y005233D01*
X030075Y005233D02*
X030075Y044498D01*
X030935Y044498D02*
X030935Y005233D01*
X031795Y005233D02*
X031795Y044498D01*
X032655Y044498D02*
X032655Y005233D01*
X033515Y005233D02*
X033515Y044498D01*
X034375Y044498D02*
X034375Y005233D01*
X035235Y005233D02*
X035235Y044498D01*
X036095Y044498D02*
X036095Y005233D01*
X036955Y005233D02*
X036955Y044498D01*
X037815Y044498D02*
X037815Y005233D01*
X038675Y005233D02*
X038675Y044498D01*
X039535Y044498D02*
X039535Y005233D01*
X040395Y005233D02*
X040395Y044498D01*
X041255Y044498D02*
X041255Y005233D01*
X042115Y005233D02*
X042115Y044498D01*
X042975Y044498D02*
X042975Y005233D01*
X043835Y005233D02*
X043835Y044498D01*
X044695Y044498D02*
X044695Y005233D01*
X045555Y005233D02*
X045555Y044498D01*
X046415Y044498D02*
X046415Y005233D01*
X047275Y005233D02*
X047275Y044498D01*
X048135Y044498D02*
X048135Y005233D01*
X048995Y005233D02*
X048995Y044498D01*
X049855Y044498D02*
X049855Y005233D01*
X050715Y005233D02*
X050715Y044498D01*
X051575Y044498D02*
X051575Y005233D01*
X052435Y005233D02*
X052435Y044498D01*
X053295Y044498D02*
X053295Y005233D01*
X054155Y005233D02*
X054155Y044498D01*
X055015Y044498D02*
X055015Y005233D01*
X055875Y005233D02*
X055875Y044498D01*
X056735Y044498D02*
X056735Y005233D01*
X057595Y005233D02*
X057595Y044498D01*
X058455Y044498D02*
X058455Y005233D01*
X059315Y005233D02*
X059315Y044498D01*
X060175Y044498D02*
X060175Y005233D01*
X061035Y005233D02*
X061035Y044498D01*
X061895Y044498D02*
X061895Y005233D01*
X062755Y005233D02*
X062755Y044498D01*
X063615Y044498D02*
X063615Y005233D01*
X064475Y005233D02*
X064475Y044498D01*
X065184Y044053D02*
X014819Y044053D01*
X014595Y044557D02*
X014595Y049118D01*
X014499Y049213D02*
X012029Y049213D01*
X012029Y048353D02*
X015359Y048353D01*
X015455Y048258D02*
X015455Y018013D01*
X016315Y018013D02*
X016315Y047398D01*
X016219Y047493D02*
X012029Y047493D01*
X012029Y046633D02*
X017079Y046633D01*
X017175Y046538D02*
X017175Y018013D01*
X018035Y018013D02*
X018035Y045678D01*
X017939Y045773D02*
X012029Y045773D01*
X012875Y045243D02*
X012875Y050838D01*
X012779Y050933D02*
X012029Y050933D01*
X012029Y050073D02*
X013639Y050073D01*
X013735Y049978D02*
X013735Y045182D01*
X014265Y044913D02*
X018799Y044913D01*
X018895Y044818D02*
X018895Y017256D01*
X018799Y017393D02*
X122753Y017393D01*
X122753Y016533D02*
X019399Y016533D01*
X019755Y016024D02*
X019755Y044493D01*
X020615Y044498D02*
X020615Y014792D01*
X020600Y014813D02*
X122753Y014813D01*
X122753Y013953D02*
X021200Y013953D01*
X021475Y013561D02*
X021475Y044498D01*
X022335Y044498D02*
X022335Y012329D01*
X022401Y012233D02*
X122753Y012233D01*
X122753Y011373D02*
X023002Y011373D01*
X023602Y010513D02*
X122753Y010513D01*
X122095Y008213D02*
X122095Y039186D01*
X122370Y039183D02*
X122370Y039183D01*
X122725Y038893D02*
X012029Y038893D01*
X012029Y038033D02*
X122753Y038033D01*
X122753Y037173D02*
X012029Y037173D01*
X012029Y036313D02*
X122753Y036313D01*
X122753Y035453D02*
X012029Y035453D01*
X012029Y034593D02*
X122753Y034593D01*
X122753Y033733D02*
X012029Y033733D01*
X012029Y032873D02*
X122753Y032873D01*
X122753Y032013D02*
X012029Y032013D01*
X012029Y031153D02*
X122753Y031153D01*
X122753Y030293D02*
X012029Y030293D01*
X012029Y029433D02*
X122753Y029433D01*
X122753Y028573D02*
X012029Y028573D01*
X012029Y027713D02*
X122753Y027713D01*
X122753Y026853D02*
X012029Y026853D01*
X012029Y025993D02*
X122753Y025993D01*
X122753Y025133D02*
X012029Y025133D01*
X012029Y024273D02*
X122753Y024273D01*
X122753Y023413D02*
X012029Y023413D01*
X012029Y022553D02*
X122753Y022553D01*
X122753Y021693D02*
X012029Y021693D01*
X012029Y020833D02*
X122753Y020833D01*
X122753Y019973D02*
X012029Y019973D01*
X012029Y019113D02*
X122753Y019113D01*
X122753Y018253D02*
X012029Y018253D01*
X014595Y018013D02*
X014595Y042543D01*
X014839Y043193D02*
X065092Y043193D01*
X065335Y044420D02*
X065335Y044498D01*
X065335Y047166D02*
X065335Y081706D01*
X065365Y081033D02*
X026035Y081033D01*
X025775Y080261D02*
X025775Y047166D01*
X026635Y047166D02*
X026635Y081706D01*
X027495Y081706D02*
X027495Y047166D01*
X028355Y047166D02*
X028355Y081706D01*
X029215Y081706D02*
X029215Y047166D01*
X030075Y047166D02*
X030075Y081706D01*
X030935Y081706D02*
X030935Y047166D01*
X031795Y047166D02*
X031795Y081706D01*
X032655Y081706D02*
X032655Y047166D01*
X033515Y047166D02*
X033515Y081706D01*
X034375Y081706D02*
X034375Y047166D01*
X035235Y047166D02*
X035235Y081706D01*
X036095Y081706D02*
X036095Y047166D01*
X036955Y047166D02*
X036955Y081706D01*
X037815Y081706D02*
X037815Y047166D01*
X038675Y047166D02*
X038675Y081706D01*
X039535Y081706D02*
X039535Y047166D01*
X040395Y047166D02*
X040395Y081706D01*
X041255Y081706D02*
X041255Y047166D01*
X042115Y047166D02*
X042115Y081706D01*
X042975Y081706D02*
X042975Y047166D01*
X043835Y047166D02*
X043835Y081706D01*
X044695Y081706D02*
X044695Y047166D01*
X045555Y047166D02*
X045555Y081706D01*
X046415Y081706D02*
X046415Y047166D01*
X047275Y047166D02*
X047275Y081706D01*
X048135Y081706D02*
X048135Y047166D01*
X048995Y047166D02*
X048995Y081706D01*
X049855Y081706D02*
X049855Y047166D01*
X050715Y047166D02*
X050715Y081706D01*
X051575Y081706D02*
X051575Y047166D01*
X052435Y047166D02*
X052435Y081706D01*
X053295Y081706D02*
X053295Y047166D01*
X054155Y047166D02*
X054155Y081706D01*
X055015Y081706D02*
X055015Y047166D01*
X055875Y047166D02*
X055875Y081706D01*
X056735Y081706D02*
X056735Y047166D01*
X057595Y047166D02*
X057595Y081706D01*
X058455Y081706D02*
X058455Y047166D01*
X059315Y047166D02*
X059315Y081706D01*
X060175Y081706D02*
X060175Y047166D01*
X061035Y047166D02*
X061035Y081706D01*
X061895Y081706D02*
X061895Y047166D01*
X062755Y047166D02*
X062755Y081706D01*
X063615Y081706D02*
X063615Y047166D01*
X064475Y047166D02*
X064475Y081706D01*
X065445Y080173D02*
X025719Y080173D01*
X024915Y079632D02*
X024915Y047166D01*
X024055Y047166D02*
X024055Y079628D01*
X023785Y079313D02*
X065960Y079313D01*
X066195Y079120D02*
X066195Y047166D01*
X067055Y047166D02*
X067055Y078774D01*
X067915Y078802D02*
X067915Y047166D01*
X068775Y047166D02*
X068775Y079230D01*
X068869Y079313D02*
X120309Y079313D01*
X120375Y079251D02*
X120375Y047753D01*
X121235Y047753D02*
X121235Y078804D01*
X122095Y078747D02*
X122095Y047753D01*
X122750Y048353D02*
X019048Y048353D01*
X018895Y048507D02*
X018895Y071809D01*
X019755Y071798D02*
X019755Y047647D01*
X019908Y047493D02*
X116693Y047493D01*
X116837Y047587D02*
X116837Y047587D01*
X116935Y047619D02*
X116935Y081706D01*
X117795Y081706D02*
X117795Y047753D01*
X117303Y047739D02*
X117303Y047739D01*
X116426Y047319D02*
X116426Y047319D01*
X116098Y046954D02*
X116098Y046954D01*
X116075Y046908D02*
X116075Y081706D01*
X115215Y081706D02*
X115215Y045393D01*
X115787Y045773D02*
X071230Y045773D01*
X071200Y046633D02*
X115935Y046633D01*
X115876Y046517D02*
X115876Y046517D01*
X115775Y046037D02*
X115775Y046037D01*
X114355Y045357D02*
X114355Y081706D01*
X113495Y081706D02*
X113495Y044972D01*
X113426Y044913D02*
X071151Y044913D01*
X070495Y044498D02*
X070495Y005233D01*
X071355Y005233D02*
X071355Y081706D01*
X072215Y081706D02*
X072215Y005233D01*
X073075Y005233D02*
X073075Y081706D01*
X073935Y081706D02*
X073935Y005233D01*
X074795Y005233D02*
X074795Y081706D01*
X075655Y081706D02*
X075655Y005233D01*
X076515Y005233D02*
X076515Y081706D01*
X077375Y081706D02*
X077375Y005233D01*
X078235Y005233D02*
X078235Y081706D01*
X079095Y081706D02*
X079095Y005233D01*
X079955Y005233D02*
X079955Y081706D01*
X080815Y081706D02*
X080815Y005233D01*
X081675Y005233D02*
X081675Y081706D01*
X082535Y081706D02*
X082535Y005233D01*
X083395Y005233D02*
X083395Y081706D01*
X084255Y081706D02*
X084255Y005233D01*
X085115Y005233D02*
X085115Y081706D01*
X085975Y081706D02*
X085975Y005233D01*
X086835Y005233D02*
X086835Y081706D01*
X087695Y081706D02*
X087695Y005233D01*
X088555Y005233D02*
X088555Y081706D01*
X089415Y081706D02*
X089415Y005233D01*
X090275Y005233D02*
X090275Y081706D01*
X091135Y081706D02*
X091135Y005233D01*
X091995Y005233D02*
X091995Y081706D01*
X092855Y081706D02*
X092855Y005233D01*
X093715Y005233D02*
X093715Y081706D01*
X094575Y081706D02*
X094575Y005233D01*
X095435Y005233D02*
X095435Y081706D01*
X096295Y081706D02*
X096295Y005233D01*
X097155Y005233D02*
X097155Y081706D01*
X098015Y081706D02*
X098015Y005233D01*
X098875Y005233D02*
X098875Y081706D01*
X099735Y081706D02*
X099735Y005233D01*
X100595Y005233D02*
X100595Y081706D01*
X101455Y081706D02*
X101455Y005233D01*
X102315Y005233D02*
X102315Y081706D01*
X103175Y081706D02*
X103175Y005233D01*
X104035Y005233D02*
X104035Y081706D01*
X104895Y081706D02*
X104895Y005233D01*
X105755Y005233D02*
X105755Y081706D01*
X106615Y081706D02*
X106615Y005233D01*
X107475Y005233D02*
X107475Y081706D01*
X108335Y081706D02*
X108335Y005233D01*
X109195Y005233D02*
X109195Y081706D01*
X110055Y081706D02*
X110055Y005233D01*
X110915Y005233D02*
X110915Y081706D01*
X111775Y081706D02*
X111775Y005233D01*
X112635Y005233D02*
X112635Y081706D01*
X118655Y081706D02*
X118655Y047753D01*
X119515Y047753D02*
X119515Y081706D01*
X119700Y081033D02*
X069465Y081033D01*
X069635Y081706D02*
X069635Y047166D01*
X070495Y047166D02*
X070495Y081706D01*
X069384Y080173D02*
X119787Y080173D01*
X122750Y078453D02*
X023128Y078453D01*
X023195Y078541D02*
X023195Y047166D01*
X022335Y047166D02*
X022335Y077414D01*
X022471Y077593D02*
X122750Y077593D01*
X122750Y076733D02*
X021929Y076733D01*
X021929Y075873D02*
X122750Y075873D01*
X122750Y075013D02*
X021929Y075013D01*
X021929Y074153D02*
X122750Y074153D01*
X122750Y073293D02*
X021909Y073293D01*
X021511Y072433D02*
X122750Y072433D01*
X122750Y064693D02*
X011981Y064693D01*
X011898Y064382D02*
X011898Y064382D01*
X011645Y063944D02*
X011645Y063944D01*
X011534Y063833D02*
X122750Y063833D01*
X122750Y062973D02*
X004213Y062973D01*
X004275Y063058D02*
X004275Y062053D01*
X004155Y062113D02*
X122750Y062113D01*
X122750Y061253D02*
X009626Y061253D01*
X009435Y061603D02*
X009435Y063202D01*
X010295Y063202D02*
X010295Y060033D01*
X009649Y060393D02*
X122750Y060393D01*
X122750Y049213D02*
X018188Y049213D01*
X018035Y049367D02*
X018035Y071820D01*
X020615Y071856D02*
X020615Y047166D01*
X021475Y047166D02*
X021475Y072392D01*
X012875Y071573D02*
X012875Y059183D01*
X011155Y060033D02*
X011155Y063509D01*
X011287Y063586D02*
X011287Y063586D01*
X010849Y063333D02*
X010849Y063333D01*
X008575Y063202D02*
X008575Y062105D01*
X007715Y061936D02*
X007715Y063202D01*
X006855Y063202D02*
X006855Y060033D01*
X006714Y060393D02*
X007102Y060393D01*
X007124Y061253D02*
X006691Y061253D01*
X005995Y061964D02*
X005995Y063202D01*
X005135Y063202D02*
X005135Y062053D01*
X006855Y056533D02*
X006855Y053659D01*
X007715Y053659D02*
X007715Y054665D01*
X007178Y055233D02*
X006630Y055233D01*
X006744Y056093D02*
X007071Y056093D01*
X005995Y054637D02*
X005995Y053659D01*
X005135Y053659D02*
X005135Y054549D01*
X004275Y054549D02*
X004275Y053802D01*
X004155Y054373D02*
X012317Y054373D01*
X012317Y053513D02*
X010874Y053513D01*
X011155Y053351D02*
X011155Y056533D01*
X010295Y056533D02*
X010295Y053659D01*
X009435Y053659D02*
X009435Y054998D01*
X009573Y055233D02*
X012317Y055233D01*
X012015Y056004D02*
X012015Y052043D01*
X012029Y051793D02*
X012317Y051793D01*
X011898Y052479D02*
X011898Y052479D01*
X011797Y052653D02*
X012317Y052653D01*
X011645Y052917D02*
X011645Y052917D01*
X011287Y053275D02*
X011287Y053275D01*
X008575Y053659D02*
X008575Y054496D01*
X009680Y056093D02*
X011925Y056093D01*
X003365Y052613D02*
X003181Y052613D01*
X003181Y052797D01*
X003365Y052613D01*
X003325Y052653D02*
X003181Y052653D01*
X012029Y040613D02*
X115836Y040613D01*
X115876Y040422D02*
X115876Y040422D01*
X116075Y040032D02*
X116075Y005233D01*
X116935Y005233D02*
X116935Y039321D01*
X116837Y039353D02*
X116837Y039353D01*
X116426Y039620D02*
X116426Y039620D01*
X116426Y039620D01*
X116306Y039753D02*
X012029Y039753D01*
X020000Y015673D02*
X122753Y015673D01*
X122753Y013093D02*
X021801Y013093D01*
X025404Y007933D02*
X066776Y007933D01*
X067055Y008008D02*
X067055Y041276D01*
X067915Y041300D02*
X067915Y007989D01*
X068108Y007933D02*
X120662Y007933D01*
X120375Y007721D02*
X120375Y039186D01*
X121235Y039186D02*
X121235Y008161D01*
X119888Y007073D02*
X069073Y007073D01*
X068775Y007505D02*
X068775Y041656D01*
X068460Y041473D02*
X114385Y041473D01*
X114355Y041479D02*
X114355Y005233D01*
X115215Y005233D02*
X115215Y041443D01*
X115775Y040902D02*
X115775Y040902D01*
X116098Y039985D02*
X116098Y039985D01*
X117303Y039201D02*
X117303Y039201D01*
X117795Y039186D02*
X117795Y005233D01*
X118655Y005233D02*
X118655Y039186D01*
X119515Y039186D02*
X119515Y005233D01*
X119699Y005353D02*
X069251Y005353D01*
X069635Y005233D02*
X069635Y042898D01*
X069635Y042926D02*
X069635Y042928D01*
X069687Y043193D02*
X112753Y043193D01*
X112847Y044053D02*
X069595Y044053D01*
X069635Y043938D02*
X069635Y044498D01*
X069635Y043910D02*
X069635Y043908D01*
X069403Y042333D02*
X113066Y042333D01*
X113495Y041863D02*
X113495Y005233D01*
X119702Y006213D02*
X069249Y006213D01*
X065515Y006213D02*
X025829Y006213D01*
X019114Y079145D02*
X019114Y081263D01*
X019118Y081321D01*
X019147Y081432D01*
X019205Y081532D01*
X019286Y081613D01*
X019386Y081671D01*
X019497Y081700D01*
X019555Y081704D01*
X019702Y081704D01*
X019707Y081706D01*
X021236Y081706D01*
X019114Y079145D01*
X019114Y079313D02*
X019253Y079313D01*
X019755Y079919D02*
X019755Y081706D01*
X020615Y081706D02*
X020615Y080956D01*
X020678Y081033D02*
X019114Y081033D01*
X019114Y080173D02*
X019966Y080173D01*
M02*
