%
M48
M72
T01C0.0160
T02C0.0197
T03C0.0709
T04C0.1181
T05C0.1260
%
T01
X13869Y16433
X14349Y16433
X14829Y16433
X15309Y16433
X15309Y15953
X15309Y15413
X14829Y15953
X14829Y15413
X14349Y15953
X14349Y15413
X13869Y15953
X13869Y15413
X22929Y6233
X22929Y5693
X22929Y5153
X23469Y6233
X23469Y5693
X23469Y5153
X24009Y5153
X24009Y6233
X24549Y6233
X24009Y5693
X24549Y5153
X24549Y5693
X16689Y72953
X16689Y73373
X16689Y73793
X16209Y73793
X16209Y73373
X16209Y72953
X15729Y72953
X15729Y73373
X15729Y73793
X15249Y73793
X15249Y73373
X15249Y72953
X23409Y80693
X23409Y81773
X23949Y81773
X24489Y81773
X24489Y81233
X23949Y81233
X23409Y81233
X23949Y80693
X24489Y80693
X22869Y80693
X22869Y81233
X22869Y81773
T02
X70344Y45438
X70344Y46226
T03
X5501Y60781
X5501Y59127
X5501Y57474
X5501Y55820
T04
X8375Y60781
X8375Y55820
T05
X121722Y80674
X67391Y80674
X13088Y73593
X13060Y13352
X67391Y6265
X121722Y6265
X67391Y43470
X13060Y43470
X114635Y43470
M30
