G75*
%MOIN*%
%OFA0B0*%
%FSLAX24Y24*%
%IPPOS*%
%LPD*%
%AMOC8*
5,1,8,0,0,1.08239X$1,22.5*
%
%ADD10C,0.0000*%
%ADD11C,0.1300*%
%ADD12C,0.1221*%
%ADD13C,0.1103*%
D10*
X012470Y011579D02*
X017193Y011579D01*
X017193Y011578D02*
X017259Y011576D01*
X017325Y011571D01*
X017391Y011561D01*
X017456Y011548D01*
X017520Y011532D01*
X017583Y011512D01*
X017645Y011488D01*
X017705Y011461D01*
X017764Y011431D01*
X017821Y011397D01*
X017876Y011360D01*
X017929Y011320D01*
X017980Y011278D01*
X018028Y011232D01*
X018074Y011184D01*
X018116Y011133D01*
X018156Y011080D01*
X018193Y011025D01*
X018227Y010968D01*
X018257Y010909D01*
X018284Y010849D01*
X018308Y010787D01*
X018328Y010724D01*
X018344Y010660D01*
X018357Y010595D01*
X018367Y010529D01*
X018372Y010463D01*
X018374Y010397D01*
X018374Y005674D01*
X018375Y005674D02*
X018377Y005608D01*
X018382Y005542D01*
X018392Y005476D01*
X018405Y005411D01*
X018421Y005347D01*
X018441Y005284D01*
X018465Y005222D01*
X018492Y005162D01*
X018522Y005103D01*
X018556Y005046D01*
X018593Y004991D01*
X018633Y004938D01*
X018675Y004887D01*
X018721Y004839D01*
X018769Y004793D01*
X018820Y004751D01*
X018873Y004711D01*
X018928Y004674D01*
X018985Y004640D01*
X019044Y004610D01*
X019104Y004583D01*
X019166Y004559D01*
X019229Y004539D01*
X019293Y004523D01*
X019358Y004510D01*
X019424Y004500D01*
X019490Y004495D01*
X019556Y004493D01*
X122312Y004493D01*
X122378Y004495D01*
X122444Y004500D01*
X122510Y004510D01*
X122575Y004523D01*
X122639Y004539D01*
X122702Y004559D01*
X122764Y004583D01*
X122824Y004610D01*
X122883Y004640D01*
X122940Y004674D01*
X122995Y004711D01*
X123048Y004751D01*
X123099Y004793D01*
X123147Y004839D01*
X123193Y004887D01*
X123235Y004938D01*
X123275Y004991D01*
X123312Y005046D01*
X123346Y005103D01*
X123376Y005162D01*
X123403Y005222D01*
X123427Y005284D01*
X123447Y005347D01*
X123463Y005411D01*
X123476Y005476D01*
X123486Y005542D01*
X123491Y005608D01*
X123493Y005674D01*
X123493Y038745D01*
X123491Y038811D01*
X123486Y038877D01*
X123476Y038943D01*
X123463Y039008D01*
X123447Y039072D01*
X123427Y039135D01*
X123403Y039197D01*
X123376Y039257D01*
X123346Y039316D01*
X123312Y039373D01*
X123275Y039428D01*
X123235Y039481D01*
X123193Y039532D01*
X123147Y039580D01*
X123099Y039626D01*
X123048Y039668D01*
X122995Y039708D01*
X122940Y039745D01*
X122883Y039779D01*
X122824Y039809D01*
X122764Y039836D01*
X122702Y039860D01*
X122639Y039880D01*
X122575Y039896D01*
X122510Y039909D01*
X122444Y039919D01*
X122378Y039924D01*
X122312Y039926D01*
X117588Y039926D01*
X117523Y039931D01*
X117458Y039940D01*
X117394Y039953D01*
X117331Y039970D01*
X117269Y039990D01*
X117208Y040014D01*
X117149Y040041D01*
X117091Y040072D01*
X117035Y040106D01*
X116982Y040143D01*
X116930Y040183D01*
X116881Y040227D01*
X116835Y040273D01*
X116791Y040321D01*
X116750Y040372D01*
X116713Y040425D01*
X116678Y040481D01*
X116647Y040538D01*
X116619Y040597D01*
X116595Y040658D01*
X116574Y040720D01*
X116557Y040783D01*
X116543Y040847D01*
X116533Y040911D01*
X116527Y040976D01*
X116525Y041042D01*
X116527Y041107D01*
X116527Y045832D01*
X116525Y045897D01*
X116527Y045963D01*
X116533Y046028D01*
X116543Y046092D01*
X116557Y046156D01*
X116574Y046219D01*
X116595Y046281D01*
X116619Y046342D01*
X116647Y046401D01*
X116678Y046458D01*
X116713Y046514D01*
X116750Y046567D01*
X116791Y046618D01*
X116835Y046666D01*
X116881Y046712D01*
X116930Y046756D01*
X116982Y046796D01*
X117035Y046833D01*
X117091Y046867D01*
X117149Y046898D01*
X117208Y046925D01*
X117269Y046949D01*
X117331Y046969D01*
X117394Y046986D01*
X117458Y046999D01*
X117523Y047008D01*
X117588Y047013D01*
X122509Y047013D01*
X122571Y047015D01*
X122632Y047021D01*
X122693Y047030D01*
X122754Y047044D01*
X122813Y047061D01*
X122871Y047082D01*
X122928Y047107D01*
X122983Y047135D01*
X123036Y047166D01*
X123087Y047201D01*
X123136Y047239D01*
X123183Y047280D01*
X123226Y047323D01*
X123267Y047370D01*
X123305Y047419D01*
X123340Y047470D01*
X123371Y047523D01*
X123399Y047578D01*
X123424Y047635D01*
X123445Y047693D01*
X123462Y047752D01*
X123476Y047813D01*
X123485Y047874D01*
X123491Y047935D01*
X123493Y047997D01*
X123490Y047879D02*
X123490Y081263D01*
X123493Y081265D02*
X123491Y081331D01*
X123486Y081397D01*
X123476Y081463D01*
X123463Y081528D01*
X123447Y081592D01*
X123427Y081655D01*
X123403Y081717D01*
X123376Y081777D01*
X123346Y081836D01*
X123312Y081893D01*
X123275Y081948D01*
X123235Y082001D01*
X123193Y082052D01*
X123147Y082100D01*
X123099Y082146D01*
X123048Y082188D01*
X122995Y082228D01*
X122940Y082265D01*
X122883Y082299D01*
X122824Y082329D01*
X122764Y082356D01*
X122702Y082380D01*
X122639Y082400D01*
X122575Y082416D01*
X122510Y082429D01*
X122444Y082439D01*
X122378Y082444D01*
X122312Y082446D01*
X019556Y082446D01*
X019555Y082444D02*
X019489Y082442D01*
X019423Y082437D01*
X019357Y082427D01*
X019292Y082414D01*
X019228Y082398D01*
X019165Y082378D01*
X019103Y082354D01*
X019043Y082327D01*
X018984Y082297D01*
X018927Y082263D01*
X018872Y082226D01*
X018819Y082186D01*
X018768Y082144D01*
X018720Y082098D01*
X018674Y082050D01*
X018632Y081999D01*
X018592Y081946D01*
X018555Y081891D01*
X018521Y081834D01*
X018491Y081775D01*
X018464Y081715D01*
X018440Y081653D01*
X018420Y081590D01*
X018404Y081526D01*
X018391Y081461D01*
X018381Y081395D01*
X018376Y081329D01*
X018374Y081263D01*
X018374Y076579D01*
X018375Y076737D02*
X018375Y076147D01*
X018373Y076093D01*
X018368Y076040D01*
X018359Y075987D01*
X018346Y075935D01*
X018330Y075883D01*
X018310Y075833D01*
X018287Y075785D01*
X018260Y075738D01*
X018231Y075693D01*
X018198Y075650D01*
X018163Y075610D01*
X018125Y075572D01*
X018085Y075537D01*
X018042Y075504D01*
X017997Y075475D01*
X017950Y075448D01*
X017902Y075425D01*
X017852Y075405D01*
X017800Y075389D01*
X017748Y075376D01*
X017695Y075367D01*
X017642Y075362D01*
X017588Y075360D01*
X017588Y075359D02*
X012470Y075359D01*
X012404Y075357D01*
X012338Y075352D01*
X012272Y075342D01*
X012207Y075329D01*
X012143Y075313D01*
X012080Y075293D01*
X012018Y075269D01*
X011958Y075242D01*
X011899Y075212D01*
X011842Y075178D01*
X011787Y075141D01*
X011734Y075101D01*
X011683Y075059D01*
X011635Y075013D01*
X011589Y074965D01*
X011547Y074914D01*
X011507Y074861D01*
X011470Y074806D01*
X011436Y074749D01*
X011406Y074690D01*
X011379Y074630D01*
X011355Y074568D01*
X011335Y074505D01*
X011319Y074441D01*
X011306Y074376D01*
X011296Y074310D01*
X011291Y074244D01*
X011289Y074178D01*
X011289Y065123D01*
X011288Y065123D02*
X011286Y065057D01*
X011281Y064991D01*
X011271Y064925D01*
X011258Y064860D01*
X011242Y064796D01*
X011222Y064733D01*
X011198Y064671D01*
X011171Y064611D01*
X011141Y064552D01*
X011107Y064495D01*
X011070Y064440D01*
X011030Y064387D01*
X010988Y064336D01*
X010942Y064288D01*
X010894Y064242D01*
X010843Y064200D01*
X010790Y064160D01*
X010735Y064123D01*
X010678Y064089D01*
X010619Y064059D01*
X010559Y064032D01*
X010497Y064008D01*
X010434Y063988D01*
X010370Y063972D01*
X010305Y063959D01*
X010239Y063949D01*
X010173Y063944D01*
X010107Y063942D01*
X004596Y063942D01*
X004530Y063940D01*
X004464Y063935D01*
X004398Y063925D01*
X004333Y063912D01*
X004269Y063896D01*
X004206Y063876D01*
X004144Y063852D01*
X004084Y063825D01*
X004025Y063795D01*
X003968Y063761D01*
X003913Y063724D01*
X003860Y063684D01*
X003809Y063642D01*
X003761Y063596D01*
X003715Y063548D01*
X003673Y063497D01*
X003633Y063444D01*
X003596Y063389D01*
X003562Y063332D01*
X003532Y063273D01*
X003505Y063213D01*
X003481Y063151D01*
X003461Y063088D01*
X003445Y063024D01*
X003432Y062959D01*
X003422Y062893D01*
X003417Y062827D01*
X003415Y062761D01*
X003415Y054100D01*
X003417Y054034D01*
X003422Y053968D01*
X003432Y053902D01*
X003445Y053837D01*
X003461Y053773D01*
X003481Y053710D01*
X003505Y053648D01*
X003532Y053588D01*
X003562Y053529D01*
X003596Y053472D01*
X003633Y053417D01*
X003673Y053364D01*
X003715Y053313D01*
X003761Y053265D01*
X003809Y053219D01*
X003860Y053177D01*
X003913Y053137D01*
X003968Y053100D01*
X004025Y053066D01*
X004084Y053036D01*
X004144Y053009D01*
X004206Y052985D01*
X004269Y052965D01*
X004333Y052949D01*
X004398Y052936D01*
X004464Y052926D01*
X004530Y052921D01*
X004596Y052919D01*
X010107Y052919D01*
X010107Y052918D02*
X010173Y052916D01*
X010239Y052911D01*
X010305Y052901D01*
X010370Y052888D01*
X010434Y052872D01*
X010497Y052852D01*
X010559Y052828D01*
X010619Y052801D01*
X010678Y052771D01*
X010735Y052737D01*
X010790Y052700D01*
X010843Y052660D01*
X010894Y052618D01*
X010942Y052572D01*
X010988Y052524D01*
X011030Y052473D01*
X011070Y052420D01*
X011107Y052365D01*
X011141Y052308D01*
X011171Y052249D01*
X011198Y052189D01*
X011222Y052127D01*
X011242Y052064D01*
X011258Y052000D01*
X011271Y051935D01*
X011281Y051869D01*
X011286Y051803D01*
X011288Y051737D01*
X011289Y051737D02*
X011289Y012760D01*
X011291Y012694D01*
X011296Y012628D01*
X011306Y012562D01*
X011319Y012497D01*
X011335Y012433D01*
X011355Y012370D01*
X011379Y012308D01*
X011406Y012248D01*
X011436Y012189D01*
X011470Y012132D01*
X011507Y012077D01*
X011547Y012024D01*
X011589Y011973D01*
X011635Y011925D01*
X011683Y011879D01*
X011734Y011837D01*
X011787Y011797D01*
X011842Y011760D01*
X011899Y011726D01*
X011958Y011696D01*
X012018Y011669D01*
X012080Y011645D01*
X012143Y011625D01*
X012207Y011609D01*
X012272Y011596D01*
X012338Y011586D01*
X012404Y011581D01*
X012470Y011579D01*
X012430Y013352D02*
X012432Y013402D01*
X012438Y013452D01*
X012448Y013501D01*
X012462Y013549D01*
X012479Y013596D01*
X012500Y013641D01*
X012525Y013685D01*
X012553Y013726D01*
X012585Y013765D01*
X012619Y013802D01*
X012656Y013836D01*
X012696Y013866D01*
X012738Y013893D01*
X012782Y013917D01*
X012828Y013938D01*
X012875Y013954D01*
X012923Y013967D01*
X012973Y013976D01*
X013022Y013981D01*
X013073Y013982D01*
X013123Y013979D01*
X013172Y013972D01*
X013221Y013961D01*
X013269Y013946D01*
X013315Y013928D01*
X013360Y013906D01*
X013403Y013880D01*
X013444Y013851D01*
X013483Y013819D01*
X013519Y013784D01*
X013551Y013746D01*
X013581Y013706D01*
X013608Y013663D01*
X013631Y013619D01*
X013650Y013573D01*
X013666Y013525D01*
X013678Y013476D01*
X013686Y013427D01*
X013690Y013377D01*
X013690Y013327D01*
X013686Y013277D01*
X013678Y013228D01*
X013666Y013179D01*
X013650Y013131D01*
X013631Y013085D01*
X013608Y013041D01*
X013581Y012998D01*
X013551Y012958D01*
X013519Y012920D01*
X013483Y012885D01*
X013444Y012853D01*
X013403Y012824D01*
X013360Y012798D01*
X013315Y012776D01*
X013269Y012758D01*
X013221Y012743D01*
X013172Y012732D01*
X013123Y012725D01*
X013073Y012722D01*
X013022Y012723D01*
X012973Y012728D01*
X012923Y012737D01*
X012875Y012750D01*
X012828Y012766D01*
X012782Y012787D01*
X012738Y012811D01*
X012696Y012838D01*
X012656Y012868D01*
X012619Y012902D01*
X012585Y012939D01*
X012553Y012978D01*
X012525Y013019D01*
X012500Y013063D01*
X012479Y013108D01*
X012462Y013155D01*
X012448Y013203D01*
X012438Y013252D01*
X012432Y013302D01*
X012430Y013352D01*
X012430Y043470D02*
X012432Y043520D01*
X012438Y043570D01*
X012448Y043619D01*
X012462Y043667D01*
X012479Y043714D01*
X012500Y043759D01*
X012525Y043803D01*
X012553Y043844D01*
X012585Y043883D01*
X012619Y043920D01*
X012656Y043954D01*
X012696Y043984D01*
X012738Y044011D01*
X012782Y044035D01*
X012828Y044056D01*
X012875Y044072D01*
X012923Y044085D01*
X012973Y044094D01*
X013022Y044099D01*
X013073Y044100D01*
X013123Y044097D01*
X013172Y044090D01*
X013221Y044079D01*
X013269Y044064D01*
X013315Y044046D01*
X013360Y044024D01*
X013403Y043998D01*
X013444Y043969D01*
X013483Y043937D01*
X013519Y043902D01*
X013551Y043864D01*
X013581Y043824D01*
X013608Y043781D01*
X013631Y043737D01*
X013650Y043691D01*
X013666Y043643D01*
X013678Y043594D01*
X013686Y043545D01*
X013690Y043495D01*
X013690Y043445D01*
X013686Y043395D01*
X013678Y043346D01*
X013666Y043297D01*
X013650Y043249D01*
X013631Y043203D01*
X013608Y043159D01*
X013581Y043116D01*
X013551Y043076D01*
X013519Y043038D01*
X013483Y043003D01*
X013444Y042971D01*
X013403Y042942D01*
X013360Y042916D01*
X013315Y042894D01*
X013269Y042876D01*
X013221Y042861D01*
X013172Y042850D01*
X013123Y042843D01*
X013073Y042840D01*
X013022Y042841D01*
X012973Y042846D01*
X012923Y042855D01*
X012875Y042868D01*
X012828Y042884D01*
X012782Y042905D01*
X012738Y042929D01*
X012696Y042956D01*
X012656Y042986D01*
X012619Y043020D01*
X012585Y043057D01*
X012553Y043096D01*
X012525Y043137D01*
X012500Y043181D01*
X012479Y043226D01*
X012462Y043273D01*
X012448Y043321D01*
X012438Y043370D01*
X012432Y043420D01*
X012430Y043470D01*
X007784Y055820D02*
X007786Y055868D01*
X007792Y055916D01*
X007802Y055963D01*
X007815Y056009D01*
X007833Y056054D01*
X007853Y056098D01*
X007878Y056140D01*
X007906Y056179D01*
X007936Y056216D01*
X007970Y056250D01*
X008007Y056282D01*
X008045Y056311D01*
X008086Y056336D01*
X008129Y056358D01*
X008174Y056376D01*
X008220Y056390D01*
X008267Y056401D01*
X008315Y056408D01*
X008363Y056411D01*
X008411Y056410D01*
X008459Y056405D01*
X008507Y056396D01*
X008553Y056384D01*
X008598Y056367D01*
X008642Y056347D01*
X008684Y056324D01*
X008724Y056297D01*
X008762Y056267D01*
X008797Y056234D01*
X008829Y056198D01*
X008859Y056160D01*
X008885Y056119D01*
X008907Y056076D01*
X008927Y056032D01*
X008942Y055987D01*
X008954Y055940D01*
X008962Y055892D01*
X008966Y055844D01*
X008966Y055796D01*
X008962Y055748D01*
X008954Y055700D01*
X008942Y055653D01*
X008927Y055608D01*
X008907Y055564D01*
X008885Y055521D01*
X008859Y055480D01*
X008829Y055442D01*
X008797Y055406D01*
X008762Y055373D01*
X008724Y055343D01*
X008684Y055316D01*
X008642Y055293D01*
X008598Y055273D01*
X008553Y055256D01*
X008507Y055244D01*
X008459Y055235D01*
X008411Y055230D01*
X008363Y055229D01*
X008315Y055232D01*
X008267Y055239D01*
X008220Y055250D01*
X008174Y055264D01*
X008129Y055282D01*
X008086Y055304D01*
X008045Y055329D01*
X008007Y055358D01*
X007970Y055390D01*
X007936Y055424D01*
X007906Y055461D01*
X007878Y055500D01*
X007853Y055542D01*
X007833Y055586D01*
X007815Y055631D01*
X007802Y055677D01*
X007792Y055724D01*
X007786Y055772D01*
X007784Y055820D01*
X007784Y060781D02*
X007786Y060829D01*
X007792Y060877D01*
X007802Y060924D01*
X007815Y060970D01*
X007833Y061015D01*
X007853Y061059D01*
X007878Y061101D01*
X007906Y061140D01*
X007936Y061177D01*
X007970Y061211D01*
X008007Y061243D01*
X008045Y061272D01*
X008086Y061297D01*
X008129Y061319D01*
X008174Y061337D01*
X008220Y061351D01*
X008267Y061362D01*
X008315Y061369D01*
X008363Y061372D01*
X008411Y061371D01*
X008459Y061366D01*
X008507Y061357D01*
X008553Y061345D01*
X008598Y061328D01*
X008642Y061308D01*
X008684Y061285D01*
X008724Y061258D01*
X008762Y061228D01*
X008797Y061195D01*
X008829Y061159D01*
X008859Y061121D01*
X008885Y061080D01*
X008907Y061037D01*
X008927Y060993D01*
X008942Y060948D01*
X008954Y060901D01*
X008962Y060853D01*
X008966Y060805D01*
X008966Y060757D01*
X008962Y060709D01*
X008954Y060661D01*
X008942Y060614D01*
X008927Y060569D01*
X008907Y060525D01*
X008885Y060482D01*
X008859Y060441D01*
X008829Y060403D01*
X008797Y060367D01*
X008762Y060334D01*
X008724Y060304D01*
X008684Y060277D01*
X008642Y060254D01*
X008598Y060234D01*
X008553Y060217D01*
X008507Y060205D01*
X008459Y060196D01*
X008411Y060191D01*
X008363Y060190D01*
X008315Y060193D01*
X008267Y060200D01*
X008220Y060211D01*
X008174Y060225D01*
X008129Y060243D01*
X008086Y060265D01*
X008045Y060290D01*
X008007Y060319D01*
X007970Y060351D01*
X007936Y060385D01*
X007906Y060422D01*
X007878Y060461D01*
X007853Y060503D01*
X007833Y060547D01*
X007815Y060592D01*
X007802Y060638D01*
X007792Y060685D01*
X007786Y060733D01*
X007784Y060781D01*
X012458Y073593D02*
X012460Y073643D01*
X012466Y073693D01*
X012476Y073742D01*
X012490Y073790D01*
X012507Y073837D01*
X012528Y073882D01*
X012553Y073926D01*
X012581Y073967D01*
X012613Y074006D01*
X012647Y074043D01*
X012684Y074077D01*
X012724Y074107D01*
X012766Y074134D01*
X012810Y074158D01*
X012856Y074179D01*
X012903Y074195D01*
X012951Y074208D01*
X013001Y074217D01*
X013050Y074222D01*
X013101Y074223D01*
X013151Y074220D01*
X013200Y074213D01*
X013249Y074202D01*
X013297Y074187D01*
X013343Y074169D01*
X013388Y074147D01*
X013431Y074121D01*
X013472Y074092D01*
X013511Y074060D01*
X013547Y074025D01*
X013579Y073987D01*
X013609Y073947D01*
X013636Y073904D01*
X013659Y073860D01*
X013678Y073814D01*
X013694Y073766D01*
X013706Y073717D01*
X013714Y073668D01*
X013718Y073618D01*
X013718Y073568D01*
X013714Y073518D01*
X013706Y073469D01*
X013694Y073420D01*
X013678Y073372D01*
X013659Y073326D01*
X013636Y073282D01*
X013609Y073239D01*
X013579Y073199D01*
X013547Y073161D01*
X013511Y073126D01*
X013472Y073094D01*
X013431Y073065D01*
X013388Y073039D01*
X013343Y073017D01*
X013297Y072999D01*
X013249Y072984D01*
X013200Y072973D01*
X013151Y072966D01*
X013101Y072963D01*
X013050Y072964D01*
X013001Y072969D01*
X012951Y072978D01*
X012903Y072991D01*
X012856Y073007D01*
X012810Y073028D01*
X012766Y073052D01*
X012724Y073079D01*
X012684Y073109D01*
X012647Y073143D01*
X012613Y073180D01*
X012581Y073219D01*
X012553Y073260D01*
X012528Y073304D01*
X012507Y073349D01*
X012490Y073396D01*
X012476Y073444D01*
X012466Y073493D01*
X012460Y073543D01*
X012458Y073593D01*
X066761Y080674D02*
X066763Y080724D01*
X066769Y080774D01*
X066779Y080823D01*
X066793Y080871D01*
X066810Y080918D01*
X066831Y080963D01*
X066856Y081007D01*
X066884Y081048D01*
X066916Y081087D01*
X066950Y081124D01*
X066987Y081158D01*
X067027Y081188D01*
X067069Y081215D01*
X067113Y081239D01*
X067159Y081260D01*
X067206Y081276D01*
X067254Y081289D01*
X067304Y081298D01*
X067353Y081303D01*
X067404Y081304D01*
X067454Y081301D01*
X067503Y081294D01*
X067552Y081283D01*
X067600Y081268D01*
X067646Y081250D01*
X067691Y081228D01*
X067734Y081202D01*
X067775Y081173D01*
X067814Y081141D01*
X067850Y081106D01*
X067882Y081068D01*
X067912Y081028D01*
X067939Y080985D01*
X067962Y080941D01*
X067981Y080895D01*
X067997Y080847D01*
X068009Y080798D01*
X068017Y080749D01*
X068021Y080699D01*
X068021Y080649D01*
X068017Y080599D01*
X068009Y080550D01*
X067997Y080501D01*
X067981Y080453D01*
X067962Y080407D01*
X067939Y080363D01*
X067912Y080320D01*
X067882Y080280D01*
X067850Y080242D01*
X067814Y080207D01*
X067775Y080175D01*
X067734Y080146D01*
X067691Y080120D01*
X067646Y080098D01*
X067600Y080080D01*
X067552Y080065D01*
X067503Y080054D01*
X067454Y080047D01*
X067404Y080044D01*
X067353Y080045D01*
X067304Y080050D01*
X067254Y080059D01*
X067206Y080072D01*
X067159Y080088D01*
X067113Y080109D01*
X067069Y080133D01*
X067027Y080160D01*
X066987Y080190D01*
X066950Y080224D01*
X066916Y080261D01*
X066884Y080300D01*
X066856Y080341D01*
X066831Y080385D01*
X066810Y080430D01*
X066793Y080477D01*
X066779Y080525D01*
X066769Y080574D01*
X066763Y080624D01*
X066761Y080674D01*
X066761Y043470D02*
X066763Y043520D01*
X066769Y043570D01*
X066779Y043619D01*
X066793Y043667D01*
X066810Y043714D01*
X066831Y043759D01*
X066856Y043803D01*
X066884Y043844D01*
X066916Y043883D01*
X066950Y043920D01*
X066987Y043954D01*
X067027Y043984D01*
X067069Y044011D01*
X067113Y044035D01*
X067159Y044056D01*
X067206Y044072D01*
X067254Y044085D01*
X067304Y044094D01*
X067353Y044099D01*
X067404Y044100D01*
X067454Y044097D01*
X067503Y044090D01*
X067552Y044079D01*
X067600Y044064D01*
X067646Y044046D01*
X067691Y044024D01*
X067734Y043998D01*
X067775Y043969D01*
X067814Y043937D01*
X067850Y043902D01*
X067882Y043864D01*
X067912Y043824D01*
X067939Y043781D01*
X067962Y043737D01*
X067981Y043691D01*
X067997Y043643D01*
X068009Y043594D01*
X068017Y043545D01*
X068021Y043495D01*
X068021Y043445D01*
X068017Y043395D01*
X068009Y043346D01*
X067997Y043297D01*
X067981Y043249D01*
X067962Y043203D01*
X067939Y043159D01*
X067912Y043116D01*
X067882Y043076D01*
X067850Y043038D01*
X067814Y043003D01*
X067775Y042971D01*
X067734Y042942D01*
X067691Y042916D01*
X067646Y042894D01*
X067600Y042876D01*
X067552Y042861D01*
X067503Y042850D01*
X067454Y042843D01*
X067404Y042840D01*
X067353Y042841D01*
X067304Y042846D01*
X067254Y042855D01*
X067206Y042868D01*
X067159Y042884D01*
X067113Y042905D01*
X067069Y042929D01*
X067027Y042956D01*
X066987Y042986D01*
X066950Y043020D01*
X066916Y043057D01*
X066884Y043096D01*
X066856Y043137D01*
X066831Y043181D01*
X066810Y043226D01*
X066793Y043273D01*
X066779Y043321D01*
X066769Y043370D01*
X066763Y043420D01*
X066761Y043470D01*
X114005Y043470D02*
X114007Y043520D01*
X114013Y043570D01*
X114023Y043619D01*
X114037Y043667D01*
X114054Y043714D01*
X114075Y043759D01*
X114100Y043803D01*
X114128Y043844D01*
X114160Y043883D01*
X114194Y043920D01*
X114231Y043954D01*
X114271Y043984D01*
X114313Y044011D01*
X114357Y044035D01*
X114403Y044056D01*
X114450Y044072D01*
X114498Y044085D01*
X114548Y044094D01*
X114597Y044099D01*
X114648Y044100D01*
X114698Y044097D01*
X114747Y044090D01*
X114796Y044079D01*
X114844Y044064D01*
X114890Y044046D01*
X114935Y044024D01*
X114978Y043998D01*
X115019Y043969D01*
X115058Y043937D01*
X115094Y043902D01*
X115126Y043864D01*
X115156Y043824D01*
X115183Y043781D01*
X115206Y043737D01*
X115225Y043691D01*
X115241Y043643D01*
X115253Y043594D01*
X115261Y043545D01*
X115265Y043495D01*
X115265Y043445D01*
X115261Y043395D01*
X115253Y043346D01*
X115241Y043297D01*
X115225Y043249D01*
X115206Y043203D01*
X115183Y043159D01*
X115156Y043116D01*
X115126Y043076D01*
X115094Y043038D01*
X115058Y043003D01*
X115019Y042971D01*
X114978Y042942D01*
X114935Y042916D01*
X114890Y042894D01*
X114844Y042876D01*
X114796Y042861D01*
X114747Y042850D01*
X114698Y042843D01*
X114648Y042840D01*
X114597Y042841D01*
X114548Y042846D01*
X114498Y042855D01*
X114450Y042868D01*
X114403Y042884D01*
X114357Y042905D01*
X114313Y042929D01*
X114271Y042956D01*
X114231Y042986D01*
X114194Y043020D01*
X114160Y043057D01*
X114128Y043096D01*
X114100Y043137D01*
X114075Y043181D01*
X114054Y043226D01*
X114037Y043273D01*
X114023Y043321D01*
X114013Y043370D01*
X114007Y043420D01*
X114005Y043470D01*
X121092Y080674D02*
X121094Y080724D01*
X121100Y080774D01*
X121110Y080823D01*
X121124Y080871D01*
X121141Y080918D01*
X121162Y080963D01*
X121187Y081007D01*
X121215Y081048D01*
X121247Y081087D01*
X121281Y081124D01*
X121318Y081158D01*
X121358Y081188D01*
X121400Y081215D01*
X121444Y081239D01*
X121490Y081260D01*
X121537Y081276D01*
X121585Y081289D01*
X121635Y081298D01*
X121684Y081303D01*
X121735Y081304D01*
X121785Y081301D01*
X121834Y081294D01*
X121883Y081283D01*
X121931Y081268D01*
X121977Y081250D01*
X122022Y081228D01*
X122065Y081202D01*
X122106Y081173D01*
X122145Y081141D01*
X122181Y081106D01*
X122213Y081068D01*
X122243Y081028D01*
X122270Y080985D01*
X122293Y080941D01*
X122312Y080895D01*
X122328Y080847D01*
X122340Y080798D01*
X122348Y080749D01*
X122352Y080699D01*
X122352Y080649D01*
X122348Y080599D01*
X122340Y080550D01*
X122328Y080501D01*
X122312Y080453D01*
X122293Y080407D01*
X122270Y080363D01*
X122243Y080320D01*
X122213Y080280D01*
X122181Y080242D01*
X122145Y080207D01*
X122106Y080175D01*
X122065Y080146D01*
X122022Y080120D01*
X121977Y080098D01*
X121931Y080080D01*
X121883Y080065D01*
X121834Y080054D01*
X121785Y080047D01*
X121735Y080044D01*
X121684Y080045D01*
X121635Y080050D01*
X121585Y080059D01*
X121537Y080072D01*
X121490Y080088D01*
X121444Y080109D01*
X121400Y080133D01*
X121358Y080160D01*
X121318Y080190D01*
X121281Y080224D01*
X121247Y080261D01*
X121215Y080300D01*
X121187Y080341D01*
X121162Y080385D01*
X121141Y080430D01*
X121124Y080477D01*
X121110Y080525D01*
X121100Y080574D01*
X121094Y080624D01*
X121092Y080674D01*
X121092Y006265D02*
X121094Y006315D01*
X121100Y006365D01*
X121110Y006414D01*
X121124Y006462D01*
X121141Y006509D01*
X121162Y006554D01*
X121187Y006598D01*
X121215Y006639D01*
X121247Y006678D01*
X121281Y006715D01*
X121318Y006749D01*
X121358Y006779D01*
X121400Y006806D01*
X121444Y006830D01*
X121490Y006851D01*
X121537Y006867D01*
X121585Y006880D01*
X121635Y006889D01*
X121684Y006894D01*
X121735Y006895D01*
X121785Y006892D01*
X121834Y006885D01*
X121883Y006874D01*
X121931Y006859D01*
X121977Y006841D01*
X122022Y006819D01*
X122065Y006793D01*
X122106Y006764D01*
X122145Y006732D01*
X122181Y006697D01*
X122213Y006659D01*
X122243Y006619D01*
X122270Y006576D01*
X122293Y006532D01*
X122312Y006486D01*
X122328Y006438D01*
X122340Y006389D01*
X122348Y006340D01*
X122352Y006290D01*
X122352Y006240D01*
X122348Y006190D01*
X122340Y006141D01*
X122328Y006092D01*
X122312Y006044D01*
X122293Y005998D01*
X122270Y005954D01*
X122243Y005911D01*
X122213Y005871D01*
X122181Y005833D01*
X122145Y005798D01*
X122106Y005766D01*
X122065Y005737D01*
X122022Y005711D01*
X121977Y005689D01*
X121931Y005671D01*
X121883Y005656D01*
X121834Y005645D01*
X121785Y005638D01*
X121735Y005635D01*
X121684Y005636D01*
X121635Y005641D01*
X121585Y005650D01*
X121537Y005663D01*
X121490Y005679D01*
X121444Y005700D01*
X121400Y005724D01*
X121358Y005751D01*
X121318Y005781D01*
X121281Y005815D01*
X121247Y005852D01*
X121215Y005891D01*
X121187Y005932D01*
X121162Y005976D01*
X121141Y006021D01*
X121124Y006068D01*
X121110Y006116D01*
X121100Y006165D01*
X121094Y006215D01*
X121092Y006265D01*
X066761Y006265D02*
X066763Y006315D01*
X066769Y006365D01*
X066779Y006414D01*
X066793Y006462D01*
X066810Y006509D01*
X066831Y006554D01*
X066856Y006598D01*
X066884Y006639D01*
X066916Y006678D01*
X066950Y006715D01*
X066987Y006749D01*
X067027Y006779D01*
X067069Y006806D01*
X067113Y006830D01*
X067159Y006851D01*
X067206Y006867D01*
X067254Y006880D01*
X067304Y006889D01*
X067353Y006894D01*
X067404Y006895D01*
X067454Y006892D01*
X067503Y006885D01*
X067552Y006874D01*
X067600Y006859D01*
X067646Y006841D01*
X067691Y006819D01*
X067734Y006793D01*
X067775Y006764D01*
X067814Y006732D01*
X067850Y006697D01*
X067882Y006659D01*
X067912Y006619D01*
X067939Y006576D01*
X067962Y006532D01*
X067981Y006486D01*
X067997Y006438D01*
X068009Y006389D01*
X068017Y006340D01*
X068021Y006290D01*
X068021Y006240D01*
X068017Y006190D01*
X068009Y006141D01*
X067997Y006092D01*
X067981Y006044D01*
X067962Y005998D01*
X067939Y005954D01*
X067912Y005911D01*
X067882Y005871D01*
X067850Y005833D01*
X067814Y005798D01*
X067775Y005766D01*
X067734Y005737D01*
X067691Y005711D01*
X067646Y005689D01*
X067600Y005671D01*
X067552Y005656D01*
X067503Y005645D01*
X067454Y005638D01*
X067404Y005635D01*
X067353Y005636D01*
X067304Y005641D01*
X067254Y005650D01*
X067206Y005663D01*
X067159Y005679D01*
X067113Y005700D01*
X067069Y005724D01*
X067027Y005751D01*
X066987Y005781D01*
X066950Y005815D01*
X066916Y005852D01*
X066884Y005891D01*
X066856Y005932D01*
X066831Y005976D01*
X066810Y006021D01*
X066793Y006068D01*
X066779Y006116D01*
X066769Y006165D01*
X066763Y006215D01*
X066761Y006265D01*
D11*
X067391Y006265D03*
X067391Y043470D03*
X114635Y043470D03*
X121722Y080674D03*
X067391Y080674D03*
X013088Y073593D03*
X013060Y043470D03*
X013060Y013352D03*
X121722Y006265D03*
D12*
X008375Y055820D03*
X008375Y060781D03*
D13*
X005501Y060781D02*
X004438Y060781D01*
X004438Y059127D02*
X005501Y059127D01*
X005501Y057474D02*
X004438Y057474D01*
X004438Y055820D02*
X005501Y055820D01*
M02*
