G75*
%MOIN*%
%OFA0B0*%
%FSLAX25Y25*%
%IPPOS*%
%LPD*%
%AMOC8*
5,1,8,0,0,1.08239X$1,22.5*
%
%ADD10C,0.13780*%
%ADD11C,0.00500*%
%ADD12R,0.18110X0.03937*%
%ADD13R,0.13386X0.06299*%
%ADD14R,0.02362X0.08661*%
%ADD15R,0.07087X0.10236*%
%ADD16R,0.10630X0.03937*%
%ADD17R,0.14961X0.07087*%
%ADD18R,0.04134X0.04252*%
%ADD19R,0.03150X0.03543*%
%ADD20R,0.02362X0.03937*%
%ADD21R,0.06299X0.10630*%
%ADD22R,0.03937X0.04331*%
%ADD23R,0.04252X0.04134*%
%ADD24R,0.04331X0.03937*%
%ADD25R,0.04331X0.07874*%
%ADD26R,0.03150X0.03150*%
%ADD27R,0.03937X0.01969*%
%ADD28R,0.05906X0.05118*%
%ADD29R,0.03937X0.01772*%
%ADD30C,0.04134*%
D10*
X0106388Y0115029D03*
X0059144Y0136683D03*
D11*
X0055405Y0045117D02*
X0055891Y0044632D01*
X0056453Y0044238D01*
X0057075Y0043948D01*
X0057738Y0043771D01*
X0058421Y0043711D01*
X0059105Y0043771D01*
X0059768Y0043948D01*
X0060390Y0044238D01*
X0060952Y0044632D01*
X0061437Y0045117D01*
X0061831Y0045679D01*
X0062121Y0046301D01*
X0062298Y0046964D01*
X0062358Y0047648D01*
X0062298Y0048332D01*
X0062121Y0048994D01*
X0061831Y0049616D01*
X0061437Y0050179D01*
X0060952Y0050664D01*
X0060390Y0051057D01*
X0059768Y0051347D01*
X0059105Y0051525D01*
X0058421Y0051585D01*
X0057738Y0051525D01*
X0057075Y0051347D01*
X0056453Y0051057D01*
X0055891Y0050664D01*
X0055405Y0050179D01*
X0055012Y0049616D01*
X0054722Y0048994D01*
X0054544Y0048332D01*
X0054484Y0047648D01*
X0054544Y0046964D01*
X0054722Y0046301D01*
X0055012Y0045679D01*
X0055405Y0045117D01*
X0055304Y0045262D02*
X0061539Y0045262D01*
X0061869Y0045761D02*
X0054974Y0045761D01*
X0054741Y0046259D02*
X0062101Y0046259D01*
X0062243Y0046758D02*
X0054599Y0046758D01*
X0054519Y0047256D02*
X0062324Y0047256D01*
X0062349Y0047755D02*
X0054494Y0047755D01*
X0054537Y0048253D02*
X0062305Y0048253D01*
X0062186Y0048752D02*
X0054657Y0048752D01*
X0054841Y0049250D02*
X0062002Y0049250D01*
X0061738Y0049749D02*
X0055104Y0049749D01*
X0055474Y0050247D02*
X0061369Y0050247D01*
X0060835Y0050746D02*
X0056008Y0050746D01*
X0056853Y0051244D02*
X0059989Y0051244D01*
X0061083Y0044764D02*
X0055759Y0044764D01*
X0056415Y0044265D02*
X0060428Y0044265D01*
X0059057Y0043767D02*
X0057786Y0043767D01*
X0056839Y0153557D02*
X0057522Y0153616D01*
X0058185Y0153794D01*
X0058807Y0154084D01*
X0059369Y0154478D01*
X0059855Y0154963D01*
X0060248Y0155525D01*
X0060538Y0156147D01*
X0060716Y0156810D01*
X0060776Y0157494D01*
X0060716Y0158177D01*
X0060538Y0158840D01*
X0060248Y0159462D01*
X0059855Y0160024D01*
X0059369Y0160509D01*
X0058807Y0160903D01*
X0058185Y0161193D01*
X0057522Y0161371D01*
X0056839Y0161431D01*
X0056155Y0161371D01*
X0055492Y0161193D01*
X0054870Y0160903D01*
X0054308Y0160509D01*
X0053823Y0160024D01*
X0053429Y0159462D01*
X0053139Y0158840D01*
X0052961Y0158177D01*
X0052902Y0157494D01*
X0052961Y0156810D01*
X0053139Y0156147D01*
X0053429Y0155525D01*
X0053823Y0154963D01*
X0054308Y0154478D01*
X0054870Y0154084D01*
X0055492Y0153794D01*
X0056155Y0153616D01*
X0056839Y0153557D01*
X0058493Y0153938D02*
X0055184Y0153938D01*
X0054367Y0154436D02*
X0059310Y0154436D01*
X0059826Y0154935D02*
X0053851Y0154935D01*
X0053493Y0155433D02*
X0060184Y0155433D01*
X0060438Y0155932D02*
X0053239Y0155932D01*
X0053063Y0156430D02*
X0060614Y0156430D01*
X0060726Y0156929D02*
X0052951Y0156929D01*
X0052907Y0157427D02*
X0060770Y0157427D01*
X0060738Y0157926D02*
X0052939Y0157926D01*
X0053028Y0158424D02*
X0060650Y0158424D01*
X0060500Y0158923D02*
X0053177Y0158923D01*
X0053410Y0159421D02*
X0060267Y0159421D01*
X0059928Y0159920D02*
X0053749Y0159920D01*
X0054217Y0160418D02*
X0059461Y0160418D01*
X0058778Y0160917D02*
X0054899Y0160917D01*
X0056663Y0161415D02*
X0057014Y0161415D01*
X0162371Y0098242D02*
X0162081Y0097620D01*
X0161903Y0096957D01*
X0161843Y0096273D01*
X0161903Y0095589D01*
X0162081Y0094927D01*
X0162371Y0094305D01*
X0162764Y0093742D01*
X0163250Y0093257D01*
X0163812Y0092864D01*
X0164434Y0092574D01*
X0165097Y0092396D01*
X0165780Y0092336D01*
X0166464Y0092396D01*
X0167127Y0092574D01*
X0167749Y0092864D01*
X0168311Y0093257D01*
X0168796Y0093742D01*
X0169190Y0094305D01*
X0169480Y0094927D01*
X0169658Y0095589D01*
X0169717Y0096273D01*
X0169658Y0096957D01*
X0169480Y0097620D01*
X0169190Y0098242D01*
X0168796Y0098804D01*
X0168311Y0099289D01*
X0167749Y0099683D01*
X0167127Y0099973D01*
X0166464Y0100150D01*
X0165780Y0100210D01*
X0165097Y0100150D01*
X0164434Y0099973D01*
X0163812Y0099683D01*
X0163250Y0099289D01*
X0162764Y0098804D01*
X0162371Y0098242D01*
X0162307Y0098104D02*
X0169254Y0098104D01*
X0169484Y0097606D02*
X0162077Y0097606D01*
X0161943Y0097107D02*
X0169617Y0097107D01*
X0169688Y0096609D02*
X0161873Y0096609D01*
X0161858Y0096110D02*
X0169703Y0096110D01*
X0169659Y0095612D02*
X0161901Y0095612D01*
X0162031Y0095113D02*
X0169530Y0095113D01*
X0169334Y0094615D02*
X0162226Y0094615D01*
X0162503Y0094116D02*
X0169058Y0094116D01*
X0168671Y0093618D02*
X0162889Y0093618D01*
X0163447Y0093119D02*
X0168114Y0093119D01*
X0167228Y0092621D02*
X0164333Y0092621D01*
X0162624Y0098603D02*
X0168937Y0098603D01*
X0168499Y0099101D02*
X0163062Y0099101D01*
X0163693Y0099600D02*
X0167867Y0099600D01*
X0166658Y0100098D02*
X0164903Y0100098D01*
D12*
X0144744Y0070366D03*
X0144744Y0062492D03*
X0077857Y0065500D03*
X0077857Y0073374D03*
X0077857Y0102700D03*
X0077857Y0110574D03*
D13*
X0057385Y0120023D03*
X0057385Y0093251D03*
X0057385Y0082823D03*
X0057385Y0056051D03*
X0165217Y0053043D03*
X0165217Y0079815D03*
D14*
X0151943Y0147137D03*
X0148006Y0147137D03*
X0144069Y0147137D03*
X0140131Y0147137D03*
X0136194Y0147137D03*
X0132257Y0147137D03*
X0128320Y0147137D03*
X0124383Y0147137D03*
X0120446Y0147137D03*
X0116509Y0147137D03*
X0112572Y0147137D03*
X0108635Y0147137D03*
X0104698Y0147137D03*
X0100761Y0147137D03*
X0096824Y0147137D03*
X0092887Y0147137D03*
X0088950Y0147137D03*
X0085013Y0147137D03*
X0081076Y0147137D03*
X0077139Y0147137D03*
D15*
X0066903Y0156586D03*
X0162179Y0156586D03*
D16*
X0135916Y0120935D03*
X0135916Y0113060D03*
X0135916Y0105186D03*
X0135916Y0097312D03*
D17*
X0153435Y0088060D03*
X0153435Y0130186D03*
D18*
X0122178Y0095952D03*
X0115288Y0095952D03*
D19*
X0122374Y0056221D03*
X0129854Y0056221D03*
X0126114Y0047953D03*
D20*
X0129740Y0062963D03*
X0127181Y0070049D03*
X0132299Y0070049D03*
D21*
X0106664Y0049512D03*
X0095640Y0049512D03*
D22*
X0100087Y0071089D03*
X0100087Y0077171D03*
X0106780Y0077171D03*
X0106780Y0071089D03*
X0115598Y0062677D03*
X0122291Y0062677D03*
X0091763Y0081692D03*
X0091763Y0088481D03*
X0091785Y0095279D03*
X0085092Y0095279D03*
X0085070Y0088481D03*
X0085070Y0081692D03*
X0115387Y0101689D03*
X0122080Y0101689D03*
D23*
X0135050Y0056016D03*
X0135050Y0049126D03*
D24*
X0099003Y0084764D03*
X0099003Y0091457D03*
D25*
X0091774Y0072694D03*
D26*
X0091774Y0065213D03*
D27*
X0099779Y0063437D03*
X0106865Y0065996D03*
X0106865Y0060878D03*
D28*
X0115733Y0055292D03*
X0115733Y0047812D03*
D29*
X0122004Y0083113D03*
X0122004Y0085672D03*
X0122004Y0088231D03*
X0122004Y0090790D03*
X0105862Y0090790D03*
X0105862Y0088231D03*
X0105862Y0085672D03*
X0105862Y0083113D03*
D30*
X0091733Y0102289D03*
M02*
