G75*
%MOIN*%
%OFA0B0*%
%FSLAX25Y25*%
%IPPOS*%
%LPD*%
%AMOC8*
5,1,8,0,0,1.08239X$1,22.5*
%
%ADD10C,0.00300*%
%ADD11C,0.00591*%
%ADD12R,0.00840X0.00140*%
%ADD13R,0.00700X0.00140*%
%ADD14R,0.00980X0.00140*%
%ADD15R,0.02520X0.00140*%
%ADD16R,0.01540X0.00140*%
%ADD17R,0.01820X0.00140*%
%ADD18R,0.00420X0.00140*%
%ADD19R,0.00420X0.00140*%
%ADD20R,0.02240X0.00140*%
%ADD21R,0.01960X0.00140*%
%ADD22R,0.00280X0.00140*%
%ADD23R,0.00560X0.00140*%
%ADD24R,0.00560X0.00140*%
%ADD25R,0.00980X0.00140*%
%ADD26R,0.01960X0.00140*%
%ADD27R,0.00560X0.00140*%
%ADD28R,0.00420X0.00140*%
%ADD29R,0.00420X0.00140*%
%ADD30R,0.01820X0.00140*%
%ADD31R,0.02240X0.00140*%
%ADD32R,0.00280X0.00140*%
%ADD33R,0.00560X0.00140*%
%ADD34R,0.00980X0.00140*%
%ADD35R,0.02520X0.00140*%
%ADD36R,0.02100X0.00140*%
%ADD37R,0.00980X0.00140*%
%ADD38R,0.00840X0.00140*%
%ADD39R,0.02380X0.00140*%
%ADD40R,0.00840X0.00140*%
%ADD41R,0.01960X0.00140*%
%ADD42R,0.01820X0.00140*%
%ADD43R,0.02940X0.00140*%
%ADD44R,0.01680X0.00140*%
%ADD45R,0.02100X0.00140*%
%ADD46R,0.01820X0.00140*%
%ADD47R,0.02380X0.00140*%
%ADD48R,0.02940X0.00140*%
%ADD49R,0.00140X0.00140*%
%ADD50R,0.02380X0.00140*%
%ADD51R,0.00280X0.00140*%
%ADD52R,0.03500X0.00140*%
%ADD53R,0.03360X0.00140*%
%ADD54R,0.04480X0.00140*%
%ADD55R,0.00280X0.00140*%
%ADD56R,0.01120X0.00140*%
%ADD57R,0.04200X0.00140*%
%ADD58R,0.05180X0.00140*%
%ADD59R,0.05040X0.00140*%
%ADD60R,0.05740X0.00140*%
%ADD61R,0.05600X0.00140*%
%ADD62R,0.06300X0.00140*%
%ADD63R,0.06160X0.00140*%
%ADD64R,0.06720X0.00140*%
%ADD65R,0.01680X0.00140*%
%ADD66R,0.01400X0.00140*%
%ADD67R,0.06440X0.00140*%
%ADD68R,0.07280X0.00140*%
%ADD69R,0.00700X0.00140*%
%ADD70R,0.01400X0.00140*%
%ADD71R,0.07000X0.00140*%
%ADD72R,0.07560X0.00140*%
%ADD73R,0.07420X0.00140*%
%ADD74R,0.07980X0.00140*%
%ADD75R,0.07840X0.00140*%
%ADD76R,0.08400X0.00140*%
%ADD77R,0.03920X0.00140*%
%ADD78R,0.01120X0.00140*%
%ADD79R,0.08680X0.00140*%
%ADD80R,0.08960X0.00140*%
%ADD81R,0.01540X0.00140*%
%ADD82R,0.09240X0.00140*%
%ADD83R,0.01260X0.00140*%
%ADD84R,0.09520X0.00140*%
%ADD85R,0.09800X0.00140*%
%ADD86R,0.02240X0.00140*%
%ADD87R,0.01540X0.00140*%
%ADD88R,0.10080X0.00140*%
%ADD89R,0.03220X0.00140*%
%ADD90R,0.03080X0.00140*%
%ADD91R,0.02800X0.00140*%
%ADD92R,0.03080X0.00140*%
%ADD93R,0.03080X0.00140*%
%ADD94R,0.05320X0.00140*%
%ADD95R,0.02660X0.00140*%
%ADD96R,0.03780X0.00140*%
%ADD97R,0.03640X0.00140*%
%ADD98R,0.03500X0.00140*%
%ADD99R,0.01680X0.00140*%
%ADD100R,0.01680X0.00140*%
%ADD101R,0.02800X0.00140*%
%ADD102R,0.05460X0.00140*%
%ADD103R,0.04200X0.00140*%
%ADD104R,0.03780X0.00140*%
%ADD105R,0.04340X0.00140*%
%ADD106R,0.04340X0.00140*%
%ADD107R,0.01260X0.00140*%
%ADD108R,0.04620X0.00140*%
%ADD109R,0.05040X0.00140*%
%ADD110R,0.05740X0.00140*%
%ADD111R,0.01120X0.00140*%
%ADD112R,0.05320X0.00140*%
%ADD113R,0.05740X0.00140*%
%ADD114R,0.05460X0.00140*%
%ADD115R,0.02240X0.00140*%
%ADD116R,0.03640X0.00140*%
%ADD117R,0.05880X0.00140*%
%ADD118R,0.06020X0.00140*%
%ADD119R,0.06020X0.00140*%
%ADD120R,0.02520X0.00140*%
%ADD121R,0.03920X0.00140*%
%ADD122R,0.06160X0.00140*%
%ADD123R,0.01120X0.00140*%
%ADD124R,0.11620X0.00140*%
%ADD125R,0.04060X0.00140*%
%ADD126R,0.11760X0.00140*%
%ADD127R,0.11900X0.00140*%
%ADD128R,0.12040X0.00140*%
%ADD129R,0.06440X0.00140*%
%ADD130R,0.04340X0.00140*%
%ADD131R,0.03360X0.00140*%
%ADD132R,0.01540X0.00140*%
%ADD133R,0.06440X0.00140*%
%ADD134R,0.04060X0.00140*%
%ADD135R,0.02940X0.00140*%
%ADD136R,0.03920X0.00140*%
%ADD137R,0.04340X0.00140*%
%ADD138R,0.03220X0.00140*%
%ADD139R,0.03080X0.00140*%
%ADD140R,0.03220X0.00140*%
%ADD141R,0.06580X0.00140*%
%ADD142R,0.12600X0.00140*%
%ADD143R,0.06580X0.00140*%
%ADD144R,0.12600X0.00140*%
%ADD145R,0.03780X0.00140*%
%ADD146R,0.02660X0.00140*%
%ADD147R,0.02940X0.00140*%
%ADD148R,0.09940X0.00140*%
%ADD149R,0.05600X0.00140*%
%ADD150R,0.04060X0.00140*%
%ADD151R,0.05460X0.00140*%
%ADD152R,0.02660X0.00140*%
%ADD153R,0.04760X0.00140*%
%ADD154R,0.03640X0.00140*%
%ADD155R,0.02520X0.00140*%
%ADD156R,0.02660X0.00140*%
%ADD157R,0.11480X0.00140*%
%ADD158R,0.11200X0.00140*%
%ADD159R,0.10920X0.00140*%
%ADD160R,0.02380X0.00140*%
%ADD161R,0.10920X0.00140*%
%ADD162R,0.10640X0.00140*%
%ADD163R,0.10360X0.00140*%
%ADD164R,0.10080X0.00140*%
%ADD165R,0.09380X0.00140*%
%ADD166R,0.09100X0.00140*%
%ADD167R,0.08820X0.00140*%
%ADD168R,0.08540X0.00140*%
%ADD169R,0.08120X0.00140*%
%ADD170R,0.07420X0.00140*%
%ADD171R,0.06580X0.00140*%
D10*
X0077206Y0067386D02*
X0079141Y0067386D01*
X0080153Y0065935D02*
X0080153Y0068837D01*
X0082088Y0068837D02*
X0080153Y0065935D01*
X0082088Y0065935D02*
X0082088Y0068837D01*
X0083099Y0067870D02*
X0083099Y0065935D01*
X0083099Y0067386D02*
X0085034Y0067386D01*
X0085034Y0067870D02*
X0084067Y0068837D01*
X0083099Y0067870D01*
X0085034Y0067870D02*
X0085034Y0065935D01*
X0087013Y0067386D02*
X0087981Y0067386D01*
X0088992Y0066419D02*
X0089476Y0065935D01*
X0090443Y0065935D01*
X0090927Y0066419D01*
X0090927Y0068354D01*
X0090443Y0068837D01*
X0089476Y0068837D01*
X0088992Y0068354D01*
X0087981Y0068837D02*
X0086046Y0068837D01*
X0087981Y0068837D02*
X0087981Y0065935D01*
X0087981Y0073809D02*
X0087981Y0076711D01*
X0086046Y0076711D01*
X0085034Y0075744D02*
X0085034Y0073809D01*
X0085034Y0075260D02*
X0083099Y0075260D01*
X0083099Y0075744D02*
X0083099Y0073809D01*
X0082088Y0073809D02*
X0082088Y0076711D01*
X0080153Y0073809D01*
X0080153Y0076711D01*
X0079141Y0075260D02*
X0077206Y0075260D01*
X0078174Y0076228D02*
X0078174Y0074293D01*
X0083099Y0075744D02*
X0084067Y0076711D01*
X0085034Y0075744D01*
X0087013Y0075260D02*
X0087981Y0075260D01*
X0088992Y0074293D02*
X0089476Y0073809D01*
X0090443Y0073809D01*
X0090927Y0074293D01*
X0090927Y0076228D01*
X0090443Y0076711D01*
X0089476Y0076711D01*
X0088992Y0076228D01*
X0110264Y0098207D02*
X0112199Y0098207D01*
X0113211Y0098207D02*
X0115146Y0098207D01*
X0116157Y0098207D02*
X0118092Y0098207D01*
X0119104Y0098207D02*
X0121039Y0098207D01*
X0122050Y0098207D02*
X0123985Y0098207D01*
X0124997Y0098207D02*
X0126932Y0098207D01*
X0127943Y0098207D02*
X0129878Y0098207D01*
X0130890Y0098207D02*
X0132825Y0098207D01*
X0133836Y0098207D02*
X0135771Y0098207D01*
X0136783Y0098207D02*
X0138718Y0098207D01*
X0139729Y0098207D02*
X0141664Y0098207D01*
X0142676Y0098207D02*
X0144611Y0098207D01*
X0145623Y0098207D02*
X0147558Y0098207D01*
X0148569Y0098207D02*
X0150504Y0098207D01*
X0151516Y0098207D02*
X0153451Y0098207D01*
X0154462Y0098207D02*
X0156397Y0098207D01*
X0157409Y0098207D02*
X0159344Y0098207D01*
X0160355Y0098207D02*
X0162290Y0098207D01*
X0163302Y0098207D02*
X0165237Y0098207D01*
X0164269Y0096793D02*
X0163302Y0096793D01*
X0163785Y0096793D02*
X0163785Y0094375D01*
X0164269Y0093891D01*
X0164753Y0093891D01*
X0165237Y0094375D01*
X0162290Y0093891D02*
X0162290Y0095826D01*
X0161323Y0096793D01*
X0160355Y0095826D01*
X0160355Y0093891D01*
X0159344Y0093891D02*
X0159344Y0096793D01*
X0157409Y0093891D01*
X0157409Y0096793D01*
X0160355Y0095342D02*
X0162290Y0095342D01*
X0161806Y0103491D02*
X0160839Y0103491D01*
X0161806Y0103491D02*
X0162290Y0103975D01*
X0162290Y0104942D01*
X0161806Y0105426D01*
X0160839Y0105426D01*
X0160355Y0104942D01*
X0160355Y0104458D01*
X0162290Y0104458D01*
X0163302Y0103975D02*
X0163785Y0103491D01*
X0165237Y0103491D01*
X0165237Y0106393D01*
X0163785Y0106393D01*
X0163302Y0105910D01*
X0163302Y0103975D01*
X0163302Y0108291D02*
X0165237Y0108291D01*
X0165237Y0111193D01*
X0163302Y0111193D01*
X0162290Y0110226D02*
X0160355Y0108291D01*
X0158860Y0108775D02*
X0158860Y0110710D01*
X0159344Y0110226D02*
X0158376Y0110226D01*
X0157379Y0110226D02*
X0157379Y0108291D01*
X0157379Y0109258D02*
X0156412Y0110226D01*
X0155928Y0110226D01*
X0154924Y0110226D02*
X0154924Y0108775D01*
X0154440Y0108291D01*
X0152989Y0108291D01*
X0152989Y0110226D01*
X0151977Y0109742D02*
X0151977Y0108775D01*
X0151494Y0108291D01*
X0150042Y0108291D01*
X0150042Y0111193D01*
X0150042Y0110226D02*
X0151494Y0110226D01*
X0151977Y0109742D01*
X0149031Y0109742D02*
X0149031Y0108775D01*
X0148547Y0108291D01*
X0147580Y0108291D01*
X0147096Y0109258D02*
X0149031Y0109258D01*
X0149031Y0109742D02*
X0148547Y0110226D01*
X0147580Y0110226D01*
X0147096Y0109742D01*
X0147096Y0109258D01*
X0146084Y0109258D02*
X0145117Y0110226D01*
X0144633Y0110226D01*
X0146084Y0110226D02*
X0146084Y0108291D01*
X0143658Y0106393D02*
X0143658Y0103491D01*
X0145109Y0103491D01*
X0145593Y0103975D01*
X0145593Y0104942D01*
X0145109Y0105426D01*
X0143658Y0105426D01*
X0146605Y0104942D02*
X0146605Y0104458D01*
X0148540Y0104458D01*
X0148540Y0103975D02*
X0148540Y0104942D01*
X0148056Y0105426D01*
X0147088Y0105426D01*
X0146605Y0104942D01*
X0147088Y0103491D02*
X0148056Y0103491D01*
X0148540Y0103975D01*
X0149551Y0103491D02*
X0149551Y0104942D01*
X0150035Y0105426D01*
X0151486Y0105426D01*
X0151486Y0103491D01*
X0152498Y0103491D02*
X0153949Y0103491D01*
X0154433Y0103975D01*
X0154433Y0104942D01*
X0153949Y0105426D01*
X0152498Y0105426D01*
X0152498Y0103007D01*
X0152981Y0102523D01*
X0153465Y0102523D01*
X0155430Y0103491D02*
X0156397Y0103491D01*
X0155913Y0103491D02*
X0155913Y0105426D01*
X0156397Y0105426D01*
X0157409Y0105426D02*
X0158860Y0105426D01*
X0159344Y0104942D01*
X0158860Y0104458D01*
X0157892Y0104458D01*
X0157409Y0103975D01*
X0157892Y0103491D01*
X0159344Y0103491D01*
X0155913Y0106393D02*
X0155913Y0106877D01*
X0158376Y0108291D02*
X0158860Y0108775D01*
X0160355Y0110226D02*
X0162290Y0108291D01*
X0164269Y0109742D02*
X0165237Y0109742D01*
X0165237Y0113091D02*
X0163785Y0113091D01*
X0163302Y0113575D01*
X0163302Y0114058D01*
X0163785Y0114542D01*
X0165237Y0114542D01*
X0165237Y0113091D02*
X0165237Y0115993D01*
X0163785Y0115993D01*
X0163302Y0115510D01*
X0163302Y0115026D01*
X0163785Y0114542D01*
X0162290Y0113575D02*
X0161806Y0113091D01*
X0160839Y0113091D01*
X0160355Y0113575D01*
X0159344Y0113091D02*
X0159344Y0115993D01*
X0157409Y0113091D01*
X0157409Y0115993D01*
X0156397Y0115510D02*
X0155913Y0115993D01*
X0154946Y0115993D01*
X0154462Y0115510D01*
X0154462Y0115026D01*
X0154946Y0114542D01*
X0154462Y0114058D01*
X0154462Y0113575D01*
X0154946Y0113091D01*
X0155913Y0113091D01*
X0156397Y0113575D01*
X0155430Y0114542D02*
X0154946Y0114542D01*
X0153451Y0113091D02*
X0151999Y0113091D01*
X0151516Y0113575D01*
X0151516Y0115510D01*
X0151999Y0115993D01*
X0153451Y0115993D01*
X0153451Y0113091D01*
X0147558Y0113091D02*
X0145623Y0113091D01*
X0144611Y0113091D02*
X0143644Y0113091D01*
X0144127Y0113091D02*
X0144127Y0115993D01*
X0144611Y0115993D01*
X0145623Y0115993D02*
X0147558Y0115993D01*
X0147558Y0113091D01*
X0147558Y0114542D02*
X0146590Y0114542D01*
X0142647Y0114542D02*
X0142647Y0113575D01*
X0142163Y0113091D01*
X0141195Y0113091D01*
X0140712Y0114058D02*
X0142647Y0114058D01*
X0142647Y0114542D02*
X0142163Y0115026D01*
X0141195Y0115026D01*
X0140712Y0114542D01*
X0140712Y0114058D01*
X0139700Y0114542D02*
X0139700Y0113575D01*
X0139216Y0113091D01*
X0137765Y0113091D01*
X0136270Y0113575D02*
X0135786Y0113091D01*
X0136270Y0113575D02*
X0136270Y0115510D01*
X0136754Y0115026D02*
X0135786Y0115026D01*
X0134789Y0115026D02*
X0134789Y0113091D01*
X0134789Y0114058D02*
X0133822Y0115026D01*
X0133338Y0115026D01*
X0132334Y0114542D02*
X0132334Y0113575D01*
X0131850Y0113091D01*
X0130883Y0113091D01*
X0130399Y0113575D01*
X0130399Y0114542D01*
X0130883Y0115026D01*
X0131850Y0115026D01*
X0132334Y0114542D01*
X0129387Y0115026D02*
X0129387Y0113091D01*
X0127452Y0113091D02*
X0127452Y0114542D01*
X0127936Y0115026D01*
X0129387Y0115026D01*
X0126441Y0115026D02*
X0125957Y0115026D01*
X0125957Y0113091D01*
X0126441Y0113091D02*
X0125473Y0113091D01*
X0124476Y0113575D02*
X0124476Y0114542D01*
X0123993Y0115026D01*
X0122541Y0115026D01*
X0121530Y0114542D02*
X0121046Y0115026D01*
X0119595Y0115026D01*
X0120079Y0114058D02*
X0119595Y0113575D01*
X0120079Y0113091D01*
X0121530Y0113091D01*
X0122541Y0113091D02*
X0123993Y0113091D01*
X0124476Y0113575D01*
X0125957Y0115993D02*
X0125957Y0116477D01*
X0121530Y0114542D02*
X0121046Y0114058D01*
X0120079Y0114058D01*
X0127452Y0111193D02*
X0127452Y0108291D01*
X0128904Y0108291D01*
X0129387Y0108775D01*
X0129387Y0109742D01*
X0128904Y0110226D01*
X0127452Y0110226D01*
X0130392Y0110226D02*
X0130875Y0110226D01*
X0131843Y0109258D01*
X0131843Y0108291D02*
X0131843Y0110226D01*
X0132854Y0109742D02*
X0132854Y0108291D01*
X0134306Y0108291D01*
X0134789Y0108775D01*
X0134306Y0109258D01*
X0132854Y0109258D01*
X0132854Y0109742D02*
X0133338Y0110226D01*
X0134306Y0110226D01*
X0135801Y0109742D02*
X0135801Y0108775D01*
X0136285Y0108291D01*
X0137252Y0108291D01*
X0137736Y0108775D01*
X0137736Y0109742D01*
X0137252Y0110226D01*
X0136285Y0110226D01*
X0135801Y0109742D01*
X0138747Y0109258D02*
X0138747Y0108775D01*
X0139231Y0108291D01*
X0140682Y0108291D01*
X0140682Y0111193D01*
X0139231Y0111193D01*
X0138747Y0110710D01*
X0138747Y0110226D01*
X0139231Y0109742D01*
X0140682Y0109742D01*
X0139231Y0109742D02*
X0138747Y0109258D01*
X0139216Y0106877D02*
X0139216Y0106393D01*
X0139216Y0105426D02*
X0139216Y0103491D01*
X0138733Y0103491D02*
X0139700Y0103491D01*
X0139700Y0105426D02*
X0139216Y0105426D01*
X0137736Y0105426D02*
X0137736Y0103491D01*
X0137736Y0105426D02*
X0136285Y0105426D01*
X0135801Y0104942D01*
X0135801Y0103491D01*
X0131843Y0103491D02*
X0131843Y0106393D01*
X0130392Y0106393D01*
X0129908Y0105910D01*
X0129908Y0105426D01*
X0130392Y0104942D01*
X0131843Y0104942D01*
X0131843Y0103491D02*
X0130392Y0103491D01*
X0129908Y0103975D01*
X0129908Y0104458D01*
X0130392Y0104942D01*
X0128896Y0103975D02*
X0128412Y0103491D01*
X0126961Y0103491D01*
X0126961Y0104942D01*
X0127445Y0105426D01*
X0128412Y0105426D01*
X0128412Y0104458D02*
X0126961Y0104458D01*
X0125950Y0104458D02*
X0124982Y0105426D01*
X0124498Y0105426D01*
X0123494Y0104942D02*
X0123494Y0103975D01*
X0123011Y0103491D01*
X0121559Y0103491D01*
X0120548Y0103975D02*
X0120064Y0103491D01*
X0119097Y0103491D01*
X0118613Y0104458D02*
X0120548Y0104458D01*
X0120548Y0103975D02*
X0120548Y0104942D01*
X0120064Y0105426D01*
X0119097Y0105426D01*
X0118613Y0104942D01*
X0118613Y0104458D01*
X0117601Y0103491D02*
X0116634Y0103491D01*
X0117118Y0103491D02*
X0117118Y0106393D01*
X0117601Y0106393D01*
X0115637Y0104942D02*
X0115637Y0103975D01*
X0115153Y0103491D01*
X0114186Y0103491D01*
X0113702Y0103975D01*
X0113702Y0104942D01*
X0114186Y0105426D01*
X0115153Y0105426D01*
X0115637Y0104942D01*
X0112690Y0105426D02*
X0112690Y0103491D01*
X0110755Y0103491D02*
X0110755Y0104942D01*
X0111239Y0105426D01*
X0112690Y0105426D01*
X0109744Y0103975D02*
X0109260Y0103491D01*
X0107809Y0103491D01*
X0107809Y0104942D01*
X0108293Y0105426D01*
X0109260Y0105426D01*
X0109260Y0104458D02*
X0107809Y0104458D01*
X0109260Y0104458D02*
X0109744Y0103975D01*
X0119104Y0096793D02*
X0119104Y0093891D01*
X0119104Y0095342D02*
X0121039Y0095342D01*
X0121039Y0093891D02*
X0121039Y0096793D01*
X0122050Y0093407D02*
X0123985Y0093407D01*
X0124997Y0094858D02*
X0124997Y0096793D01*
X0124997Y0094858D02*
X0125964Y0093891D01*
X0126932Y0094858D01*
X0126932Y0096793D01*
X0127943Y0096793D02*
X0129878Y0096793D01*
X0129878Y0093891D01*
X0127943Y0093891D01*
X0128911Y0095342D02*
X0129878Y0095342D01*
X0130890Y0095342D02*
X0130890Y0096310D01*
X0131374Y0096793D01*
X0132825Y0096793D01*
X0132825Y0093891D01*
X0132825Y0094858D02*
X0131374Y0094858D01*
X0130890Y0095342D01*
X0131857Y0094858D02*
X0130890Y0093891D01*
X0136783Y0095342D02*
X0138718Y0095342D01*
X0142676Y0096310D02*
X0144611Y0094375D01*
X0144611Y0093891D01*
X0145623Y0093891D02*
X0147558Y0093891D01*
X0146590Y0093891D02*
X0146590Y0096793D01*
X0147558Y0095826D01*
X0148569Y0096310D02*
X0150504Y0094375D01*
X0150020Y0093891D01*
X0149053Y0093891D01*
X0148569Y0094375D01*
X0148569Y0096310D01*
X0149053Y0096793D01*
X0150020Y0096793D01*
X0150504Y0096310D01*
X0150504Y0094375D01*
X0151516Y0093891D02*
X0153451Y0093891D01*
X0151516Y0095826D01*
X0151516Y0096310D01*
X0151999Y0096793D01*
X0152967Y0096793D01*
X0153451Y0096310D01*
X0144611Y0096793D02*
X0142676Y0096793D01*
X0142676Y0096310D01*
X0128896Y0103975D02*
X0128412Y0104458D01*
X0125950Y0103491D02*
X0125950Y0105426D01*
X0123494Y0104942D02*
X0123011Y0105426D01*
X0121559Y0105426D01*
X0137765Y0115026D02*
X0139216Y0115026D01*
X0139700Y0114542D01*
X0160355Y0115510D02*
X0160839Y0115993D01*
X0161806Y0115993D01*
X0162290Y0115510D01*
X0162290Y0113575D01*
X0151562Y0139875D02*
X0152045Y0140359D01*
X0151562Y0139875D02*
X0150594Y0139875D01*
X0150110Y0140359D01*
X0150110Y0141326D01*
X0150594Y0141810D01*
X0151078Y0141810D01*
X0152045Y0141326D01*
X0152045Y0142778D01*
X0150110Y0142778D01*
X0149099Y0142778D02*
X0149099Y0140843D01*
X0148131Y0139875D01*
X0147164Y0140843D01*
X0147164Y0142778D01*
X0121749Y0142894D02*
X0121265Y0143378D01*
X0120298Y0143378D01*
X0119814Y0142894D01*
X0119814Y0142410D01*
X0121749Y0140475D01*
X0119814Y0140475D01*
X0118803Y0141926D02*
X0116868Y0141926D01*
X0115856Y0141443D02*
X0115856Y0143378D01*
X0117351Y0143378D02*
X0117351Y0140475D01*
X0115856Y0141443D02*
X0114889Y0140475D01*
X0113921Y0141443D01*
X0113921Y0143378D01*
X0117351Y0143378D02*
X0118803Y0141926D01*
X0082979Y0140959D02*
X0082495Y0140475D01*
X0081528Y0140475D01*
X0081044Y0140959D01*
X0081044Y0141926D01*
X0082012Y0141926D01*
X0082979Y0140959D02*
X0082979Y0142894D01*
X0082495Y0143378D01*
X0081528Y0143378D01*
X0081044Y0142894D01*
X0080033Y0143378D02*
X0080033Y0140475D01*
X0078098Y0140475D02*
X0078098Y0143378D01*
X0077086Y0143378D02*
X0075635Y0143378D01*
X0075151Y0142894D01*
X0075151Y0140959D01*
X0075635Y0140475D01*
X0077086Y0140475D01*
X0077086Y0143378D01*
X0080033Y0143378D02*
X0078098Y0140475D01*
X0121828Y0077311D02*
X0121828Y0074409D01*
X0123763Y0074409D02*
X0123763Y0077311D01*
X0122796Y0076344D01*
X0121828Y0077311D01*
X0124775Y0076828D02*
X0124775Y0075860D01*
X0125258Y0075376D01*
X0126710Y0075376D01*
X0126710Y0074409D02*
X0126710Y0077311D01*
X0125258Y0077311D01*
X0124775Y0076828D01*
X0125742Y0075376D02*
X0124775Y0074409D01*
X0127721Y0074409D02*
X0129656Y0074409D01*
X0129656Y0077311D01*
X0127721Y0077311D01*
X0128689Y0075860D02*
X0129656Y0075860D01*
X0130668Y0075860D02*
X0132603Y0075860D01*
X0132603Y0074409D02*
X0132603Y0077311D01*
X0133614Y0077311D02*
X0135549Y0077311D01*
X0134582Y0077311D02*
X0134582Y0074409D01*
X0130668Y0074409D02*
X0130668Y0077311D01*
D11*
X0084739Y0111827D02*
X0082834Y0111634D01*
X0082629Y0110993D01*
X0082321Y0110396D01*
X0083531Y0108911D01*
X0082514Y0107894D01*
X0081030Y0109104D01*
X0080432Y0108796D01*
X0079584Y0110842D01*
X0079963Y0111054D01*
X0080281Y0111348D01*
X0080523Y0111709D01*
X0080673Y0112116D01*
X0080724Y0112547D01*
X0080671Y0112986D01*
X0080515Y0113399D01*
X0080266Y0113764D01*
X0079937Y0114058D01*
X0079547Y0114267D01*
X0079119Y0114376D01*
X0078677Y0114381D01*
X0078247Y0114281D01*
X0077853Y0114081D01*
X0077518Y0113793D01*
X0077260Y0113434D01*
X0077096Y0113024D01*
X0077033Y0112587D01*
X0077077Y0112148D01*
X0077223Y0111731D01*
X0077464Y0111361D01*
X0077787Y0111059D01*
X0078172Y0110842D01*
X0077324Y0108796D01*
X0076726Y0109104D01*
X0075242Y0107894D01*
X0074224Y0108911D01*
X0075435Y0110396D01*
X0075127Y0110993D01*
X0074922Y0111634D01*
X0073017Y0111827D01*
X0073017Y0113267D01*
X0074922Y0113460D01*
X0075127Y0114101D01*
X0075435Y0114699D01*
X0074224Y0116183D01*
X0075242Y0117201D01*
X0076726Y0115990D01*
X0077324Y0116298D01*
X0077965Y0116503D01*
X0078158Y0118409D01*
X0079598Y0118409D01*
X0079791Y0116503D01*
X0080432Y0116298D01*
X0081030Y0115990D01*
X0082514Y0117201D01*
X0083531Y0116183D01*
X0082321Y0114699D01*
X0082629Y0114101D01*
X0082834Y0113460D01*
X0084739Y0113267D01*
X0084739Y0111827D01*
X0084739Y0112278D02*
X0080692Y0112278D01*
X0080685Y0112867D02*
X0084739Y0112867D01*
X0083376Y0111689D02*
X0080509Y0111689D01*
X0080012Y0111100D02*
X0082663Y0111100D01*
X0082381Y0110511D02*
X0079721Y0110511D01*
X0079966Y0109922D02*
X0082708Y0109922D01*
X0083188Y0109333D02*
X0080210Y0109333D01*
X0081471Y0108744D02*
X0083364Y0108744D01*
X0082775Y0108154D02*
X0082194Y0108154D01*
X0077790Y0109922D02*
X0075048Y0109922D01*
X0075375Y0110511D02*
X0078034Y0110511D01*
X0077743Y0111100D02*
X0075093Y0111100D01*
X0074380Y0111689D02*
X0077250Y0111689D01*
X0077064Y0112278D02*
X0073017Y0112278D01*
X0073017Y0112867D02*
X0077073Y0112867D01*
X0077276Y0113456D02*
X0074878Y0113456D01*
X0075109Y0114045D02*
X0077811Y0114045D01*
X0079951Y0114045D02*
X0082647Y0114045D01*
X0082878Y0113456D02*
X0080476Y0113456D01*
X0082354Y0114634D02*
X0075401Y0114634D01*
X0075007Y0115223D02*
X0082749Y0115223D01*
X0083229Y0115812D02*
X0074527Y0115812D01*
X0074443Y0116401D02*
X0076222Y0116401D01*
X0075500Y0116990D02*
X0075032Y0116990D01*
X0077646Y0116401D02*
X0080110Y0116401D01*
X0079742Y0116990D02*
X0078014Y0116990D01*
X0078074Y0117579D02*
X0079682Y0117579D01*
X0079622Y0118169D02*
X0078134Y0118169D01*
X0081533Y0116401D02*
X0083313Y0116401D01*
X0082724Y0116990D02*
X0082256Y0116990D01*
X0077546Y0109333D02*
X0074568Y0109333D01*
X0074392Y0108744D02*
X0076285Y0108744D01*
X0075562Y0108154D02*
X0074981Y0108154D01*
D12*
X0074143Y0059236D03*
X0071763Y0059236D03*
X0071763Y0055596D03*
X0071623Y0054336D03*
X0074143Y0055596D03*
X0080863Y0051676D03*
X0080863Y0051536D03*
X0080863Y0051396D03*
X0080863Y0051256D03*
X0080863Y0050976D03*
X0080863Y0050836D03*
X0080863Y0049856D03*
X0080863Y0049576D03*
X0080863Y0049436D03*
X0080863Y0049296D03*
X0080863Y0049156D03*
X0080863Y0048876D03*
X0084363Y0050836D03*
X0086323Y0050556D03*
X0086323Y0050276D03*
X0086323Y0050136D03*
X0086323Y0049996D03*
X0085203Y0048596D03*
X0094723Y0051256D03*
X0094723Y0051396D03*
X0096823Y0049436D03*
X0096823Y0049296D03*
X0104103Y0054336D03*
X0104243Y0054196D03*
X0103823Y0057976D03*
X0104103Y0058396D03*
X0104243Y0058536D03*
X0109003Y0058676D03*
X0109143Y0058536D03*
X0109563Y0057976D03*
X0109563Y0054756D03*
X0109143Y0054196D03*
X0109003Y0054056D03*
X0114043Y0058536D03*
X0119223Y0058396D03*
X0119363Y0058256D03*
X0119363Y0054476D03*
X0119223Y0054336D03*
X0124403Y0058956D03*
X0129443Y0058396D03*
X0129303Y0054476D03*
X0129443Y0054336D03*
X0137563Y0055176D03*
X0137843Y0055456D03*
X0138543Y0056296D03*
X0138823Y0056576D03*
X0139663Y0057556D03*
X0139803Y0057696D03*
X0139943Y0057836D03*
X0140923Y0058956D03*
X0143863Y0053776D03*
X0144003Y0053636D03*
X0146663Y0053636D03*
X0146803Y0053776D03*
X0092903Y0060496D03*
D13*
X0096193Y0054756D03*
X0098433Y0051396D03*
X0098433Y0051256D03*
X0096753Y0049156D03*
X0100953Y0048736D03*
X0104033Y0054476D03*
X0103893Y0054756D03*
X0103753Y0054896D03*
X0103753Y0055036D03*
X0103613Y0055176D03*
X0103473Y0055736D03*
X0103473Y0055876D03*
X0103473Y0056856D03*
X0103473Y0056996D03*
X0103613Y0057556D03*
X0103753Y0057836D03*
X0104033Y0058256D03*
X0106693Y0060776D03*
X0106833Y0060636D03*
X0106553Y0061056D03*
X0106413Y0061196D03*
X0106273Y0061336D03*
X0106133Y0061476D03*
X0109353Y0058256D03*
X0109633Y0057836D03*
X0109773Y0057556D03*
X0109913Y0057136D03*
X0109913Y0056996D03*
X0109913Y0056856D03*
X0109913Y0055876D03*
X0109913Y0055736D03*
X0109913Y0055596D03*
X0109773Y0055176D03*
X0109633Y0054896D03*
X0109353Y0054476D03*
X0112013Y0054476D03*
X0112013Y0054336D03*
X0112013Y0054196D03*
X0112013Y0054056D03*
X0112013Y0053776D03*
X0112013Y0053636D03*
X0112013Y0053496D03*
X0112013Y0053356D03*
X0112013Y0053076D03*
X0112013Y0052936D03*
X0112013Y0054756D03*
X0112013Y0054896D03*
X0112013Y0055036D03*
X0112013Y0055176D03*
X0112013Y0055456D03*
X0112013Y0055596D03*
X0112013Y0055736D03*
X0112013Y0055876D03*
X0112013Y0056156D03*
X0112013Y0056296D03*
X0112013Y0056436D03*
X0112013Y0056576D03*
X0112013Y0056856D03*
X0112013Y0056996D03*
X0112013Y0057136D03*
X0112013Y0057276D03*
X0112013Y0057556D03*
X0112013Y0057696D03*
X0112013Y0057836D03*
X0112013Y0057976D03*
X0112013Y0058256D03*
X0112013Y0058396D03*
X0112013Y0058536D03*
X0112013Y0058676D03*
X0112013Y0058956D03*
X0112013Y0059096D03*
X0112013Y0059236D03*
X0112013Y0059376D03*
X0112013Y0059656D03*
X0112013Y0059796D03*
X0114113Y0054196D03*
X0115653Y0051536D03*
X0117753Y0050136D03*
X0121533Y0053076D03*
X0121673Y0053356D03*
X0121673Y0053496D03*
X0121813Y0053636D03*
X0121813Y0053776D03*
X0121953Y0054056D03*
X0122093Y0054196D03*
X0122093Y0054336D03*
X0122373Y0054896D03*
X0122513Y0055176D03*
X0122793Y0055876D03*
X0122933Y0056156D03*
X0123073Y0056296D03*
X0123073Y0056436D03*
X0123353Y0056996D03*
X0123493Y0057276D03*
X0123633Y0057556D03*
X0123633Y0057696D03*
X0123773Y0057836D03*
X0123773Y0057976D03*
X0123913Y0058256D03*
X0124753Y0058256D03*
X0124893Y0057976D03*
X0125033Y0057836D03*
X0125033Y0057696D03*
X0125173Y0057556D03*
X0125313Y0057276D03*
X0125313Y0057136D03*
X0125453Y0056996D03*
X0125453Y0056856D03*
X0125593Y0056576D03*
X0125733Y0056296D03*
X0125873Y0055876D03*
X0126293Y0055176D03*
X0126293Y0055036D03*
X0126433Y0054896D03*
X0126433Y0054756D03*
X0126573Y0054476D03*
X0126713Y0054336D03*
X0126713Y0054196D03*
X0126853Y0054056D03*
X0126993Y0053636D03*
X0127133Y0053356D03*
X0127273Y0053076D03*
X0129093Y0054756D03*
X0129093Y0054896D03*
X0128953Y0055176D03*
X0128813Y0055736D03*
X0128813Y0055876D03*
X0128813Y0056156D03*
X0128813Y0056436D03*
X0128813Y0056576D03*
X0128813Y0056856D03*
X0128953Y0057276D03*
X0129093Y0057696D03*
X0129093Y0057836D03*
X0129233Y0057976D03*
X0129373Y0058256D03*
X0124333Y0059096D03*
X0119993Y0056436D03*
X0119853Y0056996D03*
X0119853Y0057136D03*
X0119853Y0057276D03*
X0119713Y0057556D03*
X0119713Y0057696D03*
X0119573Y0057836D03*
X0119573Y0057976D03*
X0119853Y0055596D03*
X0119853Y0055456D03*
X0119713Y0055176D03*
X0119713Y0055036D03*
X0119573Y0054896D03*
X0119573Y0054756D03*
X0109353Y0048736D03*
X0136373Y0053776D03*
X0137213Y0054756D03*
X0137353Y0054896D03*
X0137493Y0055036D03*
X0138053Y0055736D03*
X0138193Y0055876D03*
X0138473Y0056156D03*
X0139033Y0056856D03*
X0139173Y0056996D03*
X0139313Y0057136D03*
X0139453Y0057276D03*
X0140013Y0057976D03*
X0140993Y0057976D03*
X0140993Y0057836D03*
X0140993Y0057696D03*
X0140993Y0057556D03*
X0140993Y0057276D03*
X0140993Y0057136D03*
X0140993Y0056996D03*
X0140993Y0056856D03*
X0140993Y0056576D03*
X0140993Y0056436D03*
X0140993Y0056296D03*
X0140993Y0056156D03*
X0140993Y0055876D03*
X0140993Y0055736D03*
X0140993Y0055596D03*
X0140993Y0055456D03*
X0140993Y0055176D03*
X0140993Y0055036D03*
X0140993Y0054896D03*
X0140993Y0054756D03*
X0140993Y0054476D03*
X0140993Y0054336D03*
X0140993Y0054196D03*
X0140993Y0054056D03*
X0140993Y0053776D03*
X0140993Y0053636D03*
X0140993Y0053496D03*
X0140993Y0053356D03*
X0140993Y0053076D03*
X0143513Y0054336D03*
X0143653Y0054056D03*
X0143373Y0055456D03*
X0143373Y0055596D03*
X0143373Y0055736D03*
X0143373Y0055876D03*
X0143373Y0056156D03*
X0143373Y0056296D03*
X0143373Y0056436D03*
X0143373Y0056576D03*
X0143373Y0056856D03*
X0143373Y0056996D03*
X0143373Y0057136D03*
X0143373Y0057276D03*
X0143373Y0057556D03*
X0143373Y0057696D03*
X0143373Y0057836D03*
X0143373Y0057976D03*
X0143373Y0058256D03*
X0143373Y0058396D03*
X0143373Y0058536D03*
X0143373Y0058676D03*
X0143373Y0058956D03*
X0143373Y0059096D03*
X0143373Y0059236D03*
X0143373Y0059376D03*
X0143373Y0059656D03*
X0140993Y0059096D03*
X0147153Y0054336D03*
X0147013Y0054056D03*
X0074073Y0052376D03*
X0071973Y0052936D03*
X0071833Y0056856D03*
X0071833Y0057976D03*
X0074073Y0057976D03*
X0074073Y0056856D03*
X0074073Y0061476D03*
X0071833Y0061476D03*
D14*
X0086253Y0050696D03*
X0086253Y0049856D03*
X0086113Y0049436D03*
X0091713Y0049436D03*
X0091713Y0049576D03*
X0091713Y0049856D03*
X0091713Y0049996D03*
X0091713Y0050136D03*
X0091713Y0050276D03*
X0091713Y0050556D03*
X0091713Y0050696D03*
X0091713Y0050836D03*
X0091713Y0050976D03*
X0091713Y0049296D03*
X0091713Y0049156D03*
X0091713Y0048876D03*
X0091713Y0048736D03*
X0108653Y0053776D03*
X0108653Y0058956D03*
X0119013Y0058676D03*
X0119153Y0058536D03*
X0119153Y0054196D03*
X0119013Y0054056D03*
X0129653Y0054056D03*
X0129653Y0058536D03*
X0136513Y0054056D03*
X0144213Y0053496D03*
D15*
X0099903Y0054336D03*
X0089403Y0058256D03*
X0088563Y0051676D03*
X0088563Y0051536D03*
X0088563Y0051396D03*
X0088563Y0051256D03*
X0088563Y0049296D03*
X0088563Y0049156D03*
X0088563Y0048876D03*
X0088563Y0048736D03*
X0085203Y0049296D03*
X0085203Y0051256D03*
X0077503Y0054336D03*
X0077503Y0054476D03*
D16*
X0076873Y0052796D03*
X0076313Y0052236D03*
X0077013Y0061196D03*
X0076873Y0061336D03*
X0068893Y0061056D03*
X0085553Y0056576D03*
X0085553Y0056436D03*
X0085553Y0056296D03*
X0085553Y0056156D03*
X0085553Y0055876D03*
X0085553Y0055736D03*
X0085553Y0055596D03*
X0085553Y0055456D03*
X0085553Y0055176D03*
X0085553Y0055036D03*
X0085553Y0054896D03*
X0085553Y0054756D03*
X0085553Y0054476D03*
X0085553Y0054336D03*
X0085553Y0054196D03*
X0085553Y0054056D03*
X0085553Y0053776D03*
X0085553Y0053636D03*
X0085553Y0053496D03*
X0085553Y0053356D03*
X0085553Y0053076D03*
X0085273Y0048736D03*
X0100953Y0048876D03*
X0100953Y0051676D03*
X0100953Y0056156D03*
X0100953Y0056296D03*
X0100953Y0056436D03*
X0100953Y0056576D03*
X0109353Y0048876D03*
X0130353Y0053636D03*
D17*
X0130633Y0059096D03*
X0118593Y0048876D03*
X0100673Y0055176D03*
X0100533Y0054896D03*
X0100673Y0057556D03*
X0100533Y0057696D03*
X0092833Y0061896D03*
X0081493Y0057976D03*
X0071973Y0052376D03*
D18*
X0071833Y0053076D03*
X0073933Y0053076D03*
X0073933Y0052936D03*
X0073933Y0052796D03*
X0073933Y0052656D03*
X0073933Y0054476D03*
X0074073Y0055876D03*
X0074073Y0056576D03*
X0074073Y0058256D03*
X0074073Y0060496D03*
X0074073Y0061196D03*
X0071833Y0061196D03*
X0071833Y0060636D03*
X0071833Y0060496D03*
X0071833Y0058956D03*
X0071833Y0058256D03*
X0071833Y0056576D03*
X0071833Y0055876D03*
X0084433Y0049856D03*
X0093533Y0048876D03*
X0093673Y0049156D03*
X0093673Y0049296D03*
X0094093Y0050276D03*
X0094233Y0050556D03*
X0094233Y0050696D03*
X0094373Y0050976D03*
X0095073Y0050976D03*
X0095073Y0050836D03*
X0095633Y0049576D03*
X0095633Y0049436D03*
X0095633Y0049296D03*
X0095773Y0049156D03*
X0097173Y0049576D03*
X0097593Y0050276D03*
X0097873Y0050696D03*
X0098573Y0051676D03*
X0099693Y0050836D03*
X0099693Y0050696D03*
X0099693Y0050556D03*
X0099693Y0050276D03*
X0099693Y0050136D03*
X0099693Y0049996D03*
X0099693Y0049856D03*
X0099833Y0049576D03*
X0099973Y0049296D03*
X0099833Y0050976D03*
X0099973Y0051256D03*
X0101933Y0049436D03*
X0102073Y0049576D03*
X0102073Y0049856D03*
X0102073Y0050696D03*
X0102073Y0050836D03*
X0102073Y0050976D03*
X0104593Y0050976D03*
X0104593Y0050836D03*
X0104593Y0050696D03*
X0104593Y0050556D03*
X0104593Y0050276D03*
X0104593Y0050136D03*
X0104593Y0049996D03*
X0104593Y0049856D03*
X0104593Y0049576D03*
X0104593Y0049436D03*
X0104593Y0049296D03*
X0104593Y0049156D03*
X0104593Y0051256D03*
X0104593Y0051396D03*
X0104593Y0051536D03*
X0104593Y0051676D03*
X0108373Y0050976D03*
X0108233Y0049576D03*
X0108373Y0049436D03*
X0110333Y0049436D03*
X0110473Y0049856D03*
X0110473Y0049996D03*
X0110473Y0050136D03*
X0110473Y0050276D03*
X0110473Y0050556D03*
X0110473Y0050696D03*
X0110473Y0050836D03*
X0111593Y0050836D03*
X0111593Y0050976D03*
X0111733Y0049296D03*
X0114393Y0048876D03*
X0114533Y0049156D03*
X0114673Y0049436D03*
X0114673Y0049576D03*
X0115093Y0050556D03*
X0115093Y0050696D03*
X0115233Y0050836D03*
X0115233Y0050976D03*
X0115373Y0051256D03*
X0115933Y0050976D03*
X0116073Y0050836D03*
X0116073Y0050696D03*
X0116073Y0050556D03*
X0116493Y0049576D03*
X0116493Y0049436D03*
X0116633Y0049296D03*
X0116633Y0049156D03*
X0116773Y0048876D03*
X0117473Y0049436D03*
X0117473Y0049576D03*
X0117473Y0049856D03*
X0119293Y0049856D03*
X0119293Y0049996D03*
X0119293Y0050136D03*
X0119293Y0050556D03*
X0119293Y0050696D03*
X0119293Y0050836D03*
X0119293Y0050976D03*
X0119293Y0051256D03*
X0119293Y0051396D03*
X0119293Y0049576D03*
X0119293Y0049436D03*
X0119293Y0049296D03*
X0119293Y0049156D03*
X0116633Y0059936D03*
X0136233Y0053356D03*
X0141133Y0059376D03*
D19*
X0117613Y0051256D03*
X0117613Y0050976D03*
X0117613Y0050836D03*
X0117613Y0050696D03*
X0116213Y0050276D03*
X0114953Y0050276D03*
X0114953Y0050136D03*
X0113553Y0049996D03*
X0113553Y0049856D03*
X0113553Y0049576D03*
X0113553Y0049436D03*
X0113553Y0049296D03*
X0113553Y0049156D03*
X0113553Y0048876D03*
X0113553Y0050556D03*
X0113553Y0050696D03*
X0113553Y0050836D03*
X0113553Y0050976D03*
X0113553Y0051256D03*
X0113553Y0051396D03*
X0114113Y0054336D03*
X0111453Y0048876D03*
X0107253Y0049156D03*
X0107253Y0049296D03*
X0107253Y0049436D03*
X0107253Y0049576D03*
X0107253Y0049856D03*
X0107253Y0049996D03*
X0107253Y0050136D03*
X0107253Y0050556D03*
X0107253Y0050696D03*
X0107253Y0050836D03*
X0107253Y0050976D03*
X0107253Y0051256D03*
X0107253Y0051396D03*
X0102213Y0050556D03*
X0102213Y0050276D03*
X0102213Y0050136D03*
X0102213Y0049996D03*
X0098013Y0050836D03*
X0097453Y0049996D03*
X0097313Y0049856D03*
X0096613Y0049856D03*
X0096613Y0049996D03*
X0096613Y0050136D03*
X0096613Y0050276D03*
X0096613Y0050556D03*
X0096613Y0050696D03*
X0096613Y0050836D03*
X0096613Y0050976D03*
X0096613Y0051256D03*
X0096613Y0051396D03*
X0096613Y0051536D03*
X0096613Y0051676D03*
X0095213Y0050696D03*
X0095213Y0050556D03*
X0095353Y0050276D03*
X0095353Y0050136D03*
X0096613Y0049576D03*
X0093813Y0049576D03*
D20*
X0096403Y0054336D03*
X0106343Y0048876D03*
X0112643Y0051536D03*
X0116563Y0059796D03*
X0085203Y0051536D03*
X0077223Y0060356D03*
X0073023Y0050836D03*
D21*
X0077223Y0053356D03*
X0077223Y0053496D03*
X0074143Y0057556D03*
X0077223Y0060636D03*
X0085203Y0048876D03*
X0094723Y0049856D03*
X0100463Y0054756D03*
X0100463Y0057836D03*
X0100323Y0057976D03*
X0103823Y0048876D03*
X0092903Y0061056D03*
X0092903Y0061196D03*
X0092903Y0061336D03*
X0092903Y0061476D03*
X0092903Y0061756D03*
X0118523Y0051536D03*
X0118523Y0050276D03*
X0155623Y0063296D03*
D22*
X0116283Y0050136D03*
X0098643Y0050136D03*
X0098643Y0050276D03*
X0098643Y0050556D03*
X0098643Y0050696D03*
X0098643Y0050836D03*
X0098643Y0050976D03*
X0098643Y0049996D03*
X0098643Y0049856D03*
X0098643Y0049576D03*
X0098643Y0049436D03*
X0098643Y0049296D03*
X0098643Y0049156D03*
X0098643Y0048876D03*
X0075123Y0053076D03*
X0075123Y0053356D03*
X0075123Y0053496D03*
X0075123Y0053636D03*
X0075123Y0053776D03*
X0075123Y0054056D03*
X0075123Y0054196D03*
X0075123Y0054336D03*
X0075123Y0054476D03*
X0074143Y0056156D03*
X0074143Y0056296D03*
X0074143Y0056436D03*
X0074143Y0058396D03*
X0074143Y0058536D03*
X0074143Y0058676D03*
X0074143Y0060636D03*
X0074143Y0060776D03*
X0074143Y0061056D03*
X0072743Y0053776D03*
X0072743Y0053636D03*
X0071623Y0054056D03*
D23*
X0096683Y0048876D03*
X0098083Y0050976D03*
X0100183Y0051396D03*
X0100183Y0049156D03*
X0103683Y0057696D03*
X0108583Y0051396D03*
X0108583Y0049156D03*
X0112083Y0049856D03*
X0115583Y0051676D03*
X0117683Y0049156D03*
X0123283Y0056856D03*
X0128883Y0056996D03*
X0128883Y0057136D03*
X0128883Y0055596D03*
X0128883Y0055456D03*
X0143583Y0054196D03*
X0147083Y0054196D03*
X0109983Y0056156D03*
X0109983Y0056296D03*
X0109983Y0056436D03*
X0109983Y0056576D03*
D24*
X0109843Y0057276D03*
X0109703Y0057696D03*
X0109843Y0055456D03*
X0109703Y0055036D03*
X0110123Y0051396D03*
X0110263Y0051256D03*
X0110403Y0050976D03*
X0111663Y0051256D03*
X0111803Y0051396D03*
X0111663Y0050696D03*
X0111803Y0050556D03*
X0112223Y0049996D03*
X0111943Y0049576D03*
X0111803Y0049436D03*
X0111663Y0049156D03*
X0110403Y0049576D03*
X0110263Y0049296D03*
X0110123Y0049156D03*
X0108443Y0049296D03*
X0108443Y0051256D03*
X0103543Y0055456D03*
X0103543Y0055596D03*
X0103403Y0056156D03*
X0103403Y0056296D03*
X0103403Y0056436D03*
X0103403Y0056576D03*
X0103543Y0057136D03*
X0103543Y0057276D03*
X0106763Y0059936D03*
X0106903Y0060496D03*
X0114043Y0058396D03*
X0119923Y0056856D03*
X0119923Y0056576D03*
X0119923Y0056296D03*
X0119923Y0056156D03*
X0119923Y0055876D03*
X0119923Y0055736D03*
X0122163Y0054476D03*
X0122303Y0054756D03*
X0122443Y0055036D03*
X0123143Y0056576D03*
X0123423Y0057136D03*
X0124403Y0059236D03*
X0124403Y0059376D03*
X0125663Y0056436D03*
X0125803Y0056156D03*
X0126923Y0053776D03*
X0127063Y0053496D03*
X0128743Y0056296D03*
X0129023Y0057556D03*
X0129023Y0055036D03*
X0133923Y0055036D03*
X0133923Y0055176D03*
X0133923Y0055456D03*
X0133923Y0055596D03*
X0133923Y0055736D03*
X0133923Y0055876D03*
X0133923Y0056156D03*
X0133923Y0056296D03*
X0133923Y0056436D03*
X0133923Y0056576D03*
X0133923Y0056856D03*
X0133923Y0056996D03*
X0133923Y0057136D03*
X0133923Y0057276D03*
X0133923Y0057556D03*
X0133923Y0057696D03*
X0133923Y0057836D03*
X0133923Y0057976D03*
X0133923Y0058256D03*
X0133923Y0058396D03*
X0133923Y0058536D03*
X0133923Y0058676D03*
X0133923Y0058956D03*
X0133923Y0059096D03*
X0136303Y0059096D03*
X0136303Y0059236D03*
X0136303Y0059376D03*
X0136303Y0059656D03*
X0136303Y0058956D03*
X0136303Y0058676D03*
X0136303Y0058536D03*
X0136303Y0058396D03*
X0136303Y0058256D03*
X0136303Y0057976D03*
X0136303Y0057836D03*
X0136303Y0057696D03*
X0136303Y0057556D03*
X0136303Y0057276D03*
X0136303Y0057136D03*
X0136303Y0056996D03*
X0136303Y0056856D03*
X0136303Y0056576D03*
X0136303Y0056436D03*
X0136303Y0056296D03*
X0136303Y0056156D03*
X0136303Y0055876D03*
X0136303Y0055736D03*
X0136303Y0055596D03*
X0136303Y0055456D03*
X0136303Y0055176D03*
X0136303Y0055036D03*
X0136303Y0054896D03*
X0136303Y0054756D03*
X0136303Y0053636D03*
X0136303Y0053496D03*
X0133923Y0053636D03*
X0133923Y0053776D03*
X0133923Y0054056D03*
X0133923Y0054196D03*
X0133923Y0054336D03*
X0133923Y0054476D03*
X0133923Y0054756D03*
X0133923Y0054896D03*
X0141063Y0059236D03*
X0143443Y0055176D03*
X0143443Y0055036D03*
X0143443Y0054896D03*
X0143443Y0054756D03*
X0143443Y0054476D03*
X0147223Y0054476D03*
X0147223Y0054756D03*
X0147223Y0054896D03*
X0147223Y0055036D03*
X0147223Y0055176D03*
X0147223Y0055456D03*
X0147223Y0055596D03*
X0147223Y0055736D03*
X0147223Y0055876D03*
X0147223Y0056156D03*
X0147223Y0056296D03*
X0147223Y0056436D03*
X0147223Y0056576D03*
X0147223Y0056856D03*
X0147223Y0056996D03*
X0147223Y0057136D03*
X0147223Y0057276D03*
X0147223Y0057556D03*
X0147223Y0057696D03*
X0147223Y0057836D03*
X0147223Y0057976D03*
X0147223Y0058256D03*
X0147223Y0058396D03*
X0147223Y0058536D03*
X0147223Y0058676D03*
X0147223Y0058956D03*
X0147223Y0059096D03*
X0147223Y0059236D03*
X0147223Y0059376D03*
X0147223Y0059656D03*
X0117823Y0051396D03*
X0117823Y0050556D03*
X0117543Y0049996D03*
X0117543Y0049296D03*
X0114603Y0049296D03*
X0101863Y0049296D03*
X0101723Y0049156D03*
X0099903Y0049436D03*
X0097803Y0050556D03*
X0097523Y0050136D03*
X0098503Y0051536D03*
X0101723Y0051396D03*
X0101863Y0051256D03*
X0095843Y0048876D03*
X0093743Y0049436D03*
X0094023Y0050136D03*
X0094723Y0051536D03*
X0094723Y0051676D03*
X0096263Y0057836D03*
X0092903Y0062456D03*
X0074143Y0061336D03*
X0074143Y0060356D03*
X0074143Y0059096D03*
X0074143Y0058956D03*
X0071763Y0059096D03*
X0071763Y0060356D03*
X0071763Y0061336D03*
X0071763Y0055736D03*
X0071623Y0054196D03*
X0070363Y0053076D03*
X0074143Y0055736D03*
D25*
X0074073Y0056996D03*
X0074073Y0057836D03*
X0071833Y0057836D03*
X0071833Y0056996D03*
X0080933Y0050696D03*
X0082893Y0050696D03*
X0082893Y0050836D03*
X0082893Y0050976D03*
X0082893Y0051256D03*
X0082893Y0051396D03*
X0082893Y0051536D03*
X0082893Y0051676D03*
X0084293Y0050976D03*
X0084293Y0049576D03*
X0084433Y0049436D03*
X0082893Y0049436D03*
X0082893Y0049576D03*
X0082893Y0049856D03*
X0082893Y0049296D03*
X0082893Y0049156D03*
X0082893Y0048876D03*
X0089333Y0049436D03*
X0089333Y0049576D03*
X0089333Y0049856D03*
X0089333Y0049996D03*
X0089333Y0050696D03*
X0089333Y0050836D03*
X0089333Y0050976D03*
X0096193Y0057976D03*
X0104733Y0058956D03*
X0104733Y0053776D03*
X0114533Y0058956D03*
X0129793Y0058676D03*
D26*
X0118523Y0049016D03*
X0103823Y0049016D03*
X0092903Y0061616D03*
X0081563Y0058116D03*
D27*
X0074143Y0058116D03*
X0074143Y0056716D03*
X0071763Y0056716D03*
X0071763Y0058116D03*
X0074003Y0052516D03*
X0097243Y0049716D03*
X0099763Y0049716D03*
X0099903Y0051116D03*
X0103403Y0056016D03*
X0103403Y0056716D03*
X0111523Y0049016D03*
X0116703Y0049016D03*
X0119923Y0056016D03*
X0119923Y0056716D03*
X0127203Y0053216D03*
X0133923Y0053916D03*
X0133923Y0054616D03*
X0133923Y0055316D03*
X0133923Y0056016D03*
X0133923Y0056716D03*
X0133923Y0057416D03*
X0133923Y0058116D03*
X0133923Y0058816D03*
X0136303Y0058816D03*
X0136303Y0059516D03*
X0136303Y0058116D03*
X0136303Y0057416D03*
X0136303Y0056716D03*
X0136303Y0056016D03*
X0136303Y0055316D03*
X0136303Y0054616D03*
X0143443Y0054616D03*
X0143443Y0055316D03*
X0147223Y0055316D03*
X0147223Y0056016D03*
X0147223Y0056716D03*
X0147223Y0057416D03*
X0147223Y0058116D03*
X0147223Y0058816D03*
X0147223Y0059516D03*
X0147223Y0054616D03*
D28*
X0141133Y0059516D03*
X0124333Y0059516D03*
X0119293Y0051116D03*
X0119293Y0049716D03*
X0117473Y0049716D03*
X0115933Y0051116D03*
X0115373Y0051116D03*
X0115093Y0050416D03*
X0114533Y0049016D03*
X0111593Y0051116D03*
X0110333Y0051116D03*
X0110473Y0050416D03*
X0110473Y0049716D03*
X0108233Y0049716D03*
X0108373Y0051116D03*
X0104593Y0051116D03*
X0104593Y0050416D03*
X0104593Y0049716D03*
X0102073Y0049716D03*
X0101933Y0051116D03*
X0099693Y0050416D03*
X0097733Y0050416D03*
X0095773Y0049016D03*
X0094093Y0050416D03*
X0094373Y0051116D03*
X0093533Y0049016D03*
X0073933Y0053216D03*
X0074073Y0058816D03*
X0071833Y0058816D03*
D29*
X0095213Y0050416D03*
X0096613Y0050416D03*
X0096613Y0051116D03*
X0096613Y0049716D03*
X0102213Y0050416D03*
X0107253Y0051116D03*
X0107253Y0049716D03*
X0112013Y0049716D03*
X0113553Y0049716D03*
X0113553Y0049016D03*
X0113553Y0051116D03*
X0116213Y0050416D03*
X0117613Y0051116D03*
D30*
X0109353Y0049016D03*
X0100953Y0049016D03*
X0089753Y0057416D03*
X0085553Y0057416D03*
X0077153Y0060916D03*
X0077153Y0053216D03*
D31*
X0077363Y0053916D03*
X0089543Y0058116D03*
X0106343Y0049016D03*
X0112643Y0050416D03*
D32*
X0098643Y0050416D03*
X0098643Y0049716D03*
X0098643Y0049016D03*
X0075123Y0053216D03*
X0075123Y0053916D03*
X0074143Y0056016D03*
X0071623Y0053916D03*
X0074143Y0060916D03*
D33*
X0096683Y0049016D03*
X0109983Y0056016D03*
X0109983Y0056716D03*
X0119783Y0055316D03*
X0128883Y0055316D03*
D34*
X0140853Y0058816D03*
X0114253Y0053916D03*
X0091713Y0050416D03*
X0091713Y0049716D03*
X0091713Y0049016D03*
X0086253Y0049716D03*
D35*
X0088563Y0049016D03*
D36*
X0085273Y0049016D03*
X0094653Y0049716D03*
X0100253Y0054616D03*
X0106413Y0050416D03*
X0115653Y0049716D03*
D37*
X0118873Y0053916D03*
X0118873Y0058816D03*
X0124333Y0058816D03*
X0129793Y0053916D03*
X0089333Y0051116D03*
X0089333Y0049716D03*
X0084293Y0049716D03*
X0082893Y0049716D03*
X0082893Y0049016D03*
X0082893Y0051116D03*
X0084433Y0051116D03*
X0074073Y0061616D03*
X0071833Y0061616D03*
D38*
X0071763Y0060216D03*
X0074143Y0060216D03*
X0080863Y0051116D03*
X0080863Y0049716D03*
X0080863Y0049016D03*
X0086323Y0050416D03*
X0098363Y0051116D03*
X0104523Y0053916D03*
X0108863Y0053916D03*
X0108863Y0058816D03*
X0106063Y0061616D03*
X0104523Y0058816D03*
X0114323Y0058816D03*
X0119503Y0058116D03*
X0129303Y0058116D03*
X0136443Y0053916D03*
X0137143Y0054616D03*
X0137703Y0055316D03*
X0138963Y0056716D03*
X0139523Y0057416D03*
X0143723Y0053916D03*
X0146943Y0053916D03*
D39*
X0145333Y0053076D03*
X0099973Y0058256D03*
X0088633Y0050556D03*
X0088633Y0050276D03*
X0088633Y0050136D03*
X0085273Y0049156D03*
X0085273Y0051396D03*
X0077433Y0054056D03*
X0077433Y0054196D03*
D40*
X0086183Y0050976D03*
X0086183Y0050836D03*
X0086183Y0049576D03*
X0104383Y0054056D03*
X0104383Y0058676D03*
X0109283Y0058396D03*
X0109283Y0054336D03*
X0114183Y0054056D03*
X0115583Y0051396D03*
X0114183Y0058676D03*
X0129583Y0054196D03*
X0137983Y0055596D03*
X0138683Y0056436D03*
D41*
X0115583Y0049996D03*
X0115583Y0049856D03*
X0112783Y0050276D03*
X0112783Y0051676D03*
X0089683Y0057696D03*
X0089683Y0057836D03*
X0085483Y0057696D03*
X0085483Y0057556D03*
X0068683Y0060496D03*
D42*
X0068753Y0060636D03*
X0068753Y0060776D03*
X0077153Y0060776D03*
X0081353Y0057696D03*
X0085553Y0057276D03*
X0085553Y0057136D03*
X0089753Y0057556D03*
X0094653Y0049996D03*
X0100953Y0051536D03*
X0109353Y0051536D03*
D43*
X0106693Y0059656D03*
X0091713Y0051676D03*
X0091713Y0051536D03*
X0091713Y0051396D03*
X0091713Y0051256D03*
X0089193Y0058396D03*
X0086953Y0059376D03*
X0082753Y0059376D03*
X0077713Y0058676D03*
X0077713Y0058536D03*
X0077713Y0058396D03*
X0077713Y0058256D03*
X0077573Y0059096D03*
X0077713Y0056156D03*
X0077713Y0055876D03*
X0081913Y0050556D03*
X0081913Y0050276D03*
X0081913Y0050136D03*
X0081913Y0049996D03*
X0069313Y0053356D03*
X0069173Y0053636D03*
X0068193Y0056156D03*
X0068193Y0056296D03*
X0068193Y0056436D03*
X0068193Y0056576D03*
X0068473Y0059236D03*
X0068613Y0059376D03*
X0068893Y0059936D03*
D44*
X0073023Y0063296D03*
X0074143Y0059936D03*
X0077083Y0061056D03*
X0081423Y0057836D03*
X0081283Y0057556D03*
X0081283Y0057276D03*
X0081283Y0057136D03*
X0081283Y0056996D03*
X0081283Y0056856D03*
X0081283Y0056576D03*
X0081283Y0056436D03*
X0081283Y0056296D03*
X0081283Y0056156D03*
X0081283Y0055876D03*
X0081283Y0055736D03*
X0081283Y0055596D03*
X0081283Y0055456D03*
X0081283Y0055176D03*
X0081283Y0055036D03*
X0081283Y0054896D03*
X0081283Y0054756D03*
X0081283Y0054476D03*
X0081283Y0054336D03*
X0081283Y0054196D03*
X0081283Y0054056D03*
X0081283Y0053776D03*
X0081283Y0053636D03*
X0081283Y0053496D03*
X0081283Y0053356D03*
X0081283Y0053076D03*
X0077083Y0053076D03*
X0076943Y0052936D03*
X0085483Y0056856D03*
X0085483Y0056996D03*
X0089823Y0056996D03*
X0089823Y0057136D03*
X0089823Y0057276D03*
X0089823Y0056856D03*
X0089823Y0056576D03*
X0089823Y0056436D03*
X0089823Y0056296D03*
X0089823Y0056156D03*
X0089823Y0055876D03*
X0089823Y0055736D03*
X0089823Y0055596D03*
X0089823Y0055456D03*
X0089823Y0055176D03*
X0089823Y0055036D03*
X0089823Y0054896D03*
X0089823Y0054756D03*
X0089823Y0054476D03*
X0089823Y0054336D03*
X0089823Y0054196D03*
X0089823Y0054056D03*
X0089823Y0053776D03*
X0089823Y0053636D03*
X0089823Y0053496D03*
X0089823Y0053356D03*
X0089823Y0053076D03*
X0089823Y0059096D03*
X0089823Y0059236D03*
X0089823Y0059376D03*
X0089823Y0059656D03*
X0097943Y0059796D03*
X0100743Y0057276D03*
X0100743Y0057136D03*
X0100883Y0056996D03*
X0100883Y0056856D03*
X0100883Y0055876D03*
X0100883Y0055736D03*
X0100883Y0055596D03*
X0100743Y0055456D03*
X0112923Y0050136D03*
D45*
X0116633Y0052936D03*
X0106693Y0052936D03*
X0106413Y0051676D03*
X0106413Y0051536D03*
X0106413Y0050276D03*
X0100113Y0054476D03*
X0096193Y0058256D03*
X0089613Y0057976D03*
X0086953Y0059656D03*
X0082753Y0059656D03*
X0081633Y0058256D03*
X0077293Y0060496D03*
X0071833Y0057556D03*
X0077293Y0053776D03*
X0077293Y0053636D03*
X0106693Y0059796D03*
D46*
X0100673Y0057416D03*
X0092833Y0060916D03*
X0118593Y0050416D03*
D47*
X0088633Y0050416D03*
D48*
X0091713Y0051116D03*
X0081913Y0050416D03*
X0077713Y0056016D03*
X0068193Y0056016D03*
D49*
X0071693Y0053776D03*
X0071693Y0053636D03*
X0071693Y0053496D03*
X0071693Y0053356D03*
X0084573Y0050696D03*
X0114113Y0058256D03*
X0136093Y0053076D03*
D50*
X0155553Y0050836D03*
X0068613Y0054056D03*
D51*
X0071763Y0056156D03*
X0071763Y0056296D03*
X0071763Y0056436D03*
X0071763Y0058396D03*
X0071763Y0058536D03*
X0071763Y0058676D03*
X0071763Y0060776D03*
X0071763Y0061056D03*
X0073863Y0054336D03*
X0073863Y0054196D03*
X0073863Y0054056D03*
X0073863Y0053776D03*
X0073863Y0053636D03*
X0073863Y0053496D03*
X0073863Y0053356D03*
X0094303Y0050836D03*
X0096263Y0054896D03*
X0096263Y0057696D03*
X0115863Y0051256D03*
X0124403Y0059656D03*
X0141203Y0059656D03*
D52*
X0151073Y0056996D03*
X0151073Y0056856D03*
X0151073Y0056576D03*
X0151073Y0056436D03*
X0151073Y0056296D03*
X0151073Y0056156D03*
X0155553Y0050976D03*
X0159333Y0053776D03*
X0082753Y0059096D03*
X0077573Y0057696D03*
X0068473Y0057136D03*
D53*
X0068403Y0057696D03*
X0073023Y0050976D03*
X0077643Y0056996D03*
X0077643Y0057836D03*
X0087023Y0059236D03*
X0155623Y0063156D03*
X0159263Y0053636D03*
X0159263Y0053496D03*
D54*
X0155623Y0051116D03*
D55*
X0136163Y0053216D03*
X0095003Y0051116D03*
X0073863Y0053916D03*
X0071763Y0053216D03*
X0071763Y0056016D03*
X0071763Y0060916D03*
D56*
X0069243Y0052516D03*
X0086043Y0051116D03*
D57*
X0073023Y0051116D03*
X0073023Y0063016D03*
X0159683Y0058816D03*
X0159683Y0055316D03*
D58*
X0155553Y0051256D03*
X0098013Y0058956D03*
D59*
X0073023Y0051256D03*
X0155623Y0062876D03*
D60*
X0155553Y0051396D03*
X0098013Y0054056D03*
X0098013Y0058676D03*
D61*
X0073023Y0062736D03*
X0073023Y0051396D03*
X0153103Y0053496D03*
X0153103Y0053636D03*
X0155623Y0062736D03*
D62*
X0152753Y0055176D03*
X0152753Y0055036D03*
X0152753Y0054896D03*
X0155553Y0051536D03*
D63*
X0152823Y0054756D03*
X0155623Y0062596D03*
X0073023Y0062596D03*
X0073023Y0051536D03*
D64*
X0155623Y0051676D03*
D65*
X0145263Y0052936D03*
X0118663Y0051676D03*
X0100603Y0055036D03*
X0096263Y0054476D03*
X0092903Y0054476D03*
X0092903Y0054336D03*
X0092903Y0054196D03*
X0092903Y0054056D03*
X0092903Y0053776D03*
X0092903Y0053636D03*
X0092903Y0053496D03*
X0092903Y0053356D03*
X0092903Y0053076D03*
X0092903Y0054756D03*
X0092903Y0054896D03*
X0092903Y0055036D03*
X0092903Y0055176D03*
X0092903Y0055456D03*
X0092903Y0055596D03*
X0092903Y0055736D03*
X0092903Y0055876D03*
X0092903Y0056156D03*
X0092903Y0056296D03*
X0092903Y0056436D03*
X0092903Y0056576D03*
X0092903Y0056856D03*
X0092903Y0056996D03*
X0092903Y0057136D03*
X0092903Y0057276D03*
X0092903Y0057556D03*
X0092903Y0057696D03*
X0092903Y0057836D03*
X0092903Y0057976D03*
X0092903Y0058256D03*
X0092903Y0058396D03*
X0092903Y0058536D03*
X0092903Y0058676D03*
X0092903Y0058956D03*
X0092903Y0059096D03*
X0092903Y0059236D03*
X0092903Y0059376D03*
X0092903Y0059656D03*
X0092903Y0060776D03*
X0092903Y0062036D03*
X0085203Y0051676D03*
X0071763Y0059936D03*
X0068963Y0053076D03*
D66*
X0069103Y0052796D03*
X0071623Y0054476D03*
X0072183Y0052796D03*
X0072183Y0052656D03*
X0076523Y0052376D03*
X0076803Y0052656D03*
X0074143Y0057136D03*
X0071763Y0057136D03*
X0071763Y0061756D03*
X0074143Y0061756D03*
X0076523Y0061756D03*
X0076803Y0061476D03*
X0069103Y0061476D03*
X0069103Y0061336D03*
X0068963Y0061196D03*
X0092903Y0060636D03*
X0092903Y0062176D03*
X0105223Y0059236D03*
X0108163Y0059236D03*
X0105223Y0053496D03*
X0109283Y0051676D03*
X0115023Y0059236D03*
X0118103Y0059236D03*
X0124403Y0058396D03*
X0136723Y0054476D03*
X0140643Y0058256D03*
X0140643Y0058396D03*
D67*
X0073023Y0051676D03*
D68*
X0155623Y0051816D03*
D69*
X0143373Y0056016D03*
X0143373Y0056716D03*
X0143373Y0057416D03*
X0143373Y0058116D03*
X0143373Y0058816D03*
X0143373Y0059516D03*
X0140993Y0058116D03*
X0140993Y0057416D03*
X0140993Y0056716D03*
X0140993Y0056016D03*
X0140993Y0055316D03*
X0140993Y0054616D03*
X0140993Y0053916D03*
X0140993Y0053216D03*
X0138333Y0056016D03*
X0140153Y0058116D03*
X0128953Y0057416D03*
X0128813Y0056716D03*
X0128813Y0056016D03*
X0129233Y0054616D03*
X0126853Y0053916D03*
X0126573Y0054616D03*
X0125873Y0056016D03*
X0125593Y0056716D03*
X0125173Y0057416D03*
X0124893Y0058116D03*
X0123913Y0058116D03*
X0123493Y0057416D03*
X0123213Y0056716D03*
X0122933Y0056016D03*
X0122233Y0054616D03*
X0121953Y0053916D03*
X0121533Y0053216D03*
X0119433Y0054616D03*
X0119853Y0057416D03*
X0112013Y0057416D03*
X0112013Y0058116D03*
X0112013Y0058816D03*
X0112013Y0059516D03*
X0109493Y0058116D03*
X0109773Y0057416D03*
X0109773Y0055316D03*
X0109493Y0054616D03*
X0112013Y0054616D03*
X0112013Y0055316D03*
X0112013Y0056016D03*
X0112013Y0056716D03*
X0112013Y0053916D03*
X0112013Y0053216D03*
X0109353Y0051816D03*
X0103893Y0054616D03*
X0103613Y0055316D03*
X0103613Y0057416D03*
X0103893Y0058116D03*
X0106553Y0060916D03*
X0100953Y0051816D03*
D70*
X0096123Y0058116D03*
X0085203Y0051816D03*
X0076663Y0052516D03*
X0076663Y0061616D03*
X0069243Y0061616D03*
D71*
X0073023Y0062316D03*
X0073023Y0051816D03*
X0155623Y0062316D03*
D72*
X0155623Y0051956D03*
D73*
X0155693Y0062176D03*
X0073093Y0051956D03*
D74*
X0155553Y0052096D03*
D75*
X0155623Y0062036D03*
X0073023Y0062036D03*
X0073023Y0052096D03*
D76*
X0155623Y0052236D03*
D77*
X0159543Y0054476D03*
X0159543Y0059376D03*
X0132243Y0059376D03*
X0072743Y0052236D03*
D78*
X0069523Y0052236D03*
X0069383Y0052376D03*
X0074143Y0055456D03*
X0074143Y0059376D03*
X0074143Y0060076D03*
X0104943Y0059096D03*
X0108443Y0059096D03*
X0108443Y0053636D03*
X0104943Y0053636D03*
X0114743Y0053636D03*
X0114743Y0059096D03*
X0136583Y0054196D03*
X0140783Y0058676D03*
X0146523Y0053496D03*
D79*
X0155623Y0052376D03*
D80*
X0155623Y0052516D03*
D81*
X0100953Y0056016D03*
X0085553Y0056016D03*
X0085553Y0055316D03*
X0085553Y0054616D03*
X0085553Y0053916D03*
X0085553Y0053216D03*
X0074073Y0055316D03*
X0072113Y0052516D03*
D82*
X0155623Y0052656D03*
D83*
X0140713Y0058536D03*
X0136653Y0054336D03*
X0130213Y0058956D03*
X0118453Y0059096D03*
X0118453Y0053636D03*
X0118173Y0053496D03*
X0114953Y0053496D03*
X0086953Y0059796D03*
X0082753Y0059796D03*
X0074073Y0057696D03*
X0069453Y0061756D03*
X0069173Y0052656D03*
D84*
X0155623Y0052796D03*
X0155623Y0061196D03*
D85*
X0155623Y0061056D03*
X0155623Y0052936D03*
D86*
X0098083Y0052936D03*
X0085483Y0057836D03*
X0068683Y0060356D03*
X0068683Y0053776D03*
D87*
X0069033Y0052936D03*
D88*
X0085623Y0058536D03*
X0155623Y0053076D03*
D89*
X0159193Y0053356D03*
X0132593Y0053076D03*
X0068333Y0056996D03*
X0068333Y0057836D03*
D90*
X0068263Y0057976D03*
X0068263Y0056856D03*
X0068403Y0055456D03*
X0077503Y0055456D03*
X0077363Y0059376D03*
X0116563Y0059656D03*
X0116563Y0053076D03*
X0132663Y0059656D03*
X0145403Y0053356D03*
D91*
X0106763Y0053076D03*
X0077643Y0058956D03*
X0077223Y0060076D03*
X0068403Y0059096D03*
X0068263Y0058676D03*
X0068263Y0058536D03*
X0068263Y0058396D03*
X0068263Y0058256D03*
X0068263Y0055876D03*
X0068543Y0054476D03*
D92*
X0069243Y0053496D03*
X0077643Y0055596D03*
X0077643Y0055736D03*
X0077783Y0056296D03*
X0077783Y0056436D03*
X0077783Y0056576D03*
X0077643Y0057976D03*
X0077083Y0059936D03*
X0073023Y0063156D03*
X0085483Y0058256D03*
X0098083Y0053076D03*
D93*
X0077643Y0058116D03*
X0159123Y0053216D03*
D94*
X0153243Y0053216D03*
D95*
X0145333Y0053216D03*
X0068333Y0058816D03*
D96*
X0098013Y0053216D03*
X0132313Y0053216D03*
D97*
X0116563Y0053216D03*
X0116563Y0059516D03*
X0159403Y0053916D03*
D98*
X0151073Y0056016D03*
X0151073Y0056716D03*
X0106693Y0059516D03*
X0106693Y0053216D03*
X0098013Y0059516D03*
D99*
X0092903Y0059516D03*
X0092903Y0058816D03*
X0092903Y0058116D03*
X0092903Y0057416D03*
X0092903Y0056716D03*
X0092903Y0056016D03*
X0092903Y0055316D03*
X0092903Y0054616D03*
X0092903Y0053916D03*
X0092903Y0053216D03*
X0071763Y0059516D03*
D100*
X0074143Y0059516D03*
X0068823Y0060916D03*
X0081283Y0057416D03*
X0081283Y0056716D03*
X0081283Y0056016D03*
X0081283Y0055316D03*
X0081283Y0054616D03*
X0081283Y0053916D03*
X0081283Y0053216D03*
X0085483Y0056716D03*
X0089823Y0056716D03*
X0089823Y0056016D03*
X0089823Y0055316D03*
X0089823Y0054616D03*
X0089823Y0053916D03*
X0089823Y0053216D03*
X0089823Y0059516D03*
X0100883Y0056716D03*
X0100743Y0055316D03*
D101*
X0077643Y0058816D03*
X0069383Y0053216D03*
D102*
X0153173Y0053356D03*
D103*
X0159683Y0055176D03*
X0159683Y0055456D03*
X0159683Y0055596D03*
X0159683Y0058396D03*
X0159683Y0058536D03*
X0159683Y0058676D03*
X0132103Y0059236D03*
X0132103Y0053356D03*
X0124403Y0055456D03*
X0116563Y0053356D03*
X0116563Y0059376D03*
D104*
X0106693Y0053356D03*
X0159473Y0054196D03*
X0159473Y0054336D03*
X0159473Y0059656D03*
X0159473Y0059796D03*
D105*
X0159753Y0058256D03*
X0159753Y0057976D03*
X0159753Y0057836D03*
X0159753Y0057696D03*
X0159753Y0057556D03*
X0159753Y0057276D03*
X0159753Y0057136D03*
X0159753Y0056996D03*
X0159753Y0056856D03*
X0159753Y0056576D03*
X0159753Y0056436D03*
X0159753Y0056296D03*
X0159753Y0056156D03*
X0159753Y0055876D03*
X0159753Y0055736D03*
X0098013Y0053356D03*
X0098013Y0059236D03*
D106*
X0132033Y0053496D03*
D107*
X0124333Y0058536D03*
X0108233Y0053496D03*
X0071833Y0057696D03*
D108*
X0098013Y0053496D03*
D109*
X0098083Y0053636D03*
D110*
X0153033Y0053776D03*
D111*
X0130003Y0053776D03*
X0124403Y0058676D03*
X0118663Y0058956D03*
X0118663Y0053776D03*
X0114463Y0053776D03*
X0071763Y0055456D03*
X0071763Y0059376D03*
X0071763Y0060076D03*
D112*
X0098083Y0053776D03*
D113*
X0153033Y0053916D03*
D114*
X0098013Y0053916D03*
X0098013Y0058816D03*
D115*
X0100183Y0058116D03*
X0068683Y0053916D03*
D116*
X0077503Y0057136D03*
X0087023Y0059096D03*
X0159403Y0054056D03*
D117*
X0152963Y0054056D03*
D118*
X0152893Y0054196D03*
X0152893Y0054336D03*
X0152893Y0054476D03*
D119*
X0098013Y0054196D03*
X0098013Y0058396D03*
X0098013Y0058536D03*
D120*
X0085483Y0057976D03*
X0081843Y0058396D03*
X0068543Y0054336D03*
X0068543Y0054196D03*
D121*
X0159543Y0054616D03*
X0159543Y0059516D03*
D122*
X0152823Y0054616D03*
D123*
X0130003Y0058816D03*
X0096263Y0054616D03*
X0092903Y0062316D03*
D124*
X0072953Y0054616D03*
D125*
X0098013Y0059376D03*
X0159613Y0059236D03*
X0159613Y0059096D03*
X0159613Y0058956D03*
X0159613Y0055036D03*
X0159613Y0054896D03*
X0159613Y0054756D03*
D126*
X0073023Y0054756D03*
D127*
X0072953Y0054896D03*
D128*
X0073023Y0055036D03*
X0073023Y0055176D03*
D129*
X0152683Y0055316D03*
D130*
X0124333Y0055316D03*
D131*
X0077363Y0055316D03*
X0077223Y0059516D03*
X0068543Y0055316D03*
D132*
X0071833Y0055316D03*
D133*
X0152683Y0055456D03*
X0152683Y0055596D03*
X0152683Y0055736D03*
X0152683Y0055876D03*
X0152683Y0058256D03*
X0152683Y0058396D03*
X0152683Y0058536D03*
X0152683Y0058676D03*
D134*
X0124333Y0055596D03*
D135*
X0077433Y0059236D03*
X0068333Y0055736D03*
X0068333Y0055596D03*
D136*
X0077363Y0057556D03*
X0106763Y0059376D03*
X0124403Y0055736D03*
D137*
X0155693Y0063016D03*
X0159753Y0058116D03*
X0159753Y0057416D03*
X0159753Y0056716D03*
X0159753Y0056016D03*
D138*
X0077713Y0056716D03*
X0068753Y0059516D03*
D139*
X0068263Y0056716D03*
D140*
X0077713Y0056856D03*
X0082753Y0059236D03*
D141*
X0072953Y0062456D03*
X0152613Y0057976D03*
X0152613Y0057836D03*
X0152613Y0057696D03*
X0152613Y0057556D03*
X0152613Y0057276D03*
X0152613Y0057136D03*
D142*
X0073023Y0057276D03*
D143*
X0152613Y0057416D03*
X0152613Y0058116D03*
D144*
X0073023Y0057416D03*
D145*
X0068613Y0057556D03*
X0082753Y0058956D03*
X0085413Y0058396D03*
D146*
X0085413Y0058116D03*
X0082753Y0059516D03*
D147*
X0068333Y0058116D03*
D148*
X0085693Y0058676D03*
D149*
X0087863Y0058816D03*
D150*
X0082753Y0058816D03*
D151*
X0087933Y0058956D03*
D152*
X0068333Y0058956D03*
D153*
X0073023Y0062876D03*
X0097943Y0059096D03*
D154*
X0132383Y0059516D03*
D155*
X0087023Y0059516D03*
X0077223Y0060216D03*
D156*
X0068753Y0060076D03*
X0098013Y0059656D03*
D157*
X0073023Y0059656D03*
X0073023Y0059796D03*
D158*
X0155623Y0059936D03*
X0155623Y0060076D03*
D159*
X0155623Y0060216D03*
D160*
X0068753Y0060216D03*
D161*
X0155623Y0060356D03*
D162*
X0155623Y0060496D03*
D163*
X0155623Y0060636D03*
X0155623Y0060776D03*
D164*
X0155623Y0060916D03*
D165*
X0155693Y0061336D03*
D166*
X0155693Y0061476D03*
D167*
X0155693Y0061616D03*
D168*
X0155693Y0061756D03*
D169*
X0155623Y0061896D03*
X0073023Y0061896D03*
D170*
X0072953Y0062176D03*
D171*
X0155693Y0062456D03*
M02*
