G75*
%MOIN*%
%OFA0B0*%
%FSLAX25Y25*%
%IPPOS*%
%LPD*%
%AMOC8*
5,1,8,0,0,1.08239X$1,22.5*
%
%ADD10C,0.00400*%
%ADD11C,0.00300*%
%ADD12C,0.01000*%
%ADD13C,0.00600*%
%ADD14C,0.00800*%
%ADD15C,0.00500*%
%ADD16C,0.01575*%
D10*
X0067068Y0079404D02*
X0067068Y0082473D01*
X0068602Y0080939D02*
X0065533Y0080939D01*
X0074868Y0114804D02*
X0074868Y0117873D01*
X0076402Y0116339D02*
X0073333Y0116339D01*
D11*
X0081644Y0115527D02*
X0083579Y0115527D01*
X0084590Y0115527D02*
X0084590Y0118430D01*
X0086525Y0118430D01*
X0087537Y0117462D02*
X0088504Y0118430D01*
X0089472Y0117462D01*
X0089472Y0115527D01*
X0090483Y0115527D02*
X0090483Y0118430D01*
X0092418Y0115527D01*
X0092418Y0118430D01*
X0089472Y0116978D02*
X0087537Y0116978D01*
X0087537Y0117462D02*
X0087537Y0115527D01*
X0085558Y0116978D02*
X0084590Y0116978D01*
X0081644Y0115527D02*
X0081644Y0118430D01*
X0094283Y0114004D02*
X0094283Y0111102D01*
X0094283Y0112069D02*
X0095734Y0113037D01*
X0094283Y0112069D02*
X0095734Y0111102D01*
X0095572Y0097522D02*
X0097023Y0097522D01*
X0097507Y0097039D01*
X0097507Y0096071D01*
X0097023Y0095587D01*
X0095572Y0095587D01*
X0095572Y0094620D02*
X0095572Y0097522D01*
X0096540Y0095587D02*
X0097507Y0094620D01*
X0098519Y0095104D02*
X0099002Y0094620D01*
X0099970Y0094620D01*
X0100454Y0095104D01*
X0100454Y0096071D01*
X0099970Y0096555D01*
X0099486Y0096555D01*
X0098519Y0096071D01*
X0098519Y0097522D01*
X0100454Y0097522D01*
X0107333Y0096880D02*
X0107333Y0094945D01*
X0107817Y0094461D01*
X0108785Y0094461D01*
X0109268Y0094945D01*
X0110280Y0094461D02*
X0112215Y0094461D01*
X0111247Y0094461D02*
X0111247Y0097363D01*
X0110280Y0096396D01*
X0109268Y0096880D02*
X0108785Y0097363D01*
X0107817Y0097363D01*
X0107333Y0096880D01*
X0107383Y0100139D02*
X0109318Y0100139D01*
X0110330Y0100139D02*
X0112265Y0100139D01*
X0111297Y0100139D02*
X0111297Y0103041D01*
X0110330Y0102074D01*
X0107383Y0103041D02*
X0107383Y0100139D01*
X0115417Y0080266D02*
X0115417Y0077847D01*
X0115901Y0077363D01*
X0116869Y0077363D01*
X0117352Y0077847D01*
X0117352Y0080266D01*
X0118364Y0079782D02*
X0118848Y0080266D01*
X0119815Y0080266D01*
X0120299Y0079782D01*
X0120299Y0079298D01*
X0119815Y0078814D01*
X0120299Y0078331D01*
X0120299Y0077847D01*
X0119815Y0077363D01*
X0118848Y0077363D01*
X0118364Y0077847D01*
X0119331Y0078814D02*
X0119815Y0078814D01*
X0114406Y0078622D02*
X0113438Y0078139D01*
X0112471Y0077171D01*
X0113922Y0077171D01*
X0114406Y0076687D01*
X0114406Y0076204D01*
X0113922Y0075720D01*
X0112954Y0075720D01*
X0112471Y0076204D01*
X0112471Y0077171D01*
X0111459Y0077171D02*
X0110975Y0076687D01*
X0109524Y0076687D01*
X0109524Y0075720D02*
X0109524Y0078622D01*
X0110975Y0078622D01*
X0111459Y0078139D01*
X0111459Y0077171D01*
X0110491Y0076687D02*
X0111459Y0075720D01*
X0111534Y0072441D02*
X0110083Y0072441D01*
X0110083Y0069539D01*
X0110083Y0070506D02*
X0111534Y0070506D01*
X0112018Y0070990D01*
X0112018Y0071958D01*
X0111534Y0072441D01*
X0113030Y0071958D02*
X0113030Y0071474D01*
X0113513Y0070990D01*
X0114481Y0070990D01*
X0114965Y0070506D01*
X0114965Y0070023D01*
X0114481Y0069539D01*
X0113513Y0069539D01*
X0113030Y0070023D01*
X0113030Y0070506D01*
X0113513Y0070990D01*
X0114481Y0070990D02*
X0114965Y0071474D01*
X0114965Y0071958D01*
X0114481Y0072441D01*
X0113513Y0072441D01*
X0113030Y0071958D01*
X0111051Y0070506D02*
X0112018Y0069539D01*
X0116771Y0070053D02*
X0116771Y0067151D01*
X0116771Y0068118D02*
X0118222Y0068118D01*
X0118706Y0068602D01*
X0118706Y0069569D01*
X0118222Y0070053D01*
X0116771Y0070053D01*
X0117739Y0068118D02*
X0118706Y0067151D01*
X0119718Y0067151D02*
X0119718Y0067634D01*
X0121653Y0069569D01*
X0121653Y0070053D01*
X0119718Y0070053D01*
X0127439Y0073293D02*
X0127923Y0072810D01*
X0128890Y0072810D01*
X0129374Y0073293D01*
X0129374Y0075228D01*
X0128890Y0075712D01*
X0127923Y0075712D01*
X0127439Y0075228D01*
X0127439Y0073293D01*
X0128406Y0073777D02*
X0129374Y0072810D01*
X0130385Y0072810D02*
X0132320Y0072810D01*
X0131353Y0072810D02*
X0131353Y0075712D01*
X0130385Y0074745D01*
X0130543Y0085134D02*
X0130543Y0088037D01*
X0131510Y0088037D02*
X0129575Y0088037D01*
X0132522Y0088037D02*
X0132522Y0085134D01*
X0132522Y0086585D02*
X0134457Y0086585D01*
X0135468Y0086102D02*
X0136919Y0086102D01*
X0137403Y0086585D01*
X0137403Y0087553D01*
X0136919Y0088037D01*
X0135468Y0088037D01*
X0135468Y0085134D01*
X0134457Y0085134D02*
X0134457Y0088037D01*
X0136436Y0086102D02*
X0137403Y0085134D01*
X0138415Y0085134D02*
X0138415Y0088037D01*
X0139382Y0087069D01*
X0140350Y0088037D01*
X0140350Y0085134D01*
X0152891Y0048207D02*
X0152891Y0045305D01*
X0154826Y0045305D01*
X0155837Y0045305D02*
X0155837Y0048207D01*
X0157772Y0045305D01*
X0157772Y0048207D01*
X0158784Y0048207D02*
X0160235Y0048207D01*
X0160719Y0047724D01*
X0160719Y0045789D01*
X0160235Y0045305D01*
X0158784Y0045305D01*
X0158784Y0048207D01*
X0161730Y0047724D02*
X0161730Y0047240D01*
X0162214Y0046756D01*
X0163182Y0046756D01*
X0163665Y0046272D01*
X0163665Y0045789D01*
X0163182Y0045305D01*
X0162214Y0045305D01*
X0161730Y0045789D01*
X0161730Y0047724D02*
X0162214Y0048207D01*
X0163182Y0048207D01*
X0163665Y0047724D01*
X0164677Y0048207D02*
X0166612Y0048207D01*
X0165645Y0048207D02*
X0165645Y0045305D01*
X0167624Y0045789D02*
X0167624Y0047724D01*
X0168107Y0048207D01*
X0169075Y0048207D01*
X0169559Y0047724D01*
X0169559Y0045789D01*
X0169075Y0045305D01*
X0168107Y0045305D01*
X0167624Y0045789D01*
X0170570Y0046272D02*
X0172021Y0046272D01*
X0172505Y0046756D01*
X0172505Y0047724D01*
X0172021Y0048207D01*
X0170570Y0048207D01*
X0170570Y0045305D01*
X0154826Y0048207D02*
X0152891Y0048207D01*
X0152891Y0046756D02*
X0153858Y0046756D01*
X0137834Y0045763D02*
X0137350Y0046247D01*
X0136383Y0046247D01*
X0135899Y0045763D01*
X0134887Y0045763D02*
X0134404Y0046247D01*
X0133436Y0046247D01*
X0132952Y0045763D01*
X0132952Y0043828D01*
X0133436Y0043344D01*
X0134404Y0043344D01*
X0134887Y0043828D01*
X0135899Y0043344D02*
X0137834Y0045279D01*
X0137834Y0045763D01*
X0137834Y0043344D02*
X0135899Y0043344D01*
X0128733Y0044305D02*
X0128733Y0044788D01*
X0128250Y0045272D01*
X0127282Y0045272D01*
X0126798Y0044788D01*
X0125787Y0045272D02*
X0125787Y0042853D01*
X0125303Y0042370D01*
X0124336Y0042370D01*
X0123852Y0042853D01*
X0123852Y0045272D01*
X0126798Y0042370D02*
X0128733Y0044305D01*
X0128733Y0042370D02*
X0126798Y0042370D01*
X0118215Y0042145D02*
X0117731Y0041661D01*
X0116764Y0041661D01*
X0116280Y0042145D01*
X0115268Y0042145D02*
X0114785Y0041661D01*
X0113817Y0041661D01*
X0113333Y0042145D01*
X0113333Y0044080D01*
X0113817Y0044563D01*
X0114785Y0044563D01*
X0115268Y0044080D01*
X0116280Y0044080D02*
X0116764Y0044563D01*
X0117731Y0044563D01*
X0118215Y0044080D01*
X0118215Y0043596D01*
X0117731Y0043112D01*
X0118215Y0042628D01*
X0118215Y0042145D01*
X0117731Y0043112D02*
X0117247Y0043112D01*
X0099698Y0058631D02*
X0097763Y0058631D01*
X0099698Y0060566D01*
X0099698Y0061050D01*
X0099215Y0061533D01*
X0098247Y0061533D01*
X0097763Y0061050D01*
X0096752Y0061050D02*
X0096752Y0059115D01*
X0096268Y0058631D01*
X0095301Y0058631D01*
X0094817Y0059115D01*
X0094817Y0061050D01*
X0095301Y0061533D01*
X0096268Y0061533D01*
X0096752Y0061050D01*
X0095784Y0059598D02*
X0096752Y0058631D01*
X0094045Y0059880D02*
X0092110Y0059880D01*
X0093077Y0059880D02*
X0093077Y0062782D01*
X0092110Y0061815D01*
X0091098Y0062299D02*
X0091098Y0060364D01*
X0090615Y0059880D01*
X0089163Y0059880D01*
X0089163Y0062782D01*
X0090615Y0062782D01*
X0091098Y0062299D01*
X0090305Y0051276D02*
X0090305Y0048373D01*
X0091272Y0048373D02*
X0089337Y0048373D01*
X0088326Y0048373D02*
X0087358Y0049341D01*
X0087842Y0049341D02*
X0086391Y0049341D01*
X0086391Y0048373D02*
X0086391Y0051276D01*
X0087842Y0051276D01*
X0088326Y0050792D01*
X0088326Y0049825D01*
X0087842Y0049341D01*
X0089337Y0050308D02*
X0090305Y0051276D01*
X0078585Y0050826D02*
X0078585Y0047924D01*
X0076650Y0050826D01*
X0076650Y0047924D01*
X0075639Y0047924D02*
X0075639Y0049859D01*
X0074671Y0050826D01*
X0073704Y0049859D01*
X0073704Y0047924D01*
X0073704Y0049375D02*
X0075639Y0049375D01*
X0072692Y0050826D02*
X0070757Y0050826D01*
X0070757Y0047924D01*
X0069746Y0048408D02*
X0069262Y0047924D01*
X0068294Y0047924D01*
X0067811Y0048408D01*
X0067811Y0050343D01*
X0068294Y0050826D01*
X0069262Y0050826D01*
X0069746Y0050343D01*
X0070757Y0049375D02*
X0071725Y0049375D01*
X0094883Y0075102D02*
X0094883Y0078004D01*
X0096334Y0077037D02*
X0094883Y0076069D01*
X0096334Y0075102D01*
X0081739Y0077893D02*
X0079804Y0077893D01*
X0081739Y0079828D01*
X0081739Y0080312D01*
X0081255Y0080796D01*
X0080287Y0080796D01*
X0079804Y0080312D01*
X0078792Y0080312D02*
X0078792Y0079344D01*
X0078308Y0078861D01*
X0076857Y0078861D01*
X0077825Y0078861D02*
X0078792Y0077893D01*
X0076857Y0077893D02*
X0076857Y0080796D01*
X0078308Y0080796D01*
X0078792Y0080312D01*
X0078792Y0086704D02*
X0077825Y0087672D01*
X0078308Y0087672D02*
X0076857Y0087672D01*
X0076857Y0086704D02*
X0076857Y0089607D01*
X0078308Y0089607D01*
X0078792Y0089123D01*
X0078792Y0088155D01*
X0078308Y0087672D01*
X0079804Y0088155D02*
X0081739Y0088155D01*
X0081255Y0086704D02*
X0081255Y0089607D01*
X0079804Y0088155D01*
X0080487Y0096161D02*
X0080004Y0096645D01*
X0080487Y0096161D02*
X0081455Y0096161D01*
X0081939Y0096645D01*
X0081939Y0097128D01*
X0081455Y0097612D01*
X0080971Y0097612D01*
X0081455Y0097612D02*
X0081939Y0098096D01*
X0081939Y0098580D01*
X0081455Y0099063D01*
X0080487Y0099063D01*
X0080004Y0098580D01*
X0078992Y0098580D02*
X0078992Y0097612D01*
X0078508Y0097128D01*
X0077057Y0097128D01*
X0077057Y0096161D02*
X0077057Y0099063D01*
X0078508Y0099063D01*
X0078992Y0098580D01*
X0078025Y0097128D02*
X0078992Y0096161D01*
X0126231Y0130639D02*
X0126231Y0133541D01*
X0126231Y0132090D02*
X0128166Y0132090D01*
X0129178Y0131123D02*
X0129661Y0130639D01*
X0130629Y0130639D01*
X0131113Y0131123D01*
X0131113Y0133058D01*
X0130629Y0133541D01*
X0129661Y0133541D01*
X0129178Y0133058D01*
X0129178Y0131123D01*
X0128166Y0130639D02*
X0128166Y0133541D01*
X0132124Y0133541D02*
X0134059Y0133541D01*
X0133092Y0133541D02*
X0133092Y0130639D01*
X0135071Y0130639D02*
X0135071Y0133541D01*
X0137006Y0133541D01*
X0138017Y0133541D02*
X0138017Y0130639D01*
X0137006Y0130639D02*
X0135071Y0130639D01*
X0135071Y0132090D02*
X0136038Y0132090D01*
X0138017Y0133541D02*
X0139952Y0130639D01*
X0139952Y0133541D01*
X0140964Y0133541D02*
X0142415Y0133541D01*
X0142899Y0133058D01*
X0142899Y0131123D01*
X0142415Y0130639D01*
X0140964Y0130639D01*
X0140964Y0133541D01*
D12*
X0127733Y0107837D02*
X0127733Y0085637D01*
X0129533Y0083837D01*
X0140933Y0083837D01*
D13*
X0095561Y0115029D02*
X0095564Y0115295D01*
X0095574Y0115560D01*
X0095590Y0115825D01*
X0095613Y0116090D01*
X0095642Y0116354D01*
X0095678Y0116618D01*
X0095720Y0116880D01*
X0095769Y0117141D01*
X0095824Y0117401D01*
X0095885Y0117660D01*
X0095953Y0117917D01*
X0096027Y0118172D01*
X0096107Y0118425D01*
X0096194Y0118677D01*
X0096286Y0118926D01*
X0096385Y0119172D01*
X0096490Y0119417D01*
X0096601Y0119658D01*
X0096717Y0119897D01*
X0096839Y0120133D01*
X0096968Y0120366D01*
X0097101Y0120595D01*
X0097241Y0120821D01*
X0097386Y0121044D01*
X0097536Y0121263D01*
X0097692Y0121479D01*
X0097853Y0121690D01*
X0098019Y0121898D01*
X0098190Y0122101D01*
X0098366Y0122300D01*
X0098547Y0122495D01*
X0098732Y0122685D01*
X0098922Y0122870D01*
X0099117Y0123051D01*
X0099316Y0123227D01*
X0099519Y0123398D01*
X0099727Y0123564D01*
X0099938Y0123725D01*
X0100154Y0123881D01*
X0100373Y0124031D01*
X0100596Y0124176D01*
X0100822Y0124316D01*
X0101051Y0124449D01*
X0101284Y0124578D01*
X0101520Y0124700D01*
X0101759Y0124816D01*
X0102000Y0124927D01*
X0102245Y0125032D01*
X0102491Y0125131D01*
X0102740Y0125223D01*
X0102992Y0125310D01*
X0103245Y0125390D01*
X0103500Y0125464D01*
X0103757Y0125532D01*
X0104016Y0125593D01*
X0104276Y0125648D01*
X0104537Y0125697D01*
X0104799Y0125739D01*
X0105063Y0125775D01*
X0105327Y0125804D01*
X0105592Y0125827D01*
X0105857Y0125843D01*
X0106122Y0125853D01*
X0106388Y0125856D01*
X0106654Y0125853D01*
X0106919Y0125843D01*
X0107184Y0125827D01*
X0107449Y0125804D01*
X0107713Y0125775D01*
X0107977Y0125739D01*
X0108239Y0125697D01*
X0108500Y0125648D01*
X0108760Y0125593D01*
X0109019Y0125532D01*
X0109276Y0125464D01*
X0109531Y0125390D01*
X0109784Y0125310D01*
X0110036Y0125223D01*
X0110285Y0125131D01*
X0110531Y0125032D01*
X0110776Y0124927D01*
X0111017Y0124816D01*
X0111256Y0124700D01*
X0111492Y0124578D01*
X0111725Y0124449D01*
X0111954Y0124316D01*
X0112180Y0124176D01*
X0112403Y0124031D01*
X0112622Y0123881D01*
X0112838Y0123725D01*
X0113049Y0123564D01*
X0113257Y0123398D01*
X0113460Y0123227D01*
X0113659Y0123051D01*
X0113854Y0122870D01*
X0114044Y0122685D01*
X0114229Y0122495D01*
X0114410Y0122300D01*
X0114586Y0122101D01*
X0114757Y0121898D01*
X0114923Y0121690D01*
X0115084Y0121479D01*
X0115240Y0121263D01*
X0115390Y0121044D01*
X0115535Y0120821D01*
X0115675Y0120595D01*
X0115808Y0120366D01*
X0115937Y0120133D01*
X0116059Y0119897D01*
X0116175Y0119658D01*
X0116286Y0119417D01*
X0116391Y0119172D01*
X0116490Y0118926D01*
X0116582Y0118677D01*
X0116669Y0118425D01*
X0116749Y0118172D01*
X0116823Y0117917D01*
X0116891Y0117660D01*
X0116952Y0117401D01*
X0117007Y0117141D01*
X0117056Y0116880D01*
X0117098Y0116618D01*
X0117134Y0116354D01*
X0117163Y0116090D01*
X0117186Y0115825D01*
X0117202Y0115560D01*
X0117212Y0115295D01*
X0117215Y0115029D01*
X0117212Y0114763D01*
X0117202Y0114498D01*
X0117186Y0114233D01*
X0117163Y0113968D01*
X0117134Y0113704D01*
X0117098Y0113440D01*
X0117056Y0113178D01*
X0117007Y0112917D01*
X0116952Y0112657D01*
X0116891Y0112398D01*
X0116823Y0112141D01*
X0116749Y0111886D01*
X0116669Y0111633D01*
X0116582Y0111381D01*
X0116490Y0111132D01*
X0116391Y0110886D01*
X0116286Y0110641D01*
X0116175Y0110400D01*
X0116059Y0110161D01*
X0115937Y0109925D01*
X0115808Y0109692D01*
X0115675Y0109463D01*
X0115535Y0109237D01*
X0115390Y0109014D01*
X0115240Y0108795D01*
X0115084Y0108579D01*
X0114923Y0108368D01*
X0114757Y0108160D01*
X0114586Y0107957D01*
X0114410Y0107758D01*
X0114229Y0107563D01*
X0114044Y0107373D01*
X0113854Y0107188D01*
X0113659Y0107007D01*
X0113460Y0106831D01*
X0113257Y0106660D01*
X0113049Y0106494D01*
X0112838Y0106333D01*
X0112622Y0106177D01*
X0112403Y0106027D01*
X0112180Y0105882D01*
X0111954Y0105742D01*
X0111725Y0105609D01*
X0111492Y0105480D01*
X0111256Y0105358D01*
X0111017Y0105242D01*
X0110776Y0105131D01*
X0110531Y0105026D01*
X0110285Y0104927D01*
X0110036Y0104835D01*
X0109784Y0104748D01*
X0109531Y0104668D01*
X0109276Y0104594D01*
X0109019Y0104526D01*
X0108760Y0104465D01*
X0108500Y0104410D01*
X0108239Y0104361D01*
X0107977Y0104319D01*
X0107713Y0104283D01*
X0107449Y0104254D01*
X0107184Y0104231D01*
X0106919Y0104215D01*
X0106654Y0104205D01*
X0106388Y0104202D01*
X0106122Y0104205D01*
X0105857Y0104215D01*
X0105592Y0104231D01*
X0105327Y0104254D01*
X0105063Y0104283D01*
X0104799Y0104319D01*
X0104537Y0104361D01*
X0104276Y0104410D01*
X0104016Y0104465D01*
X0103757Y0104526D01*
X0103500Y0104594D01*
X0103245Y0104668D01*
X0102992Y0104748D01*
X0102740Y0104835D01*
X0102491Y0104927D01*
X0102245Y0105026D01*
X0102000Y0105131D01*
X0101759Y0105242D01*
X0101520Y0105358D01*
X0101284Y0105480D01*
X0101051Y0105609D01*
X0100822Y0105742D01*
X0100596Y0105882D01*
X0100373Y0106027D01*
X0100154Y0106177D01*
X0099938Y0106333D01*
X0099727Y0106494D01*
X0099519Y0106660D01*
X0099316Y0106831D01*
X0099117Y0107007D01*
X0098922Y0107188D01*
X0098732Y0107373D01*
X0098547Y0107563D01*
X0098366Y0107758D01*
X0098190Y0107957D01*
X0098019Y0108160D01*
X0097853Y0108368D01*
X0097692Y0108579D01*
X0097536Y0108795D01*
X0097386Y0109014D01*
X0097241Y0109237D01*
X0097101Y0109463D01*
X0096968Y0109692D01*
X0096839Y0109925D01*
X0096717Y0110161D01*
X0096601Y0110400D01*
X0096490Y0110641D01*
X0096385Y0110886D01*
X0096286Y0111132D01*
X0096194Y0111381D01*
X0096107Y0111633D01*
X0096027Y0111886D01*
X0095953Y0112141D01*
X0095885Y0112398D01*
X0095824Y0112657D01*
X0095769Y0112917D01*
X0095720Y0113178D01*
X0095678Y0113440D01*
X0095642Y0113704D01*
X0095613Y0113968D01*
X0095590Y0114233D01*
X0095574Y0114498D01*
X0095564Y0114763D01*
X0095561Y0115029D01*
X0048317Y0136683D02*
X0048320Y0136949D01*
X0048330Y0137214D01*
X0048346Y0137479D01*
X0048369Y0137744D01*
X0048398Y0138008D01*
X0048434Y0138272D01*
X0048476Y0138534D01*
X0048525Y0138795D01*
X0048580Y0139055D01*
X0048641Y0139314D01*
X0048709Y0139571D01*
X0048783Y0139826D01*
X0048863Y0140079D01*
X0048950Y0140331D01*
X0049042Y0140580D01*
X0049141Y0140826D01*
X0049246Y0141071D01*
X0049357Y0141312D01*
X0049473Y0141551D01*
X0049595Y0141787D01*
X0049724Y0142020D01*
X0049857Y0142249D01*
X0049997Y0142475D01*
X0050142Y0142698D01*
X0050292Y0142917D01*
X0050448Y0143133D01*
X0050609Y0143344D01*
X0050775Y0143552D01*
X0050946Y0143755D01*
X0051122Y0143954D01*
X0051303Y0144149D01*
X0051488Y0144339D01*
X0051678Y0144524D01*
X0051873Y0144705D01*
X0052072Y0144881D01*
X0052275Y0145052D01*
X0052483Y0145218D01*
X0052694Y0145379D01*
X0052910Y0145535D01*
X0053129Y0145685D01*
X0053352Y0145830D01*
X0053578Y0145970D01*
X0053807Y0146103D01*
X0054040Y0146232D01*
X0054276Y0146354D01*
X0054515Y0146470D01*
X0054756Y0146581D01*
X0055001Y0146686D01*
X0055247Y0146785D01*
X0055496Y0146877D01*
X0055748Y0146964D01*
X0056001Y0147044D01*
X0056256Y0147118D01*
X0056513Y0147186D01*
X0056772Y0147247D01*
X0057032Y0147302D01*
X0057293Y0147351D01*
X0057555Y0147393D01*
X0057819Y0147429D01*
X0058083Y0147458D01*
X0058348Y0147481D01*
X0058613Y0147497D01*
X0058878Y0147507D01*
X0059144Y0147510D01*
X0059410Y0147507D01*
X0059675Y0147497D01*
X0059940Y0147481D01*
X0060205Y0147458D01*
X0060469Y0147429D01*
X0060733Y0147393D01*
X0060995Y0147351D01*
X0061256Y0147302D01*
X0061516Y0147247D01*
X0061775Y0147186D01*
X0062032Y0147118D01*
X0062287Y0147044D01*
X0062540Y0146964D01*
X0062792Y0146877D01*
X0063041Y0146785D01*
X0063287Y0146686D01*
X0063532Y0146581D01*
X0063773Y0146470D01*
X0064012Y0146354D01*
X0064248Y0146232D01*
X0064481Y0146103D01*
X0064710Y0145970D01*
X0064936Y0145830D01*
X0065159Y0145685D01*
X0065378Y0145535D01*
X0065594Y0145379D01*
X0065805Y0145218D01*
X0066013Y0145052D01*
X0066216Y0144881D01*
X0066415Y0144705D01*
X0066610Y0144524D01*
X0066800Y0144339D01*
X0066985Y0144149D01*
X0067166Y0143954D01*
X0067342Y0143755D01*
X0067513Y0143552D01*
X0067679Y0143344D01*
X0067840Y0143133D01*
X0067996Y0142917D01*
X0068146Y0142698D01*
X0068291Y0142475D01*
X0068431Y0142249D01*
X0068564Y0142020D01*
X0068693Y0141787D01*
X0068815Y0141551D01*
X0068931Y0141312D01*
X0069042Y0141071D01*
X0069147Y0140826D01*
X0069246Y0140580D01*
X0069338Y0140331D01*
X0069425Y0140079D01*
X0069505Y0139826D01*
X0069579Y0139571D01*
X0069647Y0139314D01*
X0069708Y0139055D01*
X0069763Y0138795D01*
X0069812Y0138534D01*
X0069854Y0138272D01*
X0069890Y0138008D01*
X0069919Y0137744D01*
X0069942Y0137479D01*
X0069958Y0137214D01*
X0069968Y0136949D01*
X0069971Y0136683D01*
X0069968Y0136417D01*
X0069958Y0136152D01*
X0069942Y0135887D01*
X0069919Y0135622D01*
X0069890Y0135358D01*
X0069854Y0135094D01*
X0069812Y0134832D01*
X0069763Y0134571D01*
X0069708Y0134311D01*
X0069647Y0134052D01*
X0069579Y0133795D01*
X0069505Y0133540D01*
X0069425Y0133287D01*
X0069338Y0133035D01*
X0069246Y0132786D01*
X0069147Y0132540D01*
X0069042Y0132295D01*
X0068931Y0132054D01*
X0068815Y0131815D01*
X0068693Y0131579D01*
X0068564Y0131346D01*
X0068431Y0131117D01*
X0068291Y0130891D01*
X0068146Y0130668D01*
X0067996Y0130449D01*
X0067840Y0130233D01*
X0067679Y0130022D01*
X0067513Y0129814D01*
X0067342Y0129611D01*
X0067166Y0129412D01*
X0066985Y0129217D01*
X0066800Y0129027D01*
X0066610Y0128842D01*
X0066415Y0128661D01*
X0066216Y0128485D01*
X0066013Y0128314D01*
X0065805Y0128148D01*
X0065594Y0127987D01*
X0065378Y0127831D01*
X0065159Y0127681D01*
X0064936Y0127536D01*
X0064710Y0127396D01*
X0064481Y0127263D01*
X0064248Y0127134D01*
X0064012Y0127012D01*
X0063773Y0126896D01*
X0063532Y0126785D01*
X0063287Y0126680D01*
X0063041Y0126581D01*
X0062792Y0126489D01*
X0062540Y0126402D01*
X0062287Y0126322D01*
X0062032Y0126248D01*
X0061775Y0126180D01*
X0061516Y0126119D01*
X0061256Y0126064D01*
X0060995Y0126015D01*
X0060733Y0125973D01*
X0060469Y0125937D01*
X0060205Y0125908D01*
X0059940Y0125885D01*
X0059675Y0125869D01*
X0059410Y0125859D01*
X0059144Y0125856D01*
X0058878Y0125859D01*
X0058613Y0125869D01*
X0058348Y0125885D01*
X0058083Y0125908D01*
X0057819Y0125937D01*
X0057555Y0125973D01*
X0057293Y0126015D01*
X0057032Y0126064D01*
X0056772Y0126119D01*
X0056513Y0126180D01*
X0056256Y0126248D01*
X0056001Y0126322D01*
X0055748Y0126402D01*
X0055496Y0126489D01*
X0055247Y0126581D01*
X0055001Y0126680D01*
X0054756Y0126785D01*
X0054515Y0126896D01*
X0054276Y0127012D01*
X0054040Y0127134D01*
X0053807Y0127263D01*
X0053578Y0127396D01*
X0053352Y0127536D01*
X0053129Y0127681D01*
X0052910Y0127831D01*
X0052694Y0127987D01*
X0052483Y0128148D01*
X0052275Y0128314D01*
X0052072Y0128485D01*
X0051873Y0128661D01*
X0051678Y0128842D01*
X0051488Y0129027D01*
X0051303Y0129217D01*
X0051122Y0129412D01*
X0050946Y0129611D01*
X0050775Y0129814D01*
X0050609Y0130022D01*
X0050448Y0130233D01*
X0050292Y0130449D01*
X0050142Y0130668D01*
X0049997Y0130891D01*
X0049857Y0131117D01*
X0049724Y0131346D01*
X0049595Y0131579D01*
X0049473Y0131815D01*
X0049357Y0132054D01*
X0049246Y0132295D01*
X0049141Y0132540D01*
X0049042Y0132786D01*
X0048950Y0133035D01*
X0048863Y0133287D01*
X0048783Y0133540D01*
X0048709Y0133795D01*
X0048641Y0134052D01*
X0048580Y0134311D01*
X0048525Y0134571D01*
X0048476Y0134832D01*
X0048434Y0135094D01*
X0048398Y0135358D01*
X0048369Y0135622D01*
X0048346Y0135887D01*
X0048330Y0136152D01*
X0048320Y0136417D01*
X0048317Y0136683D01*
D14*
X0051480Y0077311D02*
X0051480Y0061563D01*
X0067228Y0053689D02*
X0081007Y0053689D01*
X0081007Y0056838D01*
X0071165Y0056838D01*
X0071165Y0061563D01*
X0071165Y0077311D02*
X0071165Y0082035D01*
X0081007Y0082035D01*
X0081007Y0085185D01*
X0067228Y0085185D01*
X0067228Y0090889D02*
X0081007Y0090889D01*
X0081007Y0094038D01*
X0071165Y0094038D01*
X0071165Y0098763D01*
X0071165Y0114511D02*
X0071165Y0119235D01*
X0081007Y0119235D01*
X0081007Y0122385D01*
X0067228Y0122385D01*
X0051480Y0114511D02*
X0051480Y0098763D01*
X0101157Y0067374D02*
X0105487Y0067374D01*
X0105487Y0059500D02*
X0101157Y0059500D01*
X0120602Y0052678D02*
X0120602Y0049528D01*
X0122965Y0049528D01*
X0129264Y0049528D02*
X0131626Y0049528D01*
X0131626Y0052678D01*
X0141594Y0053831D02*
X0141594Y0050681D01*
X0155374Y0050681D01*
X0151437Y0053831D02*
X0141594Y0053831D01*
X0151437Y0053831D02*
X0151437Y0058555D01*
X0151437Y0074303D02*
X0151437Y0079027D01*
X0141594Y0079027D01*
X0141594Y0082177D01*
X0155374Y0082177D01*
X0171122Y0074303D02*
X0171122Y0058555D01*
X0119445Y0081440D02*
X0108421Y0081440D01*
X0108421Y0092464D01*
X0119445Y0092464D01*
X0119445Y0081440D01*
D15*
X0161428Y0084911D02*
X0171939Y0084911D01*
X0171939Y0133533D01*
X0171743Y0133533D02*
X0161506Y0133533D01*
X0167691Y0168397D02*
X0167691Y0172727D01*
X0061391Y0172727D01*
X0061391Y0168397D01*
X0167691Y0168397D01*
D16*
X0109996Y0090889D03*
M02*
