%
M48
M72
T01C0.0138
T02C0.0140
T03C0.0160
T04C0.0276
T05C0.1378
%
T01
X6053Y7210
X6293Y7450
X6533Y7210
X7347Y8264
X7347Y8684
X7347Y9104
X7347Y9524
X7227Y12464
X7647Y12464
X8007Y12464
X8367Y12464
X7107Y14504
X7347Y15824
X7047Y16431
X7887Y16424
X8727Y15884
X9447Y16244
X10407Y16244
X11367Y16244
X12327Y16244
X13347Y16244
X13253Y15610
X13433Y15310
X13613Y15610
X14247Y15404
X14847Y15704
X14367Y16244
X15687Y14744
X16227Y14744
X15567Y12404
X15207Y12044
X14847Y11684
X14547Y11384
X15207Y10364
X15687Y10844
X16167Y11324
X16647Y11804
X14727Y9884
X13287Y8624
X13107Y8264
X12807Y7964
X12387Y7904
X11187Y7124
X11093Y7709
X11213Y9149
X11127Y9584
X11667Y9164
X12653Y10649
X13767Y7484
X14367Y7484
X14967Y7484
X14693Y5669
X14333Y5669
X13973Y5669
X14153Y5249
X14513Y5249
X13047Y4784
X13047Y4424
X12627Y4424
X12207Y4424
X12207Y4784
X6147Y16431
T02
X11753Y15389
X15173Y15449
X11633Y8249
X8753Y6089
T03
X5453Y7589
X6653Y10949
X9473Y13210
X9713Y13510
X9953Y13210
X10133Y13510
X10373Y13210
X10313Y13870
X9893Y13870
X9473Y13870
X7793Y15389
X12053Y12850
X12353Y12610
X12053Y12310
X12413Y12130
X12413Y11710
X12053Y11890
X12053Y11470
X13553Y9130
X15593Y6209
T04
X9173Y10229
T05
X10639Y11503
X5914Y13668
M30
