%
M48
M72
T01C0.0138
T02C0.0140
T03C0.0160
T04C0.0276
T05C0.0315
T06C0.0400
T07C0.0551
T08C0.1378
%
T01
X11871Y9443
X12111Y9203
X12311Y8973
X14371Y10253
X14311Y10543
X14691Y10133
X14931Y10763
X15231Y10763
X15531Y10763
X12981Y12353
X12891Y12683
X12621Y12003
X13971Y14243
X13721Y14433
X13971Y14603
X15161Y14613
X15161Y14303
X15441Y14453
X15831Y14663
X15831Y15023
X14631Y17063
X14391Y17303
X14091Y17303
X13851Y17063
X13311Y16223
X13011Y16043
X13011Y16403
X19311Y12623
X16491Y8363
X16491Y8063
X16791Y8183
T02
X15771Y9043
X15411Y8923
X15051Y8923
X14691Y9023
X14031Y9043
X13551Y9043
X13071Y9043
X11691Y9043
X11331Y9343
X10971Y9703
X10671Y10183
X10311Y10543
X9891Y9583
X10311Y9163
X10731Y8743
X11151Y8263
X7851Y12103
X7851Y12643
X7851Y13063
X7851Y13423
X7851Y13903
X7851Y14383
X7431Y14923
X7431Y15343
X7431Y15703
X7251Y16843
X8091Y16843
X8091Y18043
X7251Y18043
X10371Y17023
X10731Y16603
X11091Y17023
X11091Y16183
X10371Y16183
X12831Y17903
X13791Y18203
X13791Y18563
X14691Y18563
X14691Y18143
X15771Y17563
X16191Y17563
X16011Y17923
X17211Y18763
X17691Y18763
X17691Y18283
X18231Y16243
X18771Y16163
X18771Y15803
X18771Y15383
X18771Y14963
X18771Y14543
X19191Y14543
X19191Y14963
X19191Y15383
X19191Y15803
X19191Y16163
X21051Y16123
X21051Y15763
X21051Y15343
X21051Y14923
X21591Y14923
X21591Y15343
X21591Y15763
X19491Y14123
X19491Y13403
X20751Y13163
X20751Y13883
X20931Y11903
X20931Y11543
X20931Y11183
X20931Y10823
X22071Y11003
X22071Y10583
X22071Y11443
X22071Y11843
X19611Y9143
X19251Y9143
X18831Y9143
X18411Y8663
X18901Y8063
X18291Y9623
X17991Y9863
X17451Y9623
X17151Y9923
X16731Y9923
X16371Y9923
X16011Y9923
X16131Y9323
X16491Y9323
X16851Y9323
X16431Y15403
X16071Y15703
X15111Y15743
X14751Y15743
X14391Y15743
X14031Y15743
X21171Y18703
X21531Y18163
X21891Y18703
T03
X16251Y14123
X16251Y13763
X15831Y13763
X15831Y14123
X15831Y13403
X16251Y13403
X14871Y12923
X14871Y12563
X14871Y12203
X14511Y12203
X14151Y12203
X13791Y12203
X13791Y12563
X14151Y12563
X14511Y12563
X14511Y12923
X14151Y12923
X13791Y12923
X13791Y11843
X14151Y11843
X14511Y11843
X14871Y11843
X19011Y13583
X12351Y7883
T04
X8991Y11409
X8991Y12196
X8991Y12983
X8991Y13771
X8991Y14558
X8991Y15358
T05
X9111Y17030
X9111Y17817
T06
X10351Y18503
X11351Y18503
X12351Y18503
X20331Y8243
T07
X18171Y10563
X17201Y10563
X16251Y10563
T08
X8405Y8764
X19370Y18016
M30
