G75*
%MOIN*%
%OFA0B0*%
%FSLAX25Y25*%
%IPPOS*%
%LPD*%
%AMOC8*
5,1,8,0,0,1.08239X$1,22.5*
%
%ADD10C,0.00500*%
%ADD11C,0.00300*%
%ADD12C,0.00400*%
%ADD13C,0.01000*%
%ADD14C,0.00800*%
%ADD15C,0.05568*%
%ADD16C,0.00700*%
%ADD17C,0.00787*%
%ADD18C,0.01969*%
%ADD19R,0.02400X0.06200*%
%ADD20C,0.00600*%
%ADD21C,0.00200*%
D10*
X0072052Y0087644D02*
X0072056Y0087938D01*
X0072066Y0088233D01*
X0072085Y0088527D01*
X0072110Y0088820D01*
X0072142Y0089113D01*
X0072182Y0089405D01*
X0072229Y0089696D01*
X0072283Y0089985D01*
X0072344Y0090273D01*
X0072412Y0090560D01*
X0072487Y0090845D01*
X0072569Y0091127D01*
X0072658Y0091408D01*
X0072753Y0091687D01*
X0072856Y0091963D01*
X0072965Y0092236D01*
X0073081Y0092507D01*
X0073204Y0092775D01*
X0073333Y0093039D01*
X0073469Y0093301D01*
X0073611Y0093559D01*
X0073759Y0093813D01*
X0073914Y0094064D01*
X0074074Y0094311D01*
X0074241Y0094554D01*
X0074414Y0094792D01*
X0074592Y0095027D01*
X0074776Y0095257D01*
X0074965Y0095482D01*
X0075161Y0095703D01*
X0075361Y0095918D01*
X0075567Y0096129D01*
X0075778Y0096335D01*
X0075993Y0096535D01*
X0076214Y0096731D01*
X0076439Y0096920D01*
X0076669Y0097104D01*
X0076904Y0097282D01*
X0077142Y0097455D01*
X0077385Y0097622D01*
X0077632Y0097782D01*
X0077883Y0097937D01*
X0078137Y0098085D01*
X0078395Y0098227D01*
X0078657Y0098363D01*
X0078921Y0098492D01*
X0079189Y0098615D01*
X0079460Y0098731D01*
X0079733Y0098840D01*
X0080009Y0098943D01*
X0080288Y0099038D01*
X0080569Y0099127D01*
X0080851Y0099209D01*
X0081136Y0099284D01*
X0081423Y0099352D01*
X0081711Y0099413D01*
X0082000Y0099467D01*
X0082291Y0099514D01*
X0082583Y0099554D01*
X0082876Y0099586D01*
X0083169Y0099611D01*
X0083463Y0099630D01*
X0083758Y0099640D01*
X0084052Y0099644D01*
X0084346Y0099640D01*
X0084641Y0099630D01*
X0084935Y0099611D01*
X0085228Y0099586D01*
X0085521Y0099554D01*
X0085813Y0099514D01*
X0086104Y0099467D01*
X0086393Y0099413D01*
X0086681Y0099352D01*
X0086968Y0099284D01*
X0087253Y0099209D01*
X0087535Y0099127D01*
X0087816Y0099038D01*
X0088095Y0098943D01*
X0088371Y0098840D01*
X0088644Y0098731D01*
X0088915Y0098615D01*
X0089183Y0098492D01*
X0089447Y0098363D01*
X0089709Y0098227D01*
X0089967Y0098085D01*
X0090221Y0097937D01*
X0090472Y0097782D01*
X0090719Y0097622D01*
X0090962Y0097455D01*
X0091200Y0097282D01*
X0091435Y0097104D01*
X0091665Y0096920D01*
X0091890Y0096731D01*
X0092111Y0096535D01*
X0092326Y0096335D01*
X0092537Y0096129D01*
X0092743Y0095918D01*
X0092943Y0095703D01*
X0093139Y0095482D01*
X0093328Y0095257D01*
X0093512Y0095027D01*
X0093690Y0094792D01*
X0093863Y0094554D01*
X0094030Y0094311D01*
X0094190Y0094064D01*
X0094345Y0093813D01*
X0094493Y0093559D01*
X0094635Y0093301D01*
X0094771Y0093039D01*
X0094900Y0092775D01*
X0095023Y0092507D01*
X0095139Y0092236D01*
X0095248Y0091963D01*
X0095351Y0091687D01*
X0095446Y0091408D01*
X0095535Y0091127D01*
X0095617Y0090845D01*
X0095692Y0090560D01*
X0095760Y0090273D01*
X0095821Y0089985D01*
X0095875Y0089696D01*
X0095922Y0089405D01*
X0095962Y0089113D01*
X0095994Y0088820D01*
X0096019Y0088527D01*
X0096038Y0088233D01*
X0096048Y0087938D01*
X0096052Y0087644D01*
X0096048Y0087350D01*
X0096038Y0087055D01*
X0096019Y0086761D01*
X0095994Y0086468D01*
X0095962Y0086175D01*
X0095922Y0085883D01*
X0095875Y0085592D01*
X0095821Y0085303D01*
X0095760Y0085015D01*
X0095692Y0084728D01*
X0095617Y0084443D01*
X0095535Y0084161D01*
X0095446Y0083880D01*
X0095351Y0083601D01*
X0095248Y0083325D01*
X0095139Y0083052D01*
X0095023Y0082781D01*
X0094900Y0082513D01*
X0094771Y0082249D01*
X0094635Y0081987D01*
X0094493Y0081729D01*
X0094345Y0081475D01*
X0094190Y0081224D01*
X0094030Y0080977D01*
X0093863Y0080734D01*
X0093690Y0080496D01*
X0093512Y0080261D01*
X0093328Y0080031D01*
X0093139Y0079806D01*
X0092943Y0079585D01*
X0092743Y0079370D01*
X0092537Y0079159D01*
X0092326Y0078953D01*
X0092111Y0078753D01*
X0091890Y0078557D01*
X0091665Y0078368D01*
X0091435Y0078184D01*
X0091200Y0078006D01*
X0090962Y0077833D01*
X0090719Y0077666D01*
X0090472Y0077506D01*
X0090221Y0077351D01*
X0089967Y0077203D01*
X0089709Y0077061D01*
X0089447Y0076925D01*
X0089183Y0076796D01*
X0088915Y0076673D01*
X0088644Y0076557D01*
X0088371Y0076448D01*
X0088095Y0076345D01*
X0087816Y0076250D01*
X0087535Y0076161D01*
X0087253Y0076079D01*
X0086968Y0076004D01*
X0086681Y0075936D01*
X0086393Y0075875D01*
X0086104Y0075821D01*
X0085813Y0075774D01*
X0085521Y0075734D01*
X0085228Y0075702D01*
X0084935Y0075677D01*
X0084641Y0075658D01*
X0084346Y0075648D01*
X0084052Y0075644D01*
X0083758Y0075648D01*
X0083463Y0075658D01*
X0083169Y0075677D01*
X0082876Y0075702D01*
X0082583Y0075734D01*
X0082291Y0075774D01*
X0082000Y0075821D01*
X0081711Y0075875D01*
X0081423Y0075936D01*
X0081136Y0076004D01*
X0080851Y0076079D01*
X0080569Y0076161D01*
X0080288Y0076250D01*
X0080009Y0076345D01*
X0079733Y0076448D01*
X0079460Y0076557D01*
X0079189Y0076673D01*
X0078921Y0076796D01*
X0078657Y0076925D01*
X0078395Y0077061D01*
X0078137Y0077203D01*
X0077883Y0077351D01*
X0077632Y0077506D01*
X0077385Y0077666D01*
X0077142Y0077833D01*
X0076904Y0078006D01*
X0076669Y0078184D01*
X0076439Y0078368D01*
X0076214Y0078557D01*
X0075993Y0078753D01*
X0075778Y0078953D01*
X0075567Y0079159D01*
X0075361Y0079370D01*
X0075161Y0079585D01*
X0074965Y0079806D01*
X0074776Y0080031D01*
X0074592Y0080261D01*
X0074414Y0080496D01*
X0074241Y0080734D01*
X0074074Y0080977D01*
X0073914Y0081224D01*
X0073759Y0081475D01*
X0073611Y0081729D01*
X0073469Y0081987D01*
X0073333Y0082249D01*
X0073204Y0082513D01*
X0073081Y0082781D01*
X0072965Y0083052D01*
X0072856Y0083325D01*
X0072753Y0083601D01*
X0072658Y0083880D01*
X0072569Y0084161D01*
X0072487Y0084443D01*
X0072412Y0084728D01*
X0072344Y0085015D01*
X0072283Y0085303D01*
X0072229Y0085592D01*
X0072182Y0085883D01*
X0072142Y0086175D01*
X0072110Y0086468D01*
X0072085Y0086761D01*
X0072066Y0087055D01*
X0072056Y0087350D01*
X0072052Y0087644D01*
X0092294Y0165572D02*
X0092294Y0182501D01*
X0096625Y0182501D01*
X0096625Y0182895D01*
X0077727Y0175414D02*
X0077727Y0173052D01*
X0066310Y0173052D01*
X0066310Y0175414D02*
X0077727Y0175414D01*
X0092294Y0165572D02*
X0096625Y0165572D01*
X0175613Y0139533D02*
X0175613Y0134533D01*
X0186613Y0134533D01*
X0186613Y0139533D01*
X0175613Y0139533D01*
X0207269Y0165693D02*
X0207269Y0101914D01*
X0221049Y0101914D01*
X0221049Y0093646D01*
X0227742Y0093646D01*
X0227787Y0093633D02*
X0227787Y0173933D01*
X0227387Y0173933D01*
X0227348Y0173961D02*
X0221049Y0173961D01*
X0221049Y0165693D01*
X0207269Y0165693D01*
X0181887Y0180221D02*
X0181891Y0180511D01*
X0181901Y0180801D01*
X0181919Y0181090D01*
X0181944Y0181379D01*
X0181976Y0181667D01*
X0182015Y0181954D01*
X0182061Y0182240D01*
X0182114Y0182525D01*
X0182174Y0182809D01*
X0182241Y0183091D01*
X0182315Y0183371D01*
X0182396Y0183650D01*
X0182483Y0183926D01*
X0182577Y0184200D01*
X0182678Y0184472D01*
X0182786Y0184741D01*
X0182900Y0185007D01*
X0183021Y0185271D01*
X0183148Y0185531D01*
X0183282Y0185789D01*
X0183421Y0186043D01*
X0183567Y0186293D01*
X0183719Y0186540D01*
X0183878Y0186783D01*
X0184042Y0187022D01*
X0184211Y0187257D01*
X0184387Y0187488D01*
X0184568Y0187714D01*
X0184755Y0187936D01*
X0184947Y0188153D01*
X0185144Y0188365D01*
X0185346Y0188573D01*
X0185554Y0188775D01*
X0185766Y0188972D01*
X0185983Y0189164D01*
X0186205Y0189351D01*
X0186431Y0189532D01*
X0186662Y0189708D01*
X0186897Y0189877D01*
X0187136Y0190041D01*
X0187379Y0190200D01*
X0187626Y0190352D01*
X0187876Y0190498D01*
X0188130Y0190637D01*
X0188388Y0190771D01*
X0188648Y0190898D01*
X0188912Y0191019D01*
X0189178Y0191133D01*
X0189447Y0191241D01*
X0189719Y0191342D01*
X0189993Y0191436D01*
X0190269Y0191523D01*
X0190548Y0191604D01*
X0190828Y0191678D01*
X0191110Y0191745D01*
X0191394Y0191805D01*
X0191679Y0191858D01*
X0191965Y0191904D01*
X0192252Y0191943D01*
X0192540Y0191975D01*
X0192829Y0192000D01*
X0193118Y0192018D01*
X0193408Y0192028D01*
X0193698Y0192032D01*
X0193988Y0192028D01*
X0194278Y0192018D01*
X0194567Y0192000D01*
X0194856Y0191975D01*
X0195144Y0191943D01*
X0195431Y0191904D01*
X0195717Y0191858D01*
X0196002Y0191805D01*
X0196286Y0191745D01*
X0196568Y0191678D01*
X0196848Y0191604D01*
X0197127Y0191523D01*
X0197403Y0191436D01*
X0197677Y0191342D01*
X0197949Y0191241D01*
X0198218Y0191133D01*
X0198484Y0191019D01*
X0198748Y0190898D01*
X0199008Y0190771D01*
X0199266Y0190637D01*
X0199520Y0190498D01*
X0199770Y0190352D01*
X0200017Y0190200D01*
X0200260Y0190041D01*
X0200499Y0189877D01*
X0200734Y0189708D01*
X0200965Y0189532D01*
X0201191Y0189351D01*
X0201413Y0189164D01*
X0201630Y0188972D01*
X0201842Y0188775D01*
X0202050Y0188573D01*
X0202252Y0188365D01*
X0202449Y0188153D01*
X0202641Y0187936D01*
X0202828Y0187714D01*
X0203009Y0187488D01*
X0203185Y0187257D01*
X0203354Y0187022D01*
X0203518Y0186783D01*
X0203677Y0186540D01*
X0203829Y0186293D01*
X0203975Y0186043D01*
X0204114Y0185789D01*
X0204248Y0185531D01*
X0204375Y0185271D01*
X0204496Y0185007D01*
X0204610Y0184741D01*
X0204718Y0184472D01*
X0204819Y0184200D01*
X0204913Y0183926D01*
X0205000Y0183650D01*
X0205081Y0183371D01*
X0205155Y0183091D01*
X0205222Y0182809D01*
X0205282Y0182525D01*
X0205335Y0182240D01*
X0205381Y0181954D01*
X0205420Y0181667D01*
X0205452Y0181379D01*
X0205477Y0181090D01*
X0205495Y0180801D01*
X0205505Y0180511D01*
X0205509Y0180221D01*
X0205505Y0179931D01*
X0205495Y0179641D01*
X0205477Y0179352D01*
X0205452Y0179063D01*
X0205420Y0178775D01*
X0205381Y0178488D01*
X0205335Y0178202D01*
X0205282Y0177917D01*
X0205222Y0177633D01*
X0205155Y0177351D01*
X0205081Y0177071D01*
X0205000Y0176792D01*
X0204913Y0176516D01*
X0204819Y0176242D01*
X0204718Y0175970D01*
X0204610Y0175701D01*
X0204496Y0175435D01*
X0204375Y0175171D01*
X0204248Y0174911D01*
X0204114Y0174653D01*
X0203975Y0174399D01*
X0203829Y0174149D01*
X0203677Y0173902D01*
X0203518Y0173659D01*
X0203354Y0173420D01*
X0203185Y0173185D01*
X0203009Y0172954D01*
X0202828Y0172728D01*
X0202641Y0172506D01*
X0202449Y0172289D01*
X0202252Y0172077D01*
X0202050Y0171869D01*
X0201842Y0171667D01*
X0201630Y0171470D01*
X0201413Y0171278D01*
X0201191Y0171091D01*
X0200965Y0170910D01*
X0200734Y0170734D01*
X0200499Y0170565D01*
X0200260Y0170401D01*
X0200017Y0170242D01*
X0199770Y0170090D01*
X0199520Y0169944D01*
X0199266Y0169805D01*
X0199008Y0169671D01*
X0198748Y0169544D01*
X0198484Y0169423D01*
X0198218Y0169309D01*
X0197949Y0169201D01*
X0197677Y0169100D01*
X0197403Y0169006D01*
X0197127Y0168919D01*
X0196848Y0168838D01*
X0196568Y0168764D01*
X0196286Y0168697D01*
X0196002Y0168637D01*
X0195717Y0168584D01*
X0195431Y0168538D01*
X0195144Y0168499D01*
X0194856Y0168467D01*
X0194567Y0168442D01*
X0194278Y0168424D01*
X0193988Y0168414D01*
X0193698Y0168410D01*
X0193408Y0168414D01*
X0193118Y0168424D01*
X0192829Y0168442D01*
X0192540Y0168467D01*
X0192252Y0168499D01*
X0191965Y0168538D01*
X0191679Y0168584D01*
X0191394Y0168637D01*
X0191110Y0168697D01*
X0190828Y0168764D01*
X0190548Y0168838D01*
X0190269Y0168919D01*
X0189993Y0169006D01*
X0189719Y0169100D01*
X0189447Y0169201D01*
X0189178Y0169309D01*
X0188912Y0169423D01*
X0188648Y0169544D01*
X0188388Y0169671D01*
X0188130Y0169805D01*
X0187876Y0169944D01*
X0187626Y0170090D01*
X0187379Y0170242D01*
X0187136Y0170401D01*
X0186897Y0170565D01*
X0186662Y0170734D01*
X0186431Y0170910D01*
X0186205Y0171091D01*
X0185983Y0171278D01*
X0185766Y0171470D01*
X0185554Y0171667D01*
X0185346Y0171869D01*
X0185144Y0172077D01*
X0184947Y0172289D01*
X0184755Y0172506D01*
X0184568Y0172728D01*
X0184387Y0172954D01*
X0184211Y0173185D01*
X0184042Y0173420D01*
X0183878Y0173659D01*
X0183719Y0173902D01*
X0183567Y0174149D01*
X0183421Y0174399D01*
X0183282Y0174653D01*
X0183148Y0174911D01*
X0183021Y0175171D01*
X0182900Y0175435D01*
X0182786Y0175701D01*
X0182678Y0175970D01*
X0182577Y0176242D01*
X0182483Y0176516D01*
X0182396Y0176792D01*
X0182315Y0177071D01*
X0182241Y0177351D01*
X0182174Y0177633D01*
X0182114Y0177917D01*
X0182061Y0178202D01*
X0182015Y0178488D01*
X0181976Y0178775D01*
X0181944Y0179063D01*
X0181919Y0179352D01*
X0181901Y0179641D01*
X0181891Y0179931D01*
X0181887Y0180221D01*
X0197792Y0099551D02*
X0197794Y0099656D01*
X0197800Y0099762D01*
X0197810Y0099866D01*
X0197824Y0099971D01*
X0197842Y0100075D01*
X0197863Y0100178D01*
X0197889Y0100280D01*
X0197919Y0100381D01*
X0197952Y0100481D01*
X0197989Y0100580D01*
X0198030Y0100677D01*
X0198074Y0100772D01*
X0198122Y0100866D01*
X0198174Y0100958D01*
X0198229Y0101048D01*
X0198287Y0101136D01*
X0198349Y0101221D01*
X0198414Y0101304D01*
X0198481Y0101385D01*
X0198552Y0101463D01*
X0198626Y0101538D01*
X0198703Y0101610D01*
X0198782Y0101680D01*
X0198864Y0101746D01*
X0198948Y0101809D01*
X0199035Y0101869D01*
X0199124Y0101926D01*
X0199215Y0101979D01*
X0199307Y0102029D01*
X0199402Y0102075D01*
X0199498Y0102118D01*
X0199596Y0102157D01*
X0199696Y0102192D01*
X0199796Y0102224D01*
X0199898Y0102251D01*
X0200001Y0102275D01*
X0200104Y0102295D01*
X0200208Y0102311D01*
X0200313Y0102323D01*
X0200418Y0102331D01*
X0200523Y0102335D01*
X0200629Y0102335D01*
X0200734Y0102331D01*
X0200839Y0102323D01*
X0200944Y0102311D01*
X0201048Y0102295D01*
X0201151Y0102275D01*
X0201254Y0102251D01*
X0201356Y0102224D01*
X0201456Y0102192D01*
X0201556Y0102157D01*
X0201654Y0102118D01*
X0201750Y0102075D01*
X0201845Y0102029D01*
X0201937Y0101979D01*
X0202028Y0101926D01*
X0202117Y0101869D01*
X0202204Y0101809D01*
X0202288Y0101746D01*
X0202370Y0101680D01*
X0202449Y0101610D01*
X0202526Y0101538D01*
X0202600Y0101463D01*
X0202671Y0101385D01*
X0202738Y0101304D01*
X0202803Y0101221D01*
X0202865Y0101136D01*
X0202923Y0101048D01*
X0202978Y0100958D01*
X0203030Y0100866D01*
X0203078Y0100772D01*
X0203122Y0100677D01*
X0203163Y0100580D01*
X0203200Y0100481D01*
X0203233Y0100381D01*
X0203263Y0100280D01*
X0203289Y0100178D01*
X0203310Y0100075D01*
X0203328Y0099971D01*
X0203342Y0099866D01*
X0203352Y0099762D01*
X0203358Y0099656D01*
X0203360Y0099551D01*
X0203358Y0099446D01*
X0203352Y0099340D01*
X0203342Y0099236D01*
X0203328Y0099131D01*
X0203310Y0099027D01*
X0203289Y0098924D01*
X0203263Y0098822D01*
X0203233Y0098721D01*
X0203200Y0098621D01*
X0203163Y0098522D01*
X0203122Y0098425D01*
X0203078Y0098330D01*
X0203030Y0098236D01*
X0202978Y0098144D01*
X0202923Y0098054D01*
X0202865Y0097966D01*
X0202803Y0097881D01*
X0202738Y0097798D01*
X0202671Y0097717D01*
X0202600Y0097639D01*
X0202526Y0097564D01*
X0202449Y0097492D01*
X0202370Y0097422D01*
X0202288Y0097356D01*
X0202204Y0097293D01*
X0202117Y0097233D01*
X0202028Y0097176D01*
X0201937Y0097123D01*
X0201845Y0097073D01*
X0201750Y0097027D01*
X0201654Y0096984D01*
X0201556Y0096945D01*
X0201456Y0096910D01*
X0201356Y0096878D01*
X0201254Y0096851D01*
X0201151Y0096827D01*
X0201048Y0096807D01*
X0200944Y0096791D01*
X0200839Y0096779D01*
X0200734Y0096771D01*
X0200629Y0096767D01*
X0200523Y0096767D01*
X0200418Y0096771D01*
X0200313Y0096779D01*
X0200208Y0096791D01*
X0200104Y0096807D01*
X0200001Y0096827D01*
X0199898Y0096851D01*
X0199796Y0096878D01*
X0199696Y0096910D01*
X0199596Y0096945D01*
X0199498Y0096984D01*
X0199402Y0097027D01*
X0199307Y0097073D01*
X0199215Y0097123D01*
X0199124Y0097176D01*
X0199035Y0097233D01*
X0198948Y0097293D01*
X0198864Y0097356D01*
X0198782Y0097422D01*
X0198703Y0097492D01*
X0198626Y0097564D01*
X0198552Y0097639D01*
X0198481Y0097717D01*
X0198414Y0097798D01*
X0198349Y0097881D01*
X0198287Y0097966D01*
X0198229Y0098054D01*
X0198174Y0098144D01*
X0198122Y0098236D01*
X0198074Y0098330D01*
X0198030Y0098425D01*
X0197989Y0098522D01*
X0197952Y0098621D01*
X0197919Y0098721D01*
X0197889Y0098822D01*
X0197863Y0098924D01*
X0197842Y0099027D01*
X0197824Y0099131D01*
X0197810Y0099236D01*
X0197800Y0099340D01*
X0197794Y0099446D01*
X0197792Y0099551D01*
D11*
X0170146Y0082618D02*
X0167677Y0082618D01*
X0168912Y0083852D02*
X0168912Y0081383D01*
X0168312Y0097583D02*
X0168312Y0100052D01*
X0122714Y0123383D02*
X0121263Y0124351D01*
X0122714Y0125318D01*
X0121263Y0126286D02*
X0121263Y0123383D01*
X0097563Y0127583D02*
X0095628Y0127583D01*
X0094661Y0128551D01*
X0095628Y0129518D01*
X0097563Y0129518D01*
X0097563Y0130530D02*
X0095628Y0132465D01*
X0095145Y0132465D01*
X0094661Y0131981D01*
X0094661Y0131014D01*
X0095145Y0130530D01*
X0096112Y0129518D02*
X0096112Y0127583D01*
X0097563Y0130530D02*
X0097563Y0132465D01*
X0097563Y0135383D02*
X0094661Y0135383D01*
X0094661Y0136835D01*
X0095145Y0137318D01*
X0095628Y0137318D01*
X0096112Y0136835D01*
X0096112Y0135383D01*
X0097563Y0135383D02*
X0097563Y0136835D01*
X0097080Y0137318D01*
X0096596Y0137318D01*
X0096112Y0136835D01*
X0095145Y0138330D02*
X0094661Y0138814D01*
X0094661Y0139781D01*
X0095145Y0140265D01*
X0095628Y0140265D01*
X0097563Y0138330D01*
X0097563Y0140265D01*
X0097563Y0151583D02*
X0094661Y0151583D01*
X0094661Y0153035D01*
X0095145Y0153518D01*
X0095628Y0153518D01*
X0096112Y0153035D01*
X0096112Y0151583D01*
X0097563Y0151583D02*
X0097563Y0153035D01*
X0097080Y0153518D01*
X0096596Y0153518D01*
X0096112Y0153035D01*
X0095628Y0154530D02*
X0094661Y0155497D01*
X0097563Y0155497D01*
X0097563Y0154530D02*
X0097563Y0156465D01*
X0097563Y0116265D02*
X0097563Y0114330D01*
X0097563Y0115297D02*
X0094661Y0115297D01*
X0095628Y0114330D01*
X0095628Y0113318D02*
X0097563Y0113318D01*
X0096112Y0113318D02*
X0096112Y0111383D01*
X0095628Y0111383D02*
X0097563Y0111383D01*
X0095628Y0111383D02*
X0094661Y0112351D01*
X0095628Y0113318D01*
X0165663Y0138983D02*
X0165663Y0141886D01*
X0167114Y0140918D02*
X0165663Y0139951D01*
X0167114Y0138983D01*
X0176487Y0152042D02*
X0175520Y0153009D01*
X0175520Y0154944D01*
X0177455Y0154944D02*
X0177455Y0153009D01*
X0176487Y0152042D01*
X0178466Y0153493D02*
X0180401Y0153493D01*
X0178950Y0154944D01*
X0178950Y0152042D01*
X0181413Y0152042D02*
X0183348Y0152042D01*
X0181413Y0153977D01*
X0181413Y0154460D01*
X0181896Y0154944D01*
X0182864Y0154944D01*
X0183348Y0154460D01*
X0184359Y0153493D02*
X0186294Y0153493D01*
X0185327Y0154460D02*
X0185327Y0152525D01*
D12*
X0175256Y0159688D02*
X0174489Y0158920D01*
X0172954Y0158920D01*
X0172187Y0159688D01*
X0172954Y0161222D02*
X0172187Y0161990D01*
X0172187Y0162757D01*
X0172954Y0163524D01*
X0174489Y0163524D01*
X0175256Y0162757D01*
X0174489Y0161222D02*
X0175256Y0160455D01*
X0175256Y0159688D01*
X0174489Y0161222D02*
X0172954Y0161222D01*
X0170652Y0158920D02*
X0169118Y0158920D01*
X0169885Y0158920D02*
X0169885Y0163524D01*
X0169118Y0163524D02*
X0170652Y0163524D01*
X0167583Y0163524D02*
X0164514Y0158920D01*
X0162979Y0158920D02*
X0162979Y0161990D01*
X0161444Y0163524D01*
X0159910Y0161990D01*
X0159910Y0158920D01*
X0159910Y0161222D02*
X0162979Y0161222D01*
X0164514Y0163524D02*
X0167583Y0158920D01*
X0166048Y0166420D02*
X0169118Y0166420D01*
X0166048Y0166420D02*
X0166048Y0167188D01*
X0169118Y0170257D01*
X0169118Y0171024D01*
X0166048Y0171024D01*
X0159910Y0171024D02*
X0159910Y0170257D01*
X0158375Y0168722D01*
X0158375Y0166420D01*
X0158375Y0168722D02*
X0156840Y0170257D01*
X0156840Y0171024D01*
X0155349Y0164866D02*
X0152199Y0161717D01*
X0155349Y0164866D02*
X0155349Y0187307D01*
X0145703Y0187307D01*
X0139798Y0187307D02*
X0129758Y0187307D01*
X0129758Y0164866D01*
X0132908Y0161717D01*
X0139502Y0162701D02*
X0139214Y0162779D01*
X0138929Y0162863D01*
X0138646Y0162955D01*
X0138365Y0163053D01*
X0138087Y0163158D01*
X0137811Y0163270D01*
X0137538Y0163389D01*
X0137268Y0163514D01*
X0137001Y0163646D01*
X0136738Y0163784D01*
X0136477Y0163929D01*
X0136221Y0164080D01*
X0135968Y0164238D01*
X0135720Y0164401D01*
X0135475Y0164570D01*
X0135234Y0164746D01*
X0134998Y0164927D01*
X0134767Y0165114D01*
X0134540Y0165306D01*
X0134317Y0165504D01*
X0134100Y0165708D01*
X0133888Y0165916D01*
X0133681Y0166130D01*
X0133479Y0166349D01*
X0133282Y0166572D01*
X0133091Y0166801D01*
X0132906Y0167033D01*
X0132726Y0167271D01*
X0132553Y0167513D01*
X0132385Y0167758D01*
X0132223Y0168008D01*
X0132068Y0168262D01*
X0131918Y0168519D01*
X0131775Y0168780D01*
X0131639Y0169045D01*
X0131509Y0169313D01*
X0131385Y0169583D01*
X0131268Y0169857D01*
X0131158Y0170134D01*
X0131055Y0170413D01*
X0130958Y0170694D01*
X0130869Y0170978D01*
X0130786Y0171264D01*
X0130711Y0171552D01*
X0130642Y0171842D01*
X0130581Y0172133D01*
X0130526Y0172426D01*
X0130479Y0172719D01*
X0130439Y0173014D01*
X0130407Y0173310D01*
X0130381Y0173607D01*
X0130363Y0173904D01*
X0130352Y0174201D01*
X0130348Y0174499D01*
X0130352Y0174796D01*
X0130362Y0175094D01*
X0130380Y0175391D01*
X0130406Y0175688D01*
X0130438Y0175983D01*
X0130478Y0176278D01*
X0130525Y0176572D01*
X0130579Y0176865D01*
X0130640Y0177156D01*
X0130709Y0177446D01*
X0130784Y0177734D01*
X0130867Y0178020D01*
X0130956Y0178304D01*
X0131052Y0178585D01*
X0131155Y0178865D01*
X0131265Y0179141D01*
X0131382Y0179415D01*
X0131505Y0179686D01*
X0131635Y0179954D01*
X0131771Y0180218D01*
X0131914Y0180479D01*
X0132063Y0180737D01*
X0132219Y0180991D01*
X0132380Y0181241D01*
X0132548Y0181487D01*
X0132721Y0181729D01*
X0132901Y0181966D01*
X0133086Y0182199D01*
X0133277Y0182428D01*
X0133473Y0182651D01*
X0133675Y0182870D01*
X0133882Y0183084D01*
X0134094Y0183293D01*
X0134311Y0183496D01*
X0134533Y0183694D01*
X0134760Y0183887D01*
X0134992Y0184074D01*
X0135228Y0184255D01*
X0135468Y0184431D01*
X0135713Y0184600D01*
X0135961Y0184764D01*
X0136214Y0184921D01*
X0136470Y0185073D01*
X0136730Y0185218D01*
X0136994Y0185356D01*
X0137260Y0185488D01*
X0137530Y0185614D01*
X0137803Y0185733D01*
X0138079Y0185845D01*
X0138357Y0185950D01*
X0138638Y0186049D01*
X0138921Y0186140D01*
X0139207Y0186225D01*
X0145604Y0186323D02*
X0145892Y0186245D01*
X0146177Y0186161D01*
X0146460Y0186069D01*
X0146741Y0185971D01*
X0147019Y0185866D01*
X0147295Y0185754D01*
X0147568Y0185635D01*
X0147838Y0185510D01*
X0148105Y0185378D01*
X0148368Y0185240D01*
X0148629Y0185095D01*
X0148885Y0184944D01*
X0149138Y0184786D01*
X0149386Y0184623D01*
X0149631Y0184454D01*
X0149872Y0184278D01*
X0150108Y0184097D01*
X0150339Y0183910D01*
X0150566Y0183718D01*
X0150789Y0183520D01*
X0151006Y0183316D01*
X0151218Y0183108D01*
X0151425Y0182894D01*
X0151627Y0182675D01*
X0151824Y0182452D01*
X0152015Y0182223D01*
X0152200Y0181991D01*
X0152380Y0181753D01*
X0152553Y0181511D01*
X0152721Y0181266D01*
X0152883Y0181016D01*
X0153038Y0180762D01*
X0153188Y0180505D01*
X0153331Y0180244D01*
X0153467Y0179979D01*
X0153597Y0179711D01*
X0153721Y0179441D01*
X0153838Y0179167D01*
X0153948Y0178890D01*
X0154051Y0178611D01*
X0154148Y0178330D01*
X0154237Y0178046D01*
X0154320Y0177760D01*
X0154395Y0177472D01*
X0154464Y0177182D01*
X0154525Y0176891D01*
X0154580Y0176598D01*
X0154627Y0176305D01*
X0154667Y0176010D01*
X0154699Y0175714D01*
X0154725Y0175417D01*
X0154743Y0175120D01*
X0154754Y0174823D01*
X0154758Y0174525D01*
X0154754Y0174228D01*
X0154744Y0173930D01*
X0154726Y0173633D01*
X0154700Y0173336D01*
X0154668Y0173041D01*
X0154628Y0172746D01*
X0154581Y0172452D01*
X0154527Y0172159D01*
X0154466Y0171868D01*
X0154397Y0171578D01*
X0154322Y0171290D01*
X0154239Y0171004D01*
X0154150Y0170720D01*
X0154054Y0170439D01*
X0153951Y0170159D01*
X0153841Y0169883D01*
X0153724Y0169609D01*
X0153601Y0169338D01*
X0153471Y0169070D01*
X0153335Y0168806D01*
X0153192Y0168545D01*
X0153043Y0168287D01*
X0152887Y0168033D01*
X0152726Y0167783D01*
X0152558Y0167537D01*
X0152385Y0167295D01*
X0152205Y0167058D01*
X0152020Y0166825D01*
X0151829Y0166596D01*
X0151633Y0166373D01*
X0151431Y0166154D01*
X0151224Y0165940D01*
X0151012Y0165731D01*
X0150795Y0165528D01*
X0150573Y0165330D01*
X0150346Y0165137D01*
X0150114Y0164950D01*
X0149878Y0164769D01*
X0149638Y0164593D01*
X0149393Y0164424D01*
X0149145Y0164260D01*
X0148892Y0164103D01*
X0148636Y0163951D01*
X0148376Y0163806D01*
X0148112Y0163668D01*
X0147846Y0163536D01*
X0147576Y0163410D01*
X0147303Y0163291D01*
X0147027Y0163179D01*
X0146749Y0163074D01*
X0146468Y0162975D01*
X0146185Y0162884D01*
X0145899Y0162799D01*
X0175256Y0166420D02*
X0178325Y0166420D01*
X0176791Y0168722D02*
X0175256Y0168722D01*
X0175256Y0171024D02*
X0175256Y0166420D01*
X0175256Y0171024D02*
X0178325Y0171024D01*
X0075569Y0143605D02*
X0075569Y0141303D01*
X0070965Y0141303D01*
X0072500Y0141303D02*
X0072500Y0143605D01*
X0073267Y0144373D01*
X0074802Y0144373D01*
X0075569Y0143605D01*
X0072500Y0142838D02*
X0070965Y0144373D01*
X0071733Y0139769D02*
X0074802Y0139769D01*
X0075569Y0139001D01*
X0075569Y0137467D01*
X0074802Y0136699D01*
X0071733Y0136699D01*
X0070965Y0137467D01*
X0070965Y0139001D01*
X0071733Y0139769D01*
X0075569Y0135165D02*
X0075569Y0132096D01*
X0075569Y0133630D02*
X0070965Y0133630D01*
X0071733Y0130561D02*
X0074802Y0130561D01*
X0075569Y0129794D01*
X0075569Y0128259D01*
X0074802Y0127492D01*
X0071733Y0127492D01*
X0070965Y0128259D01*
X0070965Y0129794D01*
X0071733Y0130561D01*
X0070965Y0125957D02*
X0075569Y0125957D01*
X0074034Y0124422D01*
X0075569Y0122888D01*
X0070965Y0122888D01*
D13*
X0156413Y0165233D02*
X0156416Y0165515D01*
X0156427Y0165797D01*
X0156444Y0166079D01*
X0156468Y0166360D01*
X0156499Y0166641D01*
X0156537Y0166920D01*
X0156582Y0167199D01*
X0156634Y0167477D01*
X0156692Y0167753D01*
X0156758Y0168027D01*
X0156830Y0168300D01*
X0156908Y0168571D01*
X0156993Y0168840D01*
X0157085Y0169107D01*
X0157184Y0169372D01*
X0157288Y0169634D01*
X0157400Y0169893D01*
X0157517Y0170150D01*
X0157641Y0170404D01*
X0157771Y0170654D01*
X0157907Y0170901D01*
X0158049Y0171145D01*
X0158197Y0171385D01*
X0158351Y0171622D01*
X0158511Y0171855D01*
X0158676Y0172084D01*
X0158847Y0172308D01*
X0159023Y0172529D01*
X0159205Y0172744D01*
X0159392Y0172956D01*
X0159584Y0173163D01*
X0159781Y0173365D01*
X0159983Y0173562D01*
X0160190Y0173754D01*
X0160402Y0173941D01*
X0160617Y0174123D01*
X0160838Y0174299D01*
X0161062Y0174470D01*
X0161291Y0174635D01*
X0161524Y0174795D01*
X0161761Y0174949D01*
X0162001Y0175097D01*
X0162245Y0175239D01*
X0162492Y0175375D01*
X0162742Y0175505D01*
X0162996Y0175629D01*
X0163253Y0175746D01*
X0163512Y0175858D01*
X0163774Y0175962D01*
X0164039Y0176061D01*
X0164306Y0176153D01*
X0164575Y0176238D01*
X0164846Y0176316D01*
X0165119Y0176388D01*
X0165393Y0176454D01*
X0165669Y0176512D01*
X0165947Y0176564D01*
X0166226Y0176609D01*
X0166505Y0176647D01*
X0166786Y0176678D01*
X0167067Y0176702D01*
X0167349Y0176719D01*
X0167631Y0176730D01*
X0167913Y0176733D01*
X0168195Y0176730D01*
X0168477Y0176719D01*
X0168759Y0176702D01*
X0169040Y0176678D01*
X0169321Y0176647D01*
X0169600Y0176609D01*
X0169879Y0176564D01*
X0170157Y0176512D01*
X0170433Y0176454D01*
X0170707Y0176388D01*
X0170980Y0176316D01*
X0171251Y0176238D01*
X0171520Y0176153D01*
X0171787Y0176061D01*
X0172052Y0175962D01*
X0172314Y0175858D01*
X0172573Y0175746D01*
X0172830Y0175629D01*
X0173084Y0175505D01*
X0173334Y0175375D01*
X0173581Y0175239D01*
X0173825Y0175097D01*
X0174065Y0174949D01*
X0174302Y0174795D01*
X0174535Y0174635D01*
X0174764Y0174470D01*
X0174988Y0174299D01*
X0175209Y0174123D01*
X0175424Y0173941D01*
X0175636Y0173754D01*
X0175843Y0173562D01*
X0176045Y0173365D01*
X0176242Y0173163D01*
X0176434Y0172956D01*
X0176621Y0172744D01*
X0176803Y0172529D01*
X0176979Y0172308D01*
X0177150Y0172084D01*
X0177315Y0171855D01*
X0177475Y0171622D01*
X0177629Y0171385D01*
X0177777Y0171145D01*
X0177919Y0170901D01*
X0178055Y0170654D01*
X0178185Y0170404D01*
X0178309Y0170150D01*
X0178426Y0169893D01*
X0178538Y0169634D01*
X0178642Y0169372D01*
X0178741Y0169107D01*
X0178833Y0168840D01*
X0178918Y0168571D01*
X0178996Y0168300D01*
X0179068Y0168027D01*
X0179134Y0167753D01*
X0179192Y0167477D01*
X0179244Y0167199D01*
X0179289Y0166920D01*
X0179327Y0166641D01*
X0179358Y0166360D01*
X0179382Y0166079D01*
X0179399Y0165797D01*
X0179410Y0165515D01*
X0179413Y0165233D01*
X0179410Y0164951D01*
X0179399Y0164669D01*
X0179382Y0164387D01*
X0179358Y0164106D01*
X0179327Y0163825D01*
X0179289Y0163546D01*
X0179244Y0163267D01*
X0179192Y0162989D01*
X0179134Y0162713D01*
X0179068Y0162439D01*
X0178996Y0162166D01*
X0178918Y0161895D01*
X0178833Y0161626D01*
X0178741Y0161359D01*
X0178642Y0161094D01*
X0178538Y0160832D01*
X0178426Y0160573D01*
X0178309Y0160316D01*
X0178185Y0160062D01*
X0178055Y0159812D01*
X0177919Y0159565D01*
X0177777Y0159321D01*
X0177629Y0159081D01*
X0177475Y0158844D01*
X0177315Y0158611D01*
X0177150Y0158382D01*
X0176979Y0158158D01*
X0176803Y0157937D01*
X0176621Y0157722D01*
X0176434Y0157510D01*
X0176242Y0157303D01*
X0176045Y0157101D01*
X0175843Y0156904D01*
X0175636Y0156712D01*
X0175424Y0156525D01*
X0175209Y0156343D01*
X0174988Y0156167D01*
X0174764Y0155996D01*
X0174535Y0155831D01*
X0174302Y0155671D01*
X0174065Y0155517D01*
X0173825Y0155369D01*
X0173581Y0155227D01*
X0173334Y0155091D01*
X0173084Y0154961D01*
X0172830Y0154837D01*
X0172573Y0154720D01*
X0172314Y0154608D01*
X0172052Y0154504D01*
X0171787Y0154405D01*
X0171520Y0154313D01*
X0171251Y0154228D01*
X0170980Y0154150D01*
X0170707Y0154078D01*
X0170433Y0154012D01*
X0170157Y0153954D01*
X0169879Y0153902D01*
X0169600Y0153857D01*
X0169321Y0153819D01*
X0169040Y0153788D01*
X0168759Y0153764D01*
X0168477Y0153747D01*
X0168195Y0153736D01*
X0167913Y0153733D01*
X0167631Y0153736D01*
X0167349Y0153747D01*
X0167067Y0153764D01*
X0166786Y0153788D01*
X0166505Y0153819D01*
X0166226Y0153857D01*
X0165947Y0153902D01*
X0165669Y0153954D01*
X0165393Y0154012D01*
X0165119Y0154078D01*
X0164846Y0154150D01*
X0164575Y0154228D01*
X0164306Y0154313D01*
X0164039Y0154405D01*
X0163774Y0154504D01*
X0163512Y0154608D01*
X0163253Y0154720D01*
X0162996Y0154837D01*
X0162742Y0154961D01*
X0162492Y0155091D01*
X0162245Y0155227D01*
X0162001Y0155369D01*
X0161761Y0155517D01*
X0161524Y0155671D01*
X0161291Y0155831D01*
X0161062Y0155996D01*
X0160838Y0156167D01*
X0160617Y0156343D01*
X0160402Y0156525D01*
X0160190Y0156712D01*
X0159983Y0156904D01*
X0159781Y0157101D01*
X0159584Y0157303D01*
X0159392Y0157510D01*
X0159205Y0157722D01*
X0159023Y0157937D01*
X0158847Y0158158D01*
X0158676Y0158382D01*
X0158511Y0158611D01*
X0158351Y0158844D01*
X0158197Y0159081D01*
X0158049Y0159321D01*
X0157907Y0159565D01*
X0157771Y0159812D01*
X0157641Y0160062D01*
X0157517Y0160316D01*
X0157400Y0160573D01*
X0157288Y0160832D01*
X0157184Y0161094D01*
X0157085Y0161359D01*
X0156993Y0161626D01*
X0156908Y0161895D01*
X0156830Y0162166D01*
X0156758Y0162439D01*
X0156692Y0162713D01*
X0156634Y0162989D01*
X0156582Y0163267D01*
X0156537Y0163546D01*
X0156499Y0163825D01*
X0156468Y0164106D01*
X0156444Y0164387D01*
X0156427Y0164669D01*
X0156416Y0164951D01*
X0156413Y0165233D01*
X0172713Y0101033D02*
X0175113Y0099233D01*
X0173313Y0097433D01*
X0175113Y0099233D02*
X0174969Y0099247D01*
X0174825Y0099257D01*
X0174680Y0099263D01*
X0174536Y0099266D01*
X0174391Y0099265D01*
X0174246Y0099259D01*
X0174102Y0099250D01*
X0173958Y0099238D01*
X0173814Y0099221D01*
X0173671Y0099200D01*
X0173529Y0099176D01*
X0173387Y0099148D01*
X0173246Y0099116D01*
X0173105Y0099080D01*
X0172966Y0099041D01*
X0172828Y0098998D01*
X0172691Y0098951D01*
X0172556Y0098901D01*
X0172421Y0098847D01*
X0172289Y0098790D01*
X0172157Y0098729D01*
X0172028Y0098664D01*
X0171900Y0098597D01*
X0171774Y0098525D01*
X0171650Y0098451D01*
X0171529Y0098373D01*
X0171409Y0098292D01*
X0171291Y0098208D01*
X0171176Y0098120D01*
X0171063Y0098030D01*
X0170952Y0097937D01*
X0170844Y0097840D01*
X0170739Y0097741D01*
X0170636Y0097639D01*
X0170536Y0097535D01*
X0170439Y0097428D01*
X0170345Y0097318D01*
X0170254Y0097206D01*
X0170165Y0097091D01*
X0170080Y0096974D01*
X0169998Y0096855D01*
X0169919Y0096734D01*
X0169844Y0096611D01*
X0169771Y0096485D01*
X0169702Y0096358D01*
X0169637Y0096229D01*
X0169575Y0096099D01*
X0169516Y0095966D01*
X0169461Y0095833D01*
X0169410Y0095697D01*
X0169362Y0095561D01*
X0169318Y0095423D01*
X0169277Y0095284D01*
X0169241Y0095144D01*
X0169208Y0095004D01*
X0169178Y0094862D01*
X0169153Y0094720D01*
X0169131Y0094577D01*
X0169113Y0094433D01*
X0169113Y0088433D02*
X0169115Y0088287D01*
X0169121Y0088141D01*
X0169131Y0087995D01*
X0169145Y0087849D01*
X0169162Y0087704D01*
X0169184Y0087559D01*
X0169210Y0087415D01*
X0169239Y0087272D01*
X0169273Y0087130D01*
X0169310Y0086988D01*
X0169351Y0086848D01*
X0169396Y0086709D01*
X0169444Y0086571D01*
X0169497Y0086434D01*
X0169552Y0086299D01*
X0169612Y0086166D01*
X0169675Y0086034D01*
X0169742Y0085904D01*
X0169812Y0085775D01*
X0169886Y0085649D01*
X0169963Y0085525D01*
X0170043Y0085403D01*
X0170127Y0085283D01*
X0170214Y0085165D01*
X0170304Y0085050D01*
X0170397Y0084937D01*
X0170494Y0084827D01*
X0170593Y0084719D01*
X0170695Y0084615D01*
X0170799Y0084513D01*
X0170907Y0084414D01*
X0171017Y0084317D01*
X0171130Y0084224D01*
X0171245Y0084134D01*
X0171363Y0084047D01*
X0171483Y0083963D01*
X0171605Y0083883D01*
X0171729Y0083806D01*
X0171855Y0083732D01*
X0171984Y0083662D01*
X0172114Y0083595D01*
X0172246Y0083532D01*
X0172379Y0083472D01*
X0172514Y0083417D01*
X0172651Y0083364D01*
X0172789Y0083316D01*
X0172928Y0083271D01*
X0173068Y0083230D01*
X0173210Y0083193D01*
X0173352Y0083159D01*
X0173495Y0083130D01*
X0173639Y0083104D01*
X0173784Y0083082D01*
X0173929Y0083065D01*
X0174075Y0083051D01*
X0174221Y0083041D01*
X0174367Y0083035D01*
X0174513Y0083033D01*
X0172713Y0081833D01*
X0174513Y0083033D02*
X0173313Y0084833D01*
D14*
X0176572Y0084298D02*
X0176572Y0087615D01*
X0176572Y0084298D02*
X0187388Y0084298D01*
X0191138Y0089298D02*
X0191138Y0093865D01*
X0187388Y0098865D02*
X0176572Y0098865D01*
X0176572Y0095548D01*
X0178013Y0110883D02*
X0178013Y0117383D01*
X0178015Y0117443D01*
X0178020Y0117504D01*
X0178029Y0117563D01*
X0178042Y0117622D01*
X0178058Y0117681D01*
X0178078Y0117738D01*
X0178101Y0117793D01*
X0178128Y0117848D01*
X0178157Y0117900D01*
X0178190Y0117951D01*
X0178226Y0118000D01*
X0178264Y0118046D01*
X0178306Y0118090D01*
X0178350Y0118132D01*
X0178396Y0118170D01*
X0178445Y0118206D01*
X0178496Y0118239D01*
X0178548Y0118268D01*
X0178603Y0118295D01*
X0178658Y0118318D01*
X0178715Y0118338D01*
X0178774Y0118354D01*
X0178833Y0118367D01*
X0178892Y0118376D01*
X0178953Y0118381D01*
X0179013Y0118383D01*
X0176750Y0117383D02*
X0176750Y0111084D01*
X0176751Y0111084D02*
X0176737Y0111025D01*
X0176720Y0110967D01*
X0176699Y0110910D01*
X0176675Y0110854D01*
X0176647Y0110800D01*
X0176617Y0110748D01*
X0176583Y0110697D01*
X0176546Y0110649D01*
X0176507Y0110603D01*
X0176464Y0110560D01*
X0176420Y0110519D01*
X0176372Y0110481D01*
X0176323Y0110446D01*
X0176271Y0110414D01*
X0176218Y0110385D01*
X0176163Y0110359D01*
X0176107Y0110337D01*
X0176049Y0110318D01*
X0175990Y0110302D01*
X0175931Y0110291D01*
X0175871Y0110282D01*
X0175810Y0110278D01*
X0175750Y0110277D01*
X0175689Y0110280D01*
X0175629Y0110286D01*
X0175569Y0110296D01*
X0170057Y0110296D02*
X0169995Y0110286D01*
X0169932Y0110280D01*
X0169869Y0110277D01*
X0169806Y0110278D01*
X0169743Y0110284D01*
X0169681Y0110293D01*
X0169619Y0110306D01*
X0169558Y0110323D01*
X0169499Y0110344D01*
X0169441Y0110369D01*
X0169384Y0110397D01*
X0169330Y0110429D01*
X0169277Y0110464D01*
X0169227Y0110502D01*
X0169179Y0110543D01*
X0169134Y0110587D01*
X0169092Y0110634D01*
X0169053Y0110684D01*
X0169017Y0110736D01*
X0168985Y0110790D01*
X0168955Y0110845D01*
X0168930Y0110903D01*
X0168908Y0110962D01*
X0168890Y0111023D01*
X0168875Y0111084D01*
X0168876Y0111084D02*
X0168876Y0117383D01*
X0168875Y0117383D02*
X0168890Y0117444D01*
X0168908Y0117505D01*
X0168930Y0117564D01*
X0168955Y0117622D01*
X0168985Y0117677D01*
X0169017Y0117731D01*
X0169053Y0117783D01*
X0169092Y0117833D01*
X0169134Y0117880D01*
X0169179Y0117924D01*
X0169227Y0117965D01*
X0169277Y0118003D01*
X0169330Y0118038D01*
X0169384Y0118070D01*
X0169441Y0118098D01*
X0169499Y0118123D01*
X0169558Y0118144D01*
X0169619Y0118161D01*
X0169681Y0118174D01*
X0169743Y0118183D01*
X0169806Y0118189D01*
X0169869Y0118190D01*
X0169932Y0118187D01*
X0169995Y0118181D01*
X0170057Y0118171D01*
X0167650Y0117383D02*
X0167650Y0111084D01*
X0167651Y0111084D02*
X0167637Y0111025D01*
X0167620Y0110967D01*
X0167599Y0110910D01*
X0167575Y0110854D01*
X0167547Y0110800D01*
X0167517Y0110748D01*
X0167483Y0110697D01*
X0167446Y0110649D01*
X0167407Y0110603D01*
X0167364Y0110560D01*
X0167320Y0110519D01*
X0167272Y0110481D01*
X0167223Y0110446D01*
X0167171Y0110414D01*
X0167118Y0110385D01*
X0167063Y0110359D01*
X0167007Y0110337D01*
X0166949Y0110318D01*
X0166890Y0110302D01*
X0166831Y0110291D01*
X0166771Y0110282D01*
X0166710Y0110278D01*
X0166650Y0110277D01*
X0166589Y0110280D01*
X0166529Y0110286D01*
X0166469Y0110296D01*
X0160957Y0110296D02*
X0160895Y0110286D01*
X0160832Y0110280D01*
X0160769Y0110277D01*
X0160706Y0110278D01*
X0160643Y0110284D01*
X0160581Y0110293D01*
X0160519Y0110306D01*
X0160458Y0110323D01*
X0160399Y0110344D01*
X0160341Y0110369D01*
X0160284Y0110397D01*
X0160230Y0110429D01*
X0160177Y0110464D01*
X0160127Y0110502D01*
X0160079Y0110543D01*
X0160034Y0110587D01*
X0159992Y0110634D01*
X0159953Y0110684D01*
X0159917Y0110736D01*
X0159885Y0110790D01*
X0159855Y0110845D01*
X0159830Y0110903D01*
X0159808Y0110962D01*
X0159790Y0111023D01*
X0159775Y0111084D01*
X0159776Y0111084D02*
X0159776Y0117383D01*
X0159775Y0117383D02*
X0159790Y0117444D01*
X0159808Y0117505D01*
X0159830Y0117564D01*
X0159855Y0117622D01*
X0159885Y0117677D01*
X0159917Y0117731D01*
X0159953Y0117783D01*
X0159992Y0117833D01*
X0160034Y0117880D01*
X0160079Y0117924D01*
X0160127Y0117965D01*
X0160177Y0118003D01*
X0160230Y0118038D01*
X0160284Y0118070D01*
X0160341Y0118098D01*
X0160399Y0118123D01*
X0160458Y0118144D01*
X0160519Y0118161D01*
X0160581Y0118174D01*
X0160643Y0118183D01*
X0160706Y0118189D01*
X0160769Y0118190D01*
X0160832Y0118187D01*
X0160895Y0118181D01*
X0160957Y0118171D01*
X0166469Y0118171D02*
X0166529Y0118181D01*
X0166589Y0118187D01*
X0166650Y0118190D01*
X0166710Y0118189D01*
X0166771Y0118185D01*
X0166831Y0118176D01*
X0166890Y0118165D01*
X0166949Y0118149D01*
X0167007Y0118130D01*
X0167063Y0118108D01*
X0167118Y0118082D01*
X0167171Y0118053D01*
X0167223Y0118021D01*
X0167272Y0117986D01*
X0167320Y0117948D01*
X0167364Y0117907D01*
X0167407Y0117864D01*
X0167446Y0117818D01*
X0167483Y0117770D01*
X0167517Y0117719D01*
X0167547Y0117667D01*
X0167575Y0117613D01*
X0167599Y0117557D01*
X0167620Y0117500D01*
X0167637Y0117442D01*
X0167651Y0117383D01*
X0175569Y0118171D02*
X0175629Y0118181D01*
X0175689Y0118187D01*
X0175750Y0118190D01*
X0175810Y0118189D01*
X0175871Y0118185D01*
X0175931Y0118176D01*
X0175990Y0118165D01*
X0176049Y0118149D01*
X0176107Y0118130D01*
X0176163Y0118108D01*
X0176218Y0118082D01*
X0176271Y0118053D01*
X0176323Y0118021D01*
X0176372Y0117986D01*
X0176420Y0117948D01*
X0176464Y0117907D01*
X0176507Y0117864D01*
X0176546Y0117818D01*
X0176583Y0117770D01*
X0176617Y0117719D01*
X0176647Y0117667D01*
X0176675Y0117613D01*
X0176699Y0117557D01*
X0176720Y0117500D01*
X0176737Y0117442D01*
X0176751Y0117383D01*
X0185013Y0118383D02*
X0185073Y0118381D01*
X0185134Y0118376D01*
X0185193Y0118367D01*
X0185252Y0118354D01*
X0185311Y0118338D01*
X0185368Y0118318D01*
X0185423Y0118295D01*
X0185478Y0118268D01*
X0185530Y0118239D01*
X0185581Y0118206D01*
X0185630Y0118170D01*
X0185676Y0118132D01*
X0185720Y0118090D01*
X0185762Y0118046D01*
X0185800Y0118000D01*
X0185836Y0117951D01*
X0185869Y0117900D01*
X0185898Y0117848D01*
X0185925Y0117793D01*
X0185948Y0117738D01*
X0185968Y0117681D01*
X0185984Y0117622D01*
X0185997Y0117563D01*
X0186006Y0117504D01*
X0186011Y0117443D01*
X0186013Y0117383D01*
X0186013Y0110883D01*
X0186011Y0110823D01*
X0186006Y0110762D01*
X0185997Y0110703D01*
X0185984Y0110644D01*
X0185968Y0110585D01*
X0185948Y0110528D01*
X0185925Y0110473D01*
X0185898Y0110418D01*
X0185869Y0110366D01*
X0185836Y0110315D01*
X0185800Y0110266D01*
X0185762Y0110220D01*
X0185720Y0110176D01*
X0185676Y0110134D01*
X0185630Y0110096D01*
X0185581Y0110060D01*
X0185530Y0110027D01*
X0185478Y0109998D01*
X0185423Y0109971D01*
X0185368Y0109948D01*
X0185311Y0109928D01*
X0185252Y0109912D01*
X0185193Y0109899D01*
X0185134Y0109890D01*
X0185073Y0109885D01*
X0185013Y0109883D01*
X0179013Y0109883D02*
X0178953Y0109885D01*
X0178892Y0109890D01*
X0178833Y0109899D01*
X0178774Y0109912D01*
X0178715Y0109928D01*
X0178658Y0109948D01*
X0178603Y0109971D01*
X0178548Y0109998D01*
X0178496Y0110027D01*
X0178445Y0110060D01*
X0178396Y0110096D01*
X0178350Y0110134D01*
X0178306Y0110176D01*
X0178264Y0110220D01*
X0178226Y0110266D01*
X0178190Y0110315D01*
X0178157Y0110366D01*
X0178128Y0110418D01*
X0178101Y0110473D01*
X0178078Y0110528D01*
X0178058Y0110585D01*
X0178042Y0110644D01*
X0178029Y0110703D01*
X0178020Y0110762D01*
X0178015Y0110823D01*
X0178013Y0110883D01*
X0178063Y0142533D02*
X0171563Y0142533D01*
X0171503Y0142535D01*
X0171442Y0142540D01*
X0171383Y0142549D01*
X0171324Y0142562D01*
X0171265Y0142578D01*
X0171208Y0142598D01*
X0171153Y0142621D01*
X0171098Y0142648D01*
X0171046Y0142677D01*
X0170995Y0142710D01*
X0170946Y0142746D01*
X0170900Y0142784D01*
X0170856Y0142826D01*
X0170814Y0142870D01*
X0170776Y0142916D01*
X0170740Y0142965D01*
X0170707Y0143016D01*
X0170678Y0143068D01*
X0170651Y0143123D01*
X0170628Y0143178D01*
X0170608Y0143235D01*
X0170592Y0143294D01*
X0170579Y0143353D01*
X0170570Y0143412D01*
X0170565Y0143473D01*
X0170563Y0143533D01*
X0170563Y0149533D02*
X0170565Y0149593D01*
X0170570Y0149654D01*
X0170579Y0149713D01*
X0170592Y0149772D01*
X0170608Y0149831D01*
X0170628Y0149888D01*
X0170651Y0149943D01*
X0170678Y0149998D01*
X0170707Y0150050D01*
X0170740Y0150101D01*
X0170776Y0150150D01*
X0170814Y0150196D01*
X0170856Y0150240D01*
X0170900Y0150282D01*
X0170946Y0150320D01*
X0170995Y0150356D01*
X0171046Y0150389D01*
X0171098Y0150418D01*
X0171153Y0150445D01*
X0171208Y0150468D01*
X0171265Y0150488D01*
X0171324Y0150504D01*
X0171383Y0150517D01*
X0171442Y0150526D01*
X0171503Y0150531D01*
X0171563Y0150533D01*
X0178063Y0150533D01*
X0178123Y0150531D01*
X0178184Y0150526D01*
X0178243Y0150517D01*
X0178302Y0150504D01*
X0178361Y0150488D01*
X0178418Y0150468D01*
X0178473Y0150445D01*
X0178528Y0150418D01*
X0178580Y0150389D01*
X0178631Y0150356D01*
X0178680Y0150320D01*
X0178726Y0150282D01*
X0178770Y0150240D01*
X0178812Y0150196D01*
X0178850Y0150150D01*
X0178886Y0150101D01*
X0178919Y0150050D01*
X0178948Y0149998D01*
X0178975Y0149943D01*
X0178998Y0149888D01*
X0179018Y0149831D01*
X0179034Y0149772D01*
X0179047Y0149713D01*
X0179056Y0149654D01*
X0179061Y0149593D01*
X0179063Y0149533D01*
X0179063Y0143533D02*
X0179061Y0143473D01*
X0179056Y0143412D01*
X0179047Y0143353D01*
X0179034Y0143294D01*
X0179018Y0143235D01*
X0178998Y0143178D01*
X0178975Y0143123D01*
X0178948Y0143068D01*
X0178919Y0143016D01*
X0178886Y0142965D01*
X0178850Y0142916D01*
X0178812Y0142870D01*
X0178770Y0142826D01*
X0178726Y0142784D01*
X0178680Y0142746D01*
X0178631Y0142710D01*
X0178580Y0142677D01*
X0178528Y0142648D01*
X0178473Y0142621D01*
X0178418Y0142598D01*
X0178361Y0142578D01*
X0178302Y0142562D01*
X0178243Y0142549D01*
X0178184Y0142540D01*
X0178123Y0142535D01*
X0178063Y0142533D01*
X0219177Y0154731D02*
X0219177Y0156332D01*
X0219177Y0157677D02*
X0219177Y0159279D01*
X0219578Y0160624D02*
X0221179Y0160624D01*
X0221579Y0161024D01*
X0221579Y0161825D01*
X0221179Y0162225D01*
X0221579Y0163571D02*
X0219978Y0165172D01*
X0219578Y0165172D01*
X0219177Y0164772D01*
X0219177Y0163971D01*
X0219578Y0163571D01*
X0219578Y0162225D02*
X0219177Y0161825D01*
X0219177Y0161024D01*
X0219578Y0160624D01*
X0220378Y0158478D02*
X0220378Y0157677D01*
X0221579Y0157677D02*
X0219177Y0157677D01*
X0220378Y0155532D02*
X0220378Y0154731D01*
X0221579Y0154731D02*
X0219177Y0154731D01*
X0221579Y0163571D02*
X0221579Y0165172D01*
X0128513Y0182533D02*
X0126013Y0180033D01*
X0121013Y0180033D01*
X0118513Y0182533D01*
X0116013Y0180033D01*
X0111013Y0180033D01*
X0108513Y0182533D01*
X0106013Y0180033D01*
X0101013Y0180033D01*
X0098513Y0182533D01*
X0098513Y0187533D01*
X0101013Y0190033D01*
X0106013Y0190033D01*
X0108513Y0187533D01*
X0111013Y0190033D01*
X0116013Y0190033D01*
X0118513Y0187533D01*
X0121013Y0190033D01*
X0126013Y0190033D01*
X0128513Y0187533D01*
X0128513Y0182533D01*
X0096212Y0161495D02*
X0096212Y0158936D01*
X0089913Y0158936D01*
X0096212Y0161495D02*
X0066291Y0161495D01*
X0066291Y0106408D01*
X0096212Y0106408D01*
X0096212Y0108967D01*
X0089913Y0108967D01*
X0113145Y0123065D02*
X0113145Y0127002D01*
X0117082Y0125033D01*
X0113145Y0123065D01*
D15*
X0200576Y0099551D03*
D16*
X0098198Y0178131D02*
X0094928Y0178131D01*
X0096563Y0176497D02*
X0096563Y0179766D01*
X0095776Y0172227D02*
X0095776Y0168957D01*
D17*
X0133471Y0135644D02*
X0133471Y0134463D01*
X0133471Y0135644D02*
X0134652Y0135644D01*
X0151975Y0135644D02*
X0153156Y0135644D01*
X0153156Y0134463D01*
X0153156Y0113203D02*
X0153156Y0112022D01*
X0151975Y0112022D01*
X0134652Y0112022D02*
X0133471Y0112022D01*
X0133471Y0113203D01*
D18*
X0154337Y0110841D02*
X0154339Y0110880D01*
X0154345Y0110919D01*
X0154355Y0110957D01*
X0154368Y0110994D01*
X0154385Y0111029D01*
X0154405Y0111063D01*
X0154429Y0111094D01*
X0154456Y0111123D01*
X0154485Y0111149D01*
X0154517Y0111172D01*
X0154551Y0111192D01*
X0154587Y0111208D01*
X0154624Y0111220D01*
X0154663Y0111229D01*
X0154702Y0111234D01*
X0154741Y0111235D01*
X0154780Y0111232D01*
X0154819Y0111225D01*
X0154856Y0111214D01*
X0154893Y0111200D01*
X0154928Y0111182D01*
X0154961Y0111161D01*
X0154992Y0111136D01*
X0155020Y0111109D01*
X0155045Y0111079D01*
X0155067Y0111046D01*
X0155086Y0111012D01*
X0155101Y0110976D01*
X0155113Y0110938D01*
X0155121Y0110900D01*
X0155125Y0110861D01*
X0155125Y0110821D01*
X0155121Y0110782D01*
X0155113Y0110744D01*
X0155101Y0110706D01*
X0155086Y0110670D01*
X0155067Y0110636D01*
X0155045Y0110603D01*
X0155020Y0110573D01*
X0154992Y0110546D01*
X0154961Y0110521D01*
X0154928Y0110500D01*
X0154893Y0110482D01*
X0154856Y0110468D01*
X0154819Y0110457D01*
X0154780Y0110450D01*
X0154741Y0110447D01*
X0154702Y0110448D01*
X0154663Y0110453D01*
X0154624Y0110462D01*
X0154587Y0110474D01*
X0154551Y0110490D01*
X0154517Y0110510D01*
X0154485Y0110533D01*
X0154456Y0110559D01*
X0154429Y0110588D01*
X0154405Y0110619D01*
X0154385Y0110653D01*
X0154368Y0110688D01*
X0154355Y0110725D01*
X0154345Y0110763D01*
X0154339Y0110802D01*
X0154337Y0110841D01*
D19*
X0117313Y0125033D03*
D20*
X0198313Y0084933D02*
X0198313Y0079933D01*
X0200813Y0077433D01*
X0205813Y0077433D01*
X0208313Y0079933D01*
X0208313Y0084933D01*
X0205813Y0087433D01*
X0200813Y0087433D01*
X0198313Y0084933D01*
D21*
X0215700Y0127948D02*
X0216434Y0128681D01*
X0216067Y0128681D02*
X0217168Y0128681D01*
X0217168Y0127948D02*
X0217168Y0130149D01*
X0216067Y0130149D01*
X0215700Y0129782D01*
X0215700Y0129048D01*
X0216067Y0128681D01*
X0217907Y0127948D02*
X0218641Y0127948D01*
X0218274Y0127948D02*
X0218274Y0130149D01*
X0218641Y0130149D02*
X0217907Y0130149D01*
X0219383Y0129782D02*
X0219750Y0130149D01*
X0220851Y0130149D01*
X0220851Y0127948D01*
X0219750Y0127948D01*
X0219383Y0128314D01*
X0219383Y0129782D01*
X0219878Y0134496D02*
X0218410Y0134496D01*
X0217668Y0134496D02*
X0217668Y0136697D01*
X0216200Y0134496D01*
X0216200Y0136697D01*
X0215558Y0137096D02*
X0219978Y0137096D01*
X0219878Y0136697D02*
X0219878Y0134496D01*
X0219878Y0135596D02*
X0219144Y0135596D01*
X0218410Y0136697D02*
X0219878Y0136697D01*
X0219278Y0141744D02*
X0217810Y0141744D01*
X0217068Y0141744D02*
X0217068Y0143945D01*
X0215967Y0143945D01*
X0215600Y0143578D01*
X0215600Y0142845D01*
X0215967Y0142478D01*
X0217068Y0142478D01*
X0218544Y0142845D02*
X0219278Y0142845D01*
X0219278Y0143945D02*
X0219278Y0141744D01*
X0220754Y0141744D02*
X0220754Y0143945D01*
X0221488Y0143945D02*
X0220020Y0143945D01*
X0219278Y0143945D02*
X0217810Y0143945D01*
X0222230Y0143578D02*
X0222597Y0143945D01*
X0223331Y0143945D01*
X0223698Y0143578D01*
X0223698Y0143211D01*
X0223331Y0142845D01*
X0222597Y0142845D01*
X0222230Y0142478D01*
X0222230Y0142111D01*
X0222597Y0141744D01*
X0223331Y0141744D01*
X0223698Y0142111D01*
M02*
