G75*
%MOIN*%
%OFA0B0*%
%FSLAX25Y25*%
%IPPOS*%
%LPD*%
%AMOC8*
5,1,8,0,0,1.08239X$1,22.5*
%
%ADD10C,0.00600*%
%ADD11C,0.06000*%
%ADD12C,0.04134*%
%ADD13C,0.04724*%
%ADD14C,0.02384*%
%ADD15C,0.02364*%
%ADD16C,0.02584*%
%ADD17C,0.08268*%
%ADD18C,0.01000*%
D10*
X0235813Y0139933D02*
X0237948Y0139933D01*
X0236881Y0139933D02*
X0236881Y0146339D01*
X0237948Y0146339D02*
X0235813Y0146339D01*
X0240110Y0144204D02*
X0243313Y0144204D01*
X0244381Y0143136D01*
X0244381Y0139933D01*
X0246556Y0139933D02*
X0246556Y0144204D01*
X0249758Y0144204D01*
X0250826Y0143136D01*
X0250826Y0139933D01*
X0253001Y0141001D02*
X0253001Y0143136D01*
X0254069Y0144204D01*
X0256204Y0144204D01*
X0257272Y0143136D01*
X0257272Y0142068D01*
X0253001Y0142068D01*
X0253001Y0141001D02*
X0254069Y0139933D01*
X0256204Y0139933D01*
X0259447Y0139933D02*
X0259447Y0144204D01*
X0261582Y0144204D02*
X0262649Y0144204D01*
X0261582Y0144204D02*
X0259447Y0142068D01*
X0264818Y0139933D02*
X0269088Y0139933D01*
X0266953Y0139933D02*
X0266953Y0146339D01*
X0264818Y0144204D01*
X0277709Y0143136D02*
X0281979Y0143136D01*
X0297045Y0141001D02*
X0298113Y0139933D01*
X0300248Y0139933D01*
X0301316Y0141001D01*
X0301316Y0143136D01*
X0299181Y0143136D01*
X0301316Y0145271D02*
X0300248Y0146339D01*
X0298113Y0146339D01*
X0297045Y0145271D01*
X0297045Y0141001D01*
X0303491Y0139933D02*
X0303491Y0146339D01*
X0307761Y0139933D01*
X0307761Y0146339D01*
X0309936Y0146339D02*
X0313139Y0146339D01*
X0314207Y0145271D01*
X0314207Y0141001D01*
X0313139Y0139933D01*
X0309936Y0139933D01*
X0309936Y0146339D01*
X0240110Y0144204D02*
X0240110Y0139933D01*
D11*
X0203313Y0082433D03*
X0123513Y0185033D03*
X0113513Y0185033D03*
X0103513Y0185033D03*
D12*
X0089913Y0153581D03*
X0089913Y0145581D03*
X0089913Y0137707D03*
X0089913Y0129833D03*
X0089913Y0121959D03*
X0089913Y0114085D03*
D13*
X0091113Y0170296D03*
X0091113Y0178170D03*
D14*
X0080913Y0180433D03*
X0072513Y0180433D03*
X0072513Y0168433D03*
X0080913Y0168433D03*
X0074313Y0157033D03*
X0074313Y0153433D03*
X0074313Y0149233D03*
X0078513Y0143833D03*
X0078513Y0139033D03*
X0078513Y0134233D03*
X0078513Y0130633D03*
X0078513Y0126433D03*
X0078513Y0121033D03*
X0103113Y0105433D03*
X0106713Y0101833D03*
X0109713Y0097033D03*
X0113313Y0093433D03*
X0116913Y0090433D03*
X0111513Y0082633D03*
X0107313Y0087433D03*
X0103113Y0091633D03*
X0098913Y0095833D03*
X0130713Y0090433D03*
X0135513Y0090433D03*
X0140313Y0090433D03*
X0146913Y0090233D03*
X0150513Y0089233D03*
X0154113Y0089233D03*
X0157713Y0090433D03*
X0161313Y0093233D03*
X0164913Y0093233D03*
X0168513Y0093233D03*
X0174513Y0096233D03*
X0171513Y0099233D03*
X0167313Y0099233D03*
X0163713Y0099233D03*
X0160113Y0099233D03*
X0179913Y0098633D03*
X0182913Y0096233D03*
X0188313Y0091433D03*
X0192513Y0091433D03*
X0196113Y0091433D03*
X0184113Y0086633D03*
X0189013Y0080633D03*
X0209313Y0108233D03*
X0209313Y0111833D03*
X0209313Y0115433D03*
X0209313Y0119033D03*
X0220713Y0118433D03*
X0220713Y0114433D03*
X0220713Y0110033D03*
X0220713Y0105833D03*
X0207513Y0131633D03*
X0207513Y0138833D03*
X0194913Y0141233D03*
X0191913Y0145433D03*
X0191913Y0149633D03*
X0187713Y0149633D03*
X0187713Y0145433D03*
X0187713Y0153833D03*
X0187713Y0158033D03*
X0187713Y0161633D03*
X0182313Y0162433D03*
X0191913Y0161633D03*
X0191913Y0158033D03*
X0191913Y0153833D03*
X0210513Y0153433D03*
X0210513Y0157633D03*
X0210513Y0161233D03*
X0215913Y0157633D03*
X0215913Y0153433D03*
X0215913Y0149233D03*
X0210513Y0149233D03*
X0194913Y0134033D03*
X0164313Y0154033D03*
X0160713Y0157033D03*
X0151113Y0157433D03*
X0147513Y0157433D03*
X0143913Y0157433D03*
X0140313Y0157433D03*
X0157713Y0175633D03*
X0161913Y0175633D03*
X0160113Y0179233D03*
X0172113Y0187633D03*
X0176913Y0187633D03*
X0176913Y0182833D03*
X0146913Y0181433D03*
X0146913Y0185633D03*
X0137913Y0185633D03*
X0137913Y0182033D03*
X0128313Y0179033D03*
X0110913Y0170233D03*
X0107313Y0166033D03*
X0103713Y0170233D03*
X0103713Y0161833D03*
X0110913Y0161833D03*
X0211713Y0187033D03*
X0215313Y0181633D03*
X0218913Y0187033D03*
D15*
X0158313Y0150233D03*
X0158313Y0146633D03*
X0154413Y0144533D03*
X0151613Y0143033D03*
X0151613Y0146133D03*
X0139713Y0146033D03*
X0137213Y0144333D03*
X0139713Y0142433D03*
X0128913Y0126833D03*
X0129813Y0123533D03*
X0126213Y0120033D03*
X0143113Y0105433D03*
X0143713Y0102533D03*
X0146913Y0101333D03*
X0149313Y0107633D03*
X0152313Y0107633D03*
X0155313Y0107633D03*
X0164913Y0083633D03*
X0164913Y0080633D03*
X0167913Y0081833D03*
X0123113Y0089733D03*
X0121113Y0092033D03*
X0118713Y0094433D03*
X0193113Y0126233D03*
X0146313Y0170633D03*
X0143913Y0173033D03*
X0140913Y0173033D03*
X0138513Y0170633D03*
X0133113Y0162233D03*
X0130113Y0160433D03*
X0130113Y0164033D03*
D16*
X0158313Y0141233D03*
X0158313Y0137633D03*
X0162513Y0137633D03*
X0162513Y0141233D03*
X0162513Y0134033D03*
X0158313Y0134033D03*
X0148713Y0129233D03*
X0148713Y0125633D03*
X0148713Y0122033D03*
X0145113Y0122033D03*
X0141513Y0122033D03*
X0137913Y0122033D03*
X0137913Y0125633D03*
X0141513Y0125633D03*
X0145113Y0125633D03*
X0145113Y0129233D03*
X0141513Y0129233D03*
X0137913Y0129233D03*
X0137913Y0118433D03*
X0141513Y0118433D03*
X0145113Y0118433D03*
X0148713Y0118433D03*
X0190113Y0135833D03*
X0123513Y0078833D03*
D17*
X0162513Y0105633D03*
X0172013Y0105633D03*
X0181713Y0105633D03*
D18*
X0096513Y0096536D02*
X0096513Y0077318D01*
X0121119Y0077318D01*
X0120721Y0078278D01*
X0120721Y0079389D01*
X0121146Y0080415D01*
X0121932Y0081200D01*
X0122958Y0081625D01*
X0124069Y0081625D01*
X0125095Y0081200D01*
X0125880Y0080415D01*
X0126305Y0079389D01*
X0126305Y0078278D01*
X0125908Y0077318D01*
X0220194Y0077318D01*
X0220879Y0077385D01*
X0222147Y0077910D01*
X0223117Y0078880D01*
X0223642Y0080147D01*
X0223709Y0080833D01*
X0223709Y0186975D01*
X0223642Y0187661D01*
X0223117Y0188928D01*
X0222147Y0189898D01*
X0220879Y0190423D01*
X0220194Y0190491D01*
X0207513Y0190491D01*
X0207513Y0170833D01*
X0207267Y0169822D01*
X0206850Y0168870D01*
X0206273Y0168004D01*
X0205554Y0167251D01*
X0204716Y0166635D01*
X0203784Y0166174D01*
X0202785Y0165881D01*
X0201751Y0165767D01*
X0200713Y0165833D01*
X0184913Y0165833D01*
X0184045Y0165909D01*
X0183203Y0166135D01*
X0182413Y0166503D01*
X0181699Y0167003D01*
X0181083Y0167619D01*
X0180583Y0168333D01*
X0180215Y0169123D01*
X0179989Y0169965D01*
X0179913Y0170833D01*
X0179913Y0190491D01*
X0072713Y0190491D01*
X0072027Y0190423D01*
X0070760Y0189898D01*
X0069790Y0188928D01*
X0069265Y0187661D01*
X0069197Y0186975D01*
X0069197Y0100428D01*
X0094417Y0100335D01*
X0094979Y0100117D01*
X0095487Y0099791D01*
X0095920Y0099372D01*
X0096263Y0098876D01*
X0096500Y0098322D01*
X0096624Y0097731D01*
X0096628Y0097128D01*
X0096513Y0096536D01*
X0096565Y0096802D02*
X0117423Y0096802D01*
X0117194Y0096707D02*
X0116439Y0095953D01*
X0116031Y0094967D01*
X0116031Y0093900D01*
X0116439Y0092914D01*
X0117194Y0092160D01*
X0118180Y0091751D01*
X0118431Y0091751D01*
X0118431Y0091500D01*
X0118839Y0090514D01*
X0119594Y0089760D01*
X0120431Y0089413D01*
X0120431Y0089200D01*
X0120839Y0088214D01*
X0121594Y0087460D01*
X0122580Y0087051D01*
X0123647Y0087051D01*
X0124633Y0087460D01*
X0125387Y0088214D01*
X0125795Y0089200D01*
X0125795Y0090267D01*
X0125387Y0091253D01*
X0124633Y0092007D01*
X0123795Y0092354D01*
X0123795Y0092567D01*
X0123387Y0093553D01*
X0122633Y0094307D01*
X0121647Y0094715D01*
X0121395Y0094715D01*
X0121395Y0094967D01*
X0120987Y0095953D01*
X0120233Y0096707D01*
X0119247Y0097115D01*
X0118180Y0097115D01*
X0117194Y0096707D01*
X0116378Y0095804D02*
X0096513Y0095804D01*
X0096513Y0094805D02*
X0116031Y0094805D01*
X0116070Y0093807D02*
X0096513Y0093807D01*
X0096513Y0092808D02*
X0116545Y0092808D01*
X0118039Y0091810D02*
X0096513Y0091810D01*
X0096513Y0090811D02*
X0118716Y0090811D01*
X0119541Y0089812D02*
X0096513Y0089812D01*
X0096513Y0088814D02*
X0120591Y0088814D01*
X0121238Y0087815D02*
X0096513Y0087815D01*
X0096513Y0086817D02*
X0202137Y0086817D01*
X0202418Y0086933D02*
X0200764Y0086248D01*
X0199498Y0084982D01*
X0198813Y0083328D01*
X0198813Y0081538D01*
X0199498Y0079884D01*
X0200764Y0078618D01*
X0202418Y0077933D01*
X0204208Y0077933D01*
X0205862Y0078618D01*
X0207128Y0079884D01*
X0207813Y0081538D01*
X0207813Y0083328D01*
X0207128Y0084982D01*
X0205862Y0086248D01*
X0204208Y0086933D01*
X0202418Y0086933D01*
X0204489Y0086817D02*
X0223709Y0086817D01*
X0223709Y0087815D02*
X0124988Y0087815D01*
X0125636Y0088814D02*
X0223709Y0088814D01*
X0223709Y0089812D02*
X0125795Y0089812D01*
X0125570Y0090811D02*
X0223709Y0090811D01*
X0223709Y0091810D02*
X0124830Y0091810D01*
X0123695Y0092808D02*
X0223709Y0092808D01*
X0223709Y0093807D02*
X0175689Y0093807D01*
X0176038Y0093951D02*
X0176796Y0094708D01*
X0177205Y0095698D01*
X0177205Y0096769D01*
X0176796Y0097758D01*
X0176038Y0098516D01*
X0175049Y0098925D01*
X0173978Y0098925D01*
X0172988Y0098516D01*
X0172231Y0097758D01*
X0171821Y0096769D01*
X0171821Y0095698D01*
X0172231Y0094708D01*
X0172988Y0093951D01*
X0173978Y0093541D01*
X0175049Y0093541D01*
X0176038Y0093951D01*
X0176836Y0094805D02*
X0223709Y0094805D01*
X0223709Y0095804D02*
X0177205Y0095804D01*
X0177192Y0096802D02*
X0223709Y0096802D01*
X0223709Y0097801D02*
X0176753Y0097801D01*
X0175354Y0098799D02*
X0223709Y0098799D01*
X0223709Y0099798D02*
X0149171Y0099798D01*
X0149187Y0099814D02*
X0149595Y0100800D01*
X0149595Y0101867D01*
X0149187Y0102853D01*
X0148433Y0103607D01*
X0147447Y0104015D01*
X0146380Y0104015D01*
X0146058Y0103882D01*
X0145987Y0104053D01*
X0145603Y0104436D01*
X0145795Y0104900D01*
X0145795Y0105967D01*
X0145387Y0106953D01*
X0144633Y0107707D01*
X0143647Y0108115D01*
X0142580Y0108115D01*
X0141594Y0107707D01*
X0140839Y0106953D01*
X0140431Y0105967D01*
X0140431Y0104900D01*
X0140839Y0103914D01*
X0141223Y0103530D01*
X0141031Y0103067D01*
X0141031Y0102000D01*
X0141439Y0101014D01*
X0142194Y0100260D01*
X0143180Y0099851D01*
X0144247Y0099851D01*
X0144569Y0099985D01*
X0144639Y0099814D01*
X0145394Y0099060D01*
X0146380Y0098651D01*
X0147447Y0098651D01*
X0148433Y0099060D01*
X0149187Y0099814D01*
X0149594Y0100796D02*
X0223709Y0100796D01*
X0223709Y0101795D02*
X0149595Y0101795D01*
X0149212Y0102793D02*
X0223709Y0102793D01*
X0223709Y0103792D02*
X0147987Y0103792D01*
X0148780Y0104951D02*
X0149847Y0104951D01*
X0150813Y0105352D01*
X0151780Y0104951D01*
X0152847Y0104951D01*
X0153813Y0105352D01*
X0154780Y0104951D01*
X0155847Y0104951D01*
X0156833Y0105360D01*
X0157587Y0106114D01*
X0157995Y0107100D01*
X0157995Y0108167D01*
X0157587Y0109153D01*
X0156833Y0109907D01*
X0155847Y0110315D01*
X0154780Y0110315D01*
X0153813Y0109915D01*
X0152847Y0110315D01*
X0151780Y0110315D01*
X0150813Y0109915D01*
X0149847Y0110315D01*
X0148780Y0110315D01*
X0147794Y0109907D01*
X0147039Y0109153D01*
X0146631Y0108167D01*
X0146631Y0107100D01*
X0147039Y0106114D01*
X0147794Y0105360D01*
X0148780Y0104951D01*
X0147365Y0105789D02*
X0145795Y0105789D01*
X0145750Y0104790D02*
X0223709Y0104790D01*
X0223709Y0105789D02*
X0210446Y0105789D01*
X0210838Y0105951D02*
X0209849Y0105541D01*
X0208778Y0105541D01*
X0207788Y0105951D01*
X0207031Y0106708D01*
X0206621Y0107698D01*
X0206621Y0108769D01*
X0207031Y0109758D01*
X0207306Y0110033D01*
X0207031Y0110308D01*
X0206621Y0111298D01*
X0206621Y0112369D01*
X0207031Y0113358D01*
X0207306Y0113633D01*
X0207031Y0113908D01*
X0206621Y0114898D01*
X0206621Y0115969D01*
X0207031Y0116958D01*
X0207306Y0117233D01*
X0207031Y0117508D01*
X0206621Y0118498D01*
X0206621Y0119569D01*
X0207031Y0120558D01*
X0207788Y0121316D01*
X0208778Y0121725D01*
X0209849Y0121725D01*
X0210838Y0121316D01*
X0211596Y0120558D01*
X0212005Y0119569D01*
X0212005Y0118498D01*
X0211596Y0117508D01*
X0211320Y0117233D01*
X0211596Y0116958D01*
X0212005Y0115969D01*
X0212005Y0114898D01*
X0211596Y0113908D01*
X0211320Y0113633D01*
X0211596Y0113358D01*
X0212005Y0112369D01*
X0212005Y0111298D01*
X0211596Y0110308D01*
X0211320Y0110033D01*
X0211596Y0109758D01*
X0212005Y0108769D01*
X0212005Y0107698D01*
X0211596Y0106708D01*
X0210838Y0105951D01*
X0211628Y0106787D02*
X0223709Y0106787D01*
X0223709Y0107786D02*
X0212005Y0107786D01*
X0211999Y0108784D02*
X0223709Y0108784D01*
X0223709Y0109783D02*
X0211571Y0109783D01*
X0211791Y0110781D02*
X0223709Y0110781D01*
X0223709Y0111780D02*
X0212005Y0111780D01*
X0211836Y0112778D02*
X0223709Y0112778D01*
X0223709Y0113777D02*
X0211464Y0113777D01*
X0211955Y0114775D02*
X0223709Y0114775D01*
X0223709Y0115774D02*
X0212005Y0115774D01*
X0211673Y0116772D02*
X0223709Y0116772D01*
X0223709Y0117771D02*
X0211704Y0117771D01*
X0212005Y0118769D02*
X0223709Y0118769D01*
X0223709Y0119768D02*
X0211923Y0119768D01*
X0211387Y0120766D02*
X0223709Y0120766D01*
X0223709Y0121765D02*
X0131838Y0121765D01*
X0132087Y0122014D02*
X0131333Y0121260D01*
X0130347Y0120851D01*
X0129280Y0120851D01*
X0128674Y0121102D01*
X0128895Y0120567D01*
X0128895Y0119500D01*
X0128487Y0118514D01*
X0127733Y0117760D01*
X0126747Y0117351D01*
X0125680Y0117351D01*
X0124694Y0117760D01*
X0123939Y0118514D01*
X0123531Y0119500D01*
X0123531Y0120567D01*
X0123939Y0121553D01*
X0124694Y0122307D01*
X0125680Y0122715D01*
X0126747Y0122715D01*
X0127353Y0122464D01*
X0127131Y0123000D01*
X0127131Y0124067D01*
X0127352Y0124601D01*
X0126639Y0125314D01*
X0126231Y0126300D01*
X0126231Y0127367D01*
X0126639Y0128353D01*
X0127394Y0129107D01*
X0128380Y0129515D01*
X0129447Y0129515D01*
X0130433Y0129107D01*
X0131187Y0128353D01*
X0131595Y0127367D01*
X0131595Y0126300D01*
X0131374Y0125766D01*
X0132087Y0125053D01*
X0132495Y0124067D01*
X0132495Y0123000D01*
X0132087Y0122014D01*
X0132397Y0122763D02*
X0223709Y0122763D01*
X0223709Y0123762D02*
X0194155Y0123762D01*
X0194633Y0123960D02*
X0195387Y0124714D01*
X0195795Y0125700D01*
X0195795Y0126767D01*
X0195387Y0127753D01*
X0194633Y0128507D01*
X0193647Y0128915D01*
X0192580Y0128915D01*
X0191594Y0128507D01*
X0190839Y0127753D01*
X0190431Y0126767D01*
X0190431Y0125700D01*
X0190839Y0124714D01*
X0191594Y0123960D01*
X0192580Y0123551D01*
X0193647Y0123551D01*
X0194633Y0123960D01*
X0195406Y0124760D02*
X0223709Y0124760D01*
X0223709Y0125759D02*
X0195795Y0125759D01*
X0195795Y0126757D02*
X0223709Y0126757D01*
X0223709Y0127756D02*
X0195384Y0127756D01*
X0194035Y0128754D02*
X0223709Y0128754D01*
X0223709Y0129753D02*
X0209440Y0129753D01*
X0209796Y0130108D02*
X0210205Y0131098D01*
X0210205Y0132169D01*
X0209796Y0133158D01*
X0209038Y0133916D01*
X0208049Y0134325D01*
X0206978Y0134325D01*
X0205988Y0133916D01*
X0205231Y0133158D01*
X0204821Y0132169D01*
X0204821Y0131098D01*
X0205231Y0130108D01*
X0205988Y0129351D01*
X0206978Y0128941D01*
X0208049Y0128941D01*
X0209038Y0129351D01*
X0209796Y0130108D01*
X0210062Y0130751D02*
X0223709Y0130751D01*
X0223709Y0131750D02*
X0210205Y0131750D01*
X0209965Y0132748D02*
X0223709Y0132748D01*
X0223709Y0133747D02*
X0209207Y0133747D01*
X0208049Y0136141D02*
X0206978Y0136141D01*
X0205988Y0136551D01*
X0205231Y0137308D01*
X0204821Y0138298D01*
X0204821Y0139369D01*
X0205231Y0140358D01*
X0205988Y0141116D01*
X0206978Y0141525D01*
X0208049Y0141525D01*
X0209038Y0141116D01*
X0209796Y0140358D01*
X0210205Y0139369D01*
X0210205Y0138298D01*
X0209796Y0137308D01*
X0209038Y0136551D01*
X0208049Y0136141D01*
X0209230Y0136743D02*
X0223709Y0136743D01*
X0223709Y0137741D02*
X0209975Y0137741D01*
X0210205Y0138740D02*
X0223709Y0138740D01*
X0223709Y0139738D02*
X0210052Y0139738D01*
X0209417Y0140737D02*
X0223709Y0140737D01*
X0223709Y0141735D02*
X0197605Y0141735D01*
X0197605Y0141769D02*
X0197196Y0142758D01*
X0196438Y0143516D01*
X0195449Y0143925D01*
X0194378Y0143925D01*
X0194096Y0143809D01*
X0194196Y0143908D01*
X0194605Y0144898D01*
X0194605Y0145969D01*
X0194196Y0146958D01*
X0193620Y0147533D01*
X0194196Y0148108D01*
X0194605Y0149098D01*
X0194605Y0150169D01*
X0194196Y0151158D01*
X0193620Y0151733D01*
X0194196Y0152308D01*
X0194605Y0153298D01*
X0194605Y0154369D01*
X0194196Y0155358D01*
X0193620Y0155933D01*
X0194196Y0156508D01*
X0194605Y0157498D01*
X0194605Y0158569D01*
X0194196Y0159558D01*
X0193920Y0159833D01*
X0194196Y0160108D01*
X0194605Y0161098D01*
X0194605Y0162169D01*
X0194196Y0163158D01*
X0193438Y0163916D01*
X0192449Y0164325D01*
X0191378Y0164325D01*
X0190388Y0163916D01*
X0189813Y0163341D01*
X0189238Y0163916D01*
X0188249Y0164325D01*
X0187178Y0164325D01*
X0186188Y0163916D01*
X0185431Y0163158D01*
X0185021Y0162169D01*
X0185021Y0161098D01*
X0185431Y0160108D01*
X0185706Y0159833D01*
X0185431Y0159558D01*
X0185021Y0158569D01*
X0185021Y0157498D01*
X0185431Y0156508D01*
X0186006Y0155933D01*
X0185431Y0155358D01*
X0185021Y0154369D01*
X0185021Y0153298D01*
X0185431Y0152308D01*
X0186006Y0151733D01*
X0185431Y0151158D01*
X0185021Y0150169D01*
X0185021Y0149098D01*
X0185431Y0148108D01*
X0186006Y0147533D01*
X0185431Y0146958D01*
X0185021Y0145969D01*
X0185021Y0144898D01*
X0185431Y0143908D01*
X0186188Y0143151D01*
X0187178Y0142741D01*
X0188249Y0142741D01*
X0189238Y0143151D01*
X0189813Y0143726D01*
X0190388Y0143151D01*
X0191378Y0142741D01*
X0192449Y0142741D01*
X0192731Y0142858D01*
X0192631Y0142758D01*
X0192221Y0141769D01*
X0192221Y0140698D01*
X0192631Y0139708D01*
X0193388Y0138951D01*
X0194378Y0138541D01*
X0195449Y0138541D01*
X0196438Y0138951D01*
X0197196Y0139708D01*
X0197605Y0140698D01*
X0197605Y0141769D01*
X0197605Y0140737D02*
X0205609Y0140737D01*
X0204974Y0139738D02*
X0197208Y0139738D01*
X0195928Y0138740D02*
X0204821Y0138740D01*
X0205052Y0137741D02*
X0192154Y0137741D01*
X0192480Y0137415D02*
X0191695Y0138200D01*
X0190669Y0138625D01*
X0189558Y0138625D01*
X0188532Y0138200D01*
X0187746Y0137415D01*
X0187321Y0136389D01*
X0187321Y0135278D01*
X0187746Y0134252D01*
X0188532Y0133466D01*
X0189558Y0133041D01*
X0190669Y0133041D01*
X0191695Y0133466D01*
X0192480Y0134252D01*
X0192905Y0135278D01*
X0192905Y0136389D01*
X0192480Y0137415D01*
X0192759Y0136743D02*
X0205797Y0136743D01*
X0205820Y0133747D02*
X0191976Y0133747D01*
X0192685Y0134745D02*
X0223709Y0134745D01*
X0223709Y0135744D02*
X0192905Y0135744D01*
X0193899Y0138740D02*
X0093347Y0138740D01*
X0093480Y0138417D02*
X0092937Y0139728D01*
X0091934Y0140731D01*
X0090623Y0141274D01*
X0089204Y0141274D01*
X0087893Y0140731D01*
X0086889Y0139728D01*
X0086346Y0138417D01*
X0086346Y0136998D01*
X0086889Y0135687D01*
X0087893Y0134683D01*
X0089204Y0134140D01*
X0090623Y0134140D01*
X0091934Y0134683D01*
X0092937Y0135687D01*
X0093480Y0136998D01*
X0093480Y0138417D01*
X0093480Y0137741D02*
X0188072Y0137741D01*
X0187468Y0136743D02*
X0093374Y0136743D01*
X0092961Y0135744D02*
X0187321Y0135744D01*
X0187542Y0134745D02*
X0091996Y0134745D01*
X0091934Y0132857D02*
X0090623Y0133400D01*
X0089204Y0133400D01*
X0087893Y0132857D01*
X0086889Y0131854D01*
X0086346Y0130543D01*
X0086346Y0129124D01*
X0086889Y0127813D01*
X0087893Y0126809D01*
X0089204Y0126266D01*
X0090623Y0126266D01*
X0091934Y0126809D01*
X0092937Y0127813D01*
X0093480Y0129124D01*
X0093480Y0130543D01*
X0092937Y0131854D01*
X0091934Y0132857D01*
X0092042Y0132748D02*
X0205061Y0132748D01*
X0204821Y0131750D02*
X0092980Y0131750D01*
X0093394Y0130751D02*
X0204965Y0130751D01*
X0205586Y0129753D02*
X0093480Y0129753D01*
X0093327Y0128754D02*
X0127041Y0128754D01*
X0126392Y0127756D02*
X0092880Y0127756D01*
X0091808Y0126757D02*
X0126231Y0126757D01*
X0126455Y0125759D02*
X0069197Y0125759D01*
X0069197Y0126757D02*
X0088018Y0126757D01*
X0086946Y0127756D02*
X0069197Y0127756D01*
X0069197Y0128754D02*
X0086499Y0128754D01*
X0086346Y0129753D02*
X0069197Y0129753D01*
X0069197Y0130751D02*
X0086433Y0130751D01*
X0086846Y0131750D02*
X0069197Y0131750D01*
X0069197Y0132748D02*
X0087784Y0132748D01*
X0087831Y0134745D02*
X0069197Y0134745D01*
X0069197Y0133747D02*
X0188251Y0133747D01*
X0192191Y0128754D02*
X0130785Y0128754D01*
X0131434Y0127756D02*
X0190843Y0127756D01*
X0190431Y0126757D02*
X0131595Y0126757D01*
X0131381Y0125759D02*
X0190431Y0125759D01*
X0190820Y0124760D02*
X0132208Y0124760D01*
X0132495Y0123762D02*
X0192071Y0123762D01*
X0206704Y0119768D02*
X0128895Y0119768D01*
X0128813Y0120766D02*
X0207239Y0120766D01*
X0206621Y0118769D02*
X0128593Y0118769D01*
X0127744Y0117771D02*
X0206922Y0117771D01*
X0206954Y0116772D02*
X0092271Y0116772D01*
X0091934Y0117109D02*
X0090623Y0117652D01*
X0089204Y0117652D01*
X0087893Y0117109D01*
X0086889Y0116106D01*
X0086346Y0114795D01*
X0086346Y0113376D01*
X0086889Y0112065D01*
X0087893Y0111061D01*
X0089204Y0110518D01*
X0090623Y0110518D01*
X0091934Y0111061D01*
X0092937Y0112065D01*
X0093480Y0113376D01*
X0093480Y0114795D01*
X0092937Y0116106D01*
X0091934Y0117109D01*
X0093075Y0115774D02*
X0206621Y0115774D01*
X0206672Y0114775D02*
X0093480Y0114775D01*
X0093480Y0113777D02*
X0207163Y0113777D01*
X0206791Y0112778D02*
X0093233Y0112778D01*
X0092652Y0111780D02*
X0206621Y0111780D01*
X0206835Y0110781D02*
X0091257Y0110781D01*
X0088569Y0110781D02*
X0069197Y0110781D01*
X0069197Y0109783D02*
X0147670Y0109783D01*
X0146887Y0108784D02*
X0069197Y0108784D01*
X0069197Y0107786D02*
X0141784Y0107786D01*
X0140771Y0106787D02*
X0069197Y0106787D01*
X0069197Y0105789D02*
X0140431Y0105789D01*
X0140477Y0104790D02*
X0069197Y0104790D01*
X0069197Y0103792D02*
X0140962Y0103792D01*
X0141031Y0102793D02*
X0069197Y0102793D01*
X0069197Y0101795D02*
X0141116Y0101795D01*
X0141657Y0100796D02*
X0069197Y0100796D01*
X0069197Y0111780D02*
X0087174Y0111780D01*
X0086594Y0112778D02*
X0069197Y0112778D01*
X0069197Y0113777D02*
X0086346Y0113777D01*
X0086346Y0114775D02*
X0069197Y0114775D01*
X0069197Y0115774D02*
X0086752Y0115774D01*
X0087556Y0116772D02*
X0069197Y0116772D01*
X0069197Y0117771D02*
X0124683Y0117771D01*
X0123834Y0118769D02*
X0069197Y0118769D01*
X0069197Y0119768D02*
X0123531Y0119768D01*
X0123614Y0120766D02*
X0069197Y0120766D01*
X0069197Y0121765D02*
X0124152Y0121765D01*
X0127229Y0122763D02*
X0069197Y0122763D01*
X0069197Y0123762D02*
X0127131Y0123762D01*
X0127193Y0124760D02*
X0069197Y0124760D01*
X0069197Y0135744D02*
X0086866Y0135744D01*
X0086452Y0136743D02*
X0069197Y0136743D01*
X0069197Y0137741D02*
X0086346Y0137741D01*
X0086480Y0138740D02*
X0069197Y0138740D01*
X0069197Y0139738D02*
X0086900Y0139738D01*
X0087906Y0140737D02*
X0069197Y0140737D01*
X0069197Y0141735D02*
X0136477Y0141735D01*
X0136680Y0141651D02*
X0137134Y0141651D01*
X0137439Y0140914D01*
X0138194Y0140160D01*
X0139180Y0139751D01*
X0140247Y0139751D01*
X0141233Y0140160D01*
X0141987Y0140914D01*
X0142395Y0141900D01*
X0142395Y0142967D01*
X0141987Y0143953D01*
X0141706Y0144233D01*
X0141987Y0144514D01*
X0142395Y0145500D01*
X0142395Y0146567D01*
X0141987Y0147553D01*
X0141233Y0148307D01*
X0140247Y0148715D01*
X0139180Y0148715D01*
X0138194Y0148307D01*
X0137439Y0147553D01*
X0137217Y0147015D01*
X0136680Y0147015D01*
X0135694Y0146607D01*
X0134939Y0145853D01*
X0134531Y0144867D01*
X0134531Y0143800D01*
X0134939Y0142814D01*
X0135694Y0142060D01*
X0136680Y0141651D01*
X0137617Y0140737D02*
X0091921Y0140737D01*
X0092927Y0139738D02*
X0192619Y0139738D01*
X0192221Y0140737D02*
X0153077Y0140737D01*
X0153133Y0140760D02*
X0153887Y0141514D01*
X0154027Y0141851D01*
X0154947Y0141851D01*
X0155933Y0142260D01*
X0156687Y0143014D01*
X0157095Y0144000D01*
X0157095Y0144235D01*
X0157780Y0143951D01*
X0158847Y0143951D01*
X0159833Y0144360D01*
X0160587Y0145114D01*
X0160995Y0146100D01*
X0160995Y0147167D01*
X0160587Y0148153D01*
X0160306Y0148433D01*
X0160587Y0148714D01*
X0160995Y0149700D01*
X0160995Y0150767D01*
X0160587Y0151753D01*
X0159833Y0152507D01*
X0158847Y0152915D01*
X0157780Y0152915D01*
X0156794Y0152507D01*
X0156039Y0151753D01*
X0155631Y0150767D01*
X0155631Y0149700D01*
X0156039Y0148714D01*
X0156320Y0148433D01*
X0156039Y0148153D01*
X0155631Y0147167D01*
X0155631Y0146932D01*
X0154947Y0147215D01*
X0154068Y0147215D01*
X0153887Y0147653D01*
X0153133Y0148407D01*
X0152147Y0148815D01*
X0151080Y0148815D01*
X0150094Y0148407D01*
X0149339Y0147653D01*
X0148931Y0146667D01*
X0148931Y0145600D01*
X0149339Y0144614D01*
X0149370Y0144583D01*
X0149339Y0144553D01*
X0148931Y0143567D01*
X0148931Y0142500D01*
X0149339Y0141514D01*
X0150094Y0140760D01*
X0151080Y0140351D01*
X0152147Y0140351D01*
X0153133Y0140760D01*
X0153979Y0141735D02*
X0192221Y0141735D01*
X0192621Y0142734D02*
X0156407Y0142734D01*
X0156984Y0143732D02*
X0185607Y0143732D01*
X0185090Y0144731D02*
X0160204Y0144731D01*
X0160842Y0145729D02*
X0185021Y0145729D01*
X0185335Y0146728D02*
X0160995Y0146728D01*
X0160764Y0147726D02*
X0185813Y0147726D01*
X0185176Y0148725D02*
X0160591Y0148725D01*
X0160995Y0149723D02*
X0185021Y0149723D01*
X0185250Y0150722D02*
X0160995Y0150722D01*
X0160600Y0151720D02*
X0185993Y0151720D01*
X0185261Y0152719D02*
X0159322Y0152719D01*
X0157305Y0152719D02*
X0093417Y0152719D01*
X0093480Y0152872D02*
X0092937Y0151561D01*
X0091934Y0150557D01*
X0090623Y0150014D01*
X0089204Y0150014D01*
X0087893Y0150557D01*
X0086889Y0151561D01*
X0086346Y0152872D01*
X0086346Y0154291D01*
X0086889Y0155602D01*
X0087893Y0156605D01*
X0089204Y0157148D01*
X0090623Y0157148D01*
X0091934Y0156605D01*
X0092937Y0155602D01*
X0093480Y0154291D01*
X0093480Y0152872D01*
X0093480Y0153717D02*
X0185021Y0153717D01*
X0185165Y0154716D02*
X0093304Y0154716D01*
X0092825Y0155714D02*
X0185787Y0155714D01*
X0185346Y0156713D02*
X0091674Y0156713D01*
X0088152Y0156713D02*
X0069197Y0156713D01*
X0069197Y0157711D02*
X0185021Y0157711D01*
X0185080Y0158710D02*
X0132183Y0158710D01*
X0132387Y0158914D02*
X0132651Y0159551D01*
X0133647Y0159551D01*
X0134633Y0159960D01*
X0135387Y0160714D01*
X0135795Y0161700D01*
X0135795Y0162767D01*
X0135387Y0163753D01*
X0134633Y0164507D01*
X0133647Y0164915D01*
X0132651Y0164915D01*
X0132387Y0165553D01*
X0131633Y0166307D01*
X0130647Y0166715D01*
X0129580Y0166715D01*
X0128594Y0166307D01*
X0127839Y0165553D01*
X0127431Y0164567D01*
X0127431Y0163500D01*
X0127839Y0162514D01*
X0128120Y0162233D01*
X0127839Y0161953D01*
X0127431Y0160967D01*
X0127431Y0159900D01*
X0127839Y0158914D01*
X0128594Y0158160D01*
X0129580Y0157751D01*
X0130647Y0157751D01*
X0131633Y0158160D01*
X0132387Y0158914D01*
X0134026Y0159708D02*
X0185581Y0159708D01*
X0185183Y0160707D02*
X0135380Y0160707D01*
X0135795Y0161705D02*
X0185021Y0161705D01*
X0185243Y0162704D02*
X0135795Y0162704D01*
X0135408Y0163702D02*
X0185975Y0163702D01*
X0189451Y0163702D02*
X0190175Y0163702D01*
X0193651Y0163702D02*
X0223709Y0163702D01*
X0223709Y0162704D02*
X0194384Y0162704D01*
X0194605Y0161705D02*
X0223709Y0161705D01*
X0223709Y0160707D02*
X0194443Y0160707D01*
X0194046Y0159708D02*
X0223709Y0159708D01*
X0223709Y0158710D02*
X0194547Y0158710D01*
X0194605Y0157711D02*
X0223709Y0157711D01*
X0223709Y0156713D02*
X0194280Y0156713D01*
X0193840Y0155714D02*
X0223709Y0155714D01*
X0223709Y0154716D02*
X0194462Y0154716D01*
X0194605Y0153717D02*
X0223709Y0153717D01*
X0223709Y0152719D02*
X0194365Y0152719D01*
X0193634Y0151720D02*
X0223709Y0151720D01*
X0223709Y0150722D02*
X0194376Y0150722D01*
X0194605Y0149723D02*
X0223709Y0149723D01*
X0223709Y0148725D02*
X0194451Y0148725D01*
X0193813Y0147726D02*
X0223709Y0147726D01*
X0223709Y0146728D02*
X0194291Y0146728D01*
X0194605Y0145729D02*
X0223709Y0145729D01*
X0223709Y0144731D02*
X0194536Y0144731D01*
X0195916Y0143732D02*
X0223709Y0143732D01*
X0223709Y0142734D02*
X0197206Y0142734D01*
X0204802Y0166698D02*
X0223709Y0166698D01*
X0223709Y0167696D02*
X0205979Y0167696D01*
X0206733Y0168695D02*
X0223709Y0168695D01*
X0223709Y0169693D02*
X0207211Y0169693D01*
X0207479Y0170692D02*
X0223709Y0170692D01*
X0223709Y0171690D02*
X0207513Y0171690D01*
X0207513Y0172689D02*
X0223709Y0172689D01*
X0223709Y0173687D02*
X0207513Y0173687D01*
X0207513Y0174686D02*
X0223709Y0174686D01*
X0223709Y0175684D02*
X0207513Y0175684D01*
X0207513Y0176683D02*
X0223709Y0176683D01*
X0223709Y0177681D02*
X0207513Y0177681D01*
X0207513Y0178680D02*
X0223709Y0178680D01*
X0223709Y0179679D02*
X0207513Y0179679D01*
X0207513Y0180677D02*
X0223709Y0180677D01*
X0223709Y0181676D02*
X0207513Y0181676D01*
X0207513Y0182674D02*
X0223709Y0182674D01*
X0223709Y0183673D02*
X0207513Y0183673D01*
X0207513Y0184671D02*
X0223709Y0184671D01*
X0223709Y0185670D02*
X0207513Y0185670D01*
X0207513Y0186668D02*
X0223709Y0186668D01*
X0223639Y0187667D02*
X0207513Y0187667D01*
X0207513Y0188665D02*
X0223226Y0188665D01*
X0222381Y0189664D02*
X0207513Y0189664D01*
X0179913Y0189664D02*
X0070525Y0189664D01*
X0069681Y0188665D02*
X0100781Y0188665D01*
X0100964Y0188848D02*
X0099698Y0187582D01*
X0099013Y0185928D01*
X0099013Y0184138D01*
X0099698Y0182484D01*
X0100964Y0181218D01*
X0102618Y0180533D01*
X0104408Y0180533D01*
X0106062Y0181218D01*
X0107328Y0182484D01*
X0108013Y0184138D01*
X0108013Y0185928D01*
X0107328Y0187582D01*
X0106062Y0188848D01*
X0104408Y0189533D01*
X0102618Y0189533D01*
X0100964Y0188848D01*
X0099783Y0187667D02*
X0069267Y0187667D01*
X0069197Y0186668D02*
X0099320Y0186668D01*
X0099013Y0185670D02*
X0069197Y0185670D01*
X0069197Y0184671D02*
X0099013Y0184671D01*
X0099206Y0183673D02*
X0069197Y0183673D01*
X0069197Y0182674D02*
X0099620Y0182674D01*
X0100507Y0181676D02*
X0069197Y0181676D01*
X0069197Y0180677D02*
X0102271Y0180677D01*
X0104755Y0180677D02*
X0122271Y0180677D01*
X0122618Y0180533D02*
X0124408Y0180533D01*
X0126062Y0181218D01*
X0127328Y0182484D01*
X0128013Y0184138D01*
X0128013Y0185928D01*
X0127328Y0187582D01*
X0126062Y0188848D01*
X0124408Y0189533D01*
X0122618Y0189533D01*
X0120964Y0188848D01*
X0119698Y0187582D01*
X0119013Y0185928D01*
X0119013Y0184138D01*
X0119698Y0182484D01*
X0120964Y0181218D01*
X0122618Y0180533D01*
X0124755Y0180677D02*
X0179913Y0180677D01*
X0179913Y0179679D02*
X0069197Y0179679D01*
X0069197Y0178680D02*
X0179913Y0178680D01*
X0179913Y0177681D02*
X0069197Y0177681D01*
X0069197Y0176683D02*
X0179913Y0176683D01*
X0179913Y0175684D02*
X0144522Y0175684D01*
X0144447Y0175715D02*
X0143380Y0175715D01*
X0142413Y0175315D01*
X0141447Y0175715D01*
X0140380Y0175715D01*
X0139394Y0175307D01*
X0138639Y0174553D01*
X0138231Y0173567D01*
X0138231Y0173315D01*
X0137980Y0173315D01*
X0136994Y0172907D01*
X0136239Y0172153D01*
X0135831Y0171167D01*
X0135831Y0170100D01*
X0136239Y0169114D01*
X0136994Y0168360D01*
X0137980Y0167951D01*
X0139047Y0167951D01*
X0140033Y0168360D01*
X0140787Y0169114D01*
X0141195Y0170100D01*
X0141195Y0170351D01*
X0141447Y0170351D01*
X0142413Y0170752D01*
X0143380Y0170351D01*
X0143631Y0170351D01*
X0143631Y0170100D01*
X0144039Y0169114D01*
X0144794Y0168360D01*
X0145780Y0167951D01*
X0146847Y0167951D01*
X0147833Y0168360D01*
X0148587Y0169114D01*
X0148995Y0170100D01*
X0148995Y0171167D01*
X0148587Y0172153D01*
X0147833Y0172907D01*
X0146847Y0173315D01*
X0146595Y0173315D01*
X0146595Y0173567D01*
X0146187Y0174553D01*
X0145433Y0175307D01*
X0144447Y0175715D01*
X0143305Y0175684D02*
X0141522Y0175684D01*
X0140305Y0175684D02*
X0069197Y0175684D01*
X0069197Y0174686D02*
X0138773Y0174686D01*
X0138281Y0173687D02*
X0093019Y0173687D01*
X0093301Y0173571D02*
X0091881Y0174159D01*
X0090345Y0174159D01*
X0088925Y0173571D01*
X0087839Y0172484D01*
X0087251Y0171065D01*
X0087251Y0169528D01*
X0087839Y0168109D01*
X0088925Y0167022D01*
X0090345Y0166434D01*
X0091881Y0166434D01*
X0093301Y0167022D01*
X0094387Y0168109D01*
X0094975Y0169528D01*
X0094975Y0171065D01*
X0094387Y0172484D01*
X0093301Y0173571D01*
X0094183Y0172689D02*
X0136776Y0172689D01*
X0136048Y0171690D02*
X0094716Y0171690D01*
X0094975Y0170692D02*
X0135831Y0170692D01*
X0135999Y0169693D02*
X0094975Y0169693D01*
X0094630Y0168695D02*
X0136659Y0168695D01*
X0140368Y0168695D02*
X0144459Y0168695D01*
X0143799Y0169693D02*
X0141027Y0169693D01*
X0142269Y0170692D02*
X0142557Y0170692D01*
X0146545Y0173687D02*
X0179913Y0173687D01*
X0179913Y0172689D02*
X0148051Y0172689D01*
X0148778Y0171690D02*
X0179913Y0171690D01*
X0179926Y0170692D02*
X0148995Y0170692D01*
X0148827Y0169693D02*
X0180062Y0169693D01*
X0180415Y0168695D02*
X0148168Y0168695D01*
X0146054Y0174686D02*
X0179913Y0174686D01*
X0179913Y0181676D02*
X0126519Y0181676D01*
X0127407Y0182674D02*
X0179913Y0182674D01*
X0179913Y0183673D02*
X0127820Y0183673D01*
X0128013Y0184671D02*
X0179913Y0184671D01*
X0179913Y0185670D02*
X0128013Y0185670D01*
X0127707Y0186668D02*
X0179913Y0186668D01*
X0179913Y0187667D02*
X0127244Y0187667D01*
X0126245Y0188665D02*
X0179913Y0188665D01*
X0181029Y0167696D02*
X0093975Y0167696D01*
X0092518Y0166698D02*
X0129537Y0166698D01*
X0130689Y0166698D02*
X0182135Y0166698D01*
X0156026Y0151720D02*
X0093003Y0151720D01*
X0092098Y0150722D02*
X0155631Y0150722D01*
X0155631Y0149723D02*
X0069197Y0149723D01*
X0069197Y0148725D02*
X0150861Y0148725D01*
X0152366Y0148725D02*
X0156035Y0148725D01*
X0155863Y0147726D02*
X0153814Y0147726D01*
X0149413Y0147726D02*
X0141814Y0147726D01*
X0142329Y0146728D02*
X0148956Y0146728D01*
X0148931Y0145729D02*
X0142395Y0145729D01*
X0142077Y0144731D02*
X0149291Y0144731D01*
X0149000Y0143732D02*
X0142078Y0143732D01*
X0142395Y0142734D02*
X0148931Y0142734D01*
X0149248Y0141735D02*
X0142327Y0141735D01*
X0141810Y0140737D02*
X0150149Y0140737D01*
X0137613Y0147726D02*
X0069197Y0147726D01*
X0069197Y0146728D02*
X0135985Y0146728D01*
X0134888Y0145729D02*
X0069197Y0145729D01*
X0069197Y0144731D02*
X0134531Y0144731D01*
X0134559Y0143732D02*
X0069197Y0143732D01*
X0069197Y0142734D02*
X0135020Y0142734D01*
X0128044Y0158710D02*
X0069197Y0158710D01*
X0069197Y0159708D02*
X0127510Y0159708D01*
X0127431Y0160707D02*
X0069197Y0160707D01*
X0069197Y0161705D02*
X0127737Y0161705D01*
X0127761Y0162704D02*
X0069197Y0162704D01*
X0069197Y0163702D02*
X0127431Y0163702D01*
X0127487Y0164701D02*
X0069197Y0164701D01*
X0069197Y0165699D02*
X0127986Y0165699D01*
X0132240Y0165699D02*
X0223709Y0165699D01*
X0223709Y0164701D02*
X0134165Y0164701D01*
X0120507Y0181676D02*
X0106519Y0181676D01*
X0107407Y0182674D02*
X0119620Y0182674D01*
X0119206Y0183673D02*
X0107820Y0183673D01*
X0108013Y0184671D02*
X0119013Y0184671D01*
X0119013Y0185670D02*
X0108013Y0185670D01*
X0107707Y0186668D02*
X0119320Y0186668D01*
X0119783Y0187667D02*
X0107244Y0187667D01*
X0106245Y0188665D02*
X0120781Y0188665D01*
X0089708Y0166698D02*
X0069197Y0166698D01*
X0069197Y0167696D02*
X0088251Y0167696D01*
X0087596Y0168695D02*
X0069197Y0168695D01*
X0069197Y0169693D02*
X0087251Y0169693D01*
X0087251Y0170692D02*
X0069197Y0170692D01*
X0069197Y0171690D02*
X0087510Y0171690D01*
X0088044Y0172689D02*
X0069197Y0172689D01*
X0069197Y0173687D02*
X0089208Y0173687D01*
X0087002Y0155714D02*
X0069197Y0155714D01*
X0069197Y0154716D02*
X0086522Y0154716D01*
X0086346Y0153717D02*
X0069197Y0153717D01*
X0069197Y0152719D02*
X0086410Y0152719D01*
X0086823Y0151720D02*
X0069197Y0151720D01*
X0069197Y0150722D02*
X0087729Y0150722D01*
X0144443Y0107786D02*
X0146631Y0107786D01*
X0146761Y0106787D02*
X0145456Y0106787D01*
X0144656Y0099798D02*
X0095477Y0099798D01*
X0096296Y0098799D02*
X0146023Y0098799D01*
X0147804Y0098799D02*
X0173673Y0098799D01*
X0172273Y0097801D02*
X0096609Y0097801D01*
X0096513Y0085818D02*
X0200334Y0085818D01*
X0199431Y0084820D02*
X0096513Y0084820D01*
X0096513Y0083821D02*
X0199017Y0083821D01*
X0198813Y0082823D02*
X0096513Y0082823D01*
X0096513Y0081824D02*
X0198813Y0081824D01*
X0199108Y0080826D02*
X0125469Y0080826D01*
X0126124Y0079827D02*
X0199555Y0079827D01*
X0200554Y0078829D02*
X0126305Y0078829D01*
X0126120Y0077830D02*
X0221954Y0077830D01*
X0223066Y0078829D02*
X0206073Y0078829D01*
X0207071Y0079827D02*
X0223509Y0079827D01*
X0223709Y0080826D02*
X0207518Y0080826D01*
X0207813Y0081824D02*
X0223709Y0081824D01*
X0223709Y0082823D02*
X0207813Y0082823D01*
X0207609Y0083821D02*
X0223709Y0083821D01*
X0223709Y0084820D02*
X0207195Y0084820D01*
X0206292Y0085818D02*
X0223709Y0085818D01*
X0208180Y0105789D02*
X0157262Y0105789D01*
X0157866Y0106787D02*
X0206998Y0106787D01*
X0206621Y0107786D02*
X0157995Y0107786D01*
X0157740Y0108784D02*
X0206627Y0108784D01*
X0207055Y0109783D02*
X0156957Y0109783D01*
X0171835Y0096802D02*
X0120003Y0096802D01*
X0121049Y0095804D02*
X0171821Y0095804D01*
X0172191Y0094805D02*
X0121395Y0094805D01*
X0123133Y0093807D02*
X0173337Y0093807D01*
X0121557Y0080826D02*
X0096513Y0080826D01*
X0096513Y0079827D02*
X0120903Y0079827D01*
X0120721Y0078829D02*
X0096513Y0078829D01*
X0096513Y0077830D02*
X0120907Y0077830D01*
M02*
