G75*
%MOIN*%
%OFA0B0*%
%FSLAX24Y24*%
%IPPOS*%
%LPD*%
%AMOC8*
5,1,8,0,0,1.08239X$1,22.5*
%
%ADD10C,0.0000*%
%ADD11C,0.0600*%
%ADD12R,0.0630X0.0460*%
%ADD13C,0.0100*%
%ADD14C,0.0240*%
%ADD15C,0.0200*%
%ADD16C,0.0320*%
%ADD17C,0.0320*%
%ADD18C,0.0280*%
%ADD19C,0.0090*%
D10*
X004837Y005930D02*
X017337Y005930D01*
X016807Y006830D02*
X016809Y006880D01*
X016815Y006930D01*
X016825Y006979D01*
X016839Y007027D01*
X016856Y007074D01*
X016877Y007119D01*
X016902Y007163D01*
X016930Y007204D01*
X016962Y007243D01*
X016996Y007280D01*
X017033Y007314D01*
X017073Y007344D01*
X017115Y007371D01*
X017159Y007395D01*
X017205Y007416D01*
X017252Y007432D01*
X017300Y007445D01*
X017350Y007454D01*
X017399Y007459D01*
X017450Y007460D01*
X017500Y007457D01*
X017549Y007450D01*
X017598Y007439D01*
X017646Y007424D01*
X017692Y007406D01*
X017737Y007384D01*
X017780Y007358D01*
X017821Y007329D01*
X017860Y007297D01*
X017896Y007262D01*
X017928Y007224D01*
X017958Y007184D01*
X017985Y007141D01*
X018008Y007097D01*
X018027Y007051D01*
X018043Y007003D01*
X018055Y006954D01*
X018063Y006905D01*
X018067Y006855D01*
X018067Y006805D01*
X018063Y006755D01*
X018055Y006706D01*
X018043Y006657D01*
X018027Y006609D01*
X018008Y006563D01*
X017985Y006519D01*
X017958Y006476D01*
X017928Y006436D01*
X017896Y006398D01*
X017860Y006363D01*
X017821Y006331D01*
X017780Y006302D01*
X017737Y006276D01*
X017692Y006254D01*
X017646Y006236D01*
X017598Y006221D01*
X017549Y006210D01*
X017500Y006203D01*
X017450Y006200D01*
X017399Y006201D01*
X017350Y006206D01*
X017300Y006215D01*
X017252Y006228D01*
X017205Y006244D01*
X017159Y006265D01*
X017115Y006289D01*
X017073Y006316D01*
X017033Y006346D01*
X016996Y006380D01*
X016962Y006417D01*
X016930Y006456D01*
X016902Y006497D01*
X016877Y006541D01*
X016856Y006586D01*
X016839Y006633D01*
X016825Y006681D01*
X016815Y006730D01*
X016809Y006780D01*
X016807Y006830D01*
X017337Y005930D02*
X017397Y005932D01*
X017458Y005937D01*
X017517Y005946D01*
X017576Y005959D01*
X017635Y005975D01*
X017692Y005995D01*
X017747Y006018D01*
X017802Y006045D01*
X017854Y006074D01*
X017905Y006107D01*
X017954Y006143D01*
X018000Y006181D01*
X018044Y006223D01*
X018086Y006267D01*
X018124Y006313D01*
X018160Y006362D01*
X018193Y006413D01*
X018222Y006465D01*
X018249Y006520D01*
X018272Y006575D01*
X018292Y006632D01*
X018308Y006691D01*
X018321Y006750D01*
X018330Y006809D01*
X018335Y006870D01*
X018337Y006930D01*
X018337Y013430D01*
X018335Y013490D01*
X018330Y013551D01*
X018321Y013610D01*
X018308Y013669D01*
X018292Y013728D01*
X018272Y013785D01*
X018249Y013840D01*
X018222Y013895D01*
X018193Y013947D01*
X018160Y013998D01*
X018124Y014047D01*
X018086Y014093D01*
X018044Y014137D01*
X018000Y014179D01*
X017954Y014217D01*
X017905Y014253D01*
X017854Y014286D01*
X017802Y014315D01*
X017747Y014342D01*
X017692Y014365D01*
X017635Y014385D01*
X017576Y014401D01*
X017517Y014414D01*
X017458Y014423D01*
X017397Y014428D01*
X017337Y014430D01*
X004837Y014430D01*
X004107Y013530D02*
X004109Y013580D01*
X004115Y013630D01*
X004125Y013679D01*
X004139Y013727D01*
X004156Y013774D01*
X004177Y013819D01*
X004202Y013863D01*
X004230Y013904D01*
X004262Y013943D01*
X004296Y013980D01*
X004333Y014014D01*
X004373Y014044D01*
X004415Y014071D01*
X004459Y014095D01*
X004505Y014116D01*
X004552Y014132D01*
X004600Y014145D01*
X004650Y014154D01*
X004699Y014159D01*
X004750Y014160D01*
X004800Y014157D01*
X004849Y014150D01*
X004898Y014139D01*
X004946Y014124D01*
X004992Y014106D01*
X005037Y014084D01*
X005080Y014058D01*
X005121Y014029D01*
X005160Y013997D01*
X005196Y013962D01*
X005228Y013924D01*
X005258Y013884D01*
X005285Y013841D01*
X005308Y013797D01*
X005327Y013751D01*
X005343Y013703D01*
X005355Y013654D01*
X005363Y013605D01*
X005367Y013555D01*
X005367Y013505D01*
X005363Y013455D01*
X005355Y013406D01*
X005343Y013357D01*
X005327Y013309D01*
X005308Y013263D01*
X005285Y013219D01*
X005258Y013176D01*
X005228Y013136D01*
X005196Y013098D01*
X005160Y013063D01*
X005121Y013031D01*
X005080Y013002D01*
X005037Y012976D01*
X004992Y012954D01*
X004946Y012936D01*
X004898Y012921D01*
X004849Y012910D01*
X004800Y012903D01*
X004750Y012900D01*
X004699Y012901D01*
X004650Y012906D01*
X004600Y012915D01*
X004552Y012928D01*
X004505Y012944D01*
X004459Y012965D01*
X004415Y012989D01*
X004373Y013016D01*
X004333Y013046D01*
X004296Y013080D01*
X004262Y013117D01*
X004230Y013156D01*
X004202Y013197D01*
X004177Y013241D01*
X004156Y013286D01*
X004139Y013333D01*
X004125Y013381D01*
X004115Y013430D01*
X004109Y013480D01*
X004107Y013530D01*
X003837Y013430D02*
X003837Y006930D01*
X003839Y006870D01*
X003844Y006809D01*
X003853Y006750D01*
X003866Y006691D01*
X003882Y006632D01*
X003902Y006575D01*
X003925Y006520D01*
X003952Y006465D01*
X003981Y006413D01*
X004014Y006362D01*
X004050Y006313D01*
X004088Y006267D01*
X004130Y006223D01*
X004174Y006181D01*
X004220Y006143D01*
X004269Y006107D01*
X004320Y006074D01*
X004372Y006045D01*
X004427Y006018D01*
X004482Y005995D01*
X004539Y005975D01*
X004598Y005959D01*
X004657Y005946D01*
X004716Y005937D01*
X004777Y005932D01*
X004837Y005930D01*
X003837Y013430D02*
X003839Y013490D01*
X003844Y013551D01*
X003853Y013610D01*
X003866Y013669D01*
X003882Y013728D01*
X003902Y013785D01*
X003925Y013840D01*
X003952Y013895D01*
X003981Y013947D01*
X004014Y013998D01*
X004050Y014047D01*
X004088Y014093D01*
X004130Y014137D01*
X004174Y014179D01*
X004220Y014217D01*
X004269Y014253D01*
X004320Y014286D01*
X004372Y014315D01*
X004427Y014342D01*
X004482Y014365D01*
X004539Y014385D01*
X004598Y014401D01*
X004657Y014414D01*
X004716Y014423D01*
X004777Y014428D01*
X004837Y014430D01*
D11*
X009007Y007190D02*
X009007Y006590D01*
X010007Y006590D02*
X010007Y007190D01*
X011007Y007190D02*
X011007Y006590D01*
X012007Y006590D02*
X012007Y007190D01*
X016837Y008330D02*
X017437Y008330D01*
X017437Y009330D02*
X016837Y009330D01*
X016837Y010330D02*
X017437Y010330D01*
X017437Y011330D02*
X016837Y011330D01*
X016837Y012330D02*
X017437Y012330D01*
X017437Y013330D02*
X016837Y013330D01*
D12*
X015827Y013280D03*
X015827Y013880D03*
X014577Y013880D03*
X014577Y013280D03*
X014577Y012680D03*
X013377Y012680D03*
X013377Y013280D03*
X013377Y013880D03*
X015827Y012680D03*
D13*
X004233Y005873D02*
X003797Y005870D01*
X003801Y006297D01*
X003970Y006064D01*
X003970Y006064D01*
X004233Y005873D01*
X004189Y005905D02*
X003797Y005905D01*
X003798Y006003D02*
X004053Y006003D01*
X003970Y006064D02*
X003970Y006064D01*
X003943Y006102D02*
X003799Y006102D01*
X003800Y006200D02*
X003871Y006200D01*
X004187Y006496D02*
X008497Y006496D01*
X008497Y006489D02*
X008574Y006301D01*
X008718Y006158D01*
X008760Y006140D01*
X004837Y006140D01*
X004713Y006150D01*
X004478Y006226D01*
X004278Y006371D01*
X004133Y006571D01*
X004056Y006806D01*
X004047Y006930D01*
X004047Y013032D01*
X004261Y012818D01*
X004570Y012690D01*
X004904Y012690D01*
X005212Y012818D01*
X005449Y013054D01*
X005577Y013363D01*
X005577Y013697D01*
X005449Y014006D01*
X005234Y014220D01*
X012875Y014220D01*
X012852Y014197D01*
X012852Y013535D01*
X012836Y013535D01*
X012742Y013496D01*
X012636Y013390D01*
X012601Y013390D01*
X012480Y013340D01*
X012387Y013247D01*
X012337Y013126D01*
X012337Y013033D01*
X012070Y013300D01*
X011966Y013404D01*
X011830Y013460D01*
X009143Y013460D01*
X009007Y013404D01*
X008073Y012470D01*
X008017Y012334D01*
X008017Y012186D01*
X008073Y012050D01*
X008177Y011946D01*
X008313Y011890D01*
X008460Y011890D01*
X008596Y011946D01*
X009370Y012720D01*
X011603Y012720D01*
X013307Y011016D01*
X013443Y010960D01*
X014543Y010960D01*
X014167Y010584D01*
X014063Y010480D01*
X014007Y010344D01*
X014007Y010196D01*
X014063Y010060D01*
X014167Y009956D01*
X014303Y009900D01*
X014450Y009900D01*
X014586Y009956D01*
X014690Y010060D01*
X015590Y010960D01*
X016485Y010960D01*
X016548Y010898D01*
X016711Y010830D01*
X015460Y010830D01*
X015558Y010929D02*
X016517Y010929D01*
X016548Y010762D02*
X016404Y010619D01*
X016327Y010431D01*
X016327Y010229D01*
X016404Y010041D01*
X016548Y009898D01*
X016711Y009830D01*
X016548Y009762D01*
X016404Y009619D01*
X016327Y009431D01*
X016327Y009229D01*
X016404Y009041D01*
X016548Y008898D01*
X016711Y008830D01*
X016548Y008762D01*
X016404Y008619D01*
X016327Y008431D01*
X016327Y008229D01*
X016404Y008041D01*
X016548Y007898D01*
X016735Y007820D01*
X017538Y007820D01*
X017726Y007898D01*
X017869Y008041D01*
X017947Y008229D01*
X017947Y008431D01*
X017869Y008619D01*
X017726Y008762D01*
X017562Y008830D01*
X017726Y008898D01*
X017869Y009041D01*
X017947Y009229D01*
X017947Y009431D01*
X017869Y009619D01*
X017726Y009762D01*
X017562Y009830D01*
X017726Y009898D01*
X017869Y010041D01*
X017947Y010229D01*
X017947Y010431D01*
X017869Y010619D01*
X017726Y010762D01*
X017562Y010830D01*
X018127Y010830D01*
X018127Y010929D02*
X017756Y010929D01*
X017726Y010898D02*
X017869Y011041D01*
X017947Y011229D01*
X017947Y011431D01*
X017869Y011619D01*
X017726Y011762D01*
X017538Y011840D01*
X016735Y011840D01*
X016548Y011762D01*
X016485Y011700D01*
X013670Y011700D01*
X013070Y012300D01*
X013327Y012300D01*
X013327Y012630D01*
X013427Y012630D01*
X013427Y012730D01*
X013842Y012730D01*
X013842Y012893D01*
X013921Y012860D01*
X014052Y012860D01*
X014112Y012885D01*
X014112Y012730D01*
X014527Y012730D01*
X014527Y012630D01*
X014627Y012630D01*
X014627Y012730D01*
X015042Y012730D01*
X015042Y012867D01*
X015131Y012830D01*
X015262Y012830D01*
X015362Y012871D01*
X015362Y012730D01*
X015777Y012730D01*
X015777Y012630D01*
X015877Y012630D01*
X015877Y012730D01*
X016292Y012730D01*
X016292Y012903D01*
X016352Y012963D01*
X016352Y013168D01*
X016404Y013041D01*
X016548Y012898D01*
X016735Y012820D01*
X017538Y012820D01*
X017726Y012898D01*
X017869Y013041D01*
X017947Y013229D01*
X017947Y013431D01*
X017869Y013619D01*
X017726Y013762D01*
X017538Y013840D01*
X017065Y013840D01*
X016849Y014056D01*
X016762Y014143D01*
X016648Y014190D01*
X016352Y014190D01*
X016352Y014197D01*
X016329Y014220D01*
X017337Y014220D01*
X017460Y014210D01*
X017695Y014134D01*
X017895Y013989D01*
X018041Y013789D01*
X018117Y013554D01*
X018127Y013430D01*
X018127Y007328D01*
X017912Y007542D01*
X017604Y007670D01*
X017270Y007670D01*
X016961Y007542D01*
X016725Y007306D01*
X016597Y006997D01*
X016597Y006663D01*
X016725Y006354D01*
X016939Y006140D01*
X012253Y006140D01*
X012296Y006158D01*
X012439Y006301D01*
X012517Y006489D01*
X012517Y007291D01*
X012439Y007479D01*
X012296Y007622D01*
X012108Y007700D01*
X011967Y007700D01*
X011967Y007702D01*
X011919Y007816D01*
X011832Y007903D01*
X010642Y009093D01*
X010528Y009140D01*
X009505Y009140D01*
X009377Y009268D01*
X009377Y010186D01*
X009397Y010234D01*
X009397Y010366D01*
X009346Y010487D01*
X009254Y010580D01*
X009132Y010630D01*
X009001Y010630D01*
X008880Y010580D01*
X008817Y010517D01*
X008817Y010566D01*
X008837Y010614D01*
X008837Y010746D01*
X008786Y010867D01*
X008694Y010960D01*
X008572Y011010D01*
X008441Y011010D01*
X008320Y010960D01*
X008309Y010950D01*
X008306Y010957D01*
X008214Y011050D01*
X008092Y011100D01*
X007967Y011100D01*
X007967Y011186D01*
X007987Y011234D01*
X007987Y011366D01*
X007936Y011487D01*
X007844Y011580D01*
X007722Y011630D01*
X007591Y011630D01*
X007470Y011580D01*
X007377Y011487D01*
X007327Y011366D01*
X007327Y011234D01*
X007347Y011186D01*
X007347Y008178D01*
X007394Y008064D01*
X008497Y006962D01*
X008497Y006489D01*
X008534Y006397D02*
X004259Y006397D01*
X004378Y006299D02*
X008576Y006299D01*
X008675Y006200D02*
X004557Y006200D01*
X004125Y006594D02*
X008497Y006594D01*
X008497Y006693D02*
X004093Y006693D01*
X004061Y006791D02*
X008497Y006791D01*
X008497Y006890D02*
X004050Y006890D01*
X004047Y006988D02*
X008470Y006988D01*
X008371Y007087D02*
X004047Y007087D01*
X004047Y007185D02*
X008273Y007185D01*
X008174Y007284D02*
X004047Y007284D01*
X004047Y007382D02*
X008076Y007382D01*
X007977Y007481D02*
X004047Y007481D01*
X004047Y007579D02*
X007879Y007579D01*
X007780Y007678D02*
X004047Y007678D01*
X004047Y007776D02*
X007682Y007776D01*
X007583Y007875D02*
X004047Y007875D01*
X004047Y007973D02*
X007485Y007973D01*
X007391Y008072D02*
X004047Y008072D01*
X004047Y008170D02*
X007350Y008170D01*
X007347Y008269D02*
X004047Y008269D01*
X004047Y008367D02*
X007347Y008367D01*
X007347Y008466D02*
X004047Y008466D01*
X004047Y008564D02*
X007347Y008564D01*
X007347Y008663D02*
X004047Y008663D01*
X004047Y008761D02*
X007347Y008761D01*
X007347Y008860D02*
X004047Y008860D01*
X004047Y008958D02*
X007347Y008958D01*
X007347Y009057D02*
X006116Y009057D01*
X006124Y009060D02*
X006216Y009153D01*
X006267Y009274D01*
X006267Y009406D01*
X006216Y009527D01*
X006124Y009620D01*
X006075Y009640D01*
X005817Y009898D01*
X005817Y012486D01*
X005837Y012534D01*
X005837Y012666D01*
X005786Y012787D01*
X005694Y012880D01*
X005572Y012930D01*
X005441Y012930D01*
X005320Y012880D01*
X005227Y012787D01*
X005177Y012666D01*
X005177Y012534D01*
X005197Y012486D01*
X005197Y009708D01*
X005244Y009594D01*
X005331Y009507D01*
X005637Y009201D01*
X005657Y009153D01*
X005750Y009060D01*
X005871Y009010D01*
X006002Y009010D01*
X006124Y009060D01*
X006217Y009155D02*
X007347Y009155D01*
X007347Y009254D02*
X006258Y009254D01*
X006267Y009352D02*
X007347Y009352D01*
X007347Y009451D02*
X006248Y009451D01*
X006194Y009549D02*
X007347Y009549D01*
X007347Y009648D02*
X006067Y009648D01*
X005969Y009746D02*
X007347Y009746D01*
X007347Y009845D02*
X005870Y009845D01*
X005817Y009943D02*
X007347Y009943D01*
X007347Y010042D02*
X005817Y010042D01*
X005817Y010140D02*
X007347Y010140D01*
X007347Y010239D02*
X005817Y010239D01*
X005817Y010337D02*
X007347Y010337D01*
X007347Y010436D02*
X005817Y010436D01*
X005817Y010534D02*
X007347Y010534D01*
X007347Y010633D02*
X005817Y010633D01*
X005817Y010731D02*
X007347Y010731D01*
X007347Y010830D02*
X005817Y010830D01*
X005817Y010929D02*
X007347Y010929D01*
X007347Y011027D02*
X005817Y011027D01*
X005817Y011126D02*
X007347Y011126D01*
X007331Y011224D02*
X005817Y011224D01*
X005817Y011323D02*
X007327Y011323D01*
X007350Y011421D02*
X005817Y011421D01*
X005817Y011520D02*
X007409Y011520D01*
X007562Y011618D02*
X005817Y011618D01*
X005817Y011717D02*
X012607Y011717D01*
X012508Y011815D02*
X005817Y011815D01*
X005817Y011914D02*
X008256Y011914D01*
X008111Y012012D02*
X005817Y012012D01*
X005817Y012111D02*
X008048Y012111D01*
X008017Y012209D02*
X005817Y012209D01*
X005817Y012308D02*
X008017Y012308D01*
X008047Y012406D02*
X005817Y012406D01*
X005824Y012505D02*
X008108Y012505D01*
X008206Y012603D02*
X005837Y012603D01*
X005822Y012702D02*
X008305Y012702D01*
X008403Y012800D02*
X005773Y012800D01*
X005648Y012899D02*
X008502Y012899D01*
X008600Y012997D02*
X005391Y012997D01*
X005365Y012899D02*
X005293Y012899D01*
X005240Y012800D02*
X005169Y012800D01*
X005191Y012702D02*
X004931Y012702D01*
X005177Y012603D02*
X004047Y012603D01*
X004047Y012505D02*
X005189Y012505D01*
X005197Y012406D02*
X004047Y012406D01*
X004047Y012308D02*
X005197Y012308D01*
X005197Y012209D02*
X004047Y012209D01*
X004047Y012111D02*
X005197Y012111D01*
X005197Y012012D02*
X004047Y012012D01*
X004047Y011914D02*
X005197Y011914D01*
X005197Y011815D02*
X004047Y011815D01*
X004047Y011717D02*
X005197Y011717D01*
X005197Y011618D02*
X004047Y011618D01*
X004047Y011520D02*
X005197Y011520D01*
X005197Y011421D02*
X004047Y011421D01*
X004047Y011323D02*
X005197Y011323D01*
X005197Y011224D02*
X004047Y011224D01*
X004047Y011126D02*
X005197Y011126D01*
X005197Y011027D02*
X004047Y011027D01*
X004047Y010929D02*
X005197Y010929D01*
X005197Y010830D02*
X004047Y010830D01*
X004047Y010731D02*
X005197Y010731D01*
X005197Y010633D02*
X004047Y010633D01*
X004047Y010534D02*
X005197Y010534D01*
X005197Y010436D02*
X004047Y010436D01*
X004047Y010337D02*
X005197Y010337D01*
X005197Y010239D02*
X004047Y010239D01*
X004047Y010140D02*
X005197Y010140D01*
X005197Y010042D02*
X004047Y010042D01*
X004047Y009943D02*
X005197Y009943D01*
X005197Y009845D02*
X004047Y009845D01*
X004047Y009746D02*
X005197Y009746D01*
X005222Y009648D02*
X004047Y009648D01*
X004047Y009549D02*
X005289Y009549D01*
X005331Y009507D02*
X005331Y009507D01*
X005387Y009451D02*
X004047Y009451D01*
X004047Y009352D02*
X005486Y009352D01*
X005584Y009254D02*
X004047Y009254D01*
X004047Y009155D02*
X005656Y009155D01*
X005758Y009057D02*
X004047Y009057D01*
X007751Y011618D02*
X012705Y011618D01*
X012804Y011520D02*
X007904Y011520D01*
X007964Y011421D02*
X012902Y011421D01*
X013001Y011323D02*
X007987Y011323D01*
X007982Y011224D02*
X013099Y011224D01*
X013198Y011126D02*
X007967Y011126D01*
X008236Y011027D02*
X013296Y011027D01*
X013653Y011717D02*
X016502Y011717D01*
X016675Y011815D02*
X013555Y011815D01*
X013456Y011914D02*
X016663Y011914D01*
X016664Y011913D02*
X016731Y011891D01*
X016801Y011880D01*
X017087Y011880D01*
X017087Y012280D01*
X017187Y012280D01*
X017187Y012380D01*
X017884Y012380D01*
X017876Y012435D01*
X017854Y012503D01*
X017822Y012566D01*
X017780Y012623D01*
X017730Y012673D01*
X017672Y012715D01*
X017609Y012747D01*
X017542Y012769D01*
X017472Y012780D01*
X017187Y012780D01*
X017187Y012380D01*
X017087Y012380D01*
X017087Y012780D01*
X016801Y012780D01*
X016731Y012769D01*
X016664Y012747D01*
X016601Y012715D01*
X016543Y012673D01*
X016493Y012623D01*
X016452Y012566D01*
X016420Y012503D01*
X016398Y012435D01*
X016389Y012380D01*
X017087Y012380D01*
X017087Y012280D01*
X016389Y012280D01*
X016398Y012225D01*
X016420Y012157D01*
X016452Y012094D01*
X016493Y012037D01*
X016543Y011987D01*
X016601Y011945D01*
X016664Y011913D01*
X016518Y012012D02*
X013358Y012012D01*
X013259Y012111D02*
X016443Y012111D01*
X016403Y012209D02*
X013161Y012209D01*
X013327Y012308D02*
X013427Y012308D01*
X013427Y012300D02*
X013711Y012300D01*
X013750Y012310D01*
X013784Y012330D01*
X013812Y012358D01*
X013831Y012392D01*
X013842Y012430D01*
X013842Y012630D01*
X013427Y012630D01*
X013427Y012300D01*
X013427Y012406D02*
X013327Y012406D01*
X013327Y012505D02*
X013427Y012505D01*
X013427Y012603D02*
X013327Y012603D01*
X013327Y012630D02*
X012912Y012630D01*
X012912Y012458D01*
X012640Y012730D01*
X012732Y012730D01*
X012854Y012780D01*
X012912Y012838D01*
X012912Y012730D01*
X013327Y012730D01*
X013327Y012630D01*
X013327Y012702D02*
X012668Y012702D01*
X012767Y012603D02*
X012912Y012603D01*
X012912Y012505D02*
X012865Y012505D01*
X012873Y012800D02*
X012912Y012800D01*
X012337Y013096D02*
X012274Y013096D01*
X012365Y013194D02*
X012176Y013194D01*
X012077Y013293D02*
X012432Y013293D01*
X012637Y013391D02*
X011979Y013391D01*
X012736Y013490D02*
X005577Y013490D01*
X005577Y013588D02*
X012852Y013588D01*
X012852Y013687D02*
X005577Y013687D01*
X005540Y013785D02*
X012852Y013785D01*
X012852Y013884D02*
X005499Y013884D01*
X005459Y013982D02*
X012852Y013982D01*
X012852Y014081D02*
X005374Y014081D01*
X005275Y014179D02*
X012852Y014179D01*
X013879Y014220D02*
X014075Y014220D01*
X014052Y014197D01*
X014052Y014190D01*
X013902Y014190D01*
X013902Y014197D01*
X013879Y014220D01*
X013902Y013570D02*
X014052Y013570D01*
X014052Y013540D01*
X014025Y013540D01*
X013977Y013520D01*
X013921Y013520D01*
X013902Y013512D01*
X013902Y013563D01*
X013902Y013570D01*
X014077Y013280D02*
X013987Y013190D01*
X014077Y013280D02*
X014577Y013280D01*
X015102Y013478D02*
X015102Y013563D01*
X015102Y013570D01*
X015302Y013570D01*
X015302Y013540D01*
X015265Y013540D01*
X015169Y013500D01*
X015159Y013490D01*
X015131Y013490D01*
X015102Y013478D01*
X015102Y013490D02*
X015130Y013490D01*
X015317Y013280D02*
X015197Y013160D01*
X015317Y013280D02*
X015827Y013280D01*
X016352Y013096D02*
X016382Y013096D01*
X016352Y012997D02*
X016448Y012997D01*
X016547Y012899D02*
X016292Y012899D01*
X016292Y012800D02*
X018127Y012800D01*
X018127Y012702D02*
X017691Y012702D01*
X017795Y012603D02*
X018127Y012603D01*
X018127Y012505D02*
X017853Y012505D01*
X017880Y012406D02*
X018127Y012406D01*
X018127Y012308D02*
X017187Y012308D01*
X017187Y012280D02*
X017884Y012280D01*
X017876Y012225D01*
X017854Y012157D01*
X017822Y012094D01*
X017780Y012037D01*
X017730Y011987D01*
X017672Y011945D01*
X017609Y011913D01*
X017542Y011891D01*
X017472Y011880D01*
X017187Y011880D01*
X017187Y012280D01*
X017187Y012209D02*
X017087Y012209D01*
X017087Y012111D02*
X017187Y012111D01*
X017187Y012012D02*
X017087Y012012D01*
X017087Y011914D02*
X017187Y011914D01*
X017598Y011815D02*
X018127Y011815D01*
X018127Y011717D02*
X017771Y011717D01*
X017869Y011618D02*
X018127Y011618D01*
X018127Y011520D02*
X017910Y011520D01*
X017947Y011421D02*
X018127Y011421D01*
X018127Y011323D02*
X017947Y011323D01*
X017945Y011224D02*
X018127Y011224D01*
X018127Y011126D02*
X017904Y011126D01*
X017855Y011027D02*
X018127Y011027D01*
X018127Y010731D02*
X017756Y010731D01*
X017855Y010633D02*
X018127Y010633D01*
X018127Y010534D02*
X017904Y010534D01*
X017945Y010436D02*
X018127Y010436D01*
X018127Y010337D02*
X017947Y010337D01*
X017947Y010239D02*
X018127Y010239D01*
X018127Y010140D02*
X017910Y010140D01*
X017869Y010042D02*
X018127Y010042D01*
X018127Y009943D02*
X017771Y009943D01*
X017598Y009845D02*
X018127Y009845D01*
X018127Y009746D02*
X017741Y009746D01*
X017840Y009648D02*
X018127Y009648D01*
X018127Y009549D02*
X017898Y009549D01*
X017939Y009451D02*
X018127Y009451D01*
X018127Y009352D02*
X017947Y009352D01*
X017947Y009254D02*
X018127Y009254D01*
X018127Y009155D02*
X017916Y009155D01*
X017876Y009057D02*
X018127Y009057D01*
X018127Y008958D02*
X017786Y008958D01*
X017635Y008860D02*
X018127Y008860D01*
X018127Y008761D02*
X017726Y008761D01*
X017825Y008663D02*
X018127Y008663D01*
X018127Y008564D02*
X017892Y008564D01*
X017932Y008466D02*
X018127Y008466D01*
X018127Y008367D02*
X017947Y008367D01*
X017947Y008269D02*
X018127Y008269D01*
X018127Y008170D02*
X017923Y008170D01*
X017882Y008072D02*
X018127Y008072D01*
X018127Y007973D02*
X017801Y007973D01*
X017671Y007875D02*
X018127Y007875D01*
X018127Y007776D02*
X011936Y007776D01*
X011860Y007875D02*
X016602Y007875D01*
X016472Y007973D02*
X011762Y007973D01*
X011663Y008072D02*
X016391Y008072D01*
X016351Y008170D02*
X011565Y008170D01*
X011466Y008269D02*
X016327Y008269D01*
X016327Y008367D02*
X011368Y008367D01*
X011269Y008466D02*
X016341Y008466D01*
X016382Y008564D02*
X011171Y008564D01*
X011072Y008663D02*
X016448Y008663D01*
X016547Y008761D02*
X010974Y008761D01*
X010875Y008860D02*
X016639Y008860D01*
X016487Y008958D02*
X010777Y008958D01*
X010678Y009057D02*
X016398Y009057D01*
X016357Y009155D02*
X009490Y009155D01*
X009391Y009254D02*
X016327Y009254D01*
X016327Y009352D02*
X009377Y009352D01*
X009377Y009451D02*
X016335Y009451D01*
X016376Y009549D02*
X009377Y009549D01*
X009377Y009648D02*
X016433Y009648D01*
X016532Y009746D02*
X009377Y009746D01*
X009377Y009845D02*
X016675Y009845D01*
X016502Y009943D02*
X014555Y009943D01*
X014672Y010042D02*
X016404Y010042D01*
X016363Y010140D02*
X014770Y010140D01*
X014869Y010239D02*
X016327Y010239D01*
X016327Y010337D02*
X014967Y010337D01*
X015066Y010436D02*
X016329Y010436D01*
X016369Y010534D02*
X015164Y010534D01*
X015263Y010633D02*
X016418Y010633D01*
X016517Y010731D02*
X015361Y010731D01*
X014512Y010929D02*
X008725Y010929D01*
X008802Y010830D02*
X014413Y010830D01*
X014315Y010731D02*
X008837Y010731D01*
X008837Y010633D02*
X014216Y010633D01*
X014118Y010534D02*
X009299Y010534D01*
X009367Y010436D02*
X014045Y010436D01*
X014007Y010337D02*
X009397Y010337D01*
X009397Y010239D02*
X014007Y010239D01*
X014030Y010140D02*
X009377Y010140D01*
X009377Y010042D02*
X014081Y010042D01*
X014198Y009943D02*
X009377Y009943D01*
X008834Y010534D02*
X008817Y010534D01*
X008517Y011914D02*
X012410Y011914D01*
X012311Y012012D02*
X008662Y012012D01*
X008760Y012111D02*
X012213Y012111D01*
X012114Y012209D02*
X008859Y012209D01*
X008957Y012308D02*
X012016Y012308D01*
X011917Y012406D02*
X009056Y012406D01*
X009154Y012505D02*
X011819Y012505D01*
X011720Y012603D02*
X009253Y012603D01*
X009351Y012702D02*
X011622Y012702D01*
X013427Y012702D02*
X014527Y012702D01*
X014527Y012630D02*
X014112Y012630D01*
X014112Y012430D01*
X014122Y012392D01*
X014142Y012358D01*
X014170Y012330D01*
X014204Y012310D01*
X014242Y012300D01*
X014527Y012300D01*
X014527Y012630D01*
X014527Y012603D02*
X014627Y012603D01*
X014627Y012630D02*
X014627Y012300D01*
X014911Y012300D01*
X014950Y012310D01*
X014984Y012330D01*
X015012Y012358D01*
X015031Y012392D01*
X015042Y012430D01*
X015042Y012630D01*
X014627Y012630D01*
X014627Y012702D02*
X015777Y012702D01*
X015777Y012630D02*
X015362Y012630D01*
X015362Y012430D01*
X015372Y012392D01*
X015392Y012358D01*
X015420Y012330D01*
X015454Y012310D01*
X015492Y012300D01*
X015777Y012300D01*
X015777Y012630D01*
X015777Y012603D02*
X015877Y012603D01*
X015877Y012630D02*
X015877Y012300D01*
X016161Y012300D01*
X016200Y012310D01*
X016234Y012330D01*
X016262Y012358D01*
X016281Y012392D01*
X016292Y012430D01*
X016292Y012630D01*
X015877Y012630D01*
X015877Y012702D02*
X016582Y012702D01*
X016479Y012603D02*
X016292Y012603D01*
X016292Y012505D02*
X016421Y012505D01*
X016393Y012406D02*
X016285Y012406D01*
X016189Y012308D02*
X017087Y012308D01*
X017087Y012406D02*
X017187Y012406D01*
X017187Y012505D02*
X017087Y012505D01*
X017087Y012603D02*
X017187Y012603D01*
X017187Y012702D02*
X017087Y012702D01*
X017726Y012899D02*
X018127Y012899D01*
X018127Y012997D02*
X017825Y012997D01*
X017892Y013096D02*
X018127Y013096D01*
X018127Y013194D02*
X017932Y013194D01*
X017947Y013293D02*
X018127Y013293D01*
X018127Y013391D02*
X017947Y013391D01*
X017923Y013490D02*
X018122Y013490D01*
X018106Y013588D02*
X017882Y013588D01*
X017801Y013687D02*
X018074Y013687D01*
X018042Y013785D02*
X017671Y013785D01*
X017900Y013982D02*
X016923Y013982D01*
X016825Y014081D02*
X017769Y014081D01*
X017556Y014179D02*
X016675Y014179D01*
X017022Y013884D02*
X017972Y013884D01*
X018288Y014179D02*
X018386Y014179D01*
X018385Y014081D02*
X018360Y014081D01*
X018385Y014045D02*
X018203Y014296D01*
X018203Y014296D01*
X017950Y014480D01*
X018387Y014480D01*
X018385Y014045D01*
X018386Y014278D02*
X018217Y014278D01*
X018093Y014376D02*
X018386Y014376D01*
X018387Y014475D02*
X017958Y014475D01*
X016384Y013570D02*
X016352Y013492D01*
X016352Y013570D01*
X016384Y013570D01*
X015877Y012505D02*
X015777Y012505D01*
X015777Y012406D02*
X015877Y012406D01*
X015877Y012308D02*
X015777Y012308D01*
X015464Y012308D02*
X014939Y012308D01*
X015035Y012406D02*
X015368Y012406D01*
X015362Y012505D02*
X015042Y012505D01*
X015042Y012603D02*
X015362Y012603D01*
X015362Y012800D02*
X015042Y012800D01*
X014627Y012505D02*
X014527Y012505D01*
X014527Y012406D02*
X014627Y012406D01*
X014627Y012308D02*
X014527Y012308D01*
X014214Y012308D02*
X013739Y012308D01*
X013835Y012406D02*
X014118Y012406D01*
X014112Y012505D02*
X013842Y012505D01*
X013842Y012603D02*
X014112Y012603D01*
X014112Y012800D02*
X013842Y012800D01*
X015102Y014190D02*
X015102Y014197D01*
X015079Y014220D01*
X015325Y014220D01*
X015302Y014197D01*
X015302Y014190D01*
X015102Y014190D01*
X017610Y011914D02*
X018127Y011914D01*
X018127Y012012D02*
X017755Y012012D01*
X017830Y012111D02*
X018127Y012111D01*
X018127Y012209D02*
X017870Y012209D01*
X017726Y010898D02*
X017562Y010830D01*
X016711Y010830D02*
X016548Y010762D01*
X017051Y007579D02*
X012338Y007579D01*
X012437Y007481D02*
X016900Y007481D01*
X016801Y007382D02*
X012479Y007382D01*
X012517Y007284D02*
X016716Y007284D01*
X016675Y007185D02*
X012517Y007185D01*
X012517Y007087D02*
X016634Y007087D01*
X016597Y006988D02*
X012517Y006988D01*
X012517Y006890D02*
X016597Y006890D01*
X016597Y006791D02*
X012517Y006791D01*
X012517Y006693D02*
X016597Y006693D01*
X016625Y006594D02*
X012517Y006594D01*
X012517Y006496D02*
X016666Y006496D01*
X016707Y006397D02*
X012479Y006397D01*
X012437Y006299D02*
X016780Y006299D01*
X016878Y006200D02*
X012338Y006200D01*
X011760Y006140D02*
X011253Y006140D01*
X011296Y006158D01*
X011439Y006301D01*
X011507Y006464D01*
X011574Y006301D01*
X011718Y006158D01*
X011760Y006140D01*
X011675Y006200D02*
X011338Y006200D01*
X011437Y006299D02*
X011576Y006299D01*
X011534Y006397D02*
X011479Y006397D01*
X010760Y006140D02*
X010253Y006140D01*
X010296Y006158D01*
X010439Y006301D01*
X010507Y006464D01*
X010574Y006301D01*
X010718Y006158D01*
X010760Y006140D01*
X010675Y006200D02*
X010338Y006200D01*
X010437Y006299D02*
X010576Y006299D01*
X010534Y006397D02*
X010479Y006397D01*
X009760Y006140D02*
X009253Y006140D01*
X009296Y006158D01*
X009439Y006301D01*
X009507Y006464D01*
X009574Y006301D01*
X009718Y006158D01*
X009760Y006140D01*
X009675Y006200D02*
X009338Y006200D01*
X009437Y006299D02*
X009576Y006299D01*
X009534Y006397D02*
X009479Y006397D01*
X010507Y007316D02*
X010439Y007479D01*
X010296Y007622D01*
X010108Y007700D01*
X009939Y007700D01*
X009785Y007883D01*
X009779Y007896D01*
X009745Y007930D01*
X009714Y007967D01*
X009702Y007973D01*
X009692Y007983D01*
X009647Y008001D01*
X009604Y008024D01*
X009591Y008025D01*
X009578Y008030D01*
X009530Y008030D01*
X009481Y008034D01*
X009468Y008030D01*
X009135Y008030D01*
X009068Y008097D01*
X009085Y008090D01*
X010078Y008090D01*
X010632Y007536D01*
X010574Y007479D01*
X010507Y007316D01*
X010479Y007382D02*
X010534Y007382D01*
X010576Y007481D02*
X010437Y007481D01*
X010338Y007579D02*
X010589Y007579D01*
X010490Y007678D02*
X010161Y007678D01*
X010293Y007875D02*
X009792Y007875D01*
X009875Y007776D02*
X010392Y007776D01*
X010195Y007973D02*
X009702Y007973D01*
X010096Y008072D02*
X009093Y008072D01*
X012161Y007678D02*
X018127Y007678D01*
X018127Y007579D02*
X017822Y007579D01*
X017973Y007481D02*
X018127Y007481D01*
X018127Y007382D02*
X018072Y007382D01*
X018358Y006277D02*
X018357Y005970D01*
X018071Y005968D01*
X018203Y006064D01*
X018358Y006277D01*
X018357Y006200D02*
X018302Y006200D01*
X018357Y006102D02*
X018231Y006102D01*
X018203Y006064D02*
X018203Y006064D01*
X018203Y006064D01*
X018120Y006003D02*
X018357Y006003D01*
X008994Y013391D02*
X005577Y013391D01*
X005547Y013293D02*
X008896Y013293D01*
X008797Y013194D02*
X005507Y013194D01*
X005466Y013096D02*
X008699Y013096D01*
X004542Y012702D02*
X004047Y012702D01*
X004047Y012800D02*
X004304Y012800D01*
X004180Y012899D02*
X004047Y012899D01*
X004047Y012997D02*
X004082Y012997D01*
X003874Y014163D02*
X003877Y014470D01*
X004210Y014470D01*
X003970Y014296D01*
X003874Y014163D01*
X003874Y014179D02*
X003885Y014179D01*
X003875Y014278D02*
X003957Y014278D01*
X003970Y014296D02*
X003970Y014296D01*
X003970Y014296D01*
X003876Y014376D02*
X004080Y014376D01*
D14*
X005647Y014000D03*
X005507Y012600D03*
X004877Y011900D03*
X004317Y011270D03*
X004267Y010120D03*
X004367Y008940D03*
X005937Y009340D03*
X008027Y010770D03*
X008507Y010680D03*
X009067Y010300D03*
X007657Y011300D03*
X008197Y013170D03*
X010317Y013960D03*
X011027Y013840D03*
X011657Y013990D03*
X012227Y013590D03*
X012667Y013060D03*
X013987Y013190D03*
X014167Y012000D03*
X015197Y013160D03*
X015757Y011970D03*
X013687Y010170D03*
X012687Y010170D03*
X011307Y010250D03*
X011297Y010630D03*
X011327Y011030D03*
X011327Y011430D03*
X011327Y011820D03*
X010867Y011820D03*
X010877Y011430D03*
X010887Y011030D03*
X010877Y010640D03*
X010867Y010240D03*
X010457Y010230D03*
X010457Y010650D03*
X010447Y011040D03*
X010447Y011430D03*
X010447Y011820D03*
X011467Y008840D03*
X012117Y008030D03*
X013457Y007440D03*
X013477Y008590D03*
X015407Y008620D03*
X015417Y007510D03*
X016217Y006840D03*
X016467Y007590D03*
X008107Y006500D03*
X006237Y006480D03*
X005537Y006470D03*
X004787Y006490D03*
X004367Y007190D03*
D15*
X005937Y009340D02*
X005507Y009770D01*
X005507Y012600D01*
X007657Y011300D02*
X007657Y008240D01*
X009007Y006890D01*
X009007Y007720D02*
X008027Y008700D01*
X008027Y010770D01*
X008507Y010680D02*
X008507Y009040D01*
X009147Y008400D01*
X010207Y008400D01*
X010987Y007620D01*
X010987Y006910D01*
X011007Y006890D01*
X011657Y007240D02*
X012007Y006890D01*
X011657Y007240D02*
X011657Y007640D01*
X010467Y008830D01*
X009377Y008830D01*
X009067Y009140D01*
X009067Y010300D01*
X009007Y007720D02*
X009517Y007720D01*
X010007Y007140D01*
X010007Y006890D01*
X016587Y013880D02*
X017137Y013330D01*
X016587Y013880D02*
X015827Y013880D01*
X014577Y013880D01*
X013377Y013880D01*
D16*
X011757Y013090D02*
X009217Y013090D01*
X008387Y012260D01*
X011757Y013090D02*
X013517Y011330D01*
X015437Y011330D01*
X014377Y010270D01*
X015437Y011330D02*
X017137Y011330D01*
D17*
X014377Y010270D03*
D18*
X008387Y012260D03*
D19*
X012667Y013060D02*
X012887Y013280D01*
X013377Y013280D01*
M02*
