G75*
%MOIN*%
%OFA0B0*%
%FSLAX24Y24*%
%IPPOS*%
%LPD*%
%AMOC8*
5,1,8,0,0,1.08239X$1,22.5*
%
%ADD10C,0.0000*%
%ADD11C,0.1300*%
%ADD12R,0.0434X0.0178*%
%ADD13R,0.1221X0.2009*%
%ADD14C,0.0640*%
%ADD15R,0.0552X0.0631*%
%ADD16R,0.0631X0.0552*%
%ADD17R,0.0552X0.1339*%
%ADD18R,0.0827X0.0394*%
%ADD19R,0.0827X0.0552*%
%ADD20R,0.0827X0.0827*%
%ADD21C,0.0434*%
D10*
X004837Y005930D02*
X017337Y005930D01*
X016807Y006830D02*
X016809Y006880D01*
X016815Y006930D01*
X016825Y006979D01*
X016839Y007027D01*
X016856Y007074D01*
X016877Y007119D01*
X016902Y007163D01*
X016930Y007204D01*
X016962Y007243D01*
X016996Y007280D01*
X017033Y007314D01*
X017073Y007344D01*
X017115Y007371D01*
X017159Y007395D01*
X017205Y007416D01*
X017252Y007432D01*
X017300Y007445D01*
X017350Y007454D01*
X017399Y007459D01*
X017450Y007460D01*
X017500Y007457D01*
X017549Y007450D01*
X017598Y007439D01*
X017646Y007424D01*
X017692Y007406D01*
X017737Y007384D01*
X017780Y007358D01*
X017821Y007329D01*
X017860Y007297D01*
X017896Y007262D01*
X017928Y007224D01*
X017958Y007184D01*
X017985Y007141D01*
X018008Y007097D01*
X018027Y007051D01*
X018043Y007003D01*
X018055Y006954D01*
X018063Y006905D01*
X018067Y006855D01*
X018067Y006805D01*
X018063Y006755D01*
X018055Y006706D01*
X018043Y006657D01*
X018027Y006609D01*
X018008Y006563D01*
X017985Y006519D01*
X017958Y006476D01*
X017928Y006436D01*
X017896Y006398D01*
X017860Y006363D01*
X017821Y006331D01*
X017780Y006302D01*
X017737Y006276D01*
X017692Y006254D01*
X017646Y006236D01*
X017598Y006221D01*
X017549Y006210D01*
X017500Y006203D01*
X017450Y006200D01*
X017399Y006201D01*
X017350Y006206D01*
X017300Y006215D01*
X017252Y006228D01*
X017205Y006244D01*
X017159Y006265D01*
X017115Y006289D01*
X017073Y006316D01*
X017033Y006346D01*
X016996Y006380D01*
X016962Y006417D01*
X016930Y006456D01*
X016902Y006497D01*
X016877Y006541D01*
X016856Y006586D01*
X016839Y006633D01*
X016825Y006681D01*
X016815Y006730D01*
X016809Y006780D01*
X016807Y006830D01*
X017337Y005930D02*
X017397Y005932D01*
X017458Y005937D01*
X017517Y005946D01*
X017576Y005959D01*
X017635Y005975D01*
X017692Y005995D01*
X017747Y006018D01*
X017802Y006045D01*
X017854Y006074D01*
X017905Y006107D01*
X017954Y006143D01*
X018000Y006181D01*
X018044Y006223D01*
X018086Y006267D01*
X018124Y006313D01*
X018160Y006362D01*
X018193Y006413D01*
X018222Y006465D01*
X018249Y006520D01*
X018272Y006575D01*
X018292Y006632D01*
X018308Y006691D01*
X018321Y006750D01*
X018330Y006809D01*
X018335Y006870D01*
X018337Y006930D01*
X018337Y013430D01*
X018335Y013490D01*
X018330Y013551D01*
X018321Y013610D01*
X018308Y013669D01*
X018292Y013728D01*
X018272Y013785D01*
X018249Y013840D01*
X018222Y013895D01*
X018193Y013947D01*
X018160Y013998D01*
X018124Y014047D01*
X018086Y014093D01*
X018044Y014137D01*
X018000Y014179D01*
X017954Y014217D01*
X017905Y014253D01*
X017854Y014286D01*
X017802Y014315D01*
X017747Y014342D01*
X017692Y014365D01*
X017635Y014385D01*
X017576Y014401D01*
X017517Y014414D01*
X017458Y014423D01*
X017397Y014428D01*
X017337Y014430D01*
X004837Y014430D01*
X004107Y013530D02*
X004109Y013580D01*
X004115Y013630D01*
X004125Y013679D01*
X004139Y013727D01*
X004156Y013774D01*
X004177Y013819D01*
X004202Y013863D01*
X004230Y013904D01*
X004262Y013943D01*
X004296Y013980D01*
X004333Y014014D01*
X004373Y014044D01*
X004415Y014071D01*
X004459Y014095D01*
X004505Y014116D01*
X004552Y014132D01*
X004600Y014145D01*
X004650Y014154D01*
X004699Y014159D01*
X004750Y014160D01*
X004800Y014157D01*
X004849Y014150D01*
X004898Y014139D01*
X004946Y014124D01*
X004992Y014106D01*
X005037Y014084D01*
X005080Y014058D01*
X005121Y014029D01*
X005160Y013997D01*
X005196Y013962D01*
X005228Y013924D01*
X005258Y013884D01*
X005285Y013841D01*
X005308Y013797D01*
X005327Y013751D01*
X005343Y013703D01*
X005355Y013654D01*
X005363Y013605D01*
X005367Y013555D01*
X005367Y013505D01*
X005363Y013455D01*
X005355Y013406D01*
X005343Y013357D01*
X005327Y013309D01*
X005308Y013263D01*
X005285Y013219D01*
X005258Y013176D01*
X005228Y013136D01*
X005196Y013098D01*
X005160Y013063D01*
X005121Y013031D01*
X005080Y013002D01*
X005037Y012976D01*
X004992Y012954D01*
X004946Y012936D01*
X004898Y012921D01*
X004849Y012910D01*
X004800Y012903D01*
X004750Y012900D01*
X004699Y012901D01*
X004650Y012906D01*
X004600Y012915D01*
X004552Y012928D01*
X004505Y012944D01*
X004459Y012965D01*
X004415Y012989D01*
X004373Y013016D01*
X004333Y013046D01*
X004296Y013080D01*
X004262Y013117D01*
X004230Y013156D01*
X004202Y013197D01*
X004177Y013241D01*
X004156Y013286D01*
X004139Y013333D01*
X004125Y013381D01*
X004115Y013430D01*
X004109Y013480D01*
X004107Y013530D01*
X003837Y013430D02*
X003837Y006930D01*
X003839Y006870D01*
X003844Y006809D01*
X003853Y006750D01*
X003866Y006691D01*
X003882Y006632D01*
X003902Y006575D01*
X003925Y006520D01*
X003952Y006465D01*
X003981Y006413D01*
X004014Y006362D01*
X004050Y006313D01*
X004088Y006267D01*
X004130Y006223D01*
X004174Y006181D01*
X004220Y006143D01*
X004269Y006107D01*
X004320Y006074D01*
X004372Y006045D01*
X004427Y006018D01*
X004482Y005995D01*
X004539Y005975D01*
X004598Y005959D01*
X004657Y005946D01*
X004716Y005937D01*
X004777Y005932D01*
X004837Y005930D01*
X003837Y013430D02*
X003839Y013490D01*
X003844Y013551D01*
X003853Y013610D01*
X003866Y013669D01*
X003882Y013728D01*
X003902Y013785D01*
X003925Y013840D01*
X003952Y013895D01*
X003981Y013947D01*
X004014Y013998D01*
X004050Y014047D01*
X004088Y014093D01*
X004130Y014137D01*
X004174Y014179D01*
X004220Y014217D01*
X004269Y014253D01*
X004320Y014286D01*
X004372Y014315D01*
X004427Y014342D01*
X004482Y014365D01*
X004539Y014385D01*
X004598Y014401D01*
X004657Y014414D01*
X004716Y014423D01*
X004777Y014428D01*
X004837Y014430D01*
D11*
X004737Y013530D03*
X017437Y006830D03*
D12*
X012102Y009327D03*
X012102Y009583D03*
X012102Y009838D03*
X012102Y010094D03*
X012102Y010350D03*
X012102Y010606D03*
X012102Y010862D03*
X012102Y011118D03*
X012102Y011374D03*
X012102Y011630D03*
X012102Y011886D03*
X012102Y012142D03*
X012102Y012397D03*
X012102Y012653D03*
X009671Y012653D03*
X009671Y012397D03*
X009671Y012142D03*
X009671Y011886D03*
X009671Y011630D03*
X009671Y011374D03*
X009671Y011118D03*
X009671Y010862D03*
X009671Y010606D03*
X009671Y010350D03*
X009671Y010094D03*
X009671Y009838D03*
X009671Y009583D03*
X009671Y009327D03*
D13*
X010887Y010990D03*
D14*
X011007Y007190D02*
X011007Y006590D01*
X010007Y006590D02*
X010007Y007190D01*
X009007Y007190D02*
X009007Y006590D01*
X012007Y006590D02*
X012007Y007190D01*
X016837Y008330D02*
X017437Y008330D01*
X017437Y009330D02*
X016837Y009330D01*
X016837Y010330D02*
X017437Y010330D01*
X017437Y011330D02*
X016837Y011330D01*
X016837Y012330D02*
X017437Y012330D01*
X017437Y013330D02*
X016837Y013330D01*
D15*
X009661Y013670D03*
X008913Y013670D03*
X007071Y010890D03*
X006323Y010890D03*
X006323Y009920D03*
X007071Y009920D03*
X007379Y008452D03*
X008127Y008452D03*
X008127Y007522D03*
X007379Y007522D03*
D16*
X007127Y011856D03*
X007127Y012604D03*
X007127Y013246D03*
X007127Y013994D03*
X006257Y013994D03*
X006257Y013246D03*
X006257Y012604D03*
X006257Y011856D03*
D17*
X014387Y009300D03*
X014387Y006840D03*
D18*
X006363Y007440D03*
X006363Y008543D03*
D19*
X004630Y007991D03*
D20*
X005328Y009900D03*
X005328Y010976D03*
D21*
X004407Y012270D03*
X007117Y006470D03*
X017137Y014030D03*
M02*
