%
M48
M72
T01C0.0120
T02C0.0160
T03C0.0200
T04C0.0400
T05C0.1260
%
T01
X4877Y11900
X11027Y13840
X12227Y13590
X6237Y6480
X8107Y6500
X11467Y8840
X12117Y8030
X15757Y11970
X14167Y12000
X16467Y7590
X8197Y13170
X12687Y10170
X10317Y13960
X11657Y13990
X4787Y6490
X4367Y8940
X5647Y14000
X15417Y7510
X15407Y8620
X13477Y8590
X13457Y7440
X4317Y11270
X4267Y10120
X5537Y6470
X10447Y11040
X10447Y11820
X10867Y11820
X11327Y11820
X11327Y11430
X10447Y11430
X10877Y11430
X10887Y11030
X11327Y11030
X10457Y10650
X10877Y10640
X11297Y10630
X11307Y10250
X10867Y10240
X10457Y10230
X13687Y10170
X16217Y6840
X4367Y7190
X5937Y9340
X5507Y12600
X7657Y11300
X8027Y10770
X9067Y10300
X8507Y10680
X15197Y13160
X13987Y13190
X12667Y13060
T02
X8387Y12260
T03
X14377Y10270
T04
X17137Y13330
X17137Y12330
X17137Y11330
X17137Y10330
X17137Y9330
X17137Y8330
X12007Y6890
X11007Y6890
X10007Y6890
X9007Y6890
T05
X17437Y6830
X4737Y13530
M30
