G75*
%MOIN*%
%OFA0B0*%
%FSLAX24Y24*%
%IPPOS*%
%LPD*%
%AMOC8*
5,1,8,0,0,1.08239X$1,22.5*
%
%ADD10C,0.0000*%
%ADD11C,0.0100*%
%ADD12C,0.0030*%
%ADD13C,0.0050*%
%ADD14C,0.0060*%
%ADD15C,0.0316*%
%ADD16C,0.0040*%
%ADD17C,0.0080*%
%ADD18C,0.0557*%
D10*
X007237Y007583D02*
X021985Y007583D01*
X022029Y007585D01*
X022072Y007591D01*
X022114Y007600D01*
X022156Y007613D01*
X022196Y007630D01*
X022235Y007650D01*
X022272Y007673D01*
X022306Y007700D01*
X022339Y007729D01*
X022368Y007762D01*
X022395Y007796D01*
X022418Y007833D01*
X022438Y007872D01*
X022455Y007912D01*
X022468Y007954D01*
X022477Y007996D01*
X022483Y008039D01*
X022485Y008083D01*
X022485Y018698D01*
X022483Y018742D01*
X022477Y018785D01*
X022468Y018827D01*
X022455Y018869D01*
X022438Y018909D01*
X022418Y018948D01*
X022395Y018985D01*
X022368Y019019D01*
X022339Y019052D01*
X022306Y019081D01*
X022272Y019108D01*
X022235Y019131D01*
X022196Y019151D01*
X022156Y019168D01*
X022114Y019181D01*
X022072Y019190D01*
X022029Y019196D01*
X021985Y019198D01*
X007237Y019198D01*
X007193Y019196D01*
X007150Y019190D01*
X007108Y019181D01*
X007066Y019168D01*
X007026Y019151D01*
X006987Y019131D01*
X006950Y019108D01*
X006916Y019081D01*
X006883Y019052D01*
X006854Y019019D01*
X006827Y018985D01*
X006804Y018948D01*
X006784Y018909D01*
X006767Y018869D01*
X006754Y018827D01*
X006745Y018785D01*
X006739Y018742D01*
X006737Y018698D01*
X006737Y008083D01*
X006739Y008039D01*
X006745Y007996D01*
X006754Y007954D01*
X006767Y007912D01*
X006784Y007872D01*
X006804Y007833D01*
X006827Y007796D01*
X006854Y007762D01*
X006883Y007729D01*
X006916Y007700D01*
X006950Y007673D01*
X006987Y007650D01*
X007026Y007630D01*
X007066Y007613D01*
X007108Y007600D01*
X007150Y007591D01*
X007193Y007585D01*
X007237Y007583D01*
X007485Y008961D02*
X007487Y009011D01*
X007493Y009061D01*
X007503Y009110D01*
X007517Y009158D01*
X007534Y009205D01*
X007555Y009250D01*
X007580Y009294D01*
X007608Y009335D01*
X007640Y009374D01*
X007674Y009411D01*
X007711Y009445D01*
X007751Y009475D01*
X007793Y009502D01*
X007837Y009526D01*
X007883Y009547D01*
X007930Y009563D01*
X007978Y009576D01*
X008028Y009585D01*
X008077Y009590D01*
X008128Y009591D01*
X008178Y009588D01*
X008227Y009581D01*
X008276Y009570D01*
X008324Y009555D01*
X008370Y009537D01*
X008415Y009515D01*
X008458Y009489D01*
X008499Y009460D01*
X008538Y009428D01*
X008574Y009393D01*
X008606Y009355D01*
X008636Y009315D01*
X008663Y009272D01*
X008686Y009228D01*
X008705Y009182D01*
X008721Y009134D01*
X008733Y009085D01*
X008741Y009036D01*
X008745Y008986D01*
X008745Y008936D01*
X008741Y008886D01*
X008733Y008837D01*
X008721Y008788D01*
X008705Y008740D01*
X008686Y008694D01*
X008663Y008650D01*
X008636Y008607D01*
X008606Y008567D01*
X008574Y008529D01*
X008538Y008494D01*
X008499Y008462D01*
X008458Y008433D01*
X008415Y008407D01*
X008370Y008385D01*
X008324Y008367D01*
X008276Y008352D01*
X008227Y008341D01*
X008178Y008334D01*
X008128Y008331D01*
X008077Y008332D01*
X008028Y008337D01*
X007978Y008346D01*
X007930Y008359D01*
X007883Y008375D01*
X007837Y008396D01*
X007793Y008420D01*
X007751Y008447D01*
X007711Y008477D01*
X007674Y008511D01*
X007640Y008548D01*
X007608Y008587D01*
X007580Y008628D01*
X007555Y008672D01*
X007534Y008717D01*
X007517Y008764D01*
X007503Y008812D01*
X007493Y008861D01*
X007487Y008911D01*
X007485Y008961D01*
X007161Y011489D02*
X007163Y011522D01*
X007169Y011554D01*
X007178Y011585D01*
X007191Y011615D01*
X007208Y011643D01*
X007228Y011669D01*
X007251Y011693D01*
X007276Y011713D01*
X007304Y011731D01*
X007333Y011745D01*
X007364Y011755D01*
X007396Y011762D01*
X007429Y011765D01*
X007462Y011764D01*
X007494Y011759D01*
X007525Y011750D01*
X007556Y011738D01*
X007584Y011722D01*
X007611Y011703D01*
X007635Y011681D01*
X007656Y011656D01*
X007675Y011629D01*
X007690Y011600D01*
X007701Y011570D01*
X007709Y011538D01*
X007713Y011505D01*
X007713Y011473D01*
X007709Y011440D01*
X007701Y011408D01*
X007690Y011378D01*
X007675Y011349D01*
X007656Y011322D01*
X007635Y011297D01*
X007611Y011275D01*
X007584Y011256D01*
X007556Y011240D01*
X007525Y011228D01*
X007494Y011219D01*
X007462Y011214D01*
X007429Y011213D01*
X007396Y011216D01*
X007364Y011223D01*
X007333Y011233D01*
X007304Y011247D01*
X007276Y011265D01*
X007251Y011285D01*
X007228Y011309D01*
X007208Y011335D01*
X007191Y011363D01*
X007178Y011393D01*
X007169Y011424D01*
X007163Y011456D01*
X007161Y011489D01*
X007161Y015489D02*
X007163Y015522D01*
X007169Y015554D01*
X007178Y015585D01*
X007191Y015615D01*
X007208Y015643D01*
X007228Y015669D01*
X007251Y015693D01*
X007276Y015713D01*
X007304Y015731D01*
X007333Y015745D01*
X007364Y015755D01*
X007396Y015762D01*
X007429Y015765D01*
X007462Y015764D01*
X007494Y015759D01*
X007525Y015750D01*
X007556Y015738D01*
X007584Y015722D01*
X007611Y015703D01*
X007635Y015681D01*
X007656Y015656D01*
X007675Y015629D01*
X007690Y015600D01*
X007701Y015570D01*
X007709Y015538D01*
X007713Y015505D01*
X007713Y015473D01*
X007709Y015440D01*
X007701Y015408D01*
X007690Y015378D01*
X007675Y015349D01*
X007656Y015322D01*
X007635Y015297D01*
X007611Y015275D01*
X007584Y015256D01*
X007556Y015240D01*
X007525Y015228D01*
X007494Y015219D01*
X007462Y015214D01*
X007429Y015213D01*
X007396Y015216D01*
X007364Y015223D01*
X007333Y015233D01*
X007304Y015247D01*
X007276Y015265D01*
X007251Y015285D01*
X007228Y015309D01*
X007208Y015335D01*
X007191Y015363D01*
X007178Y015393D01*
X007169Y015424D01*
X007163Y015456D01*
X007161Y015489D01*
X017407Y017820D02*
X017409Y017870D01*
X017415Y017920D01*
X017425Y017969D01*
X017439Y018017D01*
X017456Y018064D01*
X017477Y018109D01*
X017502Y018153D01*
X017530Y018194D01*
X017562Y018233D01*
X017596Y018270D01*
X017633Y018304D01*
X017673Y018334D01*
X017715Y018361D01*
X017759Y018385D01*
X017805Y018406D01*
X017852Y018422D01*
X017900Y018435D01*
X017950Y018444D01*
X017999Y018449D01*
X018050Y018450D01*
X018100Y018447D01*
X018149Y018440D01*
X018198Y018429D01*
X018246Y018414D01*
X018292Y018396D01*
X018337Y018374D01*
X018380Y018348D01*
X018421Y018319D01*
X018460Y018287D01*
X018496Y018252D01*
X018528Y018214D01*
X018558Y018174D01*
X018585Y018131D01*
X018608Y018087D01*
X018627Y018041D01*
X018643Y017993D01*
X018655Y017944D01*
X018663Y017895D01*
X018667Y017845D01*
X018667Y017795D01*
X018663Y017745D01*
X018655Y017696D01*
X018643Y017647D01*
X018627Y017599D01*
X018608Y017553D01*
X018585Y017509D01*
X018558Y017466D01*
X018528Y017426D01*
X018496Y017388D01*
X018460Y017353D01*
X018421Y017321D01*
X018380Y017292D01*
X018337Y017266D01*
X018292Y017244D01*
X018246Y017226D01*
X018198Y017211D01*
X018149Y017200D01*
X018100Y017193D01*
X018050Y017190D01*
X017999Y017191D01*
X017950Y017196D01*
X017900Y017205D01*
X017852Y017218D01*
X017805Y017234D01*
X017759Y017255D01*
X017715Y017279D01*
X017673Y017306D01*
X017633Y017336D01*
X017596Y017370D01*
X017562Y017407D01*
X017530Y017446D01*
X017502Y017487D01*
X017477Y017531D01*
X017456Y017576D01*
X017439Y017623D01*
X017425Y017671D01*
X017415Y017720D01*
X017409Y017770D01*
X017407Y017820D01*
D11*
X010737Y018383D02*
X010737Y016583D01*
X008337Y016583D01*
X008337Y018383D01*
X010737Y018383D01*
X010537Y014483D02*
X008237Y014483D01*
X008237Y010483D01*
X010537Y010483D01*
X010537Y014483D01*
D12*
X010514Y014943D02*
X010514Y015088D01*
X010563Y015137D01*
X010659Y015137D01*
X010708Y015088D01*
X010708Y014943D01*
X010805Y014943D02*
X010514Y014943D01*
X010708Y015040D02*
X010805Y015137D01*
X010805Y015238D02*
X010611Y015431D01*
X010563Y015431D01*
X010514Y015383D01*
X010514Y015286D01*
X010563Y015238D01*
X010805Y015238D02*
X010805Y015431D01*
X011676Y016512D02*
X011628Y016561D01*
X011628Y016754D01*
X011676Y016803D01*
X011773Y016803D01*
X011821Y016754D01*
X011922Y016754D02*
X011971Y016803D01*
X012067Y016803D01*
X012116Y016754D01*
X012116Y016706D01*
X011922Y016512D01*
X012116Y016512D01*
X011821Y016561D02*
X011773Y016512D01*
X011676Y016512D01*
X011608Y017652D02*
X011608Y017943D01*
X011753Y017943D01*
X011801Y017894D01*
X011801Y017797D01*
X011753Y017749D01*
X011608Y017749D01*
X011704Y017749D02*
X011801Y017652D01*
X011902Y017652D02*
X012096Y017652D01*
X011999Y017652D02*
X011999Y017943D01*
X011902Y017846D01*
X010805Y018598D02*
X010805Y018840D01*
X010853Y018889D01*
X010853Y018743D02*
X010756Y018743D01*
X010655Y018743D02*
X010655Y018695D01*
X010462Y018695D01*
X010462Y018647D02*
X010462Y018743D01*
X010510Y018792D01*
X010607Y018792D01*
X010655Y018743D01*
X010607Y018598D02*
X010510Y018598D01*
X010462Y018647D01*
X010361Y018792D02*
X010313Y018792D01*
X010216Y018695D01*
X010216Y018598D02*
X010216Y018792D01*
X010115Y018695D02*
X010115Y018889D01*
X009921Y018889D02*
X009921Y018695D01*
X010018Y018598D01*
X010115Y018695D01*
X009820Y018647D02*
X009627Y018840D01*
X009723Y018840D02*
X009723Y018647D01*
X009627Y018647D02*
X009820Y018840D01*
X009820Y018743D02*
X009627Y018743D01*
X009526Y018792D02*
X009526Y018840D01*
X009477Y018889D01*
X009380Y018889D01*
X009332Y018840D01*
X009526Y018792D02*
X009332Y018598D01*
X009526Y018598D01*
X009502Y018009D02*
X009695Y018009D01*
X009598Y017864D02*
X009502Y017864D01*
X009502Y017719D02*
X009502Y018009D01*
X009400Y018009D02*
X009207Y018009D01*
X009207Y017719D01*
X009400Y017719D01*
X009304Y017864D02*
X009207Y017864D01*
X009106Y017864D02*
X009106Y017961D01*
X009057Y018009D01*
X008912Y018009D01*
X008912Y017719D01*
X008912Y017815D02*
X009057Y017815D01*
X009106Y017864D01*
X009009Y017815D02*
X009106Y017719D01*
X008811Y017815D02*
X008811Y018009D01*
X008618Y018009D02*
X008618Y017815D01*
X008714Y017719D01*
X008811Y017815D01*
X008803Y017209D02*
X008706Y017209D01*
X008658Y017161D01*
X008658Y016967D01*
X008706Y016919D01*
X008803Y016919D01*
X008851Y016967D01*
X008851Y017064D01*
X008754Y017064D01*
X008851Y017161D02*
X008803Y017209D01*
X008952Y017209D02*
X009146Y016919D01*
X009146Y017209D01*
X009247Y017209D02*
X009392Y017209D01*
X009440Y017161D01*
X009440Y016967D01*
X009392Y016919D01*
X009247Y016919D01*
X009247Y017209D01*
X008952Y017209D02*
X008952Y016919D01*
X008348Y018598D02*
X008252Y018598D01*
X008300Y018598D02*
X008300Y018889D01*
X008252Y018889D02*
X008348Y018889D01*
X008743Y018792D02*
X008936Y018792D01*
X008936Y018695D02*
X008743Y018695D01*
X013214Y016738D02*
X013214Y016545D01*
X013262Y016496D01*
X013359Y016496D01*
X013407Y016545D01*
X013508Y016496D02*
X013702Y016496D01*
X013605Y016496D02*
X013605Y016787D01*
X013508Y016690D01*
X013407Y016738D02*
X013359Y016787D01*
X013262Y016787D01*
X013214Y016738D01*
X014831Y016686D02*
X014880Y016686D01*
X015073Y016493D01*
X015122Y016493D01*
X015073Y016392D02*
X015122Y016343D01*
X015122Y016247D01*
X015073Y016198D01*
X014880Y016198D01*
X014831Y016247D01*
X014831Y016343D01*
X014880Y016392D01*
X014831Y016493D02*
X014831Y016686D01*
X014831Y017098D02*
X014831Y017243D01*
X014880Y017292D01*
X014977Y017292D01*
X015025Y017243D01*
X015025Y017098D01*
X015122Y017098D02*
X014831Y017098D01*
X015025Y017195D02*
X015122Y017292D01*
X015073Y017393D02*
X015122Y017441D01*
X015122Y017538D01*
X015073Y017586D01*
X015025Y017586D01*
X014977Y017538D01*
X014977Y017393D01*
X015073Y017393D01*
X014977Y017393D02*
X014880Y017490D01*
X014831Y017586D01*
X014831Y017998D02*
X014831Y018143D01*
X014880Y018192D01*
X014977Y018192D01*
X015025Y018143D01*
X015025Y017998D01*
X015122Y017998D02*
X014831Y017998D01*
X015025Y018095D02*
X015122Y018192D01*
X014977Y018293D02*
X014977Y018486D01*
X015122Y018438D02*
X014831Y018438D01*
X014977Y018293D01*
X014989Y015709D02*
X014940Y015660D01*
X014940Y015467D01*
X014989Y015418D01*
X015085Y015418D01*
X015134Y015467D01*
X015235Y015418D02*
X015428Y015418D01*
X015332Y015418D02*
X015332Y015709D01*
X015235Y015612D01*
X015134Y015660D02*
X015085Y015709D01*
X014989Y015709D01*
X014841Y015709D02*
X014744Y015709D01*
X014792Y015709D02*
X014792Y015418D01*
X014744Y015418D02*
X014841Y015418D01*
X012336Y011701D02*
X012385Y011653D01*
X012385Y011556D01*
X012336Y011508D01*
X012385Y011407D02*
X012288Y011310D01*
X012288Y011358D02*
X012288Y011213D01*
X012385Y011213D02*
X012094Y011213D01*
X012094Y011358D01*
X012143Y011407D01*
X012239Y011407D01*
X012288Y011358D01*
X012143Y011508D02*
X012094Y011556D01*
X012094Y011653D01*
X012143Y011701D01*
X012191Y011701D01*
X012239Y011653D01*
X012288Y011701D01*
X012336Y011701D01*
X012239Y011653D02*
X012239Y011605D01*
X012700Y010569D02*
X012652Y010521D01*
X012652Y010327D01*
X012700Y010279D01*
X012797Y010279D01*
X012846Y010327D01*
X012947Y010327D02*
X012947Y010424D01*
X013092Y010424D01*
X013140Y010376D01*
X013140Y010327D01*
X013092Y010279D01*
X012995Y010279D01*
X012947Y010327D01*
X012947Y010424D02*
X013043Y010521D01*
X013140Y010569D01*
X012846Y010521D02*
X012797Y010569D01*
X012700Y010569D01*
X012636Y008657D02*
X012781Y008657D01*
X012829Y008608D01*
X012829Y008512D01*
X012781Y008463D01*
X012636Y008463D01*
X012732Y008463D02*
X012829Y008366D01*
X012930Y008415D02*
X012979Y008366D01*
X013075Y008366D01*
X013124Y008415D01*
X013124Y008512D01*
X013075Y008560D01*
X013027Y008560D01*
X012930Y008512D01*
X012930Y008657D01*
X013124Y008657D01*
X012636Y008657D02*
X012636Y008366D01*
X010184Y008436D02*
X009990Y008436D01*
X009893Y008532D01*
X009990Y008629D01*
X010184Y008629D01*
X010184Y008730D02*
X010184Y008875D01*
X010135Y008924D01*
X009942Y008924D01*
X009893Y008875D01*
X009893Y008730D01*
X010184Y008730D01*
X010039Y008629D02*
X010039Y008436D01*
X010135Y009025D02*
X010184Y009073D01*
X010184Y009122D01*
X010135Y009170D01*
X009893Y009170D01*
X009893Y009122D02*
X009893Y009218D01*
X009893Y009320D02*
X010135Y009320D01*
X010184Y009368D01*
X010184Y009465D01*
X010135Y009513D01*
X009893Y009513D01*
X009942Y009614D02*
X009893Y009663D01*
X009893Y009759D01*
X009942Y009808D01*
X010039Y009759D02*
X010087Y009808D01*
X010135Y009808D01*
X010184Y009759D01*
X010184Y009663D01*
X010135Y009614D01*
X010039Y009663D02*
X009990Y009614D01*
X009942Y009614D01*
X010039Y009663D02*
X010039Y009759D01*
X009893Y009909D02*
X009893Y010102D01*
X009893Y010006D02*
X010184Y010006D01*
X016215Y010857D02*
X016263Y010809D01*
X016457Y010809D01*
X016505Y010857D01*
X016505Y010954D01*
X016457Y011002D01*
X016457Y011103D02*
X016505Y011152D01*
X016505Y011248D01*
X016457Y011297D01*
X016360Y011297D01*
X016312Y011248D01*
X016312Y011200D01*
X016360Y011103D01*
X016215Y011103D01*
X016215Y011297D01*
X016263Y011002D02*
X016215Y010954D01*
X016215Y010857D01*
X016919Y009224D02*
X016870Y009176D01*
X016870Y008983D01*
X016919Y008934D01*
X017015Y008934D01*
X017064Y008983D01*
X017165Y008983D02*
X017213Y008934D01*
X017310Y008934D01*
X017358Y008983D01*
X017358Y009031D01*
X017310Y009079D01*
X017262Y009079D01*
X017310Y009079D02*
X017358Y009128D01*
X017358Y009176D01*
X017310Y009224D01*
X017213Y009224D01*
X017165Y009176D01*
X017064Y009176D02*
X017015Y009224D01*
X016919Y009224D01*
X017834Y009176D02*
X017834Y008983D01*
X017882Y008934D01*
X017979Y008934D01*
X018027Y008983D01*
X018128Y009079D02*
X018274Y009224D01*
X018274Y008934D01*
X018322Y009079D02*
X018128Y009079D01*
X018027Y009176D02*
X017979Y009224D01*
X017882Y009224D01*
X017834Y009176D01*
D13*
X019015Y010169D02*
X019017Y010202D01*
X019023Y010234D01*
X019032Y010266D01*
X019046Y010296D01*
X019062Y010324D01*
X019082Y010350D01*
X019105Y010374D01*
X019131Y010395D01*
X019159Y010412D01*
X019189Y010427D01*
X019220Y010437D01*
X019252Y010444D01*
X019285Y010447D01*
X019318Y010446D01*
X019350Y010441D01*
X019382Y010432D01*
X019413Y010420D01*
X019441Y010404D01*
X019468Y010385D01*
X019492Y010363D01*
X019514Y010338D01*
X019532Y010310D01*
X019547Y010281D01*
X019559Y010250D01*
X019567Y010218D01*
X019571Y010185D01*
X019571Y010153D01*
X019567Y010120D01*
X019559Y010088D01*
X019547Y010057D01*
X019532Y010028D01*
X019514Y010000D01*
X019492Y009975D01*
X019468Y009953D01*
X019441Y009934D01*
X019413Y009918D01*
X019382Y009906D01*
X019350Y009897D01*
X019318Y009892D01*
X019285Y009891D01*
X019252Y009894D01*
X019220Y009901D01*
X019189Y009911D01*
X019159Y009926D01*
X019131Y009943D01*
X019105Y009964D01*
X019082Y009988D01*
X019062Y010014D01*
X019046Y010042D01*
X019032Y010072D01*
X019023Y010104D01*
X019017Y010136D01*
X019015Y010169D01*
X019963Y010405D02*
X021341Y010405D01*
X021341Y009579D01*
X022010Y009579D01*
X022010Y008831D01*
X022482Y008831D01*
X022482Y018516D01*
X021970Y018516D01*
X021970Y017610D01*
X021341Y017610D01*
X021341Y016783D01*
X019963Y016783D01*
X019963Y010405D01*
X016837Y017820D02*
X016839Y017889D01*
X016845Y017958D01*
X016855Y018026D01*
X016869Y018094D01*
X016886Y018161D01*
X016908Y018227D01*
X016933Y018291D01*
X016962Y018354D01*
X016995Y018415D01*
X017031Y018474D01*
X017070Y018531D01*
X017113Y018585D01*
X017158Y018637D01*
X017207Y018687D01*
X017258Y018733D01*
X017312Y018776D01*
X017369Y018817D01*
X017427Y018853D01*
X017488Y018887D01*
X017550Y018917D01*
X017614Y018943D01*
X017679Y018965D01*
X017746Y018984D01*
X017814Y018999D01*
X017882Y019010D01*
X017951Y019017D01*
X018020Y019020D01*
X018089Y019019D01*
X018158Y019014D01*
X018226Y019005D01*
X018294Y018992D01*
X018361Y018975D01*
X018428Y018955D01*
X018492Y018930D01*
X018555Y018902D01*
X018617Y018871D01*
X018676Y018835D01*
X018734Y018797D01*
X018789Y018755D01*
X018842Y018710D01*
X018892Y018662D01*
X018939Y018612D01*
X018983Y018558D01*
X019024Y018503D01*
X019062Y018445D01*
X019096Y018385D01*
X019127Y018323D01*
X019154Y018259D01*
X019177Y018194D01*
X019197Y018128D01*
X019213Y018060D01*
X019225Y017992D01*
X019233Y017924D01*
X019237Y017855D01*
X019237Y017785D01*
X019233Y017716D01*
X019225Y017648D01*
X019213Y017580D01*
X019197Y017512D01*
X019177Y017446D01*
X019154Y017381D01*
X019127Y017317D01*
X019096Y017255D01*
X019062Y017195D01*
X019024Y017137D01*
X018983Y017082D01*
X018939Y017028D01*
X018892Y016978D01*
X018842Y016930D01*
X018789Y016885D01*
X018734Y016843D01*
X018676Y016805D01*
X018617Y016769D01*
X018555Y016738D01*
X018492Y016710D01*
X018428Y016685D01*
X018361Y016665D01*
X018294Y016648D01*
X018226Y016635D01*
X018158Y016626D01*
X018089Y016621D01*
X018020Y016620D01*
X017951Y016623D01*
X017882Y016630D01*
X017814Y016641D01*
X017746Y016656D01*
X017679Y016675D01*
X017614Y016697D01*
X017550Y016723D01*
X017488Y016753D01*
X017427Y016787D01*
X017369Y016823D01*
X017312Y016864D01*
X017258Y016907D01*
X017207Y016953D01*
X017158Y017003D01*
X017113Y017055D01*
X017070Y017109D01*
X017031Y017166D01*
X016995Y017225D01*
X016962Y017286D01*
X016933Y017349D01*
X016908Y017413D01*
X016886Y017479D01*
X016869Y017546D01*
X016855Y017614D01*
X016845Y017682D01*
X016839Y017751D01*
X016837Y017820D01*
X006937Y008983D02*
X006939Y009052D01*
X006945Y009121D01*
X006955Y009189D01*
X006969Y009257D01*
X006986Y009324D01*
X007008Y009390D01*
X007033Y009454D01*
X007062Y009517D01*
X007095Y009578D01*
X007131Y009637D01*
X007170Y009694D01*
X007213Y009748D01*
X007258Y009800D01*
X007307Y009850D01*
X007358Y009896D01*
X007412Y009939D01*
X007469Y009980D01*
X007527Y010016D01*
X007588Y010050D01*
X007650Y010080D01*
X007714Y010106D01*
X007779Y010128D01*
X007846Y010147D01*
X007914Y010162D01*
X007982Y010173D01*
X008051Y010180D01*
X008120Y010183D01*
X008189Y010182D01*
X008258Y010177D01*
X008326Y010168D01*
X008394Y010155D01*
X008461Y010138D01*
X008528Y010118D01*
X008592Y010093D01*
X008655Y010065D01*
X008717Y010034D01*
X008776Y009998D01*
X008834Y009960D01*
X008889Y009918D01*
X008942Y009873D01*
X008992Y009825D01*
X009039Y009775D01*
X009083Y009721D01*
X009124Y009666D01*
X009162Y009608D01*
X009196Y009548D01*
X009227Y009486D01*
X009254Y009422D01*
X009277Y009357D01*
X009297Y009291D01*
X009313Y009223D01*
X009325Y009155D01*
X009333Y009087D01*
X009337Y009018D01*
X009337Y008948D01*
X009333Y008879D01*
X009325Y008811D01*
X009313Y008743D01*
X009297Y008675D01*
X009277Y008609D01*
X009254Y008544D01*
X009227Y008480D01*
X009196Y008418D01*
X009162Y008358D01*
X009124Y008300D01*
X009083Y008245D01*
X009039Y008191D01*
X008992Y008141D01*
X008942Y008093D01*
X008889Y008048D01*
X008834Y008006D01*
X008776Y007968D01*
X008717Y007932D01*
X008655Y007901D01*
X008592Y007873D01*
X008528Y007848D01*
X008461Y007828D01*
X008394Y007811D01*
X008326Y007798D01*
X008258Y007789D01*
X008189Y007784D01*
X008120Y007783D01*
X008051Y007786D01*
X007982Y007793D01*
X007914Y007804D01*
X007846Y007819D01*
X007779Y007838D01*
X007714Y007860D01*
X007650Y007886D01*
X007588Y007916D01*
X007527Y007950D01*
X007469Y007986D01*
X007412Y008027D01*
X007358Y008070D01*
X007307Y008116D01*
X007258Y008166D01*
X007213Y008218D01*
X007170Y008272D01*
X007131Y008329D01*
X007095Y008388D01*
X007062Y008449D01*
X007033Y008512D01*
X007008Y008576D01*
X006986Y008642D01*
X006969Y008709D01*
X006955Y008777D01*
X006945Y008845D01*
X006939Y008914D01*
X006937Y008983D01*
D14*
X014189Y011482D02*
X015908Y011482D01*
X015908Y015253D01*
X014189Y015253D01*
X014189Y011482D01*
D15*
X014520Y014913D03*
D16*
X014267Y010695D02*
X013952Y010380D01*
X013952Y008136D01*
X014917Y008136D01*
X015507Y008136D02*
X016511Y008136D01*
X016511Y010380D01*
X016196Y010695D01*
X015537Y010596D02*
X015603Y010577D01*
X015669Y010554D01*
X015733Y010527D01*
X015795Y010497D01*
X015856Y010463D01*
X015914Y010427D01*
X015970Y010386D01*
X016024Y010343D01*
X016076Y010297D01*
X016124Y010247D01*
X016170Y010195D01*
X016213Y010141D01*
X016252Y010084D01*
X016289Y010025D01*
X016322Y009964D01*
X016351Y009902D01*
X016377Y009838D01*
X016399Y009772D01*
X016417Y009705D01*
X016432Y009638D01*
X016442Y009569D01*
X016449Y009500D01*
X016452Y009431D01*
X016451Y009362D01*
X016446Y009293D01*
X016437Y009224D01*
X016424Y009156D01*
X016407Y009089D01*
X016387Y009023D01*
X016363Y008958D01*
X016335Y008895D01*
X016304Y008833D01*
X016269Y008774D01*
X016231Y008716D01*
X016189Y008660D01*
X016145Y008607D01*
X016097Y008557D01*
X016047Y008509D01*
X015994Y008465D01*
X015939Y008423D01*
X015882Y008384D01*
X015822Y008349D01*
X015760Y008318D01*
X015697Y008290D01*
X015633Y008265D01*
X015567Y008244D01*
X014927Y008235D02*
X014861Y008254D01*
X014795Y008277D01*
X014731Y008304D01*
X014669Y008334D01*
X014608Y008368D01*
X014550Y008404D01*
X014494Y008445D01*
X014440Y008488D01*
X014388Y008534D01*
X014340Y008584D01*
X014294Y008636D01*
X014251Y008690D01*
X014212Y008747D01*
X014175Y008806D01*
X014142Y008867D01*
X014113Y008929D01*
X014087Y008993D01*
X014065Y009059D01*
X014047Y009126D01*
X014032Y009193D01*
X014022Y009262D01*
X014015Y009331D01*
X014012Y009400D01*
X014013Y009469D01*
X014018Y009538D01*
X014027Y009607D01*
X014040Y009675D01*
X014057Y009742D01*
X014077Y009808D01*
X014101Y009873D01*
X014129Y009936D01*
X014160Y009998D01*
X014195Y010057D01*
X014233Y010115D01*
X014275Y010171D01*
X014319Y010224D01*
X014367Y010274D01*
X014417Y010322D01*
X014470Y010366D01*
X014525Y010408D01*
X014582Y010447D01*
X014642Y010482D01*
X014704Y010513D01*
X014767Y010541D01*
X014831Y010566D01*
X014897Y010587D01*
D17*
X011851Y010190D02*
X011851Y009108D01*
X011351Y008733D02*
X010894Y008733D01*
X010394Y009108D02*
X010394Y010190D01*
X010726Y010190D01*
X011519Y010190D02*
X011851Y010190D01*
D18*
X019293Y010169D03*
M02*
