G75*
%MOIN*%
%OFA0B0*%
%FSLAX24Y24*%
%IPPOS*%
%LPD*%
%AMOC8*
5,1,8,0,0,1.08239X$1,22.5*
%
%ADD10C,0.0000*%
%ADD11R,0.0394X0.0138*%
%ADD12R,0.1181X0.1969*%
%ADD13R,0.0512X0.0591*%
%ADD14R,0.0591X0.0512*%
%ADD15R,0.0394X0.1102*%
%ADD16R,0.1063X0.0630*%
%ADD17R,0.0354X0.0787*%
%ADD18R,0.0512X0.0787*%
%ADD19C,0.0472*%
%ADD20R,0.0787X0.0240*%
%ADD21R,0.1417X0.1055*%
%ADD22R,0.1181X0.0394*%
%ADD23C,0.0394*%
%ADD24C,0.0120*%
%ADD25C,0.0240*%
%ADD26C,0.0100*%
%ADD27C,0.0320*%
%ADD28C,0.0240*%
%ADD29C,0.0160*%
%ADD30C,0.0060*%
%ADD31C,0.0140*%
D10*
X007237Y007583D02*
X021985Y007583D01*
X022029Y007585D01*
X022072Y007591D01*
X022114Y007600D01*
X022156Y007613D01*
X022196Y007630D01*
X022235Y007650D01*
X022272Y007673D01*
X022306Y007700D01*
X022339Y007729D01*
X022368Y007762D01*
X022395Y007796D01*
X022418Y007833D01*
X022438Y007872D01*
X022455Y007912D01*
X022468Y007954D01*
X022477Y007996D01*
X022483Y008039D01*
X022485Y008083D01*
X022485Y018698D01*
X022483Y018742D01*
X022477Y018785D01*
X022468Y018827D01*
X022455Y018869D01*
X022438Y018909D01*
X022418Y018948D01*
X022395Y018985D01*
X022368Y019019D01*
X022339Y019052D01*
X022306Y019081D01*
X022272Y019108D01*
X022235Y019131D01*
X022196Y019151D01*
X022156Y019168D01*
X022114Y019181D01*
X022072Y019190D01*
X022029Y019196D01*
X021985Y019198D01*
X007237Y019198D01*
X007193Y019196D01*
X007150Y019190D01*
X007108Y019181D01*
X007066Y019168D01*
X007026Y019151D01*
X006987Y019131D01*
X006950Y019108D01*
X006916Y019081D01*
X006883Y019052D01*
X006854Y019019D01*
X006827Y018985D01*
X006804Y018948D01*
X006784Y018909D01*
X006767Y018869D01*
X006754Y018827D01*
X006745Y018785D01*
X006739Y018742D01*
X006737Y018698D01*
X006737Y008083D01*
X006739Y008039D01*
X006745Y007996D01*
X006754Y007954D01*
X006767Y007912D01*
X006784Y007872D01*
X006804Y007833D01*
X006827Y007796D01*
X006854Y007762D01*
X006883Y007729D01*
X006916Y007700D01*
X006950Y007673D01*
X006987Y007650D01*
X007026Y007630D01*
X007066Y007613D01*
X007108Y007600D01*
X007150Y007591D01*
X007193Y007585D01*
X007237Y007583D01*
X007485Y008961D02*
X007487Y009011D01*
X007493Y009061D01*
X007503Y009110D01*
X007517Y009158D01*
X007534Y009205D01*
X007555Y009250D01*
X007580Y009294D01*
X007608Y009335D01*
X007640Y009374D01*
X007674Y009411D01*
X007711Y009445D01*
X007751Y009475D01*
X007793Y009502D01*
X007837Y009526D01*
X007883Y009547D01*
X007930Y009563D01*
X007978Y009576D01*
X008028Y009585D01*
X008077Y009590D01*
X008128Y009591D01*
X008178Y009588D01*
X008227Y009581D01*
X008276Y009570D01*
X008324Y009555D01*
X008370Y009537D01*
X008415Y009515D01*
X008458Y009489D01*
X008499Y009460D01*
X008538Y009428D01*
X008574Y009393D01*
X008606Y009355D01*
X008636Y009315D01*
X008663Y009272D01*
X008686Y009228D01*
X008705Y009182D01*
X008721Y009134D01*
X008733Y009085D01*
X008741Y009036D01*
X008745Y008986D01*
X008745Y008936D01*
X008741Y008886D01*
X008733Y008837D01*
X008721Y008788D01*
X008705Y008740D01*
X008686Y008694D01*
X008663Y008650D01*
X008636Y008607D01*
X008606Y008567D01*
X008574Y008529D01*
X008538Y008494D01*
X008499Y008462D01*
X008458Y008433D01*
X008415Y008407D01*
X008370Y008385D01*
X008324Y008367D01*
X008276Y008352D01*
X008227Y008341D01*
X008178Y008334D01*
X008128Y008331D01*
X008077Y008332D01*
X008028Y008337D01*
X007978Y008346D01*
X007930Y008359D01*
X007883Y008375D01*
X007837Y008396D01*
X007793Y008420D01*
X007751Y008447D01*
X007711Y008477D01*
X007674Y008511D01*
X007640Y008548D01*
X007608Y008587D01*
X007580Y008628D01*
X007555Y008672D01*
X007534Y008717D01*
X007517Y008764D01*
X007503Y008812D01*
X007493Y008861D01*
X007487Y008911D01*
X007485Y008961D01*
X007161Y011489D02*
X007163Y011522D01*
X007169Y011554D01*
X007178Y011585D01*
X007191Y011615D01*
X007208Y011643D01*
X007228Y011669D01*
X007251Y011693D01*
X007276Y011713D01*
X007304Y011731D01*
X007333Y011745D01*
X007364Y011755D01*
X007396Y011762D01*
X007429Y011765D01*
X007462Y011764D01*
X007494Y011759D01*
X007525Y011750D01*
X007556Y011738D01*
X007584Y011722D01*
X007611Y011703D01*
X007635Y011681D01*
X007656Y011656D01*
X007675Y011629D01*
X007690Y011600D01*
X007701Y011570D01*
X007709Y011538D01*
X007713Y011505D01*
X007713Y011473D01*
X007709Y011440D01*
X007701Y011408D01*
X007690Y011378D01*
X007675Y011349D01*
X007656Y011322D01*
X007635Y011297D01*
X007611Y011275D01*
X007584Y011256D01*
X007556Y011240D01*
X007525Y011228D01*
X007494Y011219D01*
X007462Y011214D01*
X007429Y011213D01*
X007396Y011216D01*
X007364Y011223D01*
X007333Y011233D01*
X007304Y011247D01*
X007276Y011265D01*
X007251Y011285D01*
X007228Y011309D01*
X007208Y011335D01*
X007191Y011363D01*
X007178Y011393D01*
X007169Y011424D01*
X007163Y011456D01*
X007161Y011489D01*
X007161Y015489D02*
X007163Y015522D01*
X007169Y015554D01*
X007178Y015585D01*
X007191Y015615D01*
X007208Y015643D01*
X007228Y015669D01*
X007251Y015693D01*
X007276Y015713D01*
X007304Y015731D01*
X007333Y015745D01*
X007364Y015755D01*
X007396Y015762D01*
X007429Y015765D01*
X007462Y015764D01*
X007494Y015759D01*
X007525Y015750D01*
X007556Y015738D01*
X007584Y015722D01*
X007611Y015703D01*
X007635Y015681D01*
X007656Y015656D01*
X007675Y015629D01*
X007690Y015600D01*
X007701Y015570D01*
X007709Y015538D01*
X007713Y015505D01*
X007713Y015473D01*
X007709Y015440D01*
X007701Y015408D01*
X007690Y015378D01*
X007675Y015349D01*
X007656Y015322D01*
X007635Y015297D01*
X007611Y015275D01*
X007584Y015256D01*
X007556Y015240D01*
X007525Y015228D01*
X007494Y015219D01*
X007462Y015214D01*
X007429Y015213D01*
X007396Y015216D01*
X007364Y015223D01*
X007333Y015233D01*
X007304Y015247D01*
X007276Y015265D01*
X007251Y015285D01*
X007228Y015309D01*
X007208Y015335D01*
X007191Y015363D01*
X007178Y015393D01*
X007169Y015424D01*
X007163Y015456D01*
X007161Y015489D01*
X017407Y017820D02*
X017409Y017870D01*
X017415Y017920D01*
X017425Y017969D01*
X017439Y018017D01*
X017456Y018064D01*
X017477Y018109D01*
X017502Y018153D01*
X017530Y018194D01*
X017562Y018233D01*
X017596Y018270D01*
X017633Y018304D01*
X017673Y018334D01*
X017715Y018361D01*
X017759Y018385D01*
X017805Y018406D01*
X017852Y018422D01*
X017900Y018435D01*
X017950Y018444D01*
X017999Y018449D01*
X018050Y018450D01*
X018100Y018447D01*
X018149Y018440D01*
X018198Y018429D01*
X018246Y018414D01*
X018292Y018396D01*
X018337Y018374D01*
X018380Y018348D01*
X018421Y018319D01*
X018460Y018287D01*
X018496Y018252D01*
X018528Y018214D01*
X018558Y018174D01*
X018585Y018131D01*
X018608Y018087D01*
X018627Y018041D01*
X018643Y017993D01*
X018655Y017944D01*
X018663Y017895D01*
X018667Y017845D01*
X018667Y017795D01*
X018663Y017745D01*
X018655Y017696D01*
X018643Y017647D01*
X018627Y017599D01*
X018608Y017553D01*
X018585Y017509D01*
X018558Y017466D01*
X018528Y017426D01*
X018496Y017388D01*
X018460Y017353D01*
X018421Y017321D01*
X018380Y017292D01*
X018337Y017266D01*
X018292Y017244D01*
X018246Y017226D01*
X018198Y017211D01*
X018149Y017200D01*
X018100Y017193D01*
X018050Y017190D01*
X017999Y017191D01*
X017950Y017196D01*
X017900Y017205D01*
X017852Y017218D01*
X017805Y017234D01*
X017759Y017255D01*
X017715Y017279D01*
X017673Y017306D01*
X017633Y017336D01*
X017596Y017370D01*
X017562Y017407D01*
X017530Y017446D01*
X017502Y017487D01*
X017477Y017531D01*
X017456Y017576D01*
X017439Y017623D01*
X017425Y017671D01*
X017415Y017720D01*
X017409Y017770D01*
X017407Y017820D01*
D11*
X016264Y015031D03*
X016264Y014775D03*
X016264Y014519D03*
X016264Y014263D03*
X016264Y014008D03*
X016264Y013752D03*
X016264Y013496D03*
X016264Y013240D03*
X016264Y012984D03*
X016264Y012728D03*
X016264Y012472D03*
X016264Y012216D03*
X016264Y011960D03*
X016264Y011704D03*
X013833Y011704D03*
X013833Y011960D03*
X013833Y012216D03*
X013833Y012472D03*
X013833Y012728D03*
X013833Y012984D03*
X013833Y013240D03*
X013833Y013496D03*
X013833Y013752D03*
X013833Y014008D03*
X013833Y014263D03*
X013833Y014519D03*
X013833Y014775D03*
X013833Y015031D03*
D12*
X015049Y013368D03*
D13*
X014238Y016115D03*
X013490Y016115D03*
X012665Y016097D03*
X011917Y016097D03*
X011917Y017237D03*
X012665Y017237D03*
X015463Y017383D03*
X016211Y017383D03*
X016211Y016483D03*
X015463Y016483D03*
X015463Y018283D03*
X016211Y018283D03*
X013309Y009880D03*
X012561Y009880D03*
X012561Y009030D03*
X013309Y009030D03*
D14*
X017155Y009565D03*
X017155Y010313D03*
X018109Y010323D03*
X018109Y009575D03*
D15*
X015232Y010341D03*
X015232Y008490D03*
D16*
X011494Y011548D03*
X011494Y012650D03*
X011460Y014156D03*
X011460Y015259D03*
D17*
X011674Y008595D03*
X010571Y008595D03*
D18*
X011123Y010327D03*
D19*
X010194Y017069D03*
X010189Y017898D03*
D20*
X019372Y016346D03*
X019372Y015953D03*
X019372Y015559D03*
X019372Y015165D03*
X019372Y014772D03*
X019372Y014378D03*
X019372Y013984D03*
X019372Y013590D03*
X019372Y013197D03*
X019372Y012803D03*
X019372Y012409D03*
X019372Y012016D03*
X019372Y011622D03*
X019372Y011228D03*
X019372Y010835D03*
D21*
X020474Y009657D03*
X020474Y017531D03*
D22*
X009405Y015989D03*
X009405Y014989D03*
X009405Y013989D03*
X009405Y012989D03*
X009405Y011989D03*
X009405Y010989D03*
D23*
X007437Y017583D03*
X020497Y008303D03*
X020957Y018623D03*
D24*
X019372Y015165D02*
X017259Y015165D01*
X016637Y014543D01*
X016613Y014519D01*
X016264Y014519D01*
X016264Y014263D02*
X016597Y014263D01*
X016637Y014303D01*
X016637Y014063D01*
X016577Y014003D01*
X016269Y014003D01*
X016264Y014008D01*
X016637Y014303D02*
X016637Y014543D01*
X016794Y013590D02*
X016697Y013493D01*
X016267Y013493D01*
X016264Y013496D01*
X016264Y013240D02*
X019329Y013240D01*
X019372Y013197D01*
X020510Y013197D01*
X020837Y013523D01*
X020244Y013590D02*
X020957Y014303D01*
X020244Y013590D02*
X019372Y013590D01*
X016794Y013590D01*
X017237Y012983D02*
X016265Y012983D01*
X016264Y012984D01*
X017237Y012983D02*
X017417Y012803D01*
X019372Y012803D01*
X020956Y012803D01*
X021017Y012863D01*
X014297Y011963D02*
X014297Y011603D01*
X014237Y011603D01*
X013097Y010463D01*
X011259Y010463D01*
X011123Y010327D01*
X013833Y011960D02*
X013874Y011960D01*
X013997Y012083D01*
X013966Y012083D01*
X013833Y012216D01*
X013997Y012083D02*
X014177Y012083D01*
X014297Y011963D01*
D25*
X014619Y012608D03*
X015029Y012618D03*
X015039Y013018D03*
X015049Y013408D03*
X015039Y013808D03*
X014645Y013808D03*
X014609Y013418D03*
X014619Y013028D03*
X015459Y013008D03*
X015489Y013408D03*
X015489Y013808D03*
X015489Y014198D03*
X015029Y014198D03*
X014645Y014201D03*
X015469Y012628D03*
X015917Y010823D03*
X016097Y010523D03*
X015917Y010223D03*
X015677Y010523D03*
X016337Y010223D03*
X016517Y010523D03*
X016697Y010823D03*
X017057Y010823D03*
X016337Y010823D03*
X017477Y008303D03*
X019037Y008963D03*
X020657Y011723D03*
X021617Y011003D03*
X021017Y012863D03*
X020837Y013523D03*
X020957Y014303D03*
X021977Y014183D03*
X021017Y015743D03*
X021977Y017003D03*
X019337Y016763D03*
X017597Y015803D03*
X016877Y015803D03*
X016817Y016763D03*
X014357Y017063D03*
X013277Y017543D03*
X012317Y014903D03*
X012377Y014543D03*
X012737Y014483D03*
X012617Y013163D03*
X012437Y012923D03*
X012257Y013163D03*
X013277Y012263D03*
X010697Y013103D03*
X010457Y012863D03*
X010217Y013103D03*
X009437Y014483D03*
X008417Y016103D03*
X007397Y014903D03*
X007397Y014303D03*
X008597Y012503D03*
X010217Y011123D03*
X010457Y010943D03*
X010697Y011123D03*
X009617Y008243D03*
X013457Y008303D03*
X018017Y014363D03*
X007457Y018563D03*
D26*
X007461Y018054D02*
X007437Y018052D01*
X007412Y018054D01*
X007407Y018050D01*
X007385Y018048D01*
X007379Y018052D01*
X007355Y018045D01*
X007331Y018043D01*
X007326Y018037D01*
X007305Y018032D01*
X007298Y018034D01*
X007276Y018024D01*
X007253Y018018D01*
X007249Y018011D01*
X007230Y018002D01*
X007222Y018004D01*
X007202Y017989D01*
X007180Y017979D01*
X007177Y017972D01*
X007160Y017960D01*
X007153Y017960D01*
X007135Y017943D01*
X007115Y017929D01*
X007114Y017921D01*
X007099Y017906D01*
X007091Y017905D01*
X007077Y017885D01*
X007060Y017867D01*
X007060Y017860D01*
X007048Y017843D01*
X007041Y017840D01*
X007030Y017818D01*
X007016Y017798D01*
X007018Y017790D01*
X007009Y017771D01*
X007002Y017767D01*
X006996Y017744D01*
X006986Y017722D01*
X006988Y017715D01*
X006983Y017694D01*
X006977Y017689D01*
X006975Y017665D01*
X006968Y017641D01*
X006972Y017635D01*
X006970Y017613D01*
X006966Y017608D01*
X006968Y017583D01*
X006966Y017559D01*
X006970Y017553D01*
X006972Y017532D01*
X006968Y017526D01*
X006975Y017502D01*
X006977Y017477D01*
X006983Y017473D01*
X006988Y017452D01*
X006986Y017445D01*
X006996Y017423D01*
X007002Y017399D01*
X007009Y017396D01*
X007018Y017376D01*
X007016Y017369D01*
X007030Y017349D01*
X007041Y017327D01*
X007048Y017324D01*
X007060Y017307D01*
X007060Y017299D01*
X007077Y017282D01*
X007091Y017262D01*
X007099Y017261D01*
X007114Y017245D01*
X007115Y017238D01*
X007135Y017224D01*
X007153Y017207D01*
X007160Y017207D01*
X007177Y017195D01*
X007180Y017188D01*
X007202Y017177D01*
X007222Y017163D01*
X007230Y017164D01*
X007249Y017155D01*
X007253Y017149D01*
X007276Y017143D01*
X007298Y017132D01*
X007305Y017135D01*
X007326Y017129D01*
X007331Y017124D01*
X007355Y017121D01*
X007379Y017115D01*
X007385Y017119D01*
X007407Y017117D01*
X007412Y017112D01*
X007437Y017114D01*
X007461Y017112D01*
X007467Y017117D01*
X007488Y017119D01*
X007494Y017115D01*
X007518Y017121D01*
X007542Y017124D01*
X007547Y017129D01*
X007568Y017135D01*
X007575Y017132D01*
X007597Y017143D01*
X007621Y017149D01*
X007624Y017155D01*
X007644Y017164D01*
X007651Y017163D01*
X007671Y017177D01*
X007693Y017188D01*
X007696Y017195D01*
X007713Y017207D01*
X007721Y017207D01*
X007738Y017224D01*
X007758Y017238D01*
X007759Y017245D01*
X007775Y017261D01*
X007782Y017262D01*
X007796Y017282D01*
X007813Y017299D01*
X007813Y017307D01*
X007825Y017324D01*
X007832Y017327D01*
X007843Y017349D01*
X007857Y017369D01*
X007856Y017376D01*
X007865Y017396D01*
X007871Y017399D01*
X007877Y017423D01*
X007888Y017445D01*
X007885Y017452D01*
X007891Y017473D01*
X007896Y017477D01*
X007899Y017502D01*
X007905Y017526D01*
X007901Y017532D01*
X007903Y017553D01*
X007908Y017559D01*
X007906Y017583D01*
X007908Y017608D01*
X007903Y017613D01*
X007901Y017635D01*
X007905Y017641D01*
X007899Y017665D01*
X007896Y017689D01*
X007891Y017694D01*
X007885Y017715D01*
X007888Y017722D01*
X007877Y017744D01*
X007871Y017767D01*
X007865Y017771D01*
X007856Y017790D01*
X007857Y017798D01*
X007843Y017818D01*
X007832Y017840D01*
X007825Y017843D01*
X007813Y017860D01*
X007813Y017867D01*
X007796Y017885D01*
X007782Y017905D01*
X007775Y017906D01*
X007759Y017921D01*
X007758Y017929D01*
X007738Y017943D01*
X007721Y017960D01*
X007713Y017960D01*
X007696Y017972D01*
X007693Y017979D01*
X007671Y017989D01*
X007651Y018004D01*
X007644Y018002D01*
X007624Y018011D01*
X007621Y018018D01*
X007597Y018024D01*
X007575Y018034D01*
X007568Y018032D01*
X007547Y018037D01*
X007542Y018043D01*
X007518Y018045D01*
X007494Y018052D01*
X007488Y018048D01*
X007467Y018050D01*
X007461Y018054D01*
X007596Y018024D02*
X008456Y018024D01*
X008357Y017926D02*
X007759Y017926D01*
X007838Y017827D02*
X008259Y017827D01*
X008264Y017832D02*
X008188Y017756D01*
X008147Y017657D01*
X008147Y016924D01*
X008188Y016824D01*
X008714Y016298D01*
X008665Y016248D01*
X008665Y016210D01*
X008646Y016256D01*
X008570Y016332D01*
X008470Y016373D01*
X008363Y016373D01*
X008264Y016332D01*
X008188Y016256D01*
X008147Y016157D01*
X008147Y016050D01*
X008188Y015950D01*
X008264Y015874D01*
X008363Y015833D01*
X008404Y015833D01*
X008448Y015789D01*
X008665Y015789D01*
X008665Y015733D01*
X008321Y015733D01*
X008141Y015553D01*
X008007Y015419D01*
X008007Y010788D01*
X008547Y010248D01*
X008681Y010113D01*
X010717Y010113D01*
X010717Y009872D01*
X010805Y009784D01*
X011441Y009784D01*
X011528Y009872D01*
X011528Y010253D01*
X012920Y010253D01*
X012903Y010237D01*
X012903Y009522D01*
X012971Y009455D01*
X012899Y009455D01*
X012879Y009475D02*
X012935Y009419D01*
X012971Y009455D01*
X012879Y009475D02*
X012243Y009475D01*
X012155Y009387D01*
X012155Y009300D01*
X012055Y009300D01*
X011955Y009258D01*
X008836Y009258D01*
X008795Y009356D02*
X012155Y009356D01*
X012223Y009455D02*
X008724Y009455D01*
X008776Y009403D02*
X008556Y009622D01*
X008270Y009741D01*
X007959Y009741D01*
X007673Y009622D01*
X007453Y009403D01*
X007335Y009116D01*
X007335Y008806D01*
X007453Y008519D01*
X007673Y008300D01*
X007959Y008181D01*
X008270Y008181D01*
X008556Y008300D01*
X008776Y008519D01*
X008895Y008806D01*
X008895Y009116D01*
X008776Y009403D01*
X008626Y009553D02*
X012903Y009553D01*
X012903Y009652D02*
X008485Y009652D01*
X008877Y009159D02*
X011856Y009159D01*
X011836Y009139D02*
X011434Y009139D01*
X011347Y009051D01*
X011347Y008139D01*
X011434Y008051D01*
X011913Y008051D01*
X012001Y008139D01*
X012001Y008540D01*
X012155Y008695D01*
X012155Y008672D01*
X012243Y008584D01*
X012879Y008584D01*
X012935Y008640D01*
X012991Y008584D01*
X013627Y008584D01*
X013715Y008672D01*
X013715Y009387D01*
X013647Y009455D01*
X013715Y009522D01*
X013715Y010237D01*
X013695Y010257D01*
X014512Y011073D01*
X014637Y011073D01*
X014637Y009480D01*
X014754Y009363D01*
X015759Y009363D01*
X015877Y009480D01*
X015877Y009783D01*
X018699Y009783D01*
X018817Y009900D01*
X018817Y010565D01*
X018916Y010565D01*
X018916Y010564D01*
X019828Y010564D01*
X019916Y010652D01*
X019916Y011017D01*
X019828Y011105D01*
X018916Y011105D01*
X018916Y011105D01*
X018817Y011105D01*
X018817Y011352D01*
X018916Y011352D01*
X018916Y011352D01*
X019828Y011352D01*
X019916Y011440D01*
X019916Y011804D01*
X019828Y011892D01*
X018916Y011892D01*
X018817Y011892D01*
X018817Y011961D01*
X018994Y012139D01*
X019828Y012139D01*
X019916Y012227D01*
X019916Y012592D01*
X019914Y012593D01*
X021043Y012593D01*
X021044Y012593D01*
X021070Y012593D01*
X021170Y012634D01*
X021246Y012710D01*
X021287Y012810D01*
X021287Y012917D01*
X021246Y013016D01*
X021170Y013092D01*
X021070Y013133D01*
X020963Y013133D01*
X020864Y013092D01*
X020788Y013016D01*
X020786Y013013D01*
X020623Y013013D01*
X020864Y013253D01*
X020890Y013253D01*
X020990Y013294D01*
X021066Y013370D01*
X021107Y013470D01*
X021107Y013577D01*
X021066Y013676D01*
X020990Y013752D01*
X020890Y013793D01*
X020783Y013793D01*
X020716Y013766D01*
X020984Y014033D01*
X021010Y014033D01*
X021110Y014074D01*
X021186Y014150D01*
X021227Y014250D01*
X021227Y014357D01*
X021186Y014456D01*
X021110Y014532D01*
X021010Y014573D01*
X020903Y014573D01*
X020804Y014532D01*
X020728Y014456D01*
X020687Y014357D01*
X020687Y014330D01*
X020157Y013800D01*
X019888Y013800D01*
X019828Y013860D01*
X018916Y013860D01*
X018856Y013800D01*
X016707Y013800D01*
X016611Y013705D01*
X016611Y013793D01*
X016664Y013793D01*
X016787Y013916D01*
X016787Y013916D01*
X016847Y013976D01*
X016847Y014456D01*
X017346Y014955D01*
X018830Y014955D01*
X018828Y014954D01*
X018828Y014589D01*
X018916Y014501D01*
X019828Y014501D01*
X019828Y014502D01*
X020159Y014502D01*
X020258Y014543D01*
X020450Y014734D01*
X020526Y014810D01*
X020567Y014910D01*
X020567Y016457D01*
X020526Y016556D01*
X020166Y016916D01*
X020090Y016992D01*
X019990Y017033D01*
X019283Y017033D01*
X019184Y016992D01*
X019108Y016916D01*
X019067Y016817D01*
X019067Y016710D01*
X019108Y016610D01*
X019184Y016534D01*
X019283Y016493D01*
X019825Y016493D01*
X020027Y016291D01*
X020027Y016159D01*
X020003Y016183D01*
X019868Y016183D01*
X019828Y016223D01*
X018916Y016223D01*
X018916Y016223D01*
X018579Y016223D01*
X017678Y017124D01*
X017882Y017040D01*
X018192Y017040D01*
X018478Y017158D01*
X018698Y017378D01*
X018817Y017664D01*
X018817Y017975D01*
X018698Y018261D01*
X018478Y018481D01*
X018192Y018599D01*
X017882Y018599D01*
X017595Y018481D01*
X017375Y018261D01*
X017267Y017999D01*
X017267Y018017D01*
X017226Y018116D01*
X016926Y018416D01*
X016850Y018492D01*
X016750Y018533D01*
X016617Y018533D01*
X016617Y018641D01*
X016529Y018729D01*
X015893Y018729D01*
X015837Y018673D01*
X015781Y018729D01*
X015145Y018729D01*
X015057Y018641D01*
X015057Y017926D01*
X014896Y017926D01*
X014797Y018024D02*
X015057Y018024D01*
X015057Y017926D02*
X015145Y017838D01*
X015193Y017838D01*
X015193Y017829D01*
X015145Y017829D01*
X015069Y017753D01*
X013926Y018896D01*
X013850Y018972D01*
X013750Y019013D01*
X009503Y019013D01*
X009404Y018972D01*
X008264Y017832D01*
X008176Y017729D02*
X007884Y017729D01*
X007902Y017630D02*
X008147Y017630D01*
X008147Y017532D02*
X007901Y017532D01*
X007882Y017433D02*
X008147Y017433D01*
X008147Y017335D02*
X007836Y017335D01*
X007756Y017236D02*
X008147Y017236D01*
X008147Y017138D02*
X007587Y017138D01*
X007286Y017138D02*
X006887Y017138D01*
X006887Y017236D02*
X007118Y017236D01*
X007037Y017335D02*
X006887Y017335D01*
X006887Y017433D02*
X006991Y017433D01*
X006972Y017532D02*
X006887Y017532D01*
X006887Y017630D02*
X006972Y017630D01*
X006989Y017729D02*
X006887Y017729D01*
X006887Y017827D02*
X007035Y017827D01*
X007115Y017926D02*
X006887Y017926D01*
X006887Y018024D02*
X007277Y018024D01*
X006887Y018123D02*
X008554Y018123D01*
X008653Y018221D02*
X006887Y018221D01*
X006887Y018320D02*
X008751Y018320D01*
X008850Y018418D02*
X006887Y018418D01*
X006887Y018517D02*
X008948Y018517D01*
X009047Y018615D02*
X006887Y018615D01*
X006887Y018698D02*
X006893Y018766D01*
X006946Y018892D01*
X007042Y018989D01*
X007168Y019041D01*
X007237Y019048D01*
X020761Y019048D01*
X020750Y019042D01*
X020742Y019044D01*
X020722Y019029D01*
X020700Y019019D01*
X020697Y019012D01*
X020680Y019000D01*
X020673Y019000D01*
X020655Y018983D01*
X020635Y018969D01*
X020634Y018961D01*
X020619Y018946D01*
X020611Y018945D01*
X020597Y018925D01*
X020580Y018907D01*
X020580Y018900D01*
X020568Y018883D01*
X020561Y018880D01*
X020550Y018858D01*
X020536Y018838D01*
X020538Y018830D01*
X020529Y018811D01*
X020522Y018807D01*
X020516Y018784D01*
X020506Y018762D01*
X020508Y018755D01*
X020503Y018734D01*
X020497Y018729D01*
X020495Y018705D01*
X020488Y018681D01*
X020492Y018675D01*
X020490Y018653D01*
X020486Y018648D01*
X020488Y018623D01*
X020486Y018599D01*
X020490Y018593D01*
X020492Y018572D01*
X020488Y018566D01*
X020495Y018542D01*
X020497Y018517D01*
X020503Y018513D01*
X020508Y018492D01*
X020506Y018485D01*
X020516Y018463D01*
X020522Y018439D01*
X020529Y018436D01*
X020538Y018416D01*
X020536Y018409D01*
X020550Y018389D01*
X020561Y018367D01*
X020568Y018364D01*
X020580Y018347D01*
X020580Y018339D01*
X020597Y018322D01*
X020611Y018302D01*
X020619Y018301D01*
X020634Y018285D01*
X020635Y018278D01*
X020655Y018264D01*
X020673Y018247D01*
X020680Y018247D01*
X020697Y018235D01*
X020700Y018228D01*
X020722Y018217D01*
X020742Y018203D01*
X020750Y018204D01*
X020769Y018195D01*
X020773Y018189D01*
X020796Y018183D01*
X020818Y018172D01*
X020825Y018175D01*
X020846Y018169D01*
X020851Y018164D01*
X020875Y018161D01*
X020899Y018155D01*
X020905Y018159D01*
X020927Y018157D01*
X020932Y018152D01*
X020957Y018154D01*
X020981Y018152D01*
X020987Y018157D01*
X021008Y018159D01*
X021014Y018155D01*
X021038Y018161D01*
X021062Y018164D01*
X021067Y018169D01*
X021088Y018175D01*
X021095Y018172D01*
X021117Y018183D01*
X021141Y018189D01*
X021144Y018195D01*
X021164Y018204D01*
X021171Y018203D01*
X021191Y018217D01*
X021213Y018228D01*
X021216Y018235D01*
X021233Y018247D01*
X021241Y018247D01*
X021258Y018264D01*
X021278Y018278D01*
X021279Y018285D01*
X021295Y018301D01*
X021302Y018302D01*
X021316Y018322D01*
X021333Y018339D01*
X021333Y018347D01*
X021345Y018364D01*
X021352Y018367D01*
X021363Y018389D01*
X021377Y018409D01*
X021376Y018416D01*
X021385Y018436D01*
X021391Y018439D01*
X021397Y018463D01*
X021408Y018485D01*
X021405Y018492D01*
X021411Y018513D01*
X021416Y018517D01*
X022335Y018517D01*
X022335Y018615D02*
X021426Y018615D01*
X021426Y018623D02*
X021428Y018648D01*
X021423Y018653D01*
X021421Y018675D01*
X021425Y018681D01*
X021419Y018705D01*
X021416Y018729D01*
X021411Y018734D01*
X021405Y018755D01*
X021408Y018762D01*
X021397Y018784D01*
X021391Y018807D01*
X021385Y018811D01*
X021376Y018830D01*
X021377Y018838D01*
X021363Y018858D01*
X021352Y018880D01*
X021345Y018883D01*
X021333Y018900D01*
X021333Y018907D01*
X021316Y018925D01*
X021302Y018945D01*
X021295Y018946D01*
X021279Y018961D01*
X021278Y018969D01*
X021258Y018983D01*
X021241Y019000D01*
X021233Y019000D01*
X021216Y019012D01*
X021213Y019019D01*
X021191Y019029D01*
X021171Y019044D01*
X021164Y019042D01*
X021152Y019048D01*
X021985Y019048D01*
X022053Y019041D01*
X022179Y018989D01*
X022276Y018892D01*
X022328Y018766D01*
X022335Y018698D01*
X022335Y008083D01*
X022328Y008015D01*
X022276Y007889D01*
X022179Y007792D01*
X022053Y007740D01*
X021985Y007733D01*
X007237Y007733D01*
X007168Y007740D01*
X007042Y007792D01*
X006946Y007889D01*
X006893Y008015D01*
X006887Y008083D01*
X006887Y018698D01*
X006888Y018714D02*
X009145Y018714D01*
X009244Y018812D02*
X006913Y018812D01*
X006965Y018911D02*
X009342Y018911D01*
X009493Y019009D02*
X007093Y019009D01*
X008687Y017491D02*
X009668Y018473D01*
X013585Y018473D01*
X014904Y017154D01*
X015003Y017113D01*
X015057Y017113D01*
X015057Y017026D01*
X015145Y016938D01*
X015781Y016938D01*
X015837Y016994D01*
X015893Y016938D01*
X015941Y016938D01*
X015941Y016929D01*
X015893Y016929D01*
X015805Y016841D01*
X015805Y016126D01*
X015893Y016038D01*
X016529Y016038D01*
X016617Y016126D01*
X016617Y016493D01*
X016870Y016493D01*
X016970Y016534D01*
X017046Y016610D01*
X017087Y016710D01*
X017087Y016817D01*
X017046Y016916D01*
X016970Y016992D01*
X016870Y017033D01*
X016742Y017033D01*
X016617Y017159D01*
X016617Y017741D01*
X016529Y017829D01*
X015893Y017829D01*
X015837Y017773D01*
X015781Y017829D01*
X015733Y017829D01*
X015733Y017838D01*
X015781Y017838D01*
X015837Y017894D01*
X015893Y017838D01*
X016529Y017838D01*
X016617Y017926D01*
X016617Y017962D01*
X016727Y017851D01*
X016727Y017370D01*
X016768Y017270D01*
X016844Y017194D01*
X018314Y015724D01*
X018414Y015683D01*
X018916Y015683D01*
X018916Y015683D01*
X019767Y015683D01*
X019767Y015435D01*
X018916Y015435D01*
X018856Y015375D01*
X017172Y015375D01*
X016611Y014815D01*
X016611Y014906D01*
X016523Y014994D01*
X016005Y014994D01*
X015918Y014906D01*
X015918Y011933D01*
X015671Y011933D01*
X015537Y011799D01*
X015271Y011533D01*
X014507Y011533D01*
X014507Y012050D01*
X014387Y012170D01*
X014264Y012293D01*
X014180Y012293D01*
X014180Y014823D01*
X014199Y014823D01*
X014317Y014940D01*
X014438Y015062D01*
X014438Y015670D01*
X014556Y015670D01*
X014644Y015758D01*
X014644Y016473D01*
X014556Y016560D01*
X013920Y016560D01*
X013864Y016505D01*
X013808Y016560D01*
X013172Y016560D01*
X013085Y016473D01*
X013085Y015758D01*
X013172Y015670D01*
X013257Y015670D01*
X013257Y015086D01*
X012877Y015466D01*
X012877Y015652D01*
X012983Y015652D01*
X013071Y015740D01*
X013071Y016455D01*
X012983Y016543D01*
X012975Y016543D01*
X012975Y016792D01*
X012983Y016792D01*
X013071Y016880D01*
X013071Y017368D01*
X013124Y017314D01*
X013223Y017273D01*
X013330Y017273D01*
X013430Y017314D01*
X013506Y017390D01*
X013547Y017490D01*
X013547Y017597D01*
X013506Y017696D01*
X013430Y017772D01*
X013333Y017812D01*
X013072Y018073D01*
X012221Y018073D01*
X012087Y017939D01*
X011831Y017683D01*
X011599Y017683D01*
X011511Y017595D01*
X011511Y016880D01*
X011599Y016792D01*
X011607Y016792D01*
X011607Y016543D01*
X011599Y016543D01*
X011511Y016455D01*
X011511Y015740D01*
X011599Y015652D01*
X011825Y015652D01*
X011834Y015643D01*
X011999Y015643D01*
X012008Y015652D01*
X012057Y015652D01*
X012057Y015420D01*
X012168Y015309D01*
X012137Y015278D01*
X011957Y015098D01*
X011957Y014621D01*
X010866Y014621D01*
X010778Y014533D01*
X010778Y013823D01*
X010337Y013823D01*
X010337Y014378D01*
X010231Y014483D01*
X009707Y014483D01*
X009707Y014537D01*
X009666Y014636D01*
X009660Y014642D01*
X010058Y014642D01*
X010146Y014730D01*
X010146Y015248D01*
X010120Y015273D01*
X010312Y015273D01*
X010447Y015408D01*
X010627Y015588D01*
X010627Y016259D01*
X010492Y016393D01*
X010252Y016633D01*
X010132Y016633D01*
X009967Y016799D01*
X009967Y017350D01*
X010128Y017512D01*
X010266Y017512D01*
X010408Y017570D01*
X010516Y017679D01*
X010575Y017821D01*
X010575Y017975D01*
X010516Y018117D01*
X010408Y018225D01*
X010266Y018284D01*
X010112Y018284D01*
X009970Y018225D01*
X009861Y018117D01*
X009803Y017975D01*
X009803Y017837D01*
X009641Y017676D01*
X009507Y017541D01*
X009507Y016608D01*
X009779Y016336D01*
X009440Y016336D01*
X008687Y017089D01*
X008687Y017491D01*
X008727Y017532D02*
X009507Y017532D01*
X009507Y017433D02*
X008687Y017433D01*
X008687Y017335D02*
X009507Y017335D01*
X009507Y017236D02*
X008687Y017236D01*
X008687Y017138D02*
X009507Y017138D01*
X009507Y017039D02*
X008736Y017039D01*
X008835Y016941D02*
X009507Y016941D01*
X009507Y016842D02*
X008933Y016842D01*
X009032Y016744D02*
X009507Y016744D01*
X009507Y016645D02*
X009130Y016645D01*
X009229Y016547D02*
X009568Y016547D01*
X009666Y016448D02*
X009327Y016448D01*
X009426Y016350D02*
X009765Y016350D01*
X010120Y016645D02*
X011607Y016645D01*
X011607Y016547D02*
X010338Y016547D01*
X010437Y016448D02*
X011511Y016448D01*
X011511Y016350D02*
X010535Y016350D01*
X010627Y016251D02*
X011511Y016251D01*
X011511Y016153D02*
X010627Y016153D01*
X010627Y016054D02*
X011511Y016054D01*
X011511Y015956D02*
X010627Y015956D01*
X010627Y015857D02*
X011511Y015857D01*
X011511Y015759D02*
X010627Y015759D01*
X010627Y015660D02*
X011590Y015660D01*
X011917Y015843D02*
X011917Y016097D01*
X011917Y016083D01*
X012257Y015743D01*
X012257Y015503D01*
X013497Y014263D01*
X013833Y014263D01*
X013833Y014519D02*
X013541Y014519D01*
X012677Y015383D01*
X012677Y016085D01*
X012665Y016097D01*
X013071Y016054D02*
X013085Y016054D01*
X013071Y015956D02*
X013085Y015956D01*
X013071Y015857D02*
X013085Y015857D01*
X013071Y015759D02*
X013085Y015759D01*
X012991Y015660D02*
X013257Y015660D01*
X013257Y015562D02*
X012877Y015562D01*
X012879Y015463D02*
X013257Y015463D01*
X013257Y015365D02*
X012978Y015365D01*
X013076Y015266D02*
X013257Y015266D01*
X013257Y015168D02*
X013175Y015168D01*
X013457Y014903D02*
X013457Y016081D01*
X013490Y016115D01*
X013085Y016153D02*
X013071Y016153D01*
X013071Y016251D02*
X013085Y016251D01*
X013071Y016350D02*
X013085Y016350D01*
X013071Y016448D02*
X013085Y016448D01*
X013159Y016547D02*
X012975Y016547D01*
X012975Y016645D02*
X015805Y016645D01*
X015805Y016547D02*
X014570Y016547D01*
X014644Y016448D02*
X015805Y016448D01*
X015805Y016350D02*
X014644Y016350D01*
X014644Y016251D02*
X015805Y016251D01*
X015805Y016153D02*
X014644Y016153D01*
X014644Y016054D02*
X015876Y016054D01*
X016545Y016054D02*
X017984Y016054D01*
X018082Y015956D02*
X014644Y015956D01*
X014644Y015857D02*
X018181Y015857D01*
X018279Y015759D02*
X014644Y015759D01*
X014438Y015660D02*
X019767Y015660D01*
X019767Y015562D02*
X014438Y015562D01*
X014438Y015463D02*
X019767Y015463D01*
X020567Y015463D02*
X022335Y015463D01*
X022335Y015365D02*
X020567Y015365D01*
X020567Y015266D02*
X022335Y015266D01*
X022335Y015168D02*
X020567Y015168D01*
X020567Y015069D02*
X022335Y015069D01*
X022335Y014971D02*
X020567Y014971D01*
X020551Y014872D02*
X022335Y014872D01*
X022335Y014774D02*
X020489Y014774D01*
X020390Y014675D02*
X022335Y014675D01*
X022335Y014577D02*
X020292Y014577D01*
X020539Y014183D02*
X016847Y014183D01*
X016847Y014281D02*
X020638Y014281D01*
X020696Y014380D02*
X016847Y014380D01*
X016869Y014478D02*
X020750Y014478D01*
X021163Y014478D02*
X022335Y014478D01*
X022335Y014380D02*
X021217Y014380D01*
X021227Y014281D02*
X022335Y014281D01*
X022335Y014183D02*
X021199Y014183D01*
X021119Y014084D02*
X022335Y014084D01*
X022335Y013986D02*
X020936Y013986D01*
X020838Y013887D02*
X022335Y013887D01*
X022335Y013789D02*
X020901Y013789D01*
X020772Y013789D02*
X020739Y013789D01*
X021051Y013690D02*
X022335Y013690D01*
X022335Y013592D02*
X021101Y013592D01*
X021107Y013493D02*
X022335Y013493D01*
X022335Y013395D02*
X021076Y013395D01*
X020991Y013296D02*
X022335Y013296D01*
X022335Y013198D02*
X020808Y013198D01*
X020881Y013099D02*
X020710Y013099D01*
X021152Y013099D02*
X022335Y013099D01*
X022335Y013001D02*
X021252Y013001D01*
X021287Y012902D02*
X022335Y012902D01*
X022335Y012804D02*
X021284Y012804D01*
X021240Y012705D02*
X022335Y012705D01*
X022335Y012607D02*
X021103Y012607D01*
X019916Y012508D02*
X022335Y012508D01*
X022335Y012410D02*
X019916Y012410D01*
X019916Y012311D02*
X022335Y012311D01*
X022335Y012213D02*
X019902Y012213D01*
X019901Y011819D02*
X022335Y011819D01*
X022335Y011917D02*
X018817Y011917D01*
X018916Y011892D02*
X018916Y011892D01*
X018871Y012016D02*
X022335Y012016D01*
X022335Y012114D02*
X018969Y012114D01*
X018617Y012114D02*
X017837Y012114D01*
X017837Y012016D02*
X018617Y012016D01*
X018617Y011917D02*
X017837Y011917D01*
X017837Y011819D02*
X018617Y011819D01*
X018617Y011720D02*
X017837Y011720D01*
X017837Y011622D02*
X018617Y011622D01*
X018617Y011523D02*
X017837Y011523D01*
X017837Y011425D02*
X018617Y011425D01*
X018617Y011326D02*
X017837Y011326D01*
X017837Y011228D02*
X018617Y011228D01*
X018617Y011129D02*
X017837Y011129D01*
X017837Y011031D02*
X018617Y011031D01*
X018617Y010932D02*
X014837Y010932D01*
X014837Y011003D02*
X017837Y011003D01*
X017837Y012323D01*
X018617Y012323D01*
X018617Y009983D01*
X015677Y009983D01*
X015677Y009563D01*
X014837Y009563D01*
X014837Y011003D01*
X014837Y010834D02*
X018617Y010834D01*
X018617Y010735D02*
X014837Y010735D01*
X014837Y010637D02*
X018617Y010637D01*
X018617Y010538D02*
X014837Y010538D01*
X014837Y010440D02*
X018617Y010440D01*
X018617Y010341D02*
X014837Y010341D01*
X014837Y010243D02*
X018617Y010243D01*
X018617Y010144D02*
X014837Y010144D01*
X014837Y010046D02*
X018617Y010046D01*
X018817Y010046D02*
X022335Y010046D01*
X022335Y010144D02*
X018817Y010144D01*
X018817Y010243D02*
X022335Y010243D01*
X022335Y010341D02*
X018817Y010341D01*
X018817Y010440D02*
X022335Y010440D01*
X022335Y010538D02*
X018817Y010538D01*
X018817Y009947D02*
X022335Y009947D01*
X022335Y009849D02*
X018765Y009849D01*
X019900Y010637D02*
X022335Y010637D01*
X022335Y010735D02*
X019916Y010735D01*
X019916Y010834D02*
X022335Y010834D01*
X022335Y010932D02*
X019916Y010932D01*
X019902Y011031D02*
X022335Y011031D01*
X022335Y011129D02*
X018817Y011129D01*
X018817Y011228D02*
X022335Y011228D01*
X022335Y011326D02*
X018817Y011326D01*
X018617Y012213D02*
X017837Y012213D01*
X017837Y012311D02*
X018617Y012311D01*
X019916Y011720D02*
X022335Y011720D01*
X022335Y011622D02*
X019916Y011622D01*
X019916Y011523D02*
X022335Y011523D01*
X022335Y011425D02*
X019901Y011425D01*
X020244Y013887D02*
X016758Y013887D01*
X016695Y013789D02*
X016611Y013789D01*
X016847Y013986D02*
X020342Y013986D01*
X020441Y014084D02*
X016847Y014084D01*
X016967Y014577D02*
X018841Y014577D01*
X018828Y014675D02*
X017066Y014675D01*
X017164Y014774D02*
X018828Y014774D01*
X018828Y014872D02*
X017263Y014872D01*
X016964Y015168D02*
X014438Y015168D01*
X014438Y015266D02*
X017063Y015266D01*
X017161Y015365D02*
X014438Y015365D01*
X014438Y015069D02*
X016866Y015069D01*
X016767Y014971D02*
X016547Y014971D01*
X016611Y014872D02*
X016669Y014872D01*
X015982Y014971D02*
X014347Y014971D01*
X014249Y014872D02*
X015918Y014872D01*
X015918Y014774D02*
X014180Y014774D01*
X014180Y014675D02*
X015918Y014675D01*
X015918Y014577D02*
X014180Y014577D01*
X014180Y014478D02*
X015918Y014478D01*
X015918Y014380D02*
X014180Y014380D01*
X014180Y014281D02*
X015918Y014281D01*
X015918Y014183D02*
X014180Y014183D01*
X014180Y014084D02*
X015918Y014084D01*
X015918Y013986D02*
X014180Y013986D01*
X014180Y013887D02*
X015918Y013887D01*
X015918Y013789D02*
X014180Y013789D01*
X014180Y013690D02*
X015918Y013690D01*
X015918Y013592D02*
X014180Y013592D01*
X014180Y013493D02*
X015918Y013493D01*
X015918Y013395D02*
X014180Y013395D01*
X014180Y013296D02*
X015918Y013296D01*
X015918Y013198D02*
X014180Y013198D01*
X014180Y013099D02*
X015918Y013099D01*
X015918Y013001D02*
X014180Y013001D01*
X014180Y012902D02*
X015918Y012902D01*
X015918Y012804D02*
X014180Y012804D01*
X014180Y012705D02*
X015918Y012705D01*
X015918Y012607D02*
X014180Y012607D01*
X014180Y012508D02*
X015918Y012508D01*
X015918Y012410D02*
X014180Y012410D01*
X014180Y012311D02*
X015918Y012311D01*
X015918Y012213D02*
X014344Y012213D01*
X014443Y012114D02*
X015918Y012114D01*
X015918Y012016D02*
X014507Y012016D01*
X014507Y011917D02*
X015655Y011917D01*
X015557Y011819D02*
X014507Y011819D01*
X014507Y011720D02*
X015458Y011720D01*
X015360Y011622D02*
X014507Y011622D01*
X014078Y011741D02*
X013010Y010673D01*
X011528Y010673D01*
X011528Y010783D01*
X011441Y010871D01*
X011057Y010871D01*
X011057Y011378D01*
X010951Y011483D01*
X008582Y011483D01*
X008477Y011378D01*
X008477Y010969D01*
X008467Y010979D01*
X008467Y012265D01*
X008537Y012236D01*
X008537Y011649D01*
X008642Y011543D01*
X010291Y011543D01*
X010397Y011649D01*
X010397Y011783D01*
X012547Y011783D01*
X012550Y011780D01*
X012621Y011783D01*
X012691Y011783D01*
X012694Y011787D01*
X012699Y011787D01*
X012747Y011839D01*
X012797Y011889D01*
X012797Y011893D01*
X013032Y012150D01*
X013048Y012110D01*
X013124Y012034D01*
X013223Y011993D01*
X013330Y011993D01*
X013430Y012034D01*
X013486Y012091D01*
X013486Y011829D01*
X013574Y011741D01*
X014078Y011741D01*
X014057Y011720D02*
X010397Y011720D01*
X010370Y011622D02*
X013958Y011622D01*
X013860Y011523D02*
X008467Y011523D01*
X008467Y011425D02*
X008524Y011425D01*
X008477Y011326D02*
X008467Y011326D01*
X008467Y011228D02*
X008477Y011228D01*
X008467Y011129D02*
X008477Y011129D01*
X008467Y011031D02*
X008477Y011031D01*
X008007Y011031D02*
X006887Y011031D01*
X006887Y011129D02*
X007194Y011129D01*
X007196Y011128D02*
X007352Y011063D01*
X007521Y011063D01*
X007678Y011128D01*
X007797Y011248D01*
X007862Y011404D01*
X007862Y011574D01*
X007797Y011730D01*
X007678Y011850D01*
X007521Y011914D01*
X007352Y011914D01*
X007196Y011850D01*
X007076Y011730D01*
X007011Y011574D01*
X007011Y011404D01*
X007076Y011248D01*
X007196Y011128D01*
X007096Y011228D02*
X006887Y011228D01*
X006887Y011326D02*
X007043Y011326D01*
X007011Y011425D02*
X006887Y011425D01*
X006887Y011523D02*
X007011Y011523D01*
X007031Y011622D02*
X006887Y011622D01*
X006887Y011720D02*
X007072Y011720D01*
X007165Y011819D02*
X006887Y011819D01*
X006887Y011917D02*
X008007Y011917D01*
X008007Y011819D02*
X007709Y011819D01*
X007801Y011720D02*
X008007Y011720D01*
X008007Y011622D02*
X007842Y011622D01*
X007862Y011523D02*
X008007Y011523D01*
X008007Y011425D02*
X007862Y011425D01*
X007830Y011326D02*
X008007Y011326D01*
X008007Y011228D02*
X007778Y011228D01*
X007679Y011129D02*
X008007Y011129D01*
X008007Y010932D02*
X006887Y010932D01*
X006887Y010834D02*
X008007Y010834D01*
X008059Y010735D02*
X006887Y010735D01*
X006887Y010637D02*
X008158Y010637D01*
X008256Y010538D02*
X006887Y010538D01*
X006887Y010440D02*
X008355Y010440D01*
X008453Y010341D02*
X006887Y010341D01*
X006887Y010243D02*
X008552Y010243D01*
X008650Y010144D02*
X006887Y010144D01*
X006887Y010046D02*
X010717Y010046D01*
X010717Y009947D02*
X006887Y009947D01*
X006887Y009849D02*
X010739Y009849D01*
X011506Y009849D02*
X012903Y009849D01*
X012903Y009947D02*
X011528Y009947D01*
X011528Y010046D02*
X012903Y010046D01*
X012903Y010144D02*
X011528Y010144D01*
X011528Y010243D02*
X012909Y010243D01*
X012903Y009750D02*
X006887Y009750D01*
X006887Y009652D02*
X007744Y009652D01*
X007604Y009553D02*
X006887Y009553D01*
X006887Y009455D02*
X007505Y009455D01*
X007434Y009356D02*
X006887Y009356D01*
X006887Y009258D02*
X007393Y009258D01*
X007352Y009159D02*
X006887Y009159D01*
X006887Y009061D02*
X007335Y009061D01*
X007335Y008962D02*
X006887Y008962D01*
X006887Y008864D02*
X007335Y008864D01*
X007352Y008765D02*
X006887Y008765D01*
X006887Y008667D02*
X007392Y008667D01*
X007433Y008568D02*
X006887Y008568D01*
X006887Y008470D02*
X007503Y008470D01*
X007602Y008371D02*
X006887Y008371D01*
X006887Y008273D02*
X007739Y008273D01*
X008491Y008273D02*
X011347Y008273D01*
X011347Y008371D02*
X008628Y008371D01*
X008726Y008470D02*
X011347Y008470D01*
X011347Y008568D02*
X008796Y008568D01*
X008837Y008667D02*
X011347Y008667D01*
X011347Y008765D02*
X008878Y008765D01*
X008895Y008864D02*
X011347Y008864D01*
X011347Y008962D02*
X008895Y008962D01*
X008895Y009061D02*
X011356Y009061D01*
X011836Y009139D02*
X011955Y009258D01*
X012127Y008667D02*
X012161Y008667D01*
X012029Y008568D02*
X020112Y008568D01*
X020108Y008563D02*
X020101Y008560D01*
X020090Y008538D01*
X020076Y008518D01*
X020078Y008510D01*
X020069Y008491D01*
X020062Y008487D01*
X020056Y008464D01*
X020046Y008442D01*
X020048Y008435D01*
X020043Y008414D01*
X020037Y008409D01*
X020035Y008385D01*
X020028Y008361D01*
X020032Y008355D01*
X020030Y008333D01*
X020026Y008328D01*
X020028Y008303D01*
X020026Y008279D01*
X020030Y008273D01*
X012001Y008273D01*
X012001Y008371D02*
X020031Y008371D01*
X020030Y008273D02*
X020032Y008252D01*
X020028Y008246D01*
X020035Y008222D01*
X020037Y008197D01*
X020043Y008193D01*
X020048Y008172D01*
X020046Y008165D01*
X020056Y008143D01*
X020062Y008119D01*
X020069Y008116D01*
X020078Y008096D01*
X020076Y008089D01*
X020090Y008069D01*
X020101Y008047D01*
X020108Y008044D01*
X020120Y008027D01*
X020120Y008019D01*
X020137Y008002D01*
X020151Y007982D01*
X020159Y007981D01*
X020174Y007965D01*
X020175Y007958D01*
X020195Y007944D01*
X020213Y007927D01*
X020220Y007927D01*
X020237Y007915D01*
X020240Y007908D01*
X020262Y007897D01*
X020282Y007883D01*
X020290Y007884D01*
X020309Y007875D01*
X020313Y007869D01*
X020336Y007863D01*
X020358Y007852D01*
X020365Y007855D01*
X020386Y007849D01*
X020391Y007844D01*
X020415Y007841D01*
X020439Y007835D01*
X020445Y007839D01*
X020467Y007837D01*
X020472Y007832D01*
X020497Y007834D01*
X020521Y007832D01*
X020527Y007837D01*
X020548Y007839D01*
X020554Y007835D01*
X020578Y007841D01*
X020602Y007844D01*
X020607Y007849D01*
X020628Y007855D01*
X020635Y007852D01*
X020657Y007863D01*
X020681Y007869D01*
X020684Y007875D01*
X020704Y007884D01*
X020711Y007883D01*
X020731Y007897D01*
X020753Y007908D01*
X020756Y007915D01*
X020773Y007927D01*
X020781Y007927D01*
X020798Y007944D01*
X020818Y007958D01*
X020819Y007965D01*
X020835Y007981D01*
X020842Y007982D01*
X020856Y008002D01*
X020873Y008019D01*
X020873Y008027D01*
X020885Y008044D01*
X020892Y008047D01*
X020903Y008069D01*
X020917Y008089D01*
X020916Y008096D01*
X020925Y008116D01*
X020931Y008119D01*
X020937Y008143D01*
X020948Y008165D01*
X020945Y008172D01*
X020951Y008193D01*
X020956Y008197D01*
X020959Y008222D01*
X020965Y008246D01*
X020961Y008252D01*
X020963Y008273D01*
X022335Y008273D01*
X022335Y008371D02*
X020962Y008371D01*
X020965Y008361D02*
X020959Y008385D01*
X020956Y008409D01*
X020951Y008414D01*
X020945Y008435D01*
X020948Y008442D01*
X020937Y008464D01*
X020931Y008487D01*
X020925Y008491D01*
X020916Y008510D01*
X020917Y008518D01*
X020903Y008538D01*
X020892Y008560D01*
X020885Y008563D01*
X020873Y008580D01*
X020873Y008587D01*
X020856Y008605D01*
X020842Y008625D01*
X020835Y008626D01*
X020819Y008641D01*
X020818Y008649D01*
X020798Y008663D01*
X020781Y008680D01*
X020773Y008680D01*
X020756Y008692D01*
X020753Y008699D01*
X020731Y008709D01*
X020711Y008724D01*
X020704Y008722D01*
X020684Y008731D01*
X020681Y008738D01*
X020657Y008744D01*
X020635Y008754D01*
X020628Y008752D01*
X020607Y008757D01*
X020602Y008763D01*
X020578Y008765D01*
X020554Y008772D01*
X020548Y008768D01*
X020527Y008770D01*
X020521Y008774D01*
X020497Y008772D01*
X020472Y008774D01*
X020467Y008770D01*
X020445Y008768D01*
X020439Y008772D01*
X020415Y008765D01*
X020391Y008763D01*
X020386Y008757D01*
X020365Y008752D01*
X020358Y008754D01*
X020336Y008744D01*
X020313Y008738D01*
X020309Y008731D01*
X020290Y008722D01*
X020282Y008724D01*
X020262Y008709D01*
X020240Y008699D01*
X020237Y008692D01*
X020220Y008680D01*
X020213Y008680D01*
X020195Y008663D01*
X020175Y008649D01*
X020174Y008641D01*
X020159Y008626D01*
X020151Y008625D01*
X020137Y008605D01*
X020120Y008587D01*
X020120Y008580D01*
X020108Y008563D01*
X020058Y008470D02*
X012001Y008470D01*
X012001Y008174D02*
X020048Y008174D01*
X020086Y008076D02*
X011937Y008076D01*
X011410Y008076D02*
X006887Y008076D01*
X006887Y008174D02*
X011347Y008174D01*
X013710Y008667D02*
X020199Y008667D01*
X020416Y008765D02*
X013715Y008765D01*
X013715Y008864D02*
X022335Y008864D01*
X022335Y008962D02*
X013715Y008962D01*
X013715Y009061D02*
X022335Y009061D01*
X022335Y009159D02*
X013715Y009159D01*
X013715Y009258D02*
X022335Y009258D01*
X022335Y009356D02*
X013715Y009356D01*
X013648Y009455D02*
X014662Y009455D01*
X014637Y009553D02*
X013715Y009553D01*
X013715Y009652D02*
X014637Y009652D01*
X014637Y009750D02*
X013715Y009750D01*
X013715Y009849D02*
X014637Y009849D01*
X014637Y009947D02*
X013715Y009947D01*
X013715Y010046D02*
X014637Y010046D01*
X014637Y010144D02*
X013715Y010144D01*
X013709Y010243D02*
X014637Y010243D01*
X014637Y010341D02*
X013780Y010341D01*
X013878Y010440D02*
X014637Y010440D01*
X014637Y010538D02*
X013977Y010538D01*
X014075Y010637D02*
X014637Y010637D01*
X014637Y010735D02*
X014174Y010735D01*
X014272Y010834D02*
X014637Y010834D01*
X014637Y010932D02*
X014371Y010932D01*
X014469Y011031D02*
X014637Y011031D01*
X013761Y011425D02*
X011010Y011425D01*
X011057Y011326D02*
X013663Y011326D01*
X013564Y011228D02*
X011057Y011228D01*
X011057Y011129D02*
X013466Y011129D01*
X013367Y011031D02*
X011057Y011031D01*
X011057Y010932D02*
X013269Y010932D01*
X013170Y010834D02*
X011478Y010834D01*
X011528Y010735D02*
X013072Y010735D01*
X012728Y011819D02*
X013497Y011819D01*
X013486Y011917D02*
X012819Y011917D01*
X012909Y012016D02*
X013169Y012016D01*
X013046Y012114D02*
X012999Y012114D01*
X013385Y012016D02*
X013486Y012016D01*
X013833Y012984D02*
X012917Y012984D01*
X012557Y012623D01*
X011521Y012623D01*
X011494Y012650D01*
X012257Y013763D02*
X011777Y014243D01*
X011547Y014243D01*
X011460Y014156D01*
X011957Y014675D02*
X010091Y014675D01*
X010146Y014774D02*
X011957Y014774D01*
X011957Y014872D02*
X010146Y014872D01*
X010146Y014971D02*
X011957Y014971D01*
X011957Y015069D02*
X010146Y015069D01*
X010146Y015168D02*
X012027Y015168D01*
X012125Y015266D02*
X010127Y015266D01*
X010403Y015365D02*
X012112Y015365D01*
X012057Y015463D02*
X010502Y015463D01*
X010600Y015562D02*
X012057Y015562D01*
X011607Y016744D02*
X010021Y016744D01*
X009967Y016842D02*
X011548Y016842D01*
X011511Y016941D02*
X009967Y016941D01*
X009967Y017039D02*
X011511Y017039D01*
X011511Y017138D02*
X009967Y017138D01*
X009967Y017236D02*
X011511Y017236D01*
X011511Y017335D02*
X009967Y017335D01*
X010050Y017433D02*
X011511Y017433D01*
X011511Y017532D02*
X010315Y017532D01*
X010468Y017630D02*
X011546Y017630D01*
X011877Y017729D02*
X010537Y017729D01*
X010575Y017827D02*
X011975Y017827D01*
X012074Y017926D02*
X010575Y017926D01*
X010554Y018024D02*
X012172Y018024D01*
X013121Y018024D02*
X014034Y018024D01*
X014132Y017926D02*
X013219Y017926D01*
X013318Y017827D02*
X014231Y017827D01*
X014329Y017729D02*
X013473Y017729D01*
X013533Y017630D02*
X014428Y017630D01*
X014526Y017532D02*
X013547Y017532D01*
X013523Y017433D02*
X014625Y017433D01*
X014723Y017335D02*
X013450Y017335D01*
X013103Y017335D02*
X013071Y017335D01*
X013071Y017236D02*
X014822Y017236D01*
X014944Y017138D02*
X013071Y017138D01*
X013071Y017039D02*
X015057Y017039D01*
X015142Y016941D02*
X013071Y016941D01*
X013033Y016842D02*
X015806Y016842D01*
X015805Y016744D02*
X012975Y016744D01*
X013822Y016547D02*
X013907Y016547D01*
X014238Y016115D02*
X014238Y015145D01*
X014117Y015023D01*
X013841Y015023D01*
X013833Y015031D01*
X013833Y014775D02*
X013585Y014775D01*
X013457Y014903D01*
X013517Y013763D02*
X012257Y013763D01*
X013517Y013763D02*
X013528Y013752D01*
X013833Y013752D01*
X010778Y013887D02*
X010337Y013887D01*
X010337Y013986D02*
X010778Y013986D01*
X010778Y014084D02*
X010337Y014084D01*
X010337Y014183D02*
X010778Y014183D01*
X010778Y014281D02*
X010337Y014281D01*
X010335Y014380D02*
X010778Y014380D01*
X010778Y014478D02*
X010236Y014478D01*
X009690Y014577D02*
X010822Y014577D01*
X009437Y014483D02*
X009437Y013989D01*
X009405Y013989D01*
X009405Y012989D02*
X008920Y012503D01*
X008597Y012503D01*
X008537Y012213D02*
X008467Y012213D01*
X008467Y012114D02*
X008537Y012114D01*
X008537Y012016D02*
X008467Y012016D01*
X008467Y011917D02*
X008537Y011917D01*
X008537Y011819D02*
X008467Y011819D01*
X008467Y011720D02*
X008537Y011720D01*
X008564Y011622D02*
X008467Y011622D01*
X008007Y012016D02*
X006887Y012016D01*
X006887Y012114D02*
X008007Y012114D01*
X008007Y012213D02*
X006887Y012213D01*
X006887Y012311D02*
X008007Y012311D01*
X008007Y012410D02*
X006887Y012410D01*
X006887Y012508D02*
X008007Y012508D01*
X008007Y012607D02*
X006887Y012607D01*
X006887Y012705D02*
X008007Y012705D01*
X008007Y012804D02*
X006887Y012804D01*
X006887Y012902D02*
X008007Y012902D01*
X008007Y013001D02*
X006887Y013001D01*
X006887Y013099D02*
X008007Y013099D01*
X008007Y013198D02*
X006887Y013198D01*
X006887Y013296D02*
X008007Y013296D01*
X008007Y013395D02*
X006887Y013395D01*
X006887Y013493D02*
X008007Y013493D01*
X008007Y013592D02*
X006887Y013592D01*
X006887Y013690D02*
X008007Y013690D01*
X008007Y013789D02*
X006887Y013789D01*
X006887Y013887D02*
X008007Y013887D01*
X008007Y013986D02*
X006887Y013986D01*
X006887Y014084D02*
X008007Y014084D01*
X008007Y014183D02*
X006887Y014183D01*
X006887Y014281D02*
X008007Y014281D01*
X008007Y014380D02*
X006887Y014380D01*
X006887Y014478D02*
X008007Y014478D01*
X008007Y014577D02*
X006887Y014577D01*
X006887Y014675D02*
X008007Y014675D01*
X008007Y014774D02*
X006887Y014774D01*
X006887Y014872D02*
X008007Y014872D01*
X008007Y014971D02*
X006887Y014971D01*
X006887Y015069D02*
X007337Y015069D01*
X007352Y015063D02*
X007196Y015128D01*
X007076Y015248D01*
X007011Y015404D01*
X007011Y015574D01*
X007076Y015730D01*
X007196Y015850D01*
X007352Y015914D01*
X007521Y015914D01*
X007678Y015850D01*
X007797Y015730D01*
X007862Y015574D01*
X007862Y015404D01*
X007797Y015248D01*
X007678Y015128D01*
X007521Y015063D01*
X007352Y015063D01*
X007536Y015069D02*
X008007Y015069D01*
X008007Y015168D02*
X007718Y015168D01*
X007805Y015266D02*
X008007Y015266D01*
X008007Y015365D02*
X007846Y015365D01*
X007862Y015463D02*
X008051Y015463D01*
X008150Y015562D02*
X007862Y015562D01*
X007826Y015660D02*
X008248Y015660D01*
X008305Y015857D02*
X007659Y015857D01*
X007769Y015759D02*
X008665Y015759D01*
X008531Y015989D02*
X008417Y016103D01*
X008531Y015989D02*
X009405Y015989D01*
X008668Y016251D02*
X008648Y016251D01*
X008662Y016350D02*
X008527Y016350D01*
X008564Y016448D02*
X006887Y016448D01*
X006887Y016350D02*
X008306Y016350D01*
X008186Y016251D02*
X006887Y016251D01*
X006887Y016153D02*
X008147Y016153D01*
X008147Y016054D02*
X006887Y016054D01*
X006887Y015956D02*
X008185Y015956D01*
X008465Y016547D02*
X006887Y016547D01*
X006887Y016645D02*
X008367Y016645D01*
X008268Y016744D02*
X006887Y016744D01*
X006887Y016842D02*
X008180Y016842D01*
X008147Y016941D02*
X006887Y016941D01*
X006887Y017039D02*
X008147Y017039D01*
X008826Y017630D02*
X009596Y017630D01*
X009641Y017676D02*
X009641Y017676D01*
X009695Y017729D02*
X008924Y017729D01*
X009023Y017827D02*
X009793Y017827D01*
X009803Y017926D02*
X009121Y017926D01*
X009220Y018024D02*
X009823Y018024D01*
X009868Y018123D02*
X009318Y018123D01*
X009417Y018221D02*
X009966Y018221D01*
X010411Y018221D02*
X013837Y018221D01*
X013935Y018123D02*
X010510Y018123D01*
X009614Y018418D02*
X013640Y018418D01*
X013738Y018320D02*
X009515Y018320D01*
X007214Y015857D02*
X006887Y015857D01*
X006887Y015759D02*
X007105Y015759D01*
X007047Y015660D02*
X006887Y015660D01*
X006887Y015562D02*
X007011Y015562D01*
X007011Y015463D02*
X006887Y015463D01*
X006887Y015365D02*
X007027Y015365D01*
X007068Y015266D02*
X006887Y015266D01*
X006887Y015168D02*
X007156Y015168D01*
X013760Y019009D02*
X020693Y019009D01*
X020583Y018911D02*
X013911Y018911D01*
X014009Y018812D02*
X020529Y018812D01*
X020496Y018714D02*
X016543Y018714D01*
X016617Y018615D02*
X020487Y018615D01*
X020498Y018517D02*
X018391Y018517D01*
X018541Y018418D02*
X020537Y018418D01*
X020599Y018320D02*
X018639Y018320D01*
X018714Y018221D02*
X020713Y018221D01*
X021200Y018221D02*
X022335Y018221D01*
X022335Y018123D02*
X018755Y018123D01*
X018796Y018024D02*
X022335Y018024D01*
X022335Y017926D02*
X018817Y017926D01*
X018817Y017827D02*
X022335Y017827D01*
X022335Y017729D02*
X018817Y017729D01*
X018802Y017630D02*
X022335Y017630D01*
X022335Y017532D02*
X018762Y017532D01*
X018721Y017433D02*
X022335Y017433D01*
X022335Y017335D02*
X018655Y017335D01*
X018556Y017236D02*
X022335Y017236D01*
X022335Y017138D02*
X018429Y017138D01*
X018058Y016744D02*
X019067Y016744D01*
X019077Y016842D02*
X017959Y016842D01*
X017861Y016941D02*
X019132Y016941D01*
X019093Y016645D02*
X018156Y016645D01*
X018255Y016547D02*
X019171Y016547D01*
X018550Y016251D02*
X020027Y016251D01*
X019968Y016350D02*
X018452Y016350D01*
X018353Y016448D02*
X019870Y016448D01*
X020239Y016842D02*
X022335Y016842D01*
X022335Y016744D02*
X020338Y016744D01*
X020436Y016645D02*
X022335Y016645D01*
X022335Y016547D02*
X020529Y016547D01*
X020567Y016448D02*
X022335Y016448D01*
X022335Y016350D02*
X020567Y016350D01*
X020567Y016251D02*
X022335Y016251D01*
X022335Y016153D02*
X020567Y016153D01*
X020567Y016054D02*
X022335Y016054D01*
X022335Y015956D02*
X020567Y015956D01*
X020567Y015857D02*
X022335Y015857D01*
X022335Y015759D02*
X020567Y015759D01*
X020567Y015660D02*
X022335Y015660D01*
X022335Y015562D02*
X020567Y015562D01*
X020141Y016941D02*
X022335Y016941D01*
X022335Y017039D02*
X017762Y017039D01*
X017393Y016645D02*
X017060Y016645D01*
X017087Y016744D02*
X017294Y016744D01*
X017196Y016842D02*
X017076Y016842D01*
X017097Y016941D02*
X017021Y016941D01*
X016999Y017039D02*
X016736Y017039D01*
X016638Y017138D02*
X016900Y017138D01*
X016802Y017236D02*
X016617Y017236D01*
X016617Y017335D02*
X016741Y017335D01*
X016727Y017433D02*
X016617Y017433D01*
X016617Y017532D02*
X016727Y017532D01*
X016727Y017630D02*
X016617Y017630D01*
X016617Y017729D02*
X016727Y017729D01*
X016727Y017827D02*
X016530Y017827D01*
X016616Y017926D02*
X016652Y017926D01*
X017022Y018320D02*
X017434Y018320D01*
X017359Y018221D02*
X017120Y018221D01*
X017219Y018123D02*
X017318Y018123D01*
X017277Y018024D02*
X017264Y018024D01*
X017532Y018418D02*
X016923Y018418D01*
X016790Y018517D02*
X017682Y018517D01*
X015878Y018714D02*
X015795Y018714D01*
X015130Y018714D02*
X014108Y018714D01*
X014206Y018615D02*
X015057Y018615D01*
X015057Y018517D02*
X014305Y018517D01*
X014403Y018418D02*
X015057Y018418D01*
X015057Y018320D02*
X014502Y018320D01*
X014600Y018221D02*
X015057Y018221D01*
X015057Y018123D02*
X014699Y018123D01*
X014994Y017827D02*
X015143Y017827D01*
X015782Y017827D02*
X015891Y017827D01*
X015890Y016941D02*
X015783Y016941D01*
X016617Y016448D02*
X017590Y016448D01*
X017688Y016350D02*
X016617Y016350D01*
X016617Y016251D02*
X017787Y016251D01*
X017885Y016153D02*
X016617Y016153D01*
X016982Y016547D02*
X017491Y016547D01*
X021314Y018320D02*
X022335Y018320D01*
X022335Y018418D02*
X021377Y018418D01*
X021416Y018517D02*
X021419Y018542D01*
X021425Y018566D01*
X021421Y018572D01*
X021423Y018593D01*
X021428Y018599D01*
X021426Y018623D01*
X021418Y018714D02*
X022333Y018714D01*
X022309Y018812D02*
X021384Y018812D01*
X021330Y018911D02*
X022257Y018911D01*
X022129Y019009D02*
X021220Y019009D01*
X015677Y009947D02*
X014837Y009947D01*
X014837Y009849D02*
X015677Y009849D01*
X015677Y009750D02*
X014837Y009750D01*
X014837Y009652D02*
X015677Y009652D01*
X015877Y009652D02*
X022335Y009652D01*
X022335Y009750D02*
X015877Y009750D01*
X015877Y009553D02*
X022335Y009553D01*
X022335Y009455D02*
X015851Y009455D01*
X020162Y007977D02*
X006909Y007977D01*
X006956Y007879D02*
X020301Y007879D01*
X020692Y007879D02*
X022266Y007879D01*
X022312Y007977D02*
X020831Y007977D01*
X020908Y008076D02*
X022334Y008076D01*
X022335Y008174D02*
X020946Y008174D01*
X020963Y008273D02*
X020968Y008279D01*
X020966Y008303D01*
X020968Y008328D01*
X020963Y008333D01*
X020961Y008355D01*
X020965Y008361D01*
X020936Y008470D02*
X022335Y008470D01*
X022335Y008568D02*
X020881Y008568D01*
X020794Y008667D02*
X022335Y008667D01*
X022335Y008765D02*
X020578Y008765D01*
X022150Y007780D02*
X007071Y007780D01*
D27*
X011917Y016097D02*
X011917Y017237D01*
X012665Y017237D02*
X012665Y016097D01*
D28*
X015057Y017383D02*
X013697Y018743D01*
X009557Y018743D01*
X008417Y017603D01*
X008417Y016977D01*
X009405Y015989D01*
X015057Y017383D02*
X015463Y017383D01*
X015463Y018283D01*
X016211Y018283D02*
X016231Y018263D01*
X016697Y018263D01*
X016997Y017963D01*
X016997Y017423D01*
X018467Y015953D01*
X019372Y015953D01*
X019937Y016763D02*
X020297Y016403D01*
X020297Y014963D01*
X020105Y014772D01*
X019372Y014772D01*
X019337Y016763D02*
X019937Y016763D01*
X016817Y016763D02*
X016631Y016763D01*
X016211Y017183D01*
X016211Y017383D01*
X016211Y017183D02*
X016211Y016483D01*
X018883Y012409D02*
X018137Y011663D01*
X018137Y011123D01*
X018137Y010583D01*
X018253Y010467D02*
X018620Y010835D01*
X019372Y010835D01*
X019372Y011622D02*
X018635Y011622D01*
X018137Y011123D01*
X018883Y012409D02*
X019372Y012409D01*
X013309Y009880D02*
X013309Y009030D01*
X012561Y009030D02*
X012108Y009030D01*
X011674Y008595D01*
D29*
X013309Y009880D02*
X013309Y010196D01*
X014417Y011303D01*
X015367Y011303D01*
X015767Y011703D01*
X016263Y011703D01*
X016264Y011704D01*
X018137Y010583D02*
X018253Y010467D01*
X018109Y010323D01*
X013833Y012472D02*
X013425Y012472D01*
X013277Y012263D01*
X013097Y012683D02*
X013141Y012728D01*
X013217Y013523D02*
X013364Y013496D01*
X013833Y013496D01*
X013833Y014008D02*
X013212Y014008D01*
X013097Y014123D01*
X010397Y015683D02*
X010217Y015503D01*
X008417Y015503D01*
X008237Y015323D01*
X008237Y010883D01*
X008777Y010343D01*
X011107Y010343D01*
X011123Y010327D01*
X010397Y015683D02*
X010397Y016163D01*
X010157Y016403D01*
X010037Y016403D01*
X009737Y016703D01*
X009737Y017446D01*
X010189Y017898D01*
X011917Y017443D02*
X011917Y017237D01*
X011917Y017443D02*
X012317Y017843D01*
X012977Y017843D01*
X013277Y017543D01*
X019372Y015953D02*
X019907Y015953D01*
X019997Y015863D01*
X019997Y015323D01*
X019839Y015165D01*
X019372Y015165D01*
D30*
X013457Y013572D02*
X013457Y013463D01*
X008717Y013463D01*
X008717Y014303D01*
X010157Y014303D01*
X010157Y013643D01*
X012122Y013643D01*
X012182Y013583D01*
X013442Y013583D01*
X013454Y013572D01*
X013457Y013572D01*
X013457Y013550D02*
X008717Y013550D01*
X008717Y013492D02*
X013457Y013492D01*
X013457Y013283D02*
X013457Y013164D01*
X012843Y013164D01*
X012482Y012803D01*
X012155Y012803D01*
X012155Y013019D01*
X012137Y013038D01*
X012137Y013043D01*
X012131Y013043D01*
X012079Y013095D01*
X011777Y013095D01*
X011777Y013223D01*
X011837Y013283D01*
X013357Y013283D01*
X013411Y013273D01*
X013426Y013283D01*
X013457Y013283D01*
X013457Y013258D02*
X011811Y013258D01*
X011777Y013199D02*
X013457Y013199D01*
X013337Y012803D02*
X013037Y012803D01*
X012497Y012263D01*
X012892Y012263D01*
X012838Y012205D02*
X008717Y012205D01*
X008717Y012263D02*
X010851Y012263D01*
X010908Y012205D01*
X012079Y012205D01*
X012137Y012263D01*
X012497Y012263D01*
X012555Y012322D02*
X012945Y012322D01*
X012999Y012380D02*
X012614Y012380D01*
X012672Y012439D02*
X013053Y012439D01*
X013106Y012497D02*
X012731Y012497D01*
X012789Y012556D02*
X013160Y012556D01*
X013213Y012614D02*
X012848Y012614D01*
X012906Y012673D02*
X013267Y012673D01*
X013277Y012683D02*
X012617Y011963D01*
X012109Y011963D01*
X012079Y011993D01*
X010908Y011993D01*
X010879Y011963D01*
X010217Y011963D01*
X010217Y011723D01*
X008717Y011723D01*
X008717Y012263D01*
X008717Y012146D02*
X012784Y012146D01*
X012731Y012088D02*
X008717Y012088D01*
X008717Y012029D02*
X012677Y012029D01*
X012624Y011971D02*
X012101Y011971D01*
X012155Y012848D02*
X012527Y012848D01*
X012586Y012907D02*
X012155Y012907D01*
X012155Y012965D02*
X012644Y012965D01*
X012703Y013024D02*
X012151Y013024D01*
X012092Y013082D02*
X012761Y013082D01*
X012820Y013141D02*
X011777Y013141D01*
X012157Y013609D02*
X008717Y013609D01*
X008717Y013667D02*
X010157Y013667D01*
X010157Y013726D02*
X008717Y013726D01*
X008717Y013784D02*
X010157Y013784D01*
X010157Y013843D02*
X008717Y013843D01*
X008717Y013901D02*
X010157Y013901D01*
X010157Y013960D02*
X008717Y013960D01*
X008717Y014018D02*
X010157Y014018D01*
X010157Y014077D02*
X008717Y014077D01*
X008717Y014135D02*
X010157Y014135D01*
X010157Y014194D02*
X008717Y014194D01*
X008717Y014252D02*
X010157Y014252D01*
X010877Y013223D02*
X008657Y013223D01*
X008657Y012683D01*
X010832Y012683D01*
X010832Y013019D01*
X010877Y013064D01*
X010877Y013223D01*
X010877Y013199D02*
X008657Y013199D01*
X008657Y013141D02*
X010877Y013141D01*
X010877Y013082D02*
X008657Y013082D01*
X008657Y013024D02*
X010837Y013024D01*
X010832Y012965D02*
X008657Y012965D01*
X008657Y012907D02*
X010832Y012907D01*
X010832Y012848D02*
X008657Y012848D01*
X008657Y012790D02*
X010832Y012790D01*
X010832Y012731D02*
X008657Y012731D01*
X008717Y011971D02*
X010886Y011971D01*
X010832Y011303D02*
X010832Y011179D01*
X010877Y011135D01*
X010877Y010851D01*
X010813Y010851D01*
X010737Y010775D01*
X010737Y010763D01*
X008657Y010763D01*
X008657Y011303D01*
X010832Y011303D01*
X010832Y011269D02*
X008657Y011269D01*
X008657Y011210D02*
X010832Y011210D01*
X010860Y011152D02*
X008657Y011152D01*
X008657Y011093D02*
X010877Y011093D01*
X010877Y011035D02*
X008657Y011035D01*
X008657Y010976D02*
X010877Y010976D01*
X010877Y010918D02*
X008657Y010918D01*
X008657Y010859D02*
X010877Y010859D01*
X010763Y010801D02*
X008657Y010801D01*
X008717Y011737D02*
X010217Y011737D01*
X010217Y011795D02*
X008717Y011795D01*
X008717Y011854D02*
X010217Y011854D01*
X010217Y011912D02*
X008717Y011912D01*
X012137Y014423D02*
X012137Y015023D01*
X012309Y015196D01*
X013277Y014229D01*
X013277Y013943D01*
X012557Y013943D01*
X012137Y014423D01*
X012137Y014428D02*
X013078Y014428D01*
X013136Y014369D02*
X012184Y014369D01*
X012235Y014311D02*
X013195Y014311D01*
X013253Y014252D02*
X012286Y014252D01*
X012337Y014194D02*
X013277Y014194D01*
X013277Y014135D02*
X012389Y014135D01*
X012440Y014077D02*
X013277Y014077D01*
X013277Y014018D02*
X012491Y014018D01*
X012542Y013960D02*
X013277Y013960D01*
X013019Y014486D02*
X012137Y014486D01*
X012137Y014545D02*
X012961Y014545D01*
X012902Y014603D02*
X012137Y014603D01*
X012137Y014662D02*
X012844Y014662D01*
X012785Y014720D02*
X012137Y014720D01*
X012137Y014779D02*
X012727Y014779D01*
X012668Y014837D02*
X012137Y014837D01*
X012137Y014896D02*
X012610Y014896D01*
X012551Y014954D02*
X012137Y014954D01*
X012137Y015013D02*
X012493Y015013D01*
X012434Y015071D02*
X012185Y015071D01*
X012243Y015130D02*
X012376Y015130D01*
X012317Y015188D02*
X012302Y015188D01*
X013023Y012790D02*
X013330Y012790D01*
X013337Y012803D02*
X013277Y012683D01*
X013301Y012731D02*
X012965Y012731D01*
D31*
X013141Y012728D02*
X013833Y012728D01*
X013833Y013240D02*
X013293Y013240D01*
X013277Y013223D01*
M02*
