%
M48
M72
T01C0.0120
T02C0.0140
T03C0.0160
T04C0.0240
T05C0.0276
T06C0.0315
T07C0.0400
T08C0.1378
%
T01
X20751Y12983
X20751Y14123
X20751Y13763
X14644Y12938
X15064Y13718
X15524Y13718
X15524Y13328
X15074Y13328
X15084Y12928
X15524Y12928
X14654Y12548
X15074Y12538
X15494Y12528
X15504Y12148
X15064Y12138
X14654Y12128
X14680Y13328
X14680Y13721
X13911Y17363
X14271Y17363
X14631Y17363
X13001Y13613
X12791Y13803
X12591Y14003
X11801Y13253
X11491Y13253
X11181Y13253
X12441Y11583
X12131Y11283
X12681Y11823
X12791Y12703
X12501Y12703
X12201Y12703
T02
X17211Y14183
X18891Y12083
X16971Y13523
T03
X21711Y11543
X21171Y18383
X21231Y11063
X18411Y9143
X19011Y9143
X9711Y17423
X10311Y16043
X9771Y16043
X9771Y16763
X15531Y15083
X16551Y15083
X10071Y10583
X21351Y16403
X22191Y12023
X10311Y11663
X10621Y11663
X10931Y11663
X10191Y14843
X10551Y14843
X10911Y14843
X21951Y10823
X16041Y15073
X8271Y17783
X7851Y15323
X7851Y14543
X7851Y13763
X12051Y7943
X9051Y18623
X7371Y18623
X8211Y18623
X7491Y17783
X8271Y16523
X16611Y9083
X12951Y10763
X11811Y10463
X10371Y10163
X11031Y9563
X21711Y15983
X21171Y15263
X20931Y8663
X15831Y10763
X15051Y10763
X14271Y10763
X14991Y15083
X7851Y12983
X7851Y11363
X7851Y12203
X16131Y9083
X12051Y8603
X11451Y8603
X11811Y9923
X19371Y11423
X16611Y10763
X17691Y17303
X16791Y18383
X15831Y18383
X21591Y18143
X19371Y11030
X7191Y10643
X17931Y16223
X18351Y16223
X18351Y15863
X17931Y15863
X17931Y15503
X18351Y15503
X18351Y15143
X17931Y15143
X17931Y14783
X18351Y14783
X16311Y16343
X10911Y17063
X20811Y12203
T04
X20871Y11783
T05
X8991Y11409
X8991Y12196
X8991Y12983
X8991Y13771
X8991Y14558
X8991Y14558
X8991Y15358
T06
X9111Y17030
X9111Y17817
T07
X12351Y18503
X11351Y18503
X10351Y18503
T08
X19370Y18016
X8405Y8764
M30
