G75*
%MOIN*%
%OFA0B0*%
%FSLAX24Y24*%
%IPPOS*%
%LPD*%
%AMOC8*
5,1,8,0,0,1.08239X$1,22.5*
%
%ADD10C,0.0000*%
%ADD11C,0.1418*%
%ADD12R,0.0434X0.0178*%
%ADD13R,0.1221X0.2009*%
%ADD14R,0.0552X0.0631*%
%ADD15R,0.0631X0.0552*%
%ADD16R,0.0434X0.1142*%
%ADD17R,0.0670X0.1103*%
%ADD18R,0.0827X0.0394*%
%ADD19R,0.0827X0.0552*%
%ADD20C,0.0050*%
%ADD21R,0.0827X0.0280*%
%ADD22R,0.1457X0.1095*%
%ADD23C,0.0780*%
%ADD24C,0.0670*%
%ADD25C,0.0540*%
%ADD26C,0.0600*%
D10*
X007271Y007583D02*
X022019Y007583D01*
X022063Y007585D01*
X022106Y007591D01*
X022148Y007600D01*
X022190Y007613D01*
X022230Y007630D01*
X022269Y007650D01*
X022306Y007673D01*
X022340Y007700D01*
X022373Y007729D01*
X022402Y007762D01*
X022429Y007796D01*
X022452Y007833D01*
X022472Y007872D01*
X022489Y007912D01*
X022502Y007954D01*
X022511Y007996D01*
X022517Y008039D01*
X022519Y008083D01*
X022519Y018698D01*
X022517Y018742D01*
X022511Y018785D01*
X022502Y018827D01*
X022489Y018869D01*
X022472Y018909D01*
X022452Y018948D01*
X022429Y018985D01*
X022402Y019019D01*
X022373Y019052D01*
X022340Y019081D01*
X022306Y019108D01*
X022269Y019131D01*
X022230Y019151D01*
X022190Y019168D01*
X022148Y019181D01*
X022106Y019190D01*
X022063Y019196D01*
X022019Y019198D01*
X007271Y019198D01*
X007227Y019196D01*
X007184Y019190D01*
X007142Y019181D01*
X007100Y019168D01*
X007060Y019151D01*
X007021Y019131D01*
X006984Y019108D01*
X006950Y019081D01*
X006917Y019052D01*
X006888Y019019D01*
X006861Y018985D01*
X006838Y018948D01*
X006818Y018909D01*
X006801Y018869D01*
X006788Y018827D01*
X006779Y018785D01*
X006773Y018742D01*
X006771Y018698D01*
X006771Y008083D01*
X006773Y008039D01*
X006779Y007996D01*
X006788Y007954D01*
X006801Y007912D01*
X006818Y007872D01*
X006838Y007833D01*
X006861Y007796D01*
X006888Y007762D01*
X006917Y007729D01*
X006950Y007700D01*
X006984Y007673D01*
X007021Y007650D01*
X007060Y007630D01*
X007100Y007613D01*
X007142Y007600D01*
X007184Y007591D01*
X007227Y007585D01*
X007271Y007583D01*
X007716Y008764D02*
X007718Y008816D01*
X007724Y008868D01*
X007734Y008919D01*
X007747Y008969D01*
X007765Y009019D01*
X007786Y009066D01*
X007810Y009112D01*
X007839Y009156D01*
X007870Y009198D01*
X007904Y009237D01*
X007941Y009274D01*
X007981Y009307D01*
X008024Y009338D01*
X008068Y009365D01*
X008114Y009389D01*
X008163Y009409D01*
X008212Y009425D01*
X008263Y009438D01*
X008314Y009447D01*
X008366Y009452D01*
X008418Y009453D01*
X008470Y009450D01*
X008522Y009443D01*
X008573Y009432D01*
X008623Y009418D01*
X008672Y009399D01*
X008719Y009377D01*
X008764Y009352D01*
X008808Y009323D01*
X008849Y009291D01*
X008888Y009256D01*
X008923Y009218D01*
X008956Y009177D01*
X008986Y009135D01*
X009012Y009090D01*
X009035Y009043D01*
X009054Y008994D01*
X009070Y008944D01*
X009082Y008894D01*
X009090Y008842D01*
X009094Y008790D01*
X009094Y008738D01*
X009090Y008686D01*
X009082Y008634D01*
X009070Y008584D01*
X009054Y008534D01*
X009035Y008485D01*
X009012Y008438D01*
X008986Y008393D01*
X008956Y008351D01*
X008923Y008310D01*
X008888Y008272D01*
X008849Y008237D01*
X008808Y008205D01*
X008764Y008176D01*
X008719Y008151D01*
X008672Y008129D01*
X008623Y008110D01*
X008573Y008096D01*
X008522Y008085D01*
X008470Y008078D01*
X008418Y008075D01*
X008366Y008076D01*
X008314Y008081D01*
X008263Y008090D01*
X008212Y008103D01*
X008163Y008119D01*
X008114Y008139D01*
X008068Y008163D01*
X008024Y008190D01*
X007981Y008221D01*
X007941Y008254D01*
X007904Y008291D01*
X007870Y008330D01*
X007839Y008372D01*
X007810Y008416D01*
X007786Y008462D01*
X007765Y008509D01*
X007747Y008559D01*
X007734Y008609D01*
X007724Y008660D01*
X007718Y008712D01*
X007716Y008764D01*
X018681Y018016D02*
X018683Y018068D01*
X018689Y018120D01*
X018699Y018171D01*
X018712Y018221D01*
X018730Y018271D01*
X018751Y018318D01*
X018775Y018364D01*
X018804Y018408D01*
X018835Y018450D01*
X018869Y018489D01*
X018906Y018526D01*
X018946Y018559D01*
X018989Y018590D01*
X019033Y018617D01*
X019079Y018641D01*
X019128Y018661D01*
X019177Y018677D01*
X019228Y018690D01*
X019279Y018699D01*
X019331Y018704D01*
X019383Y018705D01*
X019435Y018702D01*
X019487Y018695D01*
X019538Y018684D01*
X019588Y018670D01*
X019637Y018651D01*
X019684Y018629D01*
X019729Y018604D01*
X019773Y018575D01*
X019814Y018543D01*
X019853Y018508D01*
X019888Y018470D01*
X019921Y018429D01*
X019951Y018387D01*
X019977Y018342D01*
X020000Y018295D01*
X020019Y018246D01*
X020035Y018196D01*
X020047Y018146D01*
X020055Y018094D01*
X020059Y018042D01*
X020059Y017990D01*
X020055Y017938D01*
X020047Y017886D01*
X020035Y017836D01*
X020019Y017786D01*
X020000Y017737D01*
X019977Y017690D01*
X019951Y017645D01*
X019921Y017603D01*
X019888Y017562D01*
X019853Y017524D01*
X019814Y017489D01*
X019773Y017457D01*
X019729Y017428D01*
X019684Y017403D01*
X019637Y017381D01*
X019588Y017362D01*
X019538Y017348D01*
X019487Y017337D01*
X019435Y017330D01*
X019383Y017327D01*
X019331Y017328D01*
X019279Y017333D01*
X019228Y017342D01*
X019177Y017355D01*
X019128Y017371D01*
X019079Y017391D01*
X019033Y017415D01*
X018989Y017442D01*
X018946Y017473D01*
X018906Y017506D01*
X018869Y017543D01*
X018835Y017582D01*
X018804Y017624D01*
X018775Y017668D01*
X018751Y017714D01*
X018730Y017761D01*
X018712Y017811D01*
X018699Y017861D01*
X018689Y017912D01*
X018683Y017964D01*
X018681Y018016D01*
D11*
X019370Y018016D03*
X008405Y008764D03*
D12*
X013868Y011224D03*
X013868Y011480D03*
X013868Y011736D03*
X013868Y011992D03*
X013868Y012248D03*
X013868Y012504D03*
X013868Y012760D03*
X013868Y013016D03*
X013868Y013272D03*
X013868Y013528D03*
X013868Y013783D03*
X013868Y014039D03*
X013868Y014295D03*
X013868Y014551D03*
X016299Y014551D03*
X016299Y014295D03*
X016299Y014039D03*
X016299Y013783D03*
X016299Y013528D03*
X016299Y013272D03*
X016299Y013016D03*
X016299Y012760D03*
X016299Y012504D03*
X016299Y012248D03*
X016299Y011992D03*
X016299Y011736D03*
X016299Y011480D03*
X016299Y011224D03*
D13*
X015084Y012888D03*
D14*
X014093Y015395D03*
X013345Y015395D03*
X012339Y015377D03*
X011591Y015377D03*
X011591Y016217D03*
X012339Y016217D03*
X012345Y017073D03*
X011597Y017073D03*
D15*
X016333Y016913D03*
X016333Y017661D03*
X017446Y011426D03*
X017446Y010678D03*
X018386Y010688D03*
X018386Y011436D03*
X014651Y009177D03*
X014651Y008429D03*
X013751Y008429D03*
X012851Y008429D03*
X012851Y009177D03*
X013751Y009177D03*
X011044Y010175D03*
X011044Y010923D03*
D16*
X014255Y016526D03*
X014255Y018376D03*
D17*
X011478Y014046D03*
X010376Y014046D03*
X010376Y012426D03*
X011478Y012426D03*
D18*
X019251Y009700D03*
X019251Y008598D03*
D19*
X017518Y009149D03*
D20*
X021344Y008312D02*
X021338Y008243D01*
X021344Y008175D01*
X021361Y008109D01*
X021390Y008046D01*
X021430Y007990D01*
X021478Y007942D01*
X021534Y007902D01*
X021597Y007873D01*
X021663Y007856D01*
X021731Y007850D01*
X021800Y007856D01*
X021866Y007873D01*
X021928Y007902D01*
X021984Y007942D01*
X022033Y007990D01*
X022072Y008046D01*
X022101Y008109D01*
X022119Y008175D01*
X022125Y008243D01*
X022119Y008312D01*
X022101Y008378D01*
X022072Y008440D01*
X022033Y008496D01*
X021984Y008545D01*
X021928Y008584D01*
X021866Y008613D01*
X021800Y008631D01*
X021731Y008637D01*
X021663Y008631D01*
X021597Y008613D01*
X021534Y008584D01*
X021478Y008545D01*
X021430Y008496D01*
X021390Y008440D01*
X021361Y008378D01*
X021344Y008312D01*
X021344Y008311D02*
X022119Y008311D01*
X022123Y008262D02*
X021339Y008262D01*
X021340Y008214D02*
X022122Y008214D01*
X022116Y008165D02*
X021346Y008165D01*
X021359Y008117D02*
X022103Y008117D01*
X022082Y008068D02*
X021380Y008068D01*
X021409Y008020D02*
X022054Y008020D01*
X022014Y007971D02*
X021449Y007971D01*
X021505Y007923D02*
X021957Y007923D01*
X021868Y007874D02*
X021595Y007874D01*
X021356Y008359D02*
X022106Y008359D01*
X022087Y008408D02*
X021375Y008408D01*
X021402Y008456D02*
X022061Y008456D01*
X022024Y008505D02*
X021438Y008505D01*
X021490Y008553D02*
X021972Y008553D01*
X021891Y008602D02*
X021572Y008602D01*
X017646Y017653D02*
X017708Y017682D01*
X017764Y017722D01*
X017813Y017770D01*
X017852Y017826D01*
X017881Y017889D01*
X017899Y017955D01*
X017905Y018023D01*
X017899Y018092D01*
X017881Y018158D01*
X017852Y018220D01*
X017813Y018276D01*
X017764Y018325D01*
X017708Y018364D01*
X017646Y018393D01*
X017580Y018411D01*
X017511Y018417D01*
X017443Y018411D01*
X017377Y018393D01*
X017314Y018364D01*
X017258Y018325D01*
X017210Y018276D01*
X017170Y018220D01*
X017141Y018158D01*
X017124Y018092D01*
X017118Y018023D01*
X017124Y017955D01*
X017141Y017889D01*
X017170Y017826D01*
X017210Y017770D01*
X017258Y017722D01*
X017314Y017682D01*
X017377Y017653D01*
X017443Y017636D01*
X017511Y017630D01*
X017580Y017636D01*
X017646Y017653D01*
X017685Y017671D02*
X017338Y017671D01*
X017261Y017720D02*
X017762Y017720D01*
X017811Y017768D02*
X017212Y017768D01*
X017177Y017817D02*
X017846Y017817D01*
X017870Y017865D02*
X017152Y017865D01*
X017135Y017914D02*
X017888Y017914D01*
X017900Y017962D02*
X017123Y017962D01*
X017119Y018011D02*
X017904Y018011D01*
X017902Y018059D02*
X017121Y018059D01*
X017128Y018108D02*
X017895Y018108D01*
X017882Y018156D02*
X017141Y018156D01*
X017163Y018205D02*
X017859Y018205D01*
X017829Y018253D02*
X017194Y018253D01*
X017235Y018302D02*
X017787Y018302D01*
X017728Y018350D02*
X017295Y018350D01*
X017398Y018399D02*
X017625Y018399D01*
X010728Y008564D02*
X010666Y008593D01*
X010600Y008611D01*
X010531Y008617D01*
X010463Y008611D01*
X010397Y008593D01*
X010334Y008564D01*
X010278Y008525D01*
X010230Y008476D01*
X010190Y008420D01*
X010161Y008358D01*
X010144Y008292D01*
X010138Y008223D01*
X010144Y008155D01*
X010161Y008089D01*
X010190Y008026D01*
X010230Y007970D01*
X010278Y007922D01*
X010334Y007882D01*
X010397Y007853D01*
X010463Y007836D01*
X010531Y007830D01*
X010600Y007836D01*
X010666Y007853D01*
X010728Y007882D01*
X010784Y007922D01*
X010833Y007970D01*
X010872Y008026D01*
X010901Y008089D01*
X010919Y008155D01*
X010925Y008223D01*
X010919Y008292D01*
X010901Y008358D01*
X010872Y008420D01*
X010833Y008476D01*
X010784Y008525D01*
X010728Y008564D01*
X010744Y008553D02*
X010319Y008553D01*
X010258Y008505D02*
X010804Y008505D01*
X010847Y008456D02*
X010216Y008456D01*
X010185Y008408D02*
X010878Y008408D01*
X010901Y008359D02*
X010162Y008359D01*
X010149Y008311D02*
X010914Y008311D01*
X010922Y008262D02*
X010141Y008262D01*
X010138Y008214D02*
X010924Y008214D01*
X010920Y008165D02*
X010143Y008165D01*
X010154Y008117D02*
X010909Y008117D01*
X010892Y008068D02*
X010171Y008068D01*
X010195Y008020D02*
X010868Y008020D01*
X010834Y007971D02*
X010229Y007971D01*
X010277Y007923D02*
X010785Y007923D01*
X010711Y007874D02*
X010352Y007874D01*
X010429Y008602D02*
X010634Y008602D01*
D21*
X020136Y010620D03*
X020136Y011014D03*
X020136Y011408D03*
X020136Y011802D03*
X020136Y012195D03*
X020136Y012589D03*
X020136Y012983D03*
X020136Y013376D03*
X020136Y013770D03*
X020136Y014164D03*
X020136Y014558D03*
X020136Y014951D03*
X020136Y015345D03*
X020136Y015739D03*
X020136Y016132D03*
D22*
X021239Y017317D03*
X021239Y009443D03*
D23*
X012351Y018503D03*
X011351Y018503D03*
X010351Y018503D03*
D24*
X008991Y015358D03*
X008991Y014558D03*
X008991Y014558D03*
X008991Y013771D03*
X008991Y012983D03*
X008991Y012196D03*
X008991Y011409D03*
D25*
X015531Y009083D03*
D26*
X009111Y017030D03*
X009111Y017817D03*
M02*
