G75*
%MOIN*%
%OFA0B0*%
%FSLAX24Y24*%
%IPPOS*%
%LPD*%
%AMOC8*
5,1,8,0,0,1.08239X$1,22.5*
%
%ADD10C,0.0000*%
%ADD11C,0.0050*%
%ADD12C,0.0060*%
%ADD13C,0.0316*%
%ADD14C,0.0030*%
%ADD15C,0.0040*%
%ADD16C,0.0080*%
%ADD17C,0.0557*%
%ADD18C,0.0070*%
D10*
X007271Y007583D02*
X022019Y007583D01*
X022063Y007585D01*
X022106Y007591D01*
X022148Y007600D01*
X022190Y007613D01*
X022230Y007630D01*
X022269Y007650D01*
X022306Y007673D01*
X022340Y007700D01*
X022373Y007729D01*
X022402Y007762D01*
X022429Y007796D01*
X022452Y007833D01*
X022472Y007872D01*
X022489Y007912D01*
X022502Y007954D01*
X022511Y007996D01*
X022517Y008039D01*
X022519Y008083D01*
X022519Y018698D01*
X022517Y018742D01*
X022511Y018785D01*
X022502Y018827D01*
X022489Y018869D01*
X022472Y018909D01*
X022452Y018948D01*
X022429Y018985D01*
X022402Y019019D01*
X022373Y019052D01*
X022340Y019081D01*
X022306Y019108D01*
X022269Y019131D01*
X022230Y019151D01*
X022190Y019168D01*
X022148Y019181D01*
X022106Y019190D01*
X022063Y019196D01*
X022019Y019198D01*
X007271Y019198D01*
X007227Y019196D01*
X007184Y019190D01*
X007142Y019181D01*
X007100Y019168D01*
X007060Y019151D01*
X007021Y019131D01*
X006984Y019108D01*
X006950Y019081D01*
X006917Y019052D01*
X006888Y019019D01*
X006861Y018985D01*
X006838Y018948D01*
X006818Y018909D01*
X006801Y018869D01*
X006788Y018827D01*
X006779Y018785D01*
X006773Y018742D01*
X006771Y018698D01*
X006771Y008083D01*
X006773Y008039D01*
X006779Y007996D01*
X006788Y007954D01*
X006801Y007912D01*
X006818Y007872D01*
X006838Y007833D01*
X006861Y007796D01*
X006888Y007762D01*
X006917Y007729D01*
X006950Y007700D01*
X006984Y007673D01*
X007021Y007650D01*
X007060Y007630D01*
X007100Y007613D01*
X007142Y007600D01*
X007184Y007591D01*
X007227Y007585D01*
X007271Y007583D01*
X007716Y008764D02*
X007718Y008816D01*
X007724Y008868D01*
X007734Y008919D01*
X007747Y008969D01*
X007765Y009019D01*
X007786Y009066D01*
X007810Y009112D01*
X007839Y009156D01*
X007870Y009198D01*
X007904Y009237D01*
X007941Y009274D01*
X007981Y009307D01*
X008024Y009338D01*
X008068Y009365D01*
X008114Y009389D01*
X008163Y009409D01*
X008212Y009425D01*
X008263Y009438D01*
X008314Y009447D01*
X008366Y009452D01*
X008418Y009453D01*
X008470Y009450D01*
X008522Y009443D01*
X008573Y009432D01*
X008623Y009418D01*
X008672Y009399D01*
X008719Y009377D01*
X008764Y009352D01*
X008808Y009323D01*
X008849Y009291D01*
X008888Y009256D01*
X008923Y009218D01*
X008956Y009177D01*
X008986Y009135D01*
X009012Y009090D01*
X009035Y009043D01*
X009054Y008994D01*
X009070Y008944D01*
X009082Y008894D01*
X009090Y008842D01*
X009094Y008790D01*
X009094Y008738D01*
X009090Y008686D01*
X009082Y008634D01*
X009070Y008584D01*
X009054Y008534D01*
X009035Y008485D01*
X009012Y008438D01*
X008986Y008393D01*
X008956Y008351D01*
X008923Y008310D01*
X008888Y008272D01*
X008849Y008237D01*
X008808Y008205D01*
X008764Y008176D01*
X008719Y008151D01*
X008672Y008129D01*
X008623Y008110D01*
X008573Y008096D01*
X008522Y008085D01*
X008470Y008078D01*
X008418Y008075D01*
X008366Y008076D01*
X008314Y008081D01*
X008263Y008090D01*
X008212Y008103D01*
X008163Y008119D01*
X008114Y008139D01*
X008068Y008163D01*
X008024Y008190D01*
X007981Y008221D01*
X007941Y008254D01*
X007904Y008291D01*
X007870Y008330D01*
X007839Y008372D01*
X007810Y008416D01*
X007786Y008462D01*
X007765Y008509D01*
X007747Y008559D01*
X007734Y008609D01*
X007724Y008660D01*
X007718Y008712D01*
X007716Y008764D01*
X018681Y018016D02*
X018683Y018068D01*
X018689Y018120D01*
X018699Y018171D01*
X018712Y018221D01*
X018730Y018271D01*
X018751Y018318D01*
X018775Y018364D01*
X018804Y018408D01*
X018835Y018450D01*
X018869Y018489D01*
X018906Y018526D01*
X018946Y018559D01*
X018989Y018590D01*
X019033Y018617D01*
X019079Y018641D01*
X019128Y018661D01*
X019177Y018677D01*
X019228Y018690D01*
X019279Y018699D01*
X019331Y018704D01*
X019383Y018705D01*
X019435Y018702D01*
X019487Y018695D01*
X019538Y018684D01*
X019588Y018670D01*
X019637Y018651D01*
X019684Y018629D01*
X019729Y018604D01*
X019773Y018575D01*
X019814Y018543D01*
X019853Y018508D01*
X019888Y018470D01*
X019921Y018429D01*
X019951Y018387D01*
X019977Y018342D01*
X020000Y018295D01*
X020019Y018246D01*
X020035Y018196D01*
X020047Y018146D01*
X020055Y018094D01*
X020059Y018042D01*
X020059Y017990D01*
X020055Y017938D01*
X020047Y017886D01*
X020035Y017836D01*
X020019Y017786D01*
X020000Y017737D01*
X019977Y017690D01*
X019951Y017645D01*
X019921Y017603D01*
X019888Y017562D01*
X019853Y017524D01*
X019814Y017489D01*
X019773Y017457D01*
X019729Y017428D01*
X019684Y017403D01*
X019637Y017381D01*
X019588Y017362D01*
X019538Y017348D01*
X019487Y017337D01*
X019435Y017330D01*
X019383Y017327D01*
X019331Y017328D01*
X019279Y017333D01*
X019228Y017342D01*
X019177Y017355D01*
X019128Y017371D01*
X019079Y017391D01*
X019033Y017415D01*
X018989Y017442D01*
X018946Y017473D01*
X018906Y017506D01*
X018869Y017543D01*
X018835Y017582D01*
X018804Y017624D01*
X018775Y017668D01*
X018751Y017714D01*
X018730Y017761D01*
X018712Y017811D01*
X018699Y017861D01*
X018689Y017912D01*
X018683Y017964D01*
X018681Y018016D01*
D11*
X018189Y018022D02*
X018191Y018091D01*
X018197Y018159D01*
X018207Y018227D01*
X018221Y018294D01*
X018239Y018361D01*
X018260Y018426D01*
X018286Y018490D01*
X018315Y018552D01*
X018347Y018612D01*
X018383Y018671D01*
X018423Y018727D01*
X018465Y018781D01*
X018511Y018832D01*
X018560Y018881D01*
X018611Y018927D01*
X018665Y018969D01*
X018721Y019009D01*
X018779Y019045D01*
X018840Y019077D01*
X018902Y019106D01*
X018966Y019132D01*
X019031Y019153D01*
X019098Y019171D01*
X019165Y019185D01*
X019233Y019195D01*
X019301Y019201D01*
X019370Y019203D01*
X019439Y019201D01*
X019507Y019195D01*
X019575Y019185D01*
X019642Y019171D01*
X019709Y019153D01*
X019774Y019132D01*
X019838Y019106D01*
X019900Y019077D01*
X019960Y019045D01*
X020019Y019009D01*
X020075Y018969D01*
X020129Y018927D01*
X020180Y018881D01*
X020229Y018832D01*
X020275Y018781D01*
X020317Y018727D01*
X020357Y018671D01*
X020393Y018612D01*
X020425Y018552D01*
X020454Y018490D01*
X020480Y018426D01*
X020501Y018361D01*
X020519Y018294D01*
X020533Y018227D01*
X020543Y018159D01*
X020549Y018091D01*
X020551Y018022D01*
X020549Y017953D01*
X020543Y017885D01*
X020533Y017817D01*
X020519Y017750D01*
X020501Y017683D01*
X020480Y017618D01*
X020454Y017554D01*
X020425Y017492D01*
X020393Y017431D01*
X020357Y017373D01*
X020317Y017317D01*
X020275Y017263D01*
X020229Y017212D01*
X020180Y017163D01*
X020129Y017117D01*
X020075Y017075D01*
X020019Y017035D01*
X019961Y016999D01*
X019900Y016967D01*
X019838Y016938D01*
X019774Y016912D01*
X019709Y016891D01*
X019642Y016873D01*
X019575Y016859D01*
X019507Y016849D01*
X019439Y016843D01*
X019370Y016841D01*
X019301Y016843D01*
X019233Y016849D01*
X019165Y016859D01*
X019098Y016873D01*
X019031Y016891D01*
X018966Y016912D01*
X018902Y016938D01*
X018840Y016967D01*
X018779Y016999D01*
X018721Y017035D01*
X018665Y017075D01*
X018611Y017117D01*
X018560Y017163D01*
X018511Y017212D01*
X018465Y017263D01*
X018423Y017317D01*
X018383Y017373D01*
X018347Y017431D01*
X018315Y017492D01*
X018286Y017554D01*
X018260Y017618D01*
X018239Y017683D01*
X018221Y017750D01*
X018207Y017817D01*
X018197Y017885D01*
X018191Y017953D01*
X018189Y018022D01*
X020727Y016569D02*
X020727Y010191D01*
X022105Y010191D01*
X022105Y009365D01*
X022774Y009365D01*
X022779Y009363D02*
X022779Y017393D01*
X022739Y017393D01*
X022735Y017396D02*
X022105Y017396D01*
X022105Y016569D01*
X020727Y016569D01*
X019780Y009955D02*
X019782Y009988D01*
X019788Y010020D01*
X019797Y010052D01*
X019811Y010082D01*
X019827Y010110D01*
X019847Y010136D01*
X019870Y010160D01*
X019896Y010181D01*
X019924Y010198D01*
X019954Y010213D01*
X019985Y010223D01*
X020017Y010230D01*
X020050Y010233D01*
X020083Y010232D01*
X020115Y010227D01*
X020147Y010218D01*
X020178Y010206D01*
X020206Y010190D01*
X020233Y010171D01*
X020257Y010149D01*
X020279Y010124D01*
X020297Y010096D01*
X020312Y010067D01*
X020324Y010036D01*
X020332Y010004D01*
X020336Y009971D01*
X020336Y009939D01*
X020332Y009906D01*
X020324Y009874D01*
X020312Y009843D01*
X020297Y009814D01*
X020279Y009786D01*
X020257Y009761D01*
X020233Y009739D01*
X020206Y009720D01*
X020178Y009704D01*
X020147Y009692D01*
X020115Y009683D01*
X020083Y009678D01*
X020050Y009677D01*
X020017Y009680D01*
X019985Y009687D01*
X019954Y009697D01*
X019924Y009712D01*
X019896Y009729D01*
X019870Y009750D01*
X019847Y009774D01*
X019827Y009800D01*
X019811Y009828D01*
X019797Y009858D01*
X019788Y009890D01*
X019782Y009922D01*
X019780Y009955D01*
X009663Y016557D02*
X009229Y016557D01*
X009229Y018250D01*
X009663Y018250D01*
X009663Y018289D01*
X007773Y017541D02*
X007773Y017305D01*
X006631Y017305D01*
X006631Y017541D02*
X007773Y017541D01*
X007205Y008764D02*
X007207Y008833D01*
X007213Y008902D01*
X007223Y008970D01*
X007237Y009038D01*
X007254Y009105D01*
X007276Y009171D01*
X007301Y009235D01*
X007330Y009298D01*
X007363Y009359D01*
X007399Y009418D01*
X007438Y009475D01*
X007481Y009529D01*
X007526Y009581D01*
X007575Y009631D01*
X007626Y009677D01*
X007680Y009720D01*
X007737Y009761D01*
X007795Y009797D01*
X007856Y009831D01*
X007918Y009861D01*
X007982Y009887D01*
X008047Y009909D01*
X008114Y009928D01*
X008182Y009943D01*
X008250Y009954D01*
X008319Y009961D01*
X008388Y009964D01*
X008457Y009963D01*
X008526Y009958D01*
X008594Y009949D01*
X008662Y009936D01*
X008729Y009919D01*
X008796Y009899D01*
X008860Y009874D01*
X008923Y009846D01*
X008985Y009815D01*
X009044Y009779D01*
X009102Y009741D01*
X009157Y009699D01*
X009210Y009654D01*
X009260Y009606D01*
X009307Y009556D01*
X009351Y009502D01*
X009392Y009447D01*
X009430Y009389D01*
X009464Y009329D01*
X009495Y009267D01*
X009522Y009203D01*
X009545Y009138D01*
X009565Y009072D01*
X009581Y009004D01*
X009593Y008936D01*
X009601Y008868D01*
X009605Y008799D01*
X009605Y008729D01*
X009601Y008660D01*
X009593Y008592D01*
X009581Y008524D01*
X009565Y008456D01*
X009545Y008390D01*
X009522Y008325D01*
X009495Y008261D01*
X009464Y008199D01*
X009430Y008139D01*
X009392Y008081D01*
X009351Y008026D01*
X009307Y007972D01*
X009260Y007922D01*
X009210Y007874D01*
X009157Y007829D01*
X009102Y007787D01*
X009044Y007749D01*
X008985Y007713D01*
X008923Y007682D01*
X008860Y007654D01*
X008796Y007629D01*
X008729Y007609D01*
X008662Y007592D01*
X008594Y007579D01*
X008526Y007570D01*
X008457Y007565D01*
X008388Y007564D01*
X008319Y007567D01*
X008250Y007574D01*
X008182Y007585D01*
X008114Y007600D01*
X008047Y007619D01*
X007982Y007641D01*
X007918Y007667D01*
X007856Y007697D01*
X007795Y007731D01*
X007737Y007767D01*
X007680Y007808D01*
X007626Y007851D01*
X007575Y007897D01*
X007526Y007947D01*
X007481Y007999D01*
X007438Y008053D01*
X007399Y008110D01*
X007363Y008169D01*
X007330Y008230D01*
X007301Y008293D01*
X007276Y008357D01*
X007254Y008423D01*
X007237Y008490D01*
X007223Y008558D01*
X007213Y008626D01*
X007207Y008695D01*
X007205Y008764D01*
D12*
X014224Y011002D02*
X015943Y011002D01*
X015943Y014773D01*
X014224Y014773D01*
X014224Y011002D01*
D13*
X014554Y014433D03*
D14*
X014779Y014938D02*
X014875Y014938D01*
X014827Y014938D02*
X014827Y015229D01*
X014779Y015229D02*
X014875Y015229D01*
X014975Y015180D02*
X014975Y014987D01*
X015023Y014938D01*
X015120Y014938D01*
X015168Y014987D01*
X015270Y014938D02*
X015463Y014938D01*
X015366Y014938D02*
X015366Y015229D01*
X015270Y015132D01*
X015168Y015180D02*
X015120Y015229D01*
X015023Y015229D01*
X014975Y015180D01*
X015038Y015695D02*
X014990Y015743D01*
X015038Y015695D02*
X015135Y015695D01*
X015184Y015743D01*
X015184Y015840D01*
X015135Y015888D01*
X015087Y015888D01*
X014990Y015840D01*
X014990Y015985D01*
X015184Y015985D01*
X014889Y015937D02*
X014841Y015985D01*
X014744Y015985D01*
X014695Y015937D01*
X014695Y015743D01*
X014744Y015695D01*
X014841Y015695D01*
X014889Y015743D01*
X013340Y014927D02*
X013340Y014636D01*
X013243Y014636D02*
X013437Y014636D01*
X013243Y014830D02*
X013340Y014927D01*
X013142Y014878D02*
X013094Y014927D01*
X012997Y014927D01*
X012949Y014878D01*
X012949Y014685D01*
X012997Y014636D01*
X013094Y014636D01*
X013142Y014685D01*
X011131Y015213D02*
X011131Y015309D01*
X011082Y015358D01*
X011082Y015459D02*
X011131Y015507D01*
X011131Y015604D01*
X011082Y015652D01*
X010889Y015652D01*
X010840Y015604D01*
X010840Y015507D01*
X010889Y015459D01*
X010840Y015358D02*
X011034Y015164D01*
X011082Y015164D01*
X011131Y015213D01*
X010840Y015164D02*
X010840Y015358D01*
X010840Y015964D02*
X010840Y016158D01*
X010840Y016061D02*
X011131Y016061D01*
X011034Y016158D01*
X011082Y016259D02*
X010985Y016259D01*
X010937Y016307D01*
X010937Y016452D01*
X010937Y016356D02*
X010840Y016259D01*
X010840Y016452D02*
X011131Y016452D01*
X011131Y016307D01*
X011082Y016259D01*
X011088Y016830D02*
X011040Y016830D01*
X010991Y016879D01*
X010991Y016975D01*
X011040Y017024D01*
X011088Y017024D01*
X011137Y016975D01*
X011137Y016879D01*
X011088Y016830D01*
X010991Y016879D02*
X010943Y016830D01*
X010895Y016830D01*
X010846Y016879D01*
X010846Y016975D01*
X010895Y017024D01*
X010943Y017024D01*
X010991Y016975D01*
X010895Y017125D02*
X010846Y017173D01*
X010846Y017270D01*
X010895Y017318D01*
X011088Y017318D01*
X011137Y017270D01*
X011137Y017173D01*
X011088Y017125D01*
X011124Y017558D02*
X011124Y017849D01*
X011028Y017752D01*
X010931Y017849D01*
X010931Y017558D01*
X010830Y017607D02*
X010781Y017558D01*
X010685Y017558D01*
X010636Y017607D01*
X010685Y017703D02*
X010781Y017703D01*
X010830Y017655D01*
X010830Y017607D01*
X010685Y017703D02*
X010636Y017752D01*
X010636Y017800D01*
X010685Y017849D01*
X010781Y017849D01*
X010830Y017800D01*
X011226Y017752D02*
X011322Y017849D01*
X011419Y017752D01*
X011419Y017558D01*
X011520Y017558D02*
X011714Y017558D01*
X011815Y017558D02*
X012008Y017849D01*
X011815Y017849D02*
X012008Y017558D01*
X011714Y017849D02*
X011520Y017849D01*
X011520Y017558D01*
X011520Y017703D02*
X011617Y017703D01*
X011419Y017703D02*
X011226Y017703D01*
X011226Y017752D02*
X011226Y017558D01*
X010320Y017547D02*
X010320Y017740D01*
X010320Y017643D02*
X010030Y017643D01*
X010127Y017547D01*
X010175Y017446D02*
X010224Y017397D01*
X010224Y017252D01*
X010320Y017252D02*
X010030Y017252D01*
X010030Y017397D01*
X010078Y017446D01*
X010175Y017446D01*
X010078Y017151D02*
X010030Y017102D01*
X010030Y017006D01*
X010078Y016957D01*
X010272Y016957D01*
X010320Y017006D01*
X010320Y017102D01*
X010272Y017151D01*
X010078Y017151D01*
X010030Y016856D02*
X010030Y016663D01*
X010030Y016759D02*
X010320Y016759D01*
X010272Y016562D02*
X010320Y016513D01*
X010320Y016416D01*
X010272Y016368D01*
X010175Y016416D02*
X010127Y016368D01*
X010078Y016368D01*
X010030Y016416D01*
X010030Y016513D01*
X010078Y016562D01*
X010175Y016513D02*
X010224Y016562D01*
X010272Y016562D01*
X010175Y016513D02*
X010175Y016416D01*
X009893Y014252D02*
X009893Y014059D01*
X009700Y014252D01*
X009652Y014252D01*
X009603Y014204D01*
X009603Y014107D01*
X009652Y014059D01*
X009652Y013958D02*
X009748Y013958D01*
X009797Y013909D01*
X009797Y013764D01*
X009893Y013764D02*
X009603Y013764D01*
X009603Y013909D01*
X009652Y013958D01*
X009797Y013861D02*
X009893Y013958D01*
X009825Y012642D02*
X009873Y012594D01*
X009873Y012497D01*
X009825Y012449D01*
X009873Y012348D02*
X009777Y012251D01*
X009777Y012299D02*
X009777Y012154D01*
X009873Y012154D02*
X009583Y012154D01*
X009583Y012299D01*
X009632Y012348D01*
X009728Y012348D01*
X009777Y012299D01*
X009632Y012449D02*
X009583Y012497D01*
X009583Y012594D01*
X009632Y012642D01*
X009680Y012642D01*
X009728Y012594D01*
X009777Y012642D01*
X009825Y012642D01*
X009728Y012594D02*
X009728Y012546D01*
X010769Y011516D02*
X010769Y011323D01*
X010817Y011274D01*
X010914Y011274D01*
X010962Y011323D01*
X011063Y011419D02*
X011257Y011419D01*
X011208Y011274D02*
X011208Y011564D01*
X011063Y011419D01*
X010962Y011516D02*
X010914Y011564D01*
X010817Y011564D01*
X010769Y011516D01*
X012566Y009929D02*
X012566Y009638D01*
X012566Y009735D02*
X012711Y009735D01*
X012760Y009783D01*
X012760Y009880D01*
X012711Y009929D01*
X012566Y009929D01*
X012663Y009735D02*
X012760Y009638D01*
X012861Y009783D02*
X013006Y009929D01*
X013006Y009638D01*
X013054Y009783D02*
X012861Y009783D01*
X013466Y009735D02*
X013611Y009735D01*
X013660Y009783D01*
X013660Y009880D01*
X013611Y009929D01*
X013466Y009929D01*
X013466Y009638D01*
X013563Y009735D02*
X013660Y009638D01*
X013761Y009687D02*
X013809Y009638D01*
X013906Y009638D01*
X013954Y009687D01*
X013954Y009735D01*
X013906Y009783D01*
X013761Y009783D01*
X013761Y009687D01*
X013761Y009783D02*
X013858Y009880D01*
X013954Y009929D01*
X014426Y009880D02*
X014426Y009687D01*
X014475Y009638D01*
X014571Y009638D01*
X014620Y009687D01*
X014721Y009687D02*
X014721Y009638D01*
X014721Y009687D02*
X014914Y009880D01*
X014914Y009929D01*
X014721Y009929D01*
X014620Y009880D02*
X014571Y009929D01*
X014475Y009929D01*
X014426Y009880D01*
X015525Y008709D02*
X015476Y008660D01*
X015476Y008612D01*
X015525Y008563D01*
X015621Y008563D01*
X015670Y008515D01*
X015670Y008467D01*
X015621Y008418D01*
X015525Y008418D01*
X015476Y008467D01*
X015525Y008709D02*
X015621Y008709D01*
X015670Y008660D01*
X015771Y008709D02*
X015964Y008709D01*
X015868Y008709D02*
X015868Y008418D01*
X016066Y008467D02*
X016114Y008418D01*
X016211Y008418D01*
X016259Y008467D01*
X016259Y008660D01*
X016211Y008709D01*
X016114Y008709D01*
X016066Y008660D01*
X016066Y008467D01*
X016360Y008515D02*
X016505Y008515D01*
X016554Y008563D01*
X016554Y008660D01*
X016505Y008709D01*
X016360Y008709D01*
X016360Y008418D01*
X017575Y008110D02*
X017575Y007916D01*
X017575Y008061D02*
X017768Y008061D01*
X017768Y008110D02*
X017768Y007916D01*
X017869Y007916D02*
X018015Y007916D01*
X018063Y007965D01*
X018063Y008158D01*
X018015Y008206D01*
X017869Y008206D01*
X017869Y007916D01*
X017768Y008110D02*
X017672Y008206D01*
X017575Y008110D01*
X018164Y007965D02*
X018212Y007916D01*
X018261Y007916D01*
X018309Y007965D01*
X018309Y008206D01*
X018261Y008206D02*
X018358Y008206D01*
X018459Y008206D02*
X018459Y007965D01*
X018507Y007916D01*
X018604Y007916D01*
X018652Y007965D01*
X018652Y008206D01*
X018753Y008158D02*
X018753Y008110D01*
X018802Y008061D01*
X018899Y008061D01*
X018947Y008013D01*
X018947Y007965D01*
X018899Y007916D01*
X018802Y007916D01*
X018753Y007965D01*
X018753Y008158D02*
X018802Y008206D01*
X018899Y008206D01*
X018947Y008158D01*
X019048Y008206D02*
X019242Y008206D01*
X019145Y008206D02*
X019145Y007916D01*
X018611Y011906D02*
X018514Y011906D01*
X018466Y011955D01*
X018466Y012051D02*
X018562Y012100D01*
X018611Y012100D01*
X018659Y012051D01*
X018659Y011955D01*
X018611Y011906D01*
X018466Y012051D02*
X018466Y012196D01*
X018659Y012196D01*
X018364Y012148D02*
X018364Y012051D01*
X018316Y012003D01*
X018171Y012003D01*
X018268Y012003D02*
X018364Y011906D01*
X018171Y011906D02*
X018171Y012196D01*
X018316Y012196D01*
X018364Y012148D01*
X017685Y012199D02*
X017589Y012151D01*
X017492Y012054D01*
X017637Y012054D01*
X017685Y012005D01*
X017685Y011957D01*
X017637Y011909D01*
X017540Y011909D01*
X017492Y011957D01*
X017492Y012054D01*
X017391Y012151D02*
X017342Y012199D01*
X017246Y012199D01*
X017197Y012151D01*
X017197Y011957D01*
X017246Y011909D01*
X017342Y011909D01*
X017391Y011957D01*
X016505Y018114D02*
X016408Y018114D01*
X016359Y018163D01*
X016258Y018163D02*
X016210Y018114D01*
X016113Y018114D01*
X016065Y018163D01*
X016065Y018356D01*
X016113Y018404D01*
X016210Y018404D01*
X016258Y018356D01*
X016359Y018356D02*
X016408Y018404D01*
X016505Y018404D01*
X016553Y018356D01*
X016553Y018308D01*
X016505Y018259D01*
X016553Y018211D01*
X016553Y018163D01*
X016505Y018114D01*
X016505Y018259D02*
X016456Y018259D01*
D15*
X015535Y018731D02*
X015535Y016487D01*
X015220Y016172D01*
X014590Y016280D02*
X014656Y016301D01*
X014720Y016326D01*
X014783Y016354D01*
X014845Y016385D01*
X014905Y016420D01*
X014962Y016459D01*
X015017Y016501D01*
X015070Y016545D01*
X015120Y016593D01*
X015168Y016643D01*
X015212Y016696D01*
X015254Y016752D01*
X015292Y016810D01*
X015327Y016869D01*
X015358Y016931D01*
X015386Y016994D01*
X015410Y017059D01*
X015430Y017125D01*
X015447Y017192D01*
X015460Y017260D01*
X015469Y017329D01*
X015474Y017398D01*
X015475Y017467D01*
X015472Y017536D01*
X015465Y017605D01*
X015455Y017674D01*
X015440Y017741D01*
X015422Y017808D01*
X015400Y017874D01*
X015374Y017938D01*
X015345Y018000D01*
X015312Y018061D01*
X015275Y018120D01*
X015236Y018177D01*
X015193Y018231D01*
X015147Y018283D01*
X015099Y018333D01*
X015047Y018379D01*
X014993Y018422D01*
X014937Y018463D01*
X014879Y018499D01*
X014818Y018533D01*
X014756Y018563D01*
X014692Y018590D01*
X014626Y018613D01*
X014560Y018632D01*
X014570Y018731D02*
X015535Y018731D01*
X013920Y018622D02*
X013854Y018601D01*
X013790Y018576D01*
X013727Y018548D01*
X013665Y018517D01*
X013605Y018482D01*
X013548Y018443D01*
X013493Y018401D01*
X013440Y018357D01*
X013390Y018309D01*
X013342Y018259D01*
X013298Y018206D01*
X013256Y018150D01*
X013218Y018092D01*
X013183Y018033D01*
X013152Y017971D01*
X013124Y017908D01*
X013100Y017843D01*
X013080Y017777D01*
X013063Y017710D01*
X013050Y017642D01*
X013041Y017573D01*
X013036Y017504D01*
X013035Y017435D01*
X013038Y017366D01*
X013045Y017297D01*
X013055Y017228D01*
X013070Y017161D01*
X013088Y017094D01*
X013110Y017028D01*
X013136Y016964D01*
X013165Y016902D01*
X013198Y016841D01*
X013235Y016782D01*
X013274Y016725D01*
X013317Y016671D01*
X013363Y016619D01*
X013411Y016569D01*
X013463Y016523D01*
X013517Y016480D01*
X013573Y016439D01*
X013631Y016403D01*
X013692Y016369D01*
X013754Y016339D01*
X013818Y016312D01*
X013884Y016289D01*
X013950Y016270D01*
X013291Y016172D02*
X012976Y016487D01*
X012976Y018731D01*
X013980Y018731D01*
D16*
X012851Y018753D02*
X012851Y018253D01*
X012601Y018003D01*
X012101Y018003D01*
X011851Y018253D01*
X011601Y018003D01*
X011101Y018003D01*
X010851Y018253D01*
X010601Y018003D01*
X010101Y018003D01*
X009851Y018253D01*
X009851Y018753D01*
X010101Y019003D01*
X010601Y019003D01*
X010851Y018753D01*
X011101Y019003D01*
X011601Y019003D01*
X011851Y018753D01*
X012101Y019003D01*
X012601Y019003D01*
X012851Y018753D01*
X009621Y016149D02*
X009621Y015894D01*
X008991Y015894D01*
X009621Y016149D02*
X006629Y016149D01*
X006629Y010641D01*
X009621Y010641D01*
X009621Y010897D01*
X008991Y010897D01*
X017656Y009878D02*
X017656Y009546D01*
X017656Y009878D02*
X018738Y009878D01*
X019113Y009378D02*
X019113Y008921D01*
X018738Y008421D02*
X017656Y008421D01*
X017656Y008753D01*
D17*
X020058Y009955D03*
D18*
X009820Y017813D02*
X009493Y017813D01*
X009656Y017650D02*
X009656Y017977D01*
X009578Y017223D02*
X009578Y016896D01*
M02*
