G75*
%MOIN*%
%OFA0B0*%
%FSLAX24Y24*%
%IPPOS*%
%LPD*%
%AMOC8*
5,1,8,0,0,1.08239X$1,22.5*
%
%ADD10C,0.0000*%
%ADD11C,0.0030*%
%ADD12R,0.0084X0.0014*%
%ADD13R,0.0070X0.0014*%
%ADD14R,0.0098X0.0014*%
%ADD15R,0.0252X0.0014*%
%ADD16R,0.0154X0.0014*%
%ADD17R,0.0182X0.0014*%
%ADD18R,0.0042X0.0014*%
%ADD19R,0.0042X0.0014*%
%ADD20R,0.0224X0.0014*%
%ADD21R,0.0196X0.0014*%
%ADD22R,0.0028X0.0014*%
%ADD23R,0.0056X0.0014*%
%ADD24R,0.0056X0.0014*%
%ADD25R,0.0098X0.0014*%
%ADD26R,0.0196X0.0014*%
%ADD27R,0.0056X0.0014*%
%ADD28R,0.0042X0.0014*%
%ADD29R,0.0042X0.0014*%
%ADD30R,0.0182X0.0014*%
%ADD31R,0.0224X0.0014*%
%ADD32R,0.0028X0.0014*%
%ADD33R,0.0056X0.0014*%
%ADD34R,0.0098X0.0014*%
%ADD35R,0.0252X0.0014*%
%ADD36R,0.0210X0.0014*%
%ADD37R,0.0098X0.0014*%
%ADD38R,0.0084X0.0014*%
%ADD39R,0.0238X0.0014*%
%ADD40R,0.0084X0.0014*%
%ADD41R,0.0196X0.0014*%
%ADD42R,0.0182X0.0014*%
%ADD43R,0.0294X0.0014*%
%ADD44R,0.0168X0.0014*%
%ADD45R,0.0210X0.0014*%
%ADD46R,0.0182X0.0014*%
%ADD47R,0.0238X0.0014*%
%ADD48R,0.0294X0.0014*%
%ADD49R,0.0014X0.0014*%
%ADD50R,0.0238X0.0014*%
%ADD51R,0.0028X0.0014*%
%ADD52R,0.0350X0.0014*%
%ADD53R,0.0336X0.0014*%
%ADD54R,0.0448X0.0014*%
%ADD55R,0.0028X0.0014*%
%ADD56R,0.0112X0.0014*%
%ADD57R,0.0420X0.0014*%
%ADD58R,0.0518X0.0014*%
%ADD59R,0.0504X0.0014*%
%ADD60R,0.0574X0.0014*%
%ADD61R,0.0560X0.0014*%
%ADD62R,0.0630X0.0014*%
%ADD63R,0.0616X0.0014*%
%ADD64R,0.0672X0.0014*%
%ADD65R,0.0168X0.0014*%
%ADD66R,0.0140X0.0014*%
%ADD67R,0.0644X0.0014*%
%ADD68R,0.0728X0.0014*%
%ADD69R,0.0070X0.0014*%
%ADD70R,0.0140X0.0014*%
%ADD71R,0.0700X0.0014*%
%ADD72R,0.0756X0.0014*%
%ADD73R,0.0742X0.0014*%
%ADD74R,0.0798X0.0014*%
%ADD75R,0.0784X0.0014*%
%ADD76R,0.0840X0.0014*%
%ADD77R,0.0392X0.0014*%
%ADD78R,0.0112X0.0014*%
%ADD79R,0.0868X0.0014*%
%ADD80R,0.0896X0.0014*%
%ADD81R,0.0154X0.0014*%
%ADD82R,0.0924X0.0014*%
%ADD83R,0.0126X0.0014*%
%ADD84R,0.0952X0.0014*%
%ADD85R,0.0980X0.0014*%
%ADD86R,0.0224X0.0014*%
%ADD87R,0.0154X0.0014*%
%ADD88R,0.1008X0.0014*%
%ADD89R,0.0322X0.0014*%
%ADD90R,0.0308X0.0014*%
%ADD91R,0.0280X0.0014*%
%ADD92R,0.0308X0.0014*%
%ADD93R,0.0308X0.0014*%
%ADD94R,0.0532X0.0014*%
%ADD95R,0.0266X0.0014*%
%ADD96R,0.0378X0.0014*%
%ADD97R,0.0364X0.0014*%
%ADD98R,0.0350X0.0014*%
%ADD99R,0.0168X0.0014*%
%ADD100R,0.0168X0.0014*%
%ADD101R,0.0280X0.0014*%
%ADD102R,0.0546X0.0014*%
%ADD103R,0.0420X0.0014*%
%ADD104R,0.0378X0.0014*%
%ADD105R,0.0434X0.0014*%
%ADD106R,0.0434X0.0014*%
%ADD107R,0.0126X0.0014*%
%ADD108R,0.0462X0.0014*%
%ADD109R,0.0504X0.0014*%
%ADD110R,0.0574X0.0014*%
%ADD111R,0.0112X0.0014*%
%ADD112R,0.0532X0.0014*%
%ADD113R,0.0574X0.0014*%
%ADD114R,0.0546X0.0014*%
%ADD115R,0.0224X0.0014*%
%ADD116R,0.0364X0.0014*%
%ADD117R,0.0588X0.0014*%
%ADD118R,0.0602X0.0014*%
%ADD119R,0.0602X0.0014*%
%ADD120R,0.0252X0.0014*%
%ADD121R,0.0392X0.0014*%
%ADD122R,0.0616X0.0014*%
%ADD123R,0.0112X0.0014*%
%ADD124R,0.1162X0.0014*%
%ADD125R,0.0406X0.0014*%
%ADD126R,0.1176X0.0014*%
%ADD127R,0.1190X0.0014*%
%ADD128R,0.1204X0.0014*%
%ADD129R,0.0644X0.0014*%
%ADD130R,0.0434X0.0014*%
%ADD131R,0.0336X0.0014*%
%ADD132R,0.0154X0.0014*%
%ADD133R,0.0644X0.0014*%
%ADD134R,0.0406X0.0014*%
%ADD135R,0.0294X0.0014*%
%ADD136R,0.0392X0.0014*%
%ADD137R,0.0434X0.0014*%
%ADD138R,0.0322X0.0014*%
%ADD139R,0.0308X0.0014*%
%ADD140R,0.0322X0.0014*%
%ADD141R,0.0658X0.0014*%
%ADD142R,0.1260X0.0014*%
%ADD143R,0.0658X0.0014*%
%ADD144R,0.1260X0.0014*%
%ADD145R,0.0378X0.0014*%
%ADD146R,0.0266X0.0014*%
%ADD147R,0.0294X0.0014*%
%ADD148R,0.0994X0.0014*%
%ADD149R,0.0560X0.0014*%
%ADD150R,0.0406X0.0014*%
%ADD151R,0.0546X0.0014*%
%ADD152R,0.0266X0.0014*%
%ADD153R,0.0476X0.0014*%
%ADD154R,0.0364X0.0014*%
%ADD155R,0.0252X0.0014*%
%ADD156R,0.0266X0.0014*%
%ADD157R,0.1148X0.0014*%
%ADD158R,0.1120X0.0014*%
%ADD159R,0.1092X0.0014*%
%ADD160R,0.0238X0.0014*%
%ADD161R,0.1092X0.0014*%
%ADD162R,0.1064X0.0014*%
%ADD163R,0.1036X0.0014*%
%ADD164R,0.1008X0.0014*%
%ADD165R,0.0938X0.0014*%
%ADD166R,0.0910X0.0014*%
%ADD167R,0.0882X0.0014*%
%ADD168R,0.0854X0.0014*%
%ADD169R,0.0812X0.0014*%
%ADD170R,0.0742X0.0014*%
%ADD171R,0.0658X0.0014*%
%ADD172C,0.0060*%
D10*
X007271Y007583D02*
X022019Y007583D01*
X022063Y007585D01*
X022106Y007591D01*
X022148Y007600D01*
X022190Y007613D01*
X022230Y007630D01*
X022269Y007650D01*
X022306Y007673D01*
X022340Y007700D01*
X022373Y007729D01*
X022402Y007762D01*
X022429Y007796D01*
X022452Y007833D01*
X022472Y007872D01*
X022489Y007912D01*
X022502Y007954D01*
X022511Y007996D01*
X022517Y008039D01*
X022519Y008083D01*
X022519Y018698D01*
X022517Y018742D01*
X022511Y018785D01*
X022502Y018827D01*
X022489Y018869D01*
X022472Y018909D01*
X022452Y018948D01*
X022429Y018985D01*
X022402Y019019D01*
X022373Y019052D01*
X022340Y019081D01*
X022306Y019108D01*
X022269Y019131D01*
X022230Y019151D01*
X022190Y019168D01*
X022148Y019181D01*
X022106Y019190D01*
X022063Y019196D01*
X022019Y019198D01*
X007271Y019198D01*
X007227Y019196D01*
X007184Y019190D01*
X007142Y019181D01*
X007100Y019168D01*
X007060Y019151D01*
X007021Y019131D01*
X006984Y019108D01*
X006950Y019081D01*
X006917Y019052D01*
X006888Y019019D01*
X006861Y018985D01*
X006838Y018948D01*
X006818Y018909D01*
X006801Y018869D01*
X006788Y018827D01*
X006779Y018785D01*
X006773Y018742D01*
X006771Y018698D01*
X006771Y008083D01*
X006773Y008039D01*
X006779Y007996D01*
X006788Y007954D01*
X006801Y007912D01*
X006818Y007872D01*
X006838Y007833D01*
X006861Y007796D01*
X006888Y007762D01*
X006917Y007729D01*
X006950Y007700D01*
X006984Y007673D01*
X007021Y007650D01*
X007060Y007630D01*
X007100Y007613D01*
X007142Y007600D01*
X007184Y007591D01*
X007227Y007585D01*
X007271Y007583D01*
X007716Y008764D02*
X007718Y008816D01*
X007724Y008868D01*
X007734Y008919D01*
X007747Y008969D01*
X007765Y009019D01*
X007786Y009066D01*
X007810Y009112D01*
X007839Y009156D01*
X007870Y009198D01*
X007904Y009237D01*
X007941Y009274D01*
X007981Y009307D01*
X008024Y009338D01*
X008068Y009365D01*
X008114Y009389D01*
X008163Y009409D01*
X008212Y009425D01*
X008263Y009438D01*
X008314Y009447D01*
X008366Y009452D01*
X008418Y009453D01*
X008470Y009450D01*
X008522Y009443D01*
X008573Y009432D01*
X008623Y009418D01*
X008672Y009399D01*
X008719Y009377D01*
X008764Y009352D01*
X008808Y009323D01*
X008849Y009291D01*
X008888Y009256D01*
X008923Y009218D01*
X008956Y009177D01*
X008986Y009135D01*
X009012Y009090D01*
X009035Y009043D01*
X009054Y008994D01*
X009070Y008944D01*
X009082Y008894D01*
X009090Y008842D01*
X009094Y008790D01*
X009094Y008738D01*
X009090Y008686D01*
X009082Y008634D01*
X009070Y008584D01*
X009054Y008534D01*
X009035Y008485D01*
X009012Y008438D01*
X008986Y008393D01*
X008956Y008351D01*
X008923Y008310D01*
X008888Y008272D01*
X008849Y008237D01*
X008808Y008205D01*
X008764Y008176D01*
X008719Y008151D01*
X008672Y008129D01*
X008623Y008110D01*
X008573Y008096D01*
X008522Y008085D01*
X008470Y008078D01*
X008418Y008075D01*
X008366Y008076D01*
X008314Y008081D01*
X008263Y008090D01*
X008212Y008103D01*
X008163Y008119D01*
X008114Y008139D01*
X008068Y008163D01*
X008024Y008190D01*
X007981Y008221D01*
X007941Y008254D01*
X007904Y008291D01*
X007870Y008330D01*
X007839Y008372D01*
X007810Y008416D01*
X007786Y008462D01*
X007765Y008509D01*
X007747Y008559D01*
X007734Y008609D01*
X007724Y008660D01*
X007718Y008712D01*
X007716Y008764D01*
X018681Y018016D02*
X018683Y018068D01*
X018689Y018120D01*
X018699Y018171D01*
X018712Y018221D01*
X018730Y018271D01*
X018751Y018318D01*
X018775Y018364D01*
X018804Y018408D01*
X018835Y018450D01*
X018869Y018489D01*
X018906Y018526D01*
X018946Y018559D01*
X018989Y018590D01*
X019033Y018617D01*
X019079Y018641D01*
X019128Y018661D01*
X019177Y018677D01*
X019228Y018690D01*
X019279Y018699D01*
X019331Y018704D01*
X019383Y018705D01*
X019435Y018702D01*
X019487Y018695D01*
X019538Y018684D01*
X019588Y018670D01*
X019637Y018651D01*
X019684Y018629D01*
X019729Y018604D01*
X019773Y018575D01*
X019814Y018543D01*
X019853Y018508D01*
X019888Y018470D01*
X019921Y018429D01*
X019951Y018387D01*
X019977Y018342D01*
X020000Y018295D01*
X020019Y018246D01*
X020035Y018196D01*
X020047Y018146D01*
X020055Y018094D01*
X020059Y018042D01*
X020059Y017990D01*
X020055Y017938D01*
X020047Y017886D01*
X020035Y017836D01*
X020019Y017786D01*
X020000Y017737D01*
X019977Y017690D01*
X019951Y017645D01*
X019921Y017603D01*
X019888Y017562D01*
X019853Y017524D01*
X019814Y017489D01*
X019773Y017457D01*
X019729Y017428D01*
X019684Y017403D01*
X019637Y017381D01*
X019588Y017362D01*
X019538Y017348D01*
X019487Y017337D01*
X019435Y017330D01*
X019383Y017327D01*
X019331Y017328D01*
X019279Y017333D01*
X019228Y017342D01*
X019177Y017355D01*
X019128Y017371D01*
X019079Y017391D01*
X019033Y017415D01*
X018989Y017442D01*
X018946Y017473D01*
X018906Y017506D01*
X018869Y017543D01*
X018835Y017582D01*
X018804Y017624D01*
X018775Y017668D01*
X018751Y017714D01*
X018730Y017761D01*
X018712Y017811D01*
X018699Y017861D01*
X018689Y017912D01*
X018683Y017964D01*
X018681Y018016D01*
D11*
X021054Y014885D02*
X021006Y014836D01*
X021006Y014740D01*
X021054Y014691D01*
X021200Y014691D01*
X021200Y014595D02*
X021200Y014885D01*
X021054Y014885D01*
X021301Y014885D02*
X021494Y014885D01*
X021494Y014595D01*
X021301Y014595D01*
X021397Y014740D02*
X021494Y014740D01*
X021595Y014885D02*
X021789Y014885D01*
X021692Y014885D02*
X021692Y014595D01*
X021890Y014643D02*
X021938Y014595D01*
X022035Y014595D01*
X022084Y014643D01*
X022035Y014740D02*
X021938Y014740D01*
X021890Y014691D01*
X021890Y014643D01*
X022035Y014740D02*
X022084Y014788D01*
X022084Y014836D01*
X022035Y014885D01*
X021938Y014885D01*
X021890Y014836D01*
X022149Y013799D02*
X021560Y013799D01*
X021646Y013740D02*
X021646Y013449D01*
X021840Y013740D01*
X021840Y013449D01*
X021941Y013449D02*
X022134Y013449D01*
X022134Y013740D01*
X021941Y013740D01*
X022037Y013594D02*
X022134Y013594D01*
X022186Y013090D02*
X022331Y013090D01*
X022331Y012800D01*
X022186Y012800D01*
X022137Y012848D01*
X022137Y013042D01*
X022186Y013090D01*
X022036Y013090D02*
X021939Y013090D01*
X021988Y013090D02*
X021988Y012800D01*
X022036Y012800D02*
X021939Y012800D01*
X021840Y012800D02*
X021840Y013090D01*
X021694Y013090D01*
X021646Y013042D01*
X021646Y012945D01*
X021694Y012896D01*
X021840Y012896D01*
X021743Y012896D02*
X021646Y012800D01*
X019815Y012872D02*
X019718Y012969D01*
X019718Y012678D01*
X019815Y012678D02*
X019621Y012678D01*
X019520Y012678D02*
X019327Y012969D01*
X019226Y012920D02*
X019177Y012969D01*
X019081Y012969D01*
X019032Y012920D01*
X019032Y012872D01*
X019081Y012823D01*
X019032Y012775D01*
X019032Y012727D01*
X019081Y012678D01*
X019177Y012678D01*
X019226Y012727D01*
X019129Y012823D02*
X019081Y012823D01*
X018931Y012920D02*
X018883Y012969D01*
X018786Y012969D01*
X018737Y012920D01*
X018737Y012872D01*
X018931Y012678D01*
X018737Y012678D01*
X018615Y012678D02*
X018421Y012678D01*
X018518Y012678D02*
X018518Y012969D01*
X018615Y012872D01*
X018320Y012678D02*
X018127Y012969D01*
X018026Y012872D02*
X017929Y012969D01*
X017929Y012678D01*
X018026Y012678D02*
X017832Y012678D01*
X017731Y012727D02*
X017683Y012678D01*
X017586Y012678D01*
X017537Y012727D01*
X017537Y012775D01*
X017586Y012823D01*
X017731Y012823D01*
X017731Y012727D01*
X017731Y012823D02*
X017634Y012920D01*
X017537Y012969D01*
X017928Y014098D02*
X017928Y014389D01*
X017783Y014389D01*
X017734Y014340D01*
X017734Y014243D01*
X017783Y014195D01*
X017928Y014195D01*
X018029Y014098D02*
X018222Y014098D01*
X018222Y014389D01*
X018029Y014389D01*
X018126Y014243D02*
X018222Y014243D01*
X018324Y014389D02*
X018517Y014389D01*
X018420Y014389D02*
X018420Y014098D01*
X018618Y014147D02*
X018667Y014098D01*
X018763Y014098D01*
X018812Y014147D01*
X018913Y014147D02*
X018913Y014389D01*
X018812Y014340D02*
X018763Y014389D01*
X018667Y014389D01*
X018618Y014340D01*
X018667Y014243D02*
X018618Y014195D01*
X018618Y014147D01*
X018667Y014243D02*
X018763Y014243D01*
X018812Y014292D01*
X018812Y014340D01*
X018913Y014147D02*
X018961Y014098D01*
X019058Y014098D01*
X019106Y014147D01*
X019106Y014389D01*
X014616Y008789D02*
X014520Y008692D01*
X014423Y008789D01*
X014423Y008498D01*
X014322Y008547D02*
X014273Y008595D01*
X014128Y008595D01*
X014128Y008643D02*
X014128Y008498D01*
X014273Y008498D01*
X014322Y008547D01*
X014273Y008692D02*
X014177Y008692D01*
X014128Y008643D01*
X014027Y008692D02*
X014027Y008547D01*
X013979Y008498D01*
X013834Y008498D01*
X013834Y008450D02*
X013882Y008402D01*
X013930Y008402D01*
X013834Y008450D02*
X013834Y008692D01*
X013834Y008309D02*
X013834Y008115D01*
X013930Y008018D01*
X014027Y008115D01*
X014027Y008309D01*
X014128Y008309D02*
X014322Y008309D01*
X014322Y008018D01*
X014128Y008018D01*
X014225Y008163D02*
X014322Y008163D01*
X014423Y008163D02*
X014471Y008115D01*
X014616Y008115D01*
X014520Y008115D02*
X014423Y008018D01*
X014423Y008163D02*
X014423Y008260D01*
X014471Y008309D01*
X014616Y008309D01*
X014616Y008018D01*
X014616Y008498D02*
X014616Y008789D01*
X013732Y007970D02*
X013539Y007970D01*
X013438Y008018D02*
X013293Y008018D01*
X013244Y008067D01*
X013244Y008260D01*
X013293Y008309D01*
X013438Y008309D01*
X013438Y008018D01*
X013438Y008498D02*
X013244Y008498D01*
X013143Y008547D02*
X012950Y008740D01*
X012950Y008547D01*
X012998Y008498D01*
X013095Y008498D01*
X013143Y008547D01*
X013143Y008740D01*
X013095Y008789D01*
X012998Y008789D01*
X012950Y008740D01*
X012848Y008692D02*
X012752Y008789D01*
X012752Y008498D01*
X012848Y008498D02*
X012655Y008498D01*
X012554Y008547D02*
X012505Y008498D01*
X012409Y008498D01*
X012360Y008547D01*
X012360Y008643D01*
X012409Y008692D01*
X012457Y008692D01*
X012554Y008643D01*
X012554Y008789D01*
X012360Y008789D01*
X013244Y008740D02*
X013293Y008789D01*
X013389Y008789D01*
X013438Y008740D01*
X013244Y008740D02*
X013244Y008692D01*
X013438Y008498D01*
X008437Y011089D02*
X008437Y011234D01*
X008388Y011283D01*
X008340Y011283D01*
X008291Y011234D01*
X008291Y011089D01*
X008146Y011089D02*
X008146Y011234D01*
X008195Y011283D01*
X008243Y011283D01*
X008291Y011234D01*
X008340Y011384D02*
X008437Y011480D01*
X008146Y011480D01*
X008146Y011384D02*
X008146Y011577D01*
X008146Y011089D02*
X008437Y011089D01*
X008437Y012709D02*
X008146Y012709D01*
X008146Y012854D01*
X008195Y012903D01*
X008243Y012903D01*
X008291Y012854D01*
X008291Y012709D01*
X008291Y012854D02*
X008340Y012903D01*
X008388Y012903D01*
X008437Y012854D01*
X008437Y012709D01*
X008388Y013004D02*
X008437Y013052D01*
X008437Y013149D01*
X008388Y013197D01*
X008340Y013197D01*
X008146Y013004D01*
X008146Y013197D01*
X008146Y013429D02*
X008340Y013429D01*
X008437Y013526D01*
X008340Y013623D01*
X008146Y013623D01*
X008146Y013724D02*
X008340Y013917D01*
X008388Y013917D01*
X008437Y013869D01*
X008437Y013772D01*
X008388Y013724D01*
X008291Y013623D02*
X008291Y013429D01*
X008146Y013724D02*
X008146Y013917D01*
X007322Y013931D02*
X007322Y014076D01*
X007273Y014125D01*
X007177Y014125D01*
X007128Y014076D01*
X007128Y013931D01*
X007032Y013931D02*
X007322Y013931D01*
X007273Y013830D02*
X007080Y013830D01*
X007032Y013782D01*
X007032Y013685D01*
X007080Y013636D01*
X007273Y013636D01*
X007322Y013685D01*
X007322Y013782D01*
X007273Y013830D01*
X007128Y014028D02*
X007032Y014125D01*
X007322Y013535D02*
X007322Y013342D01*
X007322Y013439D02*
X007032Y013439D01*
X007080Y013241D02*
X007273Y013241D01*
X007322Y013192D01*
X007322Y013096D01*
X007273Y013047D01*
X007080Y013047D01*
X007032Y013096D01*
X007032Y013192D01*
X007080Y013241D01*
X007032Y012946D02*
X007322Y012946D01*
X007225Y012849D01*
X007322Y012752D01*
X007032Y012752D01*
X008146Y015049D02*
X008340Y015049D01*
X008437Y015146D01*
X008340Y015243D01*
X008146Y015243D01*
X008146Y015344D02*
X008146Y015537D01*
X008146Y015440D02*
X008437Y015440D01*
X008340Y015344D01*
X008291Y015243D02*
X008291Y015049D01*
X009931Y017462D02*
X009931Y017752D01*
X009785Y017752D01*
X009737Y017703D01*
X009737Y017607D01*
X009785Y017558D01*
X009931Y017558D01*
X010032Y017607D02*
X010032Y017703D01*
X010080Y017752D01*
X010177Y017752D01*
X010225Y017703D01*
X010225Y017607D01*
X010177Y017558D01*
X010080Y017558D01*
X010032Y017607D01*
X010325Y017558D02*
X010373Y017607D01*
X010373Y017800D01*
X010325Y017752D02*
X010422Y017752D01*
X010523Y017752D02*
X010668Y017752D01*
X010716Y017703D01*
X010668Y017655D01*
X010571Y017655D01*
X010523Y017607D01*
X010571Y017558D01*
X010716Y017558D01*
X010894Y017558D02*
X010894Y017849D01*
X010894Y017752D02*
X011039Y017752D01*
X011087Y017703D01*
X011087Y017607D01*
X011039Y017558D01*
X010894Y017558D01*
X011188Y017558D02*
X011188Y017703D01*
X011237Y017752D01*
X011382Y017752D01*
X011382Y017558D01*
X011483Y017558D02*
X011628Y017558D01*
X011676Y017607D01*
X011676Y017703D01*
X011628Y017752D01*
X011483Y017752D01*
X011483Y017510D01*
X011531Y017462D01*
X011580Y017462D01*
X011974Y017752D02*
X012070Y017558D01*
X012167Y017752D01*
X012268Y017703D02*
X012268Y017607D01*
X012317Y017558D01*
X012413Y017558D01*
X012462Y017607D01*
X012462Y017703D02*
X012365Y017752D01*
X012317Y017752D01*
X012268Y017703D01*
X012268Y017849D02*
X012462Y017849D01*
X012462Y017703D01*
X012563Y017703D02*
X012756Y017703D01*
X012660Y017607D02*
X012660Y017800D01*
D12*
X014808Y010501D03*
X014990Y009591D03*
X014990Y009577D03*
X015200Y009395D03*
X015200Y009381D03*
X015928Y009885D03*
X015942Y009871D03*
X015900Y010249D03*
X015928Y010291D03*
X015942Y010305D03*
X016418Y010319D03*
X016432Y010305D03*
X016474Y010249D03*
X016474Y009927D03*
X016432Y009871D03*
X016418Y009857D03*
X016922Y010305D03*
X017440Y010291D03*
X017454Y010277D03*
X017454Y009899D03*
X017440Y009885D03*
X017958Y010347D03*
X018462Y010291D03*
X018448Y009899D03*
X018462Y009885D03*
X019274Y009969D03*
X019302Y009997D03*
X019372Y010081D03*
X019400Y010109D03*
X019484Y010207D03*
X019498Y010221D03*
X019512Y010235D03*
X019610Y010347D03*
X019904Y009829D03*
X019918Y009815D03*
X020184Y009815D03*
X020198Y009829D03*
X014150Y009507D03*
X014150Y009479D03*
X014150Y009465D03*
X014150Y009451D03*
X014038Y009311D03*
X013954Y009535D03*
X013604Y009535D03*
X013604Y009549D03*
X013604Y009577D03*
X013604Y009591D03*
X013604Y009605D03*
X013604Y009619D03*
X013604Y009437D03*
X013604Y009409D03*
X013604Y009395D03*
X013604Y009381D03*
X013604Y009367D03*
X013604Y009339D03*
X012932Y010011D03*
X012694Y010011D03*
X012680Y009885D03*
X012694Y010375D03*
X012932Y010375D03*
D13*
X012925Y010249D03*
X012925Y010137D03*
X012701Y010137D03*
X012701Y010249D03*
X012701Y010599D03*
X012925Y010599D03*
X012715Y009745D03*
X012925Y009689D03*
X015137Y009927D03*
X015361Y009591D03*
X015361Y009577D03*
X015193Y009367D03*
X015613Y009325D03*
X015921Y009899D03*
X015907Y009927D03*
X015893Y009941D03*
X015893Y009955D03*
X015879Y009969D03*
X015865Y010025D03*
X015865Y010039D03*
X015865Y010137D03*
X015865Y010151D03*
X015879Y010207D03*
X015893Y010235D03*
X015921Y010277D03*
X016187Y010529D03*
X016201Y010515D03*
X016173Y010557D03*
X016159Y010571D03*
X016145Y010585D03*
X016131Y010599D03*
X016453Y010277D03*
X016481Y010235D03*
X016495Y010207D03*
X016509Y010165D03*
X016509Y010151D03*
X016509Y010137D03*
X016509Y010039D03*
X016509Y010025D03*
X016509Y010011D03*
X016495Y009969D03*
X016481Y009941D03*
X016453Y009899D03*
X016719Y009899D03*
X016719Y009885D03*
X016719Y009871D03*
X016719Y009857D03*
X016719Y009829D03*
X016719Y009815D03*
X016719Y009801D03*
X016719Y009787D03*
X016719Y009759D03*
X016719Y009745D03*
X016719Y009927D03*
X016719Y009941D03*
X016719Y009955D03*
X016719Y009969D03*
X016719Y009997D03*
X016719Y010011D03*
X016719Y010025D03*
X016719Y010039D03*
X016719Y010067D03*
X016719Y010081D03*
X016719Y010095D03*
X016719Y010109D03*
X016719Y010137D03*
X016719Y010151D03*
X016719Y010165D03*
X016719Y010179D03*
X016719Y010207D03*
X016719Y010221D03*
X016719Y010235D03*
X016719Y010249D03*
X016719Y010277D03*
X016719Y010291D03*
X016719Y010305D03*
X016719Y010319D03*
X016719Y010347D03*
X016719Y010361D03*
X016719Y010375D03*
X016719Y010389D03*
X016719Y010417D03*
X016719Y010431D03*
X016929Y009871D03*
X017083Y009605D03*
X017293Y009465D03*
X017671Y009759D03*
X017685Y009787D03*
X017685Y009801D03*
X017699Y009815D03*
X017699Y009829D03*
X017713Y009857D03*
X017727Y009871D03*
X017727Y009885D03*
X017755Y009941D03*
X017769Y009969D03*
X017797Y010039D03*
X017811Y010067D03*
X017825Y010081D03*
X017825Y010095D03*
X017853Y010151D03*
X017867Y010179D03*
X017881Y010207D03*
X017881Y010221D03*
X017895Y010235D03*
X017895Y010249D03*
X017909Y010277D03*
X017993Y010277D03*
X018007Y010249D03*
X018021Y010235D03*
X018021Y010221D03*
X018035Y010207D03*
X018049Y010179D03*
X018049Y010165D03*
X018063Y010151D03*
X018063Y010137D03*
X018077Y010109D03*
X018091Y010081D03*
X018105Y010039D03*
X018147Y009969D03*
X018147Y009955D03*
X018161Y009941D03*
X018161Y009927D03*
X018175Y009899D03*
X018189Y009885D03*
X018189Y009871D03*
X018203Y009857D03*
X018217Y009815D03*
X018231Y009787D03*
X018245Y009759D03*
X018427Y009927D03*
X018427Y009941D03*
X018413Y009969D03*
X018399Y010025D03*
X018399Y010039D03*
X018399Y010067D03*
X018399Y010095D03*
X018399Y010109D03*
X018399Y010137D03*
X018413Y010179D03*
X018427Y010221D03*
X018427Y010235D03*
X018441Y010249D03*
X018455Y010277D03*
X019155Y009829D03*
X019239Y009927D03*
X019253Y009941D03*
X019267Y009955D03*
X019323Y010025D03*
X019337Y010039D03*
X019365Y010067D03*
X019421Y010137D03*
X019435Y010151D03*
X019449Y010165D03*
X019463Y010179D03*
X019519Y010249D03*
X019617Y010249D03*
X019617Y010235D03*
X019617Y010221D03*
X019617Y010207D03*
X019617Y010179D03*
X019617Y010165D03*
X019617Y010151D03*
X019617Y010137D03*
X019617Y010109D03*
X019617Y010095D03*
X019617Y010081D03*
X019617Y010067D03*
X019617Y010039D03*
X019617Y010025D03*
X019617Y010011D03*
X019617Y009997D03*
X019617Y009969D03*
X019617Y009955D03*
X019617Y009941D03*
X019617Y009927D03*
X019617Y009899D03*
X019617Y009885D03*
X019617Y009871D03*
X019617Y009857D03*
X019617Y009829D03*
X019617Y009815D03*
X019617Y009801D03*
X019617Y009787D03*
X019617Y009759D03*
X019869Y009885D03*
X019883Y009857D03*
X019855Y009997D03*
X019855Y010011D03*
X019855Y010025D03*
X019855Y010039D03*
X019855Y010067D03*
X019855Y010081D03*
X019855Y010095D03*
X019855Y010109D03*
X019855Y010137D03*
X019855Y010151D03*
X019855Y010165D03*
X019855Y010179D03*
X019855Y010207D03*
X019855Y010221D03*
X019855Y010235D03*
X019855Y010249D03*
X019855Y010277D03*
X019855Y010291D03*
X019855Y010305D03*
X019855Y010319D03*
X019855Y010347D03*
X019855Y010361D03*
X019855Y010375D03*
X019855Y010389D03*
X019855Y010417D03*
X019617Y010361D03*
X020233Y009885D03*
X020219Y009857D03*
X017951Y010361D03*
X017489Y010221D03*
X017489Y010207D03*
X017503Y010179D03*
X017503Y010165D03*
X017503Y010151D03*
X017517Y010095D03*
X017503Y010011D03*
X017503Y009997D03*
X017489Y009969D03*
X017489Y009955D03*
X017475Y009941D03*
X017475Y009927D03*
X017475Y010235D03*
X017475Y010249D03*
X016453Y009325D03*
D14*
X016383Y009829D03*
X016383Y010347D03*
X017419Y010319D03*
X017433Y010305D03*
X017433Y009871D03*
X017419Y009857D03*
X018483Y009857D03*
X018483Y010305D03*
X019169Y009857D03*
X019939Y009801D03*
X014689Y009549D03*
X014689Y009535D03*
X014689Y009521D03*
X014689Y009507D03*
X014689Y009479D03*
X014689Y009465D03*
X014689Y009451D03*
X014689Y009437D03*
X014689Y009409D03*
X014689Y009395D03*
X014689Y009381D03*
X014689Y009367D03*
X014689Y009339D03*
X014689Y009325D03*
X014143Y009437D03*
X014129Y009395D03*
X014143Y009521D03*
D15*
X014038Y009577D03*
X014038Y009381D03*
X014374Y009381D03*
X014374Y009367D03*
X014374Y009339D03*
X014374Y009325D03*
X014374Y009577D03*
X014374Y009591D03*
X014374Y009605D03*
X014374Y009619D03*
X014458Y010277D03*
X015508Y009885D03*
X013268Y009885D03*
X013268Y009899D03*
D16*
X013205Y009731D03*
X013149Y009675D03*
X013219Y010571D03*
X013205Y010585D03*
X012407Y010557D03*
X014073Y010109D03*
X014073Y010095D03*
X014073Y010081D03*
X014073Y010067D03*
X014073Y010039D03*
X014073Y010025D03*
X014073Y010011D03*
X014073Y009997D03*
X014073Y009969D03*
X014073Y009955D03*
X014073Y009941D03*
X014073Y009927D03*
X014073Y009899D03*
X014073Y009885D03*
X014073Y009871D03*
X014073Y009857D03*
X014073Y009829D03*
X014073Y009815D03*
X014073Y009801D03*
X014073Y009787D03*
X014073Y009759D03*
X014045Y009325D03*
X015613Y009339D03*
X015613Y009619D03*
X015613Y010067D03*
X015613Y010081D03*
X015613Y010095D03*
X015613Y010109D03*
X016453Y009339D03*
X018553Y009815D03*
D17*
X018581Y010361D03*
X017377Y009339D03*
X015585Y009969D03*
X015571Y009941D03*
X015585Y010207D03*
X015571Y010221D03*
X014801Y010641D03*
X013667Y010249D03*
X012715Y009689D03*
D18*
X012701Y009759D03*
X012911Y009759D03*
X012911Y009745D03*
X012911Y009731D03*
X012911Y009717D03*
X012911Y009899D03*
X012925Y010039D03*
X012925Y010109D03*
X012925Y010277D03*
X012701Y010277D03*
X012701Y010347D03*
X012701Y010501D03*
X012701Y010515D03*
X012701Y010571D03*
X012925Y010571D03*
X012925Y010501D03*
X012701Y010109D03*
X012701Y010039D03*
X013961Y009437D03*
X014871Y009339D03*
X014885Y009367D03*
X014885Y009381D03*
X014927Y009479D03*
X014941Y009507D03*
X014941Y009521D03*
X014955Y009549D03*
X015025Y009549D03*
X015025Y009535D03*
X015081Y009409D03*
X015081Y009395D03*
X015081Y009381D03*
X015095Y009367D03*
X015235Y009409D03*
X015277Y009479D03*
X015305Y009521D03*
X015375Y009619D03*
X015487Y009535D03*
X015487Y009521D03*
X015487Y009507D03*
X015487Y009479D03*
X015487Y009465D03*
X015487Y009451D03*
X015487Y009437D03*
X015501Y009409D03*
X015515Y009381D03*
X015501Y009549D03*
X015515Y009577D03*
X015725Y009549D03*
X015725Y009535D03*
X015725Y009521D03*
X015725Y009437D03*
X015725Y009409D03*
X015711Y009395D03*
X015977Y009395D03*
X015977Y009381D03*
X015977Y009367D03*
X015977Y009409D03*
X015977Y009437D03*
X015977Y009451D03*
X015977Y009465D03*
X015977Y009479D03*
X015977Y009507D03*
X015977Y009521D03*
X015977Y009535D03*
X015977Y009549D03*
X015977Y009577D03*
X015977Y009591D03*
X015977Y009605D03*
X015977Y009619D03*
X016355Y009549D03*
X016341Y009409D03*
X016355Y009395D03*
X016551Y009395D03*
X016565Y009437D03*
X016565Y009451D03*
X016565Y009465D03*
X016565Y009479D03*
X016565Y009507D03*
X016565Y009521D03*
X016565Y009535D03*
X016677Y009535D03*
X016677Y009549D03*
X016691Y009381D03*
X016957Y009339D03*
X016971Y009367D03*
X016985Y009395D03*
X016985Y009409D03*
X017027Y009507D03*
X017027Y009521D03*
X017041Y009535D03*
X017041Y009549D03*
X017055Y009577D03*
X017111Y009549D03*
X017125Y009535D03*
X017125Y009521D03*
X017125Y009507D03*
X017167Y009409D03*
X017167Y009395D03*
X017181Y009381D03*
X017181Y009367D03*
X017195Y009339D03*
X017265Y009395D03*
X017265Y009409D03*
X017265Y009437D03*
X017447Y009437D03*
X017447Y009451D03*
X017447Y009465D03*
X017447Y009507D03*
X017447Y009521D03*
X017447Y009535D03*
X017447Y009549D03*
X017447Y009577D03*
X017447Y009591D03*
X017447Y009409D03*
X017447Y009395D03*
X017447Y009381D03*
X017447Y009367D03*
X017181Y010445D03*
X019141Y009787D03*
X019631Y010389D03*
D19*
X017279Y009577D03*
X017279Y009549D03*
X017279Y009535D03*
X017279Y009521D03*
X017139Y009479D03*
X017013Y009479D03*
X017013Y009465D03*
X016873Y009451D03*
X016873Y009437D03*
X016873Y009409D03*
X016873Y009395D03*
X016873Y009381D03*
X016873Y009367D03*
X016873Y009339D03*
X016873Y009507D03*
X016873Y009521D03*
X016873Y009535D03*
X016873Y009549D03*
X016873Y009577D03*
X016873Y009591D03*
X016929Y009885D03*
X016243Y009591D03*
X016243Y009577D03*
X016243Y009549D03*
X016243Y009535D03*
X016243Y009521D03*
X016243Y009507D03*
X016243Y009465D03*
X016243Y009451D03*
X016243Y009437D03*
X016243Y009409D03*
X016243Y009395D03*
X016243Y009381D03*
X016243Y009367D03*
X016663Y009339D03*
X015739Y009451D03*
X015739Y009465D03*
X015739Y009479D03*
X015739Y009507D03*
X015319Y009535D03*
X015263Y009451D03*
X015249Y009437D03*
X015179Y009437D03*
X015179Y009451D03*
X015179Y009465D03*
X015179Y009479D03*
X015179Y009507D03*
X015179Y009521D03*
X015179Y009535D03*
X015179Y009549D03*
X015179Y009577D03*
X015179Y009591D03*
X015179Y009605D03*
X015179Y009619D03*
X015039Y009521D03*
X015039Y009507D03*
X015053Y009479D03*
X015053Y009465D03*
X015179Y009409D03*
X014899Y009409D03*
D20*
X015158Y009885D03*
X016152Y009339D03*
X016782Y009605D03*
X017174Y010431D03*
X014038Y009605D03*
X013240Y010487D03*
X012820Y009535D03*
D21*
X013240Y009787D03*
X013240Y009801D03*
X012932Y010207D03*
X013240Y010515D03*
X014038Y009339D03*
X014990Y009437D03*
X015564Y009927D03*
X015564Y010235D03*
X015550Y010249D03*
X014808Y010557D03*
X014808Y010571D03*
X014808Y010585D03*
X014808Y010599D03*
X014808Y010627D03*
X015900Y009339D03*
X017370Y009479D03*
X017370Y009605D03*
X021080Y010781D03*
D22*
X017146Y009465D03*
X015382Y009465D03*
X015382Y009451D03*
X015382Y009437D03*
X015382Y009409D03*
X015382Y009395D03*
X015382Y009381D03*
X015382Y009367D03*
X015382Y009339D03*
X015382Y009479D03*
X015382Y009507D03*
X015382Y009521D03*
X015382Y009535D03*
X015382Y009549D03*
X013030Y009759D03*
X013030Y009787D03*
X013030Y009801D03*
X013030Y009815D03*
X013030Y009829D03*
X013030Y009857D03*
X013030Y009871D03*
X013030Y009885D03*
X013030Y009899D03*
X012932Y010067D03*
X012932Y010081D03*
X012932Y010095D03*
X012932Y010291D03*
X012932Y010305D03*
X012932Y010319D03*
X012932Y010515D03*
X012932Y010529D03*
X012932Y010557D03*
X012792Y009829D03*
X012792Y009815D03*
X012680Y009857D03*
D23*
X015186Y009339D03*
X015326Y009549D03*
X015536Y009591D03*
X015536Y009367D03*
X016376Y009367D03*
X016376Y009591D03*
X016726Y009437D03*
X017076Y009619D03*
X017286Y009367D03*
X017846Y010137D03*
X018406Y010151D03*
X018406Y010165D03*
X018406Y010011D03*
X018406Y009997D03*
X019876Y009871D03*
X020226Y009871D03*
X016516Y010067D03*
X016516Y010081D03*
X016516Y010095D03*
X016516Y010109D03*
X015886Y010221D03*
D24*
X015872Y010179D03*
X015872Y010165D03*
X015858Y010109D03*
X015858Y010095D03*
X015858Y010081D03*
X015858Y010067D03*
X015872Y010011D03*
X015872Y009997D03*
X015690Y009591D03*
X015704Y009577D03*
X015704Y009381D03*
X015690Y009367D03*
X015508Y009395D03*
X015298Y009507D03*
X015270Y009465D03*
X015368Y009605D03*
X015102Y009339D03*
X014892Y009395D03*
X014920Y009465D03*
X014990Y009605D03*
X014990Y009619D03*
X015144Y010235D03*
X014808Y010697D03*
X016194Y010445D03*
X016208Y010501D03*
X016488Y010221D03*
X016502Y010179D03*
X016502Y009997D03*
X016488Y009955D03*
X016530Y009591D03*
X016544Y009577D03*
X016558Y009549D03*
X016684Y009521D03*
X016698Y009507D03*
X016740Y009451D03*
X016712Y009409D03*
X016698Y009395D03*
X016684Y009367D03*
X016558Y009409D03*
X016544Y009381D03*
X016530Y009367D03*
X016362Y009381D03*
X016362Y009577D03*
X016684Y009577D03*
X016698Y009591D03*
X016978Y009381D03*
X017272Y009381D03*
X017272Y009451D03*
X017300Y009507D03*
X017300Y009591D03*
X017510Y010025D03*
X017510Y010039D03*
X017510Y010067D03*
X017510Y010081D03*
X017510Y010109D03*
X017510Y010137D03*
X017762Y009955D03*
X017748Y009927D03*
X017734Y009899D03*
X017832Y010109D03*
X017860Y010165D03*
X017958Y010375D03*
X017958Y010389D03*
X018084Y010095D03*
X018098Y010067D03*
X018210Y009829D03*
X018224Y009801D03*
X018420Y009955D03*
X018392Y010081D03*
X018420Y010207D03*
X018910Y010207D03*
X018910Y010221D03*
X018910Y010235D03*
X018910Y010249D03*
X018910Y010277D03*
X018910Y010291D03*
X018910Y010305D03*
X018910Y010319D03*
X018910Y010347D03*
X018910Y010361D03*
X018910Y010179D03*
X018910Y010165D03*
X018910Y010151D03*
X018910Y010137D03*
X018910Y010109D03*
X018910Y010095D03*
X018910Y010081D03*
X018910Y010067D03*
X018910Y010039D03*
X018910Y010025D03*
X018910Y010011D03*
X018910Y009997D03*
X018910Y009969D03*
X018910Y009955D03*
X018910Y009941D03*
X018910Y009927D03*
X018910Y009899D03*
X018910Y009885D03*
X018910Y009871D03*
X018910Y009857D03*
X018910Y009829D03*
X018910Y009815D03*
X019148Y009815D03*
X019148Y009801D03*
X019148Y009927D03*
X019148Y009941D03*
X019148Y009955D03*
X019148Y009969D03*
X019148Y009997D03*
X019148Y010011D03*
X019148Y010025D03*
X019148Y010039D03*
X019148Y010067D03*
X019148Y010081D03*
X019148Y010095D03*
X019148Y010109D03*
X019148Y010137D03*
X019148Y010151D03*
X019148Y010165D03*
X019148Y010179D03*
X019148Y010207D03*
X019148Y010221D03*
X019148Y010235D03*
X019148Y010249D03*
X019148Y010277D03*
X019148Y010291D03*
X019148Y010305D03*
X019148Y010319D03*
X019148Y010347D03*
X019148Y010361D03*
X019148Y010375D03*
X019148Y010389D03*
X019148Y010417D03*
X019624Y010375D03*
X019862Y009969D03*
X019862Y009955D03*
X019862Y009941D03*
X019862Y009927D03*
X019862Y009899D03*
X020240Y009899D03*
X020240Y009927D03*
X020240Y009941D03*
X020240Y009955D03*
X020240Y009969D03*
X020240Y009997D03*
X020240Y010011D03*
X020240Y010025D03*
X020240Y010039D03*
X020240Y010067D03*
X020240Y010081D03*
X020240Y010095D03*
X020240Y010109D03*
X020240Y010137D03*
X020240Y010151D03*
X020240Y010165D03*
X020240Y010179D03*
X020240Y010207D03*
X020240Y010221D03*
X020240Y010235D03*
X020240Y010249D03*
X020240Y010277D03*
X020240Y010291D03*
X020240Y010305D03*
X020240Y010319D03*
X020240Y010347D03*
X020240Y010361D03*
X020240Y010375D03*
X020240Y010389D03*
X020240Y010417D03*
X016922Y010291D03*
X012932Y010347D03*
X012932Y010361D03*
X012932Y010487D03*
X012932Y010585D03*
X012694Y010585D03*
X012694Y010487D03*
X012694Y010361D03*
X012694Y010025D03*
X012680Y009871D03*
X012554Y009759D03*
X012932Y010025D03*
D25*
X012925Y010151D03*
X012925Y010235D03*
X012701Y010235D03*
X012701Y010151D03*
X013611Y009521D03*
X013807Y009521D03*
X013807Y009535D03*
X013807Y009549D03*
X013807Y009577D03*
X013807Y009591D03*
X013807Y009605D03*
X013807Y009619D03*
X013947Y009549D03*
X013947Y009409D03*
X013961Y009395D03*
X013807Y009395D03*
X013807Y009381D03*
X013807Y009367D03*
X013807Y009339D03*
X013807Y009409D03*
X013807Y009437D03*
X014451Y009437D03*
X014451Y009451D03*
X014451Y009409D03*
X014451Y009395D03*
X014451Y009521D03*
X014451Y009535D03*
X014451Y009549D03*
X015137Y010249D03*
X015991Y010347D03*
X015991Y009829D03*
X016971Y010347D03*
X018497Y010319D03*
D26*
X017370Y009353D03*
X015900Y009353D03*
X014808Y010613D03*
X013674Y010263D03*
D27*
X012932Y010263D03*
X012932Y010123D03*
X012694Y010123D03*
X012694Y010263D03*
X012918Y009703D03*
X015242Y009423D03*
X015494Y009423D03*
X015508Y009563D03*
X015858Y010053D03*
X015858Y010123D03*
X016670Y009353D03*
X017188Y009353D03*
X017510Y010053D03*
X017510Y010123D03*
X018238Y009773D03*
X018910Y009843D03*
X018910Y009913D03*
X018910Y009983D03*
X018910Y010053D03*
X018910Y010123D03*
X018910Y010193D03*
X018910Y010263D03*
X018910Y010333D03*
X019148Y010333D03*
X019148Y010263D03*
X019148Y010193D03*
X019148Y010123D03*
X019148Y010053D03*
X019148Y009983D03*
X019148Y009913D03*
X019148Y010403D03*
X019862Y009983D03*
X019862Y009913D03*
X020240Y009913D03*
X020240Y009983D03*
X020240Y010053D03*
X020240Y010123D03*
X020240Y010193D03*
X020240Y010263D03*
X020240Y010333D03*
X020240Y010403D03*
D28*
X019631Y010403D03*
X017951Y010403D03*
X017447Y009563D03*
X017447Y009423D03*
X017265Y009423D03*
X017111Y009563D03*
X017055Y009563D03*
X017027Y009493D03*
X016971Y009353D03*
X016677Y009563D03*
X016551Y009563D03*
X016565Y009493D03*
X016565Y009423D03*
X016341Y009423D03*
X016355Y009563D03*
X015977Y009563D03*
X015977Y009493D03*
X015977Y009423D03*
X015725Y009423D03*
X015711Y009563D03*
X015487Y009493D03*
X015291Y009493D03*
X015095Y009353D03*
X014927Y009493D03*
X014955Y009563D03*
X014871Y009353D03*
X012911Y009773D03*
X012925Y010333D03*
X012701Y010333D03*
D29*
X015039Y009493D03*
X015179Y009493D03*
X015179Y009423D03*
X015179Y009563D03*
X015739Y009493D03*
X016243Y009423D03*
X016243Y009563D03*
X016719Y009423D03*
X016873Y009423D03*
X016873Y009353D03*
X016873Y009563D03*
X017139Y009493D03*
X017279Y009563D03*
D30*
X016453Y009353D03*
X015613Y009353D03*
X014493Y010193D03*
X014073Y010193D03*
X013233Y010543D03*
X013233Y009773D03*
D31*
X013254Y009843D03*
X014472Y010263D03*
X016152Y009353D03*
X016782Y009493D03*
D32*
X015382Y009493D03*
X015382Y009423D03*
X015382Y009353D03*
X013030Y009773D03*
X013030Y009843D03*
X012932Y010053D03*
X012680Y009843D03*
X012932Y010543D03*
D33*
X015186Y009353D03*
X016516Y010053D03*
X016516Y010123D03*
X017496Y009983D03*
X018406Y009983D03*
D34*
X019603Y010333D03*
X016943Y009843D03*
X014689Y009493D03*
X014689Y009423D03*
X014689Y009353D03*
X014143Y009423D03*
D35*
X014374Y009353D03*
D36*
X014045Y009353D03*
X014983Y009423D03*
X015543Y009913D03*
X016159Y009493D03*
X017083Y009423D03*
D37*
X017405Y009843D03*
X017405Y010333D03*
X017951Y010333D03*
X018497Y009843D03*
X014451Y009563D03*
X014451Y009423D03*
X013947Y009423D03*
X013807Y009423D03*
X013807Y009353D03*
X013807Y009563D03*
X013961Y009563D03*
X012925Y010613D03*
X012701Y010613D03*
D38*
X012694Y010473D03*
X012932Y010473D03*
X013604Y009563D03*
X013604Y009423D03*
X013604Y009353D03*
X014150Y009493D03*
X015354Y009563D03*
X015970Y009843D03*
X016404Y009843D03*
X016404Y010333D03*
X016124Y010613D03*
X015970Y010333D03*
X016950Y010333D03*
X017468Y010263D03*
X018448Y010263D03*
X019162Y009843D03*
X019232Y009913D03*
X019288Y009983D03*
X019414Y010123D03*
X019470Y010193D03*
X019890Y009843D03*
X020212Y009843D03*
D39*
X020051Y009759D03*
X015515Y010277D03*
X014381Y009507D03*
X014381Y009479D03*
X014381Y009465D03*
X014045Y009367D03*
X014045Y009591D03*
X013261Y009857D03*
X013261Y009871D03*
D40*
X014136Y009549D03*
X014136Y009535D03*
X014136Y009409D03*
X015956Y009857D03*
X015956Y010319D03*
X016446Y010291D03*
X016446Y009885D03*
X016936Y009857D03*
X017076Y009591D03*
X016936Y010319D03*
X018476Y009871D03*
X019316Y010011D03*
X019386Y010095D03*
D41*
X017076Y009451D03*
X017076Y009437D03*
X016796Y009479D03*
X016796Y009619D03*
X014486Y010221D03*
X014486Y010235D03*
X014066Y010221D03*
X014066Y010207D03*
X012386Y010501D03*
D42*
X012393Y010515D03*
X012393Y010529D03*
X013233Y010529D03*
X013653Y010221D03*
X014073Y010179D03*
X014073Y010165D03*
X014493Y010207D03*
X014983Y009451D03*
X015613Y009605D03*
X016453Y009605D03*
D43*
X016187Y010417D03*
X014689Y009619D03*
X014689Y009605D03*
X014689Y009591D03*
X014689Y009577D03*
X014437Y010291D03*
X014213Y010389D03*
X013793Y010389D03*
X013289Y010319D03*
X013289Y010305D03*
X013289Y010291D03*
X013289Y010277D03*
X013275Y010361D03*
X013289Y010067D03*
X013289Y010039D03*
X013709Y009507D03*
X013709Y009479D03*
X013709Y009465D03*
X013709Y009451D03*
X012449Y009787D03*
X012435Y009815D03*
X012337Y010067D03*
X012337Y010081D03*
X012337Y010095D03*
X012337Y010109D03*
X012365Y010375D03*
X012379Y010389D03*
X012407Y010445D03*
D44*
X012932Y010445D03*
X013226Y010557D03*
X012820Y010781D03*
X013660Y010235D03*
X013646Y010207D03*
X013646Y010179D03*
X013646Y010165D03*
X013646Y010151D03*
X013646Y010137D03*
X013646Y010109D03*
X013646Y010095D03*
X013646Y010081D03*
X013646Y010067D03*
X013646Y010039D03*
X013646Y010025D03*
X013646Y010011D03*
X013646Y009997D03*
X013646Y009969D03*
X013646Y009955D03*
X013646Y009941D03*
X013646Y009927D03*
X013646Y009899D03*
X013646Y009885D03*
X013646Y009871D03*
X013646Y009857D03*
X013646Y009829D03*
X013646Y009815D03*
X013646Y009801D03*
X013646Y009787D03*
X013646Y009759D03*
X013226Y009759D03*
X013212Y009745D03*
X014066Y010137D03*
X014066Y010151D03*
X014500Y010151D03*
X014500Y010137D03*
X014500Y010109D03*
X014500Y010095D03*
X014500Y010081D03*
X014500Y010067D03*
X014500Y010039D03*
X014500Y010025D03*
X014500Y010011D03*
X014500Y009997D03*
X014500Y009969D03*
X014500Y009955D03*
X014500Y009941D03*
X014500Y009927D03*
X014500Y009899D03*
X014500Y009885D03*
X014500Y009871D03*
X014500Y009857D03*
X014500Y009829D03*
X014500Y009815D03*
X014500Y009801D03*
X014500Y009787D03*
X014500Y009759D03*
X014500Y010165D03*
X014500Y010179D03*
X014500Y010361D03*
X014500Y010375D03*
X014500Y010389D03*
X014500Y010417D03*
X015312Y010431D03*
X015592Y010179D03*
X015592Y010165D03*
X015606Y010151D03*
X015606Y010137D03*
X015606Y010039D03*
X015606Y010025D03*
X015606Y010011D03*
X015592Y009997D03*
X016810Y009465D03*
D45*
X017181Y009745D03*
X016187Y009745D03*
X016159Y009619D03*
X016159Y009605D03*
X016159Y009479D03*
X015529Y009899D03*
X015137Y010277D03*
X014479Y010249D03*
X014213Y010417D03*
X013793Y010417D03*
X013681Y010277D03*
X013247Y010501D03*
X012701Y010207D03*
X013247Y009829D03*
X013247Y009815D03*
X016187Y010431D03*
D46*
X015585Y010193D03*
X014801Y010543D03*
X017377Y009493D03*
D47*
X014381Y009493D03*
D48*
X014689Y009563D03*
X013709Y009493D03*
X013289Y010053D03*
X012337Y010053D03*
D49*
X012687Y009829D03*
X012687Y009815D03*
X012687Y009801D03*
X012687Y009787D03*
X013975Y009521D03*
X016929Y010277D03*
X019127Y009759D03*
D50*
X021073Y009535D03*
X012379Y009857D03*
D51*
X012694Y010067D03*
X012694Y010081D03*
X012694Y010095D03*
X012694Y010291D03*
X012694Y010305D03*
X012694Y010319D03*
X012694Y010529D03*
X012694Y010557D03*
X012904Y009885D03*
X012904Y009871D03*
X012904Y009857D03*
X012904Y009829D03*
X012904Y009815D03*
X012904Y009801D03*
X012904Y009787D03*
X014948Y009535D03*
X015144Y009941D03*
X015144Y010221D03*
X017104Y009577D03*
X017958Y010417D03*
X019638Y010417D03*
D52*
X020625Y010151D03*
X020625Y010137D03*
X020625Y010109D03*
X020625Y010095D03*
X020625Y010081D03*
X020625Y010067D03*
X021073Y009549D03*
X021451Y009829D03*
X013793Y010361D03*
X013275Y010221D03*
X012365Y010165D03*
D53*
X012358Y010221D03*
X012820Y009549D03*
X013282Y010151D03*
X013282Y010235D03*
X014220Y010375D03*
X021080Y010767D03*
X021444Y009815D03*
X021444Y009801D03*
D54*
X021080Y009563D03*
D55*
X019134Y009773D03*
X015018Y009563D03*
X012904Y009843D03*
X012694Y009773D03*
X012694Y010053D03*
X012694Y010543D03*
D56*
X012442Y009703D03*
X014122Y009563D03*
D57*
X012820Y009563D03*
X012820Y010753D03*
X021486Y010333D03*
X021486Y009983D03*
D58*
X021073Y009577D03*
X015319Y010347D03*
D59*
X012820Y009577D03*
X021080Y010739D03*
D60*
X021073Y009591D03*
X015319Y009857D03*
X015319Y010319D03*
D61*
X012820Y010725D03*
X012820Y009591D03*
X020828Y009801D03*
X020828Y009815D03*
X021080Y010725D03*
D62*
X020793Y009969D03*
X020793Y009955D03*
X020793Y009941D03*
X021073Y009605D03*
D63*
X020800Y009927D03*
X021080Y010711D03*
X012820Y010711D03*
X012820Y009605D03*
D64*
X021080Y009619D03*
D65*
X020044Y009745D03*
X017384Y009619D03*
X015578Y009955D03*
X015144Y009899D03*
X014808Y009899D03*
X014808Y009885D03*
X014808Y009871D03*
X014808Y009857D03*
X014808Y009829D03*
X014808Y009815D03*
X014808Y009801D03*
X014808Y009787D03*
X014808Y009759D03*
X014808Y009927D03*
X014808Y009941D03*
X014808Y009955D03*
X014808Y009969D03*
X014808Y009997D03*
X014808Y010011D03*
X014808Y010025D03*
X014808Y010039D03*
X014808Y010067D03*
X014808Y010081D03*
X014808Y010095D03*
X014808Y010109D03*
X014808Y010137D03*
X014808Y010151D03*
X014808Y010165D03*
X014808Y010179D03*
X014808Y010207D03*
X014808Y010221D03*
X014808Y010235D03*
X014808Y010249D03*
X014808Y010277D03*
X014808Y010291D03*
X014808Y010305D03*
X014808Y010319D03*
X014808Y010347D03*
X014808Y010361D03*
X014808Y010375D03*
X014808Y010389D03*
X014808Y010417D03*
X014808Y010529D03*
X014808Y010655D03*
X014038Y009619D03*
X012694Y010445D03*
X012414Y009759D03*
D66*
X012428Y009731D03*
X012680Y009899D03*
X012736Y009731D03*
X012736Y009717D03*
X013170Y009689D03*
X013198Y009717D03*
X012932Y010165D03*
X012694Y010165D03*
X012694Y010627D03*
X012932Y010627D03*
X013170Y010627D03*
X013198Y010599D03*
X012428Y010599D03*
X012428Y010585D03*
X012414Y010571D03*
X014808Y010515D03*
X014808Y010669D03*
X016040Y010375D03*
X016334Y010375D03*
X016040Y009801D03*
X016446Y009619D03*
X017020Y010375D03*
X017328Y010375D03*
X017958Y010291D03*
X019190Y009899D03*
X019582Y010277D03*
X019582Y010291D03*
D67*
X012820Y009619D03*
D68*
X021080Y009633D03*
D69*
X019855Y010053D03*
X019855Y010123D03*
X019855Y010193D03*
X019855Y010263D03*
X019855Y010333D03*
X019855Y010403D03*
X019617Y010263D03*
X019617Y010193D03*
X019617Y010123D03*
X019617Y010053D03*
X019617Y009983D03*
X019617Y009913D03*
X019617Y009843D03*
X019617Y009773D03*
X019351Y010053D03*
X019533Y010263D03*
X018413Y010193D03*
X018399Y010123D03*
X018399Y010053D03*
X018441Y009913D03*
X018203Y009843D03*
X018175Y009913D03*
X018105Y010053D03*
X018077Y010123D03*
X018035Y010193D03*
X018007Y010263D03*
X017909Y010263D03*
X017867Y010193D03*
X017839Y010123D03*
X017811Y010053D03*
X017741Y009913D03*
X017713Y009843D03*
X017671Y009773D03*
X017461Y009913D03*
X017503Y010193D03*
X016719Y010193D03*
X016719Y010123D03*
X016719Y010053D03*
X016719Y009983D03*
X016719Y009913D03*
X016719Y009843D03*
X016719Y009773D03*
X016467Y009913D03*
X016495Y009983D03*
X016495Y010193D03*
X016467Y010263D03*
X016719Y010263D03*
X016719Y010333D03*
X016719Y010403D03*
X016173Y010543D03*
X015907Y010263D03*
X015879Y010193D03*
X015879Y009983D03*
X015907Y009913D03*
X015613Y009633D03*
X016453Y009633D03*
D70*
X015130Y010263D03*
X014038Y009633D03*
X013184Y009703D03*
X013184Y010613D03*
X012442Y010613D03*
D71*
X012820Y010683D03*
X012820Y009633D03*
X021080Y010683D03*
D72*
X021080Y009647D03*
D73*
X021087Y010669D03*
X012827Y009647D03*
D74*
X021073Y009661D03*
D75*
X021080Y010655D03*
X012820Y010655D03*
X012820Y009661D03*
D76*
X021080Y009675D03*
D77*
X021472Y009899D03*
X021472Y010389D03*
X018742Y010389D03*
X012792Y009675D03*
D78*
X012932Y009997D03*
X012932Y010389D03*
X012932Y010459D03*
X012456Y009689D03*
X012470Y009675D03*
X016012Y009815D03*
X016362Y009815D03*
X016362Y010361D03*
X016012Y010361D03*
X016992Y010361D03*
X016992Y009815D03*
X019176Y009871D03*
X019596Y010319D03*
X020170Y009801D03*
D79*
X021080Y009689D03*
D80*
X021080Y009703D03*
D81*
X015613Y010053D03*
X014073Y010053D03*
X014073Y009983D03*
X014073Y009913D03*
X014073Y009843D03*
X014073Y009773D03*
X012925Y009983D03*
X012729Y009703D03*
D82*
X021080Y009717D03*
D83*
X019589Y010305D03*
X019183Y009885D03*
X018539Y010347D03*
X017363Y010361D03*
X017363Y009815D03*
X017335Y009801D03*
X017013Y009801D03*
X014213Y010431D03*
X013793Y010431D03*
X012925Y010221D03*
X012463Y010627D03*
X012435Y009717D03*
D84*
X021080Y009731D03*
X021080Y010571D03*
D85*
X021080Y010557D03*
X021080Y009745D03*
D86*
X015326Y009745D03*
X014066Y010235D03*
X012386Y010487D03*
X012386Y009829D03*
D87*
X012421Y009745D03*
D88*
X014080Y010305D03*
X021080Y009759D03*
D89*
X021437Y009787D03*
X018777Y009759D03*
X012351Y010151D03*
X012351Y010235D03*
D90*
X012344Y010249D03*
X012344Y010137D03*
X012358Y009997D03*
X013268Y009997D03*
X013254Y010389D03*
X017174Y010417D03*
X017174Y009759D03*
X018784Y010417D03*
X020058Y009787D03*
D91*
X016194Y009759D03*
X013282Y010347D03*
X013240Y010459D03*
X012358Y010361D03*
X012344Y010319D03*
X012344Y010305D03*
X012344Y010291D03*
X012344Y010277D03*
X012344Y010039D03*
X012372Y009899D03*
D92*
X012442Y009801D03*
X013226Y010445D03*
X013282Y010249D03*
X013296Y010109D03*
X013296Y010095D03*
X013296Y010081D03*
X013282Y010025D03*
X013282Y010011D03*
X014066Y010277D03*
X012820Y010767D03*
X015326Y009759D03*
D93*
X013282Y010263D03*
X021430Y009773D03*
D94*
X020842Y009773D03*
D95*
X020051Y009773D03*
X012351Y010333D03*
D96*
X015319Y009773D03*
X018749Y009773D03*
D97*
X017174Y009773D03*
X017174Y010403D03*
X021458Y009843D03*
D98*
X020625Y010053D03*
X020625Y010123D03*
X016187Y010403D03*
X016187Y009773D03*
X015319Y010403D03*
D99*
X014808Y010403D03*
X014808Y010333D03*
X014808Y010263D03*
X014808Y010193D03*
X014808Y010123D03*
X014808Y010053D03*
X014808Y009983D03*
X014808Y009913D03*
X014808Y009843D03*
X014808Y009773D03*
X012694Y010403D03*
D100*
X012932Y010403D03*
X012400Y010543D03*
X013646Y010193D03*
X013646Y010123D03*
X013646Y010053D03*
X013646Y009983D03*
X013646Y009913D03*
X013646Y009843D03*
X013646Y009773D03*
X014066Y010123D03*
X014500Y010123D03*
X014500Y010053D03*
X014500Y009983D03*
X014500Y009913D03*
X014500Y009843D03*
X014500Y009773D03*
X014500Y010403D03*
X015606Y010123D03*
X015592Y009983D03*
D101*
X013282Y010333D03*
X012456Y009773D03*
D102*
X020835Y009787D03*
D103*
X021486Y009969D03*
X021486Y009997D03*
X021486Y010011D03*
X021486Y010291D03*
X021486Y010305D03*
X021486Y010319D03*
X018728Y010375D03*
X018728Y009787D03*
X017958Y009997D03*
X017174Y009787D03*
X017174Y010389D03*
D104*
X016187Y009787D03*
X021465Y009871D03*
X021465Y009885D03*
X021465Y010417D03*
X021465Y010431D03*
D105*
X021493Y010277D03*
X021493Y010249D03*
X021493Y010235D03*
X021493Y010221D03*
X021493Y010207D03*
X021493Y010179D03*
X021493Y010165D03*
X021493Y010151D03*
X021493Y010137D03*
X021493Y010109D03*
X021493Y010095D03*
X021493Y010081D03*
X021493Y010067D03*
X021493Y010039D03*
X021493Y010025D03*
X015319Y009787D03*
X015319Y010375D03*
D106*
X018721Y009801D03*
D107*
X017951Y010305D03*
X016341Y009801D03*
X012701Y010221D03*
D108*
X015319Y009801D03*
D109*
X015326Y009815D03*
D110*
X020821Y009829D03*
D111*
X018518Y009829D03*
X017958Y010319D03*
X017384Y010347D03*
X017384Y009829D03*
X016964Y009829D03*
X012694Y009997D03*
X012694Y010389D03*
X012694Y010459D03*
D112*
X015326Y009829D03*
D113*
X020821Y009843D03*
D114*
X015319Y009843D03*
X015319Y010333D03*
D115*
X015536Y010263D03*
X012386Y009843D03*
D116*
X013268Y010165D03*
X014220Y010361D03*
X021458Y009857D03*
D117*
X020814Y009857D03*
D118*
X020807Y009871D03*
X020807Y009885D03*
X020807Y009899D03*
D119*
X015319Y009871D03*
X015319Y010291D03*
X015319Y010305D03*
D120*
X014066Y010249D03*
X013702Y010291D03*
X012372Y009885D03*
X012372Y009871D03*
D121*
X021472Y009913D03*
X021472Y010403D03*
D122*
X020800Y009913D03*
D123*
X018518Y010333D03*
X015144Y009913D03*
X014808Y010683D03*
D124*
X012813Y009913D03*
D125*
X015319Y010389D03*
X021479Y010375D03*
X021479Y010361D03*
X021479Y010347D03*
X021479Y009955D03*
X021479Y009941D03*
X021479Y009927D03*
D126*
X012820Y009927D03*
D127*
X012813Y009941D03*
D128*
X012820Y009955D03*
X012820Y009969D03*
D129*
X020786Y009983D03*
D130*
X017951Y009983D03*
D131*
X013254Y009983D03*
X013240Y010403D03*
X012372Y009983D03*
D132*
X012701Y009983D03*
D133*
X020786Y009997D03*
X020786Y010011D03*
X020786Y010025D03*
X020786Y010039D03*
X020786Y010277D03*
X020786Y010291D03*
X020786Y010305D03*
X020786Y010319D03*
D134*
X017951Y010011D03*
D135*
X013261Y010375D03*
X012351Y010025D03*
X012351Y010011D03*
D136*
X013254Y010207D03*
X016194Y010389D03*
X017958Y010025D03*
D137*
X021087Y010753D03*
X021493Y010263D03*
X021493Y010193D03*
X021493Y010123D03*
X021493Y010053D03*
D138*
X013289Y010123D03*
X012393Y010403D03*
D139*
X012344Y010123D03*
D140*
X013289Y010137D03*
X013793Y010375D03*
D141*
X012813Y010697D03*
X020779Y010249D03*
X020779Y010235D03*
X020779Y010221D03*
X020779Y010207D03*
X020779Y010179D03*
X020779Y010165D03*
D142*
X012820Y010179D03*
D143*
X020779Y010193D03*
X020779Y010263D03*
D144*
X012820Y010193D03*
D145*
X012379Y010207D03*
X013793Y010347D03*
X014059Y010291D03*
D146*
X014059Y010263D03*
X013793Y010403D03*
D147*
X012351Y010263D03*
D148*
X014087Y010319D03*
D149*
X014304Y010333D03*
D150*
X013793Y010333D03*
D151*
X014311Y010347D03*
D152*
X012351Y010347D03*
D153*
X012820Y010739D03*
X015312Y010361D03*
D154*
X018756Y010403D03*
D155*
X014220Y010403D03*
X013240Y010473D03*
D156*
X012393Y010459D03*
X015319Y010417D03*
D157*
X012820Y010417D03*
X012820Y010431D03*
D158*
X021080Y010445D03*
X021080Y010459D03*
D159*
X021080Y010473D03*
D160*
X012393Y010473D03*
D161*
X021080Y010487D03*
D162*
X021080Y010501D03*
D163*
X021080Y010515D03*
X021080Y010529D03*
D164*
X021080Y010543D03*
D165*
X021087Y010585D03*
D166*
X021087Y010599D03*
D167*
X021087Y010613D03*
D168*
X021087Y010627D03*
D169*
X021080Y010641D03*
X012820Y010641D03*
D170*
X012813Y010669D03*
D171*
X021087Y010697D03*
D172*
X019321Y013183D02*
X017621Y013183D01*
X017604Y013185D01*
X017587Y013189D01*
X017571Y013196D01*
X017557Y013206D01*
X017544Y013219D01*
X017534Y013233D01*
X017527Y013249D01*
X017523Y013266D01*
X017521Y013283D01*
X017521Y013883D01*
X017523Y013900D01*
X017527Y013917D01*
X017534Y013933D01*
X017544Y013947D01*
X017557Y013960D01*
X017571Y013970D01*
X017587Y013977D01*
X017604Y013981D01*
X017621Y013983D01*
X019321Y013983D01*
X019338Y013981D01*
X019355Y013977D01*
X019371Y013970D01*
X019385Y013960D01*
X019398Y013947D01*
X019408Y013933D01*
X019415Y013917D01*
X019419Y013900D01*
X019421Y013883D01*
X019421Y013283D01*
X019419Y013266D01*
X019415Y013249D01*
X019408Y013233D01*
X019398Y013219D01*
X019385Y013206D01*
X019371Y013196D01*
X019355Y013189D01*
X019338Y013185D01*
X019321Y013183D01*
M02*
