%
M48
M72
T01C0.0120
T02C0.0551
T03C0.1260
%
T01
X21017Y12863
X20957Y14303
X20837Y13523
X14609Y13418
X15029Y14198
X15489Y14198
X15489Y13808
X15039Y13808
X15049Y13408
X15489Y13408
X14619Y13028
X15039Y13018
X15459Y13008
X15469Y12628
X15029Y12618
X14619Y12608
X14645Y13808
X14645Y14201
X17597Y15803
X21977Y17003
X21017Y15743
X21977Y14183
X20657Y11723
X21617Y11003
X19037Y8963
X17477Y8303
X13457Y8303
X9617Y8243
X7397Y14303
X7397Y14903
X7457Y18563
X14357Y17063
X16877Y15803
X18017Y14363
X15917Y10823
X17057Y10823
X16697Y10823
X16337Y10823
X16517Y10523
X16337Y10223
X15917Y10223
X16097Y10523
X15677Y10523
X13277Y17543
X13277Y12263
X10217Y13103
X10697Y13103
X10457Y12863
X12317Y14903
X12737Y14483
X12377Y14543
X8597Y12503
X9437Y14483
X12257Y13163
X12617Y13163
X12437Y12923
X10217Y11123
X10697Y11123
X10457Y10943
X8417Y16103
X19337Y16763
X16817Y16763
T02
X7437Y15489
X7437Y11489
T03
X18037Y17820
X8115Y8961
M30
