G75*
%MOIN*%
%OFA0B0*%
%FSLAX24Y24*%
%IPPOS*%
%LPD*%
%AMOC8*
5,1,8,0,0,1.08239X$1,22.5*
%
%ADD10C,0.0000*%
%ADD11R,0.0394X0.0138*%
%ADD12R,0.1181X0.1969*%
%ADD13C,0.0600*%
%ADD14R,0.0512X0.0591*%
%ADD15R,0.0591X0.0512*%
%ADD16R,0.0512X0.1299*%
%ADD17R,0.0787X0.0354*%
%ADD18R,0.0787X0.0512*%
%ADD19R,0.0787X0.0787*%
%ADD20C,0.0394*%
%ADD21C,0.0100*%
%ADD22C,0.0240*%
%ADD23C,0.0200*%
%ADD24C,0.0320*%
%ADD25C,0.0320*%
%ADD26C,0.0280*%
%ADD27C,0.0090*%
D10*
X004837Y005930D02*
X017337Y005930D01*
X016807Y006830D02*
X016809Y006880D01*
X016815Y006930D01*
X016825Y006979D01*
X016839Y007027D01*
X016856Y007074D01*
X016877Y007119D01*
X016902Y007163D01*
X016930Y007204D01*
X016962Y007243D01*
X016996Y007280D01*
X017033Y007314D01*
X017073Y007344D01*
X017115Y007371D01*
X017159Y007395D01*
X017205Y007416D01*
X017252Y007432D01*
X017300Y007445D01*
X017350Y007454D01*
X017399Y007459D01*
X017450Y007460D01*
X017500Y007457D01*
X017549Y007450D01*
X017598Y007439D01*
X017646Y007424D01*
X017692Y007406D01*
X017737Y007384D01*
X017780Y007358D01*
X017821Y007329D01*
X017860Y007297D01*
X017896Y007262D01*
X017928Y007224D01*
X017958Y007184D01*
X017985Y007141D01*
X018008Y007097D01*
X018027Y007051D01*
X018043Y007003D01*
X018055Y006954D01*
X018063Y006905D01*
X018067Y006855D01*
X018067Y006805D01*
X018063Y006755D01*
X018055Y006706D01*
X018043Y006657D01*
X018027Y006609D01*
X018008Y006563D01*
X017985Y006519D01*
X017958Y006476D01*
X017928Y006436D01*
X017896Y006398D01*
X017860Y006363D01*
X017821Y006331D01*
X017780Y006302D01*
X017737Y006276D01*
X017692Y006254D01*
X017646Y006236D01*
X017598Y006221D01*
X017549Y006210D01*
X017500Y006203D01*
X017450Y006200D01*
X017399Y006201D01*
X017350Y006206D01*
X017300Y006215D01*
X017252Y006228D01*
X017205Y006244D01*
X017159Y006265D01*
X017115Y006289D01*
X017073Y006316D01*
X017033Y006346D01*
X016996Y006380D01*
X016962Y006417D01*
X016930Y006456D01*
X016902Y006497D01*
X016877Y006541D01*
X016856Y006586D01*
X016839Y006633D01*
X016825Y006681D01*
X016815Y006730D01*
X016809Y006780D01*
X016807Y006830D01*
X017337Y005930D02*
X017397Y005932D01*
X017458Y005937D01*
X017517Y005946D01*
X017576Y005959D01*
X017635Y005975D01*
X017692Y005995D01*
X017747Y006018D01*
X017802Y006045D01*
X017854Y006074D01*
X017905Y006107D01*
X017954Y006143D01*
X018000Y006181D01*
X018044Y006223D01*
X018086Y006267D01*
X018124Y006313D01*
X018160Y006362D01*
X018193Y006413D01*
X018222Y006465D01*
X018249Y006520D01*
X018272Y006575D01*
X018292Y006632D01*
X018308Y006691D01*
X018321Y006750D01*
X018330Y006809D01*
X018335Y006870D01*
X018337Y006930D01*
X018337Y013430D01*
X018335Y013490D01*
X018330Y013551D01*
X018321Y013610D01*
X018308Y013669D01*
X018292Y013728D01*
X018272Y013785D01*
X018249Y013840D01*
X018222Y013895D01*
X018193Y013947D01*
X018160Y013998D01*
X018124Y014047D01*
X018086Y014093D01*
X018044Y014137D01*
X018000Y014179D01*
X017954Y014217D01*
X017905Y014253D01*
X017854Y014286D01*
X017802Y014315D01*
X017747Y014342D01*
X017692Y014365D01*
X017635Y014385D01*
X017576Y014401D01*
X017517Y014414D01*
X017458Y014423D01*
X017397Y014428D01*
X017337Y014430D01*
X004837Y014430D01*
X004107Y013530D02*
X004109Y013580D01*
X004115Y013630D01*
X004125Y013679D01*
X004139Y013727D01*
X004156Y013774D01*
X004177Y013819D01*
X004202Y013863D01*
X004230Y013904D01*
X004262Y013943D01*
X004296Y013980D01*
X004333Y014014D01*
X004373Y014044D01*
X004415Y014071D01*
X004459Y014095D01*
X004505Y014116D01*
X004552Y014132D01*
X004600Y014145D01*
X004650Y014154D01*
X004699Y014159D01*
X004750Y014160D01*
X004800Y014157D01*
X004849Y014150D01*
X004898Y014139D01*
X004946Y014124D01*
X004992Y014106D01*
X005037Y014084D01*
X005080Y014058D01*
X005121Y014029D01*
X005160Y013997D01*
X005196Y013962D01*
X005228Y013924D01*
X005258Y013884D01*
X005285Y013841D01*
X005308Y013797D01*
X005327Y013751D01*
X005343Y013703D01*
X005355Y013654D01*
X005363Y013605D01*
X005367Y013555D01*
X005367Y013505D01*
X005363Y013455D01*
X005355Y013406D01*
X005343Y013357D01*
X005327Y013309D01*
X005308Y013263D01*
X005285Y013219D01*
X005258Y013176D01*
X005228Y013136D01*
X005196Y013098D01*
X005160Y013063D01*
X005121Y013031D01*
X005080Y013002D01*
X005037Y012976D01*
X004992Y012954D01*
X004946Y012936D01*
X004898Y012921D01*
X004849Y012910D01*
X004800Y012903D01*
X004750Y012900D01*
X004699Y012901D01*
X004650Y012906D01*
X004600Y012915D01*
X004552Y012928D01*
X004505Y012944D01*
X004459Y012965D01*
X004415Y012989D01*
X004373Y013016D01*
X004333Y013046D01*
X004296Y013080D01*
X004262Y013117D01*
X004230Y013156D01*
X004202Y013197D01*
X004177Y013241D01*
X004156Y013286D01*
X004139Y013333D01*
X004125Y013381D01*
X004115Y013430D01*
X004109Y013480D01*
X004107Y013530D01*
X003837Y013430D02*
X003837Y006930D01*
X003839Y006870D01*
X003844Y006809D01*
X003853Y006750D01*
X003866Y006691D01*
X003882Y006632D01*
X003902Y006575D01*
X003925Y006520D01*
X003952Y006465D01*
X003981Y006413D01*
X004014Y006362D01*
X004050Y006313D01*
X004088Y006267D01*
X004130Y006223D01*
X004174Y006181D01*
X004220Y006143D01*
X004269Y006107D01*
X004320Y006074D01*
X004372Y006045D01*
X004427Y006018D01*
X004482Y005995D01*
X004539Y005975D01*
X004598Y005959D01*
X004657Y005946D01*
X004716Y005937D01*
X004777Y005932D01*
X004837Y005930D01*
X003837Y013430D02*
X003839Y013490D01*
X003844Y013551D01*
X003853Y013610D01*
X003866Y013669D01*
X003882Y013728D01*
X003902Y013785D01*
X003925Y013840D01*
X003952Y013895D01*
X003981Y013947D01*
X004014Y013998D01*
X004050Y014047D01*
X004088Y014093D01*
X004130Y014137D01*
X004174Y014179D01*
X004220Y014217D01*
X004269Y014253D01*
X004320Y014286D01*
X004372Y014315D01*
X004427Y014342D01*
X004482Y014365D01*
X004539Y014385D01*
X004598Y014401D01*
X004657Y014414D01*
X004716Y014423D01*
X004777Y014428D01*
X004837Y014430D01*
D11*
X009671Y012653D03*
X009671Y012397D03*
X009671Y012142D03*
X009671Y011886D03*
X009671Y011630D03*
X009671Y011374D03*
X009671Y011118D03*
X009671Y010862D03*
X009671Y010606D03*
X009671Y010350D03*
X009671Y010094D03*
X009671Y009838D03*
X009671Y009583D03*
X009671Y009327D03*
X012102Y009327D03*
X012102Y009583D03*
X012102Y009838D03*
X012102Y010094D03*
X012102Y010350D03*
X012102Y010606D03*
X012102Y010862D03*
X012102Y011118D03*
X012102Y011374D03*
X012102Y011630D03*
X012102Y011886D03*
X012102Y012142D03*
X012102Y012397D03*
X012102Y012653D03*
D12*
X010887Y010990D03*
D13*
X011007Y007190D02*
X011007Y006590D01*
X010007Y006590D02*
X010007Y007190D01*
X009007Y007190D02*
X009007Y006590D01*
X012007Y006590D02*
X012007Y007190D01*
X016837Y008330D02*
X017437Y008330D01*
X017437Y009330D02*
X016837Y009330D01*
X016837Y010330D02*
X017437Y010330D01*
X017437Y011330D02*
X016837Y011330D01*
X016837Y012330D02*
X017437Y012330D01*
X017437Y013330D02*
X016837Y013330D01*
D14*
X009661Y013670D03*
X008913Y013670D03*
X007071Y010890D03*
X006323Y010890D03*
X006323Y009920D03*
X007071Y009920D03*
X007379Y008452D03*
X008127Y008452D03*
X008127Y007522D03*
X007379Y007522D03*
D15*
X007127Y011856D03*
X007127Y012604D03*
X007127Y013246D03*
X007127Y013994D03*
X006257Y013994D03*
X006257Y013246D03*
X006257Y012604D03*
X006257Y011856D03*
D16*
X014387Y009300D03*
X014387Y006840D03*
D17*
X006363Y007440D03*
X006363Y008543D03*
D18*
X004630Y007991D03*
D19*
X005328Y009900D03*
X005328Y010976D03*
D20*
X004407Y012270D03*
X007117Y006470D03*
X017137Y014030D03*
D21*
X004257Y005930D02*
X003837Y005930D01*
X003837Y006349D01*
X004013Y006107D01*
X004013Y006107D01*
X004013Y006107D01*
X004257Y005930D01*
X004155Y006003D02*
X003837Y006003D01*
X003837Y006102D02*
X004020Y006102D01*
X003945Y006200D02*
X003837Y006200D01*
X003837Y006299D02*
X003874Y006299D01*
X004114Y006496D02*
X006770Y006496D01*
X006770Y006539D02*
X006770Y006401D01*
X006823Y006274D01*
X006920Y006176D01*
X007048Y006123D01*
X007186Y006123D01*
X007313Y006176D01*
X007411Y006274D01*
X007463Y006401D01*
X007463Y006539D01*
X007411Y006666D01*
X007313Y006764D01*
X007186Y006817D01*
X007048Y006817D01*
X006920Y006764D01*
X006823Y006666D01*
X006770Y006539D01*
X006793Y006594D02*
X004063Y006594D01*
X004079Y006544D02*
X003997Y006797D01*
X003987Y006930D01*
X003987Y013303D01*
X004075Y013088D01*
X004295Y012869D01*
X004582Y012750D01*
X004892Y012750D01*
X005178Y012869D01*
X005257Y012947D01*
X005257Y012702D01*
X005237Y012654D01*
X005237Y012546D01*
X005278Y012447D01*
X005354Y012371D01*
X005453Y012330D01*
X005560Y012330D01*
X005609Y012350D01*
X005811Y012350D01*
X005811Y012286D01*
X005867Y012230D01*
X005841Y012204D01*
X005822Y012170D01*
X005811Y012132D01*
X005811Y011906D01*
X006207Y011906D01*
X006207Y011806D01*
X006307Y011806D01*
X006307Y011450D01*
X006572Y011450D01*
X006610Y011460D01*
X006644Y011480D01*
X006672Y011508D01*
X006686Y011533D01*
X006769Y011450D01*
X007427Y011450D01*
X007387Y011354D01*
X007387Y011335D01*
X006753Y011335D01*
X006697Y011279D01*
X006671Y011305D01*
X006636Y011325D01*
X006598Y011335D01*
X006373Y011335D01*
X006373Y010940D01*
X006273Y010940D01*
X006273Y011335D01*
X006047Y011335D01*
X006009Y011325D01*
X005975Y011305D01*
X005947Y011277D01*
X005927Y011243D01*
X005917Y011205D01*
X005917Y010940D01*
X006273Y010940D01*
X006273Y010840D01*
X006373Y010840D01*
X006373Y010445D01*
X006598Y010445D01*
X006636Y010455D01*
X006671Y010475D01*
X006697Y010501D01*
X006753Y010445D01*
X007389Y010445D01*
X007477Y010533D01*
X007477Y010690D01*
X007768Y010690D01*
X007798Y010617D01*
X007874Y010541D01*
X007973Y010500D01*
X008080Y010500D01*
X008180Y010541D01*
X008245Y010606D01*
X008278Y010527D01*
X008354Y010451D01*
X008411Y010427D01*
X008104Y010120D01*
X007477Y010120D01*
X007477Y010277D01*
X007389Y010365D01*
X006753Y010365D01*
X006697Y010309D01*
X006671Y010335D01*
X006636Y010355D01*
X006598Y010365D01*
X006373Y010365D01*
X006373Y009970D01*
X006273Y009970D01*
X006273Y010365D01*
X006047Y010365D01*
X006009Y010355D01*
X005975Y010335D01*
X005947Y010307D01*
X005927Y010273D01*
X005917Y010235D01*
X005917Y009970D01*
X006273Y009970D01*
X006273Y009870D01*
X005917Y009870D01*
X005917Y009610D01*
X005883Y009610D01*
X005871Y009605D01*
X005871Y009850D01*
X005378Y009850D01*
X005378Y009950D01*
X005871Y009950D01*
X005871Y010313D01*
X005861Y010352D01*
X005841Y010386D01*
X005814Y010414D01*
X005782Y010432D01*
X005784Y010432D01*
X005871Y010520D01*
X005871Y011432D01*
X005784Y011520D01*
X004872Y011520D01*
X004784Y011432D01*
X004784Y010715D01*
X004537Y010468D01*
X004537Y009147D01*
X004654Y009030D01*
X004954Y008730D01*
X005086Y008730D01*
X004753Y008397D01*
X004175Y008397D01*
X004087Y008310D01*
X004087Y007673D01*
X004175Y007586D01*
X005086Y007586D01*
X005174Y007673D01*
X005174Y008252D01*
X005652Y008730D01*
X005819Y008730D01*
X005819Y008303D01*
X005907Y008216D01*
X006371Y008216D01*
X006404Y008202D01*
X006973Y008202D01*
X006973Y008094D01*
X007061Y008007D01*
X007697Y008007D01*
X007753Y008063D01*
X007809Y008007D01*
X007877Y008007D01*
X007877Y007967D01*
X007809Y007967D01*
X007753Y007911D01*
X007727Y007937D01*
X007693Y007957D01*
X007655Y007967D01*
X007429Y007967D01*
X007429Y007572D01*
X007329Y007572D01*
X007329Y007967D01*
X007103Y007967D01*
X007065Y007957D01*
X007031Y007937D01*
X007003Y007909D01*
X006983Y007875D01*
X006973Y007837D01*
X006973Y007572D01*
X007329Y007572D01*
X007329Y007472D01*
X006973Y007472D01*
X006973Y007207D01*
X006983Y007169D01*
X007003Y007134D01*
X007031Y007107D01*
X007065Y007087D01*
X007103Y007077D01*
X007329Y007077D01*
X007329Y007472D01*
X007429Y007472D01*
X007429Y007077D01*
X007655Y007077D01*
X007693Y007087D01*
X007798Y007087D01*
X007809Y007077D02*
X008445Y007077D01*
X008533Y007164D01*
X008533Y007879D01*
X008445Y007967D01*
X008377Y007967D01*
X008377Y008007D01*
X008445Y008007D01*
X008533Y008094D01*
X008533Y008252D01*
X012121Y008252D01*
X012469Y008600D01*
X012587Y008717D01*
X012587Y009125D01*
X012449Y009263D01*
X012449Y010406D01*
X014097Y010406D01*
X014067Y010332D01*
X014067Y010208D01*
X014077Y010184D01*
X014077Y010100D01*
X014069Y010100D01*
X013981Y010012D01*
X013981Y008589D01*
X014069Y008501D01*
X014705Y008501D01*
X014793Y008589D01*
X014793Y010012D01*
X014705Y010100D01*
X014697Y010100D01*
X014697Y010332D01*
X014666Y010406D01*
X014948Y010406D01*
X016107Y009247D01*
X016107Y009077D01*
X016224Y008960D01*
X016527Y008657D01*
X016455Y008585D01*
X016387Y008420D01*
X016387Y008240D01*
X016455Y008075D01*
X016582Y007949D01*
X016747Y007880D01*
X017526Y007880D01*
X017692Y007949D01*
X017818Y008075D01*
X017887Y008240D01*
X017887Y008420D01*
X017818Y008585D01*
X017692Y008711D01*
X017526Y008780D01*
X016969Y008780D01*
X016869Y008880D01*
X017526Y008880D01*
X017692Y008949D01*
X017818Y009075D01*
X017887Y009240D01*
X017887Y009420D01*
X017818Y009585D01*
X017692Y009711D01*
X017526Y009780D01*
X016747Y009780D01*
X016629Y009731D01*
X016229Y010130D01*
X016432Y010130D01*
X016455Y010075D01*
X016582Y009949D01*
X016747Y009880D01*
X017526Y009880D01*
X017692Y009949D01*
X017818Y010075D01*
X017887Y010240D01*
X017887Y010420D01*
X017818Y010585D01*
X017692Y010711D01*
X017526Y010780D01*
X016747Y010780D01*
X016582Y010711D01*
X016455Y010585D01*
X016432Y010530D01*
X016219Y010530D01*
X015547Y011203D01*
X015429Y011320D01*
X012449Y011320D01*
X012449Y011430D01*
X014519Y011430D01*
X014637Y011547D01*
X015397Y012307D01*
X015397Y012978D01*
X015426Y013007D01*
X015467Y013106D01*
X015467Y013214D01*
X015426Y013313D01*
X015350Y013389D01*
X015250Y013430D01*
X015143Y013430D01*
X015044Y013389D01*
X014968Y013313D01*
X014927Y013214D01*
X014927Y013106D01*
X014968Y013007D01*
X014997Y012978D01*
X014997Y012473D01*
X014354Y011830D01*
X012729Y011830D01*
X012819Y011920D01*
X013789Y011920D01*
X013907Y012037D01*
X014187Y012317D01*
X014187Y013008D01*
X014216Y013037D01*
X014257Y013136D01*
X014257Y013244D01*
X014216Y013343D01*
X014140Y013419D01*
X014040Y013460D01*
X013933Y013460D01*
X013834Y013419D01*
X013758Y013343D01*
X013717Y013244D01*
X013717Y013136D01*
X013758Y013037D01*
X013787Y013008D01*
X013787Y012483D01*
X013624Y012320D01*
X012822Y012320D01*
X012862Y012359D01*
X012862Y012873D01*
X012896Y012907D01*
X012937Y013006D01*
X012937Y013114D01*
X012896Y013213D01*
X012820Y013289D01*
X012720Y013330D01*
X012613Y013330D01*
X012514Y013289D01*
X012438Y013213D01*
X012397Y013114D01*
X012397Y013006D01*
X012438Y012907D01*
X012472Y012873D01*
X012472Y012521D01*
X012449Y012498D01*
X012449Y012529D01*
X012441Y012536D01*
X012449Y012565D01*
X012449Y012653D01*
X012102Y012653D01*
X011755Y012653D01*
X011755Y012565D01*
X011763Y012536D01*
X011755Y012529D01*
X011755Y009196D01*
X011843Y009108D01*
X012038Y009108D01*
X012187Y008959D01*
X012187Y008883D01*
X011956Y008652D01*
X008533Y008652D01*
X008533Y008743D01*
X008637Y008847D01*
X009324Y009535D01*
X009324Y009451D01*
X009332Y009444D01*
X009324Y009415D01*
X009324Y009327D01*
X009671Y009327D01*
X009671Y009327D01*
X010018Y009327D01*
X010018Y009415D01*
X010010Y009444D01*
X010018Y009451D01*
X010018Y012784D01*
X009930Y012872D01*
X009861Y012872D01*
X009861Y013225D01*
X009979Y013225D01*
X010067Y013313D01*
X010067Y014027D01*
X009979Y014115D01*
X009343Y014115D01*
X009287Y014059D01*
X009231Y014115D01*
X008595Y014115D01*
X008507Y014027D01*
X008507Y013313D01*
X008595Y013225D01*
X008713Y013225D01*
X008713Y012804D01*
X007572Y012804D01*
X007572Y012922D01*
X007569Y012925D01*
X007572Y012928D01*
X007572Y013564D01*
X007516Y013620D01*
X007572Y013676D01*
X007572Y014280D01*
X016896Y014280D01*
X016843Y014226D01*
X016790Y014099D01*
X016790Y013961D01*
X016843Y013834D01*
X016896Y013780D01*
X016747Y013780D01*
X016582Y013711D01*
X016455Y013585D01*
X016387Y013420D01*
X016387Y013240D01*
X016455Y013075D01*
X016582Y012949D01*
X016747Y012880D01*
X017526Y012880D01*
X017692Y012949D01*
X017818Y013075D01*
X017887Y013240D01*
X017887Y013420D01*
X017818Y013585D01*
X017692Y013711D01*
X017526Y013780D01*
X017377Y013780D01*
X017431Y013834D01*
X017483Y013961D01*
X017483Y014099D01*
X017431Y014226D01*
X017381Y014277D01*
X017470Y014270D01*
X017723Y014187D01*
X017938Y014031D01*
X018094Y013816D01*
X018176Y013563D01*
X018187Y013430D01*
X018187Y007057D01*
X018098Y007272D01*
X017878Y007491D01*
X017592Y007610D01*
X017282Y007610D01*
X016995Y007491D01*
X016775Y007272D01*
X016657Y006985D01*
X016657Y006675D01*
X016775Y006388D01*
X016995Y006169D01*
X017209Y006080D01*
X014745Y006080D01*
X014763Y006098D01*
X014782Y006132D01*
X014793Y006170D01*
X014793Y006790D01*
X014437Y006790D01*
X014437Y006890D01*
X014337Y006890D01*
X014337Y007639D01*
X014111Y007639D01*
X014073Y007629D01*
X014039Y007609D01*
X014011Y007581D01*
X013991Y007547D01*
X013981Y007509D01*
X013981Y006890D01*
X012457Y006890D01*
X012457Y006988D02*
X013981Y006988D01*
X013981Y006890D02*
X014337Y006890D01*
X014437Y006890D01*
X014793Y006890D01*
X016657Y006890D01*
X016658Y006988D02*
X014793Y006988D01*
X014793Y006890D02*
X014793Y007509D01*
X014782Y007547D01*
X014763Y007581D01*
X014735Y007609D01*
X014700Y007629D01*
X014662Y007639D01*
X014437Y007639D01*
X014437Y006890D01*
X014437Y006988D02*
X014337Y006988D01*
X014337Y006890D02*
X014337Y006790D01*
X013981Y006790D01*
X013981Y006170D01*
X013991Y006132D01*
X014011Y006098D01*
X014029Y006080D01*
X004837Y006080D01*
X004704Y006090D01*
X004451Y006173D01*
X004236Y006329D01*
X004079Y006544D01*
X004031Y006693D02*
X006849Y006693D01*
X006986Y006791D02*
X003999Y006791D01*
X003990Y006890D02*
X008557Y006890D01*
X008557Y006988D02*
X003987Y006988D01*
X003987Y007087D02*
X007065Y007087D01*
X006979Y007185D02*
X006885Y007185D01*
X006876Y007171D02*
X006896Y007205D01*
X006906Y007243D01*
X006906Y007402D01*
X006401Y007402D01*
X006401Y007113D01*
X006776Y007113D01*
X006814Y007123D01*
X006849Y007143D01*
X006876Y007171D01*
X006906Y007284D02*
X006973Y007284D01*
X006973Y007382D02*
X006906Y007382D01*
X006906Y007479D02*
X006906Y007637D01*
X006896Y007675D01*
X006876Y007710D01*
X006849Y007738D01*
X006814Y007757D01*
X006776Y007767D01*
X006401Y007767D01*
X006401Y007479D01*
X006324Y007479D01*
X006324Y007402D01*
X005819Y007402D01*
X005819Y007243D01*
X005829Y007205D01*
X005849Y007171D01*
X005877Y007143D01*
X005911Y007123D01*
X005949Y007113D01*
X006324Y007113D01*
X006324Y007402D01*
X006401Y007402D01*
X006401Y007479D01*
X006906Y007479D01*
X006906Y007481D02*
X007329Y007481D01*
X007329Y007579D02*
X007429Y007579D01*
X007429Y007678D02*
X007329Y007678D01*
X007329Y007776D02*
X007429Y007776D01*
X007429Y007875D02*
X007329Y007875D01*
X006983Y007875D02*
X005174Y007875D01*
X005174Y007973D02*
X007877Y007973D01*
X008377Y007973D02*
X016557Y007973D01*
X016458Y008072D02*
X008510Y008072D01*
X008533Y008170D02*
X016416Y008170D01*
X016387Y008269D02*
X012138Y008269D01*
X012237Y008367D02*
X016387Y008367D01*
X016406Y008466D02*
X012335Y008466D01*
X012434Y008564D02*
X014005Y008564D01*
X013981Y008663D02*
X012532Y008663D01*
X012587Y008761D02*
X013981Y008761D01*
X013981Y008860D02*
X012587Y008860D01*
X012587Y008958D02*
X013981Y008958D01*
X013981Y009057D02*
X012587Y009057D01*
X012556Y009155D02*
X013981Y009155D01*
X013981Y009254D02*
X012458Y009254D01*
X012449Y009352D02*
X013981Y009352D01*
X013981Y009451D02*
X012449Y009451D01*
X012449Y009549D02*
X013981Y009549D01*
X013981Y009648D02*
X012449Y009648D01*
X012449Y009746D02*
X013981Y009746D01*
X013981Y009845D02*
X012449Y009845D01*
X012449Y009943D02*
X013981Y009943D01*
X014011Y010042D02*
X012449Y010042D01*
X012449Y010140D02*
X014077Y010140D01*
X014067Y010239D02*
X012449Y010239D01*
X012449Y010337D02*
X014069Y010337D01*
X014694Y010337D02*
X015016Y010337D01*
X015115Y010239D02*
X014697Y010239D01*
X014697Y010140D02*
X015213Y010140D01*
X015312Y010042D02*
X014763Y010042D01*
X014793Y009943D02*
X015410Y009943D01*
X015509Y009845D02*
X014793Y009845D01*
X014793Y009746D02*
X015607Y009746D01*
X015706Y009648D02*
X014793Y009648D01*
X014793Y009549D02*
X015804Y009549D01*
X015903Y009451D02*
X014793Y009451D01*
X014793Y009352D02*
X016001Y009352D01*
X016100Y009254D02*
X014793Y009254D01*
X014793Y009155D02*
X016107Y009155D01*
X016127Y009057D02*
X014793Y009057D01*
X014793Y008958D02*
X016225Y008958D01*
X016324Y008860D02*
X014793Y008860D01*
X014793Y008761D02*
X016422Y008761D01*
X016521Y008663D02*
X014793Y008663D01*
X014768Y008564D02*
X016447Y008564D01*
X016889Y008860D02*
X018187Y008860D01*
X018187Y008958D02*
X017702Y008958D01*
X017800Y009057D02*
X018187Y009057D01*
X018187Y009155D02*
X017851Y009155D01*
X017887Y009254D02*
X018187Y009254D01*
X018187Y009352D02*
X017887Y009352D01*
X017874Y009451D02*
X018187Y009451D01*
X018187Y009549D02*
X017833Y009549D01*
X017755Y009648D02*
X018187Y009648D01*
X018187Y009746D02*
X017607Y009746D01*
X017679Y009943D02*
X018187Y009943D01*
X018187Y009845D02*
X016514Y009845D01*
X016594Y009943D02*
X016416Y009943D01*
X016488Y010042D02*
X016317Y010042D01*
X016137Y010330D02*
X015347Y011120D01*
X012104Y011120D01*
X012102Y011118D01*
X012102Y010862D02*
X012104Y010860D01*
X015217Y010860D01*
X016747Y009330D01*
X017137Y009330D01*
X016666Y009746D02*
X016613Y009746D01*
X016307Y009330D02*
X015030Y010606D01*
X012102Y010606D01*
X011755Y010633D02*
X011627Y010633D01*
X011627Y010731D02*
X011755Y010731D01*
X011755Y010830D02*
X011627Y010830D01*
X011627Y010929D02*
X011755Y010929D01*
X011755Y011027D02*
X010937Y011027D01*
X010937Y011040D02*
X011627Y011040D01*
X011627Y011994D01*
X011617Y012032D01*
X011597Y012066D01*
X011569Y012094D01*
X011535Y012114D01*
X011497Y012124D01*
X010937Y012124D01*
X010937Y011040D01*
X010937Y010940D01*
X011627Y010940D01*
X011627Y009986D01*
X011617Y009948D01*
X011597Y009914D01*
X011569Y009886D01*
X011535Y009866D01*
X011497Y009856D01*
X010937Y009856D01*
X010937Y010940D01*
X010837Y010940D01*
X010837Y009856D01*
X010276Y009856D01*
X010238Y009866D01*
X010204Y009886D01*
X010176Y009914D01*
X010156Y009948D01*
X010146Y009986D01*
X010146Y010940D01*
X010837Y010940D01*
X010837Y011040D01*
X010837Y012124D01*
X010276Y012124D01*
X010238Y012114D01*
X010204Y012094D01*
X010176Y012066D01*
X010156Y012032D01*
X010146Y011994D01*
X010146Y011040D01*
X010837Y011040D01*
X010937Y011040D01*
X010937Y011126D02*
X010837Y011126D01*
X010837Y011224D02*
X010937Y011224D01*
X010937Y011323D02*
X010837Y011323D01*
X010837Y011421D02*
X010937Y011421D01*
X010937Y011520D02*
X010837Y011520D01*
X010837Y011618D02*
X010937Y011618D01*
X010937Y011717D02*
X010837Y011717D01*
X010837Y011815D02*
X010937Y011815D01*
X010937Y011914D02*
X010837Y011914D01*
X010837Y012012D02*
X010937Y012012D01*
X010937Y012111D02*
X010837Y012111D01*
X010232Y012111D02*
X010018Y012111D01*
X010018Y012209D02*
X011755Y012209D01*
X011755Y012111D02*
X011541Y012111D01*
X011622Y012012D02*
X011755Y012012D01*
X011755Y011914D02*
X011627Y011914D01*
X011627Y011815D02*
X011755Y011815D01*
X011755Y011717D02*
X011627Y011717D01*
X011627Y011618D02*
X011755Y011618D01*
X011755Y011520D02*
X011627Y011520D01*
X011627Y011421D02*
X011755Y011421D01*
X011755Y011323D02*
X011627Y011323D01*
X011627Y011224D02*
X011755Y011224D01*
X011755Y011126D02*
X011627Y011126D01*
X011627Y010534D02*
X011755Y010534D01*
X011755Y010436D02*
X011627Y010436D01*
X011627Y010337D02*
X011755Y010337D01*
X011755Y010239D02*
X011627Y010239D01*
X011627Y010140D02*
X011755Y010140D01*
X011755Y010042D02*
X011627Y010042D01*
X011614Y009943D02*
X011755Y009943D01*
X011755Y009845D02*
X010018Y009845D01*
X010018Y009943D02*
X010159Y009943D01*
X010146Y010042D02*
X010018Y010042D01*
X010018Y010140D02*
X010146Y010140D01*
X010146Y010239D02*
X010018Y010239D01*
X010018Y010337D02*
X010146Y010337D01*
X010146Y010436D02*
X010018Y010436D01*
X010018Y010534D02*
X010146Y010534D01*
X010146Y010633D02*
X010018Y010633D01*
X010018Y010731D02*
X010146Y010731D01*
X010146Y010830D02*
X010018Y010830D01*
X010018Y010929D02*
X010146Y010929D01*
X010018Y011027D02*
X010837Y011027D01*
X010837Y010929D02*
X010937Y010929D01*
X010937Y010830D02*
X010837Y010830D01*
X010837Y010731D02*
X010937Y010731D01*
X010937Y010633D02*
X010837Y010633D01*
X010837Y010534D02*
X010937Y010534D01*
X010937Y010436D02*
X010837Y010436D01*
X010837Y010337D02*
X010937Y010337D01*
X010937Y010239D02*
X010837Y010239D01*
X010837Y010140D02*
X010937Y010140D01*
X010937Y010042D02*
X010837Y010042D01*
X010837Y009943D02*
X010937Y009943D01*
X011755Y009746D02*
X010018Y009746D01*
X010018Y009648D02*
X011755Y009648D01*
X011755Y009549D02*
X010018Y009549D01*
X010017Y009451D02*
X011755Y009451D01*
X011755Y009352D02*
X010018Y009352D01*
X010018Y009327D02*
X009671Y009327D01*
X009671Y009327D01*
X009324Y009327D01*
X009324Y009238D01*
X009334Y009200D01*
X009354Y009166D01*
X009382Y009138D01*
X009416Y009118D01*
X009454Y009108D01*
X009671Y009108D01*
X009671Y009327D01*
X009671Y009327D01*
X009671Y009108D01*
X009888Y009108D01*
X009926Y009118D01*
X009960Y009138D01*
X009988Y009166D01*
X010008Y009200D01*
X010018Y009238D01*
X010018Y009327D01*
X010018Y009254D02*
X011755Y009254D01*
X011795Y009155D02*
X009978Y009155D01*
X009671Y009155D02*
X009671Y009155D01*
X009671Y009254D02*
X009671Y009254D01*
X009364Y009155D02*
X008945Y009155D01*
X008846Y009057D02*
X012089Y009057D01*
X012187Y008958D02*
X008748Y008958D01*
X008649Y008860D02*
X012164Y008860D01*
X012065Y008761D02*
X008551Y008761D01*
X008533Y008663D02*
X011967Y008663D01*
X012038Y008452D02*
X012387Y008800D01*
X012387Y009042D01*
X012102Y009327D01*
X012038Y008452D02*
X008127Y008452D01*
X008437Y008930D02*
X005569Y008930D01*
X005037Y008930D01*
X004737Y009230D01*
X004737Y010385D01*
X005328Y010976D01*
X004784Y010929D02*
X003987Y010929D01*
X003987Y011027D02*
X004784Y011027D01*
X004784Y011126D02*
X003987Y011126D01*
X003987Y011224D02*
X004784Y011224D01*
X004784Y011323D02*
X003987Y011323D01*
X003987Y011421D02*
X004784Y011421D01*
X004872Y011520D02*
X003987Y011520D01*
X003987Y011618D02*
X005811Y011618D01*
X005811Y011580D02*
X005822Y011542D01*
X005841Y011508D01*
X005869Y011480D01*
X005903Y011460D01*
X005942Y011450D01*
X006207Y011450D01*
X006207Y011806D01*
X005811Y011806D01*
X005811Y011580D01*
X005835Y011520D02*
X005784Y011520D01*
X005871Y011421D02*
X007415Y011421D01*
X007572Y011557D02*
X007572Y011686D01*
X007759Y011686D01*
X007644Y011570D01*
X007603Y011570D01*
X007572Y011557D01*
X007572Y011618D02*
X007692Y011618D01*
X007986Y011630D02*
X007657Y011300D01*
X007477Y011098D02*
X007477Y011090D01*
X007485Y011090D01*
X007477Y011098D01*
X007737Y010890D02*
X008217Y011370D01*
X009667Y011370D01*
X009671Y011374D01*
X009671Y011630D02*
X007986Y011630D01*
X008151Y012086D02*
X007572Y012086D01*
X007572Y012174D01*
X007516Y012230D01*
X007572Y012286D01*
X007572Y012404D01*
X008132Y012404D01*
X008097Y012318D01*
X008097Y012202D01*
X008141Y012096D01*
X008151Y012086D01*
X008135Y012111D02*
X007572Y012111D01*
X007537Y012209D02*
X008097Y012209D01*
X008097Y012308D02*
X007572Y012308D01*
X007127Y012604D02*
X008713Y012604D01*
X009177Y012140D01*
X009670Y012140D01*
X009671Y012142D01*
X009671Y012397D02*
X009669Y012400D01*
X009297Y012400D01*
X008913Y012784D01*
X008913Y013670D01*
X008507Y013687D02*
X007572Y013687D01*
X007572Y013785D02*
X008507Y013785D01*
X008507Y013884D02*
X007572Y013884D01*
X007572Y013982D02*
X008507Y013982D01*
X008560Y014081D02*
X007572Y014081D01*
X007572Y014179D02*
X016823Y014179D01*
X016790Y014081D02*
X010013Y014081D01*
X010067Y013982D02*
X016790Y013982D01*
X016822Y013884D02*
X010067Y013884D01*
X010067Y013785D02*
X016891Y013785D01*
X016557Y013687D02*
X010067Y013687D01*
X010067Y013588D02*
X016458Y013588D01*
X016416Y013490D02*
X010067Y013490D01*
X010067Y013391D02*
X013806Y013391D01*
X013737Y013293D02*
X012811Y013293D01*
X012903Y013194D02*
X013717Y013194D01*
X013734Y013096D02*
X012937Y013096D01*
X012933Y012997D02*
X013787Y012997D01*
X013787Y012899D02*
X012887Y012899D01*
X012862Y012800D02*
X013787Y012800D01*
X013787Y012702D02*
X012862Y012702D01*
X012862Y012603D02*
X013787Y012603D01*
X013787Y012505D02*
X012862Y012505D01*
X012862Y012406D02*
X013710Y012406D01*
X013987Y012400D02*
X013707Y012120D01*
X012737Y012120D01*
X012507Y011890D01*
X012107Y011890D01*
X012102Y011886D01*
X012102Y011630D02*
X014437Y011630D01*
X015197Y012390D01*
X015197Y013160D01*
X015434Y013293D02*
X016387Y013293D01*
X016387Y013391D02*
X015344Y013391D01*
X015467Y013194D02*
X016406Y013194D01*
X016447Y013096D02*
X015462Y013096D01*
X015415Y012997D02*
X016533Y012997D01*
X016702Y012899D02*
X015397Y012899D01*
X015397Y012800D02*
X018187Y012800D01*
X018187Y012702D02*
X017691Y012702D01*
X017672Y012715D02*
X017609Y012747D01*
X017542Y012769D01*
X017472Y012780D01*
X017187Y012780D01*
X017187Y012380D01*
X017884Y012380D01*
X017876Y012435D01*
X017854Y012503D01*
X017822Y012566D01*
X017780Y012623D01*
X017730Y012673D01*
X017672Y012715D01*
X017795Y012603D02*
X018187Y012603D01*
X018187Y012505D02*
X017853Y012505D01*
X017880Y012406D02*
X018187Y012406D01*
X018187Y012308D02*
X017187Y012308D01*
X017187Y012280D02*
X017187Y012380D01*
X017087Y012380D01*
X017087Y012780D01*
X016801Y012780D01*
X016731Y012769D01*
X016664Y012747D01*
X016601Y012715D01*
X016543Y012673D01*
X016493Y012623D01*
X016452Y012566D01*
X016420Y012503D01*
X016398Y012435D01*
X016389Y012380D01*
X017087Y012380D01*
X017087Y012280D01*
X017187Y012280D01*
X017884Y012280D01*
X017876Y012225D01*
X017854Y012157D01*
X017822Y012094D01*
X017780Y012037D01*
X017730Y011987D01*
X017672Y011945D01*
X017609Y011913D01*
X017542Y011891D01*
X017472Y011880D01*
X017187Y011880D01*
X017187Y012280D01*
X017187Y012209D02*
X017087Y012209D01*
X017087Y012280D02*
X017087Y011880D01*
X016801Y011880D01*
X016731Y011891D01*
X016664Y011913D01*
X016601Y011945D01*
X016543Y011987D01*
X016493Y012037D01*
X016452Y012094D01*
X016420Y012157D01*
X016398Y012225D01*
X016389Y012280D01*
X017087Y012280D01*
X017087Y012308D02*
X015397Y012308D01*
X015397Y012406D02*
X016393Y012406D01*
X016421Y012505D02*
X015397Y012505D01*
X015397Y012603D02*
X016479Y012603D01*
X016582Y012702D02*
X015397Y012702D01*
X014997Y012702D02*
X014187Y012702D01*
X014187Y012800D02*
X014997Y012800D01*
X014997Y012899D02*
X014187Y012899D01*
X014187Y012997D02*
X014978Y012997D01*
X014931Y013096D02*
X014240Y013096D01*
X014257Y013194D02*
X014927Y013194D01*
X014959Y013293D02*
X014236Y013293D01*
X014167Y013391D02*
X015049Y013391D01*
X014997Y012603D02*
X014187Y012603D01*
X014187Y012505D02*
X014997Y012505D01*
X014930Y012406D02*
X014187Y012406D01*
X014177Y012308D02*
X014831Y012308D01*
X014733Y012209D02*
X014078Y012209D01*
X013980Y012111D02*
X014634Y012111D01*
X014536Y012012D02*
X013881Y012012D01*
X013987Y012400D02*
X013987Y013190D01*
X015101Y012012D02*
X016518Y012012D01*
X016443Y012111D02*
X015200Y012111D01*
X015298Y012209D02*
X016403Y012209D01*
X016663Y011914D02*
X015003Y011914D01*
X014904Y011815D02*
X018187Y011815D01*
X018187Y011717D02*
X017679Y011717D01*
X017692Y011711D02*
X017526Y011780D01*
X016747Y011780D01*
X016582Y011711D01*
X016455Y011585D01*
X016387Y011420D01*
X016387Y011240D01*
X016455Y011075D01*
X016582Y010949D01*
X016747Y010880D01*
X017526Y010880D01*
X017692Y010949D01*
X017818Y011075D01*
X017887Y011240D01*
X017887Y011420D01*
X017818Y011585D01*
X017692Y011711D01*
X017785Y011618D02*
X018187Y011618D01*
X018187Y011520D02*
X017845Y011520D01*
X017886Y011421D02*
X018187Y011421D01*
X018187Y011323D02*
X017887Y011323D01*
X017880Y011224D02*
X018187Y011224D01*
X018187Y011126D02*
X017839Y011126D01*
X017770Y011027D02*
X018187Y011027D01*
X018187Y010929D02*
X017643Y010929D01*
X017643Y010731D02*
X018187Y010731D01*
X018187Y010633D02*
X017770Y010633D01*
X017839Y010534D02*
X018187Y010534D01*
X018187Y010436D02*
X017880Y010436D01*
X017887Y010337D02*
X018187Y010337D01*
X018187Y010239D02*
X017886Y010239D01*
X017845Y010140D02*
X018187Y010140D01*
X018187Y010042D02*
X017785Y010042D01*
X017137Y010330D02*
X016137Y010330D01*
X016215Y010534D02*
X016434Y010534D01*
X016503Y010633D02*
X016116Y010633D01*
X016018Y010731D02*
X016630Y010731D01*
X016630Y010929D02*
X015821Y010929D01*
X015722Y011027D02*
X016503Y011027D01*
X016434Y011126D02*
X015624Y011126D01*
X015525Y011224D02*
X016393Y011224D01*
X016387Y011323D02*
X012449Y011323D01*
X012449Y011421D02*
X016387Y011421D01*
X016428Y011520D02*
X014609Y011520D01*
X014707Y011618D02*
X016488Y011618D01*
X016594Y011717D02*
X014806Y011717D01*
X014437Y011914D02*
X012813Y011914D01*
X012455Y012505D02*
X012449Y012505D01*
X012449Y012603D02*
X012472Y012603D01*
X012449Y012653D02*
X012449Y012742D01*
X012439Y012780D01*
X012419Y012814D01*
X012391Y012842D01*
X012357Y012862D01*
X012319Y012872D01*
X012102Y012872D01*
X011886Y012872D01*
X011847Y012862D01*
X011813Y012842D01*
X011785Y012814D01*
X011766Y012780D01*
X011755Y012742D01*
X011755Y012653D01*
X012102Y012653D01*
X012102Y012653D01*
X012102Y012653D01*
X012102Y012872D01*
X012102Y012653D01*
X012102Y012653D01*
X012449Y012653D01*
X012449Y012702D02*
X012472Y012702D01*
X012472Y012800D02*
X012427Y012800D01*
X012446Y012899D02*
X009861Y012899D01*
X009861Y012997D02*
X012400Y012997D01*
X012397Y013096D02*
X009861Y013096D01*
X009861Y013194D02*
X012430Y013194D01*
X012522Y013293D02*
X010046Y013293D01*
X009661Y013670D02*
X009661Y012664D01*
X009671Y012653D01*
X009461Y012872D02*
X009412Y012872D01*
X009324Y012784D01*
X009324Y012655D01*
X009113Y012867D01*
X009113Y013225D01*
X009231Y013225D01*
X009287Y013281D01*
X009343Y013225D01*
X009461Y013225D01*
X009461Y012872D01*
X009461Y012899D02*
X009113Y012899D01*
X009113Y012997D02*
X009461Y012997D01*
X009461Y013096D02*
X009113Y013096D01*
X009113Y013194D02*
X009461Y013194D01*
X009340Y012800D02*
X009179Y012800D01*
X009278Y012702D02*
X009324Y012702D01*
X008713Y012899D02*
X007572Y012899D01*
X007572Y012997D02*
X008713Y012997D01*
X008713Y013096D02*
X007572Y013096D01*
X007572Y013194D02*
X008713Y013194D01*
X008527Y013293D02*
X007572Y013293D01*
X007572Y013391D02*
X008507Y013391D01*
X008507Y013490D02*
X007572Y013490D01*
X007548Y013588D02*
X008507Y013588D01*
X009265Y014081D02*
X009308Y014081D01*
X010002Y012800D02*
X011777Y012800D01*
X011755Y012702D02*
X010018Y012702D01*
X010018Y012603D02*
X011755Y012603D01*
X011755Y012505D02*
X010018Y012505D01*
X010018Y012406D02*
X011755Y012406D01*
X011755Y012308D02*
X010018Y012308D01*
X010018Y012012D02*
X010151Y012012D01*
X010146Y011914D02*
X010018Y011914D01*
X010018Y011815D02*
X010146Y011815D01*
X010146Y011717D02*
X010018Y011717D01*
X010018Y011618D02*
X010146Y011618D01*
X010146Y011520D02*
X010018Y011520D01*
X010018Y011421D02*
X010146Y011421D01*
X010146Y011323D02*
X010018Y011323D01*
X010018Y011224D02*
X010146Y011224D01*
X010146Y011126D02*
X010018Y011126D01*
X009671Y011118D02*
X008375Y011118D01*
X008027Y010770D01*
X007791Y010633D02*
X007477Y010633D01*
X007477Y010534D02*
X007890Y010534D01*
X008164Y010534D02*
X008275Y010534D01*
X008390Y010436D02*
X005787Y010436D01*
X005865Y010337D02*
X005978Y010337D01*
X005918Y010239D02*
X005871Y010239D01*
X005871Y010140D02*
X005917Y010140D01*
X005917Y010042D02*
X005871Y010042D01*
X005871Y009845D02*
X005917Y009845D01*
X005917Y009746D02*
X005871Y009746D01*
X005871Y009648D02*
X005917Y009648D01*
X006273Y009943D02*
X005378Y009943D01*
X005378Y009850D02*
X005378Y009356D01*
X005667Y009356D01*
X005667Y009286D01*
X005708Y009187D01*
X005765Y009130D01*
X005119Y009130D01*
X004937Y009313D01*
X004937Y009356D01*
X005278Y009356D01*
X005278Y009850D01*
X005378Y009850D01*
X005378Y009845D02*
X005278Y009845D01*
X005278Y009746D02*
X005378Y009746D01*
X005378Y009648D02*
X005278Y009648D01*
X005278Y009549D02*
X005378Y009549D01*
X005378Y009451D02*
X005278Y009451D01*
X004995Y009254D02*
X005680Y009254D01*
X005667Y009352D02*
X004937Y009352D01*
X005094Y009155D02*
X005739Y009155D01*
X005937Y009340D02*
X008517Y009340D01*
X009271Y010094D01*
X009671Y010094D01*
X009671Y009838D02*
X009345Y009838D01*
X008437Y008930D01*
X008354Y009130D02*
X006108Y009130D01*
X006118Y009140D01*
X008364Y009140D01*
X008354Y009130D01*
X008434Y009540D02*
X007454Y009540D01*
X007477Y009563D01*
X007477Y009720D01*
X008269Y009720D01*
X008797Y010247D01*
X008797Y010246D01*
X008838Y010147D01*
X008914Y010071D01*
X008950Y010056D01*
X008434Y009540D01*
X008443Y009549D02*
X007463Y009549D01*
X007477Y009648D02*
X008542Y009648D01*
X008640Y009746D02*
X008296Y009746D01*
X008394Y009845D02*
X008739Y009845D01*
X008837Y009943D02*
X008493Y009943D01*
X008591Y010042D02*
X008936Y010042D01*
X008844Y010140D02*
X008690Y010140D01*
X008788Y010239D02*
X008800Y010239D01*
X009067Y010300D02*
X009117Y010350D01*
X009671Y010350D01*
X009671Y010606D02*
X009667Y010610D01*
X008877Y010610D01*
X008187Y009920D01*
X007071Y009920D01*
X007477Y010140D02*
X008124Y010140D01*
X008223Y010239D02*
X007477Y010239D01*
X007416Y010337D02*
X008321Y010337D01*
X008507Y010680D02*
X008689Y010862D01*
X009671Y010862D01*
X009671Y009838D02*
X009671Y009583D01*
X009325Y009451D02*
X009240Y009451D01*
X009324Y009352D02*
X009142Y009352D01*
X009043Y009254D02*
X009324Y009254D01*
X008533Y007875D02*
X018187Y007875D01*
X018187Y007973D02*
X017717Y007973D01*
X017815Y008072D02*
X018187Y008072D01*
X018187Y008170D02*
X017858Y008170D01*
X017887Y008269D02*
X018187Y008269D01*
X018187Y008367D02*
X017887Y008367D01*
X017867Y008466D02*
X018187Y008466D01*
X018187Y008564D02*
X017827Y008564D01*
X017740Y008663D02*
X018187Y008663D01*
X018187Y008761D02*
X017571Y008761D01*
X017137Y008330D02*
X016307Y009160D01*
X016307Y009330D01*
X015919Y010830D02*
X018187Y010830D01*
X018187Y011914D02*
X017610Y011914D01*
X017755Y012012D02*
X018187Y012012D01*
X018187Y012111D02*
X017830Y012111D01*
X017870Y012209D02*
X018187Y012209D01*
X018187Y012899D02*
X017571Y012899D01*
X017740Y012997D02*
X018187Y012997D01*
X018187Y013096D02*
X017827Y013096D01*
X017867Y013194D02*
X018187Y013194D01*
X018187Y013293D02*
X017887Y013293D01*
X017887Y013391D02*
X018187Y013391D01*
X018182Y013490D02*
X017858Y013490D01*
X017815Y013588D02*
X018168Y013588D01*
X018136Y013687D02*
X017717Y013687D01*
X017451Y013884D02*
X018045Y013884D01*
X018104Y013785D02*
X017382Y013785D01*
X017483Y013982D02*
X017973Y013982D01*
X017870Y014081D02*
X017483Y014081D01*
X017450Y014179D02*
X017734Y014179D01*
X017877Y014459D02*
X018377Y014460D01*
X018374Y013958D01*
X018374Y013959D01*
X018160Y014253D01*
X018160Y014253D01*
X017877Y014459D01*
X017991Y014376D02*
X018376Y014376D01*
X018376Y014278D02*
X018127Y014278D01*
X018214Y014179D02*
X018375Y014179D01*
X018375Y014081D02*
X018285Y014081D01*
X018357Y013982D02*
X018374Y013982D01*
X016894Y014278D02*
X007572Y014278D01*
X007127Y013994D02*
X007041Y013994D01*
X006637Y013590D01*
X006601Y013590D01*
X006257Y013246D01*
X006379Y013246D01*
X005867Y013620D02*
X005811Y013564D01*
X005811Y013496D01*
X005623Y013496D01*
X005531Y013458D01*
X005517Y013443D01*
X005517Y013685D01*
X005398Y013972D01*
X005178Y014191D01*
X004964Y014280D01*
X005814Y014280D01*
X005811Y014270D01*
X005811Y014044D01*
X006207Y014044D01*
X006207Y013944D01*
X005811Y013944D01*
X005811Y013718D01*
X005822Y013680D01*
X005841Y013646D01*
X005867Y013620D01*
X005835Y013588D02*
X005517Y013588D01*
X005517Y013490D02*
X005607Y013490D01*
X005516Y013687D02*
X005820Y013687D01*
X005811Y013785D02*
X005475Y013785D01*
X005434Y013884D02*
X005811Y013884D01*
X005811Y014081D02*
X005289Y014081D01*
X005191Y014179D02*
X005811Y014179D01*
X005813Y014278D02*
X004970Y014278D01*
X005388Y013982D02*
X006207Y013982D01*
X005811Y012996D02*
X005776Y012996D01*
X005757Y012976D01*
X005757Y012850D01*
X005811Y012850D01*
X005811Y012922D01*
X005814Y012925D01*
X005811Y012928D01*
X005811Y012996D01*
X005811Y012899D02*
X005757Y012899D01*
X005257Y012899D02*
X005208Y012899D01*
X005257Y012800D02*
X005012Y012800D01*
X005256Y012702D02*
X003987Y012702D01*
X003987Y012800D02*
X004461Y012800D01*
X004476Y012617D02*
X004338Y012617D01*
X004210Y012564D01*
X004113Y012466D01*
X004060Y012339D01*
X004060Y012201D01*
X004113Y012074D01*
X004210Y011976D01*
X004338Y011923D01*
X004476Y011923D01*
X004603Y011976D01*
X004701Y012074D01*
X004753Y012201D01*
X004753Y012339D01*
X004701Y012466D01*
X004603Y012564D01*
X004476Y012617D01*
X004509Y012603D02*
X005237Y012603D01*
X005254Y012505D02*
X004663Y012505D01*
X004726Y012406D02*
X005319Y012406D01*
X005811Y012308D02*
X004753Y012308D01*
X004753Y012209D02*
X005846Y012209D01*
X005811Y012111D02*
X004716Y012111D01*
X004639Y012012D02*
X005811Y012012D01*
X005811Y011914D02*
X003987Y011914D01*
X003987Y012012D02*
X004174Y012012D01*
X004097Y012111D02*
X003987Y012111D01*
X003987Y012209D02*
X004060Y012209D01*
X004060Y012308D02*
X003987Y012308D01*
X003987Y012406D02*
X004088Y012406D01*
X004151Y012505D02*
X003987Y012505D01*
X003987Y012603D02*
X004304Y012603D01*
X004265Y012899D02*
X003987Y012899D01*
X003987Y012997D02*
X004167Y012997D01*
X004072Y013096D02*
X003987Y013096D01*
X003987Y013194D02*
X004032Y013194D01*
X003991Y013293D02*
X003987Y013293D01*
X003846Y014023D02*
X003847Y014430D01*
X004258Y014431D01*
X004013Y014253D01*
X003846Y014023D01*
X003846Y014081D02*
X003888Y014081D01*
X003846Y014179D02*
X003959Y014179D01*
X004013Y014253D02*
X004013Y014253D01*
X004013Y014253D01*
X004047Y014278D02*
X003846Y014278D01*
X003847Y014376D02*
X004182Y014376D01*
X006253Y012600D02*
X006257Y012604D01*
X006313Y012604D01*
X006707Y012210D01*
X006773Y012210D01*
X007127Y011856D01*
X007156Y011886D01*
X008761Y011886D01*
X008847Y011886D01*
X009671Y011886D01*
X008948Y012086D02*
X008649Y012385D01*
X008677Y012318D01*
X008677Y012253D01*
X008844Y012086D01*
X008948Y012086D01*
X008923Y012111D02*
X008819Y012111D01*
X008825Y012209D02*
X008720Y012209D01*
X008726Y012308D02*
X008677Y012308D01*
X008387Y012260D02*
X008761Y011886D01*
X007737Y010890D02*
X007071Y010890D01*
X006740Y011323D02*
X006641Y011323D01*
X006679Y011520D02*
X006700Y011520D01*
X006373Y011323D02*
X006273Y011323D01*
X006273Y011224D02*
X006373Y011224D01*
X006373Y011126D02*
X006273Y011126D01*
X006273Y011027D02*
X006373Y011027D01*
X006273Y010929D02*
X005871Y010929D01*
X005871Y011027D02*
X005917Y011027D01*
X005917Y011126D02*
X005871Y011126D01*
X005871Y011224D02*
X005922Y011224D01*
X005871Y011323D02*
X006004Y011323D01*
X006207Y011520D02*
X006307Y011520D01*
X006307Y011618D02*
X006207Y011618D01*
X006207Y011717D02*
X006307Y011717D01*
X006207Y011815D02*
X003987Y011815D01*
X003987Y011717D02*
X005811Y011717D01*
X005917Y010840D02*
X005917Y010575D01*
X005927Y010537D01*
X005947Y010503D01*
X005975Y010475D01*
X006009Y010455D01*
X006047Y010445D01*
X006273Y010445D01*
X006273Y010840D01*
X005917Y010840D01*
X005917Y010830D02*
X005871Y010830D01*
X005871Y010731D02*
X005917Y010731D01*
X005917Y010633D02*
X005871Y010633D01*
X005871Y010534D02*
X005928Y010534D01*
X006273Y010534D02*
X006373Y010534D01*
X006373Y010633D02*
X006273Y010633D01*
X006273Y010731D02*
X006373Y010731D01*
X006373Y010830D02*
X006273Y010830D01*
X006273Y010337D02*
X006373Y010337D01*
X006373Y010239D02*
X006273Y010239D01*
X006273Y010140D02*
X006373Y010140D01*
X006373Y010042D02*
X006273Y010042D01*
X006667Y010337D02*
X006725Y010337D01*
X005569Y008930D02*
X004630Y007991D01*
X005174Y008072D02*
X006995Y008072D01*
X006973Y008170D02*
X005174Y008170D01*
X005191Y008269D02*
X005853Y008269D01*
X005819Y008367D02*
X005289Y008367D01*
X005388Y008466D02*
X005819Y008466D01*
X005819Y008564D02*
X005486Y008564D01*
X005585Y008663D02*
X005819Y008663D01*
X006363Y008543D02*
X006454Y008452D01*
X006906Y008702D02*
X006906Y008730D01*
X006973Y008730D01*
X006973Y008702D01*
X006906Y008702D01*
X006973Y007776D02*
X005174Y007776D01*
X005174Y007678D02*
X005831Y007678D01*
X005829Y007675D02*
X005819Y007637D01*
X005819Y007479D01*
X006324Y007479D01*
X006324Y007767D01*
X005949Y007767D01*
X005911Y007757D01*
X005877Y007738D01*
X005849Y007710D01*
X005829Y007675D01*
X005819Y007579D02*
X003987Y007579D01*
X003987Y007481D02*
X005819Y007481D01*
X005819Y007382D02*
X003987Y007382D01*
X003987Y007284D02*
X005819Y007284D01*
X005841Y007185D02*
X003987Y007185D01*
X003987Y007678D02*
X004087Y007678D01*
X004087Y007776D02*
X003987Y007776D01*
X003987Y007875D02*
X004087Y007875D01*
X004087Y007973D02*
X003987Y007973D01*
X003987Y008072D02*
X004087Y008072D01*
X004087Y008170D02*
X003987Y008170D01*
X003987Y008269D02*
X004087Y008269D01*
X004145Y008367D02*
X003987Y008367D01*
X003987Y008466D02*
X004822Y008466D01*
X004921Y008564D02*
X003987Y008564D01*
X003987Y008663D02*
X005019Y008663D01*
X004922Y008761D02*
X003987Y008761D01*
X003987Y008860D02*
X004824Y008860D01*
X004725Y008958D02*
X003987Y008958D01*
X003987Y009057D02*
X004627Y009057D01*
X004654Y009030D02*
X004654Y009030D01*
X004537Y009155D02*
X003987Y009155D01*
X003987Y009254D02*
X004537Y009254D01*
X004537Y009352D02*
X003987Y009352D01*
X003987Y009451D02*
X004537Y009451D01*
X004537Y009549D02*
X003987Y009549D01*
X003987Y009648D02*
X004537Y009648D01*
X004537Y009746D02*
X003987Y009746D01*
X003987Y009845D02*
X004537Y009845D01*
X004537Y009943D02*
X003987Y009943D01*
X003987Y010042D02*
X004537Y010042D01*
X004537Y010140D02*
X003987Y010140D01*
X003987Y010239D02*
X004537Y010239D01*
X004537Y010337D02*
X003987Y010337D01*
X003987Y010436D02*
X004537Y010436D01*
X004603Y010534D02*
X003987Y010534D01*
X003987Y010633D02*
X004702Y010633D01*
X004784Y010731D02*
X003987Y010731D01*
X003987Y010830D02*
X004784Y010830D01*
X007005Y011856D02*
X007127Y011856D01*
X008533Y007776D02*
X018187Y007776D01*
X018187Y007678D02*
X008533Y007678D01*
X008533Y007579D02*
X008771Y007579D01*
X008752Y007571D02*
X008625Y007445D01*
X008557Y007280D01*
X008557Y006500D01*
X008625Y006335D01*
X008752Y006209D01*
X008917Y006140D01*
X009096Y006140D01*
X009262Y006209D01*
X009388Y006335D01*
X009457Y006500D01*
X009457Y007280D01*
X009388Y007445D01*
X009262Y007571D01*
X009096Y007640D01*
X008917Y007640D01*
X008752Y007571D01*
X008661Y007481D02*
X008533Y007481D01*
X008533Y007382D02*
X008599Y007382D01*
X008558Y007284D02*
X008533Y007284D01*
X008533Y007185D02*
X008557Y007185D01*
X008557Y007087D02*
X008455Y007087D01*
X008557Y006791D02*
X007247Y006791D01*
X007384Y006693D02*
X008557Y006693D01*
X008557Y006594D02*
X007441Y006594D01*
X007463Y006496D02*
X008559Y006496D01*
X008599Y006397D02*
X007462Y006397D01*
X007421Y006299D02*
X008661Y006299D01*
X008771Y006200D02*
X007338Y006200D01*
X006896Y006200D02*
X004412Y006200D01*
X004277Y006299D02*
X006812Y006299D01*
X006771Y006397D02*
X004186Y006397D01*
X004668Y006102D02*
X014008Y006102D01*
X013981Y006200D02*
X012242Y006200D01*
X012262Y006209D02*
X012388Y006335D01*
X012457Y006500D01*
X012457Y007280D01*
X012388Y007445D01*
X012262Y007571D01*
X012096Y007640D01*
X011917Y007640D01*
X011752Y007571D01*
X011625Y007445D01*
X011557Y007280D01*
X011557Y006500D01*
X011625Y006335D01*
X011752Y006209D01*
X011917Y006140D01*
X012096Y006140D01*
X012262Y006209D01*
X012352Y006299D02*
X013981Y006299D01*
X013981Y006397D02*
X012414Y006397D01*
X012455Y006496D02*
X013981Y006496D01*
X013981Y006594D02*
X012457Y006594D01*
X012457Y006693D02*
X013981Y006693D01*
X014337Y006791D02*
X012457Y006791D01*
X012457Y007087D02*
X013981Y007087D01*
X013981Y007185D02*
X012457Y007185D01*
X012455Y007284D02*
X013981Y007284D01*
X013981Y007382D02*
X012414Y007382D01*
X012352Y007481D02*
X013981Y007481D01*
X014010Y007579D02*
X012242Y007579D01*
X011771Y007579D02*
X011242Y007579D01*
X011262Y007571D02*
X011096Y007640D01*
X010917Y007640D01*
X010752Y007571D01*
X010625Y007445D01*
X010557Y007280D01*
X010557Y006500D01*
X010625Y006335D01*
X010752Y006209D01*
X010917Y006140D01*
X011096Y006140D01*
X011262Y006209D01*
X011388Y006335D01*
X011457Y006500D01*
X011457Y007280D01*
X011388Y007445D01*
X011262Y007571D01*
X011352Y007481D02*
X011661Y007481D01*
X011599Y007382D02*
X011414Y007382D01*
X011455Y007284D02*
X011558Y007284D01*
X011557Y007185D02*
X011457Y007185D01*
X011457Y007087D02*
X011557Y007087D01*
X011557Y006988D02*
X011457Y006988D01*
X011457Y006890D02*
X011557Y006890D01*
X011557Y006791D02*
X011457Y006791D01*
X011457Y006693D02*
X011557Y006693D01*
X011557Y006594D02*
X011457Y006594D01*
X011455Y006496D02*
X011559Y006496D01*
X011599Y006397D02*
X011414Y006397D01*
X011352Y006299D02*
X011661Y006299D01*
X011771Y006200D02*
X011242Y006200D01*
X010771Y006200D02*
X010242Y006200D01*
X010262Y006209D02*
X010388Y006335D01*
X010457Y006500D01*
X010457Y007280D01*
X010388Y007445D01*
X010262Y007571D01*
X010096Y007640D01*
X009917Y007640D01*
X009752Y007571D01*
X009625Y007445D01*
X009557Y007280D01*
X009557Y006500D01*
X009625Y006335D01*
X009752Y006209D01*
X009917Y006140D01*
X010096Y006140D01*
X010262Y006209D01*
X010352Y006299D02*
X010661Y006299D01*
X010599Y006397D02*
X010414Y006397D01*
X010455Y006496D02*
X010559Y006496D01*
X010557Y006594D02*
X010457Y006594D01*
X010457Y006693D02*
X010557Y006693D01*
X010557Y006791D02*
X010457Y006791D01*
X010457Y006890D02*
X010557Y006890D01*
X010557Y006988D02*
X010457Y006988D01*
X010457Y007087D02*
X010557Y007087D01*
X010557Y007185D02*
X010457Y007185D01*
X010455Y007284D02*
X010558Y007284D01*
X010599Y007382D02*
X010414Y007382D01*
X010352Y007481D02*
X010661Y007481D01*
X010771Y007579D02*
X010242Y007579D01*
X009771Y007579D02*
X009242Y007579D01*
X009352Y007481D02*
X009661Y007481D01*
X009599Y007382D02*
X009414Y007382D01*
X009455Y007284D02*
X009558Y007284D01*
X009557Y007185D02*
X009457Y007185D01*
X009457Y007087D02*
X009557Y007087D01*
X009557Y006988D02*
X009457Y006988D01*
X009457Y006890D02*
X009557Y006890D01*
X009557Y006791D02*
X009457Y006791D01*
X009457Y006693D02*
X009557Y006693D01*
X009557Y006594D02*
X009457Y006594D01*
X009455Y006496D02*
X009559Y006496D01*
X009599Y006397D02*
X009414Y006397D01*
X009352Y006299D02*
X009661Y006299D01*
X009771Y006200D02*
X009242Y006200D01*
X007809Y007077D02*
X007753Y007133D01*
X007727Y007107D01*
X007693Y007087D01*
X007429Y007087D02*
X007329Y007087D01*
X007329Y007185D02*
X007429Y007185D01*
X007429Y007284D02*
X007329Y007284D01*
X007329Y007382D02*
X007429Y007382D01*
X006973Y007579D02*
X006906Y007579D01*
X006895Y007678D02*
X006973Y007678D01*
X006401Y007678D02*
X006324Y007678D01*
X006324Y007579D02*
X006401Y007579D01*
X006401Y007481D02*
X006324Y007481D01*
X006324Y007382D02*
X006401Y007382D01*
X006401Y007284D02*
X006324Y007284D01*
X006324Y007185D02*
X006401Y007185D01*
X012102Y011630D02*
X012102Y011630D01*
X012102Y012702D02*
X012102Y012702D01*
X012102Y012800D02*
X012102Y012800D01*
X017087Y012702D02*
X017187Y012702D01*
X017187Y012603D02*
X017087Y012603D01*
X017087Y012505D02*
X017187Y012505D01*
X017187Y012406D02*
X017087Y012406D01*
X017087Y012111D02*
X017187Y012111D01*
X017187Y012012D02*
X017087Y012012D01*
X017087Y011914D02*
X017187Y011914D01*
X017208Y007579D02*
X014764Y007579D01*
X014793Y007481D02*
X016985Y007481D01*
X016886Y007382D02*
X014793Y007382D01*
X014793Y007284D02*
X016788Y007284D01*
X016740Y007185D02*
X014793Y007185D01*
X014793Y007087D02*
X016699Y007087D01*
X016657Y006791D02*
X014437Y006791D01*
X014437Y007087D02*
X014337Y007087D01*
X014337Y007185D02*
X014437Y007185D01*
X014437Y007284D02*
X014337Y007284D01*
X014337Y007382D02*
X014437Y007382D01*
X014437Y007481D02*
X014337Y007481D01*
X014337Y007579D02*
X014437Y007579D01*
X014793Y006693D02*
X016657Y006693D01*
X016690Y006594D02*
X014793Y006594D01*
X014793Y006496D02*
X016731Y006496D01*
X016772Y006397D02*
X014793Y006397D01*
X014793Y006299D02*
X016865Y006299D01*
X016963Y006200D02*
X014793Y006200D01*
X014765Y006102D02*
X017156Y006102D01*
X017917Y005930D02*
X018160Y006107D01*
X018339Y006353D01*
X018337Y005930D01*
X017917Y005930D01*
X018018Y006003D02*
X018337Y006003D01*
X018337Y006102D02*
X018153Y006102D01*
X018160Y006107D02*
X018160Y006107D01*
X018160Y006107D01*
X018228Y006200D02*
X018338Y006200D01*
X018338Y006299D02*
X018300Y006299D01*
X018187Y007087D02*
X018174Y007087D01*
X018187Y007185D02*
X018134Y007185D01*
X018086Y007284D02*
X018187Y007284D01*
X018187Y007382D02*
X017987Y007382D01*
X017889Y007481D02*
X018187Y007481D01*
X018187Y007579D02*
X017665Y007579D01*
D22*
X016467Y007590D03*
X016217Y006840D03*
X015417Y007510D03*
X015407Y008620D03*
X013687Y010170D03*
X012687Y010170D03*
X011307Y010250D03*
X011297Y010630D03*
X011327Y011030D03*
X011327Y011430D03*
X011327Y011820D03*
X010867Y011820D03*
X010877Y011430D03*
X010887Y011030D03*
X010877Y010640D03*
X010867Y010240D03*
X010457Y010230D03*
X010457Y010650D03*
X010447Y011040D03*
X010447Y011430D03*
X010447Y011820D03*
X009067Y010300D03*
X008507Y010680D03*
X008027Y010770D03*
X007657Y011300D03*
X008197Y013170D03*
X010317Y013960D03*
X011027Y013840D03*
X011657Y013990D03*
X012227Y013590D03*
X012667Y013060D03*
X013987Y013190D03*
X014167Y012000D03*
X015197Y013160D03*
X015757Y011970D03*
X013477Y008590D03*
X013457Y007440D03*
X012117Y008030D03*
X011467Y008840D03*
X008107Y006500D03*
X006237Y006480D03*
X005537Y006470D03*
X004787Y006490D03*
X004367Y007190D03*
X004367Y008940D03*
X004267Y010120D03*
X004317Y011270D03*
X004877Y011900D03*
X005507Y012600D03*
X005647Y014000D03*
X005937Y009340D03*
D23*
X006454Y008452D02*
X007379Y008452D01*
X008127Y008452D02*
X008127Y007522D01*
X007127Y012604D02*
X007127Y013246D01*
X006257Y013246D02*
X005673Y013246D01*
X005507Y013080D01*
X005507Y012600D01*
X006253Y012600D01*
D24*
X014377Y010270D03*
D25*
X014387Y010270D01*
X014387Y009300D01*
X014377Y009310D01*
D26*
X008387Y012260D03*
D27*
X012102Y012142D02*
X012104Y012140D01*
X012367Y012140D01*
X012667Y012440D01*
X012667Y013060D01*
M02*
