G75*
%MOIN*%
%OFA0B0*%
%FSLAX24Y24*%
%IPPOS*%
%LPD*%
%AMOC8*
5,1,8,0,0,1.08239X$1,22.5*
%
%ADD10C,0.0000*%
%ADD11C,0.0059*%
%ADD12C,0.0030*%
%ADD13R,0.0730X0.0008*%
%ADD14R,0.0722X0.0008*%
%ADD15R,0.0788X0.0008*%
%ADD16R,0.0738X0.0008*%
%ADD17R,0.0158X0.0008*%
%ADD18R,0.0158X0.0008*%
%ADD19R,0.0813X0.0008*%
%ADD20R,0.0780X0.0008*%
%ADD21R,0.0821X0.0008*%
%ADD22R,0.0838X0.0008*%
%ADD23R,0.0805X0.0008*%
%ADD24R,0.0158X0.0008*%
%ADD25R,0.0158X0.0008*%
%ADD26R,0.0854X0.0008*%
%ADD27R,0.0829X0.0008*%
%ADD28R,0.0158X0.0008*%
%ADD29R,0.0158X0.0008*%
%ADD30R,0.0854X0.0008*%
%ADD31R,0.0863X0.0008*%
%ADD32R,0.0846X0.0008*%
%ADD33R,0.0871X0.0008*%
%ADD34R,0.0879X0.0008*%
%ADD35R,0.0854X0.0008*%
%ADD36R,0.0887X0.0008*%
%ADD37R,0.0887X0.0008*%
%ADD38R,0.0871X0.0008*%
%ADD39R,0.0896X0.0008*%
%ADD40R,0.0904X0.0008*%
%ADD41R,0.0879X0.0008*%
%ADD42R,0.0904X0.0008*%
%ADD43R,0.0912X0.0008*%
%ADD44R,0.0896X0.0008*%
%ADD45R,0.0921X0.0008*%
%ADD46R,0.0921X0.0008*%
%ADD47R,0.0904X0.0008*%
%ADD48R,0.0921X0.0008*%
%ADD49R,0.0929X0.0008*%
%ADD50R,0.0929X0.0008*%
%ADD51R,0.0937X0.0008*%
%ADD52R,0.0937X0.0008*%
%ADD53R,0.0921X0.0008*%
%ADD54R,0.0946X0.0008*%
%ADD55R,0.0946X0.0008*%
%ADD56R,0.0929X0.0008*%
%ADD57R,0.0954X0.0008*%
%ADD58R,0.0954X0.0008*%
%ADD59R,0.0954X0.0008*%
%ADD60R,0.0962X0.0008*%
%ADD61R,0.0962X0.0008*%
%ADD62R,0.0970X0.0008*%
%ADD63R,0.0970X0.0008*%
%ADD64R,0.0979X0.0008*%
%ADD65R,0.0979X0.0008*%
%ADD66R,0.0979X0.0008*%
%ADD67R,0.0241X0.0008*%
%ADD68R,0.0232X0.0008*%
%ADD69R,0.0224X0.0008*%
%ADD70R,0.0241X0.0008*%
%ADD71R,0.0216X0.0008*%
%ADD72R,0.0207X0.0008*%
%ADD73R,0.0216X0.0008*%
%ADD74R,0.0199X0.0008*%
%ADD75R,0.0199X0.0008*%
%ADD76R,0.0158X0.0008*%
%ADD77R,0.0191X0.0008*%
%ADD78R,0.0199X0.0008*%
%ADD79R,0.0158X0.0008*%
%ADD80R,0.0199X0.0008*%
%ADD81R,0.0191X0.0008*%
%ADD82R,0.0191X0.0008*%
%ADD83R,0.0182X0.0008*%
%ADD84R,0.0174X0.0008*%
%ADD85R,0.0182X0.0008*%
%ADD86R,0.0174X0.0008*%
%ADD87R,0.0174X0.0008*%
%ADD88R,0.0182X0.0008*%
%ADD89R,0.0174X0.0008*%
%ADD90R,0.0174X0.0008*%
%ADD91R,0.0166X0.0008*%
%ADD92R,0.0166X0.0008*%
%ADD93R,0.0166X0.0008*%
%ADD94R,0.0166X0.0008*%
%ADD95R,0.0166X0.0008*%
%ADD96R,0.0166X0.0008*%
%ADD97R,0.0182X0.0008*%
%ADD98R,0.0207X0.0008*%
%ADD99R,0.0216X0.0008*%
%ADD100R,0.0207X0.0008*%
%ADD101R,0.0232X0.0008*%
%ADD102R,0.0265X0.0008*%
%ADD103R,0.0257X0.0008*%
%ADD104R,0.0863X0.0008*%
%ADD105R,0.0970X0.0008*%
%ADD106R,0.0962X0.0008*%
%ADD107R,0.0846X0.0008*%
%ADD108R,0.0954X0.0008*%
%ADD109R,0.0846X0.0008*%
%ADD110R,0.0954X0.0008*%
%ADD111R,0.0838X0.0008*%
%ADD112R,0.0946X0.0008*%
%ADD113R,0.0829X0.0008*%
%ADD114R,0.0937X0.0008*%
%ADD115R,0.0813X0.0008*%
%ADD116R,0.0805X0.0008*%
%ADD117R,0.0805X0.0008*%
%ADD118R,0.0829X0.0008*%
%ADD119R,0.0970X0.0008*%
%ADD120R,0.0854X0.0008*%
%ADD121R,0.0249X0.0008*%
%ADD122R,0.0241X0.0008*%
%ADD123R,0.0191X0.0008*%
%ADD124R,0.0166X0.0008*%
%ADD125R,0.0166X0.0008*%
%ADD126R,0.0174X0.0008*%
%ADD127R,0.0174X0.0008*%
%ADD128R,0.0182X0.0008*%
%ADD129R,0.0191X0.0008*%
%ADD130R,0.0191X0.0008*%
%ADD131R,0.0199X0.0008*%
%ADD132R,0.0199X0.0008*%
%ADD133R,0.0216X0.0008*%
%ADD134R,0.0224X0.0008*%
%ADD135R,0.0224X0.0008*%
%ADD136R,0.0216X0.0008*%
%ADD137R,0.0241X0.0008*%
%ADD138R,0.0249X0.0008*%
%ADD139R,0.0995X0.0008*%
%ADD140R,0.0987X0.0008*%
%ADD141R,0.0979X0.0008*%
%ADD142R,0.0970X0.0008*%
%ADD143R,0.0929X0.0008*%
%ADD144R,0.0921X0.0008*%
%ADD145R,0.0946X0.0008*%
%ADD146R,0.0912X0.0008*%
%ADD147R,0.0896X0.0008*%
%ADD148R,0.0904X0.0008*%
%ADD149R,0.0887X0.0008*%
%ADD150R,0.0921X0.0008*%
%ADD151R,0.0904X0.0008*%
%ADD152R,0.0879X0.0008*%
%ADD153R,0.0879X0.0008*%
%ADD154R,0.0863X0.0008*%
%ADD155R,0.0871X0.0008*%
%ADD156R,0.0871X0.0008*%
%ADD157R,0.0829X0.0008*%
%ADD158R,0.0821X0.0008*%
%ADD159R,0.0854X0.0008*%
%ADD160R,0.0838X0.0008*%
%ADD161R,0.0796X0.0008*%
%ADD162R,0.0829X0.0008*%
%ADD163R,0.0771X0.0008*%
%ADD164R,0.0796X0.0008*%
%ADD165R,0.0722X0.0008*%
%ADD166R,0.0697X0.0008*%
%ADD167R,0.0738X0.0008*%
%ADD168R,0.0730X0.0008*%
%ADD169R,0.1675X0.0008*%
%ADD170R,0.1675X0.0008*%
%ADD171R,0.1675X0.0008*%
%ADD172R,0.1675X0.0008*%
%ADD173R,0.0373X0.0008*%
%ADD174R,0.0373X0.0008*%
%ADD175R,0.0373X0.0008*%
%ADD176R,0.0373X0.0008*%
%ADD177R,0.0481X0.0008*%
%ADD178R,0.0481X0.0008*%
%ADD179R,0.0481X0.0008*%
%ADD180R,0.0498X0.0008*%
%ADD181R,0.0498X0.0008*%
%ADD182R,0.0506X0.0008*%
%ADD183R,0.0514X0.0008*%
%ADD184R,0.0514X0.0008*%
%ADD185R,0.0514X0.0008*%
%ADD186R,0.0531X0.0008*%
%ADD187R,0.0531X0.0008*%
%ADD188R,0.0531X0.0008*%
%ADD189R,0.0008X0.0008*%
%ADD190R,0.0008X0.0008*%
%ADD191R,0.0547X0.0008*%
%ADD192R,0.0033X0.0008*%
%ADD193R,0.0025X0.0008*%
%ADD194R,0.0547X0.0008*%
%ADD195R,0.0050X0.0008*%
%ADD196R,0.0050X0.0008*%
%ADD197R,0.0547X0.0008*%
%ADD198R,0.0066X0.0008*%
%ADD199R,0.0075X0.0008*%
%ADD200R,0.0091X0.0008*%
%ADD201R,0.0100X0.0008*%
%ADD202R,0.0116X0.0008*%
%ADD203R,0.0116X0.0008*%
%ADD204R,0.0556X0.0008*%
%ADD205R,0.0133X0.0008*%
%ADD206R,0.0133X0.0008*%
%ADD207R,0.0564X0.0008*%
%ADD208R,0.0564X0.0008*%
%ADD209R,0.0564X0.0008*%
%ADD210R,0.0216X0.0008*%
%ADD211R,0.0224X0.0008*%
%ADD212R,0.0241X0.0008*%
%ADD213R,0.0249X0.0008*%
%ADD214R,0.0581X0.0008*%
%ADD215R,0.0265X0.0008*%
%ADD216R,0.0274X0.0008*%
%ADD217R,0.0581X0.0008*%
%ADD218R,0.0282X0.0008*%
%ADD219R,0.0282X0.0008*%
%ADD220R,0.0581X0.0008*%
%ADD221R,0.0307X0.0008*%
%ADD222R,0.0307X0.0008*%
%ADD223R,0.0332X0.0008*%
%ADD224R,0.0332X0.0008*%
%ADD225R,0.0357X0.0008*%
%ADD226R,0.0348X0.0008*%
%ADD227R,0.0597X0.0008*%
%ADD228R,0.0365X0.0008*%
%ADD229R,0.0680X0.0008*%
%ADD230R,0.0390X0.0008*%
%ADD231R,0.0398X0.0008*%
%ADD232R,0.0763X0.0008*%
%ADD233R,0.0415X0.0008*%
%ADD234R,0.0423X0.0008*%
%ADD235R,0.0829X0.0008*%
%ADD236R,0.0440X0.0008*%
%ADD237R,0.0431X0.0008*%
%ADD238R,0.0456X0.0008*%
%ADD239R,0.0456X0.0008*%
%ADD240R,0.1029X0.0008*%
%ADD241R,0.0506X0.0008*%
%ADD242R,0.1078X0.0008*%
%ADD243R,0.0523X0.0008*%
%ADD244R,0.1128X0.0008*%
%ADD245R,0.0539X0.0008*%
%ADD246R,0.1178X0.0008*%
%ADD247R,0.0572X0.0008*%
%ADD248R,0.1228X0.0008*%
%ADD249R,0.0589X0.0008*%
%ADD250R,0.0589X0.0008*%
%ADD251R,0.1277X0.0008*%
%ADD252R,0.0605X0.0008*%
%ADD253R,0.2530X0.0008*%
%ADD254R,0.2538X0.0008*%
%ADD255R,0.2521X0.0008*%
%ADD256R,0.2513X0.0008*%
%ADD257R,0.2505X0.0008*%
%ADD258R,0.2488X0.0008*%
%ADD259R,0.2488X0.0008*%
%ADD260R,0.2488X0.0008*%
%ADD261R,0.2472X0.0008*%
%ADD262R,0.2472X0.0008*%
%ADD263R,0.2472X0.0008*%
%ADD264R,0.2455X0.0008*%
%ADD265R,0.2455X0.0008*%
%ADD266R,0.2439X0.0008*%
%ADD267R,0.2439X0.0008*%
%ADD268R,0.2439X0.0008*%
%ADD269R,0.2422X0.0008*%
%ADD270R,0.2422X0.0008*%
%ADD271R,0.2414X0.0008*%
%ADD272R,0.2405X0.0008*%
%ADD273R,0.2389X0.0008*%
%ADD274R,0.2389X0.0008*%
%ADD275R,0.2372X0.0008*%
%ADD276R,0.1062X0.0008*%
%ADD277R,0.1053X0.0008*%
%ADD278R,0.0995X0.0008*%
%ADD279R,0.0887X0.0008*%
%ADD280R,0.0871X0.0008*%
%ADD281R,0.0805X0.0008*%
%ADD282R,0.0788X0.0008*%
%ADD283R,0.0780X0.0008*%
%ADD284R,0.0763X0.0008*%
%ADD285R,0.0746X0.0008*%
%ADD286R,0.0722X0.0008*%
%ADD287R,0.0713X0.0008*%
%ADD288R,0.0705X0.0008*%
%ADD289R,0.0688X0.0008*%
%ADD290R,0.0672X0.0008*%
%ADD291R,0.0664X0.0008*%
%ADD292R,0.0664X0.0008*%
%ADD293R,0.0647X0.0008*%
%ADD294R,0.0647X0.0008*%
%ADD295R,0.0639X0.0008*%
%ADD296R,0.0639X0.0008*%
%ADD297R,0.0630X0.0008*%
%ADD298R,0.0622X0.0008*%
%ADD299R,0.0614X0.0008*%
%ADD300R,0.0605X0.0008*%
%ADD301R,0.0464X0.0008*%
%ADD302R,0.0556X0.0008*%
%ADD303R,0.0597X0.0008*%
%ADD304R,0.0589X0.0008*%
%ADD305R,0.0630X0.0008*%
%ADD306R,0.0697X0.0008*%
%ADD307R,0.0572X0.0008*%
%ADD308R,0.0763X0.0008*%
%ADD309R,0.0572X0.0008*%
%ADD310R,0.0556X0.0008*%
%ADD311R,0.0008X0.0008*%
%ADD312R,0.0041X0.0008*%
%ADD313R,0.0017X0.0008*%
%ADD314R,0.0995X0.0008*%
%ADD315R,0.0066X0.0008*%
%ADD316R,0.0539X0.0008*%
%ADD317R,0.1045X0.0008*%
%ADD318R,0.0100X0.0008*%
%ADD319R,0.0083X0.0008*%
%ADD320R,0.0539X0.0008*%
%ADD321R,0.1078X0.0008*%
%ADD322R,0.0124X0.0008*%
%ADD323R,0.0108X0.0008*%
%ADD324R,0.0539X0.0008*%
%ADD325R,0.1111X0.0008*%
%ADD326R,0.0149X0.0008*%
%ADD327R,0.0133X0.0008*%
%ADD328R,0.0523X0.0008*%
%ADD329R,0.1145X0.0008*%
%ADD330R,0.0523X0.0008*%
%ADD331R,0.1186X0.0008*%
%ADD332R,0.1219X0.0008*%
%ADD333R,0.0241X0.0008*%
%ADD334R,0.0224X0.0008*%
%ADD335R,0.1244X0.0008*%
%ADD336R,0.1277X0.0008*%
%ADD337R,0.0290X0.0008*%
%ADD338R,0.0282X0.0008*%
%ADD339R,0.1310X0.0008*%
%ADD340R,0.0323X0.0008*%
%ADD341R,0.0299X0.0008*%
%ADD342R,0.0498X0.0008*%
%ADD343R,0.1344X0.0008*%
%ADD344R,0.0498X0.0008*%
%ADD345R,0.1377X0.0008*%
%ADD346R,0.0854X0.0008*%
%ADD347R,0.1393X0.0008*%
%ADD348R,0.1427X0.0008*%
%ADD349R,0.0838X0.0008*%
%ADD350R,0.1443X0.0008*%
%ADD351R,0.1476X0.0008*%
%ADD352R,0.1501X0.0008*%
%ADD353R,0.0821X0.0008*%
%ADD354R,0.1526X0.0008*%
%ADD355R,0.0821X0.0008*%
%ADD356R,0.1543X0.0008*%
%ADD357R,0.1576X0.0008*%
%ADD358R,0.1593X0.0008*%
%ADD359R,0.0805X0.0008*%
%ADD360R,0.1626X0.0008*%
%ADD361R,0.0796X0.0008*%
%ADD362R,0.1642X0.0008*%
%ADD363R,0.0796X0.0008*%
%ADD364R,0.1659X0.0008*%
%ADD365R,0.1692X0.0008*%
%ADD366R,0.1709X0.0008*%
%ADD367R,0.0780X0.0008*%
%ADD368R,0.1725X0.0008*%
%ADD369R,0.1742X0.0008*%
%ADD370R,0.0780X0.0008*%
%ADD371R,0.1758X0.0008*%
%ADD372R,0.0771X0.0008*%
%ADD373R,0.1792X0.0008*%
%ADD374R,0.1808X0.0008*%
%ADD375R,0.0771X0.0008*%
%ADD376R,0.1825X0.0008*%
%ADD377R,0.0771X0.0008*%
%ADD378R,0.1841X0.0008*%
%ADD379R,0.1858X0.0008*%
%ADD380R,0.1874X0.0008*%
%ADD381R,0.1891X0.0008*%
%ADD382R,0.0755X0.0008*%
%ADD383R,0.1908X0.0008*%
%ADD384R,0.0755X0.0008*%
%ADD385R,0.1924X0.0008*%
%ADD386R,0.1941X0.0008*%
%ADD387R,0.0755X0.0008*%
%ADD388R,0.1957X0.0008*%
%ADD389R,0.0755X0.0008*%
%ADD390R,0.1974X0.0008*%
%ADD391R,0.0746X0.0008*%
%ADD392R,0.1991X0.0008*%
%ADD393R,0.0746X0.0008*%
%ADD394R,0.2007X0.0008*%
%ADD395R,0.0746X0.0008*%
%ADD396R,0.2024X0.0008*%
%ADD397R,0.2040X0.0008*%
%ADD398R,0.2040X0.0008*%
%ADD399R,0.0738X0.0008*%
%ADD400R,0.2057X0.0008*%
%ADD401R,0.2074X0.0008*%
%ADD402R,0.2090X0.0008*%
%ADD403R,0.0730X0.0008*%
%ADD404R,0.2107X0.0008*%
%ADD405R,0.0713X0.0008*%
%ADD406R,0.0722X0.0008*%
%ADD407R,0.2123X0.0008*%
%ADD408R,0.2123X0.0008*%
%ADD409R,0.0697X0.0008*%
%ADD410R,0.2140X0.0008*%
%ADD411R,0.0672X0.0008*%
%ADD412R,0.0672X0.0008*%
%ADD413R,0.2157X0.0008*%
%ADD414R,0.0647X0.0008*%
%ADD415R,0.0664X0.0008*%
%ADD416R,0.2173X0.0008*%
%ADD417R,0.0639X0.0008*%
%ADD418R,0.0647X0.0008*%
%ADD419R,0.2173X0.0008*%
%ADD420R,0.0622X0.0008*%
%ADD421R,0.2190X0.0008*%
%ADD422R,0.0622X0.0008*%
%ADD423R,0.2206X0.0008*%
%ADD424R,0.0597X0.0008*%
%ADD425R,0.2215X0.0008*%
%ADD426R,0.2223X0.0008*%
%ADD427R,0.0572X0.0008*%
%ADD428R,0.2239X0.0008*%
%ADD429R,0.0547X0.0008*%
%ADD430R,0.2256X0.0008*%
%ADD431R,0.2273X0.0008*%
%ADD432R,0.2281X0.0008*%
%ADD433R,0.0498X0.0008*%
%ADD434R,0.2289X0.0008*%
%ADD435R,0.0473X0.0008*%
%ADD436R,0.0489X0.0008*%
%ADD437R,0.2306X0.0008*%
%ADD438R,0.0464X0.0008*%
%ADD439R,0.0473X0.0008*%
%ADD440R,0.2306X0.0008*%
%ADD441R,0.0448X0.0008*%
%ADD442R,0.0464X0.0008*%
%ADD443R,0.2322X0.0008*%
%ADD444R,0.0440X0.0008*%
%ADD445R,0.0448X0.0008*%
%ADD446R,0.2339X0.0008*%
%ADD447R,0.0423X0.0008*%
%ADD448R,0.2339X0.0008*%
%ADD449R,0.0415X0.0008*%
%ADD450R,0.0415X0.0008*%
%ADD451R,0.2356X0.0008*%
%ADD452R,0.0390X0.0008*%
%ADD453R,0.0406X0.0008*%
%ADD454R,0.2356X0.0008*%
%ADD455R,0.0390X0.0008*%
%ADD456R,0.2372X0.0008*%
%ADD457R,0.0382X0.0008*%
%ADD458R,0.0382X0.0008*%
%ADD459R,0.2372X0.0008*%
%ADD460R,0.0382X0.0008*%
%ADD461R,0.2405X0.0008*%
%ADD462R,0.2405X0.0008*%
%ADD463R,0.2422X0.0008*%
%ADD464R,0.0373X0.0008*%
%ADD465R,0.0373X0.0008*%
%ADD466R,0.2439X0.0008*%
%ADD467R,0.2455X0.0008*%
%ADD468R,0.2455X0.0008*%
%ADD469R,0.2455X0.0008*%
%ADD470R,0.2472X0.0008*%
%ADD471R,0.0365X0.0008*%
%ADD472R,0.2472X0.0008*%
%ADD473R,0.0373X0.0008*%
%ADD474R,0.2505X0.0008*%
%ADD475R,0.2505X0.0008*%
%ADD476R,0.0365X0.0008*%
%ADD477R,0.2505X0.0008*%
%ADD478R,0.0365X0.0008*%
%ADD479R,0.2521X0.0008*%
%ADD480R,0.0365X0.0008*%
%ADD481R,0.2521X0.0008*%
%ADD482R,0.0365X0.0008*%
%ADD483R,0.2538X0.0008*%
%ADD484R,0.2538X0.0008*%
%ADD485R,0.2555X0.0008*%
%ADD486R,0.2555X0.0008*%
%ADD487R,0.2555X0.0008*%
%ADD488R,0.2571X0.0008*%
%ADD489R,0.0357X0.0008*%
%ADD490R,0.2571X0.0008*%
%ADD491R,0.0365X0.0008*%
%ADD492R,0.1269X0.0008*%
%ADD493R,0.1211X0.0008*%
%ADD494R,0.1161X0.0008*%
%ADD495R,0.1145X0.0008*%
%ADD496R,0.1120X0.0008*%
%ADD497R,0.1103X0.0008*%
%ADD498R,0.1111X0.0008*%
%ADD499R,0.1103X0.0008*%
%ADD500R,0.0357X0.0008*%
%ADD501R,0.1087X0.0008*%
%ADD502R,0.1062X0.0008*%
%ADD503R,0.1062X0.0008*%
%ADD504R,0.1053X0.0008*%
%ADD505R,0.0348X0.0008*%
%ADD506R,0.1045X0.0008*%
%ADD507R,0.0406X0.0008*%
%ADD508R,0.1037X0.0008*%
%ADD509R,0.0448X0.0008*%
%ADD510R,0.1037X0.0008*%
%ADD511R,0.0489X0.0008*%
%ADD512R,0.0498X0.0008*%
%ADD513R,0.1020X0.0008*%
%ADD514R,0.0581X0.0008*%
%ADD515R,0.1012X0.0008*%
%ADD516R,0.1004X0.0008*%
%ADD517R,0.0647X0.0008*%
%ADD518R,0.0622X0.0008*%
%ADD519R,0.1012X0.0008*%
%ADD520R,0.0647X0.0008*%
%ADD521R,0.1004X0.0008*%
%ADD522R,0.0647X0.0008*%
%ADD523R,0.0995X0.0008*%
%ADD524R,0.0987X0.0008*%
%ADD525R,0.0979X0.0008*%
%ADD526R,0.0630X0.0008*%
%ADD527R,0.0630X0.0008*%
%ADD528R,0.0954X0.0008*%
%ADD529R,0.0630X0.0008*%
%ADD530R,0.0954X0.0008*%
%ADD531R,0.0946X0.0008*%
%ADD532R,0.0639X0.0008*%
%ADD533R,0.0962X0.0008*%
%ADD534R,0.0987X0.0008*%
%ADD535R,0.0987X0.0008*%
%ADD536R,0.0995X0.0008*%
%ADD537R,0.0622X0.0008*%
%ADD538R,0.1004X0.0008*%
%ADD539R,0.0572X0.0008*%
%ADD540R,0.1029X0.0008*%
%ADD541R,0.0448X0.0008*%
%ADD542R,0.0489X0.0008*%
%ADD543R,0.1037X0.0008*%
%ADD544R,0.1070X0.0008*%
%ADD545R,0.0357X0.0008*%
%ADD546R,0.1087X0.0008*%
%ADD547R,0.1095X0.0008*%
%ADD548R,0.1111X0.0008*%
%ADD549R,0.1120X0.0008*%
%ADD550R,0.1136X0.0008*%
%ADD551R,0.1153X0.0008*%
%ADD552R,0.1169X0.0008*%
%ADD553R,0.1203X0.0008*%
%ADD554R,0.1244X0.0008*%
%ADD555R,0.2579X0.0008*%
%ADD556R,0.2563X0.0008*%
%ADD557R,0.2521X0.0008*%
%ADD558R,0.2488X0.0008*%
%ADD559R,0.2472X0.0008*%
%ADD560R,0.0373X0.0008*%
%ADD561R,0.2422X0.0008*%
%ADD562R,0.2389X0.0008*%
%ADD563R,0.2364X0.0008*%
%ADD564R,0.0431X0.0008*%
%ADD565R,0.0448X0.0008*%
%ADD566R,0.0440X0.0008*%
%ADD567R,0.2322X0.0008*%
%ADD568R,0.2322X0.0008*%
%ADD569R,0.0464X0.0008*%
%ADD570R,0.0489X0.0008*%
%ADD571R,0.0473X0.0008*%
%ADD572R,0.2289X0.0008*%
%ADD573R,0.0498X0.0008*%
%ADD574R,0.2273X0.0008*%
%ADD575R,0.2256X0.0008*%
%ADD576R,0.2256X0.0008*%
%ADD577R,0.0564X0.0008*%
%ADD578R,0.0547X0.0008*%
%ADD579R,0.2239X0.0008*%
%ADD580R,0.0572X0.0008*%
%ADD581R,0.2223X0.0008*%
%ADD582R,0.0597X0.0008*%
%ADD583R,0.2206X0.0008*%
%ADD584R,0.0605X0.0008*%
%ADD585R,0.2190X0.0008*%
%ADD586R,0.0688X0.0008*%
%ADD587R,0.2140X0.0008*%
%ADD588R,0.2065X0.0008*%
%ADD589R,0.0738X0.0008*%
%ADD590R,0.2057X0.0008*%
%ADD591R,0.2024X0.0008*%
%ADD592R,0.2007X0.0008*%
%ADD593R,0.1974X0.0008*%
%ADD594R,0.0755X0.0008*%
%ADD595R,0.1957X0.0008*%
%ADD596R,0.0755X0.0008*%
%ADD597R,0.1924X0.0008*%
%ADD598R,0.1908X0.0008*%
%ADD599R,0.1874X0.0008*%
%ADD600R,0.0771X0.0008*%
%ADD601R,0.1858X0.0008*%
%ADD602R,0.0771X0.0008*%
%ADD603R,0.1808X0.0008*%
%ADD604R,0.1792X0.0008*%
%ADD605R,0.1775X0.0008*%
%ADD606R,0.1750X0.0008*%
%ADD607R,0.0788X0.0008*%
%ADD608R,0.0796X0.0008*%
%ADD609R,0.0796X0.0008*%
%ADD610R,0.1642X0.0008*%
%ADD611R,0.1609X0.0008*%
%ADD612R,0.1576X0.0008*%
%ADD613R,0.1559X0.0008*%
%ADD614R,0.1526X0.0008*%
%ADD615R,0.1510X0.0008*%
%ADD616R,0.1460X0.0008*%
%ADD617R,0.1427X0.0008*%
%ADD618R,0.1410X0.0008*%
%ADD619R,0.1327X0.0008*%
%ADD620R,0.0299X0.0008*%
%ADD621R,0.1294X0.0008*%
%ADD622R,0.0274X0.0008*%
%ADD623R,0.1261X0.0008*%
%ADD624R,0.1228X0.0008*%
%ADD625R,0.1194X0.0008*%
%ADD626R,0.1161X0.0008*%
%ADD627R,0.0141X0.0008*%
%ADD628R,0.0149X0.0008*%
%ADD629R,0.0108X0.0008*%
%ADD630R,0.0124X0.0008*%
%ADD631R,0.1095X0.0008*%
%ADD632R,0.0083X0.0008*%
%ADD633R,0.0075X0.0008*%
%ADD634R,0.0017X0.0008*%
%ADD635R,0.0041X0.0008*%
%ADD636R,0.0556X0.0008*%
%ADD637R,0.0713X0.0008*%
%ADD638R,0.0581X0.0008*%
%ADD639R,0.0605X0.0008*%
%ADD640R,0.0614X0.0008*%
%ADD641R,0.0398X0.0008*%
%ADD642R,0.0746X0.0008*%
%ADD643R,0.0829X0.0008*%
%ADD644R,0.0846X0.0008*%
%ADD645R,0.1045X0.0008*%
%ADD646R,0.1062X0.0008*%
%ADD647R,0.2372X0.0008*%
%ADD648R,0.2389X0.0008*%
%ADD649R,0.2405X0.0008*%
%ADD650R,0.2472X0.0008*%
%ADD651R,0.2505X0.0008*%
%ADD652R,0.2513X0.0008*%
%ADD653R,0.2521X0.0008*%
%ADD654R,0.2530X0.0008*%
%ADD655R,0.0614X0.0008*%
%ADD656R,0.1186X0.0008*%
%ADD657R,0.0539X0.0008*%
%ADD658R,0.1136X0.0008*%
%ADD659R,0.0523X0.0008*%
%ADD660R,0.0904X0.0008*%
%ADD661R,0.0440X0.0008*%
%ADD662R,0.0398X0.0008*%
%ADD663R,0.0390X0.0008*%
%ADD664R,0.0680X0.0008*%
%ADD665R,0.0307X0.0008*%
%ADD666R,0.0290X0.0008*%
%ADD667R,0.0274X0.0008*%
%ADD668R,0.0265X0.0008*%
%ADD669R,0.0199X0.0008*%
%ADD670R,0.0116X0.0008*%
%ADD671R,0.0066X0.0008*%
%ADD672R,0.0058X0.0008*%
%ADD673R,0.0033X0.0008*%
%ADD674R,0.0523X0.0008*%
%ADD675R,0.0498X0.0008*%
%ADD676R,0.0084X0.0014*%
%ADD677R,0.0070X0.0014*%
%ADD678R,0.0098X0.0014*%
%ADD679R,0.0252X0.0014*%
%ADD680R,0.0154X0.0014*%
%ADD681R,0.0182X0.0014*%
%ADD682R,0.0042X0.0014*%
%ADD683R,0.0042X0.0014*%
%ADD684R,0.0224X0.0014*%
%ADD685R,0.0196X0.0014*%
%ADD686R,0.0028X0.0014*%
%ADD687R,0.0056X0.0014*%
%ADD688R,0.0056X0.0014*%
%ADD689R,0.0098X0.0014*%
%ADD690R,0.0196X0.0014*%
%ADD691R,0.0056X0.0014*%
%ADD692R,0.0042X0.0014*%
%ADD693R,0.0042X0.0014*%
%ADD694R,0.0182X0.0014*%
%ADD695R,0.0224X0.0014*%
%ADD696R,0.0028X0.0014*%
%ADD697R,0.0056X0.0014*%
%ADD698R,0.0098X0.0014*%
%ADD699R,0.0252X0.0014*%
%ADD700R,0.0210X0.0014*%
%ADD701R,0.0098X0.0014*%
%ADD702R,0.0084X0.0014*%
%ADD703R,0.0238X0.0014*%
%ADD704R,0.0084X0.0014*%
%ADD705R,0.0196X0.0014*%
%ADD706R,0.0182X0.0014*%
%ADD707R,0.0294X0.0014*%
%ADD708R,0.0168X0.0014*%
%ADD709R,0.0210X0.0014*%
%ADD710R,0.0182X0.0014*%
%ADD711R,0.0238X0.0014*%
%ADD712R,0.0294X0.0014*%
%ADD713R,0.0014X0.0014*%
%ADD714R,0.0238X0.0014*%
%ADD715R,0.0028X0.0014*%
%ADD716R,0.0350X0.0014*%
%ADD717R,0.0336X0.0014*%
%ADD718R,0.0448X0.0014*%
%ADD719R,0.0028X0.0014*%
%ADD720R,0.0112X0.0014*%
%ADD721R,0.0420X0.0014*%
%ADD722R,0.0518X0.0014*%
%ADD723R,0.0504X0.0014*%
%ADD724R,0.0574X0.0014*%
%ADD725R,0.0560X0.0014*%
%ADD726R,0.0630X0.0014*%
%ADD727R,0.0616X0.0014*%
%ADD728R,0.0672X0.0014*%
%ADD729R,0.0168X0.0014*%
%ADD730R,0.0140X0.0014*%
%ADD731R,0.0644X0.0014*%
%ADD732R,0.0728X0.0014*%
%ADD733R,0.0070X0.0014*%
%ADD734R,0.0140X0.0014*%
%ADD735R,0.0700X0.0014*%
%ADD736R,0.0756X0.0014*%
%ADD737R,0.0742X0.0014*%
%ADD738R,0.0798X0.0014*%
%ADD739R,0.0784X0.0014*%
%ADD740R,0.0840X0.0014*%
%ADD741R,0.0392X0.0014*%
%ADD742R,0.0112X0.0014*%
%ADD743R,0.0868X0.0014*%
%ADD744R,0.0896X0.0014*%
%ADD745R,0.0154X0.0014*%
%ADD746R,0.0924X0.0014*%
%ADD747R,0.0126X0.0014*%
%ADD748R,0.0952X0.0014*%
%ADD749R,0.0980X0.0014*%
%ADD750R,0.0224X0.0014*%
%ADD751R,0.0154X0.0014*%
%ADD752R,0.1008X0.0014*%
%ADD753R,0.0322X0.0014*%
%ADD754R,0.0308X0.0014*%
%ADD755R,0.0280X0.0014*%
%ADD756R,0.0308X0.0014*%
%ADD757R,0.0308X0.0014*%
%ADD758R,0.0532X0.0014*%
%ADD759R,0.0266X0.0014*%
%ADD760R,0.0378X0.0014*%
%ADD761R,0.0364X0.0014*%
%ADD762R,0.0350X0.0014*%
%ADD763R,0.0168X0.0014*%
%ADD764R,0.0168X0.0014*%
%ADD765R,0.0280X0.0014*%
%ADD766R,0.0546X0.0014*%
%ADD767R,0.0420X0.0014*%
%ADD768R,0.0378X0.0014*%
%ADD769R,0.0434X0.0014*%
%ADD770R,0.0434X0.0014*%
%ADD771R,0.0126X0.0014*%
%ADD772R,0.0462X0.0014*%
%ADD773R,0.0504X0.0014*%
%ADD774R,0.0574X0.0014*%
%ADD775R,0.0112X0.0014*%
%ADD776R,0.0532X0.0014*%
%ADD777R,0.0574X0.0014*%
%ADD778R,0.0546X0.0014*%
%ADD779R,0.0224X0.0014*%
%ADD780R,0.0364X0.0014*%
%ADD781R,0.0588X0.0014*%
%ADD782R,0.0602X0.0014*%
%ADD783R,0.0602X0.0014*%
%ADD784R,0.0252X0.0014*%
%ADD785R,0.0392X0.0014*%
%ADD786R,0.0616X0.0014*%
%ADD787R,0.0112X0.0014*%
%ADD788R,0.1162X0.0014*%
%ADD789R,0.0406X0.0014*%
%ADD790R,0.1176X0.0014*%
%ADD791R,0.1190X0.0014*%
%ADD792R,0.1204X0.0014*%
%ADD793R,0.0644X0.0014*%
%ADD794R,0.0434X0.0014*%
%ADD795R,0.0336X0.0014*%
%ADD796R,0.0154X0.0014*%
%ADD797R,0.0644X0.0014*%
%ADD798R,0.0406X0.0014*%
%ADD799R,0.0294X0.0014*%
%ADD800R,0.0392X0.0014*%
%ADD801R,0.0434X0.0014*%
%ADD802R,0.0322X0.0014*%
%ADD803R,0.0308X0.0014*%
%ADD804R,0.0322X0.0014*%
%ADD805R,0.0658X0.0014*%
%ADD806R,0.1260X0.0014*%
%ADD807R,0.0658X0.0014*%
%ADD808R,0.1260X0.0014*%
%ADD809R,0.0378X0.0014*%
%ADD810R,0.0266X0.0014*%
%ADD811R,0.0294X0.0014*%
%ADD812R,0.0994X0.0014*%
%ADD813R,0.0560X0.0014*%
%ADD814R,0.0406X0.0014*%
%ADD815R,0.0546X0.0014*%
%ADD816R,0.0266X0.0014*%
%ADD817R,0.0476X0.0014*%
%ADD818R,0.0364X0.0014*%
%ADD819R,0.0252X0.0014*%
%ADD820R,0.0266X0.0014*%
%ADD821R,0.1148X0.0014*%
%ADD822R,0.1120X0.0014*%
%ADD823R,0.1092X0.0014*%
%ADD824R,0.0238X0.0014*%
%ADD825R,0.1092X0.0014*%
%ADD826R,0.1064X0.0014*%
%ADD827R,0.1036X0.0014*%
%ADD828R,0.1008X0.0014*%
%ADD829R,0.0938X0.0014*%
%ADD830R,0.0910X0.0014*%
%ADD831R,0.0882X0.0014*%
%ADD832R,0.0854X0.0014*%
%ADD833R,0.0812X0.0014*%
%ADD834R,0.0742X0.0014*%
%ADD835R,0.0658X0.0014*%
%ADD836R,0.0010X0.0010*%
%ADD837R,0.4610X0.0010*%
%ADD838R,0.4680X0.0010*%
%ADD839R,0.4700X0.0010*%
%ADD840R,0.4690X0.0010*%
%ADD841R,0.1770X0.0010*%
%ADD842R,0.0190X0.0010*%
%ADD843R,0.0630X0.0010*%
%ADD844R,0.0120X0.0010*%
%ADD845R,0.0050X0.0010*%
%ADD846R,0.0660X0.0010*%
%ADD847R,0.0130X0.0010*%
%ADD848R,0.0480X0.0010*%
%ADD849R,0.1760X0.0010*%
%ADD850R,0.0140X0.0010*%
%ADD851R,0.0620X0.0010*%
%ADD852R,0.0100X0.0010*%
%ADD853R,0.0610X0.0010*%
%ADD854R,0.0110X0.0010*%
%ADD855R,0.0450X0.0010*%
%ADD856R,0.0090X0.0010*%
%ADD857R,0.0590X0.0010*%
%ADD858R,0.0440X0.0010*%
%ADD859R,0.0080X0.0010*%
%ADD860R,0.0580X0.0010*%
%ADD861R,0.0070X0.0010*%
%ADD862R,0.0430X0.0010*%
%ADD863R,0.0730X0.0010*%
%ADD864R,0.0840X0.0010*%
%ADD865R,0.0570X0.0010*%
%ADD866R,0.0420X0.0010*%
%ADD867R,0.0670X0.0010*%
%ADD868R,0.0790X0.0010*%
%ADD869R,0.0560X0.0010*%
%ADD870R,0.0060X0.0010*%
%ADD871R,0.0410X0.0010*%
%ADD872R,0.0750X0.0010*%
%ADD873R,0.0550X0.0010*%
%ADD874R,0.0600X0.0010*%
%ADD875R,0.0720X0.0010*%
%ADD876R,0.0690X0.0010*%
%ADD877R,0.0040X0.0010*%
%ADD878R,0.0400X0.0010*%
%ADD879R,0.0540X0.0010*%
%ADD880R,0.0530X0.0010*%
%ADD881R,0.0640X0.0010*%
%ADD882R,0.0510X0.0010*%
%ADD883R,0.0030X0.0010*%
%ADD884R,0.0490X0.0010*%
%ADD885R,0.0020X0.0010*%
%ADD886R,0.0470X0.0010*%
%ADD887R,0.0220X0.0010*%
%ADD888R,0.0310X0.0010*%
%ADD889R,0.0380X0.0010*%
%ADD890R,0.0500X0.0010*%
%ADD891R,0.0370X0.0010*%
%ADD892R,0.0360X0.0010*%
%ADD893R,0.0350X0.0010*%
%ADD894R,0.0340X0.0010*%
%ADD895R,0.0460X0.0010*%
%ADD896R,0.0330X0.0010*%
%ADD897R,0.0320X0.0010*%
%ADD898R,0.0300X0.0010*%
%ADD899R,0.0700X0.0010*%
%ADD900R,0.3360X0.0010*%
%ADD901R,0.0290X0.0010*%
%ADD902R,0.3350X0.0010*%
%ADD903R,0.0280X0.0010*%
%ADD904R,0.0250X0.0010*%
%ADD905R,0.0260X0.0010*%
%ADD906R,0.3340X0.0010*%
%ADD907R,0.0230X0.0010*%
%ADD908R,0.3330X0.0010*%
%ADD909R,0.0270X0.0010*%
%ADD910R,0.3320X0.0010*%
%ADD911R,0.0210X0.0010*%
%ADD912R,0.0200X0.0010*%
%ADD913R,0.3310X0.0010*%
%ADD914R,0.3300X0.0010*%
%ADD915R,0.0240X0.0010*%
%ADD916R,0.0180X0.0010*%
%ADD917R,0.3290X0.0010*%
%ADD918R,0.0170X0.0010*%
%ADD919R,0.3280X0.0010*%
%ADD920R,0.3270X0.0010*%
%ADD921R,0.0160X0.0010*%
%ADD922R,0.0150X0.0010*%
%ADD923R,0.0390X0.0010*%
%ADD924R,0.0710X0.0010*%
%ADD925R,0.0650X0.0010*%
%ADD926R,0.4660X0.0010*%
%ADD927R,0.4640X0.0010*%
%ADD928R,0.4620X0.0010*%
%ADD929R,0.4600X0.0010*%
%ADD930R,0.4460X0.0010*%
D10*
X007237Y007583D02*
X021985Y007583D01*
X022029Y007585D01*
X022072Y007591D01*
X022114Y007600D01*
X022156Y007613D01*
X022196Y007630D01*
X022235Y007650D01*
X022272Y007673D01*
X022306Y007700D01*
X022339Y007729D01*
X022368Y007762D01*
X022395Y007796D01*
X022418Y007833D01*
X022438Y007872D01*
X022455Y007912D01*
X022468Y007954D01*
X022477Y007996D01*
X022483Y008039D01*
X022485Y008083D01*
X022485Y018698D01*
X022483Y018742D01*
X022477Y018785D01*
X022468Y018827D01*
X022455Y018869D01*
X022438Y018909D01*
X022418Y018948D01*
X022395Y018985D01*
X022368Y019019D01*
X022339Y019052D01*
X022306Y019081D01*
X022272Y019108D01*
X022235Y019131D01*
X022196Y019151D01*
X022156Y019168D01*
X022114Y019181D01*
X022072Y019190D01*
X022029Y019196D01*
X021985Y019198D01*
X007237Y019198D01*
X007193Y019196D01*
X007150Y019190D01*
X007108Y019181D01*
X007066Y019168D01*
X007026Y019151D01*
X006987Y019131D01*
X006950Y019108D01*
X006916Y019081D01*
X006883Y019052D01*
X006854Y019019D01*
X006827Y018985D01*
X006804Y018948D01*
X006784Y018909D01*
X006767Y018869D01*
X006754Y018827D01*
X006745Y018785D01*
X006739Y018742D01*
X006737Y018698D01*
X006737Y008083D01*
X006739Y008039D01*
X006745Y007996D01*
X006754Y007954D01*
X006767Y007912D01*
X006784Y007872D01*
X006804Y007833D01*
X006827Y007796D01*
X006854Y007762D01*
X006883Y007729D01*
X006916Y007700D01*
X006950Y007673D01*
X006987Y007650D01*
X007026Y007630D01*
X007066Y007613D01*
X007108Y007600D01*
X007150Y007591D01*
X007193Y007585D01*
X007237Y007583D01*
X007485Y008961D02*
X007487Y009011D01*
X007493Y009061D01*
X007503Y009110D01*
X007517Y009158D01*
X007534Y009205D01*
X007555Y009250D01*
X007580Y009294D01*
X007608Y009335D01*
X007640Y009374D01*
X007674Y009411D01*
X007711Y009445D01*
X007751Y009475D01*
X007793Y009502D01*
X007837Y009526D01*
X007883Y009547D01*
X007930Y009563D01*
X007978Y009576D01*
X008028Y009585D01*
X008077Y009590D01*
X008128Y009591D01*
X008178Y009588D01*
X008227Y009581D01*
X008276Y009570D01*
X008324Y009555D01*
X008370Y009537D01*
X008415Y009515D01*
X008458Y009489D01*
X008499Y009460D01*
X008538Y009428D01*
X008574Y009393D01*
X008606Y009355D01*
X008636Y009315D01*
X008663Y009272D01*
X008686Y009228D01*
X008705Y009182D01*
X008721Y009134D01*
X008733Y009085D01*
X008741Y009036D01*
X008745Y008986D01*
X008745Y008936D01*
X008741Y008886D01*
X008733Y008837D01*
X008721Y008788D01*
X008705Y008740D01*
X008686Y008694D01*
X008663Y008650D01*
X008636Y008607D01*
X008606Y008567D01*
X008574Y008529D01*
X008538Y008494D01*
X008499Y008462D01*
X008458Y008433D01*
X008415Y008407D01*
X008370Y008385D01*
X008324Y008367D01*
X008276Y008352D01*
X008227Y008341D01*
X008178Y008334D01*
X008128Y008331D01*
X008077Y008332D01*
X008028Y008337D01*
X007978Y008346D01*
X007930Y008359D01*
X007883Y008375D01*
X007837Y008396D01*
X007793Y008420D01*
X007751Y008447D01*
X007711Y008477D01*
X007674Y008511D01*
X007640Y008548D01*
X007608Y008587D01*
X007580Y008628D01*
X007555Y008672D01*
X007534Y008717D01*
X007517Y008764D01*
X007503Y008812D01*
X007493Y008861D01*
X007487Y008911D01*
X007485Y008961D01*
X007161Y011489D02*
X007163Y011522D01*
X007169Y011554D01*
X007178Y011585D01*
X007191Y011615D01*
X007208Y011643D01*
X007228Y011669D01*
X007251Y011693D01*
X007276Y011713D01*
X007304Y011731D01*
X007333Y011745D01*
X007364Y011755D01*
X007396Y011762D01*
X007429Y011765D01*
X007462Y011764D01*
X007494Y011759D01*
X007525Y011750D01*
X007556Y011738D01*
X007584Y011722D01*
X007611Y011703D01*
X007635Y011681D01*
X007656Y011656D01*
X007675Y011629D01*
X007690Y011600D01*
X007701Y011570D01*
X007709Y011538D01*
X007713Y011505D01*
X007713Y011473D01*
X007709Y011440D01*
X007701Y011408D01*
X007690Y011378D01*
X007675Y011349D01*
X007656Y011322D01*
X007635Y011297D01*
X007611Y011275D01*
X007584Y011256D01*
X007556Y011240D01*
X007525Y011228D01*
X007494Y011219D01*
X007462Y011214D01*
X007429Y011213D01*
X007396Y011216D01*
X007364Y011223D01*
X007333Y011233D01*
X007304Y011247D01*
X007276Y011265D01*
X007251Y011285D01*
X007228Y011309D01*
X007208Y011335D01*
X007191Y011363D01*
X007178Y011393D01*
X007169Y011424D01*
X007163Y011456D01*
X007161Y011489D01*
X007161Y015489D02*
X007163Y015522D01*
X007169Y015554D01*
X007178Y015585D01*
X007191Y015615D01*
X007208Y015643D01*
X007228Y015669D01*
X007251Y015693D01*
X007276Y015713D01*
X007304Y015731D01*
X007333Y015745D01*
X007364Y015755D01*
X007396Y015762D01*
X007429Y015765D01*
X007462Y015764D01*
X007494Y015759D01*
X007525Y015750D01*
X007556Y015738D01*
X007584Y015722D01*
X007611Y015703D01*
X007635Y015681D01*
X007656Y015656D01*
X007675Y015629D01*
X007690Y015600D01*
X007701Y015570D01*
X007709Y015538D01*
X007713Y015505D01*
X007713Y015473D01*
X007709Y015440D01*
X007701Y015408D01*
X007690Y015378D01*
X007675Y015349D01*
X007656Y015322D01*
X007635Y015297D01*
X007611Y015275D01*
X007584Y015256D01*
X007556Y015240D01*
X007525Y015228D01*
X007494Y015219D01*
X007462Y015214D01*
X007429Y015213D01*
X007396Y015216D01*
X007364Y015223D01*
X007333Y015233D01*
X007304Y015247D01*
X007276Y015265D01*
X007251Y015285D01*
X007228Y015309D01*
X007208Y015335D01*
X007191Y015363D01*
X007178Y015393D01*
X007169Y015424D01*
X007163Y015456D01*
X007161Y015489D01*
X013345Y011230D02*
X013345Y011225D01*
X013348Y011222D01*
X013356Y011222D01*
X013360Y011222D02*
X013360Y011230D01*
X013363Y011233D01*
X013366Y011230D01*
X013366Y011222D01*
X013371Y011222D02*
X013371Y011233D01*
X013368Y011233D01*
X013366Y011230D01*
X013375Y011230D02*
X013378Y011233D01*
X013386Y011233D01*
X013386Y011238D02*
X013386Y011222D01*
X013378Y011222D01*
X013375Y011225D01*
X013375Y011230D01*
X013391Y011225D02*
X013391Y011222D01*
X013394Y011222D01*
X013394Y011225D01*
X013391Y011225D01*
X013398Y011222D02*
X013398Y011238D01*
X013409Y011238D02*
X013409Y011222D01*
X013404Y011227D01*
X013398Y011222D01*
X013414Y011225D02*
X013416Y011222D01*
X013425Y011222D01*
X013425Y011238D01*
X013416Y011238D01*
X013414Y011236D01*
X013414Y011233D01*
X013416Y011230D01*
X013425Y011230D01*
X013429Y011230D02*
X013432Y011233D01*
X013437Y011233D01*
X013440Y011230D01*
X013440Y011225D01*
X013437Y011222D01*
X013432Y011222D01*
X013429Y011225D01*
X013429Y011230D01*
X013416Y011230D02*
X013414Y011227D01*
X013414Y011225D01*
X013444Y011222D02*
X013452Y011222D01*
X013455Y011225D01*
X013455Y011230D01*
X013452Y011233D01*
X013444Y011233D01*
X013444Y011219D01*
X013447Y011216D01*
X013450Y011216D01*
X013459Y011225D02*
X013459Y011230D01*
X013462Y011233D01*
X013468Y011233D01*
X013470Y011230D01*
X013470Y011225D01*
X013468Y011222D01*
X013462Y011222D01*
X013459Y011225D01*
X013475Y011222D02*
X013481Y011222D01*
X013478Y011222D02*
X013478Y011238D01*
X013481Y011238D01*
X013485Y011238D02*
X013496Y011222D01*
X013500Y011225D02*
X013503Y011222D01*
X013511Y011222D01*
X013515Y011225D02*
X013515Y011230D01*
X013518Y011233D01*
X013524Y011233D01*
X013526Y011230D01*
X013526Y011225D01*
X013524Y011222D01*
X013518Y011222D01*
X013515Y011225D01*
X013511Y011233D02*
X013503Y011233D01*
X013500Y011230D01*
X013500Y011225D01*
X013511Y011233D02*
X013511Y011216D01*
X013531Y011222D02*
X013534Y011225D01*
X013534Y011236D01*
X013537Y011233D02*
X013531Y011233D01*
X013541Y011233D02*
X013549Y011227D01*
X013541Y011222D01*
X013549Y011222D02*
X013549Y011238D01*
X013553Y011233D02*
X013562Y011233D01*
X013564Y011230D01*
X013562Y011227D01*
X013556Y011227D01*
X013553Y011225D01*
X013556Y011222D01*
X013564Y011222D01*
X013569Y011227D02*
X013580Y011227D01*
X013580Y011225D02*
X013580Y011230D01*
X013577Y011233D01*
X013571Y011233D01*
X013569Y011230D01*
X013569Y011227D01*
X013571Y011222D02*
X013577Y011222D01*
X013580Y011225D01*
X013584Y011225D02*
X013584Y011236D01*
X013587Y011238D01*
X013595Y011238D01*
X013595Y011222D01*
X013587Y011222D01*
X013584Y011225D01*
X013599Y011238D02*
X013610Y011222D01*
X013615Y011233D02*
X013617Y011233D01*
X013623Y011227D01*
X013627Y011227D02*
X013638Y011227D01*
X013638Y011225D02*
X013638Y011230D01*
X013635Y011233D01*
X013630Y011233D01*
X013627Y011230D01*
X013627Y011227D01*
X013630Y011222D02*
X013635Y011222D01*
X013638Y011225D01*
X013643Y011222D02*
X013648Y011222D01*
X013646Y011222D02*
X013646Y011238D01*
X013648Y011238D01*
X013655Y011233D02*
X013664Y011233D01*
X013668Y011230D02*
X013671Y011233D01*
X013676Y011233D01*
X013679Y011230D01*
X013679Y011225D01*
X013676Y011222D01*
X013671Y011222D01*
X013668Y011225D01*
X013668Y011230D01*
X013664Y011222D02*
X013655Y011222D01*
X013653Y011225D01*
X013653Y011230D01*
X013655Y011233D01*
X013664Y011238D02*
X013664Y011222D01*
X013683Y011222D02*
X013691Y011222D01*
X013694Y011225D01*
X013694Y011230D01*
X013691Y011233D01*
X013683Y011233D01*
X013698Y011230D02*
X013698Y011222D01*
X013704Y011222D02*
X013704Y011230D01*
X013701Y011233D01*
X013698Y011230D01*
X013704Y011230D02*
X013707Y011233D01*
X013709Y011233D01*
X013709Y011222D01*
X013725Y011222D02*
X013714Y011238D01*
X013729Y011233D02*
X013737Y011233D01*
X013740Y011230D01*
X013737Y011227D01*
X013732Y011227D01*
X013729Y011225D01*
X013732Y011222D01*
X013740Y011222D01*
X013744Y011233D02*
X013747Y011233D01*
X013753Y011227D01*
X013757Y011227D02*
X013768Y011227D01*
X013768Y011225D02*
X013768Y011230D01*
X013765Y011233D01*
X013760Y011233D01*
X013757Y011230D01*
X013757Y011227D01*
X013760Y011222D02*
X013765Y011222D01*
X013768Y011225D01*
X013772Y011225D02*
X013775Y011227D01*
X013780Y011227D01*
X013783Y011230D01*
X013780Y011233D01*
X013772Y011233D01*
X013772Y011225D02*
X013775Y011222D01*
X013783Y011222D01*
X013787Y011225D02*
X013787Y011238D01*
X013798Y011238D02*
X013798Y011225D01*
X013796Y011222D01*
X013790Y011222D01*
X013787Y011225D01*
X013803Y011238D02*
X013814Y011222D01*
X013819Y011222D02*
X013821Y011222D01*
X013821Y011225D01*
X013819Y011225D01*
X013819Y011222D01*
X013826Y011225D02*
X013828Y011222D01*
X013834Y011222D01*
X013837Y011225D01*
X013837Y011236D01*
X013834Y011238D01*
X013828Y011238D01*
X013826Y011236D01*
X013821Y011233D02*
X013821Y011230D01*
X013819Y011230D01*
X013819Y011233D01*
X013821Y011233D01*
X013753Y011222D02*
X013753Y011233D01*
X013623Y011222D02*
X013623Y011233D01*
X013356Y011233D02*
X013348Y011233D01*
X013345Y011230D01*
X013356Y011233D02*
X013356Y011216D01*
X017407Y017820D02*
X017409Y017870D01*
X017415Y017920D01*
X017425Y017969D01*
X017439Y018017D01*
X017456Y018064D01*
X017477Y018109D01*
X017502Y018153D01*
X017530Y018194D01*
X017562Y018233D01*
X017596Y018270D01*
X017633Y018304D01*
X017673Y018334D01*
X017715Y018361D01*
X017759Y018385D01*
X017805Y018406D01*
X017852Y018422D01*
X017900Y018435D01*
X017950Y018444D01*
X017999Y018449D01*
X018050Y018450D01*
X018100Y018447D01*
X018149Y018440D01*
X018198Y018429D01*
X018246Y018414D01*
X018292Y018396D01*
X018337Y018374D01*
X018380Y018348D01*
X018421Y018319D01*
X018460Y018287D01*
X018496Y018252D01*
X018528Y018214D01*
X018558Y018174D01*
X018585Y018131D01*
X018608Y018087D01*
X018627Y018041D01*
X018643Y017993D01*
X018655Y017944D01*
X018663Y017895D01*
X018667Y017845D01*
X018667Y017795D01*
X018663Y017745D01*
X018655Y017696D01*
X018643Y017647D01*
X018627Y017599D01*
X018608Y017553D01*
X018585Y017509D01*
X018558Y017466D01*
X018528Y017426D01*
X018496Y017388D01*
X018460Y017353D01*
X018421Y017321D01*
X018380Y017292D01*
X018337Y017266D01*
X018292Y017244D01*
X018246Y017226D01*
X018198Y017211D01*
X018149Y017200D01*
X018100Y017193D01*
X018050Y017190D01*
X017999Y017191D01*
X017950Y017196D01*
X017900Y017205D01*
X017852Y017218D01*
X017805Y017234D01*
X017759Y017255D01*
X017715Y017279D01*
X017673Y017306D01*
X017633Y017336D01*
X017596Y017370D01*
X017562Y017407D01*
X017530Y017446D01*
X017502Y017487D01*
X017477Y017531D01*
X017456Y017576D01*
X017439Y017623D01*
X017425Y017671D01*
X017415Y017720D01*
X017409Y017770D01*
X017407Y017820D01*
D11*
X018361Y015025D02*
X018697Y015025D01*
X018742Y014581D01*
X018842Y014552D01*
X018939Y014512D01*
X019031Y014461D01*
X019377Y014744D01*
X019615Y014506D01*
X019332Y014160D01*
X019383Y014068D01*
X019423Y013971D01*
X019452Y013871D01*
X019897Y013826D01*
X019897Y013490D01*
X019452Y013445D01*
X019423Y013344D01*
X019383Y013247D01*
X019332Y013156D01*
X019615Y012809D01*
X019377Y012572D01*
X019031Y012854D01*
X018963Y012816D01*
X018891Y012783D01*
X018694Y013260D01*
X018758Y013293D01*
X018816Y013337D01*
X018866Y013389D01*
X018906Y013449D01*
X018935Y013516D01*
X018953Y013586D01*
X018959Y013658D01*
X018952Y013738D01*
X018929Y013816D01*
X018893Y013888D01*
X018844Y013952D01*
X018783Y014005D01*
X018714Y014047D01*
X018638Y014074D01*
X018558Y014087D01*
X018478Y014085D01*
X018399Y014068D01*
X018324Y014037D01*
X018257Y013992D01*
X018200Y013935D01*
X018154Y013869D01*
X018121Y013795D01*
X018102Y013716D01*
X018099Y013636D01*
X018110Y013556D01*
X018137Y013479D01*
X018177Y013409D01*
X018230Y013348D01*
X018293Y013298D01*
X018364Y013260D01*
X018166Y012783D01*
X018095Y012816D01*
X018027Y012854D01*
X017680Y012572D01*
X017443Y012809D01*
X017725Y013156D01*
X017675Y013247D01*
X017635Y013344D01*
X017606Y013445D01*
X017161Y013490D01*
X017161Y013826D01*
X017606Y013871D01*
X017635Y013971D01*
X017675Y014068D01*
X017725Y014160D01*
X017443Y014506D01*
X017680Y014744D01*
X018027Y014461D01*
X018119Y014512D01*
X018215Y014552D01*
X018316Y014581D01*
X018361Y015025D01*
X018359Y015008D02*
X018699Y015008D01*
X018704Y014950D02*
X018353Y014950D01*
X018347Y014893D02*
X018710Y014893D01*
X018716Y014835D02*
X018342Y014835D01*
X018336Y014778D02*
X018722Y014778D01*
X018728Y014720D02*
X018330Y014720D01*
X018324Y014663D02*
X018734Y014663D01*
X018739Y014605D02*
X018318Y014605D01*
X018205Y014548D02*
X018852Y014548D01*
X018979Y014490D02*
X018079Y014490D01*
X017992Y014490D02*
X017456Y014490D01*
X017484Y014548D02*
X017921Y014548D01*
X017850Y014605D02*
X017542Y014605D01*
X017600Y014663D02*
X017780Y014663D01*
X017709Y014720D02*
X017657Y014720D01*
X017503Y014432D02*
X019555Y014432D01*
X019508Y014375D02*
X017550Y014375D01*
X017597Y014317D02*
X019461Y014317D01*
X019414Y014260D02*
X017644Y014260D01*
X017691Y014202D02*
X019367Y014202D01*
X019341Y014145D02*
X017717Y014145D01*
X017685Y014087D02*
X018548Y014087D01*
X018560Y014087D02*
X019372Y014087D01*
X019399Y014030D02*
X018742Y014030D01*
X018821Y013972D02*
X019423Y013972D01*
X019439Y013914D02*
X018872Y013914D01*
X018909Y013857D02*
X019589Y013857D01*
X019897Y013799D02*
X018934Y013799D01*
X018951Y013742D02*
X019897Y013742D01*
X019897Y013684D02*
X018957Y013684D01*
X018957Y013627D02*
X019897Y013627D01*
X019897Y013569D02*
X018949Y013569D01*
X018934Y013512D02*
X019897Y013512D01*
X019544Y013454D02*
X018908Y013454D01*
X018870Y013396D02*
X019438Y013396D01*
X019421Y013339D02*
X018818Y013339D01*
X018735Y013281D02*
X019397Y013281D01*
X019370Y013224D02*
X018709Y013224D01*
X018732Y013166D02*
X019338Y013166D01*
X019371Y013109D02*
X018756Y013109D01*
X018780Y013051D02*
X019418Y013051D01*
X019465Y012994D02*
X018804Y012994D01*
X018828Y012936D02*
X019511Y012936D01*
X019558Y012878D02*
X018852Y012878D01*
X018876Y012821D02*
X018972Y012821D01*
X019072Y012821D02*
X019605Y012821D01*
X019569Y012763D02*
X019142Y012763D01*
X019213Y012706D02*
X019511Y012706D01*
X019453Y012648D02*
X019284Y012648D01*
X019354Y012591D02*
X019396Y012591D01*
X018349Y013224D02*
X017688Y013224D01*
X017661Y013281D02*
X018324Y013281D01*
X018241Y013339D02*
X017637Y013339D01*
X017620Y013396D02*
X018188Y013396D01*
X018151Y013454D02*
X017514Y013454D01*
X017161Y013512D02*
X018126Y013512D01*
X018109Y013569D02*
X017161Y013569D01*
X017161Y013627D02*
X018100Y013627D01*
X018101Y013684D02*
X017161Y013684D01*
X017161Y013742D02*
X018108Y013742D01*
X018123Y013799D02*
X017161Y013799D01*
X017468Y013857D02*
X018148Y013857D01*
X018185Y013914D02*
X017618Y013914D01*
X017635Y013972D02*
X018237Y013972D01*
X018314Y014030D02*
X017659Y014030D01*
X017720Y013166D02*
X018325Y013166D01*
X018301Y013109D02*
X017687Y013109D01*
X017640Y013051D02*
X018278Y013051D01*
X018254Y012994D02*
X017593Y012994D01*
X017546Y012936D02*
X018230Y012936D01*
X018206Y012878D02*
X017499Y012878D01*
X017452Y012821D02*
X017986Y012821D01*
X017915Y012763D02*
X017489Y012763D01*
X017547Y012706D02*
X017845Y012706D01*
X017774Y012648D02*
X017604Y012648D01*
X017662Y012591D02*
X017703Y012591D01*
X018086Y012821D02*
X018182Y012821D01*
X019066Y014490D02*
X019602Y014490D01*
X019573Y014548D02*
X019137Y014548D01*
X019207Y014605D02*
X019516Y014605D01*
X019458Y014663D02*
X019278Y014663D01*
X019349Y014720D02*
X019401Y014720D01*
D12*
X020850Y014329D02*
X020850Y014281D01*
X020899Y014232D01*
X020850Y014184D01*
X020850Y014136D01*
X020899Y014087D01*
X020995Y014087D01*
X021044Y014136D01*
X020947Y014232D02*
X020899Y014232D01*
X020850Y014329D02*
X020899Y014378D01*
X020995Y014378D01*
X021044Y014329D01*
X021145Y014329D02*
X021193Y014378D01*
X021338Y014378D01*
X021338Y014087D01*
X021338Y014184D02*
X021193Y014184D01*
X021145Y014232D01*
X021145Y014329D01*
X021440Y014378D02*
X021633Y014378D01*
X021536Y014378D02*
X021536Y014087D01*
X021536Y013227D02*
X021536Y012937D01*
X021338Y012937D02*
X021338Y013227D01*
X021193Y013227D01*
X021145Y013179D01*
X021145Y013082D01*
X021193Y013034D01*
X021338Y013034D01*
X021440Y013227D02*
X021633Y013227D01*
X021044Y013130D02*
X020947Y013227D01*
X020947Y012937D01*
X021044Y012937D02*
X020850Y012937D01*
X020950Y015162D02*
X021144Y015162D01*
X020950Y015356D01*
X020950Y015404D01*
X020999Y015452D01*
X021095Y015452D01*
X021144Y015404D01*
X021245Y015404D02*
X021245Y015307D01*
X021293Y015259D01*
X021438Y015259D01*
X021438Y015162D02*
X021438Y015452D01*
X021293Y015452D01*
X021245Y015404D01*
X021540Y015452D02*
X021733Y015452D01*
X021636Y015452D02*
X021636Y015162D01*
X008112Y016989D02*
X007918Y016989D01*
X008015Y016989D02*
X008015Y016698D01*
X007817Y016698D02*
X007817Y016989D01*
X007672Y016989D01*
X007623Y016940D01*
X007623Y016843D01*
X007672Y016795D01*
X007817Y016795D01*
X007522Y016795D02*
X007474Y016843D01*
X007377Y016843D01*
X007329Y016795D01*
X007329Y016747D01*
X007377Y016698D01*
X007474Y016698D01*
X007522Y016747D01*
X007522Y016795D01*
X007474Y016843D02*
X007522Y016892D01*
X007522Y016940D01*
X007474Y016989D01*
X007377Y016989D01*
X007329Y016940D01*
X007329Y016892D01*
X007377Y016843D01*
D13*
X011693Y017525D03*
X013476Y011263D03*
X009818Y011263D03*
D14*
X008595Y011263D03*
D15*
X008570Y011272D03*
X009789Y011272D03*
X009789Y012607D03*
X008570Y012607D03*
X009449Y015037D03*
X009449Y017152D03*
X011664Y017542D03*
X012344Y017152D03*
X012344Y015037D03*
X013447Y011272D03*
D16*
X011987Y011272D03*
X012476Y016970D03*
X009316Y016970D03*
D17*
X008031Y012366D03*
X011340Y012366D03*
X011340Y012375D03*
X011340Y012391D03*
X011340Y012400D03*
X011340Y012425D03*
X011340Y012441D03*
X011340Y012350D03*
X011340Y012342D03*
X011340Y012317D03*
X011340Y012300D03*
X011340Y012275D03*
X011340Y012250D03*
X011340Y012234D03*
X011340Y012209D03*
X011340Y012201D03*
X011340Y012184D03*
X011340Y012176D03*
X011340Y012151D03*
X011340Y012134D03*
X011340Y012109D03*
X011340Y012084D03*
X011340Y012060D03*
X011340Y012043D03*
X011340Y012018D03*
X011340Y012010D03*
X011340Y011993D03*
X011340Y011985D03*
X011340Y011960D03*
X011340Y011943D03*
X011340Y011919D03*
X011340Y011894D03*
X011340Y011869D03*
X011340Y011852D03*
X011340Y011827D03*
X011340Y011819D03*
X011340Y011802D03*
X011340Y011794D03*
X011340Y011769D03*
X011340Y011753D03*
X011340Y011728D03*
X011340Y011703D03*
X011340Y011686D03*
X011340Y011661D03*
X011340Y011653D03*
X011340Y011637D03*
X011340Y011628D03*
X011340Y011612D03*
X011340Y011603D03*
X011340Y011579D03*
X011340Y011562D03*
X011340Y011537D03*
X011340Y011512D03*
X011340Y011496D03*
X011340Y011471D03*
X011340Y011462D03*
X011340Y011446D03*
X011340Y011438D03*
X011340Y011413D03*
X011340Y011396D03*
X011340Y011371D03*
X011340Y011346D03*
X011340Y011321D03*
X011340Y011305D03*
X011340Y011280D03*
X011340Y011272D03*
X013762Y011438D03*
X013762Y011446D03*
X013762Y011462D03*
X013762Y011471D03*
X013762Y011496D03*
X013762Y011512D03*
X013762Y011537D03*
X013762Y011562D03*
X013762Y011579D03*
X013762Y011603D03*
X013762Y011612D03*
X013762Y011628D03*
X013762Y011637D03*
X013762Y011653D03*
X013762Y011661D03*
X013762Y011686D03*
X013762Y011703D03*
X013762Y011728D03*
X013762Y011753D03*
X013762Y011769D03*
X013762Y011794D03*
X013762Y011802D03*
X013762Y011819D03*
X013762Y011827D03*
X013762Y011852D03*
X013762Y012018D03*
X013762Y012043D03*
X013762Y012060D03*
X013762Y012084D03*
X013762Y012109D03*
X013762Y012134D03*
X013762Y012151D03*
X013762Y012176D03*
X013762Y012184D03*
X013762Y012201D03*
X013762Y012209D03*
X013762Y012234D03*
X013762Y012250D03*
X013762Y012275D03*
X013762Y012300D03*
X013762Y012317D03*
X013762Y012342D03*
X013762Y012350D03*
X013762Y012366D03*
X013762Y012375D03*
X013762Y012391D03*
X013762Y012400D03*
X013762Y012425D03*
X013762Y012441D03*
D18*
X012908Y012350D03*
X012899Y012317D03*
X012899Y012300D03*
X012899Y012275D03*
X012899Y012250D03*
X012899Y012234D03*
X012899Y012209D03*
X012899Y012201D03*
X012899Y012184D03*
X012899Y012176D03*
X012899Y012151D03*
X012543Y012151D03*
X012543Y012134D03*
X012543Y012109D03*
X012543Y012084D03*
X012543Y012060D03*
X012543Y012043D03*
X012543Y012018D03*
X012543Y012010D03*
X012543Y011993D03*
X012543Y011985D03*
X012543Y011960D03*
X012543Y011943D03*
X012543Y011919D03*
X012543Y011894D03*
X012543Y011869D03*
X012543Y011852D03*
X012543Y011827D03*
X012543Y011819D03*
X012543Y011802D03*
X012543Y011794D03*
X012543Y011769D03*
X012543Y011753D03*
X012543Y011728D03*
X012543Y011703D03*
X012543Y011686D03*
X012543Y011661D03*
X012543Y011653D03*
X012543Y011637D03*
X012543Y011628D03*
X012543Y011612D03*
X012543Y011603D03*
X012543Y011579D03*
X012543Y011562D03*
X012899Y011562D03*
X012899Y011579D03*
X012899Y011603D03*
X012899Y011612D03*
X012899Y011628D03*
X012899Y011637D03*
X012899Y011653D03*
X012899Y011661D03*
X012899Y011686D03*
X012899Y011703D03*
X012899Y011728D03*
X012908Y011753D03*
X012543Y012176D03*
X012543Y012184D03*
X012543Y012201D03*
X012543Y012209D03*
X012543Y012234D03*
X012543Y012250D03*
X012543Y012275D03*
X012543Y012300D03*
X012543Y012317D03*
X011788Y014200D03*
X010469Y012350D03*
X010461Y012317D03*
X010461Y012300D03*
X010461Y012275D03*
X010461Y012250D03*
X010461Y012234D03*
X010461Y012209D03*
X010461Y012201D03*
X010461Y012184D03*
X010461Y012176D03*
X010461Y012151D03*
X010461Y012134D03*
X010461Y012109D03*
X010461Y012084D03*
X010461Y012060D03*
X010461Y012043D03*
X010461Y012018D03*
X010461Y012010D03*
X010461Y011993D03*
X010461Y011985D03*
X010461Y011960D03*
X010461Y011943D03*
X010461Y011919D03*
X010461Y011894D03*
X010461Y011869D03*
X010461Y011852D03*
X010461Y011827D03*
X010461Y011819D03*
X010461Y011802D03*
X010461Y011794D03*
X010461Y011769D03*
X010461Y011753D03*
X010461Y011728D03*
X010461Y011703D03*
X010461Y011686D03*
X010461Y011661D03*
X010461Y011653D03*
X010461Y011637D03*
X010461Y011628D03*
X010461Y011612D03*
X010461Y011603D03*
X010461Y011579D03*
X010461Y011562D03*
X010461Y011537D03*
X010461Y011512D03*
X010461Y011496D03*
X010461Y011471D03*
X010461Y011462D03*
X010461Y011446D03*
X010461Y011438D03*
X010461Y011413D03*
X010461Y011396D03*
X010461Y011371D03*
X010461Y011346D03*
X010461Y011321D03*
X010461Y011305D03*
X010461Y011280D03*
X010461Y011272D03*
X009250Y011512D03*
X009242Y011562D03*
X009242Y011579D03*
X009242Y011603D03*
X009242Y011612D03*
X009242Y011628D03*
X009242Y011637D03*
X009242Y011653D03*
X009242Y011661D03*
X009242Y011686D03*
X009242Y011703D03*
X009242Y011728D03*
X008885Y011728D03*
X008885Y011753D03*
X008885Y011769D03*
X008885Y011794D03*
X008885Y011802D03*
X008885Y011819D03*
X008885Y011827D03*
X008885Y011852D03*
X008885Y011869D03*
X008885Y011894D03*
X008885Y011919D03*
X008885Y011943D03*
X008885Y011960D03*
X008885Y011985D03*
X008885Y011993D03*
X008885Y012010D03*
X008885Y012018D03*
X008885Y012043D03*
X008885Y012060D03*
X008885Y012084D03*
X008885Y012109D03*
X008885Y012134D03*
X008885Y012151D03*
X008885Y012176D03*
X008885Y012184D03*
X008885Y012201D03*
X008885Y012209D03*
X008885Y012234D03*
X008885Y012250D03*
X008885Y012275D03*
X008885Y012300D03*
X008885Y012317D03*
X008885Y012342D03*
X008885Y012350D03*
X008885Y012366D03*
X008885Y012375D03*
X008885Y012391D03*
X008885Y012400D03*
X008885Y012425D03*
X008885Y012441D03*
X009242Y012317D03*
X009242Y012300D03*
X009242Y012275D03*
X009242Y012250D03*
X009242Y012234D03*
X009242Y012209D03*
X009242Y012201D03*
X009242Y012184D03*
X009242Y012176D03*
X009242Y012151D03*
X008885Y011703D03*
X008885Y011686D03*
X008885Y011661D03*
X008885Y011653D03*
X008885Y011637D03*
X008885Y011628D03*
X008885Y011612D03*
X008885Y011603D03*
X008885Y011579D03*
X008885Y011562D03*
X008885Y011537D03*
X008885Y011512D03*
X008885Y011496D03*
X008885Y011471D03*
X008885Y011462D03*
X008885Y011446D03*
X008885Y011438D03*
X008022Y011537D03*
X008022Y011562D03*
X008022Y011579D03*
X008022Y011603D03*
X008022Y011612D03*
X008022Y011628D03*
X008022Y011637D03*
X008022Y011653D03*
X008022Y011661D03*
X008022Y011686D03*
X008022Y011703D03*
X008022Y011728D03*
X008022Y011753D03*
X008022Y011769D03*
X008022Y011794D03*
X008022Y011802D03*
X008022Y011819D03*
X008022Y011827D03*
X008022Y011852D03*
X008022Y011869D03*
X008022Y011894D03*
X008022Y011919D03*
X008022Y011943D03*
X008022Y011960D03*
X008022Y011985D03*
X008022Y011993D03*
X008022Y012010D03*
X008022Y012018D03*
X008022Y012043D03*
X008022Y012060D03*
X008022Y012084D03*
X008022Y012109D03*
X008022Y012134D03*
X008022Y012151D03*
X008022Y012176D03*
X008022Y012184D03*
X008022Y012201D03*
X008022Y012209D03*
X008022Y012234D03*
X008022Y012250D03*
X008022Y012275D03*
X008022Y012300D03*
X008022Y012317D03*
X008022Y012342D03*
X010005Y017990D03*
D19*
X009486Y014996D03*
X010896Y014805D03*
X009777Y011280D03*
X013434Y011280D03*
D20*
X013451Y012607D03*
X012008Y011280D03*
X012364Y015062D03*
X012364Y017127D03*
X009428Y017127D03*
X009412Y015087D03*
X009428Y015062D03*
D21*
X009499Y017210D03*
X012294Y017210D03*
X009656Y011960D03*
X009656Y011919D03*
X008553Y011280D03*
D22*
X008545Y011288D03*
X009648Y011977D03*
X009764Y011288D03*
X013422Y011288D03*
X012269Y017243D03*
X009524Y017243D03*
D23*
X009474Y015004D03*
X012319Y015004D03*
X012020Y011288D03*
D24*
X011340Y011288D03*
X011340Y011313D03*
X011340Y011338D03*
X011340Y011355D03*
X011340Y011379D03*
X011340Y011404D03*
X011340Y011429D03*
X011340Y011479D03*
X011340Y011504D03*
X011340Y011529D03*
X011340Y011545D03*
X011340Y011570D03*
X011340Y011595D03*
X011340Y011670D03*
X011340Y011695D03*
X011340Y011720D03*
X011340Y011736D03*
X011340Y011761D03*
X011340Y011786D03*
X011340Y011836D03*
X011340Y011861D03*
X011340Y011885D03*
X011340Y011910D03*
X011340Y011927D03*
X011340Y011952D03*
X011340Y011977D03*
X011340Y012026D03*
X011340Y012051D03*
X011340Y012076D03*
X011340Y012093D03*
X011340Y012118D03*
X011340Y012143D03*
X011340Y012167D03*
X011340Y012217D03*
X011340Y012242D03*
X011340Y012267D03*
X011340Y012284D03*
X011340Y012308D03*
X011340Y012333D03*
X011340Y012408D03*
X011340Y012433D03*
X011340Y012458D03*
X013762Y012458D03*
X013762Y012433D03*
X013762Y012408D03*
X013762Y012333D03*
X013762Y012308D03*
X013762Y012284D03*
X013762Y012267D03*
X013762Y012242D03*
X013762Y012217D03*
X013762Y012167D03*
X013762Y012143D03*
X013762Y012118D03*
X013762Y012093D03*
X013762Y012076D03*
X013762Y012051D03*
X013762Y012026D03*
X013762Y011836D03*
X013762Y011786D03*
X013762Y011761D03*
X013762Y011736D03*
X013762Y011720D03*
X013762Y011695D03*
X013762Y011670D03*
X013762Y011595D03*
X013762Y011570D03*
X013762Y011545D03*
X013762Y011529D03*
X013762Y011504D03*
X013762Y011479D03*
X013762Y011429D03*
D25*
X012908Y011529D03*
X012899Y011570D03*
X012899Y011595D03*
X012899Y011670D03*
X012899Y011695D03*
X012899Y011720D03*
X012908Y011761D03*
X012908Y012118D03*
X012899Y012167D03*
X012899Y012217D03*
X012899Y012242D03*
X012899Y012267D03*
X012899Y012284D03*
X012899Y012308D03*
X012543Y012308D03*
X012543Y012284D03*
X012543Y012267D03*
X012543Y012242D03*
X012543Y012217D03*
X012543Y012167D03*
X012543Y012143D03*
X012543Y012118D03*
X012543Y012093D03*
X012543Y012076D03*
X012543Y012051D03*
X012543Y012026D03*
X012543Y011977D03*
X012543Y011952D03*
X012543Y011927D03*
X012543Y011910D03*
X012543Y011885D03*
X012543Y011861D03*
X012543Y011836D03*
X012543Y011786D03*
X012543Y011761D03*
X012543Y011736D03*
X012543Y011720D03*
X012543Y011695D03*
X012543Y011670D03*
X012543Y011595D03*
X012543Y011570D03*
X012543Y012333D03*
X010461Y012308D03*
X010461Y012284D03*
X010461Y012267D03*
X010461Y012242D03*
X010461Y012217D03*
X010461Y012167D03*
X010461Y012143D03*
X010461Y012118D03*
X010461Y012093D03*
X010461Y012076D03*
X010461Y012051D03*
X010461Y012026D03*
X010461Y011977D03*
X010461Y011952D03*
X010461Y011927D03*
X010461Y011910D03*
X010461Y011885D03*
X010461Y011861D03*
X010461Y011836D03*
X010461Y011786D03*
X010461Y011761D03*
X010461Y011736D03*
X010461Y011720D03*
X010461Y011695D03*
X010461Y011670D03*
X010461Y011595D03*
X010461Y011570D03*
X010461Y011545D03*
X010461Y011529D03*
X010461Y011504D03*
X010461Y011479D03*
X010461Y011429D03*
X010461Y011404D03*
X010461Y011379D03*
X010461Y011355D03*
X010461Y011338D03*
X010461Y011313D03*
X010461Y011288D03*
X009242Y011545D03*
X009242Y011570D03*
X009242Y011595D03*
X009242Y011670D03*
X009242Y011695D03*
X009242Y011720D03*
X009242Y011736D03*
X009250Y011761D03*
X009250Y012118D03*
X009242Y012143D03*
X009242Y012167D03*
X009242Y012217D03*
X009242Y012242D03*
X009242Y012267D03*
X009242Y012284D03*
X009242Y012308D03*
X009242Y012333D03*
X008885Y012333D03*
X008885Y012308D03*
X008885Y012284D03*
X008885Y012267D03*
X008885Y012242D03*
X008885Y012217D03*
X008885Y012167D03*
X008885Y012143D03*
X008885Y012118D03*
X008885Y012093D03*
X008885Y012076D03*
X008885Y012051D03*
X008885Y012026D03*
X008885Y011977D03*
X008885Y011952D03*
X008885Y011927D03*
X008885Y011910D03*
X008885Y011885D03*
X008885Y011861D03*
X008885Y011836D03*
X008885Y011786D03*
X008885Y011761D03*
X008885Y011736D03*
X008885Y011720D03*
X008885Y011695D03*
X008885Y011670D03*
X008885Y011595D03*
X008885Y011570D03*
X008885Y011545D03*
X008885Y011529D03*
X008885Y011504D03*
X008885Y011479D03*
X008885Y011429D03*
X008022Y011545D03*
X008022Y011570D03*
X008022Y011595D03*
X008022Y011670D03*
X008022Y011695D03*
X008022Y011720D03*
X008022Y011736D03*
X008022Y011761D03*
X008022Y011786D03*
X008022Y011836D03*
X008022Y011861D03*
X008022Y011885D03*
X008022Y011910D03*
X008022Y011927D03*
X008022Y011952D03*
X008022Y011977D03*
X008022Y012026D03*
X008022Y012051D03*
X008022Y012076D03*
X008022Y012093D03*
X008022Y012118D03*
X008022Y012143D03*
X008022Y012167D03*
X008022Y012217D03*
X008022Y012242D03*
X008022Y012267D03*
X008022Y012284D03*
X008022Y012308D03*
X008022Y012333D03*
X008885Y012408D03*
X008885Y012433D03*
X008885Y012458D03*
X010021Y014191D03*
X012568Y014880D03*
X011771Y017998D03*
X009225Y017310D03*
D26*
X009549Y014921D03*
X009756Y012582D03*
X009756Y011297D03*
X013414Y011297D03*
X013414Y012582D03*
X012244Y017268D03*
D27*
X012033Y011297D03*
D28*
X011340Y011297D03*
X011340Y011330D03*
X011340Y011363D03*
X011340Y011388D03*
X011340Y011421D03*
X011340Y011487D03*
X011340Y011520D03*
X011340Y011554D03*
X011340Y011587D03*
X011340Y011678D03*
X011340Y011711D03*
X011340Y011744D03*
X011340Y011778D03*
X011340Y011844D03*
X011340Y011877D03*
X011340Y011902D03*
X011340Y011935D03*
X011340Y011968D03*
X011340Y012035D03*
X011340Y012068D03*
X011340Y012101D03*
X011340Y012126D03*
X011340Y012159D03*
X011340Y012225D03*
X011340Y012259D03*
X011340Y012292D03*
X011340Y012325D03*
X011340Y012416D03*
X011340Y012449D03*
X013762Y012449D03*
X013762Y012416D03*
X013762Y012325D03*
X013762Y012292D03*
X013762Y012259D03*
X013762Y012225D03*
X013762Y012159D03*
X013762Y012126D03*
X013762Y012101D03*
X013762Y012068D03*
X013762Y012035D03*
X013762Y011844D03*
X013762Y011778D03*
X013762Y011744D03*
X013762Y011711D03*
X013762Y011678D03*
X013762Y011587D03*
X013762Y011554D03*
X013762Y011520D03*
X013762Y011487D03*
X013762Y011421D03*
D29*
X012908Y011520D03*
X012899Y011554D03*
X012899Y011587D03*
X012899Y011678D03*
X012899Y011711D03*
X012543Y011711D03*
X012543Y011678D03*
X012543Y011744D03*
X012543Y011778D03*
X012543Y011844D03*
X012543Y011877D03*
X012543Y011902D03*
X012543Y011935D03*
X012543Y011968D03*
X012543Y012035D03*
X012543Y012068D03*
X012543Y012101D03*
X012543Y012126D03*
X012543Y012159D03*
X012543Y012225D03*
X012543Y012259D03*
X012543Y012292D03*
X012543Y012325D03*
X012899Y012325D03*
X012899Y012292D03*
X012899Y012259D03*
X012899Y012225D03*
X012899Y012159D03*
X012908Y012126D03*
X012543Y011587D03*
X012543Y011554D03*
X012534Y011520D03*
X010461Y011520D03*
X010461Y011487D03*
X010461Y011421D03*
X010461Y011388D03*
X010461Y011363D03*
X010461Y011330D03*
X010461Y011297D03*
X010461Y011554D03*
X010461Y011587D03*
X010461Y011678D03*
X010461Y011711D03*
X010461Y011744D03*
X010461Y011778D03*
X010461Y011844D03*
X010461Y011877D03*
X010461Y011902D03*
X010461Y011935D03*
X010461Y011968D03*
X010461Y012035D03*
X010461Y012068D03*
X010461Y012101D03*
X010461Y012126D03*
X010461Y012159D03*
X010461Y012225D03*
X010461Y012259D03*
X010461Y012292D03*
X010461Y012325D03*
X009242Y012325D03*
X009242Y012292D03*
X009242Y012259D03*
X009242Y012225D03*
X009242Y012159D03*
X008885Y012159D03*
X008885Y012126D03*
X008885Y012101D03*
X008885Y012068D03*
X008885Y012035D03*
X008885Y011968D03*
X008885Y011935D03*
X008885Y011902D03*
X008885Y011877D03*
X008885Y011844D03*
X008885Y011778D03*
X008885Y011744D03*
X008885Y011711D03*
X008885Y011678D03*
X008885Y011587D03*
X008885Y011554D03*
X008885Y011520D03*
X008885Y011487D03*
X008885Y011421D03*
X009242Y011554D03*
X009242Y011587D03*
X009242Y011678D03*
X009242Y011711D03*
X008885Y012225D03*
X008885Y012259D03*
X008885Y012292D03*
X008885Y012325D03*
X008885Y012416D03*
X008885Y012449D03*
X008022Y012325D03*
X008022Y012292D03*
X008022Y012259D03*
X008022Y012225D03*
X008022Y012159D03*
X008022Y012126D03*
X008022Y012101D03*
X008022Y012068D03*
X008022Y012035D03*
X008022Y011968D03*
X008022Y011935D03*
X008022Y011902D03*
X008022Y011877D03*
X008022Y011844D03*
X008022Y011778D03*
X008022Y011744D03*
X008022Y011711D03*
X008022Y011678D03*
X008022Y011587D03*
X008022Y011554D03*
D30*
X008537Y011297D03*
X009640Y011877D03*
X008537Y012582D03*
D31*
X012049Y012566D03*
X013409Y011305D03*
D32*
X012041Y011305D03*
X011659Y014639D03*
D33*
X011630Y017559D03*
X009748Y011305D03*
X008528Y011305D03*
D34*
X009743Y011313D03*
X010979Y012574D03*
X013401Y011313D03*
D35*
X012045Y011313D03*
X012045Y012574D03*
X012252Y017260D03*
D36*
X008520Y011313D03*
D37*
X013397Y011321D03*
X013397Y012557D03*
X010154Y017559D03*
D38*
X012053Y011321D03*
D39*
X009735Y011321D03*
X008516Y011321D03*
X008516Y012557D03*
X009735Y012557D03*
D40*
X009731Y011330D03*
X013389Y011330D03*
D41*
X012058Y011330D03*
D42*
X008512Y011330D03*
D43*
X009727Y011338D03*
X012074Y011355D03*
X013385Y011338D03*
X010183Y014623D03*
D44*
X010896Y014307D03*
X012066Y011338D03*
D45*
X008503Y011338D03*
D46*
X013380Y011346D03*
X013380Y011943D03*
X013380Y012532D03*
D47*
X012070Y011346D03*
X010967Y012557D03*
D48*
X009723Y012532D03*
X009723Y011346D03*
X008503Y012532D03*
D49*
X008499Y011346D03*
X010896Y017368D03*
D50*
X011618Y014623D03*
X013376Y012524D03*
X013376Y011952D03*
X013376Y011927D03*
X013376Y011355D03*
X009719Y011355D03*
X009719Y012524D03*
D51*
X008495Y012524D03*
X008495Y011355D03*
X012087Y011379D03*
X012087Y012499D03*
D52*
X013372Y012516D03*
X013372Y011363D03*
X009714Y011363D03*
X009714Y012516D03*
X008495Y012516D03*
D53*
X012078Y011363D03*
X013380Y011935D03*
D54*
X013368Y011968D03*
X012091Y011388D03*
X008491Y011363D03*
X010017Y016107D03*
X011776Y016107D03*
D55*
X011776Y016115D03*
X011776Y016132D03*
X011776Y016091D03*
X011776Y016082D03*
X011776Y016066D03*
X011776Y016057D03*
X010017Y016066D03*
X010017Y016082D03*
X010017Y016091D03*
X010017Y016115D03*
X010017Y016132D03*
X009710Y012507D03*
X009710Y011371D03*
X008491Y012507D03*
X012091Y012491D03*
X012091Y011396D03*
X013368Y011371D03*
X013368Y012507D03*
D56*
X012082Y012507D03*
X010954Y012541D03*
X012082Y011371D03*
X010175Y017567D03*
D57*
X010021Y016182D03*
X010021Y016157D03*
X010021Y016057D03*
X010021Y016041D03*
X010021Y016033D03*
X010021Y016008D03*
X011771Y016008D03*
X011771Y016033D03*
X011771Y016041D03*
X011771Y016157D03*
X011771Y016182D03*
X008487Y011371D03*
D58*
X009706Y011379D03*
X009706Y012499D03*
X012095Y012474D03*
X012095Y011404D03*
X013364Y011379D03*
X013364Y011977D03*
X013364Y012499D03*
X011763Y016215D03*
D59*
X011771Y016165D03*
X011771Y016149D03*
X011771Y016024D03*
X010021Y016024D03*
X010021Y016149D03*
X010021Y016165D03*
X008487Y012499D03*
X008487Y011379D03*
D60*
X008483Y011388D03*
X009702Y011388D03*
X012099Y011421D03*
X013360Y011388D03*
X013360Y012483D03*
X010896Y014316D03*
X010896Y014830D03*
X011767Y015983D03*
X011767Y016207D03*
D61*
X011767Y016198D03*
X011759Y016223D03*
X011759Y016232D03*
X011767Y015991D03*
X011759Y015966D03*
X010034Y015966D03*
X010025Y015991D03*
X010025Y016198D03*
X010034Y016223D03*
X010034Y016232D03*
X009702Y012491D03*
X008483Y012491D03*
X010938Y012507D03*
X012099Y012466D03*
X012099Y011413D03*
X013360Y011396D03*
X013360Y011993D03*
X013360Y012491D03*
D62*
X013356Y012010D03*
X013356Y011869D03*
X009698Y011396D03*
X008479Y011396D03*
X010038Y015941D03*
X010038Y016248D03*
X010038Y016256D03*
X011755Y016256D03*
X011755Y016248D03*
X011755Y015941D03*
D63*
X011755Y015933D03*
X011589Y017575D03*
X013356Y012474D03*
X013356Y011404D03*
X009698Y011404D03*
X009698Y012474D03*
X008479Y012474D03*
D64*
X008474Y011404D03*
X010050Y015908D03*
X010050Y016290D03*
X011742Y016290D03*
D65*
X011751Y015925D03*
X010042Y015925D03*
X010929Y012491D03*
X013351Y012466D03*
X013351Y011413D03*
D66*
X009694Y011413D03*
X009694Y012466D03*
X008474Y012466D03*
X008474Y011413D03*
X010208Y014614D03*
X010050Y015900D03*
X011742Y015900D03*
D67*
X012982Y011421D03*
X008097Y011421D03*
D68*
X009320Y011421D03*
D69*
X009308Y011429D03*
X009308Y012026D03*
X012966Y012026D03*
X012966Y011429D03*
D70*
X012468Y011429D03*
X009325Y012458D03*
D71*
X008085Y011429D03*
D72*
X008072Y011438D03*
X008072Y012441D03*
X009291Y011438D03*
X010519Y012441D03*
X010013Y014208D03*
X012957Y012441D03*
X012957Y011438D03*
X012493Y011446D03*
D73*
X012481Y011438D03*
X009296Y012441D03*
D74*
X008060Y012425D03*
X012945Y012043D03*
X012945Y011446D03*
D75*
X012505Y011462D03*
X009287Y011446D03*
X009287Y012043D03*
X008068Y011446D03*
X010896Y014747D03*
D76*
X011340Y012383D03*
X011340Y012358D03*
X011340Y012192D03*
X011340Y012002D03*
X011340Y011811D03*
X011340Y011645D03*
X011340Y011620D03*
X011340Y011454D03*
X013762Y011454D03*
X013762Y011620D03*
X013762Y011645D03*
X013762Y011811D03*
X013762Y012192D03*
X013762Y012358D03*
X013762Y012383D03*
D77*
X012941Y011454D03*
X009283Y011454D03*
D78*
X011792Y014216D03*
X012497Y011454D03*
D79*
X012543Y011620D03*
X012543Y011645D03*
X012543Y011811D03*
X012543Y012002D03*
X012543Y012192D03*
X012534Y012358D03*
X012908Y012358D03*
X012899Y012192D03*
X012899Y011645D03*
X012899Y011620D03*
X010461Y011620D03*
X010461Y011645D03*
X010461Y011811D03*
X010461Y012002D03*
X010461Y012192D03*
X010469Y012358D03*
X010461Y011454D03*
X009242Y011620D03*
X009242Y011645D03*
X008885Y011645D03*
X008885Y011620D03*
X008885Y011454D03*
X008885Y011811D03*
X008885Y012002D03*
X008885Y012192D03*
X008885Y012358D03*
X008885Y012383D03*
X009242Y012192D03*
X008022Y012192D03*
X008022Y012002D03*
X008022Y011811D03*
X008022Y011645D03*
X008022Y011620D03*
D80*
X008060Y011454D03*
D81*
X012501Y012425D03*
X012933Y011462D03*
D82*
X012941Y011827D03*
X012510Y011471D03*
X012941Y012425D03*
X010502Y012425D03*
X009283Y012425D03*
X009275Y012060D03*
X009283Y011827D03*
X009275Y011819D03*
X009275Y011462D03*
X008056Y011462D03*
X009233Y017302D03*
D83*
X009237Y014871D03*
X010017Y014200D03*
X011792Y014208D03*
X012937Y012060D03*
X012937Y011819D03*
X012928Y011471D03*
X009271Y011471D03*
X008051Y011471D03*
X008043Y012400D03*
X012555Y017318D03*
X011776Y017990D03*
D84*
X012916Y012093D03*
X012924Y012076D03*
X012916Y011786D03*
X012924Y011479D03*
X009258Y011786D03*
X009258Y012093D03*
D85*
X009271Y012408D03*
X008051Y012408D03*
X008043Y011479D03*
X012514Y011479D03*
X012514Y012408D03*
X012928Y012408D03*
X010001Y017982D03*
D86*
X009267Y012076D03*
X009267Y011479D03*
D87*
X009258Y011487D03*
X008039Y011487D03*
X012916Y011487D03*
D88*
X012522Y011487D03*
X012928Y012068D03*
X009271Y012068D03*
D89*
X009258Y012084D03*
X009258Y011794D03*
X009258Y012391D03*
X008039Y012391D03*
X010477Y012391D03*
X010486Y012400D03*
X012518Y012400D03*
X012916Y012391D03*
X012924Y012400D03*
X012924Y011802D03*
X012924Y011794D03*
X012916Y011496D03*
D90*
X012526Y011496D03*
X012526Y012391D03*
X009267Y012400D03*
X009267Y011802D03*
D91*
X009254Y011769D03*
X009254Y011496D03*
X009254Y012109D03*
X009254Y012366D03*
X009254Y012375D03*
X008035Y012375D03*
X008027Y012350D03*
X008027Y011512D03*
X008035Y011496D03*
X010473Y012366D03*
X010473Y012375D03*
X012539Y012350D03*
X012539Y012342D03*
X012920Y012084D03*
X012539Y011537D03*
D92*
X012530Y011504D03*
X012904Y011545D03*
X012912Y011504D03*
X012904Y011736D03*
X012904Y012143D03*
X012904Y012333D03*
X010465Y012333D03*
X009246Y011529D03*
D93*
X009254Y011504D03*
X008035Y011504D03*
X008027Y011529D03*
X012539Y011529D03*
X012539Y011545D03*
X013758Y011861D03*
D94*
X012912Y011769D03*
X012904Y011537D03*
X012912Y011512D03*
X012530Y011512D03*
X012912Y012109D03*
X012904Y012134D03*
X012904Y012342D03*
X012912Y012366D03*
X012912Y012375D03*
X012530Y012375D03*
X012530Y012366D03*
X010465Y012342D03*
X009246Y012342D03*
X009246Y012350D03*
X009246Y012134D03*
X009246Y011753D03*
X009246Y011537D03*
D95*
X009246Y011520D03*
X009246Y011744D03*
X009246Y012126D03*
X012912Y012101D03*
X012912Y011778D03*
X012904Y011744D03*
D96*
X009254Y011778D03*
X009254Y012101D03*
X008027Y011520D03*
D97*
X009271Y011811D03*
X012928Y011811D03*
D98*
X012949Y011836D03*
X009291Y011836D03*
X009250Y014880D03*
X011780Y017982D03*
X012543Y017310D03*
D99*
X011784Y017973D03*
X009246Y017293D03*
X012962Y011844D03*
D100*
X012957Y012035D03*
X009300Y012035D03*
X009300Y011844D03*
D101*
X009312Y011852D03*
X012970Y011852D03*
D102*
X012995Y011861D03*
D103*
X009333Y011861D03*
D104*
X009636Y011869D03*
X009636Y012010D03*
D105*
X009698Y012483D03*
X008479Y012483D03*
X010038Y015950D03*
X011755Y015950D03*
X010900Y017874D03*
X013356Y011877D03*
D106*
X013360Y011885D03*
X011759Y015958D03*
X011759Y015974D03*
X011767Y015999D03*
X011767Y016190D03*
X010034Y016215D03*
X010025Y016190D03*
X010025Y015999D03*
X010034Y015974D03*
X010034Y015958D03*
D107*
X009644Y011885D03*
D108*
X013364Y011894D03*
X013364Y011985D03*
D109*
X012257Y014938D03*
X009536Y014938D03*
X009536Y017252D03*
X009644Y011993D03*
X009644Y011985D03*
X009644Y011894D03*
D110*
X010942Y012516D03*
X012095Y012483D03*
X013364Y011902D03*
X010030Y015983D03*
X010030Y016207D03*
D111*
X009515Y017235D03*
X012277Y017235D03*
X012037Y012582D03*
X009648Y011902D03*
D112*
X013368Y011910D03*
X011776Y016099D03*
X011776Y016124D03*
X010017Y016124D03*
X010017Y016099D03*
D113*
X010896Y017384D03*
X009652Y011910D03*
D114*
X010950Y012532D03*
X013372Y011960D03*
X013372Y011919D03*
D115*
X013434Y012599D03*
X009777Y012599D03*
X009660Y011952D03*
X009660Y011927D03*
X008557Y012599D03*
D116*
X009665Y011935D03*
D117*
X009665Y011943D03*
X012310Y014996D03*
X010121Y017542D03*
D118*
X009652Y011968D03*
D119*
X013356Y012002D03*
X010038Y016240D03*
D120*
X009640Y012002D03*
D121*
X012986Y012018D03*
X010896Y017443D03*
D122*
X012534Y017302D03*
X009325Y012018D03*
D123*
X009283Y012051D03*
X012941Y012051D03*
D124*
X009246Y012358D03*
D125*
X008035Y012383D03*
X008027Y012358D03*
D126*
X009258Y012383D03*
X010477Y012383D03*
X012916Y012383D03*
D127*
X012526Y012383D03*
D128*
X010490Y012408D03*
D129*
X010494Y012416D03*
X012933Y012416D03*
D130*
X012510Y012416D03*
X012559Y014888D03*
X009275Y012416D03*
X008056Y012416D03*
D131*
X012945Y012433D03*
D132*
X012497Y012433D03*
X010506Y012433D03*
X009287Y012433D03*
X008068Y012433D03*
D133*
X012489Y012441D03*
D134*
X012966Y012449D03*
X010527Y012449D03*
X009308Y012449D03*
D135*
X012476Y012449D03*
D136*
X008085Y012449D03*
D137*
X008097Y012458D03*
X010544Y012458D03*
X012982Y012458D03*
D138*
X012464Y012458D03*
X012539Y014905D03*
X009992Y017957D03*
X009254Y017285D03*
D139*
X010921Y012466D03*
D140*
X010925Y012474D03*
X011746Y015908D03*
X010195Y017575D03*
D141*
X010042Y016273D03*
X010042Y015916D03*
X011751Y015916D03*
X011751Y016273D03*
X010929Y012483D03*
D142*
X010934Y012499D03*
D143*
X012082Y012516D03*
D144*
X012078Y012524D03*
D145*
X010946Y012524D03*
D146*
X012074Y012532D03*
X013385Y012541D03*
X010896Y014822D03*
X009727Y012541D03*
X008508Y012541D03*
X011610Y017567D03*
D147*
X010971Y012566D03*
X012066Y012541D03*
D148*
X013389Y012549D03*
X009731Y012549D03*
D149*
X012062Y012549D03*
D150*
X010959Y012549D03*
D151*
X008512Y012549D03*
D152*
X009743Y012566D03*
X012058Y012557D03*
X013401Y012566D03*
D153*
X008524Y012566D03*
X010896Y017376D03*
D154*
X010896Y014813D03*
X013409Y012574D03*
D155*
X009748Y012574D03*
X008528Y012574D03*
D156*
X010983Y012582D03*
D157*
X010142Y014639D03*
X009511Y014963D03*
X009503Y014971D03*
X009511Y017227D03*
X012281Y017227D03*
X012290Y014971D03*
X012281Y014963D03*
X013426Y012590D03*
D158*
X012028Y012590D03*
D159*
X010992Y012590D03*
D160*
X009764Y012590D03*
X008545Y012590D03*
X009524Y014946D03*
X012269Y014946D03*
X012261Y017252D03*
X010900Y017890D03*
D161*
X012016Y012599D03*
D162*
X011004Y012599D03*
X012290Y017219D03*
X009503Y017219D03*
D163*
X012385Y015087D03*
X012004Y012607D03*
D164*
X011021Y012607D03*
D165*
X008595Y012615D03*
X013480Y012615D03*
D166*
X011975Y012615D03*
D167*
X011041Y012615D03*
X012468Y015211D03*
X012493Y015245D03*
X009325Y015211D03*
X009300Y016945D03*
D168*
X010100Y014664D03*
X009818Y012615D03*
D169*
X008790Y013154D03*
X008790Y013188D03*
X008790Y013221D03*
X008790Y013254D03*
X008790Y013320D03*
X008790Y013353D03*
X008790Y013378D03*
X008790Y013412D03*
X008790Y013445D03*
X008790Y013511D03*
X013003Y013511D03*
X013003Y013445D03*
X013003Y013412D03*
X013003Y013378D03*
X013003Y013353D03*
X013003Y013320D03*
X013003Y013254D03*
X013003Y013221D03*
X013003Y013188D03*
X013003Y013154D03*
X013003Y018678D03*
X013003Y018712D03*
X013003Y018745D03*
X013003Y018770D03*
X013003Y018803D03*
X013003Y018869D03*
X013003Y018902D03*
X013003Y018936D03*
X013003Y018969D03*
X008790Y018969D03*
X008790Y018936D03*
X008790Y018902D03*
X008790Y018869D03*
X008790Y018803D03*
X008790Y018770D03*
X008790Y018745D03*
X008790Y018712D03*
X008790Y018678D03*
D170*
X008790Y018687D03*
X008790Y018703D03*
X008790Y018728D03*
X008790Y018753D03*
X008790Y018778D03*
X008790Y018795D03*
X008790Y018819D03*
X008790Y018828D03*
X008790Y018844D03*
X008790Y018853D03*
X008790Y018877D03*
X008790Y018894D03*
X008790Y018919D03*
X008790Y018944D03*
X008790Y018960D03*
X008790Y018985D03*
X008790Y018994D03*
X008790Y019010D03*
X008790Y019018D03*
X008790Y019035D03*
X010896Y017161D03*
X013003Y018687D03*
X013003Y018703D03*
X013003Y018728D03*
X013003Y018753D03*
X013003Y018778D03*
X013003Y018795D03*
X013003Y018819D03*
X013003Y018828D03*
X013003Y018844D03*
X013003Y018853D03*
X013003Y018877D03*
X013003Y018894D03*
X013003Y018919D03*
X013003Y018944D03*
X013003Y018960D03*
X013003Y018985D03*
X013003Y018994D03*
X013003Y019010D03*
X013003Y019018D03*
X013003Y019035D03*
X013003Y013519D03*
X013003Y013494D03*
X013003Y013486D03*
X013003Y013470D03*
X013003Y013461D03*
X013003Y013436D03*
X013003Y013420D03*
X013003Y013395D03*
X013003Y013370D03*
X013003Y013345D03*
X013003Y013329D03*
X013003Y013304D03*
X013003Y013295D03*
X013003Y013279D03*
X013003Y013271D03*
X013003Y013246D03*
X013003Y013229D03*
X013003Y013204D03*
X013003Y013179D03*
X013003Y013163D03*
X008790Y013163D03*
X008790Y013179D03*
X008790Y013204D03*
X008790Y013229D03*
X008790Y013246D03*
X008790Y013271D03*
X008790Y013279D03*
X008790Y013295D03*
X008790Y013304D03*
X008790Y013329D03*
X008790Y013345D03*
X008790Y013370D03*
X008790Y013395D03*
X008790Y013420D03*
X008790Y013436D03*
X008790Y013461D03*
X008790Y013470D03*
X008790Y013486D03*
X008790Y013494D03*
X008790Y013519D03*
D171*
X008790Y013503D03*
X008790Y013453D03*
X008790Y013428D03*
X008790Y013403D03*
X008790Y013387D03*
X008790Y013362D03*
X008790Y013337D03*
X008790Y013312D03*
X008790Y013262D03*
X008790Y013237D03*
X008790Y013212D03*
X008790Y013196D03*
X008790Y013171D03*
X013003Y013171D03*
X013003Y013196D03*
X013003Y013212D03*
X013003Y013237D03*
X013003Y013262D03*
X013003Y013312D03*
X013003Y013337D03*
X013003Y013362D03*
X013003Y013387D03*
X013003Y013403D03*
X013003Y013428D03*
X013003Y013453D03*
X013003Y013503D03*
X013003Y018670D03*
X013003Y018695D03*
X013003Y018720D03*
X013003Y018736D03*
X013003Y018761D03*
X013003Y018786D03*
X013003Y018811D03*
X013003Y018861D03*
X013003Y018886D03*
X013003Y018911D03*
X013003Y018927D03*
X013003Y018952D03*
X013003Y018977D03*
X008790Y018977D03*
X008790Y018952D03*
X008790Y018927D03*
X008790Y018911D03*
X008790Y018886D03*
X008790Y018861D03*
X008790Y018811D03*
X008790Y018786D03*
X008790Y018761D03*
X008790Y018736D03*
X008790Y018720D03*
X008790Y018695D03*
X008790Y018670D03*
D172*
X008790Y018836D03*
X008790Y019002D03*
X008790Y019027D03*
X013003Y019027D03*
X013003Y019002D03*
X013003Y018836D03*
X013003Y013478D03*
X013003Y013287D03*
X008790Y013287D03*
X008790Y013478D03*
D173*
X008138Y013528D03*
X008138Y013553D03*
X008138Y013569D03*
X008138Y013594D03*
X008138Y013619D03*
X008138Y013644D03*
X008138Y013694D03*
X008138Y013718D03*
X008138Y013743D03*
X008138Y013760D03*
X008138Y013785D03*
X008138Y013810D03*
X008138Y013884D03*
X008138Y013909D03*
X008138Y013934D03*
X008138Y013951D03*
X008138Y013976D03*
X008138Y014000D03*
X008138Y014050D03*
X008138Y014075D03*
X008138Y014100D03*
X008138Y014125D03*
X008138Y014141D03*
X008138Y014166D03*
X008138Y014191D03*
X008138Y014241D03*
X008138Y014266D03*
X008138Y014291D03*
X008138Y014307D03*
X008138Y014332D03*
X008138Y014357D03*
X008138Y014382D03*
X008138Y014432D03*
X008138Y014457D03*
X008138Y014482D03*
X008138Y014498D03*
X008138Y014523D03*
X008138Y014548D03*
X008138Y014623D03*
X008138Y014647D03*
X008138Y014672D03*
X008138Y014689D03*
X008138Y014714D03*
X008138Y014739D03*
X008138Y014788D03*
X008138Y014813D03*
X009349Y015477D03*
X009333Y015527D03*
X009308Y016597D03*
X009325Y016646D03*
X009333Y016671D03*
X009349Y016713D03*
X008138Y017384D03*
X008138Y017409D03*
X008138Y017434D03*
X008138Y017451D03*
X008138Y017476D03*
X008138Y017501D03*
X008138Y017575D03*
X008138Y017600D03*
X008138Y017625D03*
X008138Y017642D03*
X008138Y017666D03*
X008138Y017691D03*
X008138Y017741D03*
X008138Y017766D03*
X008138Y017791D03*
X008138Y017816D03*
X008138Y017832D03*
X008138Y017857D03*
X008138Y017882D03*
X008138Y017932D03*
X008138Y017957D03*
X008138Y017982D03*
X008138Y017998D03*
X008138Y018023D03*
X008138Y018048D03*
X008138Y018073D03*
X008138Y018123D03*
X008138Y018148D03*
X008138Y018172D03*
X008138Y018189D03*
X008138Y018214D03*
X008138Y018239D03*
X008138Y018313D03*
X008138Y018338D03*
X008138Y018363D03*
X008138Y018380D03*
X008138Y018405D03*
X008138Y018430D03*
X008138Y018479D03*
X008138Y018504D03*
X008138Y018529D03*
X008138Y018554D03*
X008138Y018571D03*
X008138Y018595D03*
X008138Y018620D03*
X012443Y016713D03*
X012460Y016671D03*
X012468Y016646D03*
X012460Y015527D03*
X012443Y015477D03*
X013654Y014813D03*
X013654Y014788D03*
X013654Y014739D03*
X013654Y014714D03*
X013654Y014689D03*
X013654Y014672D03*
X013654Y014647D03*
X013654Y014623D03*
X013654Y014548D03*
X013654Y014523D03*
X013654Y014498D03*
X013654Y014482D03*
X013654Y014457D03*
X013654Y014432D03*
X013654Y014382D03*
X013654Y014357D03*
X013654Y014332D03*
X013654Y014307D03*
X013654Y014291D03*
X013654Y014266D03*
X013654Y014241D03*
X013654Y014191D03*
X013654Y014166D03*
X013654Y014141D03*
X013654Y014125D03*
X013654Y014100D03*
X013654Y014075D03*
X013654Y014050D03*
X013654Y014000D03*
X013654Y013976D03*
X013654Y013951D03*
X013654Y013934D03*
X013654Y013909D03*
X013654Y013884D03*
X013654Y013810D03*
X013654Y013785D03*
X013654Y013760D03*
X013654Y013743D03*
X013654Y013718D03*
X013654Y013694D03*
X013654Y013644D03*
X013654Y013619D03*
X013654Y013594D03*
X013654Y013569D03*
X013654Y013553D03*
X013654Y013528D03*
X013654Y017384D03*
X013654Y017409D03*
X013654Y017434D03*
X013654Y017451D03*
X013654Y017476D03*
X013654Y017501D03*
X013654Y017575D03*
X013654Y017600D03*
X013654Y017625D03*
X013654Y017642D03*
X013654Y017666D03*
X013654Y017691D03*
X013654Y017741D03*
X013654Y017766D03*
X013654Y017791D03*
X013654Y017816D03*
X013654Y017832D03*
X013654Y017857D03*
X013654Y017882D03*
X013654Y017932D03*
X013654Y017957D03*
X013654Y017982D03*
X013654Y017998D03*
X013654Y018023D03*
X013654Y018048D03*
X013654Y018073D03*
X013654Y018123D03*
X013654Y018148D03*
X013654Y018172D03*
X013654Y018189D03*
X013654Y018214D03*
X013654Y018239D03*
X013654Y018313D03*
X013654Y018338D03*
X013654Y018363D03*
X013654Y018380D03*
X013654Y018405D03*
X013654Y018430D03*
X013654Y018479D03*
X013654Y018504D03*
X013654Y018529D03*
X013654Y018554D03*
X013654Y018571D03*
X013654Y018595D03*
X013654Y018620D03*
D174*
X013654Y018629D03*
X013654Y018637D03*
X013654Y018654D03*
X013654Y018662D03*
X013654Y018604D03*
X013654Y018587D03*
X013654Y018562D03*
X013654Y018537D03*
X013654Y018513D03*
X013654Y018496D03*
X013654Y018471D03*
X013654Y018463D03*
X013654Y018446D03*
X013654Y018438D03*
X013654Y018413D03*
X013654Y018396D03*
X013654Y018372D03*
X013654Y018347D03*
X013654Y018330D03*
X013654Y018305D03*
X013654Y018297D03*
X013654Y018280D03*
X013654Y018272D03*
X013654Y018255D03*
X013654Y018247D03*
X013654Y018222D03*
X013654Y018206D03*
X013654Y018181D03*
X013654Y018156D03*
X013654Y018139D03*
X013654Y018114D03*
X013654Y018106D03*
X013654Y018090D03*
X013654Y018081D03*
X013654Y018056D03*
X013654Y018040D03*
X013654Y018015D03*
X013654Y017990D03*
X013654Y017965D03*
X013654Y017949D03*
X013654Y017924D03*
X013654Y017915D03*
X013654Y017899D03*
X013654Y017890D03*
X013654Y017866D03*
X013654Y017849D03*
X013654Y017824D03*
X013654Y017799D03*
X013654Y017774D03*
X013654Y017758D03*
X013654Y017733D03*
X013654Y017725D03*
X013654Y017708D03*
X013654Y017700D03*
X013654Y017675D03*
X013654Y017658D03*
X013654Y017633D03*
X013654Y017608D03*
X013654Y017592D03*
X013654Y017567D03*
X013654Y017559D03*
X013654Y017542D03*
X013654Y017534D03*
X013654Y017517D03*
X013654Y017509D03*
X013654Y017484D03*
X013654Y017467D03*
X013654Y017443D03*
X013654Y017418D03*
X013654Y017401D03*
X013654Y017376D03*
X013654Y017368D03*
X012460Y016679D03*
X012460Y016663D03*
X012485Y016605D03*
X012485Y015585D03*
X012468Y015543D03*
X012460Y015518D03*
X012460Y015510D03*
X013654Y014822D03*
X013654Y014805D03*
X013654Y014780D03*
X013654Y014772D03*
X013654Y014755D03*
X013654Y014747D03*
X013654Y014722D03*
X013654Y014705D03*
X013654Y014681D03*
X013654Y014656D03*
X013654Y014639D03*
X013654Y014614D03*
X013654Y014606D03*
X013654Y014589D03*
X013654Y014581D03*
X013654Y014564D03*
X013654Y014556D03*
X013654Y014531D03*
X013654Y014515D03*
X013654Y014490D03*
X013654Y014465D03*
X013654Y014448D03*
X013654Y014423D03*
X013654Y014415D03*
X013654Y014399D03*
X013654Y014390D03*
X013654Y014365D03*
X013654Y014349D03*
X013654Y014324D03*
X013654Y014299D03*
X013654Y014274D03*
X013654Y014258D03*
X013654Y014233D03*
X013654Y014224D03*
X013654Y014208D03*
X013654Y014200D03*
X013654Y014175D03*
X013654Y014158D03*
X013654Y014133D03*
X013654Y014108D03*
X013654Y014083D03*
X013654Y014067D03*
X013654Y014042D03*
X013654Y014034D03*
X013654Y014017D03*
X013654Y014009D03*
X013654Y013984D03*
X013654Y013967D03*
X013654Y013942D03*
X013654Y013917D03*
X013654Y013901D03*
X013654Y013876D03*
X013654Y013868D03*
X013654Y013851D03*
X013654Y013843D03*
X013654Y013826D03*
X013654Y013818D03*
X013654Y013793D03*
X013654Y013776D03*
X013654Y013752D03*
X013654Y013727D03*
X013654Y013710D03*
X013654Y013685D03*
X013654Y013677D03*
X013654Y013660D03*
X013654Y013652D03*
X013654Y013627D03*
X013654Y013611D03*
X013654Y013586D03*
X013654Y013561D03*
X013654Y013536D03*
X009333Y015510D03*
X009333Y015518D03*
X009325Y015543D03*
X009308Y016605D03*
X009333Y016663D03*
X009333Y016679D03*
X008138Y017368D03*
X008138Y017376D03*
X008138Y017401D03*
X008138Y017418D03*
X008138Y017443D03*
X008138Y017467D03*
X008138Y017484D03*
X008138Y017509D03*
X008138Y017517D03*
X008138Y017534D03*
X008138Y017542D03*
X008138Y017559D03*
X008138Y017567D03*
X008138Y017592D03*
X008138Y017608D03*
X008138Y017633D03*
X008138Y017658D03*
X008138Y017675D03*
X008138Y017700D03*
X008138Y017708D03*
X008138Y017725D03*
X008138Y017733D03*
X008138Y017758D03*
X008138Y017774D03*
X008138Y017799D03*
X008138Y017824D03*
X008138Y017849D03*
X008138Y017866D03*
X008138Y017890D03*
X008138Y017899D03*
X008138Y017915D03*
X008138Y017924D03*
X008138Y017949D03*
X008138Y017965D03*
X008138Y017990D03*
X008138Y018015D03*
X008138Y018040D03*
X008138Y018056D03*
X008138Y018081D03*
X008138Y018090D03*
X008138Y018106D03*
X008138Y018114D03*
X008138Y018139D03*
X008138Y018156D03*
X008138Y018181D03*
X008138Y018206D03*
X008138Y018222D03*
X008138Y018247D03*
X008138Y018255D03*
X008138Y018272D03*
X008138Y018280D03*
X008138Y018297D03*
X008138Y018305D03*
X008138Y018330D03*
X008138Y018347D03*
X008138Y018372D03*
X008138Y018396D03*
X008138Y018413D03*
X008138Y018438D03*
X008138Y018446D03*
X008138Y018463D03*
X008138Y018471D03*
X008138Y018496D03*
X008138Y018513D03*
X008138Y018537D03*
X008138Y018562D03*
X008138Y018587D03*
X008138Y018604D03*
X008138Y018629D03*
X008138Y018637D03*
X008138Y018654D03*
X008138Y018662D03*
X008138Y014822D03*
X008138Y014805D03*
X008138Y014780D03*
X008138Y014772D03*
X008138Y014755D03*
X008138Y014747D03*
X008138Y014722D03*
X008138Y014705D03*
X008138Y014681D03*
X008138Y014656D03*
X008138Y014639D03*
X008138Y014614D03*
X008138Y014606D03*
X008138Y014589D03*
X008138Y014581D03*
X008138Y014564D03*
X008138Y014556D03*
X008138Y014531D03*
X008138Y014515D03*
X008138Y014490D03*
X008138Y014465D03*
X008138Y014448D03*
X008138Y014423D03*
X008138Y014415D03*
X008138Y014399D03*
X008138Y014390D03*
X008138Y014365D03*
X008138Y014349D03*
X008138Y014324D03*
X008138Y014299D03*
X008138Y014274D03*
X008138Y014258D03*
X008138Y014233D03*
X008138Y014224D03*
X008138Y014208D03*
X008138Y014200D03*
X008138Y014175D03*
X008138Y014158D03*
X008138Y014133D03*
X008138Y014108D03*
X008138Y014083D03*
X008138Y014067D03*
X008138Y014042D03*
X008138Y014034D03*
X008138Y014017D03*
X008138Y014009D03*
X008138Y013984D03*
X008138Y013967D03*
X008138Y013942D03*
X008138Y013917D03*
X008138Y013901D03*
X008138Y013876D03*
X008138Y013868D03*
X008138Y013851D03*
X008138Y013843D03*
X008138Y013826D03*
X008138Y013818D03*
X008138Y013793D03*
X008138Y013776D03*
X008138Y013752D03*
X008138Y013727D03*
X008138Y013710D03*
X008138Y013685D03*
X008138Y013677D03*
X008138Y013660D03*
X008138Y013652D03*
X008138Y013627D03*
X008138Y013611D03*
X008138Y013586D03*
X008138Y013561D03*
X008138Y013536D03*
D175*
X008138Y013544D03*
X008138Y013577D03*
X008138Y013602D03*
X008138Y013635D03*
X008138Y013702D03*
X008138Y013735D03*
X008138Y013768D03*
X008138Y013801D03*
X008138Y013893D03*
X008138Y013926D03*
X008138Y013959D03*
X008138Y013992D03*
X008138Y014058D03*
X008138Y014092D03*
X008138Y014117D03*
X008138Y014150D03*
X008138Y014183D03*
X008138Y014249D03*
X008138Y014282D03*
X008138Y014316D03*
X008138Y014341D03*
X008138Y014374D03*
X008138Y014440D03*
X008138Y014473D03*
X008138Y014506D03*
X008138Y014540D03*
X008138Y014631D03*
X008138Y014664D03*
X008138Y014697D03*
X008138Y014730D03*
X008138Y014797D03*
X009325Y015535D03*
X009308Y015593D03*
X009325Y016655D03*
X008138Y017393D03*
X008138Y017426D03*
X008138Y017459D03*
X008138Y017492D03*
X008138Y017584D03*
X008138Y017617D03*
X008138Y017650D03*
X008138Y017683D03*
X008138Y017749D03*
X008138Y017783D03*
X008138Y017808D03*
X008138Y017841D03*
X008138Y017874D03*
X008138Y017940D03*
X008138Y017973D03*
X008138Y018007D03*
X008138Y018031D03*
X008138Y018065D03*
X008138Y018131D03*
X008138Y018164D03*
X008138Y018197D03*
X008138Y018231D03*
X008138Y018322D03*
X008138Y018355D03*
X008138Y018388D03*
X008138Y018421D03*
X008138Y018488D03*
X008138Y018521D03*
X008138Y018546D03*
X008138Y018579D03*
X008138Y018612D03*
X012468Y016655D03*
X012468Y015535D03*
X013654Y014797D03*
X013654Y014730D03*
X013654Y014697D03*
X013654Y014664D03*
X013654Y014631D03*
X013654Y014540D03*
X013654Y014506D03*
X013654Y014473D03*
X013654Y014440D03*
X013654Y014374D03*
X013654Y014341D03*
X013654Y014316D03*
X013654Y014282D03*
X013654Y014249D03*
X013654Y014183D03*
X013654Y014150D03*
X013654Y014117D03*
X013654Y014092D03*
X013654Y014058D03*
X013654Y013992D03*
X013654Y013959D03*
X013654Y013926D03*
X013654Y013893D03*
X013654Y013801D03*
X013654Y013768D03*
X013654Y013735D03*
X013654Y013702D03*
X013654Y013635D03*
X013654Y013602D03*
X013654Y013577D03*
X013654Y013544D03*
X011821Y014282D03*
X013654Y017393D03*
X013654Y017426D03*
X013654Y017459D03*
X013654Y017492D03*
X013654Y017584D03*
X013654Y017617D03*
X013654Y017650D03*
X013654Y017683D03*
X013654Y017749D03*
X013654Y017783D03*
X013654Y017808D03*
X013654Y017841D03*
X013654Y017874D03*
X013654Y017940D03*
X013654Y017973D03*
X013654Y018007D03*
X013654Y018031D03*
X013654Y018065D03*
X013654Y018131D03*
X013654Y018164D03*
X013654Y018197D03*
X013654Y018231D03*
X013654Y018322D03*
X013654Y018355D03*
X013654Y018388D03*
X013654Y018421D03*
X013654Y018488D03*
X013654Y018521D03*
X013654Y018546D03*
X013654Y018579D03*
X013654Y018612D03*
D176*
X013654Y018645D03*
X013654Y018454D03*
X013654Y018289D03*
X013654Y018264D03*
X013654Y018098D03*
X013654Y017907D03*
X013654Y017716D03*
X013654Y017550D03*
X013654Y017525D03*
X013654Y014764D03*
X013654Y014598D03*
X013654Y014573D03*
X013654Y014407D03*
X013654Y014216D03*
X013654Y014025D03*
X013654Y013859D03*
X013654Y013835D03*
X013654Y013669D03*
X009972Y017907D03*
X008138Y017907D03*
X008138Y017716D03*
X008138Y017550D03*
X008138Y017525D03*
X008138Y018098D03*
X008138Y018264D03*
X008138Y018289D03*
X008138Y018454D03*
X008138Y018645D03*
X008138Y014764D03*
X008138Y014598D03*
X008138Y014573D03*
X008138Y014407D03*
X008138Y014216D03*
X008138Y014025D03*
X008138Y013859D03*
X008138Y013835D03*
X008138Y013669D03*
D177*
X010905Y013976D03*
X010905Y014000D03*
X010888Y018189D03*
X010888Y018214D03*
D178*
X010888Y018206D03*
X009951Y017866D03*
X011842Y014324D03*
X010905Y013984D03*
D179*
X010905Y013992D03*
X009967Y014316D03*
X011825Y017874D03*
X010888Y018197D03*
D180*
X010888Y018156D03*
X010905Y014042D03*
X010905Y014034D03*
X010905Y014017D03*
X010905Y014009D03*
D181*
X010905Y014025D03*
D182*
X010900Y014050D03*
X011846Y014332D03*
X009341Y015361D03*
X009947Y017857D03*
D183*
X009752Y017293D03*
X010888Y018131D03*
X012041Y017293D03*
X012033Y014888D03*
X010905Y014092D03*
X010905Y014058D03*
X009760Y014888D03*
D184*
X009752Y014896D03*
X010905Y014083D03*
X010905Y014067D03*
X012041Y014896D03*
X012033Y017302D03*
X010888Y018106D03*
X010888Y018114D03*
X009760Y017302D03*
X009337Y016820D03*
D185*
X009743Y017285D03*
X010888Y018123D03*
X012049Y017285D03*
X012049Y014905D03*
X010905Y014075D03*
X009743Y014905D03*
D186*
X009793Y014863D03*
X009959Y014332D03*
X010905Y014125D03*
X010905Y014100D03*
X012464Y015361D03*
X011834Y017857D03*
X010888Y018073D03*
D187*
X010888Y018081D03*
X010888Y018090D03*
X010888Y018056D03*
X009329Y016829D03*
X009163Y015825D03*
X010905Y014133D03*
X010905Y014108D03*
D188*
X010905Y014117D03*
X012456Y016845D03*
X012008Y017326D03*
X010888Y018065D03*
D189*
X011746Y018056D03*
X010046Y014133D03*
D190*
X011763Y014141D03*
X010030Y018048D03*
D191*
X010888Y018023D03*
X009329Y016837D03*
X009818Y014838D03*
X010905Y014166D03*
X010905Y014141D03*
X011975Y014838D03*
D192*
X010042Y014141D03*
X011751Y018048D03*
D193*
X011763Y014150D03*
D194*
X010905Y014150D03*
X009942Y017841D03*
X010888Y018031D03*
D195*
X010025Y018031D03*
X010042Y014150D03*
D196*
X011767Y014158D03*
X012605Y014846D03*
X009188Y017343D03*
D197*
X009818Y017351D03*
X010888Y018015D03*
X010888Y018040D03*
X011975Y017351D03*
X012464Y015352D03*
X011850Y014349D03*
X010905Y014175D03*
X010905Y014158D03*
X009810Y014846D03*
D198*
X010034Y014158D03*
D199*
X011771Y014166D03*
X010021Y018023D03*
D200*
X011763Y018023D03*
X010030Y014166D03*
D201*
X011776Y014175D03*
D202*
X010025Y014175D03*
D203*
X011776Y014183D03*
X010017Y018007D03*
D204*
X010892Y018007D03*
X009831Y014830D03*
X010900Y014183D03*
X011962Y014830D03*
D205*
X010025Y014183D03*
X011767Y018007D03*
D206*
X010009Y017998D03*
X011784Y014191D03*
D207*
X011941Y014813D03*
X010905Y014191D03*
X009851Y014813D03*
X012456Y016862D03*
X010888Y017982D03*
X010888Y017998D03*
D208*
X010888Y017990D03*
X009851Y017376D03*
X009337Y015328D03*
X009951Y014349D03*
X010905Y014224D03*
X010905Y014208D03*
X010905Y014200D03*
X011941Y017376D03*
D209*
X010905Y014216D03*
D210*
X010009Y014216D03*
D211*
X011796Y014224D03*
X009996Y017965D03*
D212*
X011788Y017965D03*
X010005Y014224D03*
D213*
X011800Y014233D03*
D214*
X010905Y014233D03*
X010905Y014258D03*
X009329Y015319D03*
X009884Y017401D03*
X010888Y017924D03*
X010888Y017949D03*
X011908Y017401D03*
X012464Y016870D03*
D215*
X010001Y014233D03*
X009271Y014896D03*
D216*
X011805Y014241D03*
D217*
X011908Y014788D03*
X010905Y014266D03*
X010905Y014241D03*
X009884Y014788D03*
X010888Y017932D03*
X010888Y017957D03*
D218*
X010001Y014241D03*
D219*
X011809Y014249D03*
X009984Y017940D03*
D220*
X010888Y017940D03*
X010905Y014249D03*
D221*
X009996Y014249D03*
X009275Y017268D03*
X011796Y017940D03*
D222*
X011813Y014258D03*
D223*
X009992Y014258D03*
X009976Y017924D03*
D224*
X009279Y017260D03*
X011800Y017932D03*
X012514Y014929D03*
X011817Y014266D03*
D225*
X012501Y015643D03*
X012510Y015668D03*
X012518Y015717D03*
X012526Y015742D03*
X012534Y015767D03*
X012534Y015784D03*
X012543Y015809D03*
X012534Y016406D03*
X012526Y016456D03*
X012518Y016480D03*
X012510Y016522D03*
X012501Y016547D03*
X009988Y014266D03*
X009291Y015643D03*
X009275Y015717D03*
X009267Y015742D03*
X009258Y015767D03*
X009258Y015784D03*
X009258Y016406D03*
X009267Y016456D03*
X009275Y016480D03*
X009291Y016547D03*
D226*
X009976Y017915D03*
X011817Y014274D03*
D227*
X011883Y014772D03*
X010905Y014274D03*
X011883Y017418D03*
X010888Y017915D03*
D228*
X009320Y016638D03*
X009312Y016613D03*
X009296Y016563D03*
X009287Y016538D03*
X009287Y015651D03*
X009296Y015634D03*
X009312Y015585D03*
X009984Y014274D03*
X010896Y014755D03*
X012497Y015634D03*
X012505Y015651D03*
X012505Y016538D03*
X012497Y016563D03*
X012481Y016613D03*
X012472Y016638D03*
D229*
X010896Y014282D03*
D230*
X009980Y014282D03*
X009366Y015435D03*
X012427Y016754D03*
D231*
X011825Y014291D03*
D232*
X010896Y014291D03*
X009387Y015120D03*
X012406Y015120D03*
D233*
X009976Y014291D03*
D234*
X011829Y014299D03*
X012435Y016779D03*
X009963Y017890D03*
D235*
X010896Y014299D03*
D236*
X009972Y014299D03*
X012443Y015419D03*
X011821Y017890D03*
D237*
X011834Y014307D03*
D238*
X009972Y014307D03*
X011821Y017882D03*
D239*
X009955Y017874D03*
X011838Y014316D03*
D240*
X010896Y014324D03*
X010083Y015825D03*
X011709Y015825D03*
X010896Y017866D03*
D241*
X010892Y018139D03*
X011829Y017866D03*
X012062Y017277D03*
X012452Y016829D03*
X012062Y014913D03*
X009963Y014324D03*
X009731Y014913D03*
X009731Y017277D03*
D242*
X010896Y017857D03*
X010125Y015767D03*
X010896Y014332D03*
X011668Y015767D03*
D243*
X012460Y015369D03*
X011846Y014341D03*
X009789Y017326D03*
D244*
X010896Y017326D03*
X010896Y014341D03*
D245*
X009955Y014341D03*
D246*
X010896Y014349D03*
X010191Y015709D03*
X011601Y015709D03*
D247*
X011854Y014357D03*
X011929Y017384D03*
X009938Y017832D03*
X009864Y017384D03*
D248*
X010896Y017832D03*
X010896Y014357D03*
D249*
X009947Y014357D03*
X009325Y016862D03*
X009897Y017409D03*
X011846Y017832D03*
X011896Y017409D03*
D250*
X011863Y014365D03*
D251*
X010896Y014365D03*
X010896Y017824D03*
D252*
X012476Y015319D03*
X009947Y014365D03*
D253*
X010900Y014374D03*
X010892Y017808D03*
D254*
X010896Y016572D03*
X010896Y015618D03*
X010905Y014382D03*
D255*
X010905Y014390D03*
X010905Y014399D03*
X010888Y017799D03*
D256*
X010909Y014407D03*
D257*
X010905Y014415D03*
X010905Y014423D03*
X010888Y017774D03*
D258*
X010888Y017741D03*
X010905Y014432D03*
D259*
X010905Y014440D03*
X010896Y015568D03*
X010888Y017749D03*
D260*
X010888Y017758D03*
X010896Y016630D03*
X010896Y015560D03*
X010905Y014448D03*
D261*
X010905Y014457D03*
D262*
X010905Y014465D03*
X010888Y017725D03*
X010888Y017733D03*
D263*
X010905Y014473D03*
D264*
X010905Y014482D03*
X010905Y014498D03*
X010888Y017691D03*
D265*
X010888Y017700D03*
X010888Y017708D03*
X010905Y014490D03*
D266*
X010905Y014506D03*
X010896Y016688D03*
X010888Y017683D03*
D267*
X010888Y017675D03*
X010896Y016679D03*
X010896Y015510D03*
X010905Y014515D03*
D268*
X010905Y014523D03*
X010888Y017666D03*
D269*
X010888Y017658D03*
X010905Y014531D03*
D270*
X010905Y014540D03*
X010888Y017650D03*
D271*
X010892Y017642D03*
X010909Y014548D03*
D272*
X010905Y014556D03*
X010905Y014564D03*
X010888Y017633D03*
D273*
X010905Y014573D03*
D274*
X010905Y014581D03*
X010905Y014589D03*
X010896Y015460D03*
X010896Y016729D03*
X010888Y017608D03*
D275*
X010905Y014598D03*
D276*
X011560Y014606D03*
D277*
X010245Y014606D03*
D278*
X010059Y015875D03*
X011593Y014614D03*
X011734Y015875D03*
D279*
X011639Y014631D03*
D280*
X010162Y014631D03*
D281*
X011672Y014647D03*
X012310Y017194D03*
X009482Y017194D03*
D282*
X009441Y017144D03*
X009441Y015046D03*
X010129Y014647D03*
X012352Y015046D03*
X012352Y017144D03*
D283*
X011684Y014656D03*
D284*
X012414Y015128D03*
X012414Y017061D03*
X010896Y017899D03*
X009378Y017061D03*
X009378Y015128D03*
X010117Y014656D03*
D285*
X011701Y014664D03*
D286*
X011713Y014672D03*
D287*
X012489Y015261D03*
X010083Y014672D03*
X009304Y016928D03*
D288*
X010063Y017509D03*
X011730Y017509D03*
X009316Y015253D03*
X010063Y014681D03*
X011730Y014681D03*
D289*
X011746Y014689D03*
X010046Y014689D03*
X009316Y015261D03*
X010046Y017501D03*
X011746Y017501D03*
X012476Y016928D03*
D290*
X011763Y017492D03*
X010030Y017492D03*
X010030Y014697D03*
X011763Y014697D03*
D291*
X011776Y014705D03*
X011776Y017484D03*
D292*
X010017Y017484D03*
X010017Y014705D03*
D293*
X010001Y014714D03*
X011792Y014714D03*
X010896Y017409D03*
X010001Y017476D03*
X011792Y017476D03*
D294*
X011809Y017467D03*
X009984Y017467D03*
X011809Y014722D03*
D295*
X012476Y015303D03*
X012700Y015900D03*
X012700Y015925D03*
X012700Y015941D03*
X012700Y015966D03*
X012700Y016223D03*
X012700Y016232D03*
X012700Y016248D03*
X012700Y016256D03*
X012700Y016281D03*
X009988Y014722D03*
X009092Y015900D03*
X009092Y015925D03*
X009092Y015941D03*
X009092Y015966D03*
X009092Y016223D03*
X009092Y016232D03*
X009092Y016248D03*
X009092Y016256D03*
X009092Y016281D03*
D296*
X009092Y016273D03*
X009092Y015950D03*
X009092Y015916D03*
X009972Y014730D03*
X011821Y014730D03*
X012700Y015916D03*
X012700Y015950D03*
X012700Y016273D03*
X011821Y017459D03*
X009972Y017459D03*
D297*
X009959Y017451D03*
X011834Y017451D03*
X011834Y014739D03*
X009959Y014739D03*
D298*
X009947Y014747D03*
X011846Y014747D03*
X011846Y017443D03*
X009947Y017443D03*
D299*
X009329Y015303D03*
X009934Y014755D03*
X011858Y014755D03*
D300*
X011871Y014764D03*
X009922Y014764D03*
D301*
X010896Y014764D03*
X009345Y016787D03*
D302*
X010900Y014772D03*
X012468Y015344D03*
D303*
X009934Y017824D03*
X009909Y017418D03*
X009320Y016870D03*
X009909Y014772D03*
D304*
X009897Y014780D03*
X011896Y014780D03*
X012468Y015328D03*
D305*
X012704Y015991D03*
X012704Y016008D03*
X012704Y016033D03*
X012704Y016041D03*
X012704Y016057D03*
X012704Y016066D03*
X012704Y016082D03*
X012704Y016091D03*
X012704Y016115D03*
X012704Y016132D03*
X012704Y016157D03*
X012704Y016182D03*
X012704Y016198D03*
X010896Y014780D03*
X009088Y015991D03*
X009088Y016008D03*
X009088Y016033D03*
X009088Y016041D03*
X009088Y016057D03*
X009088Y016066D03*
X009088Y016082D03*
X009088Y016091D03*
X009088Y016115D03*
X009088Y016132D03*
X009088Y016157D03*
X009088Y016182D03*
X009088Y016198D03*
D306*
X010896Y014788D03*
D307*
X009872Y014797D03*
X011921Y014797D03*
X012659Y015850D03*
X011921Y017393D03*
X009872Y017393D03*
D308*
X009387Y017069D03*
X010896Y017393D03*
X012406Y017069D03*
X010896Y014797D03*
X009395Y015112D03*
D309*
X009864Y014805D03*
X011929Y014805D03*
D310*
X011954Y014822D03*
X009839Y014822D03*
X009839Y017368D03*
X011954Y017368D03*
D311*
X012609Y017368D03*
X009184Y014822D03*
D312*
X009192Y014830D03*
D313*
X012613Y014838D03*
D314*
X010896Y014838D03*
D315*
X009204Y014838D03*
D316*
X009341Y015344D03*
X009159Y016348D03*
X009806Y017343D03*
X011987Y017343D03*
X012634Y015842D03*
X011987Y014846D03*
D317*
X010896Y014846D03*
X010896Y017343D03*
D318*
X010017Y018015D03*
X012580Y017343D03*
X009213Y014846D03*
D319*
X012597Y014855D03*
D320*
X011995Y014855D03*
X012634Y016364D03*
X009797Y014855D03*
D321*
X010896Y014855D03*
D322*
X009217Y014855D03*
D323*
X012584Y014863D03*
D324*
X012004Y014863D03*
X011995Y017335D03*
X010892Y018048D03*
X009797Y017335D03*
D325*
X010896Y014863D03*
D326*
X009229Y014863D03*
D327*
X012580Y014871D03*
D328*
X012012Y014871D03*
X009781Y014871D03*
X009341Y015352D03*
X009781Y017318D03*
X012012Y017318D03*
D329*
X010896Y014871D03*
D330*
X009772Y014880D03*
X012020Y014880D03*
X012452Y016837D03*
X012020Y017310D03*
X009772Y017310D03*
D331*
X010900Y014880D03*
D332*
X010900Y014888D03*
D333*
X009258Y014888D03*
D334*
X012551Y014896D03*
D335*
X010896Y014896D03*
D336*
X010896Y014905D03*
D337*
X009275Y014905D03*
D338*
X009262Y017277D03*
X012530Y014913D03*
D339*
X010896Y014913D03*
D340*
X009283Y014913D03*
X012510Y017277D03*
D341*
X012522Y014921D03*
D342*
X012066Y014921D03*
X009727Y017268D03*
X010896Y017426D03*
X009345Y015369D03*
D343*
X010896Y014921D03*
X010896Y017268D03*
D344*
X012074Y014929D03*
D345*
X010896Y014929D03*
X010896Y017260D03*
D346*
X009540Y014929D03*
D347*
X010896Y014938D03*
D348*
X010896Y014946D03*
D349*
X009515Y014954D03*
X012277Y014954D03*
D350*
X010896Y014954D03*
D351*
X010896Y014963D03*
X010896Y017227D03*
D352*
X010900Y014971D03*
D353*
X009499Y014979D03*
X012294Y014979D03*
D354*
X010896Y014979D03*
D355*
X009490Y014987D03*
X009490Y017202D03*
X012302Y017202D03*
X012302Y014987D03*
D356*
X010896Y014987D03*
D357*
X010896Y014996D03*
D358*
X010896Y015004D03*
D359*
X009466Y015012D03*
X009466Y017177D03*
X009474Y017185D03*
X012319Y017185D03*
X012327Y017177D03*
X012327Y015012D03*
D360*
X010896Y015012D03*
X010896Y017177D03*
D361*
X009461Y015021D03*
X012331Y015021D03*
D362*
X010896Y015021D03*
D363*
X009453Y015029D03*
X012340Y015029D03*
D364*
X010896Y015029D03*
D365*
X010896Y015037D03*
X010896Y017152D03*
D366*
X010896Y017144D03*
X010896Y015046D03*
D367*
X009437Y015054D03*
X009437Y017136D03*
X012356Y015054D03*
D368*
X010896Y015054D03*
X010896Y017136D03*
D369*
X010896Y015062D03*
D370*
X009420Y015070D03*
X009420Y017119D03*
X012373Y017119D03*
X012373Y015070D03*
D371*
X010896Y015070D03*
D372*
X009416Y015079D03*
X012377Y015079D03*
X012402Y015112D03*
D373*
X010896Y015079D03*
D374*
X010896Y015087D03*
D375*
X009408Y015095D03*
X009408Y017094D03*
X012385Y017094D03*
X012385Y015095D03*
D376*
X010896Y015095D03*
X010896Y017094D03*
D377*
X010104Y017534D03*
X009416Y017111D03*
X009399Y017086D03*
X009399Y015104D03*
X012393Y015104D03*
X012393Y017086D03*
X012377Y017111D03*
D378*
X010896Y017086D03*
X010896Y015104D03*
D379*
X010896Y015112D03*
D380*
X010896Y015120D03*
D381*
X010896Y015128D03*
X010896Y017061D03*
D382*
X011680Y017534D03*
X012443Y017020D03*
X012427Y015153D03*
X012418Y015137D03*
X009374Y015137D03*
X009366Y015153D03*
X009349Y017020D03*
X009366Y017036D03*
D383*
X010896Y015137D03*
D384*
X009366Y015145D03*
X012427Y015145D03*
D385*
X010896Y015145D03*
D386*
X010896Y015153D03*
X010896Y017036D03*
D387*
X009358Y015162D03*
X012435Y015162D03*
D388*
X010896Y015162D03*
D389*
X009349Y015170D03*
X009374Y017053D03*
X012418Y017053D03*
X012443Y015170D03*
D390*
X010896Y015170D03*
D391*
X009345Y015178D03*
X009345Y017011D03*
X012447Y017011D03*
X012447Y015178D03*
D392*
X010896Y015178D03*
X010896Y017011D03*
D393*
X009337Y016995D03*
X009329Y016986D03*
X009312Y016961D03*
X009312Y015228D03*
X009329Y015203D03*
X009337Y015187D03*
X012456Y015187D03*
X012464Y015203D03*
X012481Y015228D03*
X012481Y016961D03*
X012464Y016986D03*
X012456Y016995D03*
X012431Y017036D03*
D394*
X010896Y015187D03*
D395*
X009337Y015195D03*
X009337Y017003D03*
X012456Y017003D03*
X012456Y015195D03*
D396*
X010896Y015195D03*
D397*
X010896Y015203D03*
X010896Y016986D03*
D398*
X010896Y015211D03*
D399*
X009316Y015220D03*
X009308Y016953D03*
X012485Y015236D03*
X012476Y015220D03*
D400*
X010896Y015220D03*
D401*
X010896Y015228D03*
X010896Y016961D03*
D402*
X010896Y016953D03*
X010896Y015236D03*
D403*
X009312Y015236D03*
X012481Y016953D03*
D404*
X010896Y016945D03*
X010896Y015245D03*
D405*
X009312Y015245D03*
X012481Y016945D03*
D406*
X011713Y017517D03*
X010079Y017517D03*
X009300Y016937D03*
X012493Y015253D03*
D407*
X010896Y015253D03*
X010896Y016937D03*
D408*
X010896Y015261D03*
D409*
X012489Y015269D03*
X012481Y016937D03*
D410*
X010896Y016920D03*
X010896Y015269D03*
D411*
X009316Y015269D03*
X012476Y016920D03*
D412*
X012485Y015278D03*
X009308Y016912D03*
D413*
X010896Y016912D03*
X010896Y015278D03*
D414*
X009320Y015278D03*
X012472Y016912D03*
D415*
X012481Y015286D03*
X009312Y016903D03*
D416*
X010896Y016903D03*
X010896Y015286D03*
D417*
X009325Y015286D03*
X009092Y015908D03*
X009092Y015933D03*
X009092Y015958D03*
X009092Y015974D03*
X009092Y016215D03*
X009092Y016265D03*
X009316Y016887D03*
X012468Y016903D03*
X012700Y016290D03*
X012700Y016265D03*
X012700Y015958D03*
X012700Y015933D03*
X012700Y015908D03*
D418*
X012696Y015892D03*
X012696Y015875D03*
X012696Y015867D03*
X012696Y016298D03*
X012696Y016323D03*
X012481Y015294D03*
X009312Y016895D03*
X009096Y016323D03*
X009096Y016298D03*
X009096Y015892D03*
X009096Y015875D03*
X009096Y015867D03*
D419*
X010896Y015294D03*
D420*
X009325Y015294D03*
X009117Y015842D03*
X012468Y016895D03*
X012675Y016348D03*
D421*
X010896Y016895D03*
X010896Y015303D03*
D422*
X012476Y015311D03*
D423*
X010896Y015311D03*
D424*
X009329Y015311D03*
D425*
X010900Y015319D03*
D426*
X010896Y015328D03*
X010896Y016870D03*
D427*
X012468Y015336D03*
D428*
X010896Y015336D03*
D429*
X009337Y015336D03*
D430*
X010896Y015344D03*
X010896Y015352D03*
D431*
X010896Y015361D03*
D432*
X010900Y015369D03*
D433*
X012456Y015377D03*
X012447Y016820D03*
D434*
X010896Y016820D03*
X010896Y015377D03*
D435*
X009349Y015377D03*
D436*
X012452Y015386D03*
D437*
X010896Y015386D03*
D438*
X009354Y015386D03*
D439*
X009341Y016796D03*
X012452Y015394D03*
D440*
X010896Y015394D03*
X010896Y016804D03*
D441*
X009354Y015394D03*
X012588Y015825D03*
X012439Y016796D03*
D442*
X012447Y015402D03*
D443*
X010896Y015402D03*
D444*
X009358Y015402D03*
D445*
X012447Y015410D03*
D446*
X010896Y015410D03*
D447*
X009358Y015410D03*
D448*
X010896Y015419D03*
X010896Y016771D03*
X010896Y016779D03*
D449*
X011817Y017899D03*
X012431Y016771D03*
X009362Y015419D03*
D450*
X009354Y016762D03*
X012439Y015427D03*
D451*
X010896Y015427D03*
X010896Y016762D03*
D452*
X009366Y015427D03*
X012427Y016762D03*
D453*
X012568Y015817D03*
X012435Y015435D03*
X009358Y016754D03*
D454*
X010896Y015435D03*
D455*
X009358Y016746D03*
X012435Y015444D03*
D456*
X010896Y015444D03*
X010896Y016746D03*
D457*
X009354Y016729D03*
X009345Y016704D03*
X009345Y015485D03*
X009354Y015460D03*
X009362Y015444D03*
X012439Y015460D03*
X012447Y015485D03*
X012447Y016704D03*
X012439Y016729D03*
X012431Y016746D03*
D458*
X012431Y016738D03*
X012431Y015452D03*
X009362Y015452D03*
X009362Y016738D03*
D459*
X010896Y015452D03*
D460*
X009354Y015469D03*
X009354Y016721D03*
X012439Y016721D03*
X012439Y015469D03*
D461*
X010896Y015469D03*
X010896Y016721D03*
D462*
X010896Y016713D03*
X010896Y015477D03*
D463*
X010896Y015485D03*
X010896Y015493D03*
X010896Y016704D03*
D464*
X011813Y017915D03*
X012476Y016630D03*
X012476Y015560D03*
X012452Y015493D03*
X009341Y015493D03*
X009316Y015560D03*
X009316Y016630D03*
D465*
X009316Y016621D03*
X009341Y015502D03*
X012452Y015502D03*
X012476Y016621D03*
D466*
X010896Y015502D03*
D467*
X010896Y015518D03*
X010896Y016663D03*
D468*
X010896Y016671D03*
X010896Y015527D03*
D469*
X010896Y015535D03*
D470*
X010896Y015543D03*
X010896Y016638D03*
D471*
X009296Y016572D03*
X009287Y016522D03*
X009246Y016381D03*
X009287Y015668D03*
X009296Y015618D03*
X009312Y015576D03*
X009320Y015551D03*
X012472Y015551D03*
X012481Y015576D03*
X012497Y015618D03*
X012497Y016572D03*
D472*
X010896Y016646D03*
X010896Y015551D03*
D473*
X009316Y015568D03*
X009341Y016688D03*
X012452Y016688D03*
X012476Y015568D03*
D474*
X010896Y015576D03*
D475*
X010896Y015585D03*
X010896Y016605D03*
X010896Y016613D03*
D476*
X009304Y016588D03*
X009279Y016497D03*
X009254Y015792D03*
X012489Y015593D03*
X012539Y016397D03*
X012514Y016497D03*
X012489Y016588D03*
D477*
X010896Y015593D03*
D478*
X009304Y015601D03*
X009279Y016505D03*
X012489Y016597D03*
X012514Y016505D03*
X012489Y015601D03*
D479*
X010896Y015601D03*
X010896Y016597D03*
D480*
X009304Y016580D03*
X009279Y015684D03*
X009304Y015610D03*
X012489Y015610D03*
X012514Y015684D03*
X012489Y016580D03*
D481*
X010896Y016580D03*
X010896Y015610D03*
D482*
X009296Y015626D03*
X009287Y015659D03*
X009271Y015726D03*
X009271Y016464D03*
X009287Y016530D03*
X009296Y016555D03*
X012497Y016555D03*
X012505Y016530D03*
X012522Y016464D03*
X012522Y015726D03*
X012505Y015659D03*
X012497Y015626D03*
D483*
X010896Y015626D03*
X010896Y016555D03*
D484*
X010896Y016563D03*
X010896Y015634D03*
D485*
X010896Y015643D03*
X010896Y016547D03*
D486*
X010896Y016538D03*
X010896Y015651D03*
D487*
X010896Y015659D03*
D488*
X010896Y015668D03*
X010896Y016522D03*
D489*
X009283Y016514D03*
X009275Y016489D03*
X009275Y016472D03*
X009267Y016447D03*
X009267Y016439D03*
X009258Y016422D03*
X009258Y016414D03*
X009258Y016389D03*
X009258Y015775D03*
X009267Y015751D03*
X009267Y015734D03*
X009275Y015709D03*
X009275Y015701D03*
X009283Y015676D03*
X011805Y017924D03*
X012510Y016514D03*
X012518Y016489D03*
X012518Y016472D03*
X012526Y016447D03*
X012526Y016439D03*
X012534Y016422D03*
X012534Y016414D03*
X012534Y015775D03*
X012526Y015751D03*
X012526Y015734D03*
X012518Y015709D03*
X012518Y015701D03*
X012510Y015676D03*
D490*
X010896Y015676D03*
X010896Y015684D03*
X010896Y016514D03*
D491*
X009279Y015692D03*
X012514Y015692D03*
D492*
X011556Y015692D03*
X010237Y015692D03*
D493*
X010208Y015701D03*
X011585Y015701D03*
D494*
X011618Y015717D03*
X010175Y015717D03*
D495*
X010166Y015726D03*
X011626Y015726D03*
D496*
X011639Y015734D03*
X010154Y015734D03*
D497*
X011647Y015742D03*
D498*
X010150Y015742D03*
D499*
X010137Y015751D03*
X011655Y015751D03*
D500*
X012526Y015759D03*
X012534Y015792D03*
X009267Y015759D03*
X009258Y016397D03*
D501*
X010129Y015759D03*
X011664Y015759D03*
D502*
X011676Y015775D03*
X010117Y015775D03*
D503*
X010108Y015784D03*
X010108Y016406D03*
X011684Y016406D03*
X011684Y015784D03*
D504*
X011688Y015792D03*
X011688Y016397D03*
X010104Y016397D03*
X010104Y015792D03*
D505*
X012539Y015800D03*
D506*
X011693Y015800D03*
X011693Y016389D03*
X010100Y016389D03*
X010100Y015800D03*
D507*
X009233Y015800D03*
X009225Y016373D03*
X012568Y016389D03*
D508*
X011697Y016381D03*
X011697Y015809D03*
X010096Y015809D03*
X010096Y016381D03*
D509*
X009204Y015809D03*
X012588Y016381D03*
D510*
X011705Y015817D03*
X010088Y015817D03*
D511*
X009184Y015817D03*
D512*
X009179Y016356D03*
X009719Y017260D03*
X010888Y018148D03*
X010888Y018172D03*
X012613Y015833D03*
D513*
X011713Y015833D03*
X011713Y016356D03*
X010079Y016356D03*
X010079Y015833D03*
D514*
X009138Y015833D03*
X012655Y016356D03*
D515*
X011717Y016348D03*
X011717Y015842D03*
X010896Y017351D03*
X010075Y016348D03*
X010075Y015842D03*
D516*
X010071Y015850D03*
X010063Y016331D03*
X011730Y016331D03*
X011722Y015850D03*
D517*
X012696Y016306D03*
X012696Y016331D03*
X009096Y016306D03*
X009096Y015850D03*
D518*
X012684Y015858D03*
D519*
X011726Y015858D03*
X010067Y015858D03*
D520*
X009096Y015858D03*
X009096Y016290D03*
X009096Y016315D03*
X012696Y016315D03*
X012696Y016339D03*
D521*
X011730Y016323D03*
X011730Y015867D03*
X010063Y015867D03*
X010063Y016323D03*
D522*
X009096Y015883D03*
X012696Y015883D03*
D523*
X011734Y015883D03*
X010059Y015883D03*
D524*
X010054Y015892D03*
X010054Y016298D03*
X011738Y016298D03*
X011738Y015892D03*
D525*
X011751Y016265D03*
X010042Y016265D03*
X010042Y015933D03*
D526*
X009088Y015999D03*
X009088Y016024D03*
X009088Y016099D03*
X009088Y016124D03*
X009088Y016149D03*
X009088Y016165D03*
X009088Y016190D03*
X012704Y016190D03*
X012704Y016165D03*
X012704Y016149D03*
X012704Y016124D03*
X012704Y016099D03*
X012704Y016024D03*
X012704Y015999D03*
X012704Y015974D03*
X012704Y016215D03*
D527*
X012704Y016207D03*
X012704Y016174D03*
X012704Y016140D03*
X012704Y016107D03*
X012704Y016016D03*
X012704Y015983D03*
X009088Y015983D03*
X009088Y016016D03*
X009088Y016107D03*
X009088Y016140D03*
X009088Y016174D03*
X009088Y016207D03*
D528*
X010021Y016174D03*
X010021Y016140D03*
X010021Y016016D03*
X011771Y016016D03*
X011771Y016140D03*
X011771Y016174D03*
D529*
X012704Y016074D03*
X012704Y016049D03*
X009088Y016049D03*
X009088Y016074D03*
D530*
X010021Y016049D03*
X011771Y016049D03*
D531*
X011776Y016074D03*
X010017Y016074D03*
D532*
X009092Y016240D03*
X012700Y016240D03*
D533*
X011759Y016240D03*
X010896Y017360D03*
D534*
X010046Y016281D03*
X011746Y016281D03*
D535*
X011738Y016306D03*
X010054Y016306D03*
D536*
X010059Y016315D03*
X011734Y016315D03*
D537*
X009316Y016879D03*
X009109Y016331D03*
D538*
X010071Y016339D03*
X011722Y016339D03*
D539*
X009134Y016339D03*
D540*
X010083Y016364D03*
X011709Y016364D03*
D541*
X009204Y016364D03*
D542*
X010892Y018181D03*
X012609Y016373D03*
D543*
X011705Y016373D03*
X010088Y016373D03*
D544*
X010113Y016414D03*
X010121Y016422D03*
X011672Y016422D03*
X011680Y016414D03*
D545*
X012526Y016431D03*
X009267Y016431D03*
D546*
X010129Y016431D03*
X011664Y016431D03*
D547*
X011659Y016439D03*
X010133Y016439D03*
D548*
X010142Y016447D03*
X011651Y016447D03*
D549*
X011639Y016456D03*
X010154Y016456D03*
D550*
X010162Y016464D03*
X011630Y016464D03*
D551*
X011622Y016472D03*
X010171Y016472D03*
D552*
X010187Y016480D03*
X011605Y016480D03*
D553*
X011589Y016489D03*
X010204Y016489D03*
D554*
X010224Y016497D03*
X011568Y016497D03*
D555*
X010900Y016505D03*
D556*
X010900Y016530D03*
D557*
X010896Y016588D03*
D558*
X010896Y016621D03*
D559*
X010896Y016655D03*
D560*
X009341Y016696D03*
X012452Y016696D03*
D561*
X010896Y016696D03*
D562*
X010896Y016738D03*
X010888Y017600D03*
D563*
X010900Y016754D03*
D564*
X009354Y016771D03*
D565*
X009345Y016779D03*
D566*
X012435Y016787D03*
D567*
X010896Y016787D03*
D568*
X010896Y016796D03*
D569*
X012439Y016804D03*
D570*
X009341Y016804D03*
D571*
X012443Y016812D03*
D572*
X010896Y016812D03*
D573*
X009337Y016812D03*
D574*
X010896Y016829D03*
D575*
X010896Y016837D03*
D576*
X010896Y016845D03*
D577*
X011842Y017841D03*
X010888Y017973D03*
X009329Y016845D03*
D578*
X012456Y016854D03*
D579*
X010896Y016854D03*
D580*
X010892Y017965D03*
X009325Y016854D03*
D581*
X010896Y016862D03*
D582*
X012464Y016879D03*
D583*
X010896Y016879D03*
D584*
X012468Y016887D03*
D585*
X010896Y016887D03*
D586*
X009308Y016920D03*
D587*
X010896Y016928D03*
D588*
X010900Y016970D03*
D589*
X009325Y016978D03*
X012468Y016978D03*
D590*
X010896Y016978D03*
D591*
X010896Y016995D03*
D592*
X010896Y017003D03*
D593*
X010896Y017020D03*
D594*
X009358Y017028D03*
X012435Y017028D03*
D595*
X010896Y017028D03*
D596*
X009366Y017044D03*
X012427Y017044D03*
D597*
X010896Y017044D03*
D598*
X010896Y017053D03*
D599*
X010896Y017069D03*
D600*
X009391Y017078D03*
X012402Y017078D03*
D601*
X010896Y017078D03*
D602*
X009408Y017102D03*
X012385Y017102D03*
D603*
X010896Y017102D03*
D604*
X010896Y017111D03*
D605*
X010896Y017119D03*
D606*
X010900Y017127D03*
D607*
X012360Y017136D03*
D608*
X012340Y017161D03*
X009453Y017161D03*
D609*
X009461Y017169D03*
X012331Y017169D03*
D610*
X010896Y017169D03*
D611*
X010896Y017185D03*
D612*
X010896Y017194D03*
D613*
X010896Y017202D03*
D614*
X010896Y017210D03*
D615*
X010896Y017219D03*
D616*
X010896Y017235D03*
D617*
X010896Y017243D03*
D618*
X010896Y017252D03*
D619*
X010896Y017277D03*
D620*
X012514Y017285D03*
D621*
X010896Y017285D03*
D622*
X012526Y017293D03*
D623*
X010896Y017293D03*
D624*
X010896Y017302D03*
D625*
X010896Y017310D03*
D626*
X010896Y017318D03*
D627*
X009217Y017318D03*
D628*
X012563Y017326D03*
D629*
X009208Y017326D03*
D630*
X012576Y017335D03*
D631*
X010896Y017335D03*
D632*
X009196Y017335D03*
D633*
X012593Y017351D03*
D634*
X009179Y017351D03*
D635*
X012601Y017360D03*
D636*
X011962Y017360D03*
X009831Y017360D03*
D637*
X010896Y017401D03*
D638*
X010896Y017418D03*
D639*
X009922Y017426D03*
X011871Y017426D03*
D640*
X011858Y017434D03*
X009934Y017434D03*
D641*
X010896Y017434D03*
D642*
X010092Y017525D03*
D643*
X011651Y017550D03*
D644*
X010133Y017550D03*
D645*
X011552Y017584D03*
D646*
X010233Y017584D03*
D647*
X010888Y017592D03*
D648*
X010888Y017617D03*
D649*
X010888Y017625D03*
D650*
X010888Y017716D03*
D651*
X010888Y017766D03*
D652*
X010892Y017783D03*
D653*
X010888Y017791D03*
D654*
X010892Y017816D03*
D655*
X011850Y017824D03*
D656*
X010900Y017841D03*
D657*
X011838Y017849D03*
D658*
X010900Y017849D03*
D659*
X009947Y017849D03*
D660*
X010900Y017882D03*
D661*
X009963Y017882D03*
D662*
X009967Y017899D03*
D663*
X011813Y017907D03*
D664*
X010896Y017907D03*
D665*
X009980Y017932D03*
D666*
X011796Y017949D03*
D667*
X009988Y017949D03*
D668*
X011792Y017957D03*
D669*
X010001Y017973D03*
D670*
X011767Y018015D03*
D671*
X011759Y018031D03*
D672*
X011755Y018040D03*
D673*
X010025Y018040D03*
D674*
X010892Y018098D03*
D675*
X010888Y018164D03*
D676*
X009794Y010861D03*
X009976Y009951D03*
X009976Y009937D03*
X010186Y009755D03*
X010186Y009741D03*
X010914Y010245D03*
X010928Y010231D03*
X010886Y010609D03*
X010914Y010651D03*
X010928Y010665D03*
X011404Y010679D03*
X011418Y010665D03*
X011460Y010609D03*
X011460Y010287D03*
X011418Y010231D03*
X011404Y010217D03*
X011908Y010665D03*
X012426Y010651D03*
X012440Y010637D03*
X012440Y010259D03*
X012426Y010245D03*
X012944Y010707D03*
X013448Y010651D03*
X013434Y010259D03*
X013448Y010245D03*
X014260Y010329D03*
X014288Y010357D03*
X014358Y010441D03*
X014386Y010469D03*
X014470Y010567D03*
X014484Y010581D03*
X014498Y010595D03*
X014596Y010707D03*
X014890Y010189D03*
X014904Y010175D03*
X015170Y010175D03*
X015184Y010189D03*
X009136Y009867D03*
X009136Y009839D03*
X009136Y009825D03*
X009136Y009811D03*
X009024Y009671D03*
X008940Y009895D03*
X008590Y009895D03*
X008590Y009909D03*
X008590Y009937D03*
X008590Y009951D03*
X008590Y009965D03*
X008590Y009979D03*
X008590Y009797D03*
X008590Y009769D03*
X008590Y009755D03*
X008590Y009741D03*
X008590Y009727D03*
X008590Y009699D03*
X007918Y010371D03*
X007680Y010371D03*
X007666Y010245D03*
X007680Y010735D03*
X007918Y010735D03*
D677*
X007911Y010609D03*
X007911Y010497D03*
X007687Y010497D03*
X007687Y010609D03*
X007687Y010959D03*
X007911Y010959D03*
X007701Y010105D03*
X007911Y010049D03*
X010123Y010287D03*
X010347Y009951D03*
X010347Y009937D03*
X010179Y009727D03*
X010599Y009685D03*
X010907Y010259D03*
X010893Y010287D03*
X010879Y010301D03*
X010879Y010315D03*
X010865Y010329D03*
X010851Y010385D03*
X010851Y010399D03*
X010851Y010497D03*
X010851Y010511D03*
X010865Y010567D03*
X010879Y010595D03*
X010907Y010637D03*
X011145Y010931D03*
X011159Y010917D03*
X011173Y010889D03*
X011187Y010875D03*
X011131Y010945D03*
X011117Y010959D03*
X011439Y010637D03*
X011467Y010595D03*
X011481Y010567D03*
X011495Y010525D03*
X011495Y010511D03*
X011495Y010497D03*
X011495Y010399D03*
X011495Y010385D03*
X011495Y010371D03*
X011481Y010329D03*
X011467Y010301D03*
X011439Y010259D03*
X011705Y010259D03*
X011705Y010245D03*
X011705Y010231D03*
X011705Y010217D03*
X011705Y010189D03*
X011705Y010175D03*
X011705Y010161D03*
X011705Y010147D03*
X011705Y010119D03*
X011705Y010105D03*
X011705Y010287D03*
X011705Y010301D03*
X011705Y010315D03*
X011705Y010329D03*
X011705Y010357D03*
X011705Y010371D03*
X011705Y010385D03*
X011705Y010399D03*
X011705Y010427D03*
X011705Y010441D03*
X011705Y010455D03*
X011705Y010469D03*
X011705Y010497D03*
X011705Y010511D03*
X011705Y010525D03*
X011705Y010539D03*
X011705Y010567D03*
X011705Y010581D03*
X011705Y010595D03*
X011705Y010609D03*
X011705Y010637D03*
X011705Y010651D03*
X011705Y010665D03*
X011705Y010679D03*
X011705Y010707D03*
X011705Y010721D03*
X011705Y010735D03*
X011705Y010749D03*
X011705Y010777D03*
X011705Y010791D03*
X011915Y010231D03*
X012069Y009965D03*
X012279Y009825D03*
X012657Y010119D03*
X012671Y010147D03*
X012671Y010161D03*
X012685Y010175D03*
X012685Y010189D03*
X012699Y010217D03*
X012713Y010231D03*
X012713Y010245D03*
X012741Y010301D03*
X012755Y010329D03*
X012783Y010399D03*
X012797Y010427D03*
X012811Y010441D03*
X012811Y010455D03*
X012839Y010511D03*
X012853Y010539D03*
X012867Y010567D03*
X012867Y010581D03*
X012881Y010595D03*
X012881Y010609D03*
X012895Y010637D03*
X012979Y010637D03*
X012993Y010609D03*
X013007Y010595D03*
X013007Y010581D03*
X013021Y010567D03*
X013035Y010539D03*
X013035Y010525D03*
X013049Y010511D03*
X013049Y010497D03*
X013063Y010469D03*
X013077Y010441D03*
X013091Y010399D03*
X013133Y010329D03*
X013133Y010315D03*
X013147Y010301D03*
X013147Y010287D03*
X013161Y010259D03*
X013175Y010245D03*
X013175Y010231D03*
X013189Y010217D03*
X013203Y010175D03*
X013217Y010147D03*
X013231Y010119D03*
X013413Y010287D03*
X013413Y010301D03*
X013399Y010329D03*
X013385Y010385D03*
X013385Y010399D03*
X013385Y010427D03*
X013385Y010455D03*
X013385Y010469D03*
X013385Y010497D03*
X013399Y010539D03*
X013413Y010581D03*
X013413Y010595D03*
X013427Y010609D03*
X013441Y010637D03*
X012937Y010721D03*
X012475Y010581D03*
X012475Y010567D03*
X012489Y010539D03*
X012489Y010525D03*
X012489Y010511D03*
X012503Y010455D03*
X012489Y010371D03*
X012489Y010357D03*
X012475Y010329D03*
X012475Y010315D03*
X012461Y010301D03*
X012461Y010287D03*
X012461Y010595D03*
X012461Y010609D03*
X011439Y009685D03*
X014141Y010189D03*
X014225Y010287D03*
X014239Y010301D03*
X014253Y010315D03*
X014309Y010385D03*
X014323Y010399D03*
X014351Y010427D03*
X014407Y010497D03*
X014421Y010511D03*
X014435Y010525D03*
X014449Y010539D03*
X014505Y010609D03*
X014603Y010609D03*
X014603Y010595D03*
X014603Y010581D03*
X014603Y010567D03*
X014603Y010539D03*
X014603Y010525D03*
X014603Y010511D03*
X014603Y010497D03*
X014603Y010469D03*
X014603Y010455D03*
X014603Y010441D03*
X014603Y010427D03*
X014603Y010399D03*
X014603Y010385D03*
X014603Y010371D03*
X014603Y010357D03*
X014603Y010329D03*
X014603Y010315D03*
X014603Y010301D03*
X014603Y010287D03*
X014603Y010259D03*
X014603Y010245D03*
X014603Y010231D03*
X014603Y010217D03*
X014603Y010189D03*
X014603Y010175D03*
X014603Y010161D03*
X014603Y010147D03*
X014603Y010119D03*
X014855Y010245D03*
X014869Y010217D03*
X014841Y010357D03*
X014841Y010371D03*
X014841Y010385D03*
X014841Y010399D03*
X014841Y010427D03*
X014841Y010441D03*
X014841Y010455D03*
X014841Y010469D03*
X014841Y010497D03*
X014841Y010511D03*
X014841Y010525D03*
X014841Y010539D03*
X014841Y010567D03*
X014841Y010581D03*
X014841Y010595D03*
X014841Y010609D03*
X014841Y010637D03*
X014841Y010651D03*
X014841Y010665D03*
X014841Y010679D03*
X014841Y010707D03*
X014841Y010721D03*
X014841Y010735D03*
X014841Y010749D03*
X014841Y010777D03*
X014603Y010721D03*
X015219Y010245D03*
X015205Y010217D03*
D678*
X014925Y010161D03*
X014155Y010217D03*
X013469Y010217D03*
X013469Y010665D03*
X012419Y010665D03*
X012405Y010679D03*
X012419Y010231D03*
X012405Y010217D03*
X011369Y010189D03*
X011369Y010707D03*
X009675Y009909D03*
X009675Y009895D03*
X009675Y009881D03*
X009675Y009867D03*
X009675Y009839D03*
X009675Y009825D03*
X009675Y009811D03*
X009675Y009797D03*
X009675Y009769D03*
X009675Y009755D03*
X009675Y009741D03*
X009675Y009727D03*
X009675Y009699D03*
X009675Y009685D03*
X009129Y009797D03*
X009115Y009755D03*
X009129Y009881D03*
D679*
X009024Y009937D03*
X009024Y009741D03*
X009360Y009741D03*
X009360Y009727D03*
X009360Y009699D03*
X009360Y009685D03*
X009360Y009937D03*
X009360Y009951D03*
X009360Y009965D03*
X009360Y009979D03*
X009444Y010637D03*
X010494Y010245D03*
X008254Y010245D03*
X008254Y010259D03*
D680*
X008191Y010091D03*
X008135Y010035D03*
X008205Y010931D03*
X008191Y010945D03*
X009059Y010469D03*
X009059Y010455D03*
X009059Y010441D03*
X009059Y010427D03*
X009059Y010399D03*
X009059Y010385D03*
X009059Y010371D03*
X009059Y010357D03*
X009059Y010329D03*
X009059Y010315D03*
X009059Y010301D03*
X009059Y010287D03*
X009059Y010259D03*
X009059Y010245D03*
X009059Y010231D03*
X009059Y010217D03*
X009059Y010189D03*
X009059Y010175D03*
X009059Y010161D03*
X009059Y010147D03*
X009059Y010119D03*
X009031Y009685D03*
X010599Y009699D03*
X010599Y009979D03*
X010599Y010427D03*
X010599Y010441D03*
X010599Y010455D03*
X010599Y010469D03*
X011439Y009699D03*
X013539Y010175D03*
X007393Y010917D03*
D681*
X007701Y010049D03*
X008653Y010609D03*
X009787Y011001D03*
X010557Y010581D03*
X010571Y010567D03*
X010571Y010329D03*
X010557Y010301D03*
X012363Y009699D03*
X013567Y010721D03*
D682*
X014127Y010147D03*
X014617Y010749D03*
X012433Y009951D03*
X012433Y009937D03*
X012433Y009909D03*
X012433Y009895D03*
X012433Y009881D03*
X012433Y009867D03*
X012433Y009825D03*
X012433Y009811D03*
X012433Y009797D03*
X012433Y009769D03*
X012433Y009755D03*
X012433Y009741D03*
X012433Y009727D03*
X012251Y009755D03*
X012251Y009769D03*
X012251Y009797D03*
X012167Y009741D03*
X012167Y009727D03*
X012181Y009699D03*
X012153Y009755D03*
X012153Y009769D03*
X012111Y009867D03*
X012111Y009881D03*
X012111Y009895D03*
X012097Y009909D03*
X012041Y009937D03*
X012027Y009909D03*
X012027Y009895D03*
X012013Y009881D03*
X012013Y009867D03*
X011971Y009769D03*
X011971Y009755D03*
X011957Y009727D03*
X011943Y009699D03*
X011677Y009741D03*
X011551Y009797D03*
X011551Y009811D03*
X011551Y009825D03*
X011551Y009839D03*
X011551Y009867D03*
X011551Y009881D03*
X011551Y009895D03*
X011663Y009895D03*
X011663Y009909D03*
X011537Y009755D03*
X011341Y009755D03*
X011327Y009769D03*
X011341Y009909D03*
X010963Y009909D03*
X010963Y009895D03*
X010963Y009881D03*
X010963Y009867D03*
X010963Y009839D03*
X010963Y009825D03*
X010963Y009811D03*
X010963Y009797D03*
X010963Y009769D03*
X010963Y009755D03*
X010963Y009741D03*
X010963Y009727D03*
X010963Y009937D03*
X010963Y009951D03*
X010963Y009965D03*
X010963Y009979D03*
X010711Y009909D03*
X010711Y009895D03*
X010711Y009881D03*
X010711Y009797D03*
X010711Y009769D03*
X010697Y009755D03*
X010501Y009741D03*
X010487Y009769D03*
X010473Y009797D03*
X010473Y009811D03*
X010473Y009825D03*
X010473Y009839D03*
X010473Y009867D03*
X010473Y009881D03*
X010473Y009895D03*
X010487Y009909D03*
X010501Y009937D03*
X010361Y009979D03*
X010291Y009881D03*
X010263Y009839D03*
X010221Y009769D03*
X010081Y009727D03*
X010067Y009741D03*
X010067Y009755D03*
X010067Y009769D03*
X010011Y009895D03*
X010011Y009909D03*
X009941Y009909D03*
X009927Y009881D03*
X009927Y009867D03*
X009913Y009839D03*
X009871Y009741D03*
X009871Y009727D03*
X009857Y009699D03*
X008947Y009797D03*
X007897Y010077D03*
X007897Y010091D03*
X007897Y010105D03*
X007897Y010119D03*
X007897Y010259D03*
X007911Y010399D03*
X007911Y010469D03*
X007911Y010637D03*
X007911Y010861D03*
X007911Y010931D03*
X007687Y010931D03*
X007687Y010875D03*
X007687Y010861D03*
X007687Y010707D03*
X007687Y010637D03*
X007687Y010469D03*
X007687Y010399D03*
X007687Y010119D03*
X012167Y010805D03*
D683*
X011915Y010245D03*
X011859Y009951D03*
X011859Y009937D03*
X011859Y009909D03*
X011859Y009895D03*
X011859Y009881D03*
X011859Y009867D03*
X011859Y009811D03*
X011859Y009797D03*
X011859Y009769D03*
X011859Y009755D03*
X011859Y009741D03*
X011859Y009727D03*
X011859Y009699D03*
X011999Y009825D03*
X011999Y009839D03*
X012125Y009839D03*
X012265Y009881D03*
X012265Y009895D03*
X012265Y009909D03*
X012265Y009937D03*
X011649Y009699D03*
X011229Y009727D03*
X011229Y009741D03*
X011229Y009755D03*
X011229Y009769D03*
X011229Y009797D03*
X011229Y009811D03*
X011229Y009825D03*
X011229Y009867D03*
X011229Y009881D03*
X011229Y009895D03*
X011229Y009909D03*
X011229Y009937D03*
X011229Y009951D03*
X010725Y009867D03*
X010725Y009839D03*
X010725Y009825D03*
X010725Y009811D03*
X010305Y009895D03*
X010249Y009811D03*
X010235Y009797D03*
X010165Y009797D03*
X010165Y009811D03*
X010165Y009825D03*
X010165Y009839D03*
X010165Y009867D03*
X010165Y009881D03*
X010165Y009895D03*
X010165Y009909D03*
X010165Y009937D03*
X010165Y009951D03*
X010165Y009965D03*
X010165Y009979D03*
X010025Y009881D03*
X010025Y009867D03*
X010039Y009839D03*
X010039Y009825D03*
X010165Y009769D03*
X009885Y009769D03*
D684*
X010144Y010245D03*
X011138Y009699D03*
X011768Y009965D03*
X012160Y010791D03*
X009024Y009965D03*
X008226Y010847D03*
X007806Y009895D03*
D685*
X008226Y010147D03*
X008226Y010161D03*
X007918Y010567D03*
X008226Y010875D03*
X009024Y009699D03*
X009976Y009797D03*
X010550Y010287D03*
X010550Y010595D03*
X010536Y010609D03*
X009794Y010917D03*
X009794Y010931D03*
X009794Y010945D03*
X009794Y010959D03*
X009794Y010987D03*
X010886Y009699D03*
X012356Y009839D03*
X012356Y009965D03*
X016066Y011141D03*
D686*
X012132Y009825D03*
X010368Y009825D03*
X010368Y009811D03*
X010368Y009797D03*
X010368Y009769D03*
X010368Y009755D03*
X010368Y009741D03*
X010368Y009727D03*
X010368Y009699D03*
X010368Y009839D03*
X010368Y009867D03*
X010368Y009881D03*
X010368Y009895D03*
X010368Y009909D03*
X008016Y010119D03*
X008016Y010147D03*
X008016Y010161D03*
X008016Y010175D03*
X008016Y010189D03*
X008016Y010217D03*
X008016Y010231D03*
X008016Y010245D03*
X008016Y010259D03*
X007918Y010427D03*
X007918Y010441D03*
X007918Y010455D03*
X007918Y010651D03*
X007918Y010665D03*
X007918Y010679D03*
X007918Y010875D03*
X007918Y010889D03*
X007918Y010917D03*
X007778Y010189D03*
X007778Y010175D03*
X007666Y010217D03*
D687*
X010172Y009699D03*
X010312Y009909D03*
X010522Y009951D03*
X010522Y009727D03*
X011362Y009727D03*
X011362Y009951D03*
X011712Y009797D03*
X012062Y009979D03*
X012272Y009727D03*
X012832Y010497D03*
X013392Y010511D03*
X013392Y010525D03*
X013392Y010371D03*
X013392Y010357D03*
X014862Y010231D03*
X015212Y010231D03*
X011502Y010427D03*
X011502Y010441D03*
X011502Y010455D03*
X011502Y010469D03*
X010872Y010581D03*
D688*
X010858Y010539D03*
X010858Y010525D03*
X010844Y010469D03*
X010844Y010455D03*
X010844Y010441D03*
X010844Y010427D03*
X010858Y010371D03*
X010858Y010357D03*
X010676Y009951D03*
X010690Y009937D03*
X010690Y009741D03*
X010676Y009727D03*
X010494Y009755D03*
X010284Y009867D03*
X010256Y009825D03*
X010354Y009965D03*
X010088Y009699D03*
X009878Y009755D03*
X009906Y009825D03*
X009976Y009965D03*
X009976Y009979D03*
X010130Y010595D03*
X009794Y011057D03*
X011180Y010805D03*
X011194Y010861D03*
X011474Y010581D03*
X011488Y010539D03*
X011488Y010357D03*
X011474Y010315D03*
X011516Y009951D03*
X011530Y009937D03*
X011544Y009909D03*
X011670Y009881D03*
X011684Y009867D03*
X011726Y009811D03*
X011698Y009769D03*
X011684Y009755D03*
X011670Y009727D03*
X011544Y009769D03*
X011530Y009741D03*
X011516Y009727D03*
X011348Y009741D03*
X011348Y009937D03*
X011670Y009937D03*
X011684Y009951D03*
X011964Y009741D03*
X012258Y009741D03*
X012258Y009811D03*
X012286Y009867D03*
X012286Y009951D03*
X012496Y010385D03*
X012496Y010399D03*
X012496Y010427D03*
X012496Y010441D03*
X012496Y010469D03*
X012496Y010497D03*
X012748Y010315D03*
X012734Y010287D03*
X012720Y010259D03*
X012818Y010469D03*
X012846Y010525D03*
X012944Y010735D03*
X012944Y010749D03*
X013070Y010455D03*
X013084Y010427D03*
X013196Y010189D03*
X013210Y010161D03*
X013406Y010315D03*
X013378Y010441D03*
X013406Y010567D03*
X013896Y010567D03*
X013896Y010581D03*
X013896Y010595D03*
X013896Y010609D03*
X013896Y010637D03*
X013896Y010651D03*
X013896Y010665D03*
X013896Y010679D03*
X013896Y010707D03*
X013896Y010721D03*
X013896Y010539D03*
X013896Y010525D03*
X013896Y010511D03*
X013896Y010497D03*
X013896Y010469D03*
X013896Y010455D03*
X013896Y010441D03*
X013896Y010427D03*
X013896Y010399D03*
X013896Y010385D03*
X013896Y010371D03*
X013896Y010357D03*
X013896Y010329D03*
X013896Y010315D03*
X013896Y010301D03*
X013896Y010287D03*
X013896Y010259D03*
X013896Y010245D03*
X013896Y010231D03*
X013896Y010217D03*
X013896Y010189D03*
X013896Y010175D03*
X014134Y010175D03*
X014134Y010161D03*
X014134Y010287D03*
X014134Y010301D03*
X014134Y010315D03*
X014134Y010329D03*
X014134Y010357D03*
X014134Y010371D03*
X014134Y010385D03*
X014134Y010399D03*
X014134Y010427D03*
X014134Y010441D03*
X014134Y010455D03*
X014134Y010469D03*
X014134Y010497D03*
X014134Y010511D03*
X014134Y010525D03*
X014134Y010539D03*
X014134Y010567D03*
X014134Y010581D03*
X014134Y010595D03*
X014134Y010609D03*
X014134Y010637D03*
X014134Y010651D03*
X014134Y010665D03*
X014134Y010679D03*
X014134Y010707D03*
X014134Y010721D03*
X014134Y010735D03*
X014134Y010749D03*
X014134Y010777D03*
X014610Y010735D03*
X014848Y010329D03*
X014848Y010315D03*
X014848Y010301D03*
X014848Y010287D03*
X014848Y010259D03*
X015226Y010259D03*
X015226Y010287D03*
X015226Y010301D03*
X015226Y010315D03*
X015226Y010329D03*
X015226Y010357D03*
X015226Y010371D03*
X015226Y010385D03*
X015226Y010399D03*
X015226Y010427D03*
X015226Y010441D03*
X015226Y010455D03*
X015226Y010469D03*
X015226Y010497D03*
X015226Y010511D03*
X015226Y010525D03*
X015226Y010539D03*
X015226Y010567D03*
X015226Y010581D03*
X015226Y010595D03*
X015226Y010609D03*
X015226Y010637D03*
X015226Y010651D03*
X015226Y010665D03*
X015226Y010679D03*
X015226Y010707D03*
X015226Y010721D03*
X015226Y010735D03*
X015226Y010749D03*
X015226Y010777D03*
X011908Y010651D03*
X007918Y010707D03*
X007918Y010721D03*
X007918Y010847D03*
X007918Y010945D03*
X007680Y010945D03*
X007680Y010847D03*
X007680Y010721D03*
X007680Y010385D03*
X007666Y010231D03*
X007540Y010119D03*
X007918Y010385D03*
D689*
X007911Y010511D03*
X007911Y010595D03*
X007687Y010595D03*
X007687Y010511D03*
X008597Y009881D03*
X008793Y009881D03*
X008793Y009895D03*
X008793Y009909D03*
X008793Y009937D03*
X008793Y009951D03*
X008793Y009965D03*
X008793Y009979D03*
X008933Y009909D03*
X008933Y009769D03*
X008947Y009755D03*
X008793Y009755D03*
X008793Y009741D03*
X008793Y009727D03*
X008793Y009699D03*
X008793Y009769D03*
X008793Y009797D03*
X009437Y009797D03*
X009437Y009811D03*
X009437Y009769D03*
X009437Y009755D03*
X009437Y009881D03*
X009437Y009895D03*
X009437Y009909D03*
X010123Y010609D03*
X010977Y010707D03*
X010977Y010189D03*
X011957Y010707D03*
X013483Y010679D03*
D690*
X012356Y009713D03*
X010886Y009713D03*
X009794Y010973D03*
X008660Y010623D03*
D691*
X007918Y010623D03*
X007918Y010483D03*
X007680Y010483D03*
X007680Y010623D03*
X007904Y010063D03*
X010228Y009783D03*
X010480Y009783D03*
X010494Y009923D03*
X010844Y010413D03*
X010844Y010483D03*
X011656Y009713D03*
X012174Y009713D03*
X012496Y010413D03*
X012496Y010483D03*
X013224Y010133D03*
X013896Y010203D03*
X013896Y010273D03*
X013896Y010343D03*
X013896Y010413D03*
X013896Y010483D03*
X013896Y010553D03*
X013896Y010623D03*
X013896Y010693D03*
X014134Y010693D03*
X014134Y010623D03*
X014134Y010553D03*
X014134Y010483D03*
X014134Y010413D03*
X014134Y010343D03*
X014134Y010273D03*
X014134Y010763D03*
X014848Y010343D03*
X014848Y010273D03*
X015226Y010273D03*
X015226Y010343D03*
X015226Y010413D03*
X015226Y010483D03*
X015226Y010553D03*
X015226Y010623D03*
X015226Y010693D03*
X015226Y010763D03*
D692*
X014617Y010763D03*
X012937Y010763D03*
X012433Y009923D03*
X012433Y009783D03*
X012251Y009783D03*
X012097Y009923D03*
X012041Y009923D03*
X012013Y009853D03*
X011957Y009713D03*
X011663Y009923D03*
X011537Y009923D03*
X011551Y009853D03*
X011551Y009783D03*
X011327Y009783D03*
X011341Y009923D03*
X010963Y009923D03*
X010963Y009853D03*
X010963Y009783D03*
X010711Y009783D03*
X010697Y009923D03*
X010473Y009853D03*
X010277Y009853D03*
X010081Y009713D03*
X009913Y009853D03*
X009941Y009923D03*
X009857Y009713D03*
X007897Y010133D03*
X007911Y010693D03*
X007687Y010693D03*
D693*
X010025Y009853D03*
X010165Y009853D03*
X010165Y009783D03*
X010165Y009923D03*
X010725Y009853D03*
X011229Y009783D03*
X011229Y009923D03*
X011705Y009783D03*
X011859Y009783D03*
X011859Y009713D03*
X011859Y009923D03*
X012125Y009853D03*
X012265Y009923D03*
D694*
X011439Y009713D03*
X010599Y009713D03*
X009479Y010553D03*
X009059Y010553D03*
X008219Y010903D03*
X008219Y010133D03*
D695*
X008240Y010203D03*
X009458Y010623D03*
X011138Y009713D03*
X011768Y009853D03*
D696*
X010368Y009853D03*
X010368Y009783D03*
X010368Y009713D03*
X008016Y010133D03*
X008016Y010203D03*
X007918Y010413D03*
X007666Y010203D03*
X007918Y010903D03*
D697*
X010172Y009713D03*
X011502Y010413D03*
X011502Y010483D03*
X012482Y010343D03*
X013392Y010343D03*
D698*
X014589Y010693D03*
X011929Y010203D03*
X009675Y009853D03*
X009675Y009783D03*
X009675Y009713D03*
X009129Y009783D03*
D699*
X009360Y009713D03*
D700*
X009031Y009713D03*
X009969Y009783D03*
X010529Y010273D03*
X011145Y009853D03*
X012069Y009783D03*
D701*
X012391Y010203D03*
X012391Y010693D03*
X012937Y010693D03*
X013483Y010203D03*
X009437Y009923D03*
X009437Y009783D03*
X008933Y009783D03*
X008793Y009783D03*
X008793Y009713D03*
X008793Y009923D03*
X008947Y009923D03*
X007911Y010973D03*
X007687Y010973D03*
D702*
X007680Y010833D03*
X007918Y010833D03*
X008590Y009923D03*
X008590Y009783D03*
X008590Y009713D03*
X009136Y009853D03*
X010340Y009923D03*
X010956Y010203D03*
X011390Y010203D03*
X011390Y010693D03*
X011110Y010973D03*
X010956Y010693D03*
X011936Y010693D03*
X012454Y010623D03*
X013434Y010623D03*
X014148Y010203D03*
X014218Y010273D03*
X014274Y010343D03*
X014400Y010483D03*
X014456Y010553D03*
X014876Y010203D03*
X015198Y010203D03*
D703*
X015037Y010119D03*
X010501Y010637D03*
X009367Y009867D03*
X009367Y009839D03*
X009367Y009825D03*
X009031Y009727D03*
X009031Y009951D03*
X008247Y010217D03*
X008247Y010231D03*
D704*
X009122Y009909D03*
X009122Y009895D03*
X009122Y009769D03*
X010942Y010217D03*
X010942Y010679D03*
X011432Y010651D03*
X011432Y010245D03*
X011922Y010217D03*
X012062Y009951D03*
X011922Y010679D03*
X013462Y010231D03*
X014302Y010371D03*
X014372Y010455D03*
D705*
X012062Y009811D03*
X012062Y009797D03*
X011782Y009839D03*
X011782Y009979D03*
X009472Y010581D03*
X009472Y010595D03*
X009052Y010581D03*
X009052Y010567D03*
X007372Y010861D03*
D706*
X007379Y010875D03*
X007379Y010889D03*
X008219Y010889D03*
X008639Y010581D03*
X009059Y010539D03*
X009059Y010525D03*
X009479Y010567D03*
X009969Y009811D03*
X010599Y009965D03*
X011439Y009965D03*
D707*
X011173Y010777D03*
X009675Y009979D03*
X009675Y009965D03*
X009675Y009951D03*
X009675Y009937D03*
X009423Y010651D03*
X009199Y010749D03*
X008779Y010749D03*
X008275Y010679D03*
X008275Y010665D03*
X008275Y010651D03*
X008275Y010637D03*
X008261Y010721D03*
X008275Y010427D03*
X008275Y010399D03*
X008695Y009867D03*
X008695Y009839D03*
X008695Y009825D03*
X008695Y009811D03*
X007435Y010147D03*
X007421Y010175D03*
X007323Y010427D03*
X007323Y010441D03*
X007323Y010455D03*
X007323Y010469D03*
X007351Y010735D03*
X007365Y010749D03*
X007393Y010805D03*
D708*
X007918Y010805D03*
X008212Y010917D03*
X008646Y010595D03*
X008632Y010567D03*
X008632Y010539D03*
X008632Y010525D03*
X008632Y010511D03*
X008632Y010497D03*
X008632Y010469D03*
X008632Y010455D03*
X008632Y010441D03*
X008632Y010427D03*
X008632Y010399D03*
X008632Y010385D03*
X008632Y010371D03*
X008632Y010357D03*
X008632Y010329D03*
X008632Y010315D03*
X008632Y010301D03*
X008632Y010287D03*
X008632Y010259D03*
X008632Y010245D03*
X008632Y010231D03*
X008632Y010217D03*
X008632Y010189D03*
X008632Y010175D03*
X008632Y010161D03*
X008632Y010147D03*
X008632Y010119D03*
X008212Y010119D03*
X008198Y010105D03*
X009052Y010497D03*
X009052Y010511D03*
X009486Y010511D03*
X009486Y010497D03*
X009486Y010469D03*
X009486Y010455D03*
X009486Y010441D03*
X009486Y010427D03*
X009486Y010399D03*
X009486Y010385D03*
X009486Y010371D03*
X009486Y010357D03*
X009486Y010329D03*
X009486Y010315D03*
X009486Y010301D03*
X009486Y010287D03*
X009486Y010259D03*
X009486Y010245D03*
X009486Y010231D03*
X009486Y010217D03*
X009486Y010189D03*
X009486Y010175D03*
X009486Y010161D03*
X009486Y010147D03*
X009486Y010119D03*
X009486Y010525D03*
X009486Y010539D03*
X009486Y010721D03*
X009486Y010735D03*
X009486Y010749D03*
X009486Y010777D03*
X010298Y010791D03*
X010578Y010539D03*
X010578Y010525D03*
X010592Y010511D03*
X010592Y010497D03*
X010592Y010399D03*
X010592Y010385D03*
X010592Y010371D03*
X010578Y010357D03*
X011796Y009825D03*
X007806Y011141D03*
D709*
X008233Y010861D03*
X008667Y010637D03*
X008779Y010777D03*
X009199Y010777D03*
X009465Y010609D03*
X010123Y010637D03*
X010515Y010259D03*
X011145Y009979D03*
X011145Y009965D03*
X011145Y009839D03*
X011173Y010105D03*
X011173Y010791D03*
X012167Y010105D03*
X008233Y010175D03*
X008233Y010189D03*
X007687Y010567D03*
D710*
X009787Y010903D03*
X010571Y010553D03*
X012363Y009853D03*
D711*
X009367Y009853D03*
D712*
X009675Y009923D03*
X008695Y009853D03*
X008275Y010413D03*
X007323Y010413D03*
D713*
X007673Y010189D03*
X007673Y010175D03*
X007673Y010161D03*
X007673Y010147D03*
X008961Y009881D03*
X011915Y010637D03*
X014113Y010119D03*
D714*
X016059Y009895D03*
X007365Y010217D03*
D715*
X007680Y010427D03*
X007680Y010441D03*
X007680Y010455D03*
X007680Y010651D03*
X007680Y010665D03*
X007680Y010679D03*
X007680Y010889D03*
X007680Y010917D03*
X007890Y010245D03*
X007890Y010231D03*
X007890Y010217D03*
X007890Y010189D03*
X007890Y010175D03*
X007890Y010161D03*
X007890Y010147D03*
X009934Y009895D03*
X010130Y010301D03*
X010130Y010581D03*
X012090Y009937D03*
X012944Y010777D03*
X014624Y010777D03*
D716*
X015611Y010511D03*
X015611Y010497D03*
X015611Y010469D03*
X015611Y010455D03*
X015611Y010441D03*
X015611Y010427D03*
X016059Y009909D03*
X016437Y010189D03*
X008779Y010721D03*
X008261Y010581D03*
X007351Y010525D03*
D717*
X007344Y010581D03*
X007806Y009909D03*
X008268Y010511D03*
X008268Y010595D03*
X009206Y010735D03*
X016066Y011127D03*
X016430Y010175D03*
X016430Y010161D03*
D718*
X016066Y009923D03*
D719*
X014120Y010133D03*
X010004Y009923D03*
X007890Y010203D03*
X007680Y010133D03*
X007680Y010413D03*
X007680Y010903D03*
D720*
X007428Y010063D03*
X009108Y009923D03*
D721*
X007806Y009923D03*
X007806Y011113D03*
X016472Y010693D03*
X016472Y010343D03*
D722*
X016059Y009937D03*
X010305Y010707D03*
D723*
X007806Y009937D03*
X016066Y011099D03*
D724*
X016059Y009951D03*
X010305Y010217D03*
X010305Y010679D03*
D725*
X007806Y011085D03*
X007806Y009951D03*
X015814Y010161D03*
X015814Y010175D03*
X016066Y011085D03*
D726*
X015779Y010329D03*
X015779Y010315D03*
X015779Y010301D03*
X016059Y009965D03*
D727*
X015786Y010287D03*
X016066Y011071D03*
X007806Y011071D03*
X007806Y009965D03*
D728*
X016066Y009979D03*
D729*
X015030Y010105D03*
X012370Y009979D03*
X010564Y010315D03*
X010130Y010259D03*
X009794Y010259D03*
X009794Y010245D03*
X009794Y010231D03*
X009794Y010217D03*
X009794Y010189D03*
X009794Y010175D03*
X009794Y010161D03*
X009794Y010147D03*
X009794Y010119D03*
X009794Y010287D03*
X009794Y010301D03*
X009794Y010315D03*
X009794Y010329D03*
X009794Y010357D03*
X009794Y010371D03*
X009794Y010385D03*
X009794Y010399D03*
X009794Y010427D03*
X009794Y010441D03*
X009794Y010455D03*
X009794Y010469D03*
X009794Y010497D03*
X009794Y010511D03*
X009794Y010525D03*
X009794Y010539D03*
X009794Y010567D03*
X009794Y010581D03*
X009794Y010595D03*
X009794Y010609D03*
X009794Y010637D03*
X009794Y010651D03*
X009794Y010665D03*
X009794Y010679D03*
X009794Y010707D03*
X009794Y010721D03*
X009794Y010735D03*
X009794Y010749D03*
X009794Y010777D03*
X009794Y010889D03*
X009794Y011015D03*
X009024Y009979D03*
X007680Y010805D03*
X007400Y010119D03*
D730*
X007414Y010091D03*
X007666Y010259D03*
X007722Y010091D03*
X007722Y010077D03*
X008156Y010049D03*
X008184Y010077D03*
X007918Y010525D03*
X007680Y010525D03*
X007680Y010987D03*
X007918Y010987D03*
X008156Y010987D03*
X008184Y010959D03*
X007414Y010959D03*
X007414Y010945D03*
X007400Y010931D03*
X009794Y010875D03*
X009794Y011029D03*
X011026Y010735D03*
X011320Y010735D03*
X011026Y010161D03*
X011432Y009979D03*
X012006Y010735D03*
X012314Y010735D03*
X012944Y010651D03*
X014176Y010259D03*
X014568Y010637D03*
X014568Y010651D03*
D731*
X007806Y009979D03*
D732*
X016066Y009993D03*
D733*
X014841Y010413D03*
X014841Y010483D03*
X014841Y010553D03*
X014841Y010623D03*
X014841Y010693D03*
X014841Y010763D03*
X014603Y010623D03*
X014603Y010553D03*
X014603Y010483D03*
X014603Y010413D03*
X014603Y010343D03*
X014603Y010273D03*
X014603Y010203D03*
X014603Y010133D03*
X014337Y010413D03*
X014519Y010623D03*
X013399Y010553D03*
X013385Y010483D03*
X013385Y010413D03*
X013427Y010273D03*
X013189Y010203D03*
X013161Y010273D03*
X013091Y010413D03*
X013063Y010483D03*
X013021Y010553D03*
X012993Y010623D03*
X012895Y010623D03*
X012853Y010553D03*
X012825Y010483D03*
X012797Y010413D03*
X012727Y010273D03*
X012699Y010203D03*
X012657Y010133D03*
X012447Y010273D03*
X012489Y010553D03*
X011705Y010553D03*
X011705Y010483D03*
X011705Y010413D03*
X011705Y010343D03*
X011705Y010273D03*
X011705Y010203D03*
X011705Y010133D03*
X011453Y010273D03*
X011481Y010343D03*
X011481Y010553D03*
X011453Y010623D03*
X011705Y010623D03*
X011705Y010693D03*
X011705Y010763D03*
X011159Y010903D03*
X010893Y010623D03*
X010865Y010553D03*
X010865Y010343D03*
X010893Y010273D03*
X010599Y009993D03*
X011439Y009993D03*
D734*
X010116Y010623D03*
X009024Y009993D03*
X008170Y010063D03*
X008170Y010973D03*
X007428Y010973D03*
D735*
X007806Y011043D03*
X007806Y009993D03*
X016066Y011043D03*
D736*
X016066Y010007D03*
D737*
X016073Y011029D03*
X007813Y010007D03*
D738*
X016059Y010021D03*
D739*
X016066Y011015D03*
X007806Y011015D03*
X007806Y010021D03*
D740*
X016066Y010035D03*
D741*
X016458Y010259D03*
X016458Y010749D03*
X013728Y010749D03*
X007778Y010035D03*
D742*
X007456Y010035D03*
X007442Y010049D03*
X007918Y010357D03*
X007918Y010749D03*
X007918Y010819D03*
X010998Y010721D03*
X011348Y010721D03*
X011348Y010175D03*
X010998Y010175D03*
X011978Y010175D03*
X011978Y010721D03*
X014162Y010231D03*
X014582Y010679D03*
X015156Y010161D03*
D743*
X016066Y010049D03*
D744*
X016066Y010063D03*
D745*
X010599Y010413D03*
X009059Y010413D03*
X009059Y010343D03*
X009059Y010273D03*
X009059Y010203D03*
X009059Y010133D03*
X007911Y010343D03*
X007715Y010063D03*
D746*
X016066Y010077D03*
D747*
X014575Y010665D03*
X014169Y010245D03*
X013525Y010707D03*
X012349Y010721D03*
X012349Y010175D03*
X012321Y010161D03*
X011999Y010161D03*
X009199Y010791D03*
X008779Y010791D03*
X007911Y010581D03*
X007449Y010987D03*
X007421Y010077D03*
D748*
X016066Y010091D03*
X016066Y010931D03*
D749*
X016066Y010917D03*
X016066Y010105D03*
D750*
X010312Y010105D03*
X009052Y010595D03*
X007372Y010847D03*
X007372Y010189D03*
D751*
X007407Y010105D03*
D752*
X009066Y010665D03*
X016066Y010119D03*
D753*
X016423Y010147D03*
X013763Y010119D03*
X007337Y010511D03*
X007337Y010595D03*
D754*
X007330Y010609D03*
X007330Y010497D03*
X007344Y010357D03*
X008254Y010357D03*
X008240Y010749D03*
X012160Y010777D03*
X012160Y010119D03*
X013770Y010777D03*
X015044Y010147D03*
D755*
X011180Y010119D03*
X008268Y010707D03*
X008226Y010819D03*
X007344Y010721D03*
X007330Y010679D03*
X007330Y010665D03*
X007330Y010651D03*
X007330Y010637D03*
X007330Y010399D03*
X007358Y010259D03*
D756*
X007428Y010161D03*
X008268Y010371D03*
X008268Y010385D03*
X008282Y010441D03*
X008282Y010455D03*
X008282Y010469D03*
X008268Y010609D03*
X008212Y010805D03*
X007806Y011127D03*
X009052Y010637D03*
X010312Y010119D03*
D757*
X008268Y010623D03*
X016416Y010133D03*
D758*
X015828Y010133D03*
D759*
X015037Y010133D03*
X007337Y010693D03*
D760*
X010305Y010133D03*
X013735Y010133D03*
D761*
X012160Y010133D03*
X012160Y010763D03*
X016444Y010203D03*
D762*
X015611Y010413D03*
X015611Y010483D03*
X011173Y010763D03*
X011173Y010133D03*
X010305Y010763D03*
D763*
X009794Y010763D03*
X009794Y010693D03*
X009794Y010623D03*
X009794Y010553D03*
X009794Y010483D03*
X009794Y010413D03*
X009794Y010343D03*
X009794Y010273D03*
X009794Y010203D03*
X009794Y010133D03*
X007680Y010763D03*
D764*
X007918Y010763D03*
X007386Y010903D03*
X008632Y010553D03*
X008632Y010483D03*
X008632Y010413D03*
X008632Y010343D03*
X008632Y010273D03*
X008632Y010203D03*
X008632Y010133D03*
X009052Y010483D03*
X009486Y010483D03*
X009486Y010413D03*
X009486Y010343D03*
X009486Y010273D03*
X009486Y010203D03*
X009486Y010133D03*
X009486Y010763D03*
X010592Y010483D03*
X010578Y010343D03*
D765*
X008268Y010693D03*
X007442Y010133D03*
D766*
X015821Y010147D03*
D767*
X016472Y010329D03*
X016472Y010357D03*
X016472Y010371D03*
X016472Y010651D03*
X016472Y010665D03*
X016472Y010679D03*
X013714Y010735D03*
X013714Y010147D03*
X012944Y010357D03*
X012160Y010147D03*
X012160Y010749D03*
D768*
X011173Y010147D03*
X016451Y010231D03*
X016451Y010245D03*
X016451Y010777D03*
X016451Y010791D03*
D769*
X016479Y010637D03*
X016479Y010609D03*
X016479Y010595D03*
X016479Y010581D03*
X016479Y010567D03*
X016479Y010539D03*
X016479Y010525D03*
X016479Y010511D03*
X016479Y010497D03*
X016479Y010469D03*
X016479Y010455D03*
X016479Y010441D03*
X016479Y010427D03*
X016479Y010399D03*
X016479Y010385D03*
X010305Y010147D03*
X010305Y010735D03*
D770*
X013707Y010161D03*
D771*
X012937Y010665D03*
X011327Y010161D03*
X007687Y010581D03*
D772*
X010305Y010161D03*
D773*
X010312Y010175D03*
D774*
X015807Y010189D03*
D775*
X013504Y010189D03*
X012944Y010679D03*
X012370Y010707D03*
X012370Y010189D03*
X011950Y010189D03*
X007680Y010357D03*
X007680Y010749D03*
X007680Y010819D03*
D776*
X010312Y010189D03*
D777*
X015807Y010203D03*
D778*
X010305Y010203D03*
X010305Y010693D03*
D779*
X010522Y010623D03*
X007372Y010203D03*
D780*
X008254Y010525D03*
X009206Y010721D03*
X016444Y010217D03*
D781*
X015800Y010217D03*
D782*
X015793Y010231D03*
X015793Y010245D03*
X015793Y010259D03*
D783*
X010305Y010231D03*
X010305Y010651D03*
X010305Y010665D03*
D784*
X009052Y010609D03*
X008688Y010651D03*
X007358Y010245D03*
X007358Y010231D03*
D785*
X016458Y010273D03*
X016458Y010763D03*
D786*
X015786Y010273D03*
D787*
X013504Y010693D03*
X010130Y010273D03*
X009794Y011043D03*
D788*
X007799Y010273D03*
D789*
X010305Y010749D03*
X016465Y010735D03*
X016465Y010721D03*
X016465Y010707D03*
X016465Y010315D03*
X016465Y010301D03*
X016465Y010287D03*
D790*
X007806Y010287D03*
D791*
X007799Y010301D03*
D792*
X007806Y010315D03*
X007806Y010329D03*
D793*
X015772Y010343D03*
D794*
X012937Y010343D03*
D795*
X008240Y010343D03*
X008226Y010763D03*
X007358Y010343D03*
D796*
X007687Y010343D03*
D797*
X015772Y010357D03*
X015772Y010371D03*
X015772Y010385D03*
X015772Y010399D03*
X015772Y010637D03*
X015772Y010651D03*
X015772Y010665D03*
X015772Y010679D03*
D798*
X012937Y010371D03*
D799*
X008247Y010735D03*
X007337Y010385D03*
X007337Y010371D03*
D800*
X008240Y010567D03*
X011180Y010749D03*
X012944Y010385D03*
D801*
X016073Y011113D03*
X016479Y010623D03*
X016479Y010553D03*
X016479Y010483D03*
X016479Y010413D03*
D802*
X008275Y010483D03*
X007379Y010763D03*
D803*
X007330Y010483D03*
D804*
X008275Y010497D03*
X008779Y010735D03*
D805*
X007799Y011057D03*
X015765Y010609D03*
X015765Y010595D03*
X015765Y010581D03*
X015765Y010567D03*
X015765Y010539D03*
X015765Y010525D03*
D806*
X007806Y010539D03*
D807*
X015765Y010553D03*
X015765Y010623D03*
D808*
X007806Y010553D03*
D809*
X007365Y010567D03*
X008779Y010707D03*
X009045Y010651D03*
D810*
X009045Y010623D03*
X008779Y010763D03*
D811*
X007337Y010623D03*
D812*
X009073Y010679D03*
D813*
X009290Y010693D03*
D814*
X008779Y010693D03*
D815*
X009297Y010707D03*
D816*
X007337Y010707D03*
D817*
X007806Y011099D03*
X010298Y010721D03*
D818*
X013742Y010763D03*
D819*
X009206Y010763D03*
X008226Y010833D03*
D820*
X007379Y010819D03*
X010305Y010777D03*
D821*
X007806Y010777D03*
X007806Y010791D03*
D822*
X016066Y010805D03*
X016066Y010819D03*
D823*
X016066Y010833D03*
D824*
X007379Y010833D03*
D825*
X016066Y010847D03*
D826*
X016066Y010861D03*
D827*
X016066Y010875D03*
X016066Y010889D03*
D828*
X016066Y010903D03*
D829*
X016073Y010945D03*
D830*
X016073Y010959D03*
D831*
X016073Y010973D03*
D832*
X016073Y010987D03*
D833*
X016066Y011001D03*
X007806Y011001D03*
D834*
X007799Y011029D03*
D835*
X016073Y011057D03*
D836*
X014787Y009473D03*
X014737Y009313D03*
X014737Y009163D03*
X014717Y009163D03*
X014807Y009163D03*
X014867Y008333D03*
X014957Y008333D03*
X014647Y008243D03*
X014547Y008333D03*
X013937Y008223D03*
X013837Y008183D03*
X013837Y008173D03*
X013797Y008333D03*
X013657Y008333D03*
X013627Y008283D03*
X013637Y008123D03*
X013657Y008123D03*
X012927Y008333D03*
X012897Y008223D03*
X012897Y008213D03*
X012807Y008193D03*
X012807Y008183D03*
X012097Y007973D03*
X012147Y009603D03*
X016077Y009033D03*
X016127Y009033D03*
X016567Y008463D03*
X016737Y007973D03*
D837*
X014417Y007973D03*
D838*
X014412Y007983D03*
D839*
X014412Y007993D03*
X014412Y008003D03*
X014412Y008013D03*
X014412Y008033D03*
X014412Y008043D03*
X014412Y008053D03*
X014412Y008063D03*
D840*
X014407Y008023D03*
D841*
X015877Y008073D03*
D842*
X016277Y008413D03*
X016107Y009013D03*
X016267Y009283D03*
X015607Y009283D03*
X015587Y008423D03*
X015597Y008413D03*
X014767Y008073D03*
X012697Y008833D03*
D843*
X014307Y008073D03*
X015937Y009373D03*
X016447Y008133D03*
D844*
X016452Y008633D03*
X016462Y008653D03*
X016462Y008663D03*
X016472Y008673D03*
X016472Y008683D03*
X016472Y008693D03*
X016482Y008703D03*
X016482Y008713D03*
X016482Y008723D03*
X016482Y008733D03*
X016492Y008763D03*
X016492Y008773D03*
X016492Y008783D03*
X016492Y008793D03*
X016492Y008803D03*
X016492Y008823D03*
X016492Y008863D03*
X016492Y008883D03*
X016492Y008893D03*
X016492Y008903D03*
X016492Y008913D03*
X016492Y008923D03*
X016482Y008953D03*
X016482Y008963D03*
X016482Y008973D03*
X016482Y008983D03*
X016472Y008993D03*
X016472Y009003D03*
X016472Y009013D03*
X016462Y009033D03*
X016222Y008913D03*
X016222Y008903D03*
X016212Y008923D03*
X016212Y008933D03*
X016222Y008783D03*
X016222Y008773D03*
X016212Y008763D03*
X016102Y008663D03*
X016012Y008743D03*
X015872Y008783D03*
X015862Y008763D03*
X015852Y008753D03*
X015752Y008663D03*
X015652Y008743D03*
X015652Y008943D03*
X015862Y008923D03*
X015872Y008903D03*
X015432Y009073D03*
X015422Y009053D03*
X015412Y009033D03*
X015412Y009023D03*
X015412Y009013D03*
X015402Y009003D03*
X015402Y008993D03*
X015402Y008983D03*
X015392Y008963D03*
X015392Y008953D03*
X015392Y008943D03*
X015382Y008853D03*
X015382Y008843D03*
X015392Y008753D03*
X015392Y008743D03*
X015392Y008733D03*
X015392Y008723D03*
X015402Y008703D03*
X015402Y008693D03*
X015402Y008683D03*
X015412Y008673D03*
X015412Y008663D03*
X015412Y008653D03*
X015422Y008633D03*
X015432Y008613D03*
X015052Y008763D03*
X015042Y008753D03*
X015032Y008743D03*
X015022Y008733D03*
X015052Y009283D03*
X015042Y009293D03*
X015032Y009303D03*
X015022Y009313D03*
X014732Y009273D03*
X014732Y009233D03*
X014732Y009223D03*
X014432Y009303D03*
X014422Y009293D03*
X014032Y009283D03*
X014022Y009293D03*
X014012Y009303D03*
X014002Y009313D03*
X014032Y008763D03*
X014022Y008753D03*
X014012Y008743D03*
X014002Y008733D03*
X014412Y008763D03*
X014422Y008753D03*
X014432Y008743D03*
X014762Y008213D03*
X014742Y008093D03*
X013892Y008073D03*
X013412Y008743D03*
X013402Y008753D03*
X013022Y008773D03*
X013012Y008763D03*
X013002Y008753D03*
X012992Y008743D03*
X012682Y008333D03*
X012582Y008173D03*
X012582Y008163D03*
X012382Y008753D03*
X012332Y008853D03*
X012372Y009273D03*
X012382Y009283D03*
X012392Y009293D03*
X012982Y009313D03*
X012992Y009303D03*
X013002Y009293D03*
X013012Y009283D03*
D845*
X012787Y008913D03*
X012717Y008273D03*
X012717Y008263D03*
X012827Y008253D03*
X012877Y008153D03*
X012717Y008143D03*
X012717Y008133D03*
X012577Y008123D03*
X012087Y008463D03*
X012087Y008473D03*
X012087Y008483D03*
X012087Y008503D03*
X012087Y008513D03*
X012087Y008523D03*
X012087Y008533D03*
X012087Y008543D03*
X012087Y008553D03*
X012087Y008563D03*
X012087Y008573D03*
X012087Y008583D03*
X012087Y008593D03*
X012087Y008603D03*
X012087Y008613D03*
X012087Y008623D03*
X012087Y008633D03*
X012087Y008643D03*
X012087Y008653D03*
X012087Y008663D03*
X012087Y008673D03*
X012087Y008683D03*
X012087Y008693D03*
X012087Y008703D03*
X012087Y008713D03*
X012087Y008723D03*
X012087Y008733D03*
X012087Y008743D03*
X012087Y008753D03*
X012087Y008763D03*
X012087Y008773D03*
X012087Y008783D03*
X012087Y008793D03*
X012087Y008803D03*
X012087Y008813D03*
X012087Y008823D03*
X012087Y008833D03*
X012087Y008843D03*
X012087Y008853D03*
X012087Y008863D03*
X012087Y008873D03*
X012087Y008883D03*
X012087Y008893D03*
X012087Y008903D03*
X012087Y008913D03*
X012087Y008923D03*
X012087Y008933D03*
X012087Y008943D03*
X012087Y008953D03*
X012087Y008963D03*
X012087Y008973D03*
X012087Y008983D03*
X012087Y008993D03*
X012087Y009003D03*
X012087Y009013D03*
X012087Y009023D03*
X012087Y009033D03*
X012087Y009043D03*
X012087Y009053D03*
X012087Y009063D03*
X012087Y009073D03*
X012087Y009083D03*
X012087Y009093D03*
X012087Y009103D03*
X012087Y009113D03*
X012087Y009123D03*
X012087Y009133D03*
X012087Y009143D03*
X012087Y009153D03*
X012087Y009163D03*
X012087Y009173D03*
X012087Y009183D03*
X012087Y009193D03*
X012087Y009203D03*
X012087Y009213D03*
X012087Y009223D03*
X012087Y009233D03*
X012087Y009243D03*
X012087Y009253D03*
X012087Y009263D03*
X012087Y009273D03*
X012087Y009283D03*
X012087Y009293D03*
X012087Y009303D03*
X012087Y009313D03*
X012087Y009323D03*
X012087Y009333D03*
X012087Y009343D03*
X012087Y009353D03*
X012087Y009363D03*
X012087Y009373D03*
X012087Y009383D03*
X012087Y009393D03*
X012087Y009403D03*
X012087Y009413D03*
X012087Y009423D03*
X012087Y009433D03*
X012087Y009443D03*
X012087Y009453D03*
X012087Y009463D03*
X012087Y009473D03*
X012087Y009483D03*
X012087Y009493D03*
X012087Y009503D03*
X012087Y009513D03*
X012097Y009543D03*
X012187Y009603D03*
X013757Y008333D03*
X013757Y008323D03*
X013757Y008313D03*
X013757Y008303D03*
X013757Y008293D03*
X013757Y008283D03*
X013757Y008273D03*
X013757Y008263D03*
X013757Y008253D03*
X013757Y008243D03*
X013757Y008233D03*
X013757Y008223D03*
X013757Y008213D03*
X013757Y008203D03*
X013757Y008193D03*
X013757Y008183D03*
X013757Y008173D03*
X013757Y008163D03*
X013757Y008153D03*
X013757Y008143D03*
X013757Y008133D03*
X013757Y008123D03*
X013757Y008113D03*
X013757Y008103D03*
X013757Y008093D03*
X013757Y008083D03*
X013757Y008073D03*
X013917Y008153D03*
X013917Y008163D03*
X013857Y008233D03*
X013857Y008243D03*
X014647Y008273D03*
X014647Y008283D03*
X014767Y008283D03*
X014767Y008273D03*
X014777Y008303D03*
X014787Y008313D03*
X014797Y008323D03*
X015657Y008773D03*
X016007Y008773D03*
X016737Y008773D03*
X016737Y008763D03*
X016737Y008753D03*
X016737Y008743D03*
X016737Y008733D03*
X016737Y008723D03*
X016737Y008713D03*
X016737Y008703D03*
X016737Y008693D03*
X016737Y008683D03*
X016737Y008673D03*
X016737Y008663D03*
X016737Y008653D03*
X016737Y008643D03*
X016737Y008633D03*
X016737Y008623D03*
X016737Y008613D03*
X016737Y008603D03*
X016737Y008593D03*
X016737Y008583D03*
X016737Y008573D03*
X016737Y008563D03*
X016737Y008553D03*
X016737Y008543D03*
X016737Y008533D03*
X016737Y008523D03*
X016737Y008513D03*
X016737Y008503D03*
X016737Y008493D03*
X016737Y008483D03*
X016737Y008783D03*
X016737Y008793D03*
X016737Y008803D03*
X016737Y008813D03*
X016737Y008823D03*
X016737Y008833D03*
X016737Y008843D03*
X016737Y008853D03*
X016737Y008863D03*
X016737Y008873D03*
X016737Y008883D03*
X016737Y008893D03*
X016737Y008903D03*
X016737Y008913D03*
X016737Y008923D03*
X016737Y008933D03*
X016737Y008943D03*
X016737Y008953D03*
X016737Y008963D03*
X016737Y008973D03*
X016737Y008983D03*
X016737Y008993D03*
X016737Y009003D03*
X016737Y009013D03*
X016737Y009023D03*
X016737Y009033D03*
X016737Y009043D03*
X016737Y009053D03*
X016737Y009063D03*
X016737Y009073D03*
X016737Y009083D03*
X016737Y009093D03*
X016737Y009103D03*
X016737Y009113D03*
X016737Y009123D03*
X016737Y009133D03*
X016737Y009143D03*
X016737Y009153D03*
X016737Y009163D03*
X016737Y009173D03*
X016737Y009183D03*
X016737Y009193D03*
X016737Y009203D03*
X016737Y009213D03*
X016737Y009223D03*
X016737Y009233D03*
X016737Y009243D03*
X016737Y009253D03*
X016737Y009263D03*
X016737Y009273D03*
X016737Y009283D03*
X016737Y009293D03*
X016737Y009303D03*
X016737Y009313D03*
X016737Y009323D03*
X016737Y009333D03*
X016737Y009343D03*
X016737Y009353D03*
X016737Y009363D03*
X016737Y009373D03*
X016737Y009383D03*
X016737Y009393D03*
X016737Y009403D03*
X016737Y009413D03*
X016737Y009423D03*
X016737Y009433D03*
X016737Y009443D03*
X016737Y009453D03*
X016737Y009463D03*
X016737Y009473D03*
X016737Y009483D03*
X016737Y009493D03*
X016737Y009513D03*
X016727Y009543D03*
D846*
X015332Y008163D03*
X013292Y008073D03*
D847*
X012857Y008073D03*
X012677Y008073D03*
X012697Y008573D03*
X012697Y008823D03*
X012977Y008723D03*
X012987Y008733D03*
X013427Y008733D03*
X013437Y008723D03*
X013447Y008713D03*
X013717Y008573D03*
X013997Y008723D03*
X014447Y008733D03*
X014457Y008723D03*
X014467Y008713D03*
X014737Y008573D03*
X014647Y008333D03*
X014997Y008713D03*
X015007Y008723D03*
X015417Y008643D03*
X015427Y008623D03*
X015437Y008603D03*
X015437Y008593D03*
X015447Y008583D03*
X015457Y008563D03*
X015847Y008943D03*
X015857Y008933D03*
X015457Y009123D03*
X015447Y009103D03*
X015437Y009093D03*
X015437Y009083D03*
X015427Y009063D03*
X015417Y009043D03*
X015007Y009323D03*
X014997Y009333D03*
X014737Y009263D03*
X014737Y009253D03*
X014737Y009243D03*
X014467Y009333D03*
X014457Y009323D03*
X014447Y009313D03*
X013987Y009323D03*
X013437Y009323D03*
X013427Y009313D03*
X013417Y009303D03*
X013047Y009213D03*
X012977Y009323D03*
X012417Y009323D03*
X012407Y009313D03*
X012397Y009303D03*
X012397Y008743D03*
X012407Y008733D03*
X012417Y008723D03*
X016197Y008943D03*
X016207Y008753D03*
X016447Y008623D03*
X016447Y008613D03*
X016437Y008603D03*
X016437Y008593D03*
X016427Y008583D03*
X016417Y008563D03*
X016457Y008643D03*
X016467Y009023D03*
X016457Y009043D03*
X016457Y009053D03*
X016447Y009063D03*
X016447Y009073D03*
X016437Y009083D03*
X016437Y009093D03*
X016427Y009103D03*
X016427Y009113D03*
X016417Y009123D03*
D848*
X015242Y008283D03*
X012302Y008073D03*
D849*
X015882Y008083D03*
X015882Y008093D03*
X015882Y008103D03*
D850*
X015482Y008533D03*
X015472Y008543D03*
X015462Y008553D03*
X015452Y008573D03*
X015842Y008743D03*
X015752Y009023D03*
X015492Y009173D03*
X015482Y009163D03*
X015472Y009153D03*
X015472Y009143D03*
X015462Y009133D03*
X015452Y009113D03*
X014982Y009343D03*
X014732Y008943D03*
X014732Y008933D03*
X014732Y008923D03*
X014732Y008913D03*
X014732Y008903D03*
X014732Y008893D03*
X014732Y008883D03*
X014732Y008873D03*
X014732Y008863D03*
X014732Y008853D03*
X014732Y008843D03*
X014732Y008833D03*
X014732Y008823D03*
X014732Y008813D03*
X014732Y008803D03*
X014732Y008793D03*
X014732Y008783D03*
X014732Y008773D03*
X014732Y008763D03*
X014732Y008753D03*
X014732Y008743D03*
X014732Y008733D03*
X014972Y008693D03*
X014982Y008703D03*
X014482Y008703D03*
X013982Y008713D03*
X013972Y008703D03*
X013462Y008703D03*
X012962Y008713D03*
X012952Y008703D03*
X012442Y008703D03*
X012432Y008713D03*
X012432Y009333D03*
X012442Y009343D03*
X012952Y009343D03*
X012962Y009333D03*
X013452Y009333D03*
X013462Y009343D03*
X013982Y009333D03*
X014482Y009343D03*
X014752Y008083D03*
X016102Y009023D03*
X016192Y008743D03*
X016422Y008573D03*
X016412Y008553D03*
X016402Y008543D03*
X016392Y008533D03*
X016412Y009133D03*
X016402Y009143D03*
X016402Y009153D03*
X016392Y009163D03*
X016382Y009173D03*
D851*
X015312Y008183D03*
X014312Y008173D03*
X014312Y008163D03*
X014312Y008153D03*
X014312Y008143D03*
X014312Y008133D03*
X014312Y008123D03*
X014312Y008113D03*
X014312Y008103D03*
X014312Y008093D03*
X014312Y008083D03*
D852*
X013892Y008083D03*
X013882Y008313D03*
X013882Y008323D03*
X013622Y008253D03*
X013622Y008243D03*
X013622Y008153D03*
X013372Y008793D03*
X013362Y008813D03*
X013352Y008823D03*
X013342Y008843D03*
X013332Y008863D03*
X013322Y008893D03*
X013092Y008903D03*
X013082Y008873D03*
X013072Y008853D03*
X013062Y008833D03*
X013052Y008813D03*
X013042Y008803D03*
X013322Y009153D03*
X013332Y009183D03*
X013342Y009203D03*
X013352Y009213D03*
X013352Y009223D03*
X013362Y009233D03*
X013052Y009233D03*
X013052Y009223D03*
X013042Y009243D03*
X012692Y009223D03*
X012592Y008913D03*
X012352Y008793D03*
X012342Y008813D03*
X012332Y008823D03*
X012332Y008833D03*
X012322Y008843D03*
X012312Y009173D03*
X012322Y009193D03*
X012322Y009203D03*
X012332Y009213D03*
X012332Y009223D03*
X012342Y009233D03*
X012692Y008323D03*
X012582Y008263D03*
X012582Y008143D03*
X012692Y008083D03*
X014062Y008803D03*
X014072Y008813D03*
X014072Y008823D03*
X014082Y008833D03*
X014092Y008853D03*
X014102Y008873D03*
X014352Y008863D03*
X014362Y008843D03*
X014362Y008833D03*
X014372Y008823D03*
X014382Y008803D03*
X014392Y008793D03*
X014342Y009153D03*
X014352Y009183D03*
X014362Y009203D03*
X014372Y009213D03*
X014372Y009223D03*
X014382Y009233D03*
X014392Y009253D03*
X014732Y009293D03*
X015082Y009243D03*
X015092Y009223D03*
X015102Y009213D03*
X015102Y009203D03*
X015112Y009193D03*
X015112Y009183D03*
X015122Y009163D03*
X015132Y009133D03*
X015122Y008883D03*
X015112Y008853D03*
X015102Y008843D03*
X015102Y008833D03*
X015092Y008823D03*
X015082Y008803D03*
X015642Y008753D03*
X016002Y008753D03*
X014892Y008173D03*
X014892Y008163D03*
X014892Y008153D03*
X014892Y008143D03*
X014762Y008223D03*
X014742Y008193D03*
X014732Y008173D03*
X014732Y008163D03*
X014732Y008143D03*
X014732Y008133D03*
X014732Y008123D03*
X014102Y009163D03*
X014092Y009193D03*
X014082Y009203D03*
X014082Y009213D03*
X014072Y009223D03*
X014062Y009243D03*
D853*
X014307Y008183D03*
X013267Y008083D03*
X015937Y008313D03*
D854*
X015867Y008773D03*
X015877Y008793D03*
X015877Y008803D03*
X015877Y008813D03*
X015877Y008823D03*
X015877Y008833D03*
X015877Y008843D03*
X015877Y008853D03*
X015877Y008863D03*
X015877Y008873D03*
X015877Y008883D03*
X015877Y008893D03*
X015867Y008913D03*
X016007Y008943D03*
X016227Y008893D03*
X016227Y008883D03*
X016227Y008873D03*
X016227Y008863D03*
X016227Y008853D03*
X016227Y008843D03*
X016227Y008833D03*
X016227Y008823D03*
X016227Y008813D03*
X016227Y008803D03*
X016227Y008793D03*
X016487Y008753D03*
X016487Y008743D03*
X016497Y008813D03*
X016497Y008833D03*
X016497Y008843D03*
X016497Y008853D03*
X016497Y008873D03*
X016487Y008933D03*
X016487Y008943D03*
X015397Y008973D03*
X015387Y008933D03*
X015387Y008923D03*
X015387Y008913D03*
X015387Y008903D03*
X015387Y008893D03*
X015387Y008883D03*
X015387Y008873D03*
X015387Y008863D03*
X015387Y008833D03*
X015387Y008823D03*
X015387Y008813D03*
X015387Y008803D03*
X015387Y008793D03*
X015387Y008783D03*
X015387Y008773D03*
X015387Y008763D03*
X015397Y008713D03*
X015087Y008813D03*
X015077Y008793D03*
X015067Y008783D03*
X015057Y008773D03*
X015087Y009233D03*
X015077Y009253D03*
X015067Y009263D03*
X015057Y009273D03*
X014737Y009283D03*
X014737Y009213D03*
X014417Y009283D03*
X014407Y009273D03*
X014397Y009263D03*
X014387Y009243D03*
X014067Y009233D03*
X014057Y009253D03*
X014047Y009263D03*
X014037Y009273D03*
X014057Y008793D03*
X014047Y008783D03*
X014037Y008773D03*
X014377Y008813D03*
X014397Y008783D03*
X014407Y008773D03*
X014647Y008323D03*
X014747Y008203D03*
X014737Y008183D03*
X014727Y008153D03*
X014737Y008113D03*
X014737Y008103D03*
X013887Y008333D03*
X013617Y008233D03*
X013617Y008223D03*
X013617Y008213D03*
X013617Y008203D03*
X013617Y008193D03*
X013617Y008183D03*
X013617Y008173D03*
X013617Y008163D03*
X013397Y008763D03*
X013387Y008773D03*
X013377Y008783D03*
X013367Y008803D03*
X013057Y008823D03*
X013037Y008793D03*
X013027Y008783D03*
X012597Y008903D03*
X012377Y008763D03*
X012367Y008773D03*
X012357Y008783D03*
X012347Y008803D03*
X012347Y009243D03*
X012357Y009253D03*
X012367Y009263D03*
X013017Y009273D03*
X013027Y009263D03*
X013037Y009253D03*
X013367Y009243D03*
X013377Y009253D03*
X013377Y009263D03*
X013387Y009273D03*
X013397Y009283D03*
X013407Y009293D03*
X012847Y008333D03*
X012857Y008083D03*
X012577Y008153D03*
X012577Y008253D03*
D855*
X012287Y008323D03*
X012287Y008083D03*
X016537Y008213D03*
D856*
X016007Y008933D03*
X015657Y008933D03*
X015147Y008973D03*
X015147Y008983D03*
X015147Y008993D03*
X015147Y009003D03*
X015147Y009013D03*
X015147Y009023D03*
X015147Y009033D03*
X015147Y009043D03*
X015147Y009053D03*
X015147Y009063D03*
X015147Y009073D03*
X015137Y009103D03*
X015137Y009113D03*
X015137Y009123D03*
X015127Y009143D03*
X015127Y009153D03*
X015117Y009173D03*
X015137Y008943D03*
X015137Y008933D03*
X015137Y008923D03*
X015137Y008913D03*
X015127Y008903D03*
X015127Y008893D03*
X015117Y008873D03*
X015117Y008863D03*
X014737Y009203D03*
X014357Y009193D03*
X014347Y009173D03*
X014347Y009163D03*
X014337Y009143D03*
X014337Y009133D03*
X014337Y009123D03*
X014327Y009113D03*
X014327Y009103D03*
X014327Y009093D03*
X014327Y009083D03*
X014327Y008963D03*
X014327Y008953D03*
X014327Y008943D03*
X014327Y008933D03*
X014337Y008913D03*
X014337Y008903D03*
X014337Y008893D03*
X014347Y008883D03*
X014347Y008873D03*
X014357Y008853D03*
X014117Y008913D03*
X014117Y008923D03*
X014117Y008933D03*
X014107Y008903D03*
X014107Y008893D03*
X014107Y008883D03*
X014097Y008863D03*
X014087Y008843D03*
X014127Y008963D03*
X014127Y008973D03*
X014127Y008983D03*
X014127Y008993D03*
X014127Y009003D03*
X014127Y009013D03*
X014127Y009023D03*
X014127Y009033D03*
X014127Y009043D03*
X014127Y009053D03*
X014127Y009063D03*
X014127Y009073D03*
X014127Y009083D03*
X014117Y009103D03*
X014117Y009113D03*
X014117Y009123D03*
X014117Y009133D03*
X014107Y009143D03*
X014107Y009153D03*
X014097Y009173D03*
X014097Y009183D03*
X013337Y009193D03*
X013327Y009173D03*
X013327Y009163D03*
X013317Y009143D03*
X013317Y009133D03*
X013317Y009123D03*
X013307Y009103D03*
X013307Y009093D03*
X013307Y009083D03*
X013307Y009073D03*
X013307Y009043D03*
X013307Y008973D03*
X013307Y008963D03*
X013307Y008953D03*
X013307Y008943D03*
X013307Y008933D03*
X013317Y008923D03*
X013317Y008913D03*
X013317Y008903D03*
X013327Y008883D03*
X013327Y008873D03*
X013337Y008853D03*
X013347Y008833D03*
X013097Y008913D03*
X013097Y008923D03*
X013097Y008933D03*
X013107Y008953D03*
X013107Y008963D03*
X013107Y008973D03*
X013107Y008983D03*
X013107Y008993D03*
X013107Y009003D03*
X013107Y009033D03*
X013107Y009043D03*
X013107Y009053D03*
X013107Y009063D03*
X013107Y009073D03*
X013107Y009083D03*
X013107Y009093D03*
X013097Y009113D03*
X013097Y009123D03*
X013097Y009133D03*
X013087Y008893D03*
X013087Y008883D03*
X013077Y008863D03*
X013067Y008843D03*
X012847Y008323D03*
X012847Y008313D03*
X012857Y008093D03*
X012697Y008093D03*
X012577Y008273D03*
X012287Y008943D03*
X012287Y008953D03*
X012287Y008963D03*
X012287Y008973D03*
X012287Y008983D03*
X012287Y009003D03*
X012287Y009023D03*
X012287Y009043D03*
X012287Y009063D03*
X012287Y009073D03*
X012287Y009083D03*
X012287Y009093D03*
X012287Y009103D03*
X012297Y009113D03*
X012297Y009123D03*
X012297Y009133D03*
X012297Y009143D03*
X012307Y009153D03*
X012307Y009163D03*
X012317Y009183D03*
X013627Y008263D03*
X013627Y008143D03*
X013877Y008303D03*
X013897Y008093D03*
X014647Y008303D03*
X014647Y008313D03*
X014757Y008233D03*
X014897Y008243D03*
X014897Y008253D03*
X014897Y008263D03*
X014897Y008273D03*
X014897Y008133D03*
D857*
X015297Y008203D03*
X014297Y008213D03*
X014297Y008223D03*
X013257Y008093D03*
X015937Y009383D03*
D858*
X015942Y008273D03*
X016542Y008223D03*
X015222Y008313D03*
X015222Y008323D03*
X015212Y008333D03*
X014732Y008623D03*
X013712Y008623D03*
X012282Y008313D03*
X012282Y008093D03*
D859*
X012582Y008133D03*
X012702Y008313D03*
X012842Y008303D03*
X012842Y008293D03*
X012872Y008123D03*
X012862Y008113D03*
X012862Y008103D03*
X013632Y008133D03*
X013632Y008273D03*
X013872Y008283D03*
X013872Y008293D03*
X013902Y008113D03*
X013902Y008103D03*
X014122Y008943D03*
X014122Y008953D03*
X014122Y009093D03*
X014322Y009073D03*
X014322Y009063D03*
X014322Y009053D03*
X014322Y009043D03*
X014322Y009033D03*
X014322Y009023D03*
X014322Y009013D03*
X014322Y009003D03*
X014322Y008993D03*
X014322Y008983D03*
X014322Y008973D03*
X014332Y008923D03*
X014812Y008333D03*
X014762Y008243D03*
X014902Y008183D03*
X014902Y008123D03*
X015142Y008953D03*
X015142Y008963D03*
X015142Y009083D03*
X015142Y009093D03*
X015942Y009453D03*
X016002Y008763D03*
X013302Y008983D03*
X013302Y008993D03*
X013302Y009003D03*
X013302Y009013D03*
X013302Y009023D03*
X013302Y009033D03*
X013302Y009053D03*
X013302Y009063D03*
X013312Y009113D03*
X013102Y009103D03*
X013112Y009023D03*
X013112Y009013D03*
X013102Y008943D03*
X012782Y008903D03*
X012292Y008933D03*
X012282Y008993D03*
X012282Y009013D03*
X012282Y009033D03*
X012282Y009053D03*
D860*
X012352Y008243D03*
X012352Y008233D03*
X012352Y008223D03*
X012352Y008213D03*
X012352Y008203D03*
X012352Y008193D03*
X012352Y008183D03*
X013252Y008103D03*
X013252Y008313D03*
X014292Y008233D03*
D861*
X013907Y008133D03*
X013907Y008123D03*
X013867Y008263D03*
X013867Y008273D03*
X014647Y008293D03*
X014757Y008253D03*
X014907Y008233D03*
X014907Y008283D03*
X015647Y008763D03*
X014737Y009303D03*
X014737Y009473D03*
X013717Y009473D03*
X012697Y009473D03*
X012707Y008303D03*
X012837Y008283D03*
X012707Y008113D03*
X012707Y008103D03*
D862*
X012277Y008103D03*
X012277Y008303D03*
X012697Y008623D03*
X012697Y009423D03*
X013717Y009423D03*
X014737Y009423D03*
D863*
X016397Y008113D03*
D864*
X015422Y008113D03*
D865*
X015287Y008213D03*
X015937Y008303D03*
X016477Y008153D03*
X014287Y008243D03*
X014287Y008253D03*
X013247Y008303D03*
X013247Y008113D03*
D866*
X012272Y008113D03*
X012272Y008293D03*
X012932Y009143D03*
X016552Y008233D03*
D867*
X016427Y008123D03*
X015937Y008333D03*
D868*
X015397Y008123D03*
D869*
X014282Y008263D03*
X014282Y008273D03*
X013242Y008283D03*
X013242Y008293D03*
X013242Y008123D03*
D870*
X012882Y008163D03*
X012872Y008143D03*
X012872Y008133D03*
X012832Y008263D03*
X012832Y008273D03*
X012712Y008283D03*
X012712Y008293D03*
X012582Y008283D03*
X012712Y008123D03*
X012692Y008753D03*
X012692Y008763D03*
X012692Y008773D03*
X012692Y008783D03*
X012692Y008793D03*
X012692Y008803D03*
X012692Y008813D03*
X012622Y009143D03*
X012692Y009233D03*
X012692Y009243D03*
X012692Y009253D03*
X012692Y009263D03*
X012692Y009273D03*
X012692Y009283D03*
X012692Y009293D03*
X012102Y009553D03*
X013862Y008253D03*
X013912Y008143D03*
X014762Y008263D03*
X014732Y009193D03*
X015662Y008923D03*
X016012Y008923D03*
X016722Y009553D03*
D871*
X015937Y009423D03*
X016557Y008243D03*
X012267Y008273D03*
X012267Y008283D03*
X012267Y008143D03*
X012267Y008133D03*
X012267Y008123D03*
D872*
X015377Y008133D03*
D873*
X015277Y008223D03*
X014277Y008283D03*
X013237Y008273D03*
X013237Y008263D03*
X013237Y008153D03*
X013237Y008143D03*
X013237Y008133D03*
X015937Y009393D03*
X016487Y008163D03*
D874*
X016462Y008143D03*
X015302Y008193D03*
X014302Y008193D03*
X014302Y008203D03*
X013262Y008323D03*
D875*
X015362Y008143D03*
D876*
X015347Y008153D03*
X015937Y009353D03*
D877*
X016732Y009503D03*
X016732Y009523D03*
X016732Y009533D03*
X016732Y008473D03*
X016732Y008463D03*
X014772Y008293D03*
X013922Y008173D03*
X013852Y008223D03*
X012882Y008173D03*
X012822Y008233D03*
X012822Y008243D03*
X012722Y008243D03*
X012722Y008233D03*
X012722Y008223D03*
X012722Y008213D03*
X012722Y008203D03*
X012722Y008193D03*
X012722Y008183D03*
X012722Y008173D03*
X012722Y008163D03*
X012722Y008153D03*
X012722Y008253D03*
X012092Y008493D03*
X012092Y009523D03*
X012092Y009533D03*
D878*
X012692Y008613D03*
X012262Y008263D03*
X012262Y008253D03*
X012262Y008173D03*
X012262Y008163D03*
X012262Y008153D03*
X013712Y008613D03*
X014732Y008613D03*
X016562Y008253D03*
D879*
X015272Y008233D03*
X014272Y008293D03*
X014272Y008303D03*
X014262Y008333D03*
X013232Y008253D03*
X013232Y008243D03*
X013232Y008233D03*
X013232Y008223D03*
X013232Y008213D03*
X013232Y008203D03*
X013232Y008193D03*
X013232Y008183D03*
X013232Y008173D03*
X013232Y008163D03*
D880*
X013717Y008653D03*
X014267Y008323D03*
X014267Y008313D03*
X014737Y008653D03*
X015267Y008243D03*
X015937Y008293D03*
X016497Y008173D03*
X014737Y009393D03*
X013717Y009393D03*
X012697Y009393D03*
X012697Y008653D03*
D881*
X013282Y008333D03*
X015322Y008173D03*
X015942Y008323D03*
D882*
X016507Y008183D03*
X015257Y008253D03*
X015937Y009403D03*
D883*
X016017Y008913D03*
X015667Y008913D03*
X014647Y008263D03*
X014647Y008253D03*
X013927Y008193D03*
X013927Y008183D03*
X013847Y008203D03*
X013847Y008213D03*
X012887Y008193D03*
X012887Y008183D03*
X012817Y008213D03*
X012817Y008223D03*
X012787Y008923D03*
X012617Y009133D03*
D884*
X015247Y008273D03*
X015937Y008283D03*
X016517Y008193D03*
D885*
X016012Y008783D03*
X015662Y008783D03*
X013932Y008213D03*
X013932Y008203D03*
X013842Y008193D03*
X012892Y008203D03*
X012812Y008203D03*
D886*
X012697Y008633D03*
X012297Y008333D03*
X012697Y009413D03*
X013717Y009413D03*
X013717Y008633D03*
X014737Y008633D03*
X015237Y008293D03*
X014737Y009413D03*
X016527Y008203D03*
D887*
X016652Y008453D03*
X016232Y008383D03*
X015942Y008243D03*
X015642Y008383D03*
X015752Y009003D03*
X016102Y009003D03*
X016222Y009313D03*
X014732Y009463D03*
X013712Y009463D03*
X012782Y009073D03*
X012712Y009043D03*
X012692Y009033D03*
X012702Y008843D03*
X012692Y009463D03*
D888*
X012697Y008593D03*
X013717Y008593D03*
X015937Y008253D03*
X016147Y008353D03*
X016607Y008333D03*
X016107Y008733D03*
X016107Y008953D03*
D889*
X015942Y008263D03*
X016572Y008263D03*
D890*
X015252Y008263D03*
X014732Y008643D03*
X014732Y009403D03*
X013712Y009403D03*
X013712Y008643D03*
X012692Y008643D03*
X012692Y009403D03*
D891*
X016577Y008273D03*
D892*
X016582Y008283D03*
X014732Y008603D03*
X013712Y008603D03*
D893*
X013717Y009443D03*
X014737Y009443D03*
X016587Y008293D03*
X012697Y008603D03*
X012697Y009443D03*
D894*
X015942Y009433D03*
X016592Y008303D03*
D895*
X015942Y009413D03*
X015232Y008303D03*
D896*
X016597Y008313D03*
X013707Y008913D03*
X013707Y008923D03*
X013707Y008933D03*
X013707Y008943D03*
X013707Y008953D03*
X013707Y008963D03*
X013707Y008973D03*
X013707Y008983D03*
X013707Y009053D03*
X013707Y009063D03*
X013707Y009073D03*
X013707Y009083D03*
X013707Y009093D03*
X013707Y009103D03*
X013707Y009113D03*
X013707Y009123D03*
D897*
X015752Y008953D03*
X016602Y008323D03*
D898*
X016612Y008343D03*
X016102Y008963D03*
X015752Y008963D03*
X015752Y008733D03*
X015722Y008353D03*
X014732Y008593D03*
X014732Y009453D03*
X012882Y009133D03*
D899*
X015942Y008343D03*
D900*
X013742Y008343D03*
D901*
X012707Y008873D03*
X012697Y008883D03*
X012697Y009453D03*
X013717Y009453D03*
X015757Y008723D03*
X016107Y008723D03*
X016617Y008353D03*
D902*
X013737Y008353D03*
D903*
X012992Y009153D03*
X012692Y008893D03*
X012702Y008863D03*
X012492Y008933D03*
X012392Y008913D03*
X015752Y008973D03*
X015752Y008713D03*
X016102Y008973D03*
X016172Y009333D03*
X016622Y008373D03*
X016622Y008363D03*
D904*
X016637Y008403D03*
X016637Y008413D03*
X016187Y008363D03*
X016107Y008703D03*
X016197Y009323D03*
X015937Y009443D03*
X015677Y009323D03*
X014737Y009123D03*
X012707Y009153D03*
X012517Y008953D03*
D905*
X012502Y008943D03*
X012382Y008903D03*
X012702Y008853D03*
X012702Y009163D03*
X012692Y009173D03*
X012682Y009183D03*
X012872Y009123D03*
X013002Y009163D03*
X015752Y008983D03*
X016102Y008983D03*
X015752Y008703D03*
X015692Y008363D03*
X016632Y008393D03*
D906*
X013732Y008363D03*
D907*
X012847Y009103D03*
X012827Y009093D03*
X012807Y009083D03*
X012757Y009063D03*
X012737Y009053D03*
X012667Y009023D03*
X012647Y009013D03*
X012627Y009003D03*
X012597Y008993D03*
X012577Y008983D03*
X012557Y008973D03*
X012537Y008963D03*
X014737Y009153D03*
X015657Y009313D03*
X016107Y008693D03*
X016207Y008373D03*
X016647Y008433D03*
X016647Y008443D03*
X015667Y008373D03*
D908*
X013727Y008373D03*
D909*
X015707Y009333D03*
X016107Y008713D03*
X016627Y008383D03*
D910*
X013722Y008383D03*
X013722Y008393D03*
D911*
X013537Y009383D03*
X013017Y009183D03*
X012687Y009203D03*
X014557Y009383D03*
X014907Y009383D03*
X015637Y009303D03*
X016237Y009303D03*
X016107Y008683D03*
X016247Y008393D03*
X015757Y008683D03*
X015627Y008393D03*
D912*
X015612Y008403D03*
X014912Y008663D03*
X014552Y008663D03*
X013892Y008663D03*
X013532Y008663D03*
X012872Y008663D03*
X012512Y008663D03*
X012362Y008883D03*
X012522Y009383D03*
X012872Y009383D03*
X013892Y009383D03*
X015622Y009293D03*
X016252Y009293D03*
X016262Y008403D03*
D913*
X013717Y008403D03*
D914*
X013712Y008413D03*
X013712Y008423D03*
D915*
X013712Y008583D03*
X013012Y009173D03*
X012862Y009113D03*
X012682Y009193D03*
X012372Y008893D03*
X012692Y008583D03*
X014732Y008583D03*
X014732Y008953D03*
X014732Y008963D03*
X014732Y008973D03*
X014732Y008983D03*
X014732Y008993D03*
X014732Y009003D03*
X014732Y009013D03*
X014732Y009023D03*
X014732Y009033D03*
X014732Y009043D03*
X014732Y009053D03*
X014732Y009063D03*
X014732Y009073D03*
X014732Y009083D03*
X014732Y009093D03*
X014732Y009103D03*
X014732Y009113D03*
X014732Y009133D03*
X014732Y009143D03*
X015752Y008993D03*
X016102Y008993D03*
X015752Y008693D03*
X016642Y008423D03*
D916*
X016302Y008433D03*
X016292Y008423D03*
X015572Y008433D03*
X015562Y008443D03*
X015752Y009013D03*
X015582Y009263D03*
X015592Y009273D03*
X014932Y009373D03*
X014532Y009373D03*
X013912Y009373D03*
X013512Y009373D03*
X013032Y009193D03*
X012892Y009373D03*
X012492Y009373D03*
X012352Y008873D03*
X012492Y008673D03*
X013512Y008673D03*
X014532Y008673D03*
X016282Y009273D03*
X016292Y009263D03*
D917*
X013707Y008433D03*
D918*
X013917Y008673D03*
X014937Y008673D03*
X015547Y008453D03*
X015757Y008673D03*
X016107Y008673D03*
X016327Y008453D03*
X016317Y008443D03*
X016317Y009243D03*
X016307Y009253D03*
X015567Y009253D03*
X015557Y009243D03*
X012917Y009363D03*
X012687Y009213D03*
X012477Y009363D03*
X012897Y008673D03*
D919*
X013702Y008443D03*
D920*
X013707Y008453D03*
D921*
X013492Y008683D03*
X013942Y008683D03*
X014512Y008683D03*
X014952Y008683D03*
X015512Y008493D03*
X015522Y008483D03*
X015532Y008473D03*
X015542Y008463D03*
X016332Y008463D03*
X016342Y008473D03*
X016352Y008483D03*
X016362Y008493D03*
X016372Y008503D03*
X016352Y009213D03*
X016342Y009223D03*
X016332Y009233D03*
X015542Y009233D03*
X015532Y009223D03*
X015522Y009213D03*
X014952Y009363D03*
X014512Y009363D03*
X013932Y009363D03*
X013492Y009363D03*
X012922Y008683D03*
X012472Y008683D03*
X012342Y008863D03*
D922*
X012457Y008693D03*
X012937Y008693D03*
X013477Y008693D03*
X013957Y008693D03*
X014497Y008693D03*
X014497Y009353D03*
X014967Y009353D03*
X015497Y009183D03*
X015507Y009193D03*
X015517Y009203D03*
X015487Y008523D03*
X015497Y008513D03*
X015507Y008503D03*
X016357Y009203D03*
X016367Y009193D03*
X016377Y009183D03*
X016387Y008523D03*
X016377Y008513D03*
X013967Y009343D03*
X013957Y009353D03*
X013477Y009353D03*
X013037Y009203D03*
X012937Y009353D03*
X012457Y009353D03*
D923*
X012697Y009433D03*
X012447Y008923D03*
X013717Y009433D03*
X014737Y009433D03*
D924*
X015937Y009343D03*
D925*
X015937Y009363D03*
D926*
X014412Y009563D03*
D927*
X014412Y009573D03*
D928*
X014412Y009583D03*
D929*
X014412Y009593D03*
D930*
X014452Y009603D03*
M02*
