G75*
%MOIN*%
%OFA0B0*%
%FSLAX24Y24*%
%IPPOS*%
%LPD*%
%AMOC8*
5,1,8,0,0,1.08239X$1,22.5*
%
%ADD10C,0.0000*%
%ADD11C,0.0500*%
%ADD12R,0.0460X0.0630*%
%ADD13C,0.0740*%
%ADD14C,0.0630*%
%ADD15C,0.0560*%
%ADD16C,0.0240*%
%ADD17C,0.0140*%
%ADD18C,0.0100*%
%ADD19C,0.0280*%
%ADD20C,0.0500*%
%ADD21C,0.0560*%
%ADD22C,0.0400*%
%ADD23C,0.0160*%
%ADD24C,0.0240*%
%ADD25C,0.0260*%
%ADD26C,0.0360*%
D10*
X007271Y007583D02*
X022019Y007583D01*
X022063Y007585D01*
X022106Y007591D01*
X022148Y007600D01*
X022190Y007613D01*
X022230Y007630D01*
X022269Y007650D01*
X022306Y007673D01*
X022340Y007700D01*
X022373Y007729D01*
X022402Y007762D01*
X022429Y007796D01*
X022452Y007833D01*
X022472Y007872D01*
X022489Y007912D01*
X022502Y007954D01*
X022511Y007996D01*
X022517Y008039D01*
X022519Y008083D01*
X022519Y018698D01*
X022517Y018742D01*
X022511Y018785D01*
X022502Y018827D01*
X022489Y018869D01*
X022472Y018909D01*
X022452Y018948D01*
X022429Y018985D01*
X022402Y019019D01*
X022373Y019052D01*
X022340Y019081D01*
X022306Y019108D01*
X022269Y019131D01*
X022230Y019151D01*
X022190Y019168D01*
X022148Y019181D01*
X022106Y019190D01*
X022063Y019196D01*
X022019Y019198D01*
X007271Y019198D01*
X007227Y019196D01*
X007184Y019190D01*
X007142Y019181D01*
X007100Y019168D01*
X007060Y019151D01*
X007021Y019131D01*
X006984Y019108D01*
X006950Y019081D01*
X006917Y019052D01*
X006888Y019019D01*
X006861Y018985D01*
X006838Y018948D01*
X006818Y018909D01*
X006801Y018869D01*
X006788Y018827D01*
X006779Y018785D01*
X006773Y018742D01*
X006771Y018698D01*
X006771Y008083D01*
X006773Y008039D01*
X006779Y007996D01*
X006788Y007954D01*
X006801Y007912D01*
X006818Y007872D01*
X006838Y007833D01*
X006861Y007796D01*
X006888Y007762D01*
X006917Y007729D01*
X006950Y007700D01*
X006984Y007673D01*
X007021Y007650D01*
X007060Y007630D01*
X007100Y007613D01*
X007142Y007600D01*
X007184Y007591D01*
X007227Y007585D01*
X007271Y007583D01*
X007716Y008764D02*
X007718Y008816D01*
X007724Y008868D01*
X007734Y008919D01*
X007747Y008969D01*
X007765Y009019D01*
X007786Y009066D01*
X007810Y009112D01*
X007839Y009156D01*
X007870Y009198D01*
X007904Y009237D01*
X007941Y009274D01*
X007981Y009307D01*
X008024Y009338D01*
X008068Y009365D01*
X008114Y009389D01*
X008163Y009409D01*
X008212Y009425D01*
X008263Y009438D01*
X008314Y009447D01*
X008366Y009452D01*
X008418Y009453D01*
X008470Y009450D01*
X008522Y009443D01*
X008573Y009432D01*
X008623Y009418D01*
X008672Y009399D01*
X008719Y009377D01*
X008764Y009352D01*
X008808Y009323D01*
X008849Y009291D01*
X008888Y009256D01*
X008923Y009218D01*
X008956Y009177D01*
X008986Y009135D01*
X009012Y009090D01*
X009035Y009043D01*
X009054Y008994D01*
X009070Y008944D01*
X009082Y008894D01*
X009090Y008842D01*
X009094Y008790D01*
X009094Y008738D01*
X009090Y008686D01*
X009082Y008634D01*
X009070Y008584D01*
X009054Y008534D01*
X009035Y008485D01*
X009012Y008438D01*
X008986Y008393D01*
X008956Y008351D01*
X008923Y008310D01*
X008888Y008272D01*
X008849Y008237D01*
X008808Y008205D01*
X008764Y008176D01*
X008719Y008151D01*
X008672Y008129D01*
X008623Y008110D01*
X008573Y008096D01*
X008522Y008085D01*
X008470Y008078D01*
X008418Y008075D01*
X008366Y008076D01*
X008314Y008081D01*
X008263Y008090D01*
X008212Y008103D01*
X008163Y008119D01*
X008114Y008139D01*
X008068Y008163D01*
X008024Y008190D01*
X007981Y008221D01*
X007941Y008254D01*
X007904Y008291D01*
X007870Y008330D01*
X007839Y008372D01*
X007810Y008416D01*
X007786Y008462D01*
X007765Y008509D01*
X007747Y008559D01*
X007734Y008609D01*
X007724Y008660D01*
X007718Y008712D01*
X007716Y008764D01*
X018681Y018016D02*
X018683Y018068D01*
X018689Y018120D01*
X018699Y018171D01*
X018712Y018221D01*
X018730Y018271D01*
X018751Y018318D01*
X018775Y018364D01*
X018804Y018408D01*
X018835Y018450D01*
X018869Y018489D01*
X018906Y018526D01*
X018946Y018559D01*
X018989Y018590D01*
X019033Y018617D01*
X019079Y018641D01*
X019128Y018661D01*
X019177Y018677D01*
X019228Y018690D01*
X019279Y018699D01*
X019331Y018704D01*
X019383Y018705D01*
X019435Y018702D01*
X019487Y018695D01*
X019538Y018684D01*
X019588Y018670D01*
X019637Y018651D01*
X019684Y018629D01*
X019729Y018604D01*
X019773Y018575D01*
X019814Y018543D01*
X019853Y018508D01*
X019888Y018470D01*
X019921Y018429D01*
X019951Y018387D01*
X019977Y018342D01*
X020000Y018295D01*
X020019Y018246D01*
X020035Y018196D01*
X020047Y018146D01*
X020055Y018094D01*
X020059Y018042D01*
X020059Y017990D01*
X020055Y017938D01*
X020047Y017886D01*
X020035Y017836D01*
X020019Y017786D01*
X020000Y017737D01*
X019977Y017690D01*
X019951Y017645D01*
X019921Y017603D01*
X019888Y017562D01*
X019853Y017524D01*
X019814Y017489D01*
X019773Y017457D01*
X019729Y017428D01*
X019684Y017403D01*
X019637Y017381D01*
X019588Y017362D01*
X019538Y017348D01*
X019487Y017337D01*
X019435Y017330D01*
X019383Y017327D01*
X019331Y017328D01*
X019279Y017333D01*
X019228Y017342D01*
X019177Y017355D01*
X019128Y017371D01*
X019079Y017391D01*
X019033Y017415D01*
X018989Y017442D01*
X018946Y017473D01*
X018906Y017506D01*
X018869Y017543D01*
X018835Y017582D01*
X018804Y017624D01*
X018775Y017668D01*
X018751Y017714D01*
X018730Y017761D01*
X018712Y017811D01*
X018699Y017861D01*
X018689Y017912D01*
X018683Y017964D01*
X018681Y018016D01*
D11*
X021193Y014267D03*
X021193Y013612D03*
X021193Y012942D03*
D12*
X019071Y013583D03*
X018471Y013583D03*
X017871Y013583D03*
D13*
X012351Y018503D03*
X011351Y018503D03*
X010351Y018503D03*
D14*
X008991Y015358D03*
X008991Y014558D03*
X008991Y014558D03*
X008991Y013771D03*
X008991Y012983D03*
X008991Y012196D03*
X008991Y011409D03*
D15*
X009111Y017030D03*
X009111Y017817D03*
D16*
X012591Y014003D03*
X012791Y013803D03*
X013001Y013613D03*
X012791Y012703D03*
X012501Y012703D03*
X012201Y012703D03*
X011801Y013253D03*
X011491Y013253D03*
X011181Y013253D03*
X012681Y011823D03*
X012441Y011583D03*
X012131Y011283D03*
X014654Y012128D03*
X015064Y012138D03*
X015494Y012528D03*
X015504Y012148D03*
X015074Y012538D03*
X015084Y012928D03*
X015074Y013328D03*
X015064Y013718D03*
X014680Y013721D03*
X014680Y013328D03*
X014644Y012938D03*
X014654Y012548D03*
X015524Y012928D03*
X015524Y013328D03*
X015524Y013718D03*
X014631Y017363D03*
X014271Y017363D03*
X013911Y017363D03*
X020751Y014123D03*
X020751Y013763D03*
X020751Y012983D03*
D17*
X021151Y012983D01*
X021193Y012942D01*
X021831Y012923D02*
X021831Y015203D01*
X020331Y016703D01*
X017571Y016703D01*
X016371Y017903D01*
X010951Y017903D01*
X010351Y018503D01*
X017211Y014183D02*
X018891Y014183D01*
X019071Y014003D01*
X019071Y013583D01*
X018471Y013583D02*
X018471Y013223D01*
X018111Y012863D01*
X017631Y012863D01*
X016971Y013523D01*
X018891Y012083D02*
X019191Y011783D01*
X020871Y011783D01*
X020811Y012203D02*
X021111Y012203D01*
X021831Y012923D01*
X021193Y013612D02*
X020902Y013612D01*
X020751Y013763D01*
X020751Y014123D02*
X020895Y014267D01*
X021193Y014267D01*
D18*
X021477Y013986D02*
X021611Y013986D01*
X021532Y014041D02*
X021593Y014188D01*
X021593Y014347D01*
X021532Y014494D01*
X021419Y014606D01*
X021272Y014667D01*
X021113Y014667D01*
X020966Y014606D01*
X020854Y014494D01*
X020851Y014487D01*
X020804Y014487D01*
X020710Y014393D01*
X020698Y014393D01*
X020598Y014352D01*
X020522Y014276D01*
X020481Y014177D01*
X020481Y014070D01*
X020522Y013970D01*
X020549Y013943D01*
X020522Y013916D01*
X020481Y013817D01*
X020481Y013710D01*
X020522Y013610D01*
X020598Y013534D01*
X020698Y013493D01*
X020710Y013493D01*
X020811Y013392D01*
X020851Y013392D01*
X020854Y013386D01*
X020962Y013277D01*
X020899Y013214D01*
X020805Y013253D01*
X020698Y013253D01*
X020598Y013212D01*
X020522Y013136D01*
X020481Y013037D01*
X020481Y012930D01*
X020522Y012830D01*
X020598Y012754D01*
X020698Y012713D01*
X020805Y012713D01*
X020847Y012731D01*
X020854Y012715D01*
X020966Y012603D01*
X021113Y012542D01*
X021139Y012542D01*
X021020Y012423D01*
X021001Y012423D01*
X020976Y012449D01*
X020869Y012493D01*
X020754Y012493D01*
X020647Y012449D01*
X020565Y012368D01*
X020521Y012261D01*
X020521Y012146D01*
X020565Y012039D01*
X020591Y012013D01*
X019996Y012013D01*
X019986Y012003D01*
X019282Y012003D01*
X019210Y012076D01*
X019301Y012168D01*
X019301Y013118D01*
X019363Y013118D01*
X019451Y013206D01*
X019451Y013960D01*
X019363Y014048D01*
X019291Y014048D01*
X019291Y014094D01*
X019162Y014223D01*
X018982Y014403D01*
X018791Y014403D01*
X018791Y016483D01*
X020240Y016483D01*
X021611Y015112D01*
X021611Y013014D01*
X021593Y012996D01*
X021593Y013021D01*
X021532Y013168D01*
X021423Y013277D01*
X021532Y013386D01*
X021593Y013533D01*
X021593Y013692D01*
X021532Y013839D01*
X021431Y013940D01*
X021532Y014041D01*
X021550Y014084D02*
X021611Y014084D01*
X021611Y014183D02*
X021591Y014183D01*
X021593Y014281D02*
X021611Y014281D01*
X021611Y014380D02*
X021579Y014380D01*
X021611Y014478D02*
X021538Y014478D01*
X021611Y014577D02*
X021449Y014577D01*
X021611Y014675D02*
X018791Y014675D01*
X018791Y014577D02*
X020937Y014577D01*
X020795Y014478D02*
X018791Y014478D01*
X018591Y014483D02*
X016911Y014483D01*
X016911Y015443D01*
X014871Y015443D01*
X014871Y015923D01*
X010671Y015923D01*
X010671Y017603D01*
X016191Y017603D01*
X016191Y016523D01*
X017440Y016523D01*
X017480Y016483D01*
X018591Y016483D01*
X018591Y014483D01*
X018591Y014577D02*
X016911Y014577D01*
X016911Y014675D02*
X018591Y014675D01*
X018591Y014774D02*
X016911Y014774D01*
X016911Y014872D02*
X018591Y014872D01*
X018591Y014971D02*
X016911Y014971D01*
X016911Y015069D02*
X018591Y015069D01*
X018591Y015168D02*
X016911Y015168D01*
X016911Y015266D02*
X018591Y015266D01*
X018591Y015365D02*
X016911Y015365D01*
X016711Y015243D02*
X016711Y014400D01*
X016828Y014283D01*
X016950Y014283D01*
X016931Y014239D01*
X016931Y014128D01*
X016974Y014025D01*
X017053Y013946D01*
X017156Y013903D01*
X017267Y013903D01*
X017370Y013946D01*
X017387Y013963D01*
X018094Y013963D01*
X018091Y013960D01*
X018091Y013206D01*
X018117Y013180D01*
X018020Y013083D01*
X017722Y013083D01*
X017251Y013554D01*
X017251Y013579D01*
X017209Y013682D01*
X017130Y013761D01*
X017027Y013803D01*
X016916Y013803D01*
X016813Y013761D01*
X016734Y013682D01*
X016691Y013579D01*
X016691Y013468D01*
X016734Y013365D01*
X016813Y013286D01*
X016916Y013243D01*
X016940Y013243D01*
X017540Y012643D01*
X018202Y012643D01*
X018331Y012772D01*
X018677Y013118D01*
X018763Y013118D01*
X018771Y013126D01*
X018779Y013118D01*
X018841Y013118D01*
X018841Y012363D01*
X018836Y012363D01*
X018733Y012321D01*
X018654Y012242D01*
X018611Y012139D01*
X018611Y012028D01*
X018654Y011925D01*
X018733Y011846D01*
X018836Y011803D01*
X018860Y011803D01*
X018971Y011692D01*
X019100Y011563D01*
X019986Y011563D01*
X019996Y011553D01*
X020635Y011553D01*
X020684Y011504D01*
X020806Y011453D01*
X020937Y011453D01*
X021058Y011504D01*
X021068Y011513D01*
X021285Y011513D01*
X021384Y011554D01*
X021460Y011630D01*
X022369Y012540D01*
X022369Y008083D01*
X022363Y008015D01*
X022310Y007889D01*
X022214Y007792D01*
X022088Y007740D01*
X022019Y007733D01*
X009891Y007733D01*
X009891Y009774D01*
X009884Y009862D01*
X009860Y009947D01*
X022369Y009947D01*
X022369Y009849D02*
X009885Y009849D01*
X009891Y009750D02*
X022369Y009750D01*
X022369Y009652D02*
X009891Y009652D01*
X009891Y009553D02*
X022369Y009553D01*
X022369Y009455D02*
X009891Y009455D01*
X009891Y009356D02*
X022369Y009356D01*
X022369Y009258D02*
X009891Y009258D01*
X009891Y009159D02*
X022369Y009159D01*
X022369Y009061D02*
X009891Y009061D01*
X009891Y008962D02*
X022369Y008962D01*
X022369Y008864D02*
X009891Y008864D01*
X009891Y008765D02*
X022369Y008765D01*
X022369Y008667D02*
X009891Y008667D01*
X009891Y008568D02*
X022369Y008568D01*
X022369Y008470D02*
X009891Y008470D01*
X009891Y008371D02*
X022369Y008371D01*
X022369Y008273D02*
X009891Y008273D01*
X009891Y008174D02*
X022369Y008174D01*
X022369Y008076D02*
X009891Y008076D01*
X009891Y007977D02*
X022347Y007977D01*
X022300Y007879D02*
X009891Y007879D01*
X009891Y007780D02*
X022185Y007780D01*
X022369Y010046D02*
X009809Y010046D01*
X009823Y010026D02*
X009772Y010098D01*
X009709Y010160D01*
X009636Y010210D01*
X009555Y010246D01*
X009470Y010267D01*
X009382Y010274D01*
X006921Y010226D01*
X006921Y018698D01*
X006928Y018766D01*
X006980Y018892D01*
X007077Y018989D01*
X007203Y019041D01*
X007271Y019048D01*
X012514Y019048D01*
X012479Y019013D01*
X012455Y019023D01*
X012248Y019023D01*
X012057Y018944D01*
X011910Y018798D01*
X011831Y018607D01*
X011831Y018400D01*
X011910Y018209D01*
X011996Y018123D01*
X011042Y018123D01*
X010840Y018325D01*
X010871Y018400D01*
X010871Y018607D01*
X010792Y018798D01*
X010646Y018944D01*
X010455Y019023D01*
X010248Y019023D01*
X010057Y018944D01*
X009910Y018798D01*
X009831Y018607D01*
X009831Y018400D01*
X009910Y018209D01*
X010057Y018062D01*
X010248Y017983D01*
X010455Y017983D01*
X010529Y018014D01*
X010731Y017812D01*
X010740Y017803D01*
X010588Y017803D01*
X010471Y017686D01*
X010471Y015904D01*
X008998Y015904D01*
X008798Y015821D01*
X008798Y015821D01*
X008731Y015753D01*
X008728Y015752D01*
X008597Y015622D01*
X008526Y015451D01*
X008526Y015266D01*
X006921Y015266D01*
X006921Y015168D02*
X008567Y015168D01*
X008597Y015095D02*
X008728Y014964D01*
X008742Y014958D01*
X008728Y014952D01*
X008597Y014822D01*
X008526Y014651D01*
X008526Y014466D01*
X008597Y014295D01*
X008727Y014164D01*
X008597Y014034D01*
X008526Y013863D01*
X008526Y013678D01*
X008597Y013507D01*
X008727Y013377D01*
X008597Y013247D01*
X008526Y013076D01*
X008526Y012891D01*
X008597Y012720D01*
X008728Y012589D01*
X008899Y012518D01*
X009084Y012518D01*
X009168Y012553D01*
X009233Y012553D01*
X009408Y012379D01*
X009566Y012313D01*
X012857Y012313D01*
X013015Y012379D01*
X013136Y012500D01*
X013201Y012658D01*
X013201Y012829D01*
X013136Y012987D01*
X013015Y013108D01*
X012857Y013173D01*
X012241Y013173D01*
X012301Y013318D01*
X012301Y013489D01*
X012236Y013647D01*
X012115Y013768D01*
X011957Y013833D01*
X010129Y013833D01*
X009827Y014135D01*
X009669Y014201D01*
X009291Y014201D01*
X009385Y014295D01*
X009456Y014466D01*
X009456Y014651D01*
X009385Y014822D01*
X009255Y014952D01*
X009241Y014958D01*
X009255Y014964D01*
X009334Y015044D01*
X010943Y015044D01*
X010999Y014988D01*
X011059Y014928D01*
X011060Y014928D01*
X012760Y013247D01*
X012918Y013183D01*
X013089Y013184D01*
X013247Y013250D01*
X013367Y013372D01*
X013432Y013530D01*
X013431Y013701D01*
X013364Y013859D01*
X011606Y015598D01*
X011486Y015717D01*
X011486Y015717D01*
X011480Y015723D01*
X014671Y015723D01*
X014671Y015360D01*
X014788Y015243D01*
X016711Y015243D01*
X016711Y015168D02*
X012041Y015168D01*
X012140Y015069D02*
X016711Y015069D01*
X016711Y014971D02*
X012240Y014971D01*
X012339Y014872D02*
X016711Y014872D01*
X016711Y014774D02*
X012439Y014774D01*
X012539Y014675D02*
X016711Y014675D01*
X016711Y014577D02*
X012638Y014577D01*
X012738Y014478D02*
X016711Y014478D01*
X016732Y014380D02*
X012838Y014380D01*
X012937Y014281D02*
X016949Y014281D01*
X016931Y014183D02*
X013037Y014183D01*
X013137Y014084D02*
X016949Y014084D01*
X017013Y013986D02*
X013236Y013986D01*
X013336Y013887D02*
X018091Y013887D01*
X018091Y013789D02*
X017062Y013789D01*
X017200Y013690D02*
X018091Y013690D01*
X018091Y013592D02*
X017246Y013592D01*
X017312Y013493D02*
X018091Y013493D01*
X018091Y013395D02*
X017411Y013395D01*
X017509Y013296D02*
X018091Y013296D01*
X018100Y013198D02*
X017608Y013198D01*
X017706Y013099D02*
X018036Y013099D01*
X018363Y012804D02*
X018841Y012804D01*
X018841Y012902D02*
X018461Y012902D01*
X018560Y013001D02*
X018841Y013001D01*
X018841Y013099D02*
X018658Y013099D01*
X018841Y012705D02*
X018264Y012705D01*
X018841Y012607D02*
X013180Y012607D01*
X013201Y012705D02*
X017478Y012705D01*
X017380Y012804D02*
X013201Y012804D01*
X013171Y012902D02*
X017281Y012902D01*
X017183Y013001D02*
X013122Y013001D01*
X013023Y013099D02*
X017084Y013099D01*
X016986Y013198D02*
X013123Y013198D01*
X013293Y013296D02*
X016802Y013296D01*
X016721Y013395D02*
X013377Y013395D01*
X013417Y013493D02*
X016691Y013493D01*
X016697Y013592D02*
X013431Y013592D01*
X013431Y013690D02*
X016742Y013690D01*
X016881Y013789D02*
X013394Y013789D01*
X012881Y013198D02*
X012252Y013198D01*
X012292Y013296D02*
X012710Y013296D01*
X012611Y013395D02*
X012301Y013395D01*
X012299Y013493D02*
X012511Y013493D01*
X012411Y013592D02*
X012259Y013592D01*
X012312Y013690D02*
X012192Y013690D01*
X012212Y013789D02*
X012064Y013789D01*
X012113Y013887D02*
X010075Y013887D01*
X009977Y013986D02*
X012013Y013986D01*
X011913Y014084D02*
X009878Y014084D01*
X009713Y014183D02*
X011814Y014183D01*
X011714Y014281D02*
X009372Y014281D01*
X009421Y014380D02*
X011614Y014380D01*
X011515Y014478D02*
X009456Y014478D01*
X009456Y014577D02*
X011415Y014577D01*
X011316Y014675D02*
X009446Y014675D01*
X009405Y014774D02*
X011216Y014774D01*
X011116Y014872D02*
X009335Y014872D01*
X009262Y014971D02*
X011016Y014971D01*
X011642Y015562D02*
X014671Y015562D01*
X014671Y015660D02*
X011543Y015660D01*
X011742Y015463D02*
X014671Y015463D01*
X014671Y015365D02*
X011841Y015365D01*
X011941Y015266D02*
X014765Y015266D01*
X014871Y015463D02*
X018591Y015463D01*
X018591Y015562D02*
X014871Y015562D01*
X014871Y015660D02*
X018591Y015660D01*
X018591Y015759D02*
X014871Y015759D01*
X014871Y015857D02*
X018591Y015857D01*
X018591Y015956D02*
X010671Y015956D01*
X010671Y016054D02*
X018591Y016054D01*
X018591Y016153D02*
X010671Y016153D01*
X010671Y016251D02*
X018591Y016251D01*
X018591Y016350D02*
X010671Y016350D01*
X010671Y016448D02*
X018591Y016448D01*
X018791Y016448D02*
X020275Y016448D01*
X020374Y016350D02*
X018791Y016350D01*
X018791Y016251D02*
X020472Y016251D01*
X020571Y016153D02*
X018791Y016153D01*
X018791Y016054D02*
X020669Y016054D01*
X020768Y015956D02*
X018791Y015956D01*
X018791Y015857D02*
X020866Y015857D01*
X020965Y015759D02*
X018791Y015759D01*
X018791Y015660D02*
X021063Y015660D01*
X021162Y015562D02*
X018791Y015562D01*
X018791Y015463D02*
X021260Y015463D01*
X021359Y015365D02*
X018791Y015365D01*
X018791Y015266D02*
X021457Y015266D01*
X021556Y015168D02*
X018791Y015168D01*
X018791Y015069D02*
X021611Y015069D01*
X021611Y014971D02*
X018791Y014971D01*
X018791Y014872D02*
X021611Y014872D01*
X021611Y014774D02*
X018791Y014774D01*
X019006Y014380D02*
X020665Y014380D01*
X020528Y014281D02*
X019104Y014281D01*
X019203Y014183D02*
X020484Y014183D01*
X020481Y014084D02*
X019291Y014084D01*
X019426Y013986D02*
X020516Y013986D01*
X020510Y013887D02*
X019451Y013887D01*
X019451Y013789D02*
X020481Y013789D01*
X020489Y013690D02*
X019451Y013690D01*
X019451Y013592D02*
X020541Y013592D01*
X020698Y013493D02*
X019451Y013493D01*
X019451Y013395D02*
X020809Y013395D01*
X020943Y013296D02*
X019451Y013296D01*
X019443Y013198D02*
X020584Y013198D01*
X020507Y013099D02*
X019301Y013099D01*
X019301Y013001D02*
X020481Y013001D01*
X020493Y012902D02*
X019301Y012902D01*
X019301Y012804D02*
X020549Y012804D01*
X020864Y012705D02*
X019301Y012705D01*
X019301Y012607D02*
X020962Y012607D01*
X021105Y012508D02*
X019301Y012508D01*
X019301Y012410D02*
X020608Y012410D01*
X020542Y012311D02*
X019301Y012311D01*
X019301Y012213D02*
X020521Y012213D01*
X020534Y012114D02*
X019248Y012114D01*
X019270Y012016D02*
X020589Y012016D01*
X020665Y011523D02*
X012989Y011523D01*
X013046Y011580D02*
X013111Y011738D01*
X013111Y011909D01*
X013046Y012067D01*
X012925Y012188D01*
X012767Y012253D01*
X012596Y012253D01*
X012438Y012188D01*
X011803Y011553D01*
X009533Y011553D01*
X009394Y011651D01*
X009385Y011672D01*
X009255Y011803D01*
X009084Y011873D01*
X008899Y011873D01*
X008728Y011803D01*
X008597Y011672D01*
X008526Y011501D01*
X008526Y011316D01*
X008597Y011145D01*
X008728Y011014D01*
X008899Y010944D01*
X008905Y010944D01*
X009119Y010793D01*
X009153Y010759D01*
X009188Y010744D01*
X009219Y010722D01*
X009266Y010712D01*
X009311Y010693D01*
X009349Y010693D01*
X009386Y010685D01*
X009434Y010693D01*
X012067Y010693D01*
X012225Y010759D01*
X013046Y011580D01*
X013063Y011622D02*
X019042Y011622D01*
X018943Y011720D02*
X013104Y011720D01*
X013111Y011819D02*
X018798Y011819D01*
X018661Y011917D02*
X013108Y011917D01*
X013067Y012016D02*
X018616Y012016D01*
X018611Y012114D02*
X012998Y012114D01*
X012865Y012213D02*
X018642Y012213D01*
X018723Y012311D02*
X006921Y012311D01*
X006921Y012213D02*
X012498Y012213D01*
X012364Y012114D02*
X006921Y012114D01*
X006921Y012016D02*
X012266Y012016D01*
X012167Y011917D02*
X006921Y011917D01*
X006921Y011819D02*
X008767Y011819D01*
X008646Y011720D02*
X006921Y011720D01*
X006921Y011622D02*
X008576Y011622D01*
X008536Y011523D02*
X006921Y011523D01*
X006921Y011425D02*
X008526Y011425D01*
X008526Y011326D02*
X006921Y011326D01*
X006921Y011228D02*
X008563Y011228D01*
X008613Y011129D02*
X006921Y011129D01*
X006921Y011031D02*
X008711Y011031D01*
X008921Y010932D02*
X006921Y010932D01*
X006921Y010834D02*
X009061Y010834D01*
X009201Y010735D02*
X006921Y010735D01*
X006921Y010637D02*
X022369Y010637D01*
X022369Y010735D02*
X012168Y010735D01*
X012300Y010834D02*
X022369Y010834D01*
X022369Y010932D02*
X012398Y010932D01*
X012497Y011031D02*
X022369Y011031D01*
X022369Y011129D02*
X012595Y011129D01*
X012694Y011228D02*
X022369Y011228D01*
X022369Y011326D02*
X012792Y011326D01*
X012891Y011425D02*
X022369Y011425D01*
X022369Y011523D02*
X021309Y011523D01*
X021452Y011622D02*
X022369Y011622D01*
X022369Y011720D02*
X021550Y011720D01*
X021649Y011819D02*
X022369Y011819D01*
X022369Y011917D02*
X021747Y011917D01*
X021846Y012016D02*
X022369Y012016D01*
X022369Y012114D02*
X021944Y012114D01*
X022043Y012213D02*
X022369Y012213D01*
X022369Y012311D02*
X022141Y012311D01*
X022240Y012410D02*
X022369Y012410D01*
X022369Y012508D02*
X022338Y012508D01*
X021598Y013001D02*
X021593Y013001D01*
X021611Y013099D02*
X021560Y013099D01*
X021611Y013198D02*
X021502Y013198D01*
X021442Y013296D02*
X021611Y013296D01*
X021611Y013395D02*
X021536Y013395D01*
X021576Y013493D02*
X021611Y013493D01*
X021611Y013592D02*
X021593Y013592D01*
X021593Y013690D02*
X021611Y013690D01*
X021611Y013789D02*
X021553Y013789D01*
X021611Y013887D02*
X021483Y013887D01*
X021921Y015424D02*
X020690Y016656D01*
X020753Y016700D01*
X020814Y016762D01*
X020864Y016833D01*
X020901Y016912D01*
X020924Y016997D01*
X020931Y017083D01*
X020931Y018653D01*
X021599Y018653D01*
X021921Y018331D01*
X021921Y015424D01*
X021921Y015463D02*
X021882Y015463D01*
X021921Y015562D02*
X021784Y015562D01*
X021685Y015660D02*
X021921Y015660D01*
X021921Y015759D02*
X021587Y015759D01*
X021488Y015857D02*
X021921Y015857D01*
X021921Y015956D02*
X021390Y015956D01*
X021291Y016054D02*
X021921Y016054D01*
X021921Y016153D02*
X021193Y016153D01*
X021094Y016251D02*
X021921Y016251D01*
X021921Y016350D02*
X020996Y016350D01*
X020897Y016448D02*
X021921Y016448D01*
X021921Y016547D02*
X020799Y016547D01*
X020700Y016645D02*
X021921Y016645D01*
X021921Y016744D02*
X020796Y016744D01*
X020869Y016842D02*
X021921Y016842D01*
X021921Y016941D02*
X020909Y016941D01*
X020927Y017039D02*
X021921Y017039D01*
X021921Y017138D02*
X020931Y017138D01*
X020931Y017236D02*
X021921Y017236D01*
X021921Y017335D02*
X020931Y017335D01*
X020931Y017433D02*
X021921Y017433D01*
X021921Y017532D02*
X020931Y017532D01*
X020931Y017630D02*
X021921Y017630D01*
X021921Y017729D02*
X020931Y017729D01*
X020931Y017827D02*
X021921Y017827D01*
X021921Y017926D02*
X020931Y017926D01*
X020931Y018024D02*
X021921Y018024D01*
X021921Y018123D02*
X020931Y018123D01*
X020931Y018221D02*
X021921Y018221D01*
X021921Y018320D02*
X020931Y018320D01*
X020931Y018418D02*
X021834Y018418D01*
X021736Y018517D02*
X020931Y018517D01*
X020931Y018615D02*
X021637Y018615D01*
X017991Y018615D02*
X012868Y018615D01*
X012871Y018607D02*
X012861Y018631D01*
X012883Y018653D01*
X017991Y018653D01*
X017991Y017083D01*
X017999Y016997D01*
X018019Y016923D01*
X017662Y016923D01*
X016591Y017994D01*
X016462Y018123D01*
X012707Y018123D01*
X012792Y018209D01*
X012871Y018400D01*
X012871Y018607D01*
X012871Y018517D02*
X017991Y018517D01*
X017991Y018418D02*
X012871Y018418D01*
X012838Y018320D02*
X017991Y018320D01*
X017991Y018221D02*
X012797Y018221D01*
X011905Y018221D02*
X010944Y018221D01*
X010846Y018320D02*
X011864Y018320D01*
X011831Y018418D02*
X010871Y018418D01*
X010871Y018517D02*
X011831Y018517D01*
X011835Y018615D02*
X010868Y018615D01*
X010827Y018714D02*
X011876Y018714D01*
X011925Y018812D02*
X010778Y018812D01*
X010679Y018911D02*
X012023Y018911D01*
X012214Y019009D02*
X010488Y019009D01*
X010214Y019009D02*
X007127Y019009D01*
X006999Y018911D02*
X010023Y018911D01*
X009925Y018812D02*
X006947Y018812D01*
X006923Y018714D02*
X009876Y018714D01*
X009835Y018615D02*
X006921Y018615D01*
X006921Y018517D02*
X009831Y018517D01*
X009831Y018418D02*
X006921Y018418D01*
X006921Y018320D02*
X009864Y018320D01*
X009905Y018221D02*
X006921Y018221D01*
X006921Y018123D02*
X009996Y018123D01*
X010149Y018024D02*
X006921Y018024D01*
X006921Y017926D02*
X010618Y017926D01*
X010716Y017827D02*
X006921Y017827D01*
X006921Y017729D02*
X010514Y017729D01*
X010471Y017630D02*
X006921Y017630D01*
X006921Y017532D02*
X010471Y017532D01*
X010471Y017433D02*
X009260Y017433D01*
X009197Y017460D02*
X009026Y017460D01*
X008868Y017394D01*
X008747Y017273D01*
X008681Y017115D01*
X008681Y016944D01*
X008747Y016786D01*
X008868Y016665D01*
X009026Y016600D01*
X009197Y016600D01*
X009355Y016665D01*
X009476Y016786D01*
X009541Y016944D01*
X009541Y017115D01*
X009476Y017273D01*
X009355Y017394D01*
X009197Y017460D01*
X008962Y017433D02*
X006921Y017433D01*
X006921Y017335D02*
X008808Y017335D01*
X008732Y017236D02*
X006921Y017236D01*
X006921Y017138D02*
X008691Y017138D01*
X008681Y017039D02*
X006921Y017039D01*
X006921Y016941D02*
X008683Y016941D01*
X008723Y016842D02*
X006921Y016842D01*
X006921Y016744D02*
X008789Y016744D01*
X008915Y016645D02*
X006921Y016645D01*
X006921Y016547D02*
X010471Y016547D01*
X010471Y016645D02*
X009307Y016645D01*
X009434Y016744D02*
X010471Y016744D01*
X010471Y016842D02*
X009499Y016842D01*
X009540Y016941D02*
X010471Y016941D01*
X010471Y017039D02*
X009541Y017039D01*
X009532Y017138D02*
X010471Y017138D01*
X010471Y017236D02*
X009491Y017236D01*
X009414Y017335D02*
X010471Y017335D01*
X010671Y017335D02*
X016191Y017335D01*
X016191Y017433D02*
X010671Y017433D01*
X010671Y017532D02*
X016191Y017532D01*
X016191Y017236D02*
X010671Y017236D01*
X010671Y017138D02*
X016191Y017138D01*
X016191Y017039D02*
X010671Y017039D01*
X010671Y016941D02*
X016191Y016941D01*
X016191Y016842D02*
X010671Y016842D01*
X010671Y016744D02*
X016191Y016744D01*
X016191Y016645D02*
X010671Y016645D01*
X010671Y016547D02*
X016191Y016547D01*
X017152Y017433D02*
X017991Y017433D01*
X017991Y017335D02*
X017251Y017335D01*
X017349Y017236D02*
X017991Y017236D01*
X017991Y017138D02*
X017448Y017138D01*
X017546Y017039D02*
X017995Y017039D01*
X018014Y016941D02*
X017645Y016941D01*
X017991Y017532D02*
X017054Y017532D01*
X016955Y017630D02*
X017991Y017630D01*
X017991Y017729D02*
X016857Y017729D01*
X016758Y017827D02*
X017991Y017827D01*
X017991Y017926D02*
X016660Y017926D01*
X016561Y018024D02*
X017991Y018024D01*
X017991Y018123D02*
X016463Y018123D01*
X010471Y016448D02*
X006921Y016448D01*
X006921Y016350D02*
X010471Y016350D01*
X010471Y016251D02*
X006921Y016251D01*
X006921Y016153D02*
X010471Y016153D01*
X010471Y016054D02*
X006921Y016054D01*
X006921Y015956D02*
X010471Y015956D01*
X008886Y015857D02*
X006921Y015857D01*
X006921Y015759D02*
X008736Y015759D01*
X008636Y015660D02*
X006921Y015660D01*
X006921Y015562D02*
X008572Y015562D01*
X008532Y015463D02*
X006921Y015463D01*
X006921Y015365D02*
X008526Y015365D01*
X008526Y015266D02*
X008597Y015095D01*
X008623Y015069D02*
X006921Y015069D01*
X006921Y014971D02*
X008721Y014971D01*
X008648Y014872D02*
X006921Y014872D01*
X006921Y014774D02*
X008577Y014774D01*
X008537Y014675D02*
X006921Y014675D01*
X006921Y014577D02*
X008526Y014577D01*
X008526Y014478D02*
X006921Y014478D01*
X006921Y014380D02*
X008562Y014380D01*
X008611Y014281D02*
X006921Y014281D01*
X006921Y014183D02*
X008709Y014183D01*
X008647Y014084D02*
X006921Y014084D01*
X006921Y013986D02*
X008577Y013986D01*
X008536Y013887D02*
X006921Y013887D01*
X006921Y013789D02*
X008526Y013789D01*
X008526Y013690D02*
X006921Y013690D01*
X006921Y013592D02*
X008562Y013592D01*
X008611Y013493D02*
X006921Y013493D01*
X006921Y013395D02*
X008710Y013395D01*
X008647Y013296D02*
X006921Y013296D01*
X006921Y013198D02*
X008577Y013198D01*
X008536Y013099D02*
X006921Y013099D01*
X006921Y013001D02*
X008526Y013001D01*
X008526Y012902D02*
X006921Y012902D01*
X006921Y012804D02*
X008562Y012804D01*
X008612Y012705D02*
X006921Y012705D01*
X006921Y012607D02*
X008710Y012607D01*
X009278Y012508D02*
X006921Y012508D01*
X006921Y012410D02*
X009377Y012410D01*
X009216Y011819D02*
X012069Y011819D01*
X011970Y011720D02*
X009337Y011720D01*
X009435Y011622D02*
X011872Y011622D01*
X013046Y012410D02*
X018841Y012410D01*
X018841Y012508D02*
X013139Y012508D01*
X009823Y010026D02*
X009860Y009947D01*
X009725Y010144D02*
X022369Y010144D01*
X022369Y010243D02*
X009562Y010243D01*
X007786Y010243D02*
X006921Y010243D01*
X006921Y010341D02*
X022369Y010341D01*
X022369Y010440D02*
X006921Y010440D01*
X006921Y010538D02*
X022369Y010538D01*
D19*
X021951Y010823D03*
X021231Y011063D03*
X021711Y011543D03*
X022191Y012023D03*
X020811Y012203D03*
X019371Y011423D03*
X019371Y011030D03*
X019011Y009143D03*
X018411Y009143D03*
X016611Y009083D03*
X016131Y009083D03*
X015831Y010763D03*
X015051Y010763D03*
X014271Y010763D03*
X012951Y010763D03*
X011811Y010463D03*
X011811Y009923D03*
X011031Y009563D03*
X010371Y010163D03*
X010071Y010583D03*
X010311Y011663D03*
X010621Y011663D03*
X010931Y011663D03*
X007851Y011363D03*
X007191Y010643D03*
X007851Y012203D03*
X007851Y012983D03*
X007851Y013763D03*
X007851Y014543D03*
X007851Y015323D03*
X008271Y016523D03*
X008271Y017783D03*
X007491Y017783D03*
X007371Y018623D03*
X008211Y018623D03*
X009051Y018623D03*
X009711Y017423D03*
X009771Y016763D03*
X009771Y016043D03*
X010311Y016043D03*
X010911Y017063D03*
X010911Y014843D03*
X010551Y014843D03*
X010191Y014843D03*
X014991Y015083D03*
X015531Y015083D03*
X016041Y015073D03*
X016551Y015083D03*
X016311Y016343D03*
X017691Y017303D03*
X017931Y016223D03*
X017931Y015863D03*
X017931Y015503D03*
X017931Y015143D03*
X017931Y014783D03*
X018351Y014783D03*
X018351Y015143D03*
X018351Y015503D03*
X018351Y015863D03*
X018351Y016223D03*
X016791Y018383D03*
X015831Y018383D03*
X021171Y018383D03*
X021591Y018143D03*
X021351Y016403D03*
X021711Y015983D03*
X021171Y015263D03*
X016611Y010763D03*
X020931Y008663D03*
X012051Y008603D03*
X011451Y008603D03*
X012051Y007943D03*
D20*
X008991Y014558D02*
X008286Y014558D01*
X008271Y014543D01*
D21*
X008991Y014558D02*
X010191Y014558D01*
X009584Y013771D02*
X009951Y013403D01*
X011871Y013403D01*
X012771Y012743D02*
X009651Y012743D01*
X009411Y012983D01*
X008991Y012983D01*
X008991Y013771D02*
X009584Y013771D01*
X008991Y015358D02*
X008993Y015378D01*
X008998Y015398D01*
X009007Y015416D01*
X009018Y015433D01*
X009032Y015447D01*
X009049Y015458D01*
X009067Y015467D01*
X009087Y015472D01*
X009107Y015474D01*
X011122Y015474D01*
X011303Y015293D01*
X013001Y013613D01*
X012681Y011823D02*
X011981Y011123D01*
X009397Y011123D01*
X008991Y011409D01*
X011303Y015293D02*
X011237Y015358D01*
D22*
X010191Y014843D02*
X010191Y014558D01*
D23*
X010911Y017063D02*
X010911Y017243D01*
X016011Y016283D02*
X016251Y016283D01*
X016311Y016343D01*
X019071Y013583D02*
X019071Y012263D01*
X018891Y012083D01*
X020091Y011783D02*
X020871Y011783D01*
D24*
X021231Y011783D01*
X022191Y012743D01*
X022191Y018443D01*
X021711Y018923D01*
X012771Y018923D01*
X012351Y018503D01*
X011871Y013403D02*
X011871Y013323D01*
X011801Y013253D01*
X012771Y012743D02*
X012771Y012723D01*
X012791Y012703D01*
D25*
X016971Y013523D03*
X017211Y014183D03*
X018891Y012083D03*
D26*
X020871Y011783D03*
M02*
