G04 #@! TF.FileFunction,Copper,L1,Top,Signal*
%FSLAX46Y46*%
G04 Gerber Fmt 4.6, Leading zero omitted, Abs format (unit mm)*
G04 Created by KiCad (PCBNEW 4.0.5) date 04/10/17 16:46:25*
%MOMM*%
%LPD*%
G01*
G04 APERTURE LIST*
%ADD10C,0.100000*%
%ADD11C,0.600000*%
%ADD12R,0.650000X1.060000*%
%ADD13R,2.000000X1.200000*%
%ADD14R,1.500000X1.000000*%
%ADD15R,1.143000X0.508000*%
%ADD16C,1.000000*%
%ADD17R,0.750000X0.800000*%
%ADD18R,0.800000X0.800000*%
%ADD19R,0.900000X0.500000*%
%ADD20R,0.500000X0.900000*%
%ADD21R,2.500000X1.000000*%
%ADD22R,1.250000X1.000000*%
%ADD23R,1.700000X1.700000*%
%ADD24O,1.700000X1.700000*%
%ADD25R,3.000000X1.000000*%
%ADD26C,1.000000*%
%ADD27C,0.600000*%
%ADD28C,0.300000*%
%ADD29C,0.250000*%
%ADD30C,0.254000*%
G04 APERTURE END LIST*
D10*
D11*
X123893500Y-78506000D03*
X122893500Y-78506000D03*
X121893500Y-78506000D03*
X120893500Y-78506000D03*
X119893500Y-78506000D03*
X122806500Y-107401000D03*
D12*
X120765000Y-87667000D03*
X121715000Y-87667000D03*
X122665000Y-87667000D03*
X122665000Y-85467000D03*
X120765000Y-85467000D03*
D11*
X150431500Y-108267500D03*
X147828000Y-108077000D03*
X143764000Y-108077000D03*
X138684000Y-108077000D03*
X149352000Y-89344500D03*
X145605500Y-89344500D03*
X141668500Y-89344500D03*
X138684000Y-89344500D03*
X122150000Y-95750000D03*
X122650000Y-94850000D03*
X121650000Y-94850000D03*
X120647500Y-102489000D03*
X120647500Y-103718000D03*
D13*
X150300000Y-85000000D03*
D14*
X129300000Y-112000000D03*
X129300000Y-92000000D03*
X129300000Y-89500000D03*
X129300000Y-94500000D03*
X129300000Y-96200000D03*
X129300000Y-97850000D03*
X129300000Y-99500000D03*
X129300000Y-102000000D03*
X129300000Y-104500000D03*
X129300000Y-106950000D03*
X129300000Y-108650000D03*
D13*
X151500000Y-112500000D03*
D15*
X125225000Y-97405000D03*
X125225000Y-99945000D03*
X125225000Y-101215000D03*
X125225000Y-102485000D03*
X125225000Y-103755000D03*
X125225000Y-105025000D03*
X125225000Y-106295000D03*
X118875000Y-106295000D03*
X118875000Y-105025000D03*
X118875000Y-103755000D03*
X118875000Y-102485000D03*
X118875000Y-101215000D03*
X118875000Y-99945000D03*
X118875000Y-98675000D03*
X118875000Y-97405000D03*
X125225000Y-98675000D03*
D11*
X123317000Y-106680000D03*
X116332000Y-86487000D03*
X127508000Y-85471000D03*
X127508000Y-86995000D03*
X127508000Y-88646000D03*
X119700000Y-117300000D03*
X123700000Y-117300000D03*
X127700000Y-117300000D03*
X127700000Y-114300000D03*
X123700000Y-114300000D03*
X119700000Y-114300000D03*
X138700000Y-117300000D03*
X143700000Y-117300000D03*
X143700000Y-114300000D03*
X138700000Y-114300000D03*
X141700000Y-82300000D03*
X138700000Y-82300000D03*
X141700000Y-79300000D03*
X138700000Y-79300000D03*
X113281500Y-103083000D03*
X113281500Y-100543000D03*
X127550000Y-90150000D03*
X122425500Y-106680000D03*
X120647500Y-104902000D03*
X114170500Y-103083000D03*
D16*
X114107000Y-84795000D03*
X132900000Y-116200000D03*
D17*
X124650500Y-85292500D03*
X124650500Y-86792500D03*
X127350000Y-99500000D03*
X127350000Y-98000000D03*
D18*
X131407000Y-80264000D03*
X133007000Y-80264000D03*
D19*
X120500000Y-91381000D03*
X120500000Y-89881000D03*
X124714000Y-88150000D03*
X124714000Y-89650000D03*
D20*
X128155000Y-80264000D03*
X129655000Y-80264000D03*
D17*
X122500000Y-91250000D03*
X122500000Y-89750000D03*
D16*
X146200000Y-80300000D03*
D11*
X114170500Y-100543000D03*
D21*
X121000000Y-83000000D03*
X121000000Y-80000000D03*
D22*
X123825000Y-83000000D03*
X123825000Y-81000000D03*
D23*
X114742000Y-107401000D03*
D24*
X114742000Y-109941000D03*
D25*
X112567500Y-91653000D03*
X112567500Y-96733000D03*
X112567500Y-101813000D03*
X115567500Y-89113000D03*
X115567500Y-94193000D03*
X115567500Y-99273000D03*
D11*
X117550000Y-97850000D03*
X119380000Y-84328000D03*
X119507000Y-85471000D03*
X130937000Y-106934000D03*
X127254000Y-105791000D03*
X123632000Y-100733500D03*
X127199990Y-103251000D03*
X121700000Y-92600000D03*
X131191000Y-96266000D03*
D26*
X127350000Y-98000000D02*
X129150000Y-98000000D01*
X129150000Y-98000000D02*
X129300000Y-97850000D01*
D27*
X121715000Y-87667000D02*
X121715000Y-88965000D01*
X121715000Y-88965000D02*
X122500000Y-89750000D01*
D28*
X122500000Y-91250000D02*
X121869000Y-91250000D01*
X121869000Y-91250000D02*
X120500000Y-89881000D01*
D27*
X120765000Y-87667000D02*
X120765000Y-89616000D01*
X120765000Y-89616000D02*
X120500000Y-89881000D01*
D29*
X124714000Y-88150000D02*
X124514000Y-88150000D01*
X124514000Y-88150000D02*
X123175999Y-86811999D01*
X123175999Y-86811999D02*
X120840001Y-86811999D01*
X120840001Y-86811999D02*
X120765000Y-86887000D01*
X120765000Y-86887000D02*
X120765000Y-87667000D01*
D28*
X124650500Y-85292500D02*
X122839500Y-85292500D01*
X122839500Y-85292500D02*
X122665000Y-85467000D01*
X118875000Y-97405000D02*
X120367000Y-97405000D01*
X120367000Y-97405000D02*
X121854000Y-98892000D01*
X121854000Y-98892000D02*
X121854000Y-106037998D01*
X121854000Y-106037998D02*
X120490998Y-107401000D01*
X120490998Y-107401000D02*
X114742000Y-107401000D01*
X129700000Y-83000000D02*
X126807000Y-83000000D01*
X126807000Y-83000000D02*
X125450000Y-83000000D01*
D29*
X128155000Y-80264000D02*
X128155000Y-80464000D01*
X128155000Y-80464000D02*
X126807000Y-81812000D01*
X126807000Y-81812000D02*
X126807000Y-83000000D01*
D28*
X125999002Y-83000000D02*
X125450000Y-83000000D01*
X125450000Y-83000000D02*
X124850000Y-83000000D01*
X129300000Y-99500000D02*
X132900000Y-99500000D01*
X132900000Y-99500000D02*
X134050000Y-98350000D01*
X134050000Y-98350000D02*
X134050000Y-87350000D01*
X134050000Y-87350000D02*
X129700000Y-83000000D01*
X117550000Y-97850000D02*
X117995000Y-97405000D01*
X117995000Y-97405000D02*
X118875000Y-97405000D01*
X119192500Y-97405000D02*
X118875000Y-97405000D01*
D29*
X125619000Y-83000000D02*
X124850000Y-83000000D01*
X124850000Y-83000000D02*
X124700000Y-83000000D01*
D26*
X127350000Y-99500000D02*
X129300000Y-99500000D01*
D29*
X124700000Y-83000000D02*
X123825000Y-83000000D01*
D28*
X119380000Y-84328000D02*
X119380000Y-84455000D01*
X119380000Y-84455000D02*
X119253000Y-84582000D01*
X119507000Y-85471000D02*
X119634000Y-85344000D01*
X119634000Y-85344000D02*
X119761000Y-85344000D01*
X124907500Y-98675000D02*
X123790544Y-97558044D01*
X123790544Y-97558044D02*
X123790544Y-97259456D01*
X125225000Y-98675000D02*
X124907500Y-98675000D01*
X129050000Y-92000000D02*
X129300000Y-92000000D01*
X123790544Y-97259456D02*
X129050000Y-92000000D01*
X125225000Y-102485000D02*
X125542500Y-102485000D01*
X125542500Y-102485000D02*
X126146501Y-101880999D01*
X126146501Y-101880999D02*
X126167501Y-101880999D01*
X126167501Y-101880999D02*
X126426000Y-101622500D01*
X126426000Y-101622500D02*
X126426000Y-95844000D01*
X126426000Y-95844000D02*
X127770000Y-94500000D01*
X127770000Y-94500000D02*
X129300000Y-94500000D01*
X129050000Y-94500000D02*
X129300000Y-94500000D01*
X127850000Y-103850000D02*
X127850000Y-103200000D01*
X127850000Y-103200000D02*
X129050000Y-102000000D01*
X129050000Y-102000000D02*
X129300000Y-102000000D01*
X126675000Y-105025000D02*
X127850000Y-103850000D01*
X125225000Y-105025000D02*
X126675000Y-105025000D01*
X129300000Y-102330500D02*
X129300000Y-102000000D01*
X113611999Y-108601001D02*
X113281500Y-108270502D01*
X115567500Y-103083000D02*
X113281500Y-105369000D01*
X113281500Y-105369000D02*
X113281500Y-108270502D01*
X115567500Y-99273000D02*
X115567500Y-103083000D01*
X129300000Y-106950000D02*
X128250000Y-106950000D01*
X128250000Y-106950000D02*
X126598999Y-108601001D01*
X126598999Y-108601001D02*
X113611999Y-108601001D01*
X130937000Y-106934000D02*
X129316000Y-106934000D01*
X129316000Y-106934000D02*
X129300000Y-106950000D01*
X129655000Y-80264000D02*
X131407000Y-80264000D01*
X120402122Y-96733000D02*
X122354011Y-98684889D01*
X124907500Y-106295000D02*
X125225000Y-106295000D01*
X122354011Y-103741511D02*
X124907500Y-106295000D01*
X122354011Y-98684889D02*
X122354011Y-103741511D01*
X112567500Y-96733000D02*
X120402122Y-96733000D01*
X126746000Y-106299000D02*
X125730000Y-106299000D01*
X127254000Y-105791000D02*
X126746000Y-106299000D01*
X125412500Y-106299000D02*
X125730000Y-106299000D01*
X123632000Y-100733500D02*
X124420500Y-99945000D01*
X124420500Y-99945000D02*
X125225000Y-99945000D01*
X123698000Y-98614634D02*
X123698000Y-98735500D01*
X123698000Y-98735500D02*
X124907500Y-99945000D01*
X124907500Y-99945000D02*
X125225000Y-99945000D01*
X112567500Y-91653000D02*
X116736366Y-91653000D01*
X116736366Y-91653000D02*
X123698000Y-98614634D01*
X118569244Y-94193000D02*
X117367500Y-94193000D01*
X122854022Y-98477778D02*
X118569244Y-94193000D01*
X124907500Y-103755000D02*
X122854022Y-101701522D01*
X117367500Y-94193000D02*
X115567500Y-94193000D01*
X125225000Y-103755000D02*
X124907500Y-103755000D01*
X122854022Y-101701522D02*
X122854022Y-98477778D01*
X125225000Y-103755000D02*
X126695990Y-103755000D01*
X126695990Y-103755000D02*
X127199990Y-103251000D01*
D29*
X123861002Y-88900000D02*
X123861002Y-88288002D01*
X123861002Y-88288002D02*
X123240000Y-87667000D01*
X123240000Y-87667000D02*
X122665000Y-87667000D01*
X124714000Y-89650000D02*
X124611002Y-89650000D01*
X124611002Y-89650000D02*
X123861002Y-88900000D01*
D26*
X120500000Y-91381000D02*
X118835500Y-91381000D01*
X118835500Y-91381000D02*
X116567500Y-89113000D01*
X116567500Y-89113000D02*
X115567500Y-89113000D01*
D28*
X120500000Y-91381000D02*
X120500000Y-91400000D01*
X120500000Y-91400000D02*
X121700000Y-92600000D01*
X129300000Y-96200000D02*
X131125000Y-96200000D01*
X131125000Y-96200000D02*
X131191000Y-96266000D01*
X129550000Y-96200000D02*
X129300000Y-96200000D01*
D30*
G36*
X149973000Y-83765000D02*
X149173690Y-83765000D01*
X148940301Y-83861673D01*
X148761673Y-84040302D01*
X148665000Y-84273691D01*
X148665000Y-84714250D01*
X148823750Y-84873000D01*
X150173000Y-84873000D01*
X150173000Y-84853000D01*
X150427000Y-84853000D01*
X150427000Y-84873000D01*
X151776250Y-84873000D01*
X151935000Y-84714250D01*
X151935000Y-84327000D01*
X157290000Y-84327000D01*
X157290000Y-112673000D01*
X153022250Y-112673000D01*
X152976250Y-112627000D01*
X151627000Y-112627000D01*
X151627000Y-112647000D01*
X151373000Y-112647000D01*
X151373000Y-112627000D01*
X150023750Y-112627000D01*
X149977750Y-112673000D01*
X149900000Y-112673000D01*
X149853841Y-112681685D01*
X149811447Y-112708965D01*
X149783006Y-112750590D01*
X149773000Y-112800000D01*
X149773000Y-119290000D01*
X117527000Y-119290000D01*
X117527000Y-116476661D01*
X131502758Y-116476661D01*
X131714990Y-116990303D01*
X132107630Y-117383629D01*
X132620900Y-117596757D01*
X133176661Y-117597242D01*
X133690303Y-117385010D01*
X134083629Y-116992370D01*
X134296757Y-116479100D01*
X134297242Y-115923339D01*
X134085010Y-115409697D01*
X133692370Y-115016371D01*
X133179100Y-114803243D01*
X132623339Y-114802758D01*
X132109697Y-115014990D01*
X131716371Y-115407630D01*
X131503243Y-115920900D01*
X131502758Y-116476661D01*
X117527000Y-116476661D01*
X117527000Y-112600000D01*
X117518315Y-112553841D01*
X117491035Y-112511447D01*
X117449410Y-112483006D01*
X117400000Y-112473000D01*
X110710000Y-112473000D01*
X110710000Y-111500000D01*
X127902560Y-111500000D01*
X127902560Y-112500000D01*
X127946838Y-112735317D01*
X128085910Y-112951441D01*
X128298110Y-113096431D01*
X128550000Y-113147440D01*
X130050000Y-113147440D01*
X130285317Y-113103162D01*
X130501441Y-112964090D01*
X130646431Y-112751890D01*
X130697440Y-112500000D01*
X130697440Y-111773691D01*
X149865000Y-111773691D01*
X149865000Y-112214250D01*
X150023750Y-112373000D01*
X151373000Y-112373000D01*
X151373000Y-111423750D01*
X151627000Y-111423750D01*
X151627000Y-112373000D01*
X152976250Y-112373000D01*
X152999107Y-112350143D01*
X153323298Y-112484759D01*
X153874285Y-112485240D01*
X154383515Y-112274831D01*
X154773461Y-111885564D01*
X154984759Y-111376702D01*
X154985240Y-110825715D01*
X154774831Y-110316485D01*
X154385564Y-109926539D01*
X153876702Y-109715241D01*
X153325715Y-109714760D01*
X152816485Y-109925169D01*
X152426539Y-110314436D01*
X152215241Y-110823298D01*
X152214855Y-111265000D01*
X151785750Y-111265000D01*
X151627000Y-111423750D01*
X151373000Y-111423750D01*
X151214250Y-111265000D01*
X150373690Y-111265000D01*
X150140301Y-111361673D01*
X149961673Y-111540302D01*
X149865000Y-111773691D01*
X130697440Y-111773691D01*
X130697440Y-111500000D01*
X130653162Y-111264683D01*
X130514090Y-111048559D01*
X130301890Y-110903569D01*
X130050000Y-110852560D01*
X128550000Y-110852560D01*
X128314683Y-110896838D01*
X128098559Y-111035910D01*
X127953569Y-111248110D01*
X127902560Y-111500000D01*
X110710000Y-111500000D01*
X110710000Y-102852237D01*
X110941191Y-102948000D01*
X112281750Y-102948000D01*
X112440500Y-102789250D01*
X112440500Y-101940000D01*
X112694500Y-101940000D01*
X112694500Y-102789250D01*
X112853250Y-102948000D01*
X114193809Y-102948000D01*
X114427198Y-102851327D01*
X114605827Y-102672699D01*
X114702500Y-102439310D01*
X114702500Y-102098750D01*
X114543750Y-101940000D01*
X112694500Y-101940000D01*
X112440500Y-101940000D01*
X112420500Y-101940000D01*
X112420500Y-101686000D01*
X112440500Y-101686000D01*
X112440500Y-100836750D01*
X112694500Y-100836750D01*
X112694500Y-101686000D01*
X114543750Y-101686000D01*
X114702500Y-101527250D01*
X114702500Y-101186690D01*
X114605827Y-100953301D01*
X114427198Y-100774673D01*
X114193809Y-100678000D01*
X112853250Y-100678000D01*
X112694500Y-100836750D01*
X112440500Y-100836750D01*
X112281750Y-100678000D01*
X110941191Y-100678000D01*
X110710000Y-100773763D01*
X110710000Y-97757271D01*
X110815610Y-97829431D01*
X111067500Y-97880440D01*
X114067500Y-97880440D01*
X114302817Y-97836162D01*
X114518941Y-97697090D01*
X114641308Y-97518000D01*
X116675455Y-97518000D01*
X116615162Y-97663201D01*
X116614838Y-98035167D01*
X116652188Y-98125560D01*
X114067500Y-98125560D01*
X113832183Y-98169838D01*
X113616059Y-98308910D01*
X113471069Y-98521110D01*
X113420060Y-98773000D01*
X113420060Y-99773000D01*
X113464338Y-100008317D01*
X113603410Y-100224441D01*
X113815610Y-100369431D01*
X114067500Y-100420440D01*
X114782500Y-100420440D01*
X114782500Y-102757842D01*
X112726421Y-104813921D01*
X112556255Y-105068593D01*
X112556255Y-105068594D01*
X112496500Y-105369000D01*
X112496500Y-108270502D01*
X112556255Y-108570909D01*
X112726421Y-108825581D01*
X113056920Y-109156080D01*
X113311592Y-109326246D01*
X113364909Y-109336852D01*
X113340946Y-109372715D01*
X113227907Y-109941000D01*
X113340946Y-110509285D01*
X113662853Y-110991054D01*
X114144622Y-111312961D01*
X114712907Y-111426000D01*
X114771093Y-111426000D01*
X115339378Y-111312961D01*
X115821147Y-110991054D01*
X116143054Y-110509285D01*
X116256093Y-109941000D01*
X116145697Y-109386001D01*
X126598999Y-109386001D01*
X126899406Y-109326246D01*
X127154078Y-109156080D01*
X127902560Y-108407598D01*
X127902560Y-109150000D01*
X127946838Y-109385317D01*
X128085910Y-109601441D01*
X128298110Y-109746431D01*
X128550000Y-109797440D01*
X130050000Y-109797440D01*
X130285317Y-109753162D01*
X130501441Y-109614090D01*
X130646431Y-109401890D01*
X130697440Y-109150000D01*
X130697440Y-108150000D01*
X130653162Y-107914683D01*
X130579380Y-107800022D01*
X130580506Y-107798374D01*
X130750201Y-107868838D01*
X131122167Y-107869162D01*
X131465943Y-107727117D01*
X131729192Y-107464327D01*
X131871838Y-107120799D01*
X131872162Y-106748833D01*
X131730117Y-106405057D01*
X131467327Y-106141808D01*
X131123799Y-105999162D01*
X130751833Y-105998838D01*
X130564166Y-106076380D01*
X130514090Y-105998559D01*
X130301890Y-105853569D01*
X130050000Y-105802560D01*
X128550000Y-105802560D01*
X128314683Y-105846838D01*
X128188882Y-105927789D01*
X128189162Y-105605833D01*
X128140827Y-105488852D01*
X128190301Y-105538327D01*
X128423690Y-105635000D01*
X129014250Y-105635000D01*
X129173000Y-105476250D01*
X129173000Y-104627000D01*
X129427000Y-104627000D01*
X129427000Y-105476250D01*
X129585750Y-105635000D01*
X130176310Y-105635000D01*
X130409699Y-105538327D01*
X130588327Y-105359698D01*
X130685000Y-105126309D01*
X130685000Y-104785750D01*
X130526250Y-104627000D01*
X129427000Y-104627000D01*
X129173000Y-104627000D01*
X129153000Y-104627000D01*
X129153000Y-104373000D01*
X129173000Y-104373000D01*
X129173000Y-103523750D01*
X129427000Y-103523750D01*
X129427000Y-104373000D01*
X130526250Y-104373000D01*
X130685000Y-104214250D01*
X130685000Y-103873691D01*
X130588327Y-103640302D01*
X130409699Y-103461673D01*
X130176310Y-103365000D01*
X129585750Y-103365000D01*
X129427000Y-103523750D01*
X129173000Y-103523750D01*
X129014250Y-103365000D01*
X128795158Y-103365000D01*
X129012718Y-103147440D01*
X130050000Y-103147440D01*
X130285317Y-103103162D01*
X130501441Y-102964090D01*
X130646431Y-102751890D01*
X130697440Y-102500000D01*
X130697440Y-101500000D01*
X130653162Y-101264683D01*
X130514090Y-101048559D01*
X130301890Y-100903569D01*
X130050000Y-100852560D01*
X128550000Y-100852560D01*
X128314683Y-100896838D01*
X128098559Y-101035910D01*
X127953569Y-101248110D01*
X127902560Y-101500000D01*
X127902560Y-102037282D01*
X127554175Y-102385667D01*
X127386789Y-102316162D01*
X127014823Y-102315838D01*
X126720572Y-102437420D01*
X126722580Y-102436078D01*
X126981079Y-102177579D01*
X127151245Y-101922906D01*
X127211000Y-101622500D01*
X127211000Y-100607351D01*
X127350000Y-100635000D01*
X128488569Y-100635000D01*
X128550000Y-100647440D01*
X130050000Y-100647440D01*
X130285317Y-100603162D01*
X130501441Y-100464090D01*
X130623808Y-100285000D01*
X132900000Y-100285000D01*
X133200407Y-100225245D01*
X133455079Y-100055079D01*
X134605079Y-98905079D01*
X134775245Y-98650406D01*
X134835001Y-98350000D01*
X134835000Y-98349995D01*
X134835000Y-87350000D01*
X134800048Y-87174285D01*
X152214760Y-87174285D01*
X152425169Y-87683515D01*
X152814436Y-88073461D01*
X153323298Y-88284759D01*
X153874285Y-88285240D01*
X154383515Y-88074831D01*
X154773461Y-87685564D01*
X154984759Y-87176702D01*
X154985240Y-86625715D01*
X154774831Y-86116485D01*
X154385564Y-85726539D01*
X153876702Y-85515241D01*
X153325715Y-85514760D01*
X152816485Y-85725169D01*
X152426539Y-86114436D01*
X152215241Y-86623298D01*
X152214760Y-87174285D01*
X134800048Y-87174285D01*
X134775245Y-87049594D01*
X134775245Y-87049593D01*
X134605079Y-86794921D01*
X133095908Y-85285750D01*
X148665000Y-85285750D01*
X148665000Y-85726309D01*
X148761673Y-85959698D01*
X148940301Y-86138327D01*
X149173690Y-86235000D01*
X150014250Y-86235000D01*
X150173000Y-86076250D01*
X150173000Y-85127000D01*
X150427000Y-85127000D01*
X150427000Y-86076250D01*
X150585750Y-86235000D01*
X151426310Y-86235000D01*
X151659699Y-86138327D01*
X151838327Y-85959698D01*
X151935000Y-85726309D01*
X151935000Y-85285750D01*
X151776250Y-85127000D01*
X150427000Y-85127000D01*
X150173000Y-85127000D01*
X148823750Y-85127000D01*
X148665000Y-85285750D01*
X133095908Y-85285750D01*
X130255079Y-82444921D01*
X130000407Y-82274755D01*
X129700000Y-82215000D01*
X127567000Y-82215000D01*
X127567000Y-82126802D01*
X128332362Y-81361440D01*
X128405000Y-81361440D01*
X128640317Y-81317162D01*
X128856441Y-81178090D01*
X128904134Y-81108289D01*
X128940910Y-81165441D01*
X129153110Y-81310431D01*
X129405000Y-81361440D01*
X129905000Y-81361440D01*
X130140317Y-81317162D01*
X130356441Y-81178090D01*
X130444644Y-81049000D01*
X130500156Y-81049000D01*
X130542910Y-81115441D01*
X130755110Y-81260431D01*
X131007000Y-81311440D01*
X131807000Y-81311440D01*
X132042317Y-81267162D01*
X132206493Y-81161518D01*
X132247302Y-81202327D01*
X132480691Y-81299000D01*
X132721250Y-81299000D01*
X132880000Y-81140250D01*
X132880000Y-80391000D01*
X133134000Y-80391000D01*
X133134000Y-81140250D01*
X133292750Y-81299000D01*
X133533309Y-81299000D01*
X133766698Y-81202327D01*
X133945327Y-81023699D01*
X134042000Y-80790310D01*
X134042000Y-80576661D01*
X144802758Y-80576661D01*
X145014990Y-81090303D01*
X145407630Y-81483629D01*
X145920900Y-81696757D01*
X146476661Y-81697242D01*
X146990303Y-81485010D01*
X147383629Y-81092370D01*
X147596757Y-80579100D01*
X147597242Y-80023339D01*
X147385010Y-79509697D01*
X146992370Y-79116371D01*
X146479100Y-78903243D01*
X145923339Y-78902758D01*
X145409697Y-79114990D01*
X145016371Y-79507630D01*
X144803243Y-80020900D01*
X144802758Y-80576661D01*
X134042000Y-80576661D01*
X134042000Y-80549750D01*
X133883250Y-80391000D01*
X133134000Y-80391000D01*
X132880000Y-80391000D01*
X132860000Y-80391000D01*
X132860000Y-80137000D01*
X132880000Y-80137000D01*
X132880000Y-79387750D01*
X133134000Y-79387750D01*
X133134000Y-80137000D01*
X133883250Y-80137000D01*
X134042000Y-79978250D01*
X134042000Y-79737690D01*
X133945327Y-79504301D01*
X133766698Y-79325673D01*
X133533309Y-79229000D01*
X133292750Y-79229000D01*
X133134000Y-79387750D01*
X132880000Y-79387750D01*
X132721250Y-79229000D01*
X132480691Y-79229000D01*
X132247302Y-79325673D01*
X132205340Y-79367634D01*
X132058890Y-79267569D01*
X131807000Y-79216560D01*
X131007000Y-79216560D01*
X130771683Y-79260838D01*
X130555559Y-79399910D01*
X130501519Y-79479000D01*
X130444018Y-79479000D01*
X130369090Y-79362559D01*
X130156890Y-79217569D01*
X129905000Y-79166560D01*
X129405000Y-79166560D01*
X129169683Y-79210838D01*
X128953559Y-79349910D01*
X128905866Y-79419711D01*
X128869090Y-79362559D01*
X128656890Y-79217569D01*
X128405000Y-79166560D01*
X127905000Y-79166560D01*
X127669683Y-79210838D01*
X127453559Y-79349910D01*
X127308569Y-79562110D01*
X127257560Y-79814000D01*
X127257560Y-80286638D01*
X126269599Y-81274599D01*
X126104852Y-81521161D01*
X126047000Y-81812000D01*
X126047000Y-81993667D01*
X125989922Y-81855868D01*
X125881535Y-81693657D01*
X125706343Y-81518465D01*
X125544132Y-81410078D01*
X125315223Y-81315261D01*
X125123881Y-81277201D01*
X125071269Y-81272019D01*
X124926250Y-81127000D01*
X123952000Y-81127000D01*
X123952000Y-81147000D01*
X123698000Y-81147000D01*
X123698000Y-81127000D01*
X123678000Y-81127000D01*
X123678000Y-80873000D01*
X123698000Y-80873000D01*
X123698000Y-80023750D01*
X123952000Y-80023750D01*
X123952000Y-80873000D01*
X124926250Y-80873000D01*
X125085000Y-80714250D01*
X125085000Y-80373691D01*
X124988327Y-80140302D01*
X124809699Y-79961673D01*
X124576310Y-79865000D01*
X124110750Y-79865000D01*
X123952000Y-80023750D01*
X123698000Y-80023750D01*
X123539250Y-79865000D01*
X123073690Y-79865000D01*
X122885000Y-79943158D01*
X122885000Y-79872998D01*
X122726252Y-79872998D01*
X122885000Y-79714250D01*
X122885000Y-79373691D01*
X122788327Y-79140302D01*
X122609699Y-78961673D01*
X122376310Y-78865000D01*
X121285750Y-78865000D01*
X121127000Y-79023750D01*
X121127000Y-79873000D01*
X121147000Y-79873000D01*
X121147000Y-80127000D01*
X121127000Y-80127000D01*
X121127000Y-80976250D01*
X121285750Y-81135000D01*
X122376310Y-81135000D01*
X122565000Y-81056842D01*
X122565000Y-81127002D01*
X122723748Y-81127002D01*
X122585750Y-81265000D01*
X119350000Y-81265000D01*
X119226119Y-81277201D01*
X119034777Y-81315261D01*
X118805868Y-81410078D01*
X118643657Y-81518465D01*
X118468465Y-81693657D01*
X118360078Y-81855868D01*
X118265261Y-82084777D01*
X118227201Y-82276119D01*
X118215000Y-82400000D01*
X118215000Y-85900000D01*
X118227201Y-86023881D01*
X118265261Y-86215223D01*
X118360078Y-86444132D01*
X118468465Y-86606343D01*
X118643657Y-86781535D01*
X118805868Y-86889922D01*
X119034777Y-86984739D01*
X119226119Y-87022799D01*
X119350000Y-87035000D01*
X119813216Y-87035000D01*
X119792560Y-87137000D01*
X119792560Y-88197000D01*
X119830000Y-88395976D01*
X119830000Y-89024956D01*
X119814683Y-89027838D01*
X119598559Y-89166910D01*
X119453569Y-89379110D01*
X119402560Y-89631000D01*
X119402560Y-90131000D01*
X119424199Y-90246000D01*
X119305632Y-90246000D01*
X117714940Y-88655308D01*
X117714940Y-88613000D01*
X117670662Y-88377683D01*
X117531590Y-88161559D01*
X117319390Y-88016569D01*
X117067500Y-87965560D01*
X114067500Y-87965560D01*
X113832183Y-88009838D01*
X113616059Y-88148910D01*
X113471069Y-88361110D01*
X113420060Y-88613000D01*
X113420060Y-89613000D01*
X113464338Y-89848317D01*
X113603410Y-90064441D01*
X113815610Y-90209431D01*
X114067500Y-90260440D01*
X116109808Y-90260440D01*
X116717368Y-90868000D01*
X114638692Y-90868000D01*
X114531590Y-90701559D01*
X114319390Y-90556569D01*
X114067500Y-90505560D01*
X111067500Y-90505560D01*
X110832183Y-90549838D01*
X110710000Y-90628461D01*
X110710000Y-84127000D01*
X112871728Y-84127000D01*
X112710243Y-84515900D01*
X112709758Y-85071661D01*
X112921990Y-85585303D01*
X113314630Y-85978629D01*
X113827900Y-86191757D01*
X114383661Y-86192242D01*
X114897303Y-85980010D01*
X115290629Y-85587370D01*
X115503757Y-85074100D01*
X115504242Y-84518339D01*
X115342544Y-84127000D01*
X117700000Y-84127000D01*
X117746159Y-84118315D01*
X117788553Y-84091035D01*
X117816994Y-84049410D01*
X117827000Y-84000000D01*
X117827000Y-80285750D01*
X119115000Y-80285750D01*
X119115000Y-80626309D01*
X119211673Y-80859698D01*
X119390301Y-81038327D01*
X119623690Y-81135000D01*
X120714250Y-81135000D01*
X120873000Y-80976250D01*
X120873000Y-80127000D01*
X119273750Y-80127000D01*
X119115000Y-80285750D01*
X117827000Y-80285750D01*
X117827000Y-79373691D01*
X119115000Y-79373691D01*
X119115000Y-79714250D01*
X119273750Y-79873000D01*
X120873000Y-79873000D01*
X120873000Y-79023750D01*
X120714250Y-78865000D01*
X119623690Y-78865000D01*
X119390301Y-78961673D01*
X119211673Y-79140302D01*
X119115000Y-79373691D01*
X117827000Y-79373691D01*
X117827000Y-77710000D01*
X149973000Y-77710000D01*
X149973000Y-83765000D01*
X149973000Y-83765000D01*
G37*
X149973000Y-83765000D02*
X149173690Y-83765000D01*
X148940301Y-83861673D01*
X148761673Y-84040302D01*
X148665000Y-84273691D01*
X148665000Y-84714250D01*
X148823750Y-84873000D01*
X150173000Y-84873000D01*
X150173000Y-84853000D01*
X150427000Y-84853000D01*
X150427000Y-84873000D01*
X151776250Y-84873000D01*
X151935000Y-84714250D01*
X151935000Y-84327000D01*
X157290000Y-84327000D01*
X157290000Y-112673000D01*
X153022250Y-112673000D01*
X152976250Y-112627000D01*
X151627000Y-112627000D01*
X151627000Y-112647000D01*
X151373000Y-112647000D01*
X151373000Y-112627000D01*
X150023750Y-112627000D01*
X149977750Y-112673000D01*
X149900000Y-112673000D01*
X149853841Y-112681685D01*
X149811447Y-112708965D01*
X149783006Y-112750590D01*
X149773000Y-112800000D01*
X149773000Y-119290000D01*
X117527000Y-119290000D01*
X117527000Y-116476661D01*
X131502758Y-116476661D01*
X131714990Y-116990303D01*
X132107630Y-117383629D01*
X132620900Y-117596757D01*
X133176661Y-117597242D01*
X133690303Y-117385010D01*
X134083629Y-116992370D01*
X134296757Y-116479100D01*
X134297242Y-115923339D01*
X134085010Y-115409697D01*
X133692370Y-115016371D01*
X133179100Y-114803243D01*
X132623339Y-114802758D01*
X132109697Y-115014990D01*
X131716371Y-115407630D01*
X131503243Y-115920900D01*
X131502758Y-116476661D01*
X117527000Y-116476661D01*
X117527000Y-112600000D01*
X117518315Y-112553841D01*
X117491035Y-112511447D01*
X117449410Y-112483006D01*
X117400000Y-112473000D01*
X110710000Y-112473000D01*
X110710000Y-111500000D01*
X127902560Y-111500000D01*
X127902560Y-112500000D01*
X127946838Y-112735317D01*
X128085910Y-112951441D01*
X128298110Y-113096431D01*
X128550000Y-113147440D01*
X130050000Y-113147440D01*
X130285317Y-113103162D01*
X130501441Y-112964090D01*
X130646431Y-112751890D01*
X130697440Y-112500000D01*
X130697440Y-111773691D01*
X149865000Y-111773691D01*
X149865000Y-112214250D01*
X150023750Y-112373000D01*
X151373000Y-112373000D01*
X151373000Y-111423750D01*
X151627000Y-111423750D01*
X151627000Y-112373000D01*
X152976250Y-112373000D01*
X152999107Y-112350143D01*
X153323298Y-112484759D01*
X153874285Y-112485240D01*
X154383515Y-112274831D01*
X154773461Y-111885564D01*
X154984759Y-111376702D01*
X154985240Y-110825715D01*
X154774831Y-110316485D01*
X154385564Y-109926539D01*
X153876702Y-109715241D01*
X153325715Y-109714760D01*
X152816485Y-109925169D01*
X152426539Y-110314436D01*
X152215241Y-110823298D01*
X152214855Y-111265000D01*
X151785750Y-111265000D01*
X151627000Y-111423750D01*
X151373000Y-111423750D01*
X151214250Y-111265000D01*
X150373690Y-111265000D01*
X150140301Y-111361673D01*
X149961673Y-111540302D01*
X149865000Y-111773691D01*
X130697440Y-111773691D01*
X130697440Y-111500000D01*
X130653162Y-111264683D01*
X130514090Y-111048559D01*
X130301890Y-110903569D01*
X130050000Y-110852560D01*
X128550000Y-110852560D01*
X128314683Y-110896838D01*
X128098559Y-111035910D01*
X127953569Y-111248110D01*
X127902560Y-111500000D01*
X110710000Y-111500000D01*
X110710000Y-102852237D01*
X110941191Y-102948000D01*
X112281750Y-102948000D01*
X112440500Y-102789250D01*
X112440500Y-101940000D01*
X112694500Y-101940000D01*
X112694500Y-102789250D01*
X112853250Y-102948000D01*
X114193809Y-102948000D01*
X114427198Y-102851327D01*
X114605827Y-102672699D01*
X114702500Y-102439310D01*
X114702500Y-102098750D01*
X114543750Y-101940000D01*
X112694500Y-101940000D01*
X112440500Y-101940000D01*
X112420500Y-101940000D01*
X112420500Y-101686000D01*
X112440500Y-101686000D01*
X112440500Y-100836750D01*
X112694500Y-100836750D01*
X112694500Y-101686000D01*
X114543750Y-101686000D01*
X114702500Y-101527250D01*
X114702500Y-101186690D01*
X114605827Y-100953301D01*
X114427198Y-100774673D01*
X114193809Y-100678000D01*
X112853250Y-100678000D01*
X112694500Y-100836750D01*
X112440500Y-100836750D01*
X112281750Y-100678000D01*
X110941191Y-100678000D01*
X110710000Y-100773763D01*
X110710000Y-97757271D01*
X110815610Y-97829431D01*
X111067500Y-97880440D01*
X114067500Y-97880440D01*
X114302817Y-97836162D01*
X114518941Y-97697090D01*
X114641308Y-97518000D01*
X116675455Y-97518000D01*
X116615162Y-97663201D01*
X116614838Y-98035167D01*
X116652188Y-98125560D01*
X114067500Y-98125560D01*
X113832183Y-98169838D01*
X113616059Y-98308910D01*
X113471069Y-98521110D01*
X113420060Y-98773000D01*
X113420060Y-99773000D01*
X113464338Y-100008317D01*
X113603410Y-100224441D01*
X113815610Y-100369431D01*
X114067500Y-100420440D01*
X114782500Y-100420440D01*
X114782500Y-102757842D01*
X112726421Y-104813921D01*
X112556255Y-105068593D01*
X112556255Y-105068594D01*
X112496500Y-105369000D01*
X112496500Y-108270502D01*
X112556255Y-108570909D01*
X112726421Y-108825581D01*
X113056920Y-109156080D01*
X113311592Y-109326246D01*
X113364909Y-109336852D01*
X113340946Y-109372715D01*
X113227907Y-109941000D01*
X113340946Y-110509285D01*
X113662853Y-110991054D01*
X114144622Y-111312961D01*
X114712907Y-111426000D01*
X114771093Y-111426000D01*
X115339378Y-111312961D01*
X115821147Y-110991054D01*
X116143054Y-110509285D01*
X116256093Y-109941000D01*
X116145697Y-109386001D01*
X126598999Y-109386001D01*
X126899406Y-109326246D01*
X127154078Y-109156080D01*
X127902560Y-108407598D01*
X127902560Y-109150000D01*
X127946838Y-109385317D01*
X128085910Y-109601441D01*
X128298110Y-109746431D01*
X128550000Y-109797440D01*
X130050000Y-109797440D01*
X130285317Y-109753162D01*
X130501441Y-109614090D01*
X130646431Y-109401890D01*
X130697440Y-109150000D01*
X130697440Y-108150000D01*
X130653162Y-107914683D01*
X130579380Y-107800022D01*
X130580506Y-107798374D01*
X130750201Y-107868838D01*
X131122167Y-107869162D01*
X131465943Y-107727117D01*
X131729192Y-107464327D01*
X131871838Y-107120799D01*
X131872162Y-106748833D01*
X131730117Y-106405057D01*
X131467327Y-106141808D01*
X131123799Y-105999162D01*
X130751833Y-105998838D01*
X130564166Y-106076380D01*
X130514090Y-105998559D01*
X130301890Y-105853569D01*
X130050000Y-105802560D01*
X128550000Y-105802560D01*
X128314683Y-105846838D01*
X128188882Y-105927789D01*
X128189162Y-105605833D01*
X128140827Y-105488852D01*
X128190301Y-105538327D01*
X128423690Y-105635000D01*
X129014250Y-105635000D01*
X129173000Y-105476250D01*
X129173000Y-104627000D01*
X129427000Y-104627000D01*
X129427000Y-105476250D01*
X129585750Y-105635000D01*
X130176310Y-105635000D01*
X130409699Y-105538327D01*
X130588327Y-105359698D01*
X130685000Y-105126309D01*
X130685000Y-104785750D01*
X130526250Y-104627000D01*
X129427000Y-104627000D01*
X129173000Y-104627000D01*
X129153000Y-104627000D01*
X129153000Y-104373000D01*
X129173000Y-104373000D01*
X129173000Y-103523750D01*
X129427000Y-103523750D01*
X129427000Y-104373000D01*
X130526250Y-104373000D01*
X130685000Y-104214250D01*
X130685000Y-103873691D01*
X130588327Y-103640302D01*
X130409699Y-103461673D01*
X130176310Y-103365000D01*
X129585750Y-103365000D01*
X129427000Y-103523750D01*
X129173000Y-103523750D01*
X129014250Y-103365000D01*
X128795158Y-103365000D01*
X129012718Y-103147440D01*
X130050000Y-103147440D01*
X130285317Y-103103162D01*
X130501441Y-102964090D01*
X130646431Y-102751890D01*
X130697440Y-102500000D01*
X130697440Y-101500000D01*
X130653162Y-101264683D01*
X130514090Y-101048559D01*
X130301890Y-100903569D01*
X130050000Y-100852560D01*
X128550000Y-100852560D01*
X128314683Y-100896838D01*
X128098559Y-101035910D01*
X127953569Y-101248110D01*
X127902560Y-101500000D01*
X127902560Y-102037282D01*
X127554175Y-102385667D01*
X127386789Y-102316162D01*
X127014823Y-102315838D01*
X126720572Y-102437420D01*
X126722580Y-102436078D01*
X126981079Y-102177579D01*
X127151245Y-101922906D01*
X127211000Y-101622500D01*
X127211000Y-100607351D01*
X127350000Y-100635000D01*
X128488569Y-100635000D01*
X128550000Y-100647440D01*
X130050000Y-100647440D01*
X130285317Y-100603162D01*
X130501441Y-100464090D01*
X130623808Y-100285000D01*
X132900000Y-100285000D01*
X133200407Y-100225245D01*
X133455079Y-100055079D01*
X134605079Y-98905079D01*
X134775245Y-98650406D01*
X134835001Y-98350000D01*
X134835000Y-98349995D01*
X134835000Y-87350000D01*
X134800048Y-87174285D01*
X152214760Y-87174285D01*
X152425169Y-87683515D01*
X152814436Y-88073461D01*
X153323298Y-88284759D01*
X153874285Y-88285240D01*
X154383515Y-88074831D01*
X154773461Y-87685564D01*
X154984759Y-87176702D01*
X154985240Y-86625715D01*
X154774831Y-86116485D01*
X154385564Y-85726539D01*
X153876702Y-85515241D01*
X153325715Y-85514760D01*
X152816485Y-85725169D01*
X152426539Y-86114436D01*
X152215241Y-86623298D01*
X152214760Y-87174285D01*
X134800048Y-87174285D01*
X134775245Y-87049594D01*
X134775245Y-87049593D01*
X134605079Y-86794921D01*
X133095908Y-85285750D01*
X148665000Y-85285750D01*
X148665000Y-85726309D01*
X148761673Y-85959698D01*
X148940301Y-86138327D01*
X149173690Y-86235000D01*
X150014250Y-86235000D01*
X150173000Y-86076250D01*
X150173000Y-85127000D01*
X150427000Y-85127000D01*
X150427000Y-86076250D01*
X150585750Y-86235000D01*
X151426310Y-86235000D01*
X151659699Y-86138327D01*
X151838327Y-85959698D01*
X151935000Y-85726309D01*
X151935000Y-85285750D01*
X151776250Y-85127000D01*
X150427000Y-85127000D01*
X150173000Y-85127000D01*
X148823750Y-85127000D01*
X148665000Y-85285750D01*
X133095908Y-85285750D01*
X130255079Y-82444921D01*
X130000407Y-82274755D01*
X129700000Y-82215000D01*
X127567000Y-82215000D01*
X127567000Y-82126802D01*
X128332362Y-81361440D01*
X128405000Y-81361440D01*
X128640317Y-81317162D01*
X128856441Y-81178090D01*
X128904134Y-81108289D01*
X128940910Y-81165441D01*
X129153110Y-81310431D01*
X129405000Y-81361440D01*
X129905000Y-81361440D01*
X130140317Y-81317162D01*
X130356441Y-81178090D01*
X130444644Y-81049000D01*
X130500156Y-81049000D01*
X130542910Y-81115441D01*
X130755110Y-81260431D01*
X131007000Y-81311440D01*
X131807000Y-81311440D01*
X132042317Y-81267162D01*
X132206493Y-81161518D01*
X132247302Y-81202327D01*
X132480691Y-81299000D01*
X132721250Y-81299000D01*
X132880000Y-81140250D01*
X132880000Y-80391000D01*
X133134000Y-80391000D01*
X133134000Y-81140250D01*
X133292750Y-81299000D01*
X133533309Y-81299000D01*
X133766698Y-81202327D01*
X133945327Y-81023699D01*
X134042000Y-80790310D01*
X134042000Y-80576661D01*
X144802758Y-80576661D01*
X145014990Y-81090303D01*
X145407630Y-81483629D01*
X145920900Y-81696757D01*
X146476661Y-81697242D01*
X146990303Y-81485010D01*
X147383629Y-81092370D01*
X147596757Y-80579100D01*
X147597242Y-80023339D01*
X147385010Y-79509697D01*
X146992370Y-79116371D01*
X146479100Y-78903243D01*
X145923339Y-78902758D01*
X145409697Y-79114990D01*
X145016371Y-79507630D01*
X144803243Y-80020900D01*
X144802758Y-80576661D01*
X134042000Y-80576661D01*
X134042000Y-80549750D01*
X133883250Y-80391000D01*
X133134000Y-80391000D01*
X132880000Y-80391000D01*
X132860000Y-80391000D01*
X132860000Y-80137000D01*
X132880000Y-80137000D01*
X132880000Y-79387750D01*
X133134000Y-79387750D01*
X133134000Y-80137000D01*
X133883250Y-80137000D01*
X134042000Y-79978250D01*
X134042000Y-79737690D01*
X133945327Y-79504301D01*
X133766698Y-79325673D01*
X133533309Y-79229000D01*
X133292750Y-79229000D01*
X133134000Y-79387750D01*
X132880000Y-79387750D01*
X132721250Y-79229000D01*
X132480691Y-79229000D01*
X132247302Y-79325673D01*
X132205340Y-79367634D01*
X132058890Y-79267569D01*
X131807000Y-79216560D01*
X131007000Y-79216560D01*
X130771683Y-79260838D01*
X130555559Y-79399910D01*
X130501519Y-79479000D01*
X130444018Y-79479000D01*
X130369090Y-79362559D01*
X130156890Y-79217569D01*
X129905000Y-79166560D01*
X129405000Y-79166560D01*
X129169683Y-79210838D01*
X128953559Y-79349910D01*
X128905866Y-79419711D01*
X128869090Y-79362559D01*
X128656890Y-79217569D01*
X128405000Y-79166560D01*
X127905000Y-79166560D01*
X127669683Y-79210838D01*
X127453559Y-79349910D01*
X127308569Y-79562110D01*
X127257560Y-79814000D01*
X127257560Y-80286638D01*
X126269599Y-81274599D01*
X126104852Y-81521161D01*
X126047000Y-81812000D01*
X126047000Y-81993667D01*
X125989922Y-81855868D01*
X125881535Y-81693657D01*
X125706343Y-81518465D01*
X125544132Y-81410078D01*
X125315223Y-81315261D01*
X125123881Y-81277201D01*
X125071269Y-81272019D01*
X124926250Y-81127000D01*
X123952000Y-81127000D01*
X123952000Y-81147000D01*
X123698000Y-81147000D01*
X123698000Y-81127000D01*
X123678000Y-81127000D01*
X123678000Y-80873000D01*
X123698000Y-80873000D01*
X123698000Y-80023750D01*
X123952000Y-80023750D01*
X123952000Y-80873000D01*
X124926250Y-80873000D01*
X125085000Y-80714250D01*
X125085000Y-80373691D01*
X124988327Y-80140302D01*
X124809699Y-79961673D01*
X124576310Y-79865000D01*
X124110750Y-79865000D01*
X123952000Y-80023750D01*
X123698000Y-80023750D01*
X123539250Y-79865000D01*
X123073690Y-79865000D01*
X122885000Y-79943158D01*
X122885000Y-79872998D01*
X122726252Y-79872998D01*
X122885000Y-79714250D01*
X122885000Y-79373691D01*
X122788327Y-79140302D01*
X122609699Y-78961673D01*
X122376310Y-78865000D01*
X121285750Y-78865000D01*
X121127000Y-79023750D01*
X121127000Y-79873000D01*
X121147000Y-79873000D01*
X121147000Y-80127000D01*
X121127000Y-80127000D01*
X121127000Y-80976250D01*
X121285750Y-81135000D01*
X122376310Y-81135000D01*
X122565000Y-81056842D01*
X122565000Y-81127002D01*
X122723748Y-81127002D01*
X122585750Y-81265000D01*
X119350000Y-81265000D01*
X119226119Y-81277201D01*
X119034777Y-81315261D01*
X118805868Y-81410078D01*
X118643657Y-81518465D01*
X118468465Y-81693657D01*
X118360078Y-81855868D01*
X118265261Y-82084777D01*
X118227201Y-82276119D01*
X118215000Y-82400000D01*
X118215000Y-85900000D01*
X118227201Y-86023881D01*
X118265261Y-86215223D01*
X118360078Y-86444132D01*
X118468465Y-86606343D01*
X118643657Y-86781535D01*
X118805868Y-86889922D01*
X119034777Y-86984739D01*
X119226119Y-87022799D01*
X119350000Y-87035000D01*
X119813216Y-87035000D01*
X119792560Y-87137000D01*
X119792560Y-88197000D01*
X119830000Y-88395976D01*
X119830000Y-89024956D01*
X119814683Y-89027838D01*
X119598559Y-89166910D01*
X119453569Y-89379110D01*
X119402560Y-89631000D01*
X119402560Y-90131000D01*
X119424199Y-90246000D01*
X119305632Y-90246000D01*
X117714940Y-88655308D01*
X117714940Y-88613000D01*
X117670662Y-88377683D01*
X117531590Y-88161559D01*
X117319390Y-88016569D01*
X117067500Y-87965560D01*
X114067500Y-87965560D01*
X113832183Y-88009838D01*
X113616059Y-88148910D01*
X113471069Y-88361110D01*
X113420060Y-88613000D01*
X113420060Y-89613000D01*
X113464338Y-89848317D01*
X113603410Y-90064441D01*
X113815610Y-90209431D01*
X114067500Y-90260440D01*
X116109808Y-90260440D01*
X116717368Y-90868000D01*
X114638692Y-90868000D01*
X114531590Y-90701559D01*
X114319390Y-90556569D01*
X114067500Y-90505560D01*
X111067500Y-90505560D01*
X110832183Y-90549838D01*
X110710000Y-90628461D01*
X110710000Y-84127000D01*
X112871728Y-84127000D01*
X112710243Y-84515900D01*
X112709758Y-85071661D01*
X112921990Y-85585303D01*
X113314630Y-85978629D01*
X113827900Y-86191757D01*
X114383661Y-86192242D01*
X114897303Y-85980010D01*
X115290629Y-85587370D01*
X115503757Y-85074100D01*
X115504242Y-84518339D01*
X115342544Y-84127000D01*
X117700000Y-84127000D01*
X117746159Y-84118315D01*
X117788553Y-84091035D01*
X117816994Y-84049410D01*
X117827000Y-84000000D01*
X117827000Y-80285750D01*
X119115000Y-80285750D01*
X119115000Y-80626309D01*
X119211673Y-80859698D01*
X119390301Y-81038327D01*
X119623690Y-81135000D01*
X120714250Y-81135000D01*
X120873000Y-80976250D01*
X120873000Y-80127000D01*
X119273750Y-80127000D01*
X119115000Y-80285750D01*
X117827000Y-80285750D01*
X117827000Y-79373691D01*
X119115000Y-79373691D01*
X119115000Y-79714250D01*
X119273750Y-79873000D01*
X120873000Y-79873000D01*
X120873000Y-79023750D01*
X120714250Y-78865000D01*
X119623690Y-78865000D01*
X119390301Y-78961673D01*
X119211673Y-79140302D01*
X119115000Y-79373691D01*
X117827000Y-79373691D01*
X117827000Y-77710000D01*
X149973000Y-77710000D01*
X149973000Y-83765000D01*
G36*
X124006060Y-106503718D02*
X124006060Y-106549000D01*
X124050338Y-106784317D01*
X124189410Y-107000441D01*
X124401610Y-107145431D01*
X124653500Y-107196440D01*
X125796500Y-107196440D01*
X126031817Y-107152162D01*
X126137744Y-107084000D01*
X126746000Y-107084000D01*
X127046407Y-107024245D01*
X127104239Y-106985603D01*
X126273841Y-107816001D01*
X121186155Y-107816001D01*
X122409079Y-106593077D01*
X122579245Y-106338404D01*
X122639000Y-106037998D01*
X122639000Y-105136658D01*
X124006060Y-106503718D01*
X124006060Y-106503718D01*
G37*
X124006060Y-106503718D02*
X124006060Y-106549000D01*
X124050338Y-106784317D01*
X124189410Y-107000441D01*
X124401610Y-107145431D01*
X124653500Y-107196440D01*
X125796500Y-107196440D01*
X126031817Y-107152162D01*
X126137744Y-107084000D01*
X126746000Y-107084000D01*
X127046407Y-107024245D01*
X127104239Y-106985603D01*
X126273841Y-107816001D01*
X121186155Y-107816001D01*
X122409079Y-106593077D01*
X122579245Y-106338404D01*
X122639000Y-106037998D01*
X122639000Y-105136658D01*
X124006060Y-106503718D01*
G36*
X121069000Y-99217158D02*
X121069000Y-105712840D01*
X120165840Y-106616000D01*
X120081500Y-106616000D01*
X120081500Y-106580750D01*
X119922750Y-106422000D01*
X119002000Y-106422000D01*
X119002000Y-106442000D01*
X118748000Y-106442000D01*
X118748000Y-106422000D01*
X117827250Y-106422000D01*
X117668500Y-106580750D01*
X117668500Y-106616000D01*
X116239440Y-106616000D01*
X116239440Y-106551000D01*
X116195162Y-106315683D01*
X116056090Y-106099559D01*
X115843890Y-105954569D01*
X115592000Y-105903560D01*
X114066500Y-105903560D01*
X114066500Y-105694158D01*
X114449908Y-105310750D01*
X117668500Y-105310750D01*
X117668500Y-105405309D01*
X117765173Y-105638698D01*
X117786475Y-105660000D01*
X117765173Y-105681302D01*
X117668500Y-105914691D01*
X117668500Y-106009250D01*
X117827250Y-106168000D01*
X118748000Y-106168000D01*
X118748000Y-105152000D01*
X119002000Y-105152000D01*
X119002000Y-106168000D01*
X119922750Y-106168000D01*
X120081500Y-106009250D01*
X120081500Y-105914691D01*
X119984827Y-105681302D01*
X119963525Y-105660000D01*
X119984827Y-105638698D01*
X120081500Y-105405309D01*
X120081500Y-105310750D01*
X119922750Y-105152000D01*
X119002000Y-105152000D01*
X118748000Y-105152000D01*
X117827250Y-105152000D01*
X117668500Y-105310750D01*
X114449908Y-105310750D01*
X116122579Y-103638079D01*
X116214172Y-103501000D01*
X117656060Y-103501000D01*
X117656060Y-104009000D01*
X117700338Y-104244317D01*
X117791104Y-104385371D01*
X117765173Y-104411302D01*
X117668500Y-104644691D01*
X117668500Y-104739250D01*
X117827250Y-104898000D01*
X118748000Y-104898000D01*
X118748000Y-104878000D01*
X119002000Y-104878000D01*
X119002000Y-104898000D01*
X119922750Y-104898000D01*
X120081500Y-104739250D01*
X120081500Y-104644691D01*
X119984827Y-104411302D01*
X119958291Y-104384765D01*
X120042931Y-104260890D01*
X120093940Y-104009000D01*
X120093940Y-103501000D01*
X120049662Y-103265683D01*
X119958896Y-103124629D01*
X119984827Y-103098698D01*
X120081500Y-102865309D01*
X120081500Y-102770750D01*
X119922750Y-102612000D01*
X119002000Y-102612000D01*
X119002000Y-102632000D01*
X118748000Y-102632000D01*
X118748000Y-102612000D01*
X117827250Y-102612000D01*
X117668500Y-102770750D01*
X117668500Y-102865309D01*
X117765173Y-103098698D01*
X117791709Y-103125235D01*
X117707069Y-103249110D01*
X117656060Y-103501000D01*
X116214172Y-103501000D01*
X116292745Y-103383407D01*
X116352500Y-103083000D01*
X116352500Y-100420440D01*
X117067500Y-100420440D01*
X117302817Y-100376162D01*
X117518941Y-100237090D01*
X117663931Y-100024890D01*
X117668500Y-100002328D01*
X117668500Y-100072002D01*
X117827248Y-100072002D01*
X117668500Y-100230750D01*
X117668500Y-100325309D01*
X117765173Y-100558698D01*
X117791709Y-100585235D01*
X117707069Y-100709110D01*
X117656060Y-100961000D01*
X117656060Y-101469000D01*
X117700338Y-101704317D01*
X117791104Y-101845371D01*
X117765173Y-101871302D01*
X117668500Y-102104691D01*
X117668500Y-102199250D01*
X117827250Y-102358000D01*
X118748000Y-102358000D01*
X118748000Y-102338000D01*
X119002000Y-102338000D01*
X119002000Y-102358000D01*
X119922750Y-102358000D01*
X120081500Y-102199250D01*
X120081500Y-102104691D01*
X119984827Y-101871302D01*
X119958291Y-101844765D01*
X120042931Y-101720890D01*
X120093940Y-101469000D01*
X120093940Y-100961000D01*
X120049662Y-100725683D01*
X119958896Y-100584629D01*
X119984827Y-100558698D01*
X120081500Y-100325309D01*
X120081500Y-100230750D01*
X119922750Y-100072000D01*
X119002000Y-100072000D01*
X119002000Y-100092000D01*
X118748000Y-100092000D01*
X118748000Y-100072000D01*
X118728000Y-100072000D01*
X118728000Y-99818000D01*
X118748000Y-99818000D01*
X118748000Y-99798000D01*
X119002000Y-99798000D01*
X119002000Y-99818000D01*
X119922750Y-99818000D01*
X120081500Y-99659250D01*
X120081500Y-99564691D01*
X119984827Y-99331302D01*
X119958291Y-99304765D01*
X120042931Y-99180890D01*
X120093940Y-98929000D01*
X120093940Y-98421000D01*
X120052475Y-98200633D01*
X121069000Y-99217158D01*
X121069000Y-99217158D01*
G37*
X121069000Y-99217158D02*
X121069000Y-105712840D01*
X120165840Y-106616000D01*
X120081500Y-106616000D01*
X120081500Y-106580750D01*
X119922750Y-106422000D01*
X119002000Y-106422000D01*
X119002000Y-106442000D01*
X118748000Y-106442000D01*
X118748000Y-106422000D01*
X117827250Y-106422000D01*
X117668500Y-106580750D01*
X117668500Y-106616000D01*
X116239440Y-106616000D01*
X116239440Y-106551000D01*
X116195162Y-106315683D01*
X116056090Y-106099559D01*
X115843890Y-105954569D01*
X115592000Y-105903560D01*
X114066500Y-105903560D01*
X114066500Y-105694158D01*
X114449908Y-105310750D01*
X117668500Y-105310750D01*
X117668500Y-105405309D01*
X117765173Y-105638698D01*
X117786475Y-105660000D01*
X117765173Y-105681302D01*
X117668500Y-105914691D01*
X117668500Y-106009250D01*
X117827250Y-106168000D01*
X118748000Y-106168000D01*
X118748000Y-105152000D01*
X119002000Y-105152000D01*
X119002000Y-106168000D01*
X119922750Y-106168000D01*
X120081500Y-106009250D01*
X120081500Y-105914691D01*
X119984827Y-105681302D01*
X119963525Y-105660000D01*
X119984827Y-105638698D01*
X120081500Y-105405309D01*
X120081500Y-105310750D01*
X119922750Y-105152000D01*
X119002000Y-105152000D01*
X118748000Y-105152000D01*
X117827250Y-105152000D01*
X117668500Y-105310750D01*
X114449908Y-105310750D01*
X116122579Y-103638079D01*
X116214172Y-103501000D01*
X117656060Y-103501000D01*
X117656060Y-104009000D01*
X117700338Y-104244317D01*
X117791104Y-104385371D01*
X117765173Y-104411302D01*
X117668500Y-104644691D01*
X117668500Y-104739250D01*
X117827250Y-104898000D01*
X118748000Y-104898000D01*
X118748000Y-104878000D01*
X119002000Y-104878000D01*
X119002000Y-104898000D01*
X119922750Y-104898000D01*
X120081500Y-104739250D01*
X120081500Y-104644691D01*
X119984827Y-104411302D01*
X119958291Y-104384765D01*
X120042931Y-104260890D01*
X120093940Y-104009000D01*
X120093940Y-103501000D01*
X120049662Y-103265683D01*
X119958896Y-103124629D01*
X119984827Y-103098698D01*
X120081500Y-102865309D01*
X120081500Y-102770750D01*
X119922750Y-102612000D01*
X119002000Y-102612000D01*
X119002000Y-102632000D01*
X118748000Y-102632000D01*
X118748000Y-102612000D01*
X117827250Y-102612000D01*
X117668500Y-102770750D01*
X117668500Y-102865309D01*
X117765173Y-103098698D01*
X117791709Y-103125235D01*
X117707069Y-103249110D01*
X117656060Y-103501000D01*
X116214172Y-103501000D01*
X116292745Y-103383407D01*
X116352500Y-103083000D01*
X116352500Y-100420440D01*
X117067500Y-100420440D01*
X117302817Y-100376162D01*
X117518941Y-100237090D01*
X117663931Y-100024890D01*
X117668500Y-100002328D01*
X117668500Y-100072002D01*
X117827248Y-100072002D01*
X117668500Y-100230750D01*
X117668500Y-100325309D01*
X117765173Y-100558698D01*
X117791709Y-100585235D01*
X117707069Y-100709110D01*
X117656060Y-100961000D01*
X117656060Y-101469000D01*
X117700338Y-101704317D01*
X117791104Y-101845371D01*
X117765173Y-101871302D01*
X117668500Y-102104691D01*
X117668500Y-102199250D01*
X117827250Y-102358000D01*
X118748000Y-102358000D01*
X118748000Y-102338000D01*
X119002000Y-102338000D01*
X119002000Y-102358000D01*
X119922750Y-102358000D01*
X120081500Y-102199250D01*
X120081500Y-102104691D01*
X119984827Y-101871302D01*
X119958291Y-101844765D01*
X120042931Y-101720890D01*
X120093940Y-101469000D01*
X120093940Y-100961000D01*
X120049662Y-100725683D01*
X119958896Y-100584629D01*
X119984827Y-100558698D01*
X120081500Y-100325309D01*
X120081500Y-100230750D01*
X119922750Y-100072000D01*
X119002000Y-100072000D01*
X119002000Y-100092000D01*
X118748000Y-100092000D01*
X118748000Y-100072000D01*
X118728000Y-100072000D01*
X118728000Y-99818000D01*
X118748000Y-99818000D01*
X118748000Y-99798000D01*
X119002000Y-99798000D01*
X119002000Y-99818000D01*
X119922750Y-99818000D01*
X120081500Y-99659250D01*
X120081500Y-99564691D01*
X119984827Y-99331302D01*
X119958291Y-99304765D01*
X120042931Y-99180890D01*
X120093940Y-98929000D01*
X120093940Y-98421000D01*
X120052475Y-98200633D01*
X121069000Y-99217158D01*
G36*
X133265000Y-87675158D02*
X133265000Y-98024842D01*
X132574842Y-98715000D01*
X130621192Y-98715000D01*
X130599861Y-98681852D01*
X130685000Y-98476309D01*
X130685000Y-98135750D01*
X130526250Y-97977000D01*
X129427000Y-97977000D01*
X129427000Y-97997000D01*
X129173000Y-97997000D01*
X129173000Y-97977000D01*
X129153000Y-97977000D01*
X129153000Y-97723000D01*
X129173000Y-97723000D01*
X129173000Y-97703000D01*
X129427000Y-97703000D01*
X129427000Y-97723000D01*
X130526250Y-97723000D01*
X130685000Y-97564250D01*
X130685000Y-97223691D01*
X130600351Y-97019330D01*
X130609099Y-97006528D01*
X130660673Y-97058192D01*
X131004201Y-97200838D01*
X131376167Y-97201162D01*
X131719943Y-97059117D01*
X131983192Y-96796327D01*
X132125838Y-96452799D01*
X132126162Y-96080833D01*
X131984117Y-95737057D01*
X131721327Y-95473808D01*
X131377799Y-95331162D01*
X131005833Y-95330838D01*
X130802145Y-95415000D01*
X130621192Y-95415000D01*
X130579380Y-95350022D01*
X130646431Y-95251890D01*
X130697440Y-95000000D01*
X130697440Y-94000000D01*
X130653162Y-93764683D01*
X130514090Y-93548559D01*
X130301890Y-93403569D01*
X130050000Y-93352560D01*
X128807598Y-93352560D01*
X129012718Y-93147440D01*
X130050000Y-93147440D01*
X130285317Y-93103162D01*
X130501441Y-92964090D01*
X130646431Y-92751890D01*
X130697440Y-92500000D01*
X130697440Y-91500000D01*
X130653162Y-91264683D01*
X130514090Y-91048559D01*
X130301890Y-90903569D01*
X130050000Y-90852560D01*
X128550000Y-90852560D01*
X128314683Y-90896838D01*
X128098559Y-91035910D01*
X127953569Y-91248110D01*
X127902560Y-91500000D01*
X127902560Y-92037282D01*
X123235465Y-96704377D01*
X123100256Y-96906732D01*
X118678244Y-92484720D01*
X118835500Y-92516000D01*
X120500000Y-92516000D01*
X120504873Y-92515031D01*
X120764847Y-92775005D01*
X120764838Y-92785167D01*
X120906883Y-93128943D01*
X121169673Y-93392192D01*
X121513201Y-93534838D01*
X121885167Y-93535162D01*
X122228943Y-93393117D01*
X122492192Y-93130327D01*
X122634838Y-92786799D01*
X122635162Y-92414833D01*
X122586656Y-92297440D01*
X122875000Y-92297440D01*
X123110317Y-92253162D01*
X123326441Y-92114090D01*
X123471431Y-91901890D01*
X123522440Y-91650000D01*
X123522440Y-90850000D01*
X123478162Y-90614683D01*
X123411671Y-90511354D01*
X123413327Y-90509698D01*
X123510000Y-90276309D01*
X123510000Y-90035750D01*
X123351250Y-89877000D01*
X122627000Y-89877000D01*
X122627000Y-89897000D01*
X122373000Y-89897000D01*
X122373000Y-89877000D01*
X122353000Y-89877000D01*
X122353000Y-89623000D01*
X122373000Y-89623000D01*
X122373000Y-89603000D01*
X122627000Y-89603000D01*
X122627000Y-89623000D01*
X123351250Y-89623000D01*
X123430225Y-89544025D01*
X123616560Y-89730360D01*
X123616560Y-89900000D01*
X123660838Y-90135317D01*
X123799910Y-90351441D01*
X124012110Y-90496431D01*
X124264000Y-90547440D01*
X125164000Y-90547440D01*
X125399317Y-90503162D01*
X125615441Y-90364090D01*
X125760431Y-90151890D01*
X125811440Y-89900000D01*
X125811440Y-89400000D01*
X125767162Y-89164683D01*
X125661192Y-89000000D01*
X127902560Y-89000000D01*
X127902560Y-90000000D01*
X127946838Y-90235317D01*
X128085910Y-90451441D01*
X128298110Y-90596431D01*
X128550000Y-90647440D01*
X130050000Y-90647440D01*
X130285317Y-90603162D01*
X130501441Y-90464090D01*
X130646431Y-90251890D01*
X130697440Y-90000000D01*
X130697440Y-89000000D01*
X130653162Y-88764683D01*
X130514090Y-88548559D01*
X130301890Y-88403569D01*
X130050000Y-88352560D01*
X128550000Y-88352560D01*
X128314683Y-88396838D01*
X128098559Y-88535910D01*
X127953569Y-88748110D01*
X127902560Y-89000000D01*
X125661192Y-89000000D01*
X125628090Y-88948559D01*
X125558289Y-88900866D01*
X125615441Y-88864090D01*
X125760431Y-88651890D01*
X125811440Y-88400000D01*
X125811440Y-87900000D01*
X125767162Y-87664683D01*
X125628090Y-87448559D01*
X125611462Y-87437197D01*
X125660500Y-87318809D01*
X125660500Y-87078250D01*
X125501750Y-86919500D01*
X124777500Y-86919500D01*
X124777500Y-86939500D01*
X124523500Y-86939500D01*
X124523500Y-86919500D01*
X124503500Y-86919500D01*
X124503500Y-86665500D01*
X124523500Y-86665500D01*
X124523500Y-86645500D01*
X124777500Y-86645500D01*
X124777500Y-86665500D01*
X125501750Y-86665500D01*
X125660500Y-86506750D01*
X125660500Y-86266191D01*
X125563827Y-86032802D01*
X125562457Y-86031432D01*
X125621931Y-85944390D01*
X125672940Y-85692500D01*
X125672940Y-84892500D01*
X125628662Y-84657183D01*
X125550478Y-84535682D01*
X125706343Y-84431535D01*
X125881535Y-84256343D01*
X125989922Y-84094132D01*
X126084739Y-83865223D01*
X126100696Y-83785000D01*
X129374842Y-83785000D01*
X133265000Y-87675158D01*
X133265000Y-87675158D01*
G37*
X133265000Y-87675158D02*
X133265000Y-98024842D01*
X132574842Y-98715000D01*
X130621192Y-98715000D01*
X130599861Y-98681852D01*
X130685000Y-98476309D01*
X130685000Y-98135750D01*
X130526250Y-97977000D01*
X129427000Y-97977000D01*
X129427000Y-97997000D01*
X129173000Y-97997000D01*
X129173000Y-97977000D01*
X129153000Y-97977000D01*
X129153000Y-97723000D01*
X129173000Y-97723000D01*
X129173000Y-97703000D01*
X129427000Y-97703000D01*
X129427000Y-97723000D01*
X130526250Y-97723000D01*
X130685000Y-97564250D01*
X130685000Y-97223691D01*
X130600351Y-97019330D01*
X130609099Y-97006528D01*
X130660673Y-97058192D01*
X131004201Y-97200838D01*
X131376167Y-97201162D01*
X131719943Y-97059117D01*
X131983192Y-96796327D01*
X132125838Y-96452799D01*
X132126162Y-96080833D01*
X131984117Y-95737057D01*
X131721327Y-95473808D01*
X131377799Y-95331162D01*
X131005833Y-95330838D01*
X130802145Y-95415000D01*
X130621192Y-95415000D01*
X130579380Y-95350022D01*
X130646431Y-95251890D01*
X130697440Y-95000000D01*
X130697440Y-94000000D01*
X130653162Y-93764683D01*
X130514090Y-93548559D01*
X130301890Y-93403569D01*
X130050000Y-93352560D01*
X128807598Y-93352560D01*
X129012718Y-93147440D01*
X130050000Y-93147440D01*
X130285317Y-93103162D01*
X130501441Y-92964090D01*
X130646431Y-92751890D01*
X130697440Y-92500000D01*
X130697440Y-91500000D01*
X130653162Y-91264683D01*
X130514090Y-91048559D01*
X130301890Y-90903569D01*
X130050000Y-90852560D01*
X128550000Y-90852560D01*
X128314683Y-90896838D01*
X128098559Y-91035910D01*
X127953569Y-91248110D01*
X127902560Y-91500000D01*
X127902560Y-92037282D01*
X123235465Y-96704377D01*
X123100256Y-96906732D01*
X118678244Y-92484720D01*
X118835500Y-92516000D01*
X120500000Y-92516000D01*
X120504873Y-92515031D01*
X120764847Y-92775005D01*
X120764838Y-92785167D01*
X120906883Y-93128943D01*
X121169673Y-93392192D01*
X121513201Y-93534838D01*
X121885167Y-93535162D01*
X122228943Y-93393117D01*
X122492192Y-93130327D01*
X122634838Y-92786799D01*
X122635162Y-92414833D01*
X122586656Y-92297440D01*
X122875000Y-92297440D01*
X123110317Y-92253162D01*
X123326441Y-92114090D01*
X123471431Y-91901890D01*
X123522440Y-91650000D01*
X123522440Y-90850000D01*
X123478162Y-90614683D01*
X123411671Y-90511354D01*
X123413327Y-90509698D01*
X123510000Y-90276309D01*
X123510000Y-90035750D01*
X123351250Y-89877000D01*
X122627000Y-89877000D01*
X122627000Y-89897000D01*
X122373000Y-89897000D01*
X122373000Y-89877000D01*
X122353000Y-89877000D01*
X122353000Y-89623000D01*
X122373000Y-89623000D01*
X122373000Y-89603000D01*
X122627000Y-89603000D01*
X122627000Y-89623000D01*
X123351250Y-89623000D01*
X123430225Y-89544025D01*
X123616560Y-89730360D01*
X123616560Y-89900000D01*
X123660838Y-90135317D01*
X123799910Y-90351441D01*
X124012110Y-90496431D01*
X124264000Y-90547440D01*
X125164000Y-90547440D01*
X125399317Y-90503162D01*
X125615441Y-90364090D01*
X125760431Y-90151890D01*
X125811440Y-89900000D01*
X125811440Y-89400000D01*
X125767162Y-89164683D01*
X125661192Y-89000000D01*
X127902560Y-89000000D01*
X127902560Y-90000000D01*
X127946838Y-90235317D01*
X128085910Y-90451441D01*
X128298110Y-90596431D01*
X128550000Y-90647440D01*
X130050000Y-90647440D01*
X130285317Y-90603162D01*
X130501441Y-90464090D01*
X130646431Y-90251890D01*
X130697440Y-90000000D01*
X130697440Y-89000000D01*
X130653162Y-88764683D01*
X130514090Y-88548559D01*
X130301890Y-88403569D01*
X130050000Y-88352560D01*
X128550000Y-88352560D01*
X128314683Y-88396838D01*
X128098559Y-88535910D01*
X127953569Y-88748110D01*
X127902560Y-89000000D01*
X125661192Y-89000000D01*
X125628090Y-88948559D01*
X125558289Y-88900866D01*
X125615441Y-88864090D01*
X125760431Y-88651890D01*
X125811440Y-88400000D01*
X125811440Y-87900000D01*
X125767162Y-87664683D01*
X125628090Y-87448559D01*
X125611462Y-87437197D01*
X125660500Y-87318809D01*
X125660500Y-87078250D01*
X125501750Y-86919500D01*
X124777500Y-86919500D01*
X124777500Y-86939500D01*
X124523500Y-86939500D01*
X124523500Y-86919500D01*
X124503500Y-86919500D01*
X124503500Y-86665500D01*
X124523500Y-86665500D01*
X124523500Y-86645500D01*
X124777500Y-86645500D01*
X124777500Y-86665500D01*
X125501750Y-86665500D01*
X125660500Y-86506750D01*
X125660500Y-86266191D01*
X125563827Y-86032802D01*
X125562457Y-86031432D01*
X125621931Y-85944390D01*
X125672940Y-85692500D01*
X125672940Y-84892500D01*
X125628662Y-84657183D01*
X125550478Y-84535682D01*
X125706343Y-84431535D01*
X125881535Y-84256343D01*
X125989922Y-84094132D01*
X126084739Y-83865223D01*
X126100696Y-83785000D01*
X129374842Y-83785000D01*
X133265000Y-87675158D01*
G36*
X127953569Y-95448110D02*
X127902560Y-95700000D01*
X127902560Y-96700000D01*
X127946838Y-96935317D01*
X128000139Y-97018148D01*
X127997134Y-97025402D01*
X127851310Y-96965000D01*
X127635750Y-96965000D01*
X127477000Y-97123750D01*
X127477000Y-97873000D01*
X127497000Y-97873000D01*
X127497000Y-98127000D01*
X127477000Y-98127000D01*
X127477000Y-98147000D01*
X127223000Y-98147000D01*
X127223000Y-98127000D01*
X127211000Y-98127000D01*
X127211000Y-97873000D01*
X127223000Y-97873000D01*
X127223000Y-97123750D01*
X127211000Y-97111750D01*
X127211000Y-96169158D01*
X127999996Y-95380162D01*
X127953569Y-95448110D01*
X127953569Y-95448110D01*
G37*
X127953569Y-95448110D02*
X127902560Y-95700000D01*
X127902560Y-96700000D01*
X127946838Y-96935317D01*
X128000139Y-97018148D01*
X127997134Y-97025402D01*
X127851310Y-96965000D01*
X127635750Y-96965000D01*
X127477000Y-97123750D01*
X127477000Y-97873000D01*
X127497000Y-97873000D01*
X127497000Y-98127000D01*
X127477000Y-98127000D01*
X127477000Y-98147000D01*
X127223000Y-98147000D01*
X127223000Y-98127000D01*
X127211000Y-98127000D01*
X127211000Y-97873000D01*
X127223000Y-97873000D01*
X127223000Y-97123750D01*
X127211000Y-97111750D01*
X127211000Y-96169158D01*
X127999996Y-95380162D01*
X127953569Y-95448110D01*
G36*
X122948110Y-82096431D02*
X123200000Y-82147440D01*
X124450000Y-82147440D01*
X124685317Y-82103162D01*
X124803676Y-82027000D01*
X124987491Y-82027000D01*
X125141790Y-82057692D01*
X125261991Y-82138009D01*
X125342308Y-82258210D01*
X125373000Y-82412509D01*
X125373000Y-83537491D01*
X125342308Y-83691790D01*
X125261991Y-83811991D01*
X125141790Y-83892308D01*
X124987491Y-83923000D01*
X121900000Y-83923000D01*
X121875224Y-83925440D01*
X121683882Y-83963500D01*
X121638100Y-83982464D01*
X121475889Y-84090851D01*
X121440851Y-84125889D01*
X121332464Y-84288100D01*
X121313500Y-84333882D01*
X121275440Y-84525224D01*
X121273000Y-84550000D01*
X121273000Y-85887491D01*
X121242308Y-86041790D01*
X121235486Y-86051999D01*
X120840001Y-86051999D01*
X120597415Y-86100253D01*
X120549161Y-86109851D01*
X120304992Y-86273000D01*
X119362509Y-86273000D01*
X119208210Y-86242308D01*
X119088009Y-86161991D01*
X119007692Y-86041790D01*
X118977000Y-85887491D01*
X118977000Y-82412509D01*
X119007692Y-82258210D01*
X119088009Y-82138009D01*
X119208210Y-82057692D01*
X119362509Y-82027000D01*
X122846494Y-82027000D01*
X122948110Y-82096431D01*
X122948110Y-82096431D01*
G37*
X122948110Y-82096431D02*
X123200000Y-82147440D01*
X124450000Y-82147440D01*
X124685317Y-82103162D01*
X124803676Y-82027000D01*
X124987491Y-82027000D01*
X125141790Y-82057692D01*
X125261991Y-82138009D01*
X125342308Y-82258210D01*
X125373000Y-82412509D01*
X125373000Y-83537491D01*
X125342308Y-83691790D01*
X125261991Y-83811991D01*
X125141790Y-83892308D01*
X124987491Y-83923000D01*
X121900000Y-83923000D01*
X121875224Y-83925440D01*
X121683882Y-83963500D01*
X121638100Y-83982464D01*
X121475889Y-84090851D01*
X121440851Y-84125889D01*
X121332464Y-84288100D01*
X121313500Y-84333882D01*
X121275440Y-84525224D01*
X121273000Y-84550000D01*
X121273000Y-85887491D01*
X121242308Y-86041790D01*
X121235486Y-86051999D01*
X120840001Y-86051999D01*
X120597415Y-86100253D01*
X120549161Y-86109851D01*
X120304992Y-86273000D01*
X119362509Y-86273000D01*
X119208210Y-86242308D01*
X119088009Y-86161991D01*
X119007692Y-86041790D01*
X118977000Y-85887491D01*
X118977000Y-82412509D01*
X119007692Y-82258210D01*
X119088009Y-82138009D01*
X119208210Y-82057692D01*
X119362509Y-82027000D01*
X122846494Y-82027000D01*
X122948110Y-82096431D01*
M02*
