G04 #@! TF.FileFunction,Legend,Top*
%FSLAX46Y46*%
G04 Gerber Fmt 4.6, Leading zero omitted, Abs format (unit mm)*
G04 Created by KiCad (PCBNEW 4.0.5) date 04/10/17 16:46:25*
%MOMM*%
%LPD*%
G01*
G04 APERTURE LIST*
%ADD10C,0.100000*%
%ADD11C,0.120000*%
%ADD12C,0.080000*%
%ADD13C,0.150000*%
G04 APERTURE END LIST*
D10*
X110840857Y-107053786D02*
X111305143Y-107053786D01*
X111055143Y-107339500D01*
X111162285Y-107339500D01*
X111233714Y-107375214D01*
X111269428Y-107410929D01*
X111305143Y-107482357D01*
X111305143Y-107660929D01*
X111269428Y-107732357D01*
X111233714Y-107768071D01*
X111162285Y-107803786D01*
X110948000Y-107803786D01*
X110876571Y-107768071D01*
X110840857Y-107732357D01*
X111626571Y-107732357D02*
X111662286Y-107768071D01*
X111626571Y-107803786D01*
X111590857Y-107768071D01*
X111626571Y-107732357D01*
X111626571Y-107803786D01*
X111912286Y-107053786D02*
X112376572Y-107053786D01*
X112126572Y-107339500D01*
X112233714Y-107339500D01*
X112305143Y-107375214D01*
X112340857Y-107410929D01*
X112376572Y-107482357D01*
X112376572Y-107660929D01*
X112340857Y-107732357D01*
X112305143Y-107768071D01*
X112233714Y-107803786D01*
X112019429Y-107803786D01*
X111948000Y-107768071D01*
X111912286Y-107732357D01*
X112590858Y-107053786D02*
X112840858Y-107803786D01*
X113090858Y-107053786D01*
X112249643Y-110272357D02*
X112213929Y-110308071D01*
X112106786Y-110343786D01*
X112035357Y-110343786D01*
X111928214Y-110308071D01*
X111856786Y-110236643D01*
X111821071Y-110165214D01*
X111785357Y-110022357D01*
X111785357Y-109915214D01*
X111821071Y-109772357D01*
X111856786Y-109700929D01*
X111928214Y-109629500D01*
X112035357Y-109593786D01*
X112106786Y-109593786D01*
X112213929Y-109629500D01*
X112249643Y-109665214D01*
X112571071Y-110343786D02*
X112571071Y-109593786D01*
X112749643Y-109593786D01*
X112856786Y-109629500D01*
X112928214Y-109700929D01*
X112963929Y-109772357D01*
X112999643Y-109915214D01*
X112999643Y-110022357D01*
X112963929Y-110165214D01*
X112928214Y-110236643D01*
X112856786Y-110308071D01*
X112749643Y-110343786D01*
X112571071Y-110343786D01*
X110932072Y-100168000D02*
X110860643Y-100132286D01*
X110753500Y-100132286D01*
X110646357Y-100168000D01*
X110574929Y-100239429D01*
X110539214Y-100310857D01*
X110503500Y-100453714D01*
X110503500Y-100560857D01*
X110539214Y-100703714D01*
X110574929Y-100775143D01*
X110646357Y-100846571D01*
X110753500Y-100882286D01*
X110824929Y-100882286D01*
X110932072Y-100846571D01*
X110967786Y-100810857D01*
X110967786Y-100560857D01*
X110824929Y-100560857D01*
X111289214Y-100882286D02*
X111289214Y-100132286D01*
X111717786Y-100882286D01*
X111717786Y-100132286D01*
X112074928Y-100882286D02*
X112074928Y-100132286D01*
X112253500Y-100132286D01*
X112360643Y-100168000D01*
X112432071Y-100239429D01*
X112467786Y-100310857D01*
X112503500Y-100453714D01*
X112503500Y-100560857D01*
X112467786Y-100703714D01*
X112432071Y-100775143D01*
X112360643Y-100846571D01*
X112253500Y-100882286D01*
X112074928Y-100882286D01*
X115740214Y-98342286D02*
X115740214Y-97592286D01*
X115918786Y-97592286D01*
X116025929Y-97628000D01*
X116097357Y-97699429D01*
X116133072Y-97770857D01*
X116168786Y-97913714D01*
X116168786Y-98020857D01*
X116133072Y-98163714D01*
X116097357Y-98235143D01*
X116025929Y-98306571D01*
X115918786Y-98342286D01*
X115740214Y-98342286D01*
X116633072Y-97592286D02*
X116775929Y-97592286D01*
X116847357Y-97628000D01*
X116918786Y-97699429D01*
X116954500Y-97842286D01*
X116954500Y-98092286D01*
X116918786Y-98235143D01*
X116847357Y-98306571D01*
X116775929Y-98342286D01*
X116633072Y-98342286D01*
X116561643Y-98306571D01*
X116490214Y-98235143D01*
X116454500Y-98092286D01*
X116454500Y-97842286D01*
X116490214Y-97699429D01*
X116561643Y-97628000D01*
X116633072Y-97592286D01*
X111184072Y-95730857D02*
X111148358Y-95766571D01*
X111041215Y-95802286D01*
X110969786Y-95802286D01*
X110862643Y-95766571D01*
X110791215Y-95695143D01*
X110755500Y-95623714D01*
X110719786Y-95480857D01*
X110719786Y-95373714D01*
X110755500Y-95230857D01*
X110791215Y-95159429D01*
X110862643Y-95088000D01*
X110969786Y-95052286D01*
X111041215Y-95052286D01*
X111148358Y-95088000D01*
X111184072Y-95123714D01*
X111862643Y-95802286D02*
X111505500Y-95802286D01*
X111505500Y-95052286D01*
X112112643Y-95802286D02*
X112112643Y-95052286D01*
X112541215Y-95802286D02*
X112219786Y-95373714D01*
X112541215Y-95052286D02*
X112112643Y-95480857D01*
X115954500Y-93262286D02*
X115954500Y-92512286D01*
X116133072Y-92512286D01*
X116240215Y-92548000D01*
X116311643Y-92619429D01*
X116347358Y-92690857D01*
X116383072Y-92833714D01*
X116383072Y-92940857D01*
X116347358Y-93083714D01*
X116311643Y-93155143D01*
X116240215Y-93226571D01*
X116133072Y-93262286D01*
X115954500Y-93262286D01*
X116704500Y-93262286D02*
X116704500Y-92512286D01*
X111505500Y-90650857D02*
X111469786Y-90686571D01*
X111362643Y-90722286D01*
X111291214Y-90722286D01*
X111184071Y-90686571D01*
X111112643Y-90615143D01*
X111076928Y-90543714D01*
X111041214Y-90400857D01*
X111041214Y-90293714D01*
X111076928Y-90150857D01*
X111112643Y-90079429D01*
X111184071Y-90008000D01*
X111291214Y-89972286D01*
X111362643Y-89972286D01*
X111469786Y-90008000D01*
X111505500Y-90043714D01*
X111791214Y-90686571D02*
X111898357Y-90722286D01*
X112076928Y-90722286D01*
X112148357Y-90686571D01*
X112184071Y-90650857D01*
X112219786Y-90579429D01*
X112219786Y-90508000D01*
X112184071Y-90436571D01*
X112148357Y-90400857D01*
X112076928Y-90365143D01*
X111934071Y-90329429D01*
X111862643Y-90293714D01*
X111826928Y-90258000D01*
X111791214Y-90186571D01*
X111791214Y-90115143D01*
X111826928Y-90043714D01*
X111862643Y-90008000D01*
X111934071Y-89972286D01*
X112112643Y-89972286D01*
X112219786Y-90008000D01*
X116186643Y-87305286D02*
X115829500Y-87305286D01*
X115793786Y-87662429D01*
X115829500Y-87626714D01*
X115900929Y-87591000D01*
X116079500Y-87591000D01*
X116150929Y-87626714D01*
X116186643Y-87662429D01*
X116222358Y-87733857D01*
X116222358Y-87912429D01*
X116186643Y-87983857D01*
X116150929Y-88019571D01*
X116079500Y-88055286D01*
X115900929Y-88055286D01*
X115829500Y-88019571D01*
X115793786Y-87983857D01*
X116436644Y-87305286D02*
X116686644Y-88055286D01*
X116936644Y-87305286D01*
X142842571Y-102311857D02*
X142878286Y-102204714D01*
X142878286Y-102026143D01*
X142842571Y-101954714D01*
X142806857Y-101919000D01*
X142735429Y-101883285D01*
X142664000Y-101883285D01*
X142592571Y-101919000D01*
X142556857Y-101954714D01*
X142521143Y-102026143D01*
X142485429Y-102169000D01*
X142449714Y-102240428D01*
X142414000Y-102276143D01*
X142342571Y-102311857D01*
X142271143Y-102311857D01*
X142199714Y-102276143D01*
X142164000Y-102240428D01*
X142128286Y-102169000D01*
X142128286Y-101990428D01*
X142164000Y-101883285D01*
X142878286Y-101561857D02*
X142128286Y-101561857D01*
X142128286Y-101383285D01*
X142164000Y-101276142D01*
X142235429Y-101204714D01*
X142306857Y-101168999D01*
X142449714Y-101133285D01*
X142556857Y-101133285D01*
X142699714Y-101168999D01*
X142771143Y-101204714D01*
X142842571Y-101276142D01*
X142878286Y-101383285D01*
X142878286Y-101561857D01*
X142806857Y-99811856D02*
X142842571Y-99847570D01*
X142878286Y-99954713D01*
X142878286Y-100026142D01*
X142842571Y-100133285D01*
X142771143Y-100204713D01*
X142699714Y-100240428D01*
X142556857Y-100276142D01*
X142449714Y-100276142D01*
X142306857Y-100240428D01*
X142235429Y-100204713D01*
X142164000Y-100133285D01*
X142128286Y-100026142D01*
X142128286Y-99954713D01*
X142164000Y-99847570D01*
X142199714Y-99811856D01*
X142878286Y-99168999D02*
X142485429Y-99168999D01*
X142414000Y-99204713D01*
X142378286Y-99276142D01*
X142378286Y-99418999D01*
X142414000Y-99490428D01*
X142842571Y-99168999D02*
X142878286Y-99240428D01*
X142878286Y-99418999D01*
X142842571Y-99490428D01*
X142771143Y-99526142D01*
X142699714Y-99526142D01*
X142628286Y-99490428D01*
X142592571Y-99418999D01*
X142592571Y-99240428D01*
X142556857Y-99168999D01*
X142878286Y-98811857D02*
X142378286Y-98811857D01*
X142521143Y-98811857D02*
X142449714Y-98776142D01*
X142414000Y-98740428D01*
X142378286Y-98668999D01*
X142378286Y-98597571D01*
X142878286Y-98026142D02*
X142128286Y-98026142D01*
X142842571Y-98026142D02*
X142878286Y-98097571D01*
X142878286Y-98240428D01*
X142842571Y-98311856D01*
X142806857Y-98347571D01*
X142735429Y-98383285D01*
X142521143Y-98383285D01*
X142449714Y-98347571D01*
X142414000Y-98311856D01*
X142378286Y-98240428D01*
X142378286Y-98097571D01*
X142414000Y-98026142D01*
X142878286Y-97097571D02*
X142128286Y-97097571D01*
X142485429Y-97097571D02*
X142485429Y-96668999D01*
X142878286Y-96668999D02*
X142128286Y-96668999D01*
X142878286Y-96204714D02*
X142842571Y-96276142D01*
X142806857Y-96311857D01*
X142735429Y-96347571D01*
X142521143Y-96347571D01*
X142449714Y-96311857D01*
X142414000Y-96276142D01*
X142378286Y-96204714D01*
X142378286Y-96097571D01*
X142414000Y-96026142D01*
X142449714Y-95990428D01*
X142521143Y-95954714D01*
X142735429Y-95954714D01*
X142806857Y-95990428D01*
X142842571Y-96026142D01*
X142878286Y-96097571D01*
X142878286Y-96204714D01*
X142878286Y-95526143D02*
X142842571Y-95597571D01*
X142771143Y-95633286D01*
X142128286Y-95633286D01*
X142878286Y-94919000D02*
X142128286Y-94919000D01*
X142842571Y-94919000D02*
X142878286Y-94990429D01*
X142878286Y-95133286D01*
X142842571Y-95204714D01*
X142806857Y-95240429D01*
X142735429Y-95276143D01*
X142521143Y-95276143D01*
X142449714Y-95240429D01*
X142414000Y-95204714D01*
X142378286Y-95133286D01*
X142378286Y-94990429D01*
X142414000Y-94919000D01*
X142842571Y-94276143D02*
X142878286Y-94347572D01*
X142878286Y-94490429D01*
X142842571Y-94561858D01*
X142771143Y-94597572D01*
X142485429Y-94597572D01*
X142414000Y-94561858D01*
X142378286Y-94490429D01*
X142378286Y-94347572D01*
X142414000Y-94276143D01*
X142485429Y-94240429D01*
X142556857Y-94240429D01*
X142628286Y-94597572D01*
X142878286Y-93919001D02*
X142378286Y-93919001D01*
X142521143Y-93919001D02*
X142449714Y-93883286D01*
X142414000Y-93847572D01*
X142378286Y-93776143D01*
X142378286Y-93704715D01*
X144103286Y-101615428D02*
X143353286Y-101615428D01*
X143353286Y-101329713D01*
X143389000Y-101258285D01*
X143424714Y-101222570D01*
X143496143Y-101186856D01*
X143603286Y-101186856D01*
X143674714Y-101222570D01*
X143710429Y-101258285D01*
X143746143Y-101329713D01*
X143746143Y-101615428D01*
X143603286Y-100543999D02*
X144103286Y-100543999D01*
X143603286Y-100865428D02*
X143996143Y-100865428D01*
X144067571Y-100829713D01*
X144103286Y-100758285D01*
X144103286Y-100651142D01*
X144067571Y-100579713D01*
X144031857Y-100543999D01*
X144067571Y-100222571D02*
X144103286Y-100151142D01*
X144103286Y-100008285D01*
X144067571Y-99936857D01*
X143996143Y-99901142D01*
X143960429Y-99901142D01*
X143889000Y-99936857D01*
X143853286Y-100008285D01*
X143853286Y-100115428D01*
X143817571Y-100186857D01*
X143746143Y-100222571D01*
X143710429Y-100222571D01*
X143639000Y-100186857D01*
X143603286Y-100115428D01*
X143603286Y-100008285D01*
X143639000Y-99936857D01*
X144103286Y-99579714D02*
X143353286Y-99579714D01*
X144103286Y-99258285D02*
X143710429Y-99258285D01*
X143639000Y-99293999D01*
X143603286Y-99365428D01*
X143603286Y-99472571D01*
X143639000Y-99543999D01*
X143674714Y-99579714D01*
X144103286Y-97722571D02*
X144103286Y-97758285D01*
X144067571Y-97829714D01*
X143960429Y-97936856D01*
X143746143Y-98115428D01*
X143639000Y-98186856D01*
X143531857Y-98222571D01*
X143460429Y-98222571D01*
X143389000Y-98186856D01*
X143353286Y-98115428D01*
X143353286Y-98079714D01*
X143389000Y-98008285D01*
X143460429Y-97972571D01*
X143496143Y-97972571D01*
X143567571Y-98008285D01*
X143603286Y-98043999D01*
X143746143Y-98258285D01*
X143781857Y-98293999D01*
X143853286Y-98329714D01*
X143960429Y-98329714D01*
X144031857Y-98293999D01*
X144067571Y-98258285D01*
X144103286Y-98186856D01*
X144103286Y-98079714D01*
X144067571Y-98008285D01*
X144031857Y-97972571D01*
X143889000Y-97865428D01*
X143781857Y-97829714D01*
X143710429Y-97829714D01*
X144103286Y-96829714D02*
X143353286Y-96829714D01*
X143353286Y-96543999D01*
X143389000Y-96472571D01*
X143424714Y-96436856D01*
X143496143Y-96401142D01*
X143603286Y-96401142D01*
X143674714Y-96436856D01*
X143710429Y-96472571D01*
X143746143Y-96543999D01*
X143746143Y-96829714D01*
X143603286Y-95758285D02*
X144103286Y-95758285D01*
X143603286Y-96079714D02*
X143996143Y-96079714D01*
X144067571Y-96043999D01*
X144103286Y-95972571D01*
X144103286Y-95865428D01*
X144067571Y-95793999D01*
X144031857Y-95758285D01*
X144067571Y-95436857D02*
X144103286Y-95365428D01*
X144103286Y-95222571D01*
X144067571Y-95151143D01*
X143996143Y-95115428D01*
X143960429Y-95115428D01*
X143889000Y-95151143D01*
X143853286Y-95222571D01*
X143853286Y-95329714D01*
X143817571Y-95401143D01*
X143746143Y-95436857D01*
X143710429Y-95436857D01*
X143639000Y-95401143D01*
X143603286Y-95329714D01*
X143603286Y-95222571D01*
X143639000Y-95151143D01*
X144103286Y-94794000D02*
X143353286Y-94794000D01*
X144103286Y-94472571D02*
X143710429Y-94472571D01*
X143639000Y-94508285D01*
X143603286Y-94579714D01*
X143603286Y-94686857D01*
X143639000Y-94758285D01*
X143674714Y-94794000D01*
X145256857Y-101633284D02*
X145292571Y-101668998D01*
X145328286Y-101776141D01*
X145328286Y-101847570D01*
X145292571Y-101954713D01*
X145221143Y-102026141D01*
X145149714Y-102061856D01*
X145006857Y-102097570D01*
X144899714Y-102097570D01*
X144756857Y-102061856D01*
X144685429Y-102026141D01*
X144614000Y-101954713D01*
X144578286Y-101847570D01*
X144578286Y-101776141D01*
X144614000Y-101668998D01*
X144649714Y-101633284D01*
X145328286Y-100990427D02*
X144935429Y-100990427D01*
X144864000Y-101026141D01*
X144828286Y-101097570D01*
X144828286Y-101240427D01*
X144864000Y-101311856D01*
X145292571Y-100990427D02*
X145328286Y-101061856D01*
X145328286Y-101240427D01*
X145292571Y-101311856D01*
X145221143Y-101347570D01*
X145149714Y-101347570D01*
X145078286Y-101311856D01*
X145042571Y-101240427D01*
X145042571Y-101061856D01*
X145006857Y-100990427D01*
X145328286Y-100633285D02*
X144828286Y-100633285D01*
X144971143Y-100633285D02*
X144899714Y-100597570D01*
X144864000Y-100561856D01*
X144828286Y-100490427D01*
X144828286Y-100418999D01*
X145328286Y-99847570D02*
X144578286Y-99847570D01*
X145292571Y-99847570D02*
X145328286Y-99918999D01*
X145328286Y-100061856D01*
X145292571Y-100133284D01*
X145256857Y-100168999D01*
X145185429Y-100204713D01*
X144971143Y-100204713D01*
X144899714Y-100168999D01*
X144864000Y-100133284D01*
X144828286Y-100061856D01*
X144828286Y-99918999D01*
X144864000Y-99847570D01*
X145328286Y-98918999D02*
X144578286Y-98918999D01*
X144578286Y-98740427D01*
X144614000Y-98633284D01*
X144685429Y-98561856D01*
X144756857Y-98526141D01*
X144899714Y-98490427D01*
X145006857Y-98490427D01*
X145149714Y-98526141D01*
X145221143Y-98561856D01*
X145292571Y-98633284D01*
X145328286Y-98740427D01*
X145328286Y-98918999D01*
X145292571Y-97883284D02*
X145328286Y-97954713D01*
X145328286Y-98097570D01*
X145292571Y-98168999D01*
X145221143Y-98204713D01*
X144935429Y-98204713D01*
X144864000Y-98168999D01*
X144828286Y-98097570D01*
X144828286Y-97954713D01*
X144864000Y-97883284D01*
X144935429Y-97847570D01*
X145006857Y-97847570D01*
X145078286Y-98204713D01*
X144828286Y-97633284D02*
X144828286Y-97347570D01*
X144578286Y-97526142D02*
X145221143Y-97526142D01*
X145292571Y-97490427D01*
X145328286Y-97418999D01*
X145328286Y-97347570D01*
X145292571Y-96811856D02*
X145328286Y-96883285D01*
X145328286Y-97026142D01*
X145292571Y-97097571D01*
X145221143Y-97133285D01*
X144935429Y-97133285D01*
X144864000Y-97097571D01*
X144828286Y-97026142D01*
X144828286Y-96883285D01*
X144864000Y-96811856D01*
X144935429Y-96776142D01*
X145006857Y-96776142D01*
X145078286Y-97133285D01*
X145292571Y-96133285D02*
X145328286Y-96204714D01*
X145328286Y-96347571D01*
X145292571Y-96418999D01*
X145256857Y-96454714D01*
X145185429Y-96490428D01*
X144971143Y-96490428D01*
X144899714Y-96454714D01*
X144864000Y-96418999D01*
X144828286Y-96347571D01*
X144828286Y-96204714D01*
X144864000Y-96133285D01*
X144828286Y-95918999D02*
X144828286Y-95633285D01*
X144578286Y-95811857D02*
X145221143Y-95811857D01*
X145292571Y-95776142D01*
X145328286Y-95704714D01*
X145328286Y-95633285D01*
X145328286Y-95383286D02*
X144828286Y-95383286D01*
X144578286Y-95383286D02*
X144614000Y-95419000D01*
X144649714Y-95383286D01*
X144614000Y-95347571D01*
X144578286Y-95383286D01*
X144649714Y-95383286D01*
X145328286Y-94919000D02*
X145292571Y-94990428D01*
X145256857Y-95026143D01*
X145185429Y-95061857D01*
X144971143Y-95061857D01*
X144899714Y-95026143D01*
X144864000Y-94990428D01*
X144828286Y-94919000D01*
X144828286Y-94811857D01*
X144864000Y-94740428D01*
X144899714Y-94704714D01*
X144971143Y-94669000D01*
X145185429Y-94669000D01*
X145256857Y-94704714D01*
X145292571Y-94740428D01*
X145328286Y-94811857D01*
X145328286Y-94919000D01*
X144828286Y-94347572D02*
X145328286Y-94347572D01*
X144899714Y-94347572D02*
X144864000Y-94311857D01*
X144828286Y-94240429D01*
X144828286Y-94133286D01*
X144864000Y-94061857D01*
X144935429Y-94026143D01*
X145328286Y-94026143D01*
X134866786Y-82887000D02*
X134866786Y-82422714D01*
X135152500Y-82672714D01*
X135152500Y-82565572D01*
X135188214Y-82494143D01*
X135223929Y-82458429D01*
X135295357Y-82422714D01*
X135473929Y-82422714D01*
X135545357Y-82458429D01*
X135581071Y-82494143D01*
X135616786Y-82565572D01*
X135616786Y-82779857D01*
X135581071Y-82851286D01*
X135545357Y-82887000D01*
X135545357Y-82101286D02*
X135581071Y-82065571D01*
X135616786Y-82101286D01*
X135581071Y-82137000D01*
X135545357Y-82101286D01*
X135616786Y-82101286D01*
X134866786Y-81815571D02*
X134866786Y-81351285D01*
X135152500Y-81601285D01*
X135152500Y-81494143D01*
X135188214Y-81422714D01*
X135223929Y-81387000D01*
X135295357Y-81351285D01*
X135473929Y-81351285D01*
X135545357Y-81387000D01*
X135581071Y-81422714D01*
X135616786Y-81494143D01*
X135616786Y-81708428D01*
X135581071Y-81779857D01*
X135545357Y-81815571D01*
X134866786Y-81136999D02*
X135616786Y-80886999D01*
X134866786Y-80636999D01*
X135616786Y-79458428D02*
X135616786Y-79815571D01*
X134866786Y-79815571D01*
X135616786Y-79208428D02*
X134866786Y-79208428D01*
X134866786Y-79029856D01*
X134902500Y-78922713D01*
X134973929Y-78851285D01*
X135045357Y-78815570D01*
X135188214Y-78779856D01*
X135295357Y-78779856D01*
X135438214Y-78815570D01*
X135509643Y-78851285D01*
X135581071Y-78922713D01*
X135616786Y-79029856D01*
X135616786Y-79208428D01*
X134866786Y-78315570D02*
X134866786Y-78172713D01*
X134902500Y-78101285D01*
X134973929Y-78029856D01*
X135116786Y-77994142D01*
X135366786Y-77994142D01*
X135509643Y-78029856D01*
X135581071Y-78101285D01*
X135616786Y-78172713D01*
X135616786Y-78315570D01*
X135581071Y-78386999D01*
X135509643Y-78458428D01*
X135366786Y-78494142D01*
X135116786Y-78494142D01*
X134973929Y-78458428D01*
X134902500Y-78386999D01*
X134866786Y-78315570D01*
X136841786Y-81137000D02*
X136091786Y-81137000D01*
X136091786Y-80851285D01*
X136127500Y-80779857D01*
X136163214Y-80744142D01*
X136234643Y-80708428D01*
X136341786Y-80708428D01*
X136413214Y-80744142D01*
X136448929Y-80779857D01*
X136484643Y-80851285D01*
X136484643Y-81137000D01*
X136091786Y-80458428D02*
X136841786Y-80279857D01*
X136306071Y-80137000D01*
X136841786Y-79994142D01*
X136091786Y-79815571D01*
X136841786Y-79101285D02*
X136484643Y-79351285D01*
X136841786Y-79529857D02*
X136091786Y-79529857D01*
X136091786Y-79244142D01*
X136127500Y-79172714D01*
X136163214Y-79136999D01*
X136234643Y-79101285D01*
X136341786Y-79101285D01*
X136413214Y-79136999D01*
X136448929Y-79172714D01*
X136484643Y-79244142D01*
X136484643Y-79529857D01*
D11*
X123325000Y-87467000D02*
X123325000Y-85667000D01*
X120105000Y-85667000D02*
X120105000Y-88117000D01*
D12*
X130000000Y-113000000D02*
X130000000Y-84500000D01*
X130000000Y-84500000D02*
X159000000Y-84500000D01*
X159000000Y-84500000D02*
X159000000Y-113000000D01*
X159000000Y-113000000D02*
X130000000Y-113000000D01*
D13*
X122812000Y-96262000D02*
X122812000Y-97024000D01*
X122812000Y-97024000D02*
X121288000Y-97024000D01*
X121288000Y-97024000D02*
X121288000Y-96262000D01*
X124336000Y-107438000D02*
X119764000Y-107438000D01*
X119764000Y-107438000D02*
X119764000Y-96262000D01*
X119764000Y-96262000D02*
X124336000Y-96262000D01*
X124336000Y-96262000D02*
X124336000Y-107438000D01*
D11*
X125250500Y-85692500D02*
X125250500Y-86392500D01*
X124050500Y-86392500D02*
X124050500Y-85692500D01*
X126750000Y-99100000D02*
X126750000Y-98400000D01*
X127950000Y-98400000D02*
X127950000Y-99100000D01*
X133507000Y-80764000D02*
X133507000Y-79764000D01*
X133507000Y-79764000D02*
X131407000Y-79764000D01*
X133507000Y-80764000D02*
X131407000Y-80764000D01*
D13*
X121175000Y-90131000D02*
X121175000Y-91131000D01*
X119825000Y-91131000D02*
X119825000Y-90131000D01*
X124039000Y-89400000D02*
X124039000Y-88400000D01*
X125389000Y-88400000D02*
X125389000Y-89400000D01*
X129405000Y-80939000D02*
X128405000Y-80939000D01*
X128405000Y-79589000D02*
X129405000Y-79589000D01*
D11*
X121900000Y-90850000D02*
X121900000Y-90150000D01*
X123100000Y-90150000D02*
X123100000Y-90850000D01*
X156536000Y-116250000D02*
G75*
G03X156536000Y-116250000I-2286000J0D01*
G01*
X156536000Y-80750000D02*
G75*
G03X156536000Y-80750000I-2286000J0D01*
G01*
X116036000Y-116250000D02*
G75*
G03X116036000Y-116250000I-2286000J0D01*
G01*
X116036000Y-80750000D02*
G75*
G03X116036000Y-80750000I-2286000J0D01*
G01*
X119520000Y-80500000D02*
X119520000Y-82500000D01*
X122480000Y-82500000D02*
X122480000Y-80500000D01*
X122975000Y-81500000D02*
X122975000Y-82500000D01*
X124675000Y-82500000D02*
X124675000Y-81500000D01*
X113412000Y-108671000D02*
X113412000Y-111271000D01*
X113412000Y-111271000D02*
X116072000Y-111271000D01*
X116072000Y-111271000D02*
X116072000Y-108671000D01*
X116072000Y-108671000D02*
X113412000Y-108671000D01*
X113412000Y-107401000D02*
X113412000Y-106071000D01*
X113412000Y-106071000D02*
X114742000Y-106071000D01*
X112737500Y-88313000D02*
X112737500Y-87783000D01*
X112737500Y-87783000D02*
X115397500Y-87783000D01*
X115397500Y-87783000D02*
X115397500Y-88313000D01*
X112737500Y-102613000D02*
X112737500Y-103143000D01*
X112737500Y-103143000D02*
X115397500Y-103143000D01*
X115397500Y-103143000D02*
X115397500Y-102613000D01*
X115397500Y-89793000D02*
X115397500Y-93513000D01*
X115397500Y-94873000D02*
X115397500Y-98593000D01*
X115397500Y-99953000D02*
X115397500Y-103143000D01*
X112737500Y-87783000D02*
X112737500Y-90973000D01*
X115397500Y-88313000D02*
X117067500Y-88313000D01*
X112737500Y-92333000D02*
X112737500Y-96053000D01*
X112737500Y-97413000D02*
X112737500Y-101133000D01*
D13*
X118267381Y-87328905D02*
X119076905Y-87328905D01*
X119172143Y-87281286D01*
X119219762Y-87233667D01*
X119267381Y-87138429D01*
X119267381Y-86947952D01*
X119219762Y-86852714D01*
X119172143Y-86805095D01*
X119076905Y-86757476D01*
X118267381Y-86757476D01*
X119267381Y-85757476D02*
X119267381Y-86328905D01*
X119267381Y-86043191D02*
X118267381Y-86043191D01*
X118410238Y-86138429D01*
X118505476Y-86233667D01*
X118553095Y-86328905D01*
X121288095Y-108052381D02*
X121288095Y-108861905D01*
X121335714Y-108957143D01*
X121383333Y-109004762D01*
X121478571Y-109052381D01*
X121669048Y-109052381D01*
X121764286Y-109004762D01*
X121811905Y-108957143D01*
X121859524Y-108861905D01*
X121859524Y-108052381D01*
X122288095Y-108147619D02*
X122335714Y-108100000D01*
X122430952Y-108052381D01*
X122669048Y-108052381D01*
X122764286Y-108100000D01*
X122811905Y-108147619D01*
X122859524Y-108242857D01*
X122859524Y-108338095D01*
X122811905Y-108480952D01*
X122240476Y-109052381D01*
X122859524Y-109052381D01*
X126531643Y-86145666D02*
X126579262Y-86193285D01*
X126626881Y-86336142D01*
X126626881Y-86431380D01*
X126579262Y-86574238D01*
X126484024Y-86669476D01*
X126388786Y-86717095D01*
X126198310Y-86764714D01*
X126055452Y-86764714D01*
X125864976Y-86717095D01*
X125769738Y-86669476D01*
X125674500Y-86574238D01*
X125626881Y-86431380D01*
X125626881Y-86336142D01*
X125674500Y-86193285D01*
X125722119Y-86145666D01*
X125722119Y-85764714D02*
X125674500Y-85717095D01*
X125626881Y-85621857D01*
X125626881Y-85383761D01*
X125674500Y-85288523D01*
X125722119Y-85240904D01*
X125817357Y-85193285D01*
X125912595Y-85193285D01*
X126055452Y-85240904D01*
X126626881Y-85812333D01*
X126626881Y-85193285D01*
X127707143Y-96376666D02*
X127754762Y-96424285D01*
X127802381Y-96567142D01*
X127802381Y-96662380D01*
X127754762Y-96805238D01*
X127659524Y-96900476D01*
X127564286Y-96948095D01*
X127373810Y-96995714D01*
X127230952Y-96995714D01*
X127040476Y-96948095D01*
X126945238Y-96900476D01*
X126850000Y-96805238D01*
X126802381Y-96662380D01*
X126802381Y-96567142D01*
X126850000Y-96424285D01*
X126897619Y-96376666D01*
X126802381Y-96043333D02*
X126802381Y-95424285D01*
X127183333Y-95757619D01*
X127183333Y-95614761D01*
X127230952Y-95519523D01*
X127278571Y-95471904D01*
X127373810Y-95424285D01*
X127611905Y-95424285D01*
X127707143Y-95471904D01*
X127754762Y-95519523D01*
X127802381Y-95614761D01*
X127802381Y-95900476D01*
X127754762Y-95995714D01*
X127707143Y-96043333D01*
X131468905Y-79216381D02*
X131468905Y-78216381D01*
X131707000Y-78216381D01*
X131849858Y-78264000D01*
X131945096Y-78359238D01*
X131992715Y-78454476D01*
X132040334Y-78644952D01*
X132040334Y-78787810D01*
X131992715Y-78978286D01*
X131945096Y-79073524D01*
X131849858Y-79168762D01*
X131707000Y-79216381D01*
X131468905Y-79216381D01*
X132992715Y-79216381D02*
X132421286Y-79216381D01*
X132707000Y-79216381D02*
X132707000Y-78216381D01*
X132611762Y-78359238D01*
X132516524Y-78454476D01*
X132421286Y-78502095D01*
X120952381Y-93210666D02*
X120952381Y-93686857D01*
X119952381Y-93686857D01*
X120952381Y-92353523D02*
X120952381Y-92924952D01*
X120952381Y-92639238D02*
X119952381Y-92639238D01*
X120095238Y-92734476D01*
X120190476Y-92829714D01*
X120238095Y-92924952D01*
X126753881Y-89003166D02*
X126277690Y-89336500D01*
X126753881Y-89574595D02*
X125753881Y-89574595D01*
X125753881Y-89193642D01*
X125801500Y-89098404D01*
X125849119Y-89050785D01*
X125944357Y-89003166D01*
X126087214Y-89003166D01*
X126182452Y-89050785D01*
X126230071Y-89098404D01*
X126277690Y-89193642D01*
X126277690Y-89574595D01*
X126753881Y-88050785D02*
X126753881Y-88622214D01*
X126753881Y-88336500D02*
X125753881Y-88336500D01*
X125896738Y-88431738D01*
X125991976Y-88526976D01*
X126039595Y-88622214D01*
X128738334Y-79216381D02*
X128405000Y-78740190D01*
X128166905Y-79216381D02*
X128166905Y-78216381D01*
X128547858Y-78216381D01*
X128643096Y-78264000D01*
X128690715Y-78311619D01*
X128738334Y-78406857D01*
X128738334Y-78549714D01*
X128690715Y-78644952D01*
X128643096Y-78692571D01*
X128547858Y-78740190D01*
X128166905Y-78740190D01*
X129119286Y-78311619D02*
X129166905Y-78264000D01*
X129262143Y-78216381D01*
X129500239Y-78216381D01*
X129595477Y-78264000D01*
X129643096Y-78311619D01*
X129690715Y-78406857D01*
X129690715Y-78502095D01*
X129643096Y-78644952D01*
X129071667Y-79216381D01*
X129690715Y-79216381D01*
X122857143Y-93206666D02*
X122904762Y-93254285D01*
X122952381Y-93397142D01*
X122952381Y-93492380D01*
X122904762Y-93635238D01*
X122809524Y-93730476D01*
X122714286Y-93778095D01*
X122523810Y-93825714D01*
X122380952Y-93825714D01*
X122190476Y-93778095D01*
X122095238Y-93730476D01*
X122000000Y-93635238D01*
X121952381Y-93492380D01*
X121952381Y-93397142D01*
X122000000Y-93254285D01*
X122047619Y-93206666D01*
X122952381Y-92254285D02*
X122952381Y-92825714D01*
X122952381Y-92540000D02*
X121952381Y-92540000D01*
X122095238Y-92635238D01*
X122190476Y-92730476D01*
X122238095Y-92825714D01*
X119107143Y-81666666D02*
X119154762Y-81714285D01*
X119202381Y-81857142D01*
X119202381Y-81952380D01*
X119154762Y-82095238D01*
X119059524Y-82190476D01*
X118964286Y-82238095D01*
X118773810Y-82285714D01*
X118630952Y-82285714D01*
X118440476Y-82238095D01*
X118345238Y-82190476D01*
X118250000Y-82095238D01*
X118202381Y-81952380D01*
X118202381Y-81857142D01*
X118250000Y-81714285D01*
X118297619Y-81666666D01*
X118535714Y-80809523D02*
X119202381Y-80809523D01*
X118154762Y-81047619D02*
X118869048Y-81285714D01*
X118869048Y-80666666D01*
X125896643Y-82166666D02*
X125944262Y-82214285D01*
X125991881Y-82357142D01*
X125991881Y-82452380D01*
X125944262Y-82595238D01*
X125849024Y-82690476D01*
X125753786Y-82738095D01*
X125563310Y-82785714D01*
X125420452Y-82785714D01*
X125229976Y-82738095D01*
X125134738Y-82690476D01*
X125039500Y-82595238D01*
X124991881Y-82452380D01*
X124991881Y-82357142D01*
X125039500Y-82214285D01*
X125087119Y-82166666D01*
X124991881Y-81261904D02*
X124991881Y-81738095D01*
X125468071Y-81785714D01*
X125420452Y-81738095D01*
X125372833Y-81642857D01*
X125372833Y-81404761D01*
X125420452Y-81309523D01*
X125468071Y-81261904D01*
X125563310Y-81214285D01*
X125801405Y-81214285D01*
X125896643Y-81261904D01*
X125944262Y-81309523D01*
X125991881Y-81404761D01*
X125991881Y-81642857D01*
X125944262Y-81738095D01*
X125896643Y-81785714D01*
X114003905Y-105523381D02*
X114003905Y-104523381D01*
X114384858Y-104523381D01*
X114480096Y-104571000D01*
X114527715Y-104618619D01*
X114575334Y-104713857D01*
X114575334Y-104856714D01*
X114527715Y-104951952D01*
X114480096Y-104999571D01*
X114384858Y-105047190D01*
X114003905Y-105047190D01*
X114956286Y-104618619D02*
X115003905Y-104571000D01*
X115099143Y-104523381D01*
X115337239Y-104523381D01*
X115432477Y-104571000D01*
X115480096Y-104618619D01*
X115527715Y-104713857D01*
X115527715Y-104809095D01*
X115480096Y-104951952D01*
X114908667Y-105523381D01*
X115527715Y-105523381D01*
X113329405Y-87235381D02*
X113329405Y-86235381D01*
X113710358Y-86235381D01*
X113805596Y-86283000D01*
X113853215Y-86330619D01*
X113900834Y-86425857D01*
X113900834Y-86568714D01*
X113853215Y-86663952D01*
X113805596Y-86711571D01*
X113710358Y-86759190D01*
X113329405Y-86759190D01*
X114853215Y-87235381D02*
X114281786Y-87235381D01*
X114567500Y-87235381D02*
X114567500Y-86235381D01*
X114472262Y-86378238D01*
X114377024Y-86473476D01*
X114281786Y-86521095D01*
M02*
