G04 #@! TF.FileFunction,Legend,Bot*
%FSLAX46Y46*%
G04 Gerber Fmt 4.6, Leading zero omitted, Abs format (unit mm)*
G04 Created by KiCad (PCBNEW 4.0.5) date 04/10/17 16:46:25*
%MOMM*%
%LPD*%
G01*
G04 APERTURE LIST*
%ADD10C,0.100000*%
%ADD11C,0.200000*%
%ADD12C,0.010000*%
%ADD13C,0.150000*%
G04 APERTURE END LIST*
D10*
D11*
X142845881Y-114363143D02*
X142369690Y-114029809D01*
X142845881Y-113791714D02*
X141845881Y-113791714D01*
X141845881Y-114172667D01*
X141893500Y-114267905D01*
X141941119Y-114315524D01*
X142036357Y-114363143D01*
X142179214Y-114363143D01*
X142274452Y-114315524D01*
X142322071Y-114267905D01*
X142369690Y-114172667D01*
X142369690Y-113791714D01*
X142845881Y-114934571D02*
X142798262Y-114839333D01*
X142750643Y-114791714D01*
X142655405Y-114744095D01*
X142369690Y-114744095D01*
X142274452Y-114791714D01*
X142226833Y-114839333D01*
X142179214Y-114934571D01*
X142179214Y-115077429D01*
X142226833Y-115172667D01*
X142274452Y-115220286D01*
X142369690Y-115267905D01*
X142655405Y-115267905D01*
X142750643Y-115220286D01*
X142798262Y-115172667D01*
X142845881Y-115077429D01*
X142845881Y-114934571D01*
X142845881Y-115696476D02*
X141845881Y-115696476D01*
X142322071Y-115696476D02*
X142322071Y-116267905D01*
X142845881Y-116267905D02*
X141845881Y-116267905D01*
X142798262Y-116696476D02*
X142845881Y-116839333D01*
X142845881Y-117077429D01*
X142798262Y-117172667D01*
X142750643Y-117220286D01*
X142655405Y-117267905D01*
X142560167Y-117267905D01*
X142464929Y-117220286D01*
X142417310Y-117172667D01*
X142369690Y-117077429D01*
X142322071Y-116886952D01*
X142274452Y-116791714D01*
X142226833Y-116744095D01*
X142131595Y-116696476D01*
X142036357Y-116696476D01*
X141941119Y-116744095D01*
X141893500Y-116791714D01*
X141845881Y-116886952D01*
X141845881Y-117125048D01*
X141893500Y-117267905D01*
D10*
X115226548Y-90154667D02*
X115267024Y-90276095D01*
X115267024Y-90478476D01*
X115226548Y-90559429D01*
X115186071Y-90599905D01*
X115105119Y-90640381D01*
X115024167Y-90640381D01*
X114943214Y-90599905D01*
X114902738Y-90559429D01*
X114862262Y-90478476D01*
X114821786Y-90316572D01*
X114781310Y-90235619D01*
X114740833Y-90195143D01*
X114659881Y-90154667D01*
X114578929Y-90154667D01*
X114497976Y-90195143D01*
X114457500Y-90235619D01*
X114417024Y-90316572D01*
X114417024Y-90518952D01*
X114457500Y-90640381D01*
X115267024Y-91004667D02*
X114417024Y-91004667D01*
X114417024Y-91207048D01*
X114457500Y-91328476D01*
X114538452Y-91409429D01*
X114619405Y-91449905D01*
X114781310Y-91490381D01*
X114902738Y-91490381D01*
X115064643Y-91449905D01*
X115145595Y-91409429D01*
X115226548Y-91328476D01*
X115267024Y-91207048D01*
X115267024Y-91004667D01*
X115186071Y-92988000D02*
X115226548Y-92947524D01*
X115267024Y-92826095D01*
X115267024Y-92745143D01*
X115226548Y-92623715D01*
X115145595Y-92542762D01*
X115064643Y-92502286D01*
X114902738Y-92461810D01*
X114781310Y-92461810D01*
X114619405Y-92502286D01*
X114538452Y-92542762D01*
X114457500Y-92623715D01*
X114417024Y-92745143D01*
X114417024Y-92826095D01*
X114457500Y-92947524D01*
X114497976Y-92988000D01*
X115267024Y-93716572D02*
X114821786Y-93716572D01*
X114740833Y-93676095D01*
X114700357Y-93595143D01*
X114700357Y-93433238D01*
X114740833Y-93352286D01*
X115226548Y-93716572D02*
X115267024Y-93635619D01*
X115267024Y-93433238D01*
X115226548Y-93352286D01*
X115145595Y-93311810D01*
X115064643Y-93311810D01*
X114983690Y-93352286D01*
X114943214Y-93433238D01*
X114943214Y-93635619D01*
X114902738Y-93716572D01*
X115267024Y-94121334D02*
X114700357Y-94121334D01*
X114862262Y-94121334D02*
X114781310Y-94161810D01*
X114740833Y-94202286D01*
X114700357Y-94283239D01*
X114700357Y-94364191D01*
X115267024Y-95011810D02*
X114417024Y-95011810D01*
X115226548Y-95011810D02*
X115267024Y-94930857D01*
X115267024Y-94768953D01*
X115226548Y-94688000D01*
X115186071Y-94647524D01*
X115105119Y-94607048D01*
X114862262Y-94607048D01*
X114781310Y-94647524D01*
X114740833Y-94688000D01*
X114700357Y-94768953D01*
X114700357Y-94930857D01*
X114740833Y-95011810D01*
X115267024Y-96549905D02*
X114862262Y-96266572D01*
X115267024Y-96064191D02*
X114417024Y-96064191D01*
X114417024Y-96388000D01*
X114457500Y-96468953D01*
X114497976Y-96509429D01*
X114578929Y-96549905D01*
X114700357Y-96549905D01*
X114781310Y-96509429D01*
X114821786Y-96468953D01*
X114862262Y-96388000D01*
X114862262Y-96064191D01*
X115226548Y-97238000D02*
X115267024Y-97157048D01*
X115267024Y-96995143D01*
X115226548Y-96914191D01*
X115145595Y-96873715D01*
X114821786Y-96873715D01*
X114740833Y-96914191D01*
X114700357Y-96995143D01*
X114700357Y-97157048D01*
X114740833Y-97238000D01*
X114821786Y-97278477D01*
X114902738Y-97278477D01*
X114983690Y-96873715D01*
X115267024Y-98007048D02*
X114821786Y-98007048D01*
X114740833Y-97966571D01*
X114700357Y-97885619D01*
X114700357Y-97723714D01*
X114740833Y-97642762D01*
X115226548Y-98007048D02*
X115267024Y-97926095D01*
X115267024Y-97723714D01*
X115226548Y-97642762D01*
X115145595Y-97602286D01*
X115064643Y-97602286D01*
X114983690Y-97642762D01*
X114943214Y-97723714D01*
X114943214Y-97926095D01*
X114902738Y-98007048D01*
X115267024Y-98776096D02*
X114417024Y-98776096D01*
X115226548Y-98776096D02*
X115267024Y-98695143D01*
X115267024Y-98533239D01*
X115226548Y-98452286D01*
X115186071Y-98411810D01*
X115105119Y-98371334D01*
X114862262Y-98371334D01*
X114781310Y-98411810D01*
X114740833Y-98452286D01*
X114700357Y-98533239D01*
X114700357Y-98695143D01*
X114740833Y-98776096D01*
X115226548Y-99504667D02*
X115267024Y-99423715D01*
X115267024Y-99261810D01*
X115226548Y-99180858D01*
X115145595Y-99140382D01*
X114821786Y-99140382D01*
X114740833Y-99180858D01*
X114700357Y-99261810D01*
X114700357Y-99423715D01*
X114740833Y-99504667D01*
X114821786Y-99545144D01*
X114902738Y-99545144D01*
X114983690Y-99140382D01*
X115267024Y-99909429D02*
X114700357Y-99909429D01*
X114862262Y-99909429D02*
X114781310Y-99949905D01*
X114740833Y-99990381D01*
X114700357Y-100071334D01*
X114700357Y-100152286D01*
X115267024Y-101083238D02*
X114417024Y-101083238D01*
X115024167Y-101366571D01*
X114417024Y-101649905D01*
X115267024Y-101649905D01*
X115267024Y-102176096D02*
X115226548Y-102095143D01*
X115186071Y-102054667D01*
X115105119Y-102014191D01*
X114862262Y-102014191D01*
X114781310Y-102054667D01*
X114740833Y-102095143D01*
X114700357Y-102176096D01*
X114700357Y-102297524D01*
X114740833Y-102378476D01*
X114781310Y-102418953D01*
X114862262Y-102459429D01*
X115105119Y-102459429D01*
X115186071Y-102418953D01*
X115226548Y-102378476D01*
X115267024Y-102297524D01*
X115267024Y-102176096D01*
X115267024Y-103188001D02*
X114417024Y-103188001D01*
X115226548Y-103188001D02*
X115267024Y-103107048D01*
X115267024Y-102945144D01*
X115226548Y-102864191D01*
X115186071Y-102823715D01*
X115105119Y-102783239D01*
X114862262Y-102783239D01*
X114781310Y-102823715D01*
X114740833Y-102864191D01*
X114700357Y-102945144D01*
X114700357Y-103107048D01*
X114740833Y-103188001D01*
X114700357Y-103957049D02*
X115267024Y-103957049D01*
X114700357Y-103592763D02*
X115145595Y-103592763D01*
X115226548Y-103633239D01*
X115267024Y-103714192D01*
X115267024Y-103835620D01*
X115226548Y-103916572D01*
X115186071Y-103957049D01*
X115267024Y-104483240D02*
X115226548Y-104402287D01*
X115145595Y-104361811D01*
X114417024Y-104361811D01*
X115226548Y-105130858D02*
X115267024Y-105049906D01*
X115267024Y-104888001D01*
X115226548Y-104807049D01*
X115145595Y-104766573D01*
X114821786Y-104766573D01*
X114740833Y-104807049D01*
X114700357Y-104888001D01*
X114700357Y-105049906D01*
X114740833Y-105130858D01*
X114821786Y-105171335D01*
X114902738Y-105171335D01*
X114983690Y-104766573D01*
X115792024Y-89324906D02*
X115792024Y-88920144D01*
X116196786Y-88879668D01*
X116156310Y-88920144D01*
X116115833Y-89001096D01*
X116115833Y-89203477D01*
X116156310Y-89284430D01*
X116196786Y-89324906D01*
X116277738Y-89365382D01*
X116480119Y-89365382D01*
X116561071Y-89324906D01*
X116601548Y-89284430D01*
X116642024Y-89203477D01*
X116642024Y-89001096D01*
X116601548Y-88920144D01*
X116561071Y-88879668D01*
X115792024Y-89608239D02*
X116642024Y-89891573D01*
X115792024Y-90174906D01*
X116642024Y-91591572D02*
X116237262Y-91308239D01*
X116642024Y-91105858D02*
X115792024Y-91105858D01*
X115792024Y-91429667D01*
X115832500Y-91510620D01*
X115872976Y-91551096D01*
X115953929Y-91591572D01*
X116075357Y-91591572D01*
X116156310Y-91551096D01*
X116196786Y-91510620D01*
X116237262Y-91429667D01*
X116237262Y-91105858D01*
X116601548Y-92279667D02*
X116642024Y-92198715D01*
X116642024Y-92036810D01*
X116601548Y-91955858D01*
X116520595Y-91915382D01*
X116196786Y-91915382D01*
X116115833Y-91955858D01*
X116075357Y-92036810D01*
X116075357Y-92198715D01*
X116115833Y-92279667D01*
X116196786Y-92320144D01*
X116277738Y-92320144D01*
X116358690Y-91915382D01*
X116642024Y-93048715D02*
X116196786Y-93048715D01*
X116115833Y-93008238D01*
X116075357Y-92927286D01*
X116075357Y-92765381D01*
X116115833Y-92684429D01*
X116601548Y-93048715D02*
X116642024Y-92967762D01*
X116642024Y-92765381D01*
X116601548Y-92684429D01*
X116520595Y-92643953D01*
X116439643Y-92643953D01*
X116358690Y-92684429D01*
X116318214Y-92765381D01*
X116318214Y-92967762D01*
X116277738Y-93048715D01*
X116642024Y-93817763D02*
X115792024Y-93817763D01*
X116601548Y-93817763D02*
X116642024Y-93736810D01*
X116642024Y-93574906D01*
X116601548Y-93493953D01*
X116561071Y-93453477D01*
X116480119Y-93413001D01*
X116237262Y-93413001D01*
X116156310Y-93453477D01*
X116115833Y-93493953D01*
X116075357Y-93574906D01*
X116075357Y-93736810D01*
X116115833Y-93817763D01*
X116075357Y-94141573D02*
X116642024Y-94343954D01*
X116075357Y-94546334D02*
X116642024Y-94343954D01*
X116844405Y-94263001D01*
X116884881Y-94222525D01*
X116925357Y-94141573D01*
X116075357Y-95436811D02*
X116642024Y-95598715D01*
X116237262Y-95760620D01*
X116642024Y-95922525D01*
X116075357Y-96084430D01*
X116642024Y-96408239D02*
X116075357Y-96408239D01*
X115792024Y-96408239D02*
X115832500Y-96367763D01*
X115872976Y-96408239D01*
X115832500Y-96448715D01*
X115792024Y-96408239D01*
X115872976Y-96408239D01*
X116075357Y-96691572D02*
X116075357Y-97015382D01*
X115792024Y-96813001D02*
X116520595Y-96813001D01*
X116601548Y-96853477D01*
X116642024Y-96934430D01*
X116642024Y-97015382D01*
X116642024Y-97298715D02*
X115792024Y-97298715D01*
X116642024Y-97663001D02*
X116196786Y-97663001D01*
X116115833Y-97622524D01*
X116075357Y-97541572D01*
X116075357Y-97420144D01*
X116115833Y-97339191D01*
X116156310Y-97298715D01*
X116642024Y-99120144D02*
X116642024Y-98715382D01*
X115792024Y-98715382D01*
X116601548Y-99727286D02*
X116642024Y-99646334D01*
X116642024Y-99484429D01*
X116601548Y-99403477D01*
X116520595Y-99363001D01*
X116196786Y-99363001D01*
X116115833Y-99403477D01*
X116075357Y-99484429D01*
X116075357Y-99646334D01*
X116115833Y-99727286D01*
X116196786Y-99767763D01*
X116277738Y-99767763D01*
X116358690Y-99363001D01*
X116075357Y-100051096D02*
X116642024Y-100253477D01*
X116075357Y-100455857D01*
X116601548Y-101103476D02*
X116642024Y-101022524D01*
X116642024Y-100860619D01*
X116601548Y-100779667D01*
X116520595Y-100739191D01*
X116196786Y-100739191D01*
X116115833Y-100779667D01*
X116075357Y-100860619D01*
X116075357Y-101022524D01*
X116115833Y-101103476D01*
X116196786Y-101143953D01*
X116277738Y-101143953D01*
X116358690Y-100739191D01*
X116642024Y-101629667D02*
X116601548Y-101548714D01*
X116520595Y-101508238D01*
X115792024Y-101508238D01*
X116601548Y-102560619D02*
X116642024Y-102682047D01*
X116642024Y-102884428D01*
X116601548Y-102965381D01*
X116561071Y-103005857D01*
X116480119Y-103046333D01*
X116399167Y-103046333D01*
X116318214Y-103005857D01*
X116277738Y-102965381D01*
X116237262Y-102884428D01*
X116196786Y-102722524D01*
X116156310Y-102641571D01*
X116115833Y-102601095D01*
X116034881Y-102560619D01*
X115953929Y-102560619D01*
X115872976Y-102601095D01*
X115832500Y-102641571D01*
X115792024Y-102722524D01*
X115792024Y-102924904D01*
X115832500Y-103046333D01*
X116642024Y-103410619D02*
X115792024Y-103410619D01*
X116642024Y-103774905D02*
X116196786Y-103774905D01*
X116115833Y-103734428D01*
X116075357Y-103653476D01*
X116075357Y-103532048D01*
X116115833Y-103451095D01*
X116156310Y-103410619D01*
X116642024Y-104179667D02*
X116075357Y-104179667D01*
X115792024Y-104179667D02*
X115832500Y-104139191D01*
X115872976Y-104179667D01*
X115832500Y-104220143D01*
X115792024Y-104179667D01*
X115872976Y-104179667D01*
X116075357Y-104463000D02*
X116075357Y-104786810D01*
X116642024Y-104584429D02*
X115913452Y-104584429D01*
X115832500Y-104624905D01*
X115792024Y-104705858D01*
X115792024Y-104786810D01*
X116075357Y-104948714D02*
X116075357Y-105272524D01*
X115792024Y-105070143D02*
X116520595Y-105070143D01*
X116601548Y-105110619D01*
X116642024Y-105191572D01*
X116642024Y-105272524D01*
X116601548Y-105879666D02*
X116642024Y-105798714D01*
X116642024Y-105636809D01*
X116601548Y-105555857D01*
X116520595Y-105515381D01*
X116196786Y-105515381D01*
X116115833Y-105555857D01*
X116075357Y-105636809D01*
X116075357Y-105798714D01*
X116115833Y-105879666D01*
X116196786Y-105920143D01*
X116277738Y-105920143D01*
X116358690Y-105515381D01*
X116642024Y-106284428D02*
X116075357Y-106284428D01*
X116237262Y-106284428D02*
X116156310Y-106324904D01*
X116115833Y-106365380D01*
X116075357Y-106446333D01*
X116075357Y-106527285D01*
X130222071Y-86267904D02*
X130269690Y-86410761D01*
X130317310Y-86458380D01*
X130412548Y-86505999D01*
X130555405Y-86505999D01*
X130650643Y-86458380D01*
X130698262Y-86410761D01*
X130745881Y-86315523D01*
X130745881Y-85934570D01*
X129745881Y-85934570D01*
X129745881Y-86267904D01*
X129793500Y-86363142D01*
X129841119Y-86410761D01*
X129936357Y-86458380D01*
X130031595Y-86458380D01*
X130126833Y-86410761D01*
X130174452Y-86363142D01*
X130222071Y-86267904D01*
X130222071Y-85934570D01*
X130650643Y-87505999D02*
X130698262Y-87458380D01*
X130745881Y-87315523D01*
X130745881Y-87220285D01*
X130698262Y-87077427D01*
X130603024Y-86982189D01*
X130507786Y-86934570D01*
X130317310Y-86886951D01*
X130174452Y-86886951D01*
X129983976Y-86934570D01*
X129888738Y-86982189D01*
X129793500Y-87077427D01*
X129745881Y-87220285D01*
X129745881Y-87315523D01*
X129793500Y-87458380D01*
X129841119Y-87505999D01*
X130745881Y-87934570D02*
X129745881Y-87934570D01*
X130745881Y-88505999D01*
X129745881Y-88505999D01*
X129745881Y-88886951D02*
X129745881Y-89505999D01*
X130126833Y-89172665D01*
X130126833Y-89315523D01*
X130174452Y-89410761D01*
X130222071Y-89458380D01*
X130317310Y-89505999D01*
X130555405Y-89505999D01*
X130650643Y-89458380D01*
X130698262Y-89410761D01*
X130745881Y-89315523D01*
X130745881Y-89029808D01*
X130698262Y-88934570D01*
X130650643Y-88886951D01*
X130745881Y-89934570D02*
X129745881Y-89934570D01*
X129745881Y-90172665D01*
X129793500Y-90315523D01*
X129888738Y-90410761D01*
X129983976Y-90458380D01*
X130174452Y-90505999D01*
X130317310Y-90505999D01*
X130507786Y-90458380D01*
X130603024Y-90410761D01*
X130698262Y-90315523D01*
X130745881Y-90172665D01*
X130745881Y-89934570D01*
X129745881Y-91553618D02*
X129745881Y-92125047D01*
X130745881Y-91839332D02*
X129745881Y-91839332D01*
X130698262Y-92839333D02*
X130745881Y-92744095D01*
X130745881Y-92553618D01*
X130698262Y-92458380D01*
X130603024Y-92410761D01*
X130222071Y-92410761D01*
X130126833Y-92458380D01*
X130079214Y-92553618D01*
X130079214Y-92744095D01*
X130126833Y-92839333D01*
X130222071Y-92886952D01*
X130317310Y-92886952D01*
X130412548Y-92410761D01*
X130698262Y-93744095D02*
X130745881Y-93648857D01*
X130745881Y-93458380D01*
X130698262Y-93363142D01*
X130650643Y-93315523D01*
X130555405Y-93267904D01*
X130269690Y-93267904D01*
X130174452Y-93315523D01*
X130126833Y-93363142D01*
X130079214Y-93458380D01*
X130079214Y-93648857D01*
X130126833Y-93744095D01*
X130745881Y-94172666D02*
X129745881Y-94172666D01*
X130745881Y-94601238D02*
X130222071Y-94601238D01*
X130126833Y-94553619D01*
X130079214Y-94458381D01*
X130079214Y-94315523D01*
X130126833Y-94220285D01*
X130174452Y-94172666D01*
X130079214Y-95077428D02*
X130745881Y-95077428D01*
X130174452Y-95077428D02*
X130126833Y-95125047D01*
X130079214Y-95220285D01*
X130079214Y-95363143D01*
X130126833Y-95458381D01*
X130222071Y-95506000D01*
X130745881Y-95506000D01*
X130745881Y-96125047D02*
X130698262Y-96029809D01*
X130650643Y-95982190D01*
X130555405Y-95934571D01*
X130269690Y-95934571D01*
X130174452Y-95982190D01*
X130126833Y-96029809D01*
X130079214Y-96125047D01*
X130079214Y-96267905D01*
X130126833Y-96363143D01*
X130174452Y-96410762D01*
X130269690Y-96458381D01*
X130555405Y-96458381D01*
X130650643Y-96410762D01*
X130698262Y-96363143D01*
X130745881Y-96267905D01*
X130745881Y-96125047D01*
X130745881Y-97029809D02*
X130698262Y-96934571D01*
X130603024Y-96886952D01*
X129745881Y-96886952D01*
X130745881Y-97553619D02*
X130698262Y-97458381D01*
X130650643Y-97410762D01*
X130555405Y-97363143D01*
X130269690Y-97363143D01*
X130174452Y-97410762D01*
X130126833Y-97458381D01*
X130079214Y-97553619D01*
X130079214Y-97696477D01*
X130126833Y-97791715D01*
X130174452Y-97839334D01*
X130269690Y-97886953D01*
X130555405Y-97886953D01*
X130650643Y-97839334D01*
X130698262Y-97791715D01*
X130745881Y-97696477D01*
X130745881Y-97553619D01*
X130079214Y-98744096D02*
X130888738Y-98744096D01*
X130983976Y-98696477D01*
X131031595Y-98648858D01*
X131079214Y-98553619D01*
X131079214Y-98410762D01*
X131031595Y-98315524D01*
X130698262Y-98744096D02*
X130745881Y-98648858D01*
X130745881Y-98458381D01*
X130698262Y-98363143D01*
X130650643Y-98315524D01*
X130555405Y-98267905D01*
X130269690Y-98267905D01*
X130174452Y-98315524D01*
X130126833Y-98363143D01*
X130079214Y-98458381D01*
X130079214Y-98648858D01*
X130126833Y-98744096D01*
X130745881Y-99220286D02*
X130079214Y-99220286D01*
X129745881Y-99220286D02*
X129793500Y-99172667D01*
X129841119Y-99220286D01*
X129793500Y-99267905D01*
X129745881Y-99220286D01*
X129841119Y-99220286D01*
X130698262Y-100077429D02*
X130745881Y-99982191D01*
X130745881Y-99791714D01*
X130698262Y-99696476D01*
X130603024Y-99648857D01*
X130222071Y-99648857D01*
X130126833Y-99696476D01*
X130079214Y-99791714D01*
X130079214Y-99982191D01*
X130126833Y-100077429D01*
X130222071Y-100125048D01*
X130317310Y-100125048D01*
X130412548Y-99648857D01*
X130698262Y-100506000D02*
X130745881Y-100601238D01*
X130745881Y-100791714D01*
X130698262Y-100886953D01*
X130603024Y-100934572D01*
X130555405Y-100934572D01*
X130460167Y-100886953D01*
X130412548Y-100791714D01*
X130412548Y-100648857D01*
X130364929Y-100553619D01*
X130269690Y-100506000D01*
X130222071Y-100506000D01*
X130126833Y-100553619D01*
X130079214Y-100648857D01*
X130079214Y-100791714D01*
X130126833Y-100886953D01*
X130364929Y-102125048D02*
X130364929Y-102886953D01*
X130222071Y-103696477D02*
X130222071Y-103363143D01*
X130745881Y-103363143D02*
X129745881Y-103363143D01*
X129745881Y-103839334D01*
X130698262Y-104601239D02*
X130745881Y-104506001D01*
X130745881Y-104315524D01*
X130698262Y-104220286D01*
X130603024Y-104172667D01*
X130222071Y-104172667D01*
X130126833Y-104220286D01*
X130079214Y-104315524D01*
X130079214Y-104506001D01*
X130126833Y-104601239D01*
X130222071Y-104648858D01*
X130317310Y-104648858D01*
X130412548Y-104172667D01*
X130745881Y-105077429D02*
X129745881Y-105077429D01*
X130126833Y-105077429D02*
X130079214Y-105172667D01*
X130079214Y-105363144D01*
X130126833Y-105458382D01*
X130174452Y-105506001D01*
X130269690Y-105553620D01*
X130555405Y-105553620D01*
X130650643Y-105506001D01*
X130698262Y-105458382D01*
X130745881Y-105363144D01*
X130745881Y-105172667D01*
X130698262Y-105077429D01*
X129841119Y-106696477D02*
X129793500Y-106744096D01*
X129745881Y-106839334D01*
X129745881Y-107077430D01*
X129793500Y-107172668D01*
X129841119Y-107220287D01*
X129936357Y-107267906D01*
X130031595Y-107267906D01*
X130174452Y-107220287D01*
X130745881Y-106648858D01*
X130745881Y-107267906D01*
X129745881Y-107886953D02*
X129745881Y-107982192D01*
X129793500Y-108077430D01*
X129841119Y-108125049D01*
X129936357Y-108172668D01*
X130126833Y-108220287D01*
X130364929Y-108220287D01*
X130555405Y-108172668D01*
X130650643Y-108125049D01*
X130698262Y-108077430D01*
X130745881Y-107982192D01*
X130745881Y-107886953D01*
X130698262Y-107791715D01*
X130650643Y-107744096D01*
X130555405Y-107696477D01*
X130364929Y-107648858D01*
X130126833Y-107648858D01*
X129936357Y-107696477D01*
X129841119Y-107744096D01*
X129793500Y-107791715D01*
X129745881Y-107886953D01*
X130745881Y-109172668D02*
X130745881Y-108601239D01*
X130745881Y-108886953D02*
X129745881Y-108886953D01*
X129888738Y-108791715D01*
X129983976Y-108696477D01*
X130031595Y-108601239D01*
X129745881Y-109506001D02*
X129745881Y-110172668D01*
X130745881Y-109744096D01*
X132298262Y-89696475D02*
X132345881Y-89839332D01*
X132345881Y-90077428D01*
X132298262Y-90172666D01*
X132250643Y-90220285D01*
X132155405Y-90267904D01*
X132060167Y-90267904D01*
X131964929Y-90220285D01*
X131917310Y-90172666D01*
X131869690Y-90077428D01*
X131822071Y-89886951D01*
X131774452Y-89791713D01*
X131726833Y-89744094D01*
X131631595Y-89696475D01*
X131536357Y-89696475D01*
X131441119Y-89744094D01*
X131393500Y-89791713D01*
X131345881Y-89886951D01*
X131345881Y-90125047D01*
X131393500Y-90267904D01*
X132345881Y-90696475D02*
X131345881Y-90696475D01*
X131345881Y-90934570D01*
X131393500Y-91077428D01*
X131488738Y-91172666D01*
X131583976Y-91220285D01*
X131774452Y-91267904D01*
X131917310Y-91267904D01*
X132107786Y-91220285D01*
X132203024Y-91172666D01*
X132298262Y-91077428D01*
X132345881Y-90934570D01*
X132345881Y-90696475D01*
X132250643Y-93029809D02*
X132298262Y-92982190D01*
X132345881Y-92839333D01*
X132345881Y-92744095D01*
X132298262Y-92601237D01*
X132203024Y-92505999D01*
X132107786Y-92458380D01*
X131917310Y-92410761D01*
X131774452Y-92410761D01*
X131583976Y-92458380D01*
X131488738Y-92505999D01*
X131393500Y-92601237D01*
X131345881Y-92744095D01*
X131345881Y-92839333D01*
X131393500Y-92982190D01*
X131441119Y-93029809D01*
X132345881Y-93886952D02*
X131822071Y-93886952D01*
X131726833Y-93839333D01*
X131679214Y-93744095D01*
X131679214Y-93553618D01*
X131726833Y-93458380D01*
X132298262Y-93886952D02*
X132345881Y-93791714D01*
X132345881Y-93553618D01*
X132298262Y-93458380D01*
X132203024Y-93410761D01*
X132107786Y-93410761D01*
X132012548Y-93458380D01*
X131964929Y-93553618D01*
X131964929Y-93791714D01*
X131917310Y-93886952D01*
X132345881Y-94363142D02*
X131679214Y-94363142D01*
X131869690Y-94363142D02*
X131774452Y-94410761D01*
X131726833Y-94458380D01*
X131679214Y-94553618D01*
X131679214Y-94648857D01*
X132345881Y-95410762D02*
X131345881Y-95410762D01*
X132298262Y-95410762D02*
X132345881Y-95315524D01*
X132345881Y-95125047D01*
X132298262Y-95029809D01*
X132250643Y-94982190D01*
X132155405Y-94934571D01*
X131869690Y-94934571D01*
X131774452Y-94982190D01*
X131726833Y-95029809D01*
X131679214Y-95125047D01*
X131679214Y-95315524D01*
X131726833Y-95410762D01*
X132345881Y-96648857D02*
X131345881Y-96648857D01*
X132060167Y-96982191D01*
X131345881Y-97315524D01*
X132345881Y-97315524D01*
X132345881Y-97934571D02*
X132298262Y-97839333D01*
X132250643Y-97791714D01*
X132155405Y-97744095D01*
X131869690Y-97744095D01*
X131774452Y-97791714D01*
X131726833Y-97839333D01*
X131679214Y-97934571D01*
X131679214Y-98077429D01*
X131726833Y-98172667D01*
X131774452Y-98220286D01*
X131869690Y-98267905D01*
X132155405Y-98267905D01*
X132250643Y-98220286D01*
X132298262Y-98172667D01*
X132345881Y-98077429D01*
X132345881Y-97934571D01*
X132345881Y-99125048D02*
X131345881Y-99125048D01*
X132298262Y-99125048D02*
X132345881Y-99029810D01*
X132345881Y-98839333D01*
X132298262Y-98744095D01*
X132250643Y-98696476D01*
X132155405Y-98648857D01*
X131869690Y-98648857D01*
X131774452Y-98696476D01*
X131726833Y-98744095D01*
X131679214Y-98839333D01*
X131679214Y-99029810D01*
X131726833Y-99125048D01*
X131679214Y-100029810D02*
X132345881Y-100029810D01*
X131679214Y-99601238D02*
X132203024Y-99601238D01*
X132298262Y-99648857D01*
X132345881Y-99744095D01*
X132345881Y-99886953D01*
X132298262Y-99982191D01*
X132250643Y-100029810D01*
X132345881Y-100648857D02*
X132298262Y-100553619D01*
X132203024Y-100506000D01*
X131345881Y-100506000D01*
X132298262Y-101410763D02*
X132345881Y-101315525D01*
X132345881Y-101125048D01*
X132298262Y-101029810D01*
X132203024Y-100982191D01*
X131822071Y-100982191D01*
X131726833Y-101029810D01*
X131679214Y-101125048D01*
X131679214Y-101315525D01*
X131726833Y-101410763D01*
X131822071Y-101458382D01*
X131917310Y-101458382D01*
X132012548Y-100982191D01*
X132345881Y-103220287D02*
X131869690Y-102886953D01*
X132345881Y-102648858D02*
X131345881Y-102648858D01*
X131345881Y-103029811D01*
X131393500Y-103125049D01*
X131441119Y-103172668D01*
X131536357Y-103220287D01*
X131679214Y-103220287D01*
X131774452Y-103172668D01*
X131822071Y-103125049D01*
X131869690Y-103029811D01*
X131869690Y-102648858D01*
X131822071Y-103648858D02*
X131822071Y-103982192D01*
X132345881Y-104125049D02*
X132345881Y-103648858D01*
X131345881Y-103648858D01*
X131345881Y-104125049D01*
X131345881Y-104410763D02*
X132345881Y-104744096D01*
X131345881Y-105077430D01*
X132250643Y-105410763D02*
X132298262Y-105458382D01*
X132345881Y-105410763D01*
X132298262Y-105363144D01*
X132250643Y-105410763D01*
X132345881Y-105410763D01*
X132060167Y-105839334D02*
X132060167Y-106315525D01*
X132345881Y-105744096D02*
X131345881Y-106077429D01*
X132345881Y-106410763D01*
X133945881Y-89696475D02*
X132945881Y-89696475D01*
X132945881Y-89934570D01*
X132993500Y-90077428D01*
X133088738Y-90172666D01*
X133183976Y-90220285D01*
X133374452Y-90267904D01*
X133517310Y-90267904D01*
X133707786Y-90220285D01*
X133803024Y-90172666D01*
X133898262Y-90077428D01*
X133945881Y-89934570D01*
X133945881Y-89696475D01*
X133898262Y-91077428D02*
X133945881Y-90982190D01*
X133945881Y-90791713D01*
X133898262Y-90696475D01*
X133803024Y-90648856D01*
X133422071Y-90648856D01*
X133326833Y-90696475D01*
X133279214Y-90791713D01*
X133279214Y-90982190D01*
X133326833Y-91077428D01*
X133422071Y-91125047D01*
X133517310Y-91125047D01*
X133612548Y-90648856D01*
X133898262Y-91505999D02*
X133945881Y-91601237D01*
X133945881Y-91791713D01*
X133898262Y-91886952D01*
X133803024Y-91934571D01*
X133755405Y-91934571D01*
X133660167Y-91886952D01*
X133612548Y-91791713D01*
X133612548Y-91648856D01*
X133564929Y-91553618D01*
X133469690Y-91505999D01*
X133422071Y-91505999D01*
X133326833Y-91553618D01*
X133279214Y-91648856D01*
X133279214Y-91791713D01*
X133326833Y-91886952D01*
X133945881Y-92363142D02*
X133279214Y-92363142D01*
X132945881Y-92363142D02*
X132993500Y-92315523D01*
X133041119Y-92363142D01*
X132993500Y-92410761D01*
X132945881Y-92363142D01*
X133041119Y-92363142D01*
X133279214Y-93267904D02*
X134088738Y-93267904D01*
X134183976Y-93220285D01*
X134231595Y-93172666D01*
X134279214Y-93077427D01*
X134279214Y-92934570D01*
X134231595Y-92839332D01*
X133898262Y-93267904D02*
X133945881Y-93172666D01*
X133945881Y-92982189D01*
X133898262Y-92886951D01*
X133850643Y-92839332D01*
X133755405Y-92791713D01*
X133469690Y-92791713D01*
X133374452Y-92839332D01*
X133326833Y-92886951D01*
X133279214Y-92982189D01*
X133279214Y-93172666D01*
X133326833Y-93267904D01*
X133279214Y-93744094D02*
X133945881Y-93744094D01*
X133374452Y-93744094D02*
X133326833Y-93791713D01*
X133279214Y-93886951D01*
X133279214Y-94029809D01*
X133326833Y-94125047D01*
X133422071Y-94172666D01*
X133945881Y-94172666D01*
X133898262Y-95029809D02*
X133945881Y-94934571D01*
X133945881Y-94744094D01*
X133898262Y-94648856D01*
X133803024Y-94601237D01*
X133422071Y-94601237D01*
X133326833Y-94648856D01*
X133279214Y-94744094D01*
X133279214Y-94934571D01*
X133326833Y-95029809D01*
X133422071Y-95077428D01*
X133517310Y-95077428D01*
X133612548Y-94601237D01*
X133945881Y-95934571D02*
X132945881Y-95934571D01*
X133898262Y-95934571D02*
X133945881Y-95839333D01*
X133945881Y-95648856D01*
X133898262Y-95553618D01*
X133850643Y-95505999D01*
X133755405Y-95458380D01*
X133469690Y-95458380D01*
X133374452Y-95505999D01*
X133326833Y-95553618D01*
X133279214Y-95648856D01*
X133279214Y-95839333D01*
X133326833Y-95934571D01*
X133945881Y-97172666D02*
X133279214Y-97172666D01*
X132945881Y-97172666D02*
X132993500Y-97125047D01*
X133041119Y-97172666D01*
X132993500Y-97220285D01*
X132945881Y-97172666D01*
X133041119Y-97172666D01*
X133279214Y-97648856D02*
X133945881Y-97648856D01*
X133374452Y-97648856D02*
X133326833Y-97696475D01*
X133279214Y-97791713D01*
X133279214Y-97934571D01*
X133326833Y-98029809D01*
X133422071Y-98077428D01*
X133945881Y-98077428D01*
X133422071Y-99648857D02*
X133469690Y-99791714D01*
X133517310Y-99839333D01*
X133612548Y-99886952D01*
X133755405Y-99886952D01*
X133850643Y-99839333D01*
X133898262Y-99791714D01*
X133945881Y-99696476D01*
X133945881Y-99315523D01*
X132945881Y-99315523D01*
X132945881Y-99648857D01*
X132993500Y-99744095D01*
X133041119Y-99791714D01*
X133136357Y-99839333D01*
X133231595Y-99839333D01*
X133326833Y-99791714D01*
X133374452Y-99744095D01*
X133422071Y-99648857D01*
X133422071Y-99315523D01*
X133945881Y-100744095D02*
X133422071Y-100744095D01*
X133326833Y-100696476D01*
X133279214Y-100601238D01*
X133279214Y-100410761D01*
X133326833Y-100315523D01*
X133898262Y-100744095D02*
X133945881Y-100648857D01*
X133945881Y-100410761D01*
X133898262Y-100315523D01*
X133803024Y-100267904D01*
X133707786Y-100267904D01*
X133612548Y-100315523D01*
X133564929Y-100410761D01*
X133564929Y-100648857D01*
X133517310Y-100744095D01*
X133945881Y-101220285D02*
X133279214Y-101220285D01*
X133469690Y-101220285D02*
X133374452Y-101267904D01*
X133326833Y-101315523D01*
X133279214Y-101410761D01*
X133279214Y-101506000D01*
X133898262Y-102267905D02*
X133945881Y-102172667D01*
X133945881Y-101982190D01*
X133898262Y-101886952D01*
X133850643Y-101839333D01*
X133755405Y-101791714D01*
X133469690Y-101791714D01*
X133374452Y-101839333D01*
X133326833Y-101886952D01*
X133279214Y-101982190D01*
X133279214Y-102172667D01*
X133326833Y-102267905D01*
X133898262Y-103077429D02*
X133945881Y-102982191D01*
X133945881Y-102791714D01*
X133898262Y-102696476D01*
X133803024Y-102648857D01*
X133422071Y-102648857D01*
X133326833Y-102696476D01*
X133279214Y-102791714D01*
X133279214Y-102982191D01*
X133326833Y-103077429D01*
X133422071Y-103125048D01*
X133517310Y-103125048D01*
X133612548Y-102648857D01*
X133945881Y-103696476D02*
X133898262Y-103601238D01*
X133803024Y-103553619D01*
X132945881Y-103553619D01*
X133945881Y-104220286D02*
X133898262Y-104125048D01*
X133850643Y-104077429D01*
X133755405Y-104029810D01*
X133469690Y-104029810D01*
X133374452Y-104077429D01*
X133326833Y-104125048D01*
X133279214Y-104220286D01*
X133279214Y-104363144D01*
X133326833Y-104458382D01*
X133374452Y-104506001D01*
X133469690Y-104553620D01*
X133755405Y-104553620D01*
X133850643Y-104506001D01*
X133898262Y-104458382D01*
X133945881Y-104363144D01*
X133945881Y-104220286D01*
X133279214Y-104982191D02*
X133945881Y-104982191D01*
X133374452Y-104982191D02*
X133326833Y-105029810D01*
X133279214Y-105125048D01*
X133279214Y-105267906D01*
X133326833Y-105363144D01*
X133422071Y-105410763D01*
X133945881Y-105410763D01*
X133945881Y-106315525D02*
X133422071Y-106315525D01*
X133326833Y-106267906D01*
X133279214Y-106172668D01*
X133279214Y-105982191D01*
X133326833Y-105886953D01*
X133898262Y-106315525D02*
X133945881Y-106220287D01*
X133945881Y-105982191D01*
X133898262Y-105886953D01*
X133803024Y-105839334D01*
X133707786Y-105839334D01*
X133612548Y-105886953D01*
X133564929Y-105982191D01*
X133564929Y-106220287D01*
X133517310Y-106315525D01*
D12*
G36*
X153089995Y-92170622D02*
X153373124Y-92644080D01*
X153786599Y-92786709D01*
X154058033Y-92700466D01*
X154394644Y-92589988D01*
X154466667Y-92700886D01*
X154628780Y-92885318D01*
X154994707Y-92898690D01*
X155383825Y-92747204D01*
X155482667Y-92666000D01*
X155641138Y-92307349D01*
X155729837Y-91718074D01*
X155736667Y-91501833D01*
X155736667Y-90591667D01*
X154890000Y-90591667D01*
X154890000Y-91226667D01*
X155063680Y-91403388D01*
X155101667Y-91637508D01*
X155004472Y-92042712D01*
X154890000Y-92179167D01*
X154733044Y-92104228D01*
X154678334Y-91768325D01*
X154749265Y-91364601D01*
X154890000Y-91226667D01*
X154890000Y-90591667D01*
X153831667Y-90591667D01*
X153831667Y-91226667D01*
X154003643Y-91403948D01*
X154043334Y-91650000D01*
X153954693Y-91993951D01*
X153831667Y-92073333D01*
X153659691Y-91896052D01*
X153620000Y-91650000D01*
X153708641Y-91306048D01*
X153831667Y-91226667D01*
X153831667Y-90591667D01*
X152985000Y-90591667D01*
X152985000Y-91423214D01*
X153089995Y-92170622D01*
X153089995Y-92170622D01*
G37*
X153089995Y-92170622D02*
X153373124Y-92644080D01*
X153786599Y-92786709D01*
X154058033Y-92700466D01*
X154394644Y-92589988D01*
X154466667Y-92700886D01*
X154628780Y-92885318D01*
X154994707Y-92898690D01*
X155383825Y-92747204D01*
X155482667Y-92666000D01*
X155641138Y-92307349D01*
X155729837Y-91718074D01*
X155736667Y-91501833D01*
X155736667Y-90591667D01*
X154890000Y-90591667D01*
X154890000Y-91226667D01*
X155063680Y-91403388D01*
X155101667Y-91637508D01*
X155004472Y-92042712D01*
X154890000Y-92179167D01*
X154733044Y-92104228D01*
X154678334Y-91768325D01*
X154749265Y-91364601D01*
X154890000Y-91226667D01*
X154890000Y-90591667D01*
X153831667Y-90591667D01*
X153831667Y-91226667D01*
X154003643Y-91403948D01*
X154043334Y-91650000D01*
X153954693Y-91993951D01*
X153831667Y-92073333D01*
X153659691Y-91896052D01*
X153620000Y-91650000D01*
X153708641Y-91306048D01*
X153831667Y-91226667D01*
X153831667Y-90591667D01*
X152985000Y-90591667D01*
X152985000Y-91423214D01*
X153089995Y-92170622D01*
G36*
X153069081Y-95484146D02*
X153267789Y-95853712D01*
X153500828Y-96025799D01*
X153687898Y-95906756D01*
X153708257Y-95854255D01*
X153767058Y-95424370D01*
X153763678Y-95036667D01*
X153798402Y-94661043D01*
X154059399Y-94522093D01*
X154360834Y-94507500D01*
X154807911Y-94558823D01*
X154958504Y-94784601D01*
X154957989Y-95036667D01*
X154968858Y-95711983D01*
X155125644Y-95992424D01*
X155421672Y-95881254D01*
X155685964Y-95417912D01*
X155702555Y-94795624D01*
X155481513Y-94191249D01*
X155313334Y-93978333D01*
X154712483Y-93624901D01*
X154068810Y-93616505D01*
X153493486Y-93903849D01*
X153097682Y-94437638D01*
X152985000Y-95010749D01*
X153069081Y-95484146D01*
X153069081Y-95484146D01*
G37*
X153069081Y-95484146D02*
X153267789Y-95853712D01*
X153500828Y-96025799D01*
X153687898Y-95906756D01*
X153708257Y-95854255D01*
X153767058Y-95424370D01*
X153763678Y-95036667D01*
X153798402Y-94661043D01*
X154059399Y-94522093D01*
X154360834Y-94507500D01*
X154807911Y-94558823D01*
X154958504Y-94784601D01*
X154957989Y-95036667D01*
X154968858Y-95711983D01*
X155125644Y-95992424D01*
X155421672Y-95881254D01*
X155685964Y-95417912D01*
X155702555Y-94795624D01*
X155481513Y-94191249D01*
X155313334Y-93978333D01*
X154712483Y-93624901D01*
X154068810Y-93616505D01*
X153493486Y-93903849D01*
X153097682Y-94437638D01*
X152985000Y-95010749D01*
X153069081Y-95484146D01*
G36*
X153024454Y-99005417D02*
X153159467Y-99229390D01*
X153519648Y-99361500D01*
X154197748Y-99432998D01*
X154312534Y-99439389D01*
X155168061Y-99419688D01*
X155627652Y-99250798D01*
X155691132Y-98932998D01*
X155358327Y-98466571D01*
X155076801Y-98206185D01*
X154360834Y-97593871D01*
X155048750Y-97585269D01*
X155578744Y-97495349D01*
X155736667Y-97259167D01*
X155644815Y-97081076D01*
X155316611Y-96982093D01*
X154673080Y-96943991D01*
X154360834Y-96941667D01*
X153518882Y-96979152D01*
X153078658Y-97109125D01*
X153023766Y-97357862D01*
X153337810Y-97751641D01*
X153671009Y-98047222D01*
X154360834Y-98623612D01*
X153657397Y-98629306D01*
X153174111Y-98681374D01*
X153014691Y-98863398D01*
X153024454Y-99005417D01*
X153024454Y-99005417D01*
G37*
X153024454Y-99005417D02*
X153159467Y-99229390D01*
X153519648Y-99361500D01*
X154197748Y-99432998D01*
X154312534Y-99439389D01*
X155168061Y-99419688D01*
X155627652Y-99250798D01*
X155691132Y-98932998D01*
X155358327Y-98466571D01*
X155076801Y-98206185D01*
X154360834Y-97593871D01*
X155048750Y-97585269D01*
X155578744Y-97495349D01*
X155736667Y-97259167D01*
X155644815Y-97081076D01*
X155316611Y-96982093D01*
X154673080Y-96943991D01*
X154360834Y-96941667D01*
X153518882Y-96979152D01*
X153078658Y-97109125D01*
X153023766Y-97357862D01*
X153337810Y-97751641D01*
X153671009Y-98047222D01*
X154360834Y-98623612D01*
X153657397Y-98629306D01*
X153174111Y-98681374D01*
X153014691Y-98863398D01*
X153024454Y-99005417D01*
G36*
X153058618Y-101953321D02*
X153272673Y-102241027D01*
X153616971Y-102134488D01*
X153764378Y-102004288D01*
X154082051Y-101897518D01*
X154442443Y-102055661D01*
X154913544Y-102223729D01*
X155261148Y-102104609D01*
X155562769Y-101714978D01*
X155692737Y-101152865D01*
X155628179Y-100614994D01*
X155463417Y-100365058D01*
X155131342Y-100221542D01*
X154975050Y-100431217D01*
X155016838Y-100865832D01*
X155028218Y-101284848D01*
X154878961Y-101483581D01*
X154673880Y-101388216D01*
X154573476Y-101178073D01*
X154365245Y-100802900D01*
X154073297Y-100836163D01*
X153874000Y-101005667D01*
X153680311Y-101114883D01*
X153620652Y-100856894D01*
X153620000Y-100794000D01*
X153497203Y-100416417D01*
X153302500Y-100328333D01*
X153093232Y-100452987D01*
X152997910Y-100876840D01*
X152985000Y-101280833D01*
X153058618Y-101953321D01*
X153058618Y-101953321D01*
G37*
X153058618Y-101953321D02*
X153272673Y-102241027D01*
X153616971Y-102134488D01*
X153764378Y-102004288D01*
X154082051Y-101897518D01*
X154442443Y-102055661D01*
X154913544Y-102223729D01*
X155261148Y-102104609D01*
X155562769Y-101714978D01*
X155692737Y-101152865D01*
X155628179Y-100614994D01*
X155463417Y-100365058D01*
X155131342Y-100221542D01*
X154975050Y-100431217D01*
X155016838Y-100865832D01*
X155028218Y-101284848D01*
X154878961Y-101483581D01*
X154673880Y-101388216D01*
X154573476Y-101178073D01*
X154365245Y-100802900D01*
X154073297Y-100836163D01*
X153874000Y-101005667D01*
X153680311Y-101114883D01*
X153620652Y-100856894D01*
X153620000Y-100794000D01*
X153497203Y-100416417D01*
X153302500Y-100328333D01*
X153093232Y-100452987D01*
X152997910Y-100876840D01*
X152985000Y-101280833D01*
X153058618Y-101953321D01*
G36*
X153118937Y-104474650D02*
X153459875Y-105090391D01*
X153916502Y-105510636D01*
X154279984Y-105620000D01*
X154847241Y-105430043D01*
X155344203Y-104944491D01*
X155667919Y-104289818D01*
X155736667Y-103830454D01*
X155736667Y-103080000D01*
X154360834Y-103080000D01*
X154360834Y-103715000D01*
X154897051Y-103765047D01*
X155083364Y-103967934D01*
X154986733Y-104402775D01*
X154973188Y-104438521D01*
X154682182Y-104706045D01*
X154237861Y-104756137D01*
X153850137Y-104588797D01*
X153748479Y-104438521D01*
X153636774Y-103986991D01*
X153803932Y-103772236D01*
X154316916Y-103715140D01*
X154360834Y-103715000D01*
X154360834Y-103080000D01*
X152985000Y-103080000D01*
X152985000Y-103792288D01*
X153118937Y-104474650D01*
X153118937Y-104474650D01*
G37*
X153118937Y-104474650D02*
X153459875Y-105090391D01*
X153916502Y-105510636D01*
X154279984Y-105620000D01*
X154847241Y-105430043D01*
X155344203Y-104944491D01*
X155667919Y-104289818D01*
X155736667Y-103830454D01*
X155736667Y-103080000D01*
X154360834Y-103080000D01*
X154360834Y-103715000D01*
X154897051Y-103765047D01*
X155083364Y-103967934D01*
X154986733Y-104402775D01*
X154973188Y-104438521D01*
X154682182Y-104706045D01*
X154237861Y-104756137D01*
X153850137Y-104588797D01*
X153748479Y-104438521D01*
X153636774Y-103986991D01*
X153803932Y-103772236D01*
X154316916Y-103715140D01*
X154360834Y-103715000D01*
X154360834Y-103080000D01*
X152985000Y-103080000D01*
X152985000Y-103792288D01*
X153118937Y-104474650D01*
G36*
X147307495Y-91231445D02*
X147478464Y-91358442D01*
X147870637Y-91419385D01*
X148571740Y-91437669D01*
X148857500Y-91438333D01*
X150445000Y-91438333D01*
X150445000Y-93025833D01*
X150454999Y-93837502D01*
X150500591Y-94313741D01*
X150605170Y-94542279D01*
X150792131Y-94610843D01*
X150868334Y-94613333D01*
X151065090Y-94582969D01*
X151189268Y-94439525D01*
X151257401Y-94104474D01*
X151286020Y-93499289D01*
X151291667Y-92602500D01*
X151291667Y-90591667D01*
X149280834Y-90591667D01*
X148346242Y-90598059D01*
X147756394Y-90628258D01*
X147432763Y-90698795D01*
X147296821Y-90826202D01*
X147270000Y-91015000D01*
X147307495Y-91231445D01*
X147307495Y-91231445D01*
G37*
X147307495Y-91231445D02*
X147478464Y-91358442D01*
X147870637Y-91419385D01*
X148571740Y-91437669D01*
X148857500Y-91438333D01*
X150445000Y-91438333D01*
X150445000Y-93025833D01*
X150454999Y-93837502D01*
X150500591Y-94313741D01*
X150605170Y-94542279D01*
X150792131Y-94610843D01*
X150868334Y-94613333D01*
X151065090Y-94582969D01*
X151189268Y-94439525D01*
X151257401Y-94104474D01*
X151286020Y-93499289D01*
X151291667Y-92602500D01*
X151291667Y-90591667D01*
X149280834Y-90591667D01*
X148346242Y-90598059D01*
X147756394Y-90628258D01*
X147432763Y-90698795D01*
X147296821Y-90826202D01*
X147270000Y-91015000D01*
X147307495Y-91231445D01*
G36*
X147300364Y-105393423D02*
X147443808Y-105517601D01*
X147778859Y-105585734D01*
X148384045Y-105614353D01*
X149280834Y-105620000D01*
X151291667Y-105620000D01*
X151291667Y-103503333D01*
X151285857Y-102539958D01*
X151258210Y-101923244D01*
X151193402Y-101576568D01*
X151076109Y-101423307D01*
X150891006Y-101386840D01*
X150868334Y-101386667D01*
X150657411Y-101422019D01*
X150530999Y-101584846D01*
X150467811Y-101960301D01*
X150446558Y-102633540D01*
X150445000Y-103080000D01*
X150445000Y-104773333D01*
X148857500Y-104773333D01*
X148045831Y-104783332D01*
X147569592Y-104828924D01*
X147341054Y-104933503D01*
X147272490Y-105120464D01*
X147270000Y-105196667D01*
X147300364Y-105393423D01*
X147300364Y-105393423D01*
G37*
X147300364Y-105393423D02*
X147443808Y-105517601D01*
X147778859Y-105585734D01*
X148384045Y-105614353D01*
X149280834Y-105620000D01*
X151291667Y-105620000D01*
X151291667Y-103503333D01*
X151285857Y-102539958D01*
X151258210Y-101923244D01*
X151193402Y-101576568D01*
X151076109Y-101423307D01*
X150891006Y-101386840D01*
X150868334Y-101386667D01*
X150657411Y-101422019D01*
X150530999Y-101584846D01*
X150467811Y-101960301D01*
X150446558Y-102633540D01*
X150445000Y-103080000D01*
X150445000Y-104773333D01*
X148857500Y-104773333D01*
X148045831Y-104783332D01*
X147569592Y-104828924D01*
X147341054Y-104933503D01*
X147272490Y-105120464D01*
X147270000Y-105196667D01*
X147300364Y-105393423D01*
G36*
X138006783Y-98570943D02*
X138227407Y-98864047D01*
X138591667Y-99026616D01*
X139069881Y-99294790D01*
X139207648Y-99697002D01*
X139029300Y-100316407D01*
X138992959Y-100398014D01*
X138875014Y-100868532D01*
X139040632Y-101333928D01*
X139126067Y-101470782D01*
X139462719Y-101857951D01*
X139871277Y-101945202D01*
X140167100Y-101904132D01*
X140801785Y-101908149D01*
X141191770Y-102234808D01*
X141375969Y-102861269D01*
X141575590Y-103296399D01*
X142086213Y-103564621D01*
X142146694Y-103582562D01*
X142658517Y-103680513D01*
X142970770Y-103558005D01*
X143164113Y-103325043D01*
X143626675Y-102933801D01*
X144126283Y-102939856D01*
X144556241Y-103321979D01*
X144795716Y-103606196D01*
X145085173Y-103666383D01*
X145590978Y-103533490D01*
X145627898Y-103521354D01*
X146156992Y-103286357D01*
X146397142Y-102957536D01*
X146463756Y-102591458D01*
X146541795Y-102148831D01*
X146749015Y-101970823D01*
X147221853Y-101956295D01*
X147313765Y-101961360D01*
X147906538Y-101928246D01*
X148311357Y-101671138D01*
X148553361Y-101367903D01*
X148837799Y-100928457D01*
X148877877Y-100654309D01*
X148689224Y-100376668D01*
X148649268Y-100332128D01*
X148404104Y-99813348D01*
X148529965Y-99324892D01*
X148986282Y-98996079D01*
X149076752Y-98969510D01*
X149420768Y-98817717D01*
X149569594Y-98504076D01*
X149598334Y-98000000D01*
X149557167Y-97435814D01*
X149384893Y-97153212D01*
X149084483Y-97032430D01*
X148572294Y-96752419D01*
X148432627Y-96291281D01*
X148651961Y-95738442D01*
X148856371Y-95355041D01*
X148818191Y-95043101D01*
X148567499Y-94657017D01*
X148152288Y-94245750D01*
X147607266Y-94093527D01*
X147339487Y-94084167D01*
X146807147Y-94052685D01*
X146562873Y-93891108D01*
X146472419Y-93498737D01*
X146465236Y-93428383D01*
X146350628Y-92962983D01*
X146038505Y-92686932D01*
X145618569Y-92527956D01*
X145086433Y-92392823D01*
X144783025Y-92443911D01*
X144545433Y-92707489D01*
X144088930Y-93072719D01*
X143914983Y-93069123D01*
X143914983Y-94689353D01*
X144964842Y-94894799D01*
X145907984Y-95436151D01*
X146658538Y-96293537D01*
X146782587Y-96509871D01*
X147163312Y-97425614D01*
X147227206Y-98243099D01*
X146979324Y-99135867D01*
X146866683Y-99396774D01*
X146258011Y-100296590D01*
X145417166Y-100945965D01*
X144439518Y-101313715D01*
X143420436Y-101368658D01*
X142455291Y-101079612D01*
X142195037Y-100924233D01*
X141269962Y-100085697D01*
X140696712Y-99111104D01*
X140479740Y-98069894D01*
X140623498Y-97031506D01*
X141132439Y-96065381D01*
X141838597Y-95365675D01*
X142844277Y-94839688D01*
X143914983Y-94689353D01*
X143914983Y-93069123D01*
X143552908Y-93061636D01*
X143070595Y-92699905D01*
X142774116Y-92421411D01*
X142431523Y-92390888D01*
X142031250Y-92508944D01*
X141534039Y-92765193D01*
X141352393Y-93131493D01*
X141343334Y-93287788D01*
X141177379Y-93881729D01*
X140745819Y-94201613D01*
X140148111Y-94177300D01*
X140104358Y-94161558D01*
X139709351Y-94036007D01*
X139552099Y-94025328D01*
X139418428Y-94220421D01*
X139136424Y-94629947D01*
X139054828Y-94748274D01*
X138774318Y-95204487D01*
X138741325Y-95472831D01*
X138911707Y-95673775D01*
X139214214Y-96129813D01*
X139134083Y-96594310D01*
X138696525Y-96962281D01*
X138591667Y-97006458D01*
X138160295Y-97233332D01*
X137984495Y-97578488D01*
X137956667Y-98025699D01*
X138006783Y-98570943D01*
X138006783Y-98570943D01*
G37*
X138006783Y-98570943D02*
X138227407Y-98864047D01*
X138591667Y-99026616D01*
X139069881Y-99294790D01*
X139207648Y-99697002D01*
X139029300Y-100316407D01*
X138992959Y-100398014D01*
X138875014Y-100868532D01*
X139040632Y-101333928D01*
X139126067Y-101470782D01*
X139462719Y-101857951D01*
X139871277Y-101945202D01*
X140167100Y-101904132D01*
X140801785Y-101908149D01*
X141191770Y-102234808D01*
X141375969Y-102861269D01*
X141575590Y-103296399D01*
X142086213Y-103564621D01*
X142146694Y-103582562D01*
X142658517Y-103680513D01*
X142970770Y-103558005D01*
X143164113Y-103325043D01*
X143626675Y-102933801D01*
X144126283Y-102939856D01*
X144556241Y-103321979D01*
X144795716Y-103606196D01*
X145085173Y-103666383D01*
X145590978Y-103533490D01*
X145627898Y-103521354D01*
X146156992Y-103286357D01*
X146397142Y-102957536D01*
X146463756Y-102591458D01*
X146541795Y-102148831D01*
X146749015Y-101970823D01*
X147221853Y-101956295D01*
X147313765Y-101961360D01*
X147906538Y-101928246D01*
X148311357Y-101671138D01*
X148553361Y-101367903D01*
X148837799Y-100928457D01*
X148877877Y-100654309D01*
X148689224Y-100376668D01*
X148649268Y-100332128D01*
X148404104Y-99813348D01*
X148529965Y-99324892D01*
X148986282Y-98996079D01*
X149076752Y-98969510D01*
X149420768Y-98817717D01*
X149569594Y-98504076D01*
X149598334Y-98000000D01*
X149557167Y-97435814D01*
X149384893Y-97153212D01*
X149084483Y-97032430D01*
X148572294Y-96752419D01*
X148432627Y-96291281D01*
X148651961Y-95738442D01*
X148856371Y-95355041D01*
X148818191Y-95043101D01*
X148567499Y-94657017D01*
X148152288Y-94245750D01*
X147607266Y-94093527D01*
X147339487Y-94084167D01*
X146807147Y-94052685D01*
X146562873Y-93891108D01*
X146472419Y-93498737D01*
X146465236Y-93428383D01*
X146350628Y-92962983D01*
X146038505Y-92686932D01*
X145618569Y-92527956D01*
X145086433Y-92392823D01*
X144783025Y-92443911D01*
X144545433Y-92707489D01*
X144088930Y-93072719D01*
X143914983Y-93069123D01*
X143914983Y-94689353D01*
X144964842Y-94894799D01*
X145907984Y-95436151D01*
X146658538Y-96293537D01*
X146782587Y-96509871D01*
X147163312Y-97425614D01*
X147227206Y-98243099D01*
X146979324Y-99135867D01*
X146866683Y-99396774D01*
X146258011Y-100296590D01*
X145417166Y-100945965D01*
X144439518Y-101313715D01*
X143420436Y-101368658D01*
X142455291Y-101079612D01*
X142195037Y-100924233D01*
X141269962Y-100085697D01*
X140696712Y-99111104D01*
X140479740Y-98069894D01*
X140623498Y-97031506D01*
X141132439Y-96065381D01*
X141838597Y-95365675D01*
X142844277Y-94839688D01*
X143914983Y-94689353D01*
X143914983Y-93069123D01*
X143552908Y-93061636D01*
X143070595Y-92699905D01*
X142774116Y-92421411D01*
X142431523Y-92390888D01*
X142031250Y-92508944D01*
X141534039Y-92765193D01*
X141352393Y-93131493D01*
X141343334Y-93287788D01*
X141177379Y-93881729D01*
X140745819Y-94201613D01*
X140148111Y-94177300D01*
X140104358Y-94161558D01*
X139709351Y-94036007D01*
X139552099Y-94025328D01*
X139418428Y-94220421D01*
X139136424Y-94629947D01*
X139054828Y-94748274D01*
X138774318Y-95204487D01*
X138741325Y-95472831D01*
X138911707Y-95673775D01*
X139214214Y-96129813D01*
X139134083Y-96594310D01*
X138696525Y-96962281D01*
X138591667Y-97006458D01*
X138160295Y-97233332D01*
X137984495Y-97578488D01*
X137956667Y-98025699D01*
X138006783Y-98570943D01*
G36*
X136269726Y-93537091D02*
X136299925Y-94126939D01*
X136370462Y-94450571D01*
X136497869Y-94586512D01*
X136686667Y-94613333D01*
X136903112Y-94575838D01*
X137030109Y-94404869D01*
X137091052Y-94012697D01*
X137109336Y-93311594D01*
X137110000Y-93025833D01*
X137110000Y-91438333D01*
X138803334Y-91438333D01*
X139647025Y-91429495D01*
X140152670Y-91388788D01*
X140405422Y-91294924D01*
X140490436Y-91126615D01*
X140496667Y-91015000D01*
X140467616Y-90822325D01*
X140329383Y-90698982D01*
X140005344Y-90629647D01*
X139418878Y-90598995D01*
X138493361Y-90591701D01*
X138380000Y-90591667D01*
X136263334Y-90591667D01*
X136263334Y-92602500D01*
X136269726Y-93537091D01*
X136269726Y-93537091D01*
G37*
X136269726Y-93537091D02*
X136299925Y-94126939D01*
X136370462Y-94450571D01*
X136497869Y-94586512D01*
X136686667Y-94613333D01*
X136903112Y-94575838D01*
X137030109Y-94404869D01*
X137091052Y-94012697D01*
X137109336Y-93311594D01*
X137110000Y-93025833D01*
X137110000Y-91438333D01*
X138803334Y-91438333D01*
X139647025Y-91429495D01*
X140152670Y-91388788D01*
X140405422Y-91294924D01*
X140490436Y-91126615D01*
X140496667Y-91015000D01*
X140467616Y-90822325D01*
X140329383Y-90698982D01*
X140005344Y-90629647D01*
X139418878Y-90598995D01*
X138493361Y-90591701D01*
X138380000Y-90591667D01*
X136263334Y-90591667D01*
X136263334Y-92602500D01*
X136269726Y-93537091D01*
G36*
X136306002Y-103361741D02*
X136308585Y-103450417D01*
X136369167Y-105514167D01*
X138377101Y-105514167D01*
X139326944Y-105504358D01*
X139932310Y-105465821D01*
X140271787Y-105384889D01*
X140423965Y-105247898D01*
X140454609Y-105152901D01*
X140436353Y-104967934D01*
X140242089Y-104850660D01*
X139793046Y-104780036D01*
X139010455Y-104735017D01*
X138870008Y-104729568D01*
X137215834Y-104667500D01*
X137154013Y-103027083D01*
X137112293Y-102197516D01*
X137047636Y-101705370D01*
X136934703Y-101464741D01*
X136748152Y-101389726D01*
X136670098Y-101386667D01*
X136477005Y-101413902D01*
X136357651Y-101547375D01*
X136298434Y-101864738D01*
X136285752Y-102443642D01*
X136306002Y-103361741D01*
X136306002Y-103361741D01*
G37*
X136306002Y-103361741D02*
X136308585Y-103450417D01*
X136369167Y-105514167D01*
X138377101Y-105514167D01*
X139326944Y-105504358D01*
X139932310Y-105465821D01*
X140271787Y-105384889D01*
X140423965Y-105247898D01*
X140454609Y-105152901D01*
X140436353Y-104967934D01*
X140242089Y-104850660D01*
X139793046Y-104780036D01*
X139010455Y-104735017D01*
X138870008Y-104729568D01*
X137215834Y-104667500D01*
X137154013Y-103027083D01*
X137112293Y-102197516D01*
X137047636Y-101705370D01*
X136934703Y-101464741D01*
X136748152Y-101389726D01*
X136670098Y-101386667D01*
X136477005Y-101413902D01*
X136357651Y-101547375D01*
X136298434Y-101864738D01*
X136285752Y-102443642D01*
X136306002Y-103361741D01*
G36*
X141497423Y-98698384D02*
X141690372Y-99211793D01*
X142060998Y-99669150D01*
X142849416Y-100241849D01*
X143709176Y-100468044D01*
X144556021Y-100379035D01*
X145305692Y-100006116D01*
X145873932Y-99380587D01*
X146176481Y-98533742D01*
X146204166Y-98130205D01*
X146130415Y-97435865D01*
X145958118Y-96838329D01*
X145916285Y-96753298D01*
X145322153Y-96101313D01*
X144434048Y-95746774D01*
X143986339Y-95703909D01*
X143986339Y-97063616D01*
X144292473Y-97145737D01*
X144623161Y-97531962D01*
X144732893Y-98095116D01*
X144599913Y-98638594D01*
X144476000Y-98804333D01*
X144000369Y-99031441D01*
X143477653Y-98942622D01*
X143042478Y-98604298D01*
X142829473Y-98082894D01*
X142825000Y-97989760D01*
X143008585Y-97518596D01*
X143450245Y-97178508D01*
X143986339Y-97063616D01*
X143986339Y-95703909D01*
X143727923Y-95679167D01*
X142986445Y-95763435D01*
X142374605Y-96093418D01*
X142140423Y-96289304D01*
X141713082Y-96728917D01*
X141509325Y-97164891D01*
X141450479Y-97788366D01*
X141449167Y-97968738D01*
X141497423Y-98698384D01*
X141497423Y-98698384D01*
G37*
X141497423Y-98698384D02*
X141690372Y-99211793D01*
X142060998Y-99669150D01*
X142849416Y-100241849D01*
X143709176Y-100468044D01*
X144556021Y-100379035D01*
X145305692Y-100006116D01*
X145873932Y-99380587D01*
X146176481Y-98533742D01*
X146204166Y-98130205D01*
X146130415Y-97435865D01*
X145958118Y-96838329D01*
X145916285Y-96753298D01*
X145322153Y-96101313D01*
X144434048Y-95746774D01*
X143986339Y-95703909D01*
X143986339Y-97063616D01*
X144292473Y-97145737D01*
X144623161Y-97531962D01*
X144732893Y-98095116D01*
X144599913Y-98638594D01*
X144476000Y-98804333D01*
X144000369Y-99031441D01*
X143477653Y-98942622D01*
X143042478Y-98604298D01*
X142829473Y-98082894D01*
X142825000Y-97989760D01*
X143008585Y-97518596D01*
X143450245Y-97178508D01*
X143986339Y-97063616D01*
X143986339Y-95703909D01*
X143727923Y-95679167D01*
X142986445Y-95763435D01*
X142374605Y-96093418D01*
X142140423Y-96289304D01*
X141713082Y-96728917D01*
X141509325Y-97164891D01*
X141450479Y-97788366D01*
X141449167Y-97968738D01*
X141497423Y-98698384D01*
G36*
X148813418Y-113105744D02*
X148841068Y-113161201D01*
X148891980Y-113210148D01*
X148910838Y-113223629D01*
X148935515Y-113238314D01*
X148962316Y-113247842D01*
X148998087Y-113253293D01*
X149049669Y-113255747D01*
X149117767Y-113256286D01*
X149211088Y-113253852D01*
X149281157Y-113245394D01*
X149333431Y-113229174D01*
X149373369Y-113203454D01*
X149406429Y-113166497D01*
X149408386Y-113163782D01*
X149428408Y-113127360D01*
X149438315Y-113083502D01*
X149440757Y-113027724D01*
X149440757Y-112937048D01*
X149528783Y-112937010D01*
X149577808Y-112936166D01*
X149606565Y-112931024D01*
X149623811Y-112917587D01*
X149638308Y-112891858D01*
X149641269Y-112885679D01*
X149655148Y-112856764D01*
X149663914Y-112834376D01*
X149664671Y-112817729D01*
X149654523Y-112806036D01*
X149630573Y-112798510D01*
X149589926Y-112794366D01*
X149529686Y-112792815D01*
X149446955Y-112793071D01*
X149338839Y-112794349D01*
X149306500Y-112794748D01*
X149195024Y-112796185D01*
X149122103Y-112797472D01*
X149122103Y-112936971D01*
X149183999Y-112937755D01*
X149224497Y-112941240D01*
X149251208Y-112949124D01*
X149271744Y-112963105D01*
X149281760Y-112972597D01*
X149311067Y-113011404D01*
X149313452Y-113045763D01*
X149289250Y-113081216D01*
X149288357Y-113082114D01*
X149269653Y-113096539D01*
X149244232Y-113105313D01*
X149205084Y-113109739D01*
X149145197Y-113111118D01*
X149131930Y-113111143D01*
X149049401Y-113107812D01*
X148992191Y-113096969D01*
X148957266Y-113077340D01*
X148941594Y-113047650D01*
X148940014Y-113030491D01*
X148947426Y-112989766D01*
X148971830Y-112961832D01*
X149016480Y-112945017D01*
X149084630Y-112937650D01*
X149122103Y-112936971D01*
X149122103Y-112797472D01*
X149108745Y-112797708D01*
X149043833Y-112799677D01*
X148996458Y-112802450D01*
X148962790Y-112806388D01*
X148938998Y-112811849D01*
X148921253Y-112819192D01*
X148905724Y-112828777D01*
X148899881Y-112832887D01*
X148844685Y-112887405D01*
X148813390Y-112956336D01*
X148804665Y-113036072D01*
X148813418Y-113105744D01*
X148813418Y-113105744D01*
G37*
X148813418Y-113105744D02*
X148841068Y-113161201D01*
X148891980Y-113210148D01*
X148910838Y-113223629D01*
X148935515Y-113238314D01*
X148962316Y-113247842D01*
X148998087Y-113253293D01*
X149049669Y-113255747D01*
X149117767Y-113256286D01*
X149211088Y-113253852D01*
X149281157Y-113245394D01*
X149333431Y-113229174D01*
X149373369Y-113203454D01*
X149406429Y-113166497D01*
X149408386Y-113163782D01*
X149428408Y-113127360D01*
X149438315Y-113083502D01*
X149440757Y-113027724D01*
X149440757Y-112937048D01*
X149528783Y-112937010D01*
X149577808Y-112936166D01*
X149606565Y-112931024D01*
X149623811Y-112917587D01*
X149638308Y-112891858D01*
X149641269Y-112885679D01*
X149655148Y-112856764D01*
X149663914Y-112834376D01*
X149664671Y-112817729D01*
X149654523Y-112806036D01*
X149630573Y-112798510D01*
X149589926Y-112794366D01*
X149529686Y-112792815D01*
X149446955Y-112793071D01*
X149338839Y-112794349D01*
X149306500Y-112794748D01*
X149195024Y-112796185D01*
X149122103Y-112797472D01*
X149122103Y-112936971D01*
X149183999Y-112937755D01*
X149224497Y-112941240D01*
X149251208Y-112949124D01*
X149271744Y-112963105D01*
X149281760Y-112972597D01*
X149311067Y-113011404D01*
X149313452Y-113045763D01*
X149289250Y-113081216D01*
X149288357Y-113082114D01*
X149269653Y-113096539D01*
X149244232Y-113105313D01*
X149205084Y-113109739D01*
X149145197Y-113111118D01*
X149131930Y-113111143D01*
X149049401Y-113107812D01*
X148992191Y-113096969D01*
X148957266Y-113077340D01*
X148941594Y-113047650D01*
X148940014Y-113030491D01*
X148947426Y-112989766D01*
X148971830Y-112961832D01*
X149016480Y-112945017D01*
X149084630Y-112937650D01*
X149122103Y-112936971D01*
X149122103Y-112797472D01*
X149108745Y-112797708D01*
X149043833Y-112799677D01*
X148996458Y-112802450D01*
X148962790Y-112806388D01*
X148938998Y-112811849D01*
X148921253Y-112819192D01*
X148905724Y-112828777D01*
X148899881Y-112832887D01*
X148844685Y-112887405D01*
X148813390Y-112956336D01*
X148804665Y-113036072D01*
X148813418Y-113105744D01*
G36*
X148821280Y-114222093D02*
X148848223Y-114268672D01*
X148874966Y-114301057D01*
X148902984Y-114324742D01*
X148937248Y-114341059D01*
X148982727Y-114351339D01*
X149044392Y-114356914D01*
X149127211Y-114359116D01*
X149186746Y-114359371D01*
X149405891Y-114359371D01*
X149433544Y-114297686D01*
X149461197Y-114236000D01*
X149221170Y-114228743D01*
X149131528Y-114225744D01*
X149066462Y-114222598D01*
X149021526Y-114218701D01*
X148992270Y-114213447D01*
X148974248Y-114206231D01*
X148963011Y-114196450D01*
X148960579Y-114193312D01*
X148941583Y-114145761D01*
X148949100Y-114097697D01*
X148969043Y-114069086D01*
X148983175Y-114057447D01*
X149001720Y-114049391D01*
X149029834Y-114044271D01*
X149072673Y-114041441D01*
X149135395Y-114040256D01*
X149200761Y-114040057D01*
X149282768Y-114040018D01*
X149340816Y-114038614D01*
X149379965Y-114033914D01*
X149405280Y-114023987D01*
X149421823Y-114006903D01*
X149434656Y-113980732D01*
X149447991Y-113945775D01*
X149462507Y-113907596D01*
X149204889Y-113912141D01*
X149112019Y-113913971D01*
X149043389Y-113916112D01*
X148994211Y-113919181D01*
X148959698Y-113923794D01*
X148935062Y-113930568D01*
X148915516Y-113940119D01*
X148898270Y-113951634D01*
X148843180Y-114007190D01*
X148811322Y-114074980D01*
X148803691Y-114148713D01*
X148821280Y-114222093D01*
X148821280Y-114222093D01*
G37*
X148821280Y-114222093D02*
X148848223Y-114268672D01*
X148874966Y-114301057D01*
X148902984Y-114324742D01*
X148937248Y-114341059D01*
X148982727Y-114351339D01*
X149044392Y-114356914D01*
X149127211Y-114359116D01*
X149186746Y-114359371D01*
X149405891Y-114359371D01*
X149433544Y-114297686D01*
X149461197Y-114236000D01*
X149221170Y-114228743D01*
X149131528Y-114225744D01*
X149066462Y-114222598D01*
X149021526Y-114218701D01*
X148992270Y-114213447D01*
X148974248Y-114206231D01*
X148963011Y-114196450D01*
X148960579Y-114193312D01*
X148941583Y-114145761D01*
X148949100Y-114097697D01*
X148969043Y-114069086D01*
X148983175Y-114057447D01*
X149001720Y-114049391D01*
X149029834Y-114044271D01*
X149072673Y-114041441D01*
X149135395Y-114040256D01*
X149200761Y-114040057D01*
X149282768Y-114040018D01*
X149340816Y-114038614D01*
X149379965Y-114033914D01*
X149405280Y-114023987D01*
X149421823Y-114006903D01*
X149434656Y-113980732D01*
X149447991Y-113945775D01*
X149462507Y-113907596D01*
X149204889Y-113912141D01*
X149112019Y-113913971D01*
X149043389Y-113916112D01*
X148994211Y-113919181D01*
X148959698Y-113923794D01*
X148935062Y-113930568D01*
X148915516Y-113940119D01*
X148898270Y-113951634D01*
X148843180Y-114007190D01*
X148811322Y-114074980D01*
X148803691Y-114148713D01*
X148821280Y-114222093D01*
G36*
X148815462Y-112547115D02*
X148851233Y-112615145D01*
X148908801Y-112665351D01*
X148945812Y-112683185D01*
X149001382Y-112697063D01*
X149071596Y-112704167D01*
X149148227Y-112704840D01*
X149223052Y-112699427D01*
X149287842Y-112688270D01*
X149334373Y-112671714D01*
X149342387Y-112666626D01*
X149402207Y-112606355D01*
X149438035Y-112534769D01*
X149448520Y-112457092D01*
X149432310Y-112378548D01*
X149422592Y-112356689D01*
X149392643Y-112314122D01*
X149352933Y-112276763D01*
X149347897Y-112273232D01*
X149323624Y-112258881D01*
X149297678Y-112249394D01*
X149263522Y-112243790D01*
X149214619Y-112241086D01*
X149144435Y-112240299D01*
X149128700Y-112240286D01*
X149123692Y-112240322D01*
X149123692Y-112385429D01*
X149189930Y-112386273D01*
X149233886Y-112389596D01*
X149262279Y-112396583D01*
X149281825Y-112408416D01*
X149288357Y-112414457D01*
X149313180Y-112449186D01*
X149312048Y-112482903D01*
X149290516Y-112516995D01*
X149267529Y-112537329D01*
X149233978Y-112549371D01*
X149181069Y-112556134D01*
X149174899Y-112556598D01*
X149079013Y-112557752D01*
X149007799Y-112545688D01*
X148961694Y-112520570D01*
X148941135Y-112482560D01*
X148940014Y-112468992D01*
X148945652Y-112433364D01*
X148965186Y-112408994D01*
X149002542Y-112394093D01*
X149061650Y-112386875D01*
X149123692Y-112385429D01*
X149123692Y-112240322D01*
X149053913Y-112240826D01*
X149001659Y-112243096D01*
X148965449Y-112248068D01*
X148938799Y-112256713D01*
X148915222Y-112270005D01*
X148910838Y-112272943D01*
X148851749Y-112322313D01*
X148817447Y-112376109D01*
X148803831Y-112441602D01*
X148803165Y-112463842D01*
X148815462Y-112547115D01*
X148815462Y-112547115D01*
G37*
X148815462Y-112547115D02*
X148851233Y-112615145D01*
X148908801Y-112665351D01*
X148945812Y-112683185D01*
X149001382Y-112697063D01*
X149071596Y-112704167D01*
X149148227Y-112704840D01*
X149223052Y-112699427D01*
X149287842Y-112688270D01*
X149334373Y-112671714D01*
X149342387Y-112666626D01*
X149402207Y-112606355D01*
X149438035Y-112534769D01*
X149448520Y-112457092D01*
X149432310Y-112378548D01*
X149422592Y-112356689D01*
X149392643Y-112314122D01*
X149352933Y-112276763D01*
X149347897Y-112273232D01*
X149323624Y-112258881D01*
X149297678Y-112249394D01*
X149263522Y-112243790D01*
X149214619Y-112241086D01*
X149144435Y-112240299D01*
X149128700Y-112240286D01*
X149123692Y-112240322D01*
X149123692Y-112385429D01*
X149189930Y-112386273D01*
X149233886Y-112389596D01*
X149262279Y-112396583D01*
X149281825Y-112408416D01*
X149288357Y-112414457D01*
X149313180Y-112449186D01*
X149312048Y-112482903D01*
X149290516Y-112516995D01*
X149267529Y-112537329D01*
X149233978Y-112549371D01*
X149181069Y-112556134D01*
X149174899Y-112556598D01*
X149079013Y-112557752D01*
X149007799Y-112545688D01*
X148961694Y-112520570D01*
X148941135Y-112482560D01*
X148940014Y-112468992D01*
X148945652Y-112433364D01*
X148965186Y-112408994D01*
X149002542Y-112394093D01*
X149061650Y-112386875D01*
X149123692Y-112385429D01*
X149123692Y-112240322D01*
X149053913Y-112240826D01*
X149001659Y-112243096D01*
X148965449Y-112248068D01*
X148938799Y-112256713D01*
X148915222Y-112270005D01*
X148910838Y-112272943D01*
X148851749Y-112322313D01*
X148817447Y-112376109D01*
X148803831Y-112441602D01*
X148803165Y-112463842D01*
X148815462Y-112547115D01*
G36*
X148824739Y-113674303D02*
X148863235Y-113731527D01*
X148918835Y-113775749D01*
X148989586Y-113802167D01*
X149041662Y-113807510D01*
X149063393Y-113806903D01*
X149080031Y-113801822D01*
X149094937Y-113787855D01*
X149111473Y-113760589D01*
X149132998Y-113715612D01*
X149162874Y-113648511D01*
X149163024Y-113648171D01*
X149191313Y-113586407D01*
X149216433Y-113535759D01*
X149235679Y-113501404D01*
X149246348Y-113488518D01*
X149246434Y-113488514D01*
X149269666Y-113499872D01*
X149295274Y-113526431D01*
X149313721Y-113556923D01*
X149317386Y-113572370D01*
X149304712Y-113614515D01*
X149272971Y-113650808D01*
X149238072Y-113668517D01*
X149212345Y-113685552D01*
X149183046Y-113718922D01*
X149157735Y-113758149D01*
X149143971Y-113792756D01*
X149143214Y-113799993D01*
X149155660Y-113808139D01*
X149187472Y-113808630D01*
X149230366Y-113802643D01*
X149276058Y-113791357D01*
X149316261Y-113775950D01*
X149317822Y-113775171D01*
X149382562Y-113728804D01*
X149426597Y-113668711D01*
X149448211Y-113600465D01*
X149445685Y-113529638D01*
X149417304Y-113461804D01*
X149415308Y-113458788D01*
X149366948Y-113405427D01*
X149303852Y-113370340D01*
X149220887Y-113350922D01*
X149197578Y-113348316D01*
X149087555Y-113343701D01*
X149036248Y-113349233D01*
X149036248Y-113488514D01*
X149068253Y-113490324D01*
X149077593Y-113500222D01*
X149070605Y-113524898D01*
X149054087Y-113563795D01*
X149033381Y-113607275D01*
X149032833Y-113608356D01*
X149013449Y-113645209D01*
X149000513Y-113660000D01*
X148986951Y-113656353D01*
X148969132Y-113640995D01*
X148943345Y-113601923D01*
X148941450Y-113559846D01*
X148960217Y-113522103D01*
X148996415Y-113496034D01*
X149036248Y-113488514D01*
X149036248Y-113349233D01*
X148999527Y-113353194D01*
X148929712Y-113377550D01*
X148880802Y-113411456D01*
X148831378Y-113472653D01*
X148806859Y-113540063D01*
X148805297Y-113608880D01*
X148824739Y-113674303D01*
X148824739Y-113674303D01*
G37*
X148824739Y-113674303D02*
X148863235Y-113731527D01*
X148918835Y-113775749D01*
X148989586Y-113802167D01*
X149041662Y-113807510D01*
X149063393Y-113806903D01*
X149080031Y-113801822D01*
X149094937Y-113787855D01*
X149111473Y-113760589D01*
X149132998Y-113715612D01*
X149162874Y-113648511D01*
X149163024Y-113648171D01*
X149191313Y-113586407D01*
X149216433Y-113535759D01*
X149235679Y-113501404D01*
X149246348Y-113488518D01*
X149246434Y-113488514D01*
X149269666Y-113499872D01*
X149295274Y-113526431D01*
X149313721Y-113556923D01*
X149317386Y-113572370D01*
X149304712Y-113614515D01*
X149272971Y-113650808D01*
X149238072Y-113668517D01*
X149212345Y-113685552D01*
X149183046Y-113718922D01*
X149157735Y-113758149D01*
X149143971Y-113792756D01*
X149143214Y-113799993D01*
X149155660Y-113808139D01*
X149187472Y-113808630D01*
X149230366Y-113802643D01*
X149276058Y-113791357D01*
X149316261Y-113775950D01*
X149317822Y-113775171D01*
X149382562Y-113728804D01*
X149426597Y-113668711D01*
X149448211Y-113600465D01*
X149445685Y-113529638D01*
X149417304Y-113461804D01*
X149415308Y-113458788D01*
X149366948Y-113405427D01*
X149303852Y-113370340D01*
X149220887Y-113350922D01*
X149197578Y-113348316D01*
X149087555Y-113343701D01*
X149036248Y-113349233D01*
X149036248Y-113488514D01*
X149068253Y-113490324D01*
X149077593Y-113500222D01*
X149070605Y-113524898D01*
X149054087Y-113563795D01*
X149033381Y-113607275D01*
X149032833Y-113608356D01*
X149013449Y-113645209D01*
X149000513Y-113660000D01*
X148986951Y-113656353D01*
X148969132Y-113640995D01*
X148943345Y-113601923D01*
X148941450Y-113559846D01*
X148960217Y-113522103D01*
X148996415Y-113496034D01*
X149036248Y-113488514D01*
X149036248Y-113349233D01*
X148999527Y-113353194D01*
X148929712Y-113377550D01*
X148880802Y-113411456D01*
X148831378Y-113472653D01*
X148806859Y-113540063D01*
X148805297Y-113608880D01*
X148824739Y-113674303D01*
G36*
X148744789Y-114881886D02*
X148804113Y-114886139D01*
X148839072Y-114891025D01*
X148854320Y-114897795D01*
X148854515Y-114907702D01*
X148852695Y-114910914D01*
X148839515Y-114953644D01*
X148840285Y-115009227D01*
X148853833Y-115065737D01*
X148871361Y-115101082D01*
X148899361Y-115137321D01*
X148931049Y-115163813D01*
X148971313Y-115181999D01*
X149025043Y-115193322D01*
X149097126Y-115199222D01*
X149192451Y-115201143D01*
X149210737Y-115201177D01*
X149416146Y-115201200D01*
X149432080Y-115155491D01*
X149442920Y-115123027D01*
X149447968Y-115105215D01*
X149448014Y-115104691D01*
X149434328Y-115102937D01*
X149396576Y-115101444D01*
X149339724Y-115100326D01*
X149268734Y-115099697D01*
X149225573Y-115099600D01*
X149140473Y-115099398D01*
X149079481Y-115098358D01*
X149037677Y-115095831D01*
X149010142Y-115091164D01*
X148991956Y-115083707D01*
X148978198Y-115072811D01*
X148971573Y-115066007D01*
X148944875Y-115019272D01*
X148942875Y-114968272D01*
X148965455Y-114922001D01*
X148973607Y-114913444D01*
X148988936Y-114900893D01*
X149007118Y-114892188D01*
X149033409Y-114886631D01*
X149073062Y-114883526D01*
X149131332Y-114882176D01*
X149211673Y-114881886D01*
X149416146Y-114881886D01*
X149432080Y-114836177D01*
X149442920Y-114803713D01*
X149447968Y-114785901D01*
X149448014Y-114785377D01*
X149434123Y-114784037D01*
X149394939Y-114782828D01*
X149334200Y-114781801D01*
X149255641Y-114781002D01*
X149162998Y-114780481D01*
X149060009Y-114780286D01*
X148662842Y-114780286D01*
X148642944Y-114827457D01*
X148623047Y-114874629D01*
X148744789Y-114881886D01*
X148744789Y-114881886D01*
G37*
X148744789Y-114881886D02*
X148804113Y-114886139D01*
X148839072Y-114891025D01*
X148854320Y-114897795D01*
X148854515Y-114907702D01*
X148852695Y-114910914D01*
X148839515Y-114953644D01*
X148840285Y-115009227D01*
X148853833Y-115065737D01*
X148871361Y-115101082D01*
X148899361Y-115137321D01*
X148931049Y-115163813D01*
X148971313Y-115181999D01*
X149025043Y-115193322D01*
X149097126Y-115199222D01*
X149192451Y-115201143D01*
X149210737Y-115201177D01*
X149416146Y-115201200D01*
X149432080Y-115155491D01*
X149442920Y-115123027D01*
X149447968Y-115105215D01*
X149448014Y-115104691D01*
X149434328Y-115102937D01*
X149396576Y-115101444D01*
X149339724Y-115100326D01*
X149268734Y-115099697D01*
X149225573Y-115099600D01*
X149140473Y-115099398D01*
X149079481Y-115098358D01*
X149037677Y-115095831D01*
X149010142Y-115091164D01*
X148991956Y-115083707D01*
X148978198Y-115072811D01*
X148971573Y-115066007D01*
X148944875Y-115019272D01*
X148942875Y-114968272D01*
X148965455Y-114922001D01*
X148973607Y-114913444D01*
X148988936Y-114900893D01*
X149007118Y-114892188D01*
X149033409Y-114886631D01*
X149073062Y-114883526D01*
X149131332Y-114882176D01*
X149211673Y-114881886D01*
X149416146Y-114881886D01*
X149432080Y-114836177D01*
X149442920Y-114803713D01*
X149447968Y-114785901D01*
X149448014Y-114785377D01*
X149434123Y-114784037D01*
X149394939Y-114782828D01*
X149334200Y-114781801D01*
X149255641Y-114781002D01*
X149162998Y-114780481D01*
X149060009Y-114780286D01*
X148662842Y-114780286D01*
X148642944Y-114827457D01*
X148623047Y-114874629D01*
X148744789Y-114881886D01*
G36*
X148844468Y-115545744D02*
X148865587Y-115602616D01*
X148865993Y-115603267D01*
X148891880Y-115638440D01*
X148922133Y-115664407D01*
X148961558Y-115682670D01*
X149014962Y-115694732D01*
X149087151Y-115702096D01*
X149182932Y-115706264D01*
X149196578Y-115706629D01*
X149402342Y-115711876D01*
X149425178Y-115667716D01*
X149440610Y-115635763D01*
X149447923Y-115616470D01*
X149448014Y-115615578D01*
X149434522Y-115612239D01*
X149398126Y-115609587D01*
X149344952Y-115607956D01*
X149301893Y-115607600D01*
X149232141Y-115607592D01*
X149188337Y-115604403D01*
X149167444Y-115593288D01*
X149166425Y-115569501D01*
X149182241Y-115528296D01*
X149211315Y-115466086D01*
X149235463Y-115420341D01*
X149256413Y-115396813D01*
X149279247Y-115389896D01*
X149280377Y-115389886D01*
X149319712Y-115401299D01*
X149340962Y-115435092D01*
X149344039Y-115486809D01*
X149343506Y-115524061D01*
X149354235Y-115543703D01*
X149380005Y-115555952D01*
X149412837Y-115563002D01*
X149431466Y-115552842D01*
X149434132Y-115549017D01*
X149444840Y-115513001D01*
X149446356Y-115462566D01*
X149439259Y-115410626D01*
X149426288Y-115373822D01*
X149383085Y-115322938D01*
X149322946Y-115294014D01*
X149275962Y-115288286D01*
X149233582Y-115292657D01*
X149198988Y-115308475D01*
X149168263Y-115339797D01*
X149137490Y-115390678D01*
X149102752Y-115465176D01*
X149100788Y-115469714D01*
X149069787Y-115536821D01*
X149044362Y-115578232D01*
X149021514Y-115595981D01*
X148998245Y-115592107D01*
X148971556Y-115568643D01*
X148965414Y-115561627D01*
X148941600Y-115514630D01*
X148942603Y-115465933D01*
X148965951Y-115423522D01*
X149009175Y-115395384D01*
X149017660Y-115392769D01*
X149058808Y-115367308D01*
X149078628Y-115335001D01*
X149098270Y-115288286D01*
X149047450Y-115288286D01*
X148973582Y-115302496D01*
X148905827Y-115344675D01*
X148883161Y-115366624D01*
X148854069Y-115416517D01*
X148840900Y-115479967D01*
X148844468Y-115545744D01*
X148844468Y-115545744D01*
G37*
X148844468Y-115545744D02*
X148865587Y-115602616D01*
X148865993Y-115603267D01*
X148891880Y-115638440D01*
X148922133Y-115664407D01*
X148961558Y-115682670D01*
X149014962Y-115694732D01*
X149087151Y-115702096D01*
X149182932Y-115706264D01*
X149196578Y-115706629D01*
X149402342Y-115711876D01*
X149425178Y-115667716D01*
X149440610Y-115635763D01*
X149447923Y-115616470D01*
X149448014Y-115615578D01*
X149434522Y-115612239D01*
X149398126Y-115609587D01*
X149344952Y-115607956D01*
X149301893Y-115607600D01*
X149232141Y-115607592D01*
X149188337Y-115604403D01*
X149167444Y-115593288D01*
X149166425Y-115569501D01*
X149182241Y-115528296D01*
X149211315Y-115466086D01*
X149235463Y-115420341D01*
X149256413Y-115396813D01*
X149279247Y-115389896D01*
X149280377Y-115389886D01*
X149319712Y-115401299D01*
X149340962Y-115435092D01*
X149344039Y-115486809D01*
X149343506Y-115524061D01*
X149354235Y-115543703D01*
X149380005Y-115555952D01*
X149412837Y-115563002D01*
X149431466Y-115552842D01*
X149434132Y-115549017D01*
X149444840Y-115513001D01*
X149446356Y-115462566D01*
X149439259Y-115410626D01*
X149426288Y-115373822D01*
X149383085Y-115322938D01*
X149322946Y-115294014D01*
X149275962Y-115288286D01*
X149233582Y-115292657D01*
X149198988Y-115308475D01*
X149168263Y-115339797D01*
X149137490Y-115390678D01*
X149102752Y-115465176D01*
X149100788Y-115469714D01*
X149069787Y-115536821D01*
X149044362Y-115578232D01*
X149021514Y-115595981D01*
X148998245Y-115592107D01*
X148971556Y-115568643D01*
X148965414Y-115561627D01*
X148941600Y-115514630D01*
X148942603Y-115465933D01*
X148965951Y-115423522D01*
X149009175Y-115395384D01*
X149017660Y-115392769D01*
X149058808Y-115367308D01*
X149078628Y-115335001D01*
X149098270Y-115288286D01*
X149047450Y-115288286D01*
X148973582Y-115302496D01*
X148905827Y-115344675D01*
X148883161Y-115366624D01*
X148854069Y-115416517D01*
X148840900Y-115479967D01*
X148844468Y-115545744D01*
G36*
X148843255Y-116035926D02*
X148867584Y-116101858D01*
X148910617Y-116155273D01*
X148940909Y-116176164D01*
X148996494Y-116198939D01*
X149036686Y-116198466D01*
X149063717Y-116174562D01*
X149068313Y-116165717D01*
X149082644Y-116127530D01*
X149078972Y-116108028D01*
X149054907Y-116101422D01*
X149041614Y-116101086D01*
X148992710Y-116088992D01*
X148958499Y-116057471D01*
X148941976Y-116013659D01*
X148946134Y-115964695D01*
X148967727Y-115924894D01*
X148980044Y-115911450D01*
X148994987Y-115901921D01*
X149017575Y-115895485D01*
X149052828Y-115891317D01*
X149105766Y-115888597D01*
X149181407Y-115886502D01*
X149205357Y-115885960D01*
X149287290Y-115883981D01*
X149344955Y-115881731D01*
X149383108Y-115878357D01*
X149406504Y-115873006D01*
X149419898Y-115864824D01*
X149428045Y-115852959D01*
X149431644Y-115845362D01*
X149443952Y-115813102D01*
X149448014Y-115794111D01*
X149434448Y-115787836D01*
X149393434Y-115784006D01*
X149324499Y-115782600D01*
X149227169Y-115783598D01*
X149212157Y-115783908D01*
X149123359Y-115786101D01*
X149058519Y-115788693D01*
X149012567Y-115792382D01*
X148980435Y-115797864D01*
X148957053Y-115805835D01*
X148937352Y-115816993D01*
X148928910Y-115822830D01*
X148891557Y-115856296D01*
X148862503Y-115893727D01*
X148859967Y-115898309D01*
X148839943Y-115965426D01*
X148843255Y-116035926D01*
X148843255Y-116035926D01*
G37*
X148843255Y-116035926D02*
X148867584Y-116101858D01*
X148910617Y-116155273D01*
X148940909Y-116176164D01*
X148996494Y-116198939D01*
X149036686Y-116198466D01*
X149063717Y-116174562D01*
X149068313Y-116165717D01*
X149082644Y-116127530D01*
X149078972Y-116108028D01*
X149054907Y-116101422D01*
X149041614Y-116101086D01*
X148992710Y-116088992D01*
X148958499Y-116057471D01*
X148941976Y-116013659D01*
X148946134Y-115964695D01*
X148967727Y-115924894D01*
X148980044Y-115911450D01*
X148994987Y-115901921D01*
X149017575Y-115895485D01*
X149052828Y-115891317D01*
X149105766Y-115888597D01*
X149181407Y-115886502D01*
X149205357Y-115885960D01*
X149287290Y-115883981D01*
X149344955Y-115881731D01*
X149383108Y-115878357D01*
X149406504Y-115873006D01*
X149419898Y-115864824D01*
X149428045Y-115852959D01*
X149431644Y-115845362D01*
X149443952Y-115813102D01*
X149448014Y-115794111D01*
X149434448Y-115787836D01*
X149393434Y-115784006D01*
X149324499Y-115782600D01*
X149227169Y-115783598D01*
X149212157Y-115783908D01*
X149123359Y-115786101D01*
X149058519Y-115788693D01*
X149012567Y-115792382D01*
X148980435Y-115797864D01*
X148957053Y-115805835D01*
X148937352Y-115816993D01*
X148928910Y-115822830D01*
X148891557Y-115856296D01*
X148862503Y-115893727D01*
X148859967Y-115898309D01*
X148839943Y-115965426D01*
X148843255Y-116035926D01*
G36*
X148958858Y-116696117D02*
X149067337Y-116695933D01*
X149150787Y-116695219D01*
X149213204Y-116693675D01*
X149258585Y-116691001D01*
X149290929Y-116686894D01*
X149314233Y-116681055D01*
X149332495Y-116673182D01*
X149342918Y-116667221D01*
X149399445Y-116617855D01*
X149434877Y-116555264D01*
X149447590Y-116486013D01*
X149435963Y-116416668D01*
X149415068Y-116375375D01*
X149378922Y-116332025D01*
X149334776Y-116302481D01*
X149276962Y-116284655D01*
X149199813Y-116276463D01*
X149143214Y-116275302D01*
X149139147Y-116275458D01*
X149139147Y-116376857D01*
X149204050Y-116377476D01*
X149247014Y-116380314D01*
X149275122Y-116386840D01*
X149295453Y-116398523D01*
X149310788Y-116412483D01*
X149340390Y-116459365D01*
X149342919Y-116509701D01*
X149318205Y-116557276D01*
X149314856Y-116560979D01*
X149297435Y-116576783D01*
X149276709Y-116586693D01*
X149245862Y-116592058D01*
X149198077Y-116594228D01*
X149145248Y-116594571D01*
X149078881Y-116593827D01*
X149034606Y-116590748D01*
X149005509Y-116584061D01*
X148984673Y-116572496D01*
X148973607Y-116563013D01*
X148945698Y-116518960D01*
X148942343Y-116468224D01*
X148963659Y-116419796D01*
X148971573Y-116410450D01*
X148989147Y-116394540D01*
X149010087Y-116384610D01*
X149041282Y-116379278D01*
X149089622Y-116377163D01*
X149139147Y-116376857D01*
X149139147Y-116275458D01*
X149052068Y-116278810D01*
X148983586Y-116290726D01*
X148932100Y-116313135D01*
X148891943Y-116348124D01*
X148871361Y-116375375D01*
X148849125Y-116424907D01*
X148838804Y-116482316D01*
X148841567Y-116535682D01*
X148852712Y-116565543D01*
X148855883Y-116577261D01*
X148844057Y-116585037D01*
X148812366Y-116590465D01*
X148764093Y-116594571D01*
X148710329Y-116599067D01*
X148677982Y-116605313D01*
X148659485Y-116616676D01*
X148647270Y-116636528D01*
X148641862Y-116649000D01*
X148622101Y-116696171D01*
X148958858Y-116696117D01*
X148958858Y-116696117D01*
G37*
X148958858Y-116696117D02*
X149067337Y-116695933D01*
X149150787Y-116695219D01*
X149213204Y-116693675D01*
X149258585Y-116691001D01*
X149290929Y-116686894D01*
X149314233Y-116681055D01*
X149332495Y-116673182D01*
X149342918Y-116667221D01*
X149399445Y-116617855D01*
X149434877Y-116555264D01*
X149447590Y-116486013D01*
X149435963Y-116416668D01*
X149415068Y-116375375D01*
X149378922Y-116332025D01*
X149334776Y-116302481D01*
X149276962Y-116284655D01*
X149199813Y-116276463D01*
X149143214Y-116275302D01*
X149139147Y-116275458D01*
X149139147Y-116376857D01*
X149204050Y-116377476D01*
X149247014Y-116380314D01*
X149275122Y-116386840D01*
X149295453Y-116398523D01*
X149310788Y-116412483D01*
X149340390Y-116459365D01*
X149342919Y-116509701D01*
X149318205Y-116557276D01*
X149314856Y-116560979D01*
X149297435Y-116576783D01*
X149276709Y-116586693D01*
X149245862Y-116592058D01*
X149198077Y-116594228D01*
X149145248Y-116594571D01*
X149078881Y-116593827D01*
X149034606Y-116590748D01*
X149005509Y-116584061D01*
X148984673Y-116572496D01*
X148973607Y-116563013D01*
X148945698Y-116518960D01*
X148942343Y-116468224D01*
X148963659Y-116419796D01*
X148971573Y-116410450D01*
X148989147Y-116394540D01*
X149010087Y-116384610D01*
X149041282Y-116379278D01*
X149089622Y-116377163D01*
X149139147Y-116376857D01*
X149139147Y-116275458D01*
X149052068Y-116278810D01*
X148983586Y-116290726D01*
X148932100Y-116313135D01*
X148891943Y-116348124D01*
X148871361Y-116375375D01*
X148849125Y-116424907D01*
X148838804Y-116482316D01*
X148841567Y-116535682D01*
X148852712Y-116565543D01*
X148855883Y-116577261D01*
X148844057Y-116585037D01*
X148812366Y-116590465D01*
X148764093Y-116594571D01*
X148710329Y-116599067D01*
X148677982Y-116605313D01*
X148659485Y-116616676D01*
X148647270Y-116636528D01*
X148641862Y-116649000D01*
X148622101Y-116696171D01*
X148958858Y-116696117D01*
G36*
X148852163Y-117285833D02*
X148890350Y-117288048D01*
X148948386Y-117289784D01*
X149021680Y-117290899D01*
X149098555Y-117291257D01*
X149358696Y-117291257D01*
X149404627Y-117245326D01*
X149432929Y-117213675D01*
X149444393Y-117185890D01*
X149443668Y-117147915D01*
X149441821Y-117132840D01*
X149436448Y-117085726D01*
X149433369Y-117046756D01*
X149433085Y-117037257D01*
X149434945Y-117005233D01*
X149439614Y-116959432D01*
X149441821Y-116941674D01*
X149445235Y-116898057D01*
X149437820Y-116868745D01*
X149414927Y-116839680D01*
X149404627Y-116829188D01*
X149358696Y-116783257D01*
X148872102Y-116783257D01*
X148855258Y-116820226D01*
X148842782Y-116852059D01*
X148838414Y-116870683D01*
X148852218Y-116875458D01*
X148890786Y-116879921D01*
X148949856Y-116883775D01*
X149025163Y-116886722D01*
X149088786Y-116888143D01*
X149339157Y-116892114D01*
X149344056Y-116926759D01*
X149340631Y-116958268D01*
X149329541Y-116973708D01*
X149308808Y-116978023D01*
X149264645Y-116981708D01*
X149202646Y-116984469D01*
X149128409Y-116986012D01*
X149090206Y-116986235D01*
X148870283Y-116986457D01*
X148854349Y-117032166D01*
X148843515Y-117064518D01*
X148838462Y-117082115D01*
X148838414Y-117082623D01*
X148852148Y-117084388D01*
X148890230Y-117086329D01*
X148947982Y-117088282D01*
X149020727Y-117090084D01*
X149088786Y-117091343D01*
X149339157Y-117095314D01*
X149339157Y-117182400D01*
X149110740Y-117186396D01*
X148882322Y-117190392D01*
X148860368Y-117232847D01*
X148845293Y-117264192D01*
X148838451Y-117282744D01*
X148838414Y-117283279D01*
X148852163Y-117285833D01*
X148852163Y-117285833D01*
G37*
X148852163Y-117285833D02*
X148890350Y-117288048D01*
X148948386Y-117289784D01*
X149021680Y-117290899D01*
X149098555Y-117291257D01*
X149358696Y-117291257D01*
X149404627Y-117245326D01*
X149432929Y-117213675D01*
X149444393Y-117185890D01*
X149443668Y-117147915D01*
X149441821Y-117132840D01*
X149436448Y-117085726D01*
X149433369Y-117046756D01*
X149433085Y-117037257D01*
X149434945Y-117005233D01*
X149439614Y-116959432D01*
X149441821Y-116941674D01*
X149445235Y-116898057D01*
X149437820Y-116868745D01*
X149414927Y-116839680D01*
X149404627Y-116829188D01*
X149358696Y-116783257D01*
X148872102Y-116783257D01*
X148855258Y-116820226D01*
X148842782Y-116852059D01*
X148838414Y-116870683D01*
X148852218Y-116875458D01*
X148890786Y-116879921D01*
X148949856Y-116883775D01*
X149025163Y-116886722D01*
X149088786Y-116888143D01*
X149339157Y-116892114D01*
X149344056Y-116926759D01*
X149340631Y-116958268D01*
X149329541Y-116973708D01*
X149308808Y-116978023D01*
X149264645Y-116981708D01*
X149202646Y-116984469D01*
X149128409Y-116986012D01*
X149090206Y-116986235D01*
X148870283Y-116986457D01*
X148854349Y-117032166D01*
X148843515Y-117064518D01*
X148838462Y-117082115D01*
X148838414Y-117082623D01*
X148852148Y-117084388D01*
X148890230Y-117086329D01*
X148947982Y-117088282D01*
X149020727Y-117090084D01*
X149088786Y-117091343D01*
X149339157Y-117095314D01*
X149339157Y-117182400D01*
X149110740Y-117186396D01*
X148882322Y-117190392D01*
X148860368Y-117232847D01*
X148845293Y-117264192D01*
X148838451Y-117282744D01*
X148838414Y-117283279D01*
X148852163Y-117285833D01*
G36*
X148849835Y-117650876D02*
X148868844Y-117692667D01*
X148891878Y-117725469D01*
X148917633Y-117749503D01*
X148950858Y-117766097D01*
X148996300Y-117776577D01*
X149058707Y-117782271D01*
X149142827Y-117784507D01*
X149198221Y-117784743D01*
X149414326Y-117784743D01*
X149431170Y-117747774D01*
X149443481Y-117718656D01*
X149448014Y-117704231D01*
X149434525Y-117701472D01*
X149398153Y-117699282D01*
X149345042Y-117697942D01*
X149302872Y-117697657D01*
X149241947Y-117696434D01*
X149193615Y-117693136D01*
X149164018Y-117688321D01*
X149157729Y-117684496D01*
X149164152Y-117658783D01*
X149180625Y-117618418D01*
X149202958Y-117571679D01*
X149226957Y-117526845D01*
X149248430Y-117492193D01*
X149263185Y-117476002D01*
X149263345Y-117475938D01*
X149290652Y-117477330D01*
X149316719Y-117489818D01*
X149337892Y-117511743D01*
X149344974Y-117543743D01*
X149344149Y-117571092D01*
X149343542Y-117609826D01*
X149352616Y-117630158D01*
X149376592Y-117642369D01*
X149381113Y-117643909D01*
X149415306Y-117649203D01*
X149436068Y-117635047D01*
X149445962Y-117598148D01*
X149447792Y-117558289D01*
X149434227Y-117486562D01*
X149414855Y-117449432D01*
X149369345Y-117403576D01*
X149313483Y-117379256D01*
X149254457Y-117377073D01*
X149199453Y-117397629D01*
X149164986Y-117428549D01*
X149145689Y-117459420D01*
X149121259Y-117507942D01*
X149096485Y-117564485D01*
X149092699Y-117573910D01*
X149065291Y-117636019D01*
X149041134Y-117671822D01*
X149017119Y-117683337D01*
X148990135Y-117672580D01*
X148969043Y-117654114D01*
X148943072Y-117610469D01*
X148941124Y-117562446D01*
X148961137Y-117518406D01*
X149001051Y-117486709D01*
X149011348Y-117482549D01*
X149049224Y-117458327D01*
X149077342Y-117422965D01*
X149100417Y-117378343D01*
X149034985Y-117378343D01*
X148995006Y-117380969D01*
X148963497Y-117392230D01*
X148929878Y-117417199D01*
X148903984Y-117441169D01*
X148867317Y-117478441D01*
X148847621Y-117507401D01*
X148839720Y-117538505D01*
X148838414Y-117573713D01*
X148849835Y-117650876D01*
X148849835Y-117650876D01*
G37*
X148849835Y-117650876D02*
X148868844Y-117692667D01*
X148891878Y-117725469D01*
X148917633Y-117749503D01*
X148950858Y-117766097D01*
X148996300Y-117776577D01*
X149058707Y-117782271D01*
X149142827Y-117784507D01*
X149198221Y-117784743D01*
X149414326Y-117784743D01*
X149431170Y-117747774D01*
X149443481Y-117718656D01*
X149448014Y-117704231D01*
X149434525Y-117701472D01*
X149398153Y-117699282D01*
X149345042Y-117697942D01*
X149302872Y-117697657D01*
X149241947Y-117696434D01*
X149193615Y-117693136D01*
X149164018Y-117688321D01*
X149157729Y-117684496D01*
X149164152Y-117658783D01*
X149180625Y-117618418D01*
X149202958Y-117571679D01*
X149226957Y-117526845D01*
X149248430Y-117492193D01*
X149263185Y-117476002D01*
X149263345Y-117475938D01*
X149290652Y-117477330D01*
X149316719Y-117489818D01*
X149337892Y-117511743D01*
X149344974Y-117543743D01*
X149344149Y-117571092D01*
X149343542Y-117609826D01*
X149352616Y-117630158D01*
X149376592Y-117642369D01*
X149381113Y-117643909D01*
X149415306Y-117649203D01*
X149436068Y-117635047D01*
X149445962Y-117598148D01*
X149447792Y-117558289D01*
X149434227Y-117486562D01*
X149414855Y-117449432D01*
X149369345Y-117403576D01*
X149313483Y-117379256D01*
X149254457Y-117377073D01*
X149199453Y-117397629D01*
X149164986Y-117428549D01*
X149145689Y-117459420D01*
X149121259Y-117507942D01*
X149096485Y-117564485D01*
X149092699Y-117573910D01*
X149065291Y-117636019D01*
X149041134Y-117671822D01*
X149017119Y-117683337D01*
X148990135Y-117672580D01*
X148969043Y-117654114D01*
X148943072Y-117610469D01*
X148941124Y-117562446D01*
X148961137Y-117518406D01*
X149001051Y-117486709D01*
X149011348Y-117482549D01*
X149049224Y-117458327D01*
X149077342Y-117422965D01*
X149100417Y-117378343D01*
X149034985Y-117378343D01*
X148995006Y-117380969D01*
X148963497Y-117392230D01*
X148929878Y-117417199D01*
X148903984Y-117441169D01*
X148867317Y-117478441D01*
X148847621Y-117507401D01*
X148839720Y-117538505D01*
X148838414Y-117573713D01*
X148849835Y-117650876D01*
G36*
X148852252Y-118158600D02*
X148859834Y-118175948D01*
X148892628Y-118217356D01*
X148940047Y-118252765D01*
X148990651Y-118274664D01*
X149015598Y-118278229D01*
X149050427Y-118266279D01*
X149068857Y-118240067D01*
X149080016Y-118211964D01*
X149082072Y-118199095D01*
X149067149Y-118192829D01*
X149034675Y-118180456D01*
X149020002Y-118175028D01*
X148969244Y-118144590D01*
X148943927Y-118100520D01*
X148944706Y-118044010D01*
X148945703Y-118039825D01*
X148960007Y-118009655D01*
X148987893Y-117987476D01*
X149032787Y-117972327D01*
X149098115Y-117963250D01*
X149187304Y-117959286D01*
X149234761Y-117958914D01*
X149309571Y-117958730D01*
X149360569Y-117957522D01*
X149392971Y-117954309D01*
X149411995Y-117948109D01*
X149422856Y-117937940D01*
X149430772Y-117922819D01*
X149431170Y-117921946D01*
X149443481Y-117892828D01*
X149448014Y-117878403D01*
X149434309Y-117876186D01*
X149396425Y-117874289D01*
X149339215Y-117872847D01*
X149267527Y-117871998D01*
X149215065Y-117871829D01*
X149113547Y-117872692D01*
X149036532Y-117876070D01*
X148979523Y-117883142D01*
X148938026Y-117895088D01*
X148907543Y-117913090D01*
X148883580Y-117938327D01*
X148866855Y-117963247D01*
X148844597Y-118023171D01*
X148839576Y-118092911D01*
X148852252Y-118158600D01*
X148852252Y-118158600D01*
G37*
X148852252Y-118158600D02*
X148859834Y-118175948D01*
X148892628Y-118217356D01*
X148940047Y-118252765D01*
X148990651Y-118274664D01*
X149015598Y-118278229D01*
X149050427Y-118266279D01*
X149068857Y-118240067D01*
X149080016Y-118211964D01*
X149082072Y-118199095D01*
X149067149Y-118192829D01*
X149034675Y-118180456D01*
X149020002Y-118175028D01*
X148969244Y-118144590D01*
X148943927Y-118100520D01*
X148944706Y-118044010D01*
X148945703Y-118039825D01*
X148960007Y-118009655D01*
X148987893Y-117987476D01*
X149032787Y-117972327D01*
X149098115Y-117963250D01*
X149187304Y-117959286D01*
X149234761Y-117958914D01*
X149309571Y-117958730D01*
X149360569Y-117957522D01*
X149392971Y-117954309D01*
X149411995Y-117948109D01*
X149422856Y-117937940D01*
X149430772Y-117922819D01*
X149431170Y-117921946D01*
X149443481Y-117892828D01*
X149448014Y-117878403D01*
X149434309Y-117876186D01*
X149396425Y-117874289D01*
X149339215Y-117872847D01*
X149267527Y-117871998D01*
X149215065Y-117871829D01*
X149113547Y-117872692D01*
X149036532Y-117876070D01*
X148979523Y-117883142D01*
X148938026Y-117895088D01*
X148907543Y-117913090D01*
X148883580Y-117938327D01*
X148866855Y-117963247D01*
X148844597Y-118023171D01*
X148839576Y-118092911D01*
X148852252Y-118158600D01*
G36*
X148860466Y-118659595D02*
X148897997Y-118717021D01*
X148931596Y-118744719D01*
X148992564Y-118766662D01*
X149040808Y-118768405D01*
X149105316Y-118764457D01*
X149170434Y-118615686D01*
X149203702Y-118543349D01*
X149230464Y-118496084D01*
X149253644Y-118471507D01*
X149276167Y-118467237D01*
X149300955Y-118480889D01*
X149317386Y-118495943D01*
X149343735Y-118539746D01*
X149345581Y-118587389D01*
X149325046Y-118631145D01*
X149284252Y-118663289D01*
X149269847Y-118669038D01*
X149224856Y-118696576D01*
X149205682Y-118728258D01*
X149189279Y-118771714D01*
X149251466Y-118771714D01*
X149293783Y-118767872D01*
X149329469Y-118752823D01*
X149370443Y-118721280D01*
X149375767Y-118716592D01*
X149412220Y-118681506D01*
X149431783Y-118651347D01*
X149440783Y-118613615D01*
X149443730Y-118582335D01*
X149444465Y-118526385D01*
X149435160Y-118486555D01*
X149421346Y-118461708D01*
X149390967Y-118422656D01*
X149358113Y-118395625D01*
X149316794Y-118378517D01*
X149261021Y-118369238D01*
X149184805Y-118365693D01*
X149146122Y-118365410D01*
X149099747Y-118366372D01*
X149099747Y-118454007D01*
X149124626Y-118455023D01*
X149128700Y-118457556D01*
X149123165Y-118474274D01*
X149108517Y-118510249D01*
X149087690Y-118558331D01*
X149083214Y-118568386D01*
X149052314Y-118629152D01*
X149025157Y-118662632D01*
X148999720Y-118669990D01*
X148973981Y-118652391D01*
X148962609Y-118637856D01*
X148939864Y-118585410D01*
X148943622Y-118536322D01*
X148971384Y-118495227D01*
X149020652Y-118466758D01*
X149059757Y-118457631D01*
X149099747Y-118454007D01*
X149099747Y-118366372D01*
X149055749Y-118367285D01*
X148988884Y-118374196D01*
X148940195Y-118387884D01*
X148904349Y-118410096D01*
X148876013Y-118442574D01*
X148866855Y-118456733D01*
X148843007Y-118521053D01*
X148841506Y-118591473D01*
X148860466Y-118659595D01*
X148860466Y-118659595D01*
G37*
X148860466Y-118659595D02*
X148897997Y-118717021D01*
X148931596Y-118744719D01*
X148992564Y-118766662D01*
X149040808Y-118768405D01*
X149105316Y-118764457D01*
X149170434Y-118615686D01*
X149203702Y-118543349D01*
X149230464Y-118496084D01*
X149253644Y-118471507D01*
X149276167Y-118467237D01*
X149300955Y-118480889D01*
X149317386Y-118495943D01*
X149343735Y-118539746D01*
X149345581Y-118587389D01*
X149325046Y-118631145D01*
X149284252Y-118663289D01*
X149269847Y-118669038D01*
X149224856Y-118696576D01*
X149205682Y-118728258D01*
X149189279Y-118771714D01*
X149251466Y-118771714D01*
X149293783Y-118767872D01*
X149329469Y-118752823D01*
X149370443Y-118721280D01*
X149375767Y-118716592D01*
X149412220Y-118681506D01*
X149431783Y-118651347D01*
X149440783Y-118613615D01*
X149443730Y-118582335D01*
X149444465Y-118526385D01*
X149435160Y-118486555D01*
X149421346Y-118461708D01*
X149390967Y-118422656D01*
X149358113Y-118395625D01*
X149316794Y-118378517D01*
X149261021Y-118369238D01*
X149184805Y-118365693D01*
X149146122Y-118365410D01*
X149099747Y-118366372D01*
X149099747Y-118454007D01*
X149124626Y-118455023D01*
X149128700Y-118457556D01*
X149123165Y-118474274D01*
X149108517Y-118510249D01*
X149087690Y-118558331D01*
X149083214Y-118568386D01*
X149052314Y-118629152D01*
X149025157Y-118662632D01*
X148999720Y-118669990D01*
X148973981Y-118652391D01*
X148962609Y-118637856D01*
X148939864Y-118585410D01*
X148943622Y-118536322D01*
X148971384Y-118495227D01*
X149020652Y-118466758D01*
X149059757Y-118457631D01*
X149099747Y-118454007D01*
X149099747Y-118366372D01*
X149055749Y-118367285D01*
X148988884Y-118374196D01*
X148940195Y-118387884D01*
X148904349Y-118410096D01*
X148876013Y-118442574D01*
X148866855Y-118456733D01*
X148843007Y-118521053D01*
X148841506Y-118591473D01*
X148860466Y-118659595D01*
G36*
X144135848Y-115609910D02*
X144136278Y-115688454D01*
X144137442Y-115745298D01*
X144139707Y-115784105D01*
X144143440Y-115808538D01*
X144149006Y-115822262D01*
X144156773Y-115828940D01*
X144167105Y-115832236D01*
X144168443Y-115832556D01*
X144192579Y-115837562D01*
X144240201Y-115846829D01*
X144306241Y-115859392D01*
X144385628Y-115874287D01*
X144473296Y-115890551D01*
X144476375Y-115891119D01*
X144562289Y-115907410D01*
X144638196Y-115922652D01*
X144699545Y-115935861D01*
X144741782Y-115946054D01*
X144760355Y-115952248D01*
X144760684Y-115952543D01*
X144769753Y-115970788D01*
X144784867Y-116008405D01*
X144802762Y-116057271D01*
X144802858Y-116057543D01*
X144825993Y-116119093D01*
X144855465Y-116191657D01*
X144885097Y-116260057D01*
X144886562Y-116263294D01*
X144937126Y-116374702D01*
X144768660Y-116621399D01*
X144717303Y-116697077D01*
X144671389Y-116765631D01*
X144633530Y-116823088D01*
X144606337Y-116865476D01*
X144592421Y-116888825D01*
X144591389Y-116891042D01*
X144595984Y-116908010D01*
X144618155Y-116939701D01*
X144658947Y-116987352D01*
X144719405Y-117052198D01*
X144783727Y-117118397D01*
X144847112Y-117182214D01*
X144904951Y-117239329D01*
X144953675Y-117286305D01*
X144989710Y-117319703D01*
X145009484Y-117336085D01*
X145010502Y-117336694D01*
X145024072Y-117338505D01*
X145046233Y-117331683D01*
X145079978Y-117314540D01*
X145128300Y-117285393D01*
X145194192Y-117242555D01*
X145279017Y-117185448D01*
X145353677Y-117134766D01*
X145420640Y-117089461D01*
X145476016Y-117052150D01*
X145515920Y-117025452D01*
X145536462Y-117011985D01*
X145537856Y-117011137D01*
X145557538Y-117012781D01*
X145595793Y-117025245D01*
X145645389Y-117046048D01*
X145661228Y-117053462D01*
X145731790Y-117085814D01*
X145811853Y-117120328D01*
X145881129Y-117148365D01*
X145932545Y-117168568D01*
X145971619Y-117184615D01*
X145992041Y-117193888D01*
X145993614Y-117195041D01*
X145996221Y-117212096D01*
X146003363Y-117252298D01*
X146014023Y-117310302D01*
X146027185Y-117380763D01*
X146041833Y-117458335D01*
X146056949Y-117537672D01*
X146071518Y-117613431D01*
X146084522Y-117680264D01*
X146094945Y-117732828D01*
X146101770Y-117765776D01*
X146103699Y-117773857D01*
X146108462Y-117782205D01*
X146119218Y-117788506D01*
X146139598Y-117793045D01*
X146173234Y-117796104D01*
X146223755Y-117797967D01*
X146294792Y-117798918D01*
X146389976Y-117799240D01*
X146428992Y-117799257D01*
X146746299Y-117799257D01*
X146761339Y-117723057D01*
X146769495Y-117680663D01*
X146781399Y-117617400D01*
X146795616Y-117540962D01*
X146810710Y-117459043D01*
X146814855Y-117436400D01*
X146829553Y-117360806D01*
X146844005Y-117294953D01*
X146856875Y-117244366D01*
X146866822Y-117214574D01*
X146869787Y-117209612D01*
X146890783Y-117197426D01*
X146931467Y-117179953D01*
X146983822Y-117160577D01*
X146995100Y-117156734D01*
X147065023Y-117131339D01*
X147143918Y-117099817D01*
X147214766Y-117068969D01*
X147215095Y-117068817D01*
X147326233Y-117017447D01*
X147574753Y-117186399D01*
X147823272Y-117355352D01*
X148040558Y-117138429D01*
X148105226Y-117072819D01*
X148162233Y-117012979D01*
X148208533Y-116962267D01*
X148241084Y-116924046D01*
X148256843Y-116901675D01*
X148257843Y-116898466D01*
X148249969Y-116879626D01*
X148228078Y-116841180D01*
X148194767Y-116787330D01*
X148152631Y-116722276D01*
X148105443Y-116651940D01*
X148057310Y-116580555D01*
X148015428Y-116516908D01*
X147982371Y-116465041D01*
X147960718Y-116428995D01*
X147953043Y-116412867D01*
X147959537Y-116393189D01*
X147976650Y-116355875D01*
X148000826Y-116308621D01*
X148003513Y-116303612D01*
X148035427Y-116239977D01*
X148051079Y-116196341D01*
X148051245Y-116169202D01*
X148036704Y-116155057D01*
X148036500Y-116154975D01*
X148019279Y-116147905D01*
X147978399Y-116131042D01*
X147917025Y-116105695D01*
X147838319Y-116073171D01*
X147745447Y-116034778D01*
X147641572Y-115991822D01*
X147541002Y-115950222D01*
X147430016Y-115904504D01*
X147327203Y-115862526D01*
X147235715Y-115825548D01*
X147158701Y-115794827D01*
X147099315Y-115771622D01*
X147060709Y-115757190D01*
X147046300Y-115752743D01*
X147029772Y-115763896D01*
X147003430Y-115793069D01*
X146974387Y-115831971D01*
X146882539Y-115942757D01*
X146777259Y-116029351D01*
X146660766Y-116090716D01*
X146535276Y-116125815D01*
X146403007Y-116133608D01*
X146341957Y-116127943D01*
X146215295Y-116097078D01*
X146103441Y-116043920D01*
X146007501Y-115971767D01*
X145928576Y-115883917D01*
X145867770Y-115783665D01*
X145826187Y-115674310D01*
X145804928Y-115559147D01*
X145805099Y-115441475D01*
X145827801Y-115324590D01*
X145874138Y-115211789D01*
X145945213Y-115106369D01*
X145985411Y-115062368D01*
X146088629Y-114977979D01*
X146201425Y-114919222D01*
X146320510Y-114885704D01*
X146442595Y-114877035D01*
X146564393Y-114892823D01*
X146682616Y-114932678D01*
X146793975Y-114996207D01*
X146895184Y-115083021D01*
X146974387Y-115180029D01*
X147004662Y-115220437D01*
X147030719Y-115248982D01*
X147046325Y-115259257D01*
X147063343Y-115253877D01*
X147104000Y-115238575D01*
X147165142Y-115214612D01*
X147243619Y-115183244D01*
X147336280Y-115145732D01*
X147439972Y-115103333D01*
X147541026Y-115061663D01*
X147652107Y-115015690D01*
X147755041Y-114973107D01*
X147846665Y-114935221D01*
X147923816Y-114903340D01*
X147983331Y-114878771D01*
X148022044Y-114862820D01*
X148036500Y-114856910D01*
X148051185Y-114842948D01*
X148051142Y-114815940D01*
X148035599Y-114772413D01*
X148003784Y-114708890D01*
X148003513Y-114708388D01*
X147978823Y-114660560D01*
X147960838Y-114621897D01*
X147953114Y-114600095D01*
X147953043Y-114599133D01*
X147960878Y-114582721D01*
X147982665Y-114546487D01*
X148015828Y-114494474D01*
X148057791Y-114430725D01*
X148105443Y-114360060D01*
X148153691Y-114288116D01*
X148195651Y-114223274D01*
X148228727Y-114169735D01*
X148250321Y-114131697D01*
X148257843Y-114113533D01*
X148247957Y-114096808D01*
X148220326Y-114063180D01*
X148177995Y-114016010D01*
X148124005Y-113958658D01*
X148061399Y-113894484D01*
X148040483Y-113873497D01*
X147823123Y-113656499D01*
X147580720Y-113821668D01*
X147506281Y-113871864D01*
X147439472Y-113915919D01*
X147384165Y-113951362D01*
X147344229Y-113975719D01*
X147323536Y-113986522D01*
X147322063Y-113986838D01*
X147302558Y-113981143D01*
X147263322Y-113965826D01*
X147210930Y-113943537D01*
X147175855Y-113927893D01*
X147108701Y-113898641D01*
X147040858Y-113871094D01*
X146983534Y-113849737D01*
X146966072Y-113843935D01*
X146919438Y-113827452D01*
X146883405Y-113811340D01*
X146869787Y-113802490D01*
X146861452Y-113782960D01*
X146849637Y-113740334D01*
X146835681Y-113680145D01*
X146820922Y-113607922D01*
X146814855Y-113575600D01*
X146799773Y-113493522D01*
X146785169Y-113414795D01*
X146772480Y-113347109D01*
X146763142Y-113298160D01*
X146761339Y-113288943D01*
X146746299Y-113212743D01*
X146428992Y-113212743D01*
X146324654Y-113212914D01*
X146245713Y-113213616D01*
X146188538Y-113215134D01*
X146149499Y-113217749D01*
X146124965Y-113221746D01*
X146111305Y-113227409D01*
X146104889Y-113235020D01*
X146103699Y-113238143D01*
X146099480Y-113256978D01*
X146091062Y-113298588D01*
X146079461Y-113357630D01*
X146065695Y-113428757D01*
X146050780Y-113506625D01*
X146035732Y-113585887D01*
X146021569Y-113661198D01*
X146009306Y-113727213D01*
X145999961Y-113778587D01*
X145994550Y-113809975D01*
X145993614Y-113816959D01*
X145981096Y-113823285D01*
X145947746Y-113837290D01*
X145899877Y-113856355D01*
X145881129Y-113863634D01*
X145808695Y-113892996D01*
X145728670Y-113927571D01*
X145661228Y-113958537D01*
X145609659Y-113981323D01*
X145567285Y-113996482D01*
X145541334Y-114001542D01*
X145537856Y-114000736D01*
X145521436Y-113990041D01*
X145484917Y-113965620D01*
X145432187Y-113930095D01*
X145367135Y-113886087D01*
X145293651Y-113836217D01*
X145279145Y-113826356D01*
X145193204Y-113768492D01*
X145127761Y-113725956D01*
X145079804Y-113697054D01*
X145046320Y-113680090D01*
X145024295Y-113673367D01*
X145010717Y-113675190D01*
X145010631Y-113675236D01*
X144992797Y-113689586D01*
X144958317Y-113721323D01*
X144910768Y-113767010D01*
X144853722Y-113823204D01*
X144790755Y-113886468D01*
X144783727Y-113893602D01*
X144706520Y-113973330D01*
X144649830Y-114034857D01*
X144612610Y-114079421D01*
X144593815Y-114108257D01*
X144591389Y-114120958D01*
X144601971Y-114139494D01*
X144626416Y-114177961D01*
X144662112Y-114232386D01*
X144706447Y-114298798D01*
X144756811Y-114373225D01*
X144768660Y-114390601D01*
X144937126Y-114637297D01*
X144886562Y-114748706D01*
X144857095Y-114816457D01*
X144827459Y-114889183D01*
X144803830Y-114951703D01*
X144802858Y-114954457D01*
X144784957Y-115003360D01*
X144769820Y-115041057D01*
X144760710Y-115059425D01*
X144760684Y-115059456D01*
X144744217Y-115065285D01*
X144703719Y-115075192D01*
X144643742Y-115088195D01*
X144568840Y-115103309D01*
X144483564Y-115119552D01*
X144476375Y-115120881D01*
X144388514Y-115137175D01*
X144308760Y-115152133D01*
X144242181Y-115164791D01*
X144193847Y-115174186D01*
X144168825Y-115179354D01*
X144168443Y-115179444D01*
X144157799Y-115182589D01*
X144149762Y-115188704D01*
X144143967Y-115201453D01*
X144140047Y-115224500D01*
X144137635Y-115261509D01*
X144136365Y-115316144D01*
X144135871Y-115392067D01*
X144135786Y-115492944D01*
X144135786Y-115506000D01*
X144135848Y-115609910D01*
X144135848Y-115609910D01*
G37*
X144135848Y-115609910D02*
X144136278Y-115688454D01*
X144137442Y-115745298D01*
X144139707Y-115784105D01*
X144143440Y-115808538D01*
X144149006Y-115822262D01*
X144156773Y-115828940D01*
X144167105Y-115832236D01*
X144168443Y-115832556D01*
X144192579Y-115837562D01*
X144240201Y-115846829D01*
X144306241Y-115859392D01*
X144385628Y-115874287D01*
X144473296Y-115890551D01*
X144476375Y-115891119D01*
X144562289Y-115907410D01*
X144638196Y-115922652D01*
X144699545Y-115935861D01*
X144741782Y-115946054D01*
X144760355Y-115952248D01*
X144760684Y-115952543D01*
X144769753Y-115970788D01*
X144784867Y-116008405D01*
X144802762Y-116057271D01*
X144802858Y-116057543D01*
X144825993Y-116119093D01*
X144855465Y-116191657D01*
X144885097Y-116260057D01*
X144886562Y-116263294D01*
X144937126Y-116374702D01*
X144768660Y-116621399D01*
X144717303Y-116697077D01*
X144671389Y-116765631D01*
X144633530Y-116823088D01*
X144606337Y-116865476D01*
X144592421Y-116888825D01*
X144591389Y-116891042D01*
X144595984Y-116908010D01*
X144618155Y-116939701D01*
X144658947Y-116987352D01*
X144719405Y-117052198D01*
X144783727Y-117118397D01*
X144847112Y-117182214D01*
X144904951Y-117239329D01*
X144953675Y-117286305D01*
X144989710Y-117319703D01*
X145009484Y-117336085D01*
X145010502Y-117336694D01*
X145024072Y-117338505D01*
X145046233Y-117331683D01*
X145079978Y-117314540D01*
X145128300Y-117285393D01*
X145194192Y-117242555D01*
X145279017Y-117185448D01*
X145353677Y-117134766D01*
X145420640Y-117089461D01*
X145476016Y-117052150D01*
X145515920Y-117025452D01*
X145536462Y-117011985D01*
X145537856Y-117011137D01*
X145557538Y-117012781D01*
X145595793Y-117025245D01*
X145645389Y-117046048D01*
X145661228Y-117053462D01*
X145731790Y-117085814D01*
X145811853Y-117120328D01*
X145881129Y-117148365D01*
X145932545Y-117168568D01*
X145971619Y-117184615D01*
X145992041Y-117193888D01*
X145993614Y-117195041D01*
X145996221Y-117212096D01*
X146003363Y-117252298D01*
X146014023Y-117310302D01*
X146027185Y-117380763D01*
X146041833Y-117458335D01*
X146056949Y-117537672D01*
X146071518Y-117613431D01*
X146084522Y-117680264D01*
X146094945Y-117732828D01*
X146101770Y-117765776D01*
X146103699Y-117773857D01*
X146108462Y-117782205D01*
X146119218Y-117788506D01*
X146139598Y-117793045D01*
X146173234Y-117796104D01*
X146223755Y-117797967D01*
X146294792Y-117798918D01*
X146389976Y-117799240D01*
X146428992Y-117799257D01*
X146746299Y-117799257D01*
X146761339Y-117723057D01*
X146769495Y-117680663D01*
X146781399Y-117617400D01*
X146795616Y-117540962D01*
X146810710Y-117459043D01*
X146814855Y-117436400D01*
X146829553Y-117360806D01*
X146844005Y-117294953D01*
X146856875Y-117244366D01*
X146866822Y-117214574D01*
X146869787Y-117209612D01*
X146890783Y-117197426D01*
X146931467Y-117179953D01*
X146983822Y-117160577D01*
X146995100Y-117156734D01*
X147065023Y-117131339D01*
X147143918Y-117099817D01*
X147214766Y-117068969D01*
X147215095Y-117068817D01*
X147326233Y-117017447D01*
X147574753Y-117186399D01*
X147823272Y-117355352D01*
X148040558Y-117138429D01*
X148105226Y-117072819D01*
X148162233Y-117012979D01*
X148208533Y-116962267D01*
X148241084Y-116924046D01*
X148256843Y-116901675D01*
X148257843Y-116898466D01*
X148249969Y-116879626D01*
X148228078Y-116841180D01*
X148194767Y-116787330D01*
X148152631Y-116722276D01*
X148105443Y-116651940D01*
X148057310Y-116580555D01*
X148015428Y-116516908D01*
X147982371Y-116465041D01*
X147960718Y-116428995D01*
X147953043Y-116412867D01*
X147959537Y-116393189D01*
X147976650Y-116355875D01*
X148000826Y-116308621D01*
X148003513Y-116303612D01*
X148035427Y-116239977D01*
X148051079Y-116196341D01*
X148051245Y-116169202D01*
X148036704Y-116155057D01*
X148036500Y-116154975D01*
X148019279Y-116147905D01*
X147978399Y-116131042D01*
X147917025Y-116105695D01*
X147838319Y-116073171D01*
X147745447Y-116034778D01*
X147641572Y-115991822D01*
X147541002Y-115950222D01*
X147430016Y-115904504D01*
X147327203Y-115862526D01*
X147235715Y-115825548D01*
X147158701Y-115794827D01*
X147099315Y-115771622D01*
X147060709Y-115757190D01*
X147046300Y-115752743D01*
X147029772Y-115763896D01*
X147003430Y-115793069D01*
X146974387Y-115831971D01*
X146882539Y-115942757D01*
X146777259Y-116029351D01*
X146660766Y-116090716D01*
X146535276Y-116125815D01*
X146403007Y-116133608D01*
X146341957Y-116127943D01*
X146215295Y-116097078D01*
X146103441Y-116043920D01*
X146007501Y-115971767D01*
X145928576Y-115883917D01*
X145867770Y-115783665D01*
X145826187Y-115674310D01*
X145804928Y-115559147D01*
X145805099Y-115441475D01*
X145827801Y-115324590D01*
X145874138Y-115211789D01*
X145945213Y-115106369D01*
X145985411Y-115062368D01*
X146088629Y-114977979D01*
X146201425Y-114919222D01*
X146320510Y-114885704D01*
X146442595Y-114877035D01*
X146564393Y-114892823D01*
X146682616Y-114932678D01*
X146793975Y-114996207D01*
X146895184Y-115083021D01*
X146974387Y-115180029D01*
X147004662Y-115220437D01*
X147030719Y-115248982D01*
X147046325Y-115259257D01*
X147063343Y-115253877D01*
X147104000Y-115238575D01*
X147165142Y-115214612D01*
X147243619Y-115183244D01*
X147336280Y-115145732D01*
X147439972Y-115103333D01*
X147541026Y-115061663D01*
X147652107Y-115015690D01*
X147755041Y-114973107D01*
X147846665Y-114935221D01*
X147923816Y-114903340D01*
X147983331Y-114878771D01*
X148022044Y-114862820D01*
X148036500Y-114856910D01*
X148051185Y-114842948D01*
X148051142Y-114815940D01*
X148035599Y-114772413D01*
X148003784Y-114708890D01*
X148003513Y-114708388D01*
X147978823Y-114660560D01*
X147960838Y-114621897D01*
X147953114Y-114600095D01*
X147953043Y-114599133D01*
X147960878Y-114582721D01*
X147982665Y-114546487D01*
X148015828Y-114494474D01*
X148057791Y-114430725D01*
X148105443Y-114360060D01*
X148153691Y-114288116D01*
X148195651Y-114223274D01*
X148228727Y-114169735D01*
X148250321Y-114131697D01*
X148257843Y-114113533D01*
X148247957Y-114096808D01*
X148220326Y-114063180D01*
X148177995Y-114016010D01*
X148124005Y-113958658D01*
X148061399Y-113894484D01*
X148040483Y-113873497D01*
X147823123Y-113656499D01*
X147580720Y-113821668D01*
X147506281Y-113871864D01*
X147439472Y-113915919D01*
X147384165Y-113951362D01*
X147344229Y-113975719D01*
X147323536Y-113986522D01*
X147322063Y-113986838D01*
X147302558Y-113981143D01*
X147263322Y-113965826D01*
X147210930Y-113943537D01*
X147175855Y-113927893D01*
X147108701Y-113898641D01*
X147040858Y-113871094D01*
X146983534Y-113849737D01*
X146966072Y-113843935D01*
X146919438Y-113827452D01*
X146883405Y-113811340D01*
X146869787Y-113802490D01*
X146861452Y-113782960D01*
X146849637Y-113740334D01*
X146835681Y-113680145D01*
X146820922Y-113607922D01*
X146814855Y-113575600D01*
X146799773Y-113493522D01*
X146785169Y-113414795D01*
X146772480Y-113347109D01*
X146763142Y-113298160D01*
X146761339Y-113288943D01*
X146746299Y-113212743D01*
X146428992Y-113212743D01*
X146324654Y-113212914D01*
X146245713Y-113213616D01*
X146188538Y-113215134D01*
X146149499Y-113217749D01*
X146124965Y-113221746D01*
X146111305Y-113227409D01*
X146104889Y-113235020D01*
X146103699Y-113238143D01*
X146099480Y-113256978D01*
X146091062Y-113298588D01*
X146079461Y-113357630D01*
X146065695Y-113428757D01*
X146050780Y-113506625D01*
X146035732Y-113585887D01*
X146021569Y-113661198D01*
X146009306Y-113727213D01*
X145999961Y-113778587D01*
X145994550Y-113809975D01*
X145993614Y-113816959D01*
X145981096Y-113823285D01*
X145947746Y-113837290D01*
X145899877Y-113856355D01*
X145881129Y-113863634D01*
X145808695Y-113892996D01*
X145728670Y-113927571D01*
X145661228Y-113958537D01*
X145609659Y-113981323D01*
X145567285Y-113996482D01*
X145541334Y-114001542D01*
X145537856Y-114000736D01*
X145521436Y-113990041D01*
X145484917Y-113965620D01*
X145432187Y-113930095D01*
X145367135Y-113886087D01*
X145293651Y-113836217D01*
X145279145Y-113826356D01*
X145193204Y-113768492D01*
X145127761Y-113725956D01*
X145079804Y-113697054D01*
X145046320Y-113680090D01*
X145024295Y-113673367D01*
X145010717Y-113675190D01*
X145010631Y-113675236D01*
X144992797Y-113689586D01*
X144958317Y-113721323D01*
X144910768Y-113767010D01*
X144853722Y-113823204D01*
X144790755Y-113886468D01*
X144783727Y-113893602D01*
X144706520Y-113973330D01*
X144649830Y-114034857D01*
X144612610Y-114079421D01*
X144593815Y-114108257D01*
X144591389Y-114120958D01*
X144601971Y-114139494D01*
X144626416Y-114177961D01*
X144662112Y-114232386D01*
X144706447Y-114298798D01*
X144756811Y-114373225D01*
X144768660Y-114390601D01*
X144937126Y-114637297D01*
X144886562Y-114748706D01*
X144857095Y-114816457D01*
X144827459Y-114889183D01*
X144803830Y-114951703D01*
X144802858Y-114954457D01*
X144784957Y-115003360D01*
X144769820Y-115041057D01*
X144760710Y-115059425D01*
X144760684Y-115059456D01*
X144744217Y-115065285D01*
X144703719Y-115075192D01*
X144643742Y-115088195D01*
X144568840Y-115103309D01*
X144483564Y-115119552D01*
X144476375Y-115120881D01*
X144388514Y-115137175D01*
X144308760Y-115152133D01*
X144242181Y-115164791D01*
X144193847Y-115174186D01*
X144168825Y-115179354D01*
X144168443Y-115179444D01*
X144157799Y-115182589D01*
X144149762Y-115188704D01*
X144143967Y-115201453D01*
X144140047Y-115224500D01*
X144137635Y-115261509D01*
X144136365Y-115316144D01*
X144135871Y-115392067D01*
X144135786Y-115492944D01*
X144135786Y-115506000D01*
X144135848Y-115609910D01*
G36*
X149411322Y-111753822D02*
X149411322Y-108233029D01*
X148543698Y-108233029D01*
X148543698Y-111753822D01*
X149411322Y-111753822D01*
X149411322Y-111753822D01*
G37*
X149411322Y-111753822D02*
X149411322Y-108233029D01*
X148543698Y-108233029D01*
X148543698Y-111753822D01*
X149411322Y-111753822D01*
G36*
X143458348Y-112130430D02*
X143545431Y-112129811D01*
X144004391Y-111678086D01*
X144463352Y-111226361D01*
X144673971Y-111226032D01*
X144884589Y-111225703D01*
X144884589Y-110950610D01*
X144938030Y-110943522D01*
X144962388Y-110940838D01*
X145008259Y-110936313D01*
X145072905Y-110930191D01*
X145153591Y-110922712D01*
X145247581Y-110914119D01*
X145352137Y-110904654D01*
X145464525Y-110894558D01*
X145582007Y-110884074D01*
X145701848Y-110873444D01*
X145821311Y-110862909D01*
X145937659Y-110852713D01*
X146048157Y-110843095D01*
X146150069Y-110834300D01*
X146240658Y-110826568D01*
X146317187Y-110820142D01*
X146376921Y-110815263D01*
X146417124Y-110812175D01*
X146435059Y-110811117D01*
X146435144Y-110811118D01*
X146449535Y-110818827D01*
X146479248Y-110841981D01*
X146524631Y-110880895D01*
X146586029Y-110935884D01*
X146663788Y-111007264D01*
X146758254Y-111095349D01*
X146869772Y-111200454D01*
X146998688Y-111322895D01*
X147034787Y-111357310D01*
X147606916Y-111903137D01*
X147694936Y-111814881D01*
X147617258Y-111743485D01*
X147589186Y-111717366D01*
X147545774Y-111676566D01*
X147489866Y-111623777D01*
X147424308Y-111561691D01*
X147351941Y-111493000D01*
X147275612Y-111420396D01*
X147230024Y-111376960D01*
X147144619Y-111295416D01*
X147076210Y-111229504D01*
X147023553Y-111177544D01*
X146985405Y-111137855D01*
X146960520Y-111108757D01*
X146947656Y-111088569D01*
X146945568Y-111075610D01*
X146953013Y-111068200D01*
X146968746Y-111064658D01*
X146991523Y-111063303D01*
X146997739Y-111063121D01*
X147040561Y-111053703D01*
X147092319Y-111030497D01*
X147144828Y-110998136D01*
X147189903Y-110961252D01*
X147203828Y-110946493D01*
X147252547Y-110870767D01*
X147279806Y-110782308D01*
X147286273Y-110704100D01*
X147274076Y-110615468D01*
X147238313Y-110533612D01*
X147180222Y-110461164D01*
X147165762Y-110447797D01*
X147110233Y-110398918D01*
X147110233Y-109553326D01*
X147286273Y-109553326D01*
X147286273Y-109326990D01*
X147204031Y-109326990D01*
X147147886Y-109324150D01*
X147108916Y-109314607D01*
X147087719Y-109303009D01*
X147072552Y-109294723D01*
X147050562Y-109287627D01*
X147018487Y-109281252D01*
X146973069Y-109275128D01*
X146911048Y-109268784D01*
X146829162Y-109261750D01*
X146768246Y-109256934D01*
X146482843Y-109234839D01*
X147032305Y-108692435D01*
X147131728Y-108594363D01*
X147227315Y-108500216D01*
X147317310Y-108411715D01*
X147399957Y-108330580D01*
X147473501Y-108258531D01*
X147536184Y-108197288D01*
X147586252Y-108148573D01*
X147621948Y-108114104D01*
X147641495Y-108095621D01*
X147672444Y-108065257D01*
X147694030Y-108039929D01*
X147701223Y-108026305D01*
X147692797Y-108008905D01*
X147671745Y-107983540D01*
X147663171Y-107974942D01*
X147625120Y-107938486D01*
X147421158Y-108139198D01*
X147369199Y-108190404D01*
X147302320Y-108256431D01*
X147223450Y-108334382D01*
X147135514Y-108421362D01*
X147041441Y-108514474D01*
X146944158Y-108610821D01*
X146846593Y-108707508D01*
X146776645Y-108776866D01*
X146670050Y-108882297D01*
X146579807Y-108970871D01*
X146504692Y-109043719D01*
X146443486Y-109101977D01*
X146394966Y-109146775D01*
X146369629Y-109168979D01*
X146369629Y-109347276D01*
X146655055Y-109369599D01*
X146738719Y-109376331D01*
X146815227Y-109382843D01*
X146880581Y-109388766D01*
X146930781Y-109393732D01*
X146961829Y-109397371D01*
X146968773Y-109398542D01*
X146997065Y-109405162D01*
X146997065Y-110354636D01*
X146918106Y-110360974D01*
X146824815Y-110380110D01*
X146742291Y-110420154D01*
X146673538Y-110478582D01*
X146621563Y-110552871D01*
X146590363Y-110636252D01*
X146575728Y-110663302D01*
X146544319Y-110676844D01*
X146542934Y-110677128D01*
X146529674Y-110678753D01*
X146516095Y-110676744D01*
X146499681Y-110669142D01*
X146477911Y-110653984D01*
X146448267Y-110629312D01*
X146408232Y-110593164D01*
X146355285Y-110543580D01*
X146286909Y-110478599D01*
X146282505Y-110474401D01*
X146209111Y-110404507D01*
X146130937Y-110330200D01*
X146053364Y-110256586D01*
X145981775Y-110188771D01*
X145921551Y-110131860D01*
X145908087Y-110119168D01*
X145857320Y-110070513D01*
X145813875Y-110027291D01*
X145780741Y-109992605D01*
X145760905Y-109969556D01*
X145756546Y-109961818D01*
X145765670Y-109950278D01*
X145790700Y-109923290D01*
X145829552Y-109882979D01*
X145880143Y-109831471D01*
X145940388Y-109770891D01*
X146008204Y-109703364D01*
X146064065Y-109648174D01*
X146369629Y-109347276D01*
X146369629Y-109168979D01*
X146357911Y-109179249D01*
X146331099Y-109200529D01*
X146313308Y-109211749D01*
X146305070Y-109214246D01*
X146287090Y-109213300D01*
X146246392Y-109210427D01*
X146185319Y-109205813D01*
X146106213Y-109199642D01*
X146011414Y-109192102D01*
X145903267Y-109183379D01*
X145784112Y-109173657D01*
X145656291Y-109163124D01*
X145554135Y-109154635D01*
X144978174Y-109106604D01*
X144978174Y-109230195D01*
X144990604Y-109230727D01*
X145025610Y-109233231D01*
X145080715Y-109237504D01*
X145153443Y-109243347D01*
X145241314Y-109250557D01*
X145341851Y-109258934D01*
X145452577Y-109268277D01*
X145557705Y-109277242D01*
X145676983Y-109287398D01*
X145789580Y-109296858D01*
X145892805Y-109305404D01*
X145983973Y-109312821D01*
X146060395Y-109318892D01*
X146119383Y-109323399D01*
X146158249Y-109326127D01*
X146173344Y-109326884D01*
X146182738Y-109328065D01*
X146186466Y-109332744D01*
X146182971Y-109342724D01*
X146170699Y-109359810D01*
X146148094Y-109385804D01*
X146113600Y-109422510D01*
X146065662Y-109471733D01*
X146002724Y-109535274D01*
X145935468Y-109602695D01*
X145659977Y-109878399D01*
X145657906Y-109876467D01*
X145657906Y-110058710D01*
X145669280Y-110067016D01*
X145696063Y-110090267D01*
X145735792Y-110126135D01*
X145786007Y-110172287D01*
X145844246Y-110226394D01*
X145908047Y-110286126D01*
X145974949Y-110349152D01*
X146042490Y-110413142D01*
X146108210Y-110475764D01*
X146169646Y-110534690D01*
X146224337Y-110587588D01*
X146269822Y-110632128D01*
X146303638Y-110665980D01*
X146323326Y-110686812D01*
X146327337Y-110692494D01*
X146314391Y-110694366D01*
X146278634Y-110698254D01*
X146222304Y-110703943D01*
X146147640Y-110711219D01*
X146056880Y-110719869D01*
X145952262Y-110729678D01*
X145836026Y-110740434D01*
X145710408Y-110751921D01*
X145609118Y-110761093D01*
X145477779Y-110772826D01*
X145354052Y-110783665D01*
X145240181Y-110793430D01*
X145138411Y-110801937D01*
X145050987Y-110809005D01*
X144980153Y-110814451D01*
X144928153Y-110818092D01*
X144897232Y-110819747D01*
X144889203Y-110819558D01*
X144896354Y-110809666D01*
X144919341Y-110784476D01*
X144955939Y-110746190D01*
X145003922Y-110697011D01*
X145061066Y-110639139D01*
X145125147Y-110574778D01*
X145193938Y-110506129D01*
X145265216Y-110435395D01*
X145336755Y-110364778D01*
X145406330Y-110296480D01*
X145471717Y-110232704D01*
X145530691Y-110175650D01*
X145581027Y-110127522D01*
X145620499Y-110090522D01*
X145646883Y-110066852D01*
X145657906Y-110058710D01*
X145657906Y-109876467D01*
X145549795Y-109775591D01*
X145493877Y-109723232D01*
X145431448Y-109664465D01*
X145364943Y-109601615D01*
X145296798Y-109537005D01*
X145229448Y-109472958D01*
X145165328Y-109411797D01*
X145106872Y-109355847D01*
X145056518Y-109307430D01*
X145016698Y-109268870D01*
X144989850Y-109242491D01*
X144978408Y-109230616D01*
X144978174Y-109230195D01*
X144978174Y-109106604D01*
X144834226Y-109094599D01*
X144202658Y-108494062D01*
X143571089Y-107893525D01*
X143482815Y-107893966D01*
X143394540Y-107894408D01*
X143498166Y-107991417D01*
X143555963Y-108045709D01*
X143623868Y-108109808D01*
X143700072Y-108181984D01*
X143782769Y-108260508D01*
X143870153Y-108343651D01*
X143960415Y-108429681D01*
X144051750Y-108516870D01*
X144142349Y-108603487D01*
X144230407Y-108687803D01*
X144314115Y-108768088D01*
X144391667Y-108842613D01*
X144461257Y-108909646D01*
X144521076Y-108967459D01*
X144569318Y-109014321D01*
X144604176Y-109048504D01*
X144623843Y-109068276D01*
X144627616Y-109072610D01*
X144614492Y-109072908D01*
X144580889Y-109071269D01*
X144531380Y-109067977D01*
X144470537Y-109063318D01*
X144446232Y-109061318D01*
X144268451Y-109046423D01*
X144268451Y-109163045D01*
X144296743Y-109169066D01*
X144319118Y-109172137D01*
X144361217Y-109176452D01*
X144417678Y-109181512D01*
X144483135Y-109186819D01*
X144507362Y-109188656D01*
X144576921Y-109194073D01*
X144641518Y-109199541D01*
X144695048Y-109204512D01*
X144731410Y-109208439D01*
X144738009Y-109209325D01*
X144751556Y-109212666D01*
X144767414Y-109219899D01*
X144787361Y-109232560D01*
X144813173Y-109252189D01*
X144846629Y-109280322D01*
X144889507Y-109318498D01*
X144943583Y-109368254D01*
X145010636Y-109431129D01*
X145092443Y-109508659D01*
X145175450Y-109587749D01*
X145257594Y-109666436D01*
X145333669Y-109739888D01*
X145401825Y-109806276D01*
X145460212Y-109863773D01*
X145506981Y-109910549D01*
X145540282Y-109944776D01*
X145558267Y-109964627D01*
X145560942Y-109968860D01*
X145551241Y-109979997D01*
X145525941Y-110006029D01*
X145487582Y-110044430D01*
X145438700Y-110092672D01*
X145381834Y-110148230D01*
X145340406Y-110188408D01*
X145123500Y-110398169D01*
X145123500Y-109779663D01*
X144884589Y-109779663D01*
X144884589Y-110534119D01*
X144991042Y-110534119D01*
X144853154Y-110672435D01*
X144755340Y-110770553D01*
X144755340Y-110961643D01*
X144770770Y-110963471D01*
X144779367Y-110972723D01*
X144783113Y-110995050D01*
X144783989Y-111036105D01*
X144783995Y-111043376D01*
X144783995Y-111125109D01*
X144564672Y-111125109D01*
X144645679Y-111043376D01*
X144694928Y-110997270D01*
X144732659Y-110969694D01*
X144755340Y-110961643D01*
X144755340Y-110770553D01*
X144715266Y-110810752D01*
X144592452Y-110810752D01*
X144535950Y-110811137D01*
X144500005Y-110812900D01*
X144480030Y-110816950D01*
X144471437Y-110824199D01*
X144469639Y-110835130D01*
X144466998Y-110847288D01*
X144456412Y-110856273D01*
X144433881Y-110863174D01*
X144395409Y-110869076D01*
X144336998Y-110875065D01*
X144315604Y-110876987D01*
X144268451Y-110881148D01*
X144268451Y-109163045D01*
X144268451Y-109046423D01*
X144268451Y-108886891D01*
X144155282Y-108886891D01*
X144155282Y-108954686D01*
X144154196Y-108994338D01*
X144148954Y-109015884D01*
X144145834Y-109018520D01*
X144145834Y-109157384D01*
X144152962Y-109164692D01*
X144155162Y-109190007D01*
X144155282Y-109207092D01*
X144155282Y-109264119D01*
X144155282Y-109476779D01*
X144155282Y-110891302D01*
X144106286Y-110843458D01*
X144045824Y-110769150D01*
X143999191Y-110677184D01*
X143965749Y-110566002D01*
X143947253Y-110455529D01*
X143938622Y-110383227D01*
X144029540Y-110383227D01*
X144029540Y-109804812D01*
X143926393Y-109804812D01*
X143934996Y-109719935D01*
X143942256Y-109660632D01*
X143951879Y-109597449D01*
X143958752Y-109559614D01*
X143973907Y-109484168D01*
X144064595Y-109480474D01*
X144155282Y-109476779D01*
X144155282Y-109264119D01*
X144104985Y-109264119D01*
X144073476Y-109262456D01*
X144055963Y-109258303D01*
X144054688Y-109256629D01*
X144062754Y-109238013D01*
X144082320Y-109210817D01*
X144106444Y-109183552D01*
X144128182Y-109164733D01*
X144131008Y-109163057D01*
X144145834Y-109157384D01*
X144145834Y-109018520D01*
X144136581Y-109026338D01*
X144123104Y-109030558D01*
X144088127Y-109047781D01*
X144046079Y-109080862D01*
X144002856Y-109124107D01*
X143964354Y-109171826D01*
X143944301Y-109203170D01*
X143922351Y-109238877D01*
X143903911Y-109257181D01*
X143882168Y-109263612D01*
X143869218Y-109264106D01*
X143866075Y-109264106D01*
X143866075Y-109905406D01*
X143928946Y-109905406D01*
X143928946Y-110282633D01*
X143866075Y-110282633D01*
X143866075Y-109905406D01*
X143866075Y-109264106D01*
X143828352Y-109264119D01*
X143828352Y-109369952D01*
X143829529Y-109418645D01*
X143832665Y-109456595D01*
X143837171Y-109477692D01*
X143838995Y-109479977D01*
X143841795Y-109493359D01*
X143840648Y-109525926D01*
X143835893Y-109572084D01*
X143831503Y-109603624D01*
X143822878Y-109660812D01*
X143815091Y-109713114D01*
X143809347Y-109752418D01*
X143807715Y-109763945D01*
X143798388Y-109794063D01*
X143783772Y-109804812D01*
X143777820Y-109808080D01*
X143773278Y-109819770D01*
X143769970Y-109842712D01*
X143767715Y-109879735D01*
X143766334Y-109933668D01*
X143765650Y-110007340D01*
X143765480Y-110094020D01*
X143765577Y-110186529D01*
X143766030Y-110256906D01*
X143767090Y-110308164D01*
X143769003Y-110343320D01*
X143772019Y-110365389D01*
X143776385Y-110377385D01*
X143782349Y-110382324D01*
X143789284Y-110383227D01*
X143811295Y-110390921D01*
X143823821Y-110416121D01*
X143828288Y-110462009D01*
X143828352Y-110470264D01*
X143836368Y-110547973D01*
X143858436Y-110636233D01*
X143891584Y-110727085D01*
X143932839Y-110812570D01*
X143979231Y-110884726D01*
X143986582Y-110894072D01*
X144010498Y-110924533D01*
X144020076Y-110942572D01*
X144016980Y-110955169D01*
X144004204Y-110968100D01*
X143979178Y-111006293D01*
X143969571Y-111055998D01*
X143974567Y-111109524D01*
X143993351Y-111159178D01*
X144025106Y-111197267D01*
X144028797Y-111200025D01*
X144088075Y-111228526D01*
X144149434Y-111233828D01*
X144207927Y-111216518D01*
X144258604Y-111177180D01*
X144262789Y-111172370D01*
X144282667Y-111144440D01*
X144291421Y-111116102D01*
X144292053Y-111076263D01*
X144291492Y-111066311D01*
X144290062Y-111027332D01*
X144293339Y-111007254D01*
X144303228Y-110999985D01*
X144312461Y-110999240D01*
X144339244Y-110997716D01*
X144379525Y-110993935D01*
X144403624Y-110991218D01*
X144441901Y-110987277D01*
X144461496Y-110988916D01*
X144468658Y-110998421D01*
X144469639Y-111015351D01*
X144466401Y-111025392D01*
X144455920Y-111041590D01*
X144437048Y-111065145D01*
X144408635Y-111097257D01*
X144369535Y-111139128D01*
X144318597Y-111191957D01*
X144254673Y-111256945D01*
X144176614Y-111335291D01*
X144083272Y-111428197D01*
X143973498Y-111536863D01*
X143920452Y-111589231D01*
X143371267Y-112131049D01*
X143458348Y-112130430D01*
X143458348Y-112130430D01*
G37*
X143458348Y-112130430D02*
X143545431Y-112129811D01*
X144004391Y-111678086D01*
X144463352Y-111226361D01*
X144673971Y-111226032D01*
X144884589Y-111225703D01*
X144884589Y-110950610D01*
X144938030Y-110943522D01*
X144962388Y-110940838D01*
X145008259Y-110936313D01*
X145072905Y-110930191D01*
X145153591Y-110922712D01*
X145247581Y-110914119D01*
X145352137Y-110904654D01*
X145464525Y-110894558D01*
X145582007Y-110884074D01*
X145701848Y-110873444D01*
X145821311Y-110862909D01*
X145937659Y-110852713D01*
X146048157Y-110843095D01*
X146150069Y-110834300D01*
X146240658Y-110826568D01*
X146317187Y-110820142D01*
X146376921Y-110815263D01*
X146417124Y-110812175D01*
X146435059Y-110811117D01*
X146435144Y-110811118D01*
X146449535Y-110818827D01*
X146479248Y-110841981D01*
X146524631Y-110880895D01*
X146586029Y-110935884D01*
X146663788Y-111007264D01*
X146758254Y-111095349D01*
X146869772Y-111200454D01*
X146998688Y-111322895D01*
X147034787Y-111357310D01*
X147606916Y-111903137D01*
X147694936Y-111814881D01*
X147617258Y-111743485D01*
X147589186Y-111717366D01*
X147545774Y-111676566D01*
X147489866Y-111623777D01*
X147424308Y-111561691D01*
X147351941Y-111493000D01*
X147275612Y-111420396D01*
X147230024Y-111376960D01*
X147144619Y-111295416D01*
X147076210Y-111229504D01*
X147023553Y-111177544D01*
X146985405Y-111137855D01*
X146960520Y-111108757D01*
X146947656Y-111088569D01*
X146945568Y-111075610D01*
X146953013Y-111068200D01*
X146968746Y-111064658D01*
X146991523Y-111063303D01*
X146997739Y-111063121D01*
X147040561Y-111053703D01*
X147092319Y-111030497D01*
X147144828Y-110998136D01*
X147189903Y-110961252D01*
X147203828Y-110946493D01*
X147252547Y-110870767D01*
X147279806Y-110782308D01*
X147286273Y-110704100D01*
X147274076Y-110615468D01*
X147238313Y-110533612D01*
X147180222Y-110461164D01*
X147165762Y-110447797D01*
X147110233Y-110398918D01*
X147110233Y-109553326D01*
X147286273Y-109553326D01*
X147286273Y-109326990D01*
X147204031Y-109326990D01*
X147147886Y-109324150D01*
X147108916Y-109314607D01*
X147087719Y-109303009D01*
X147072552Y-109294723D01*
X147050562Y-109287627D01*
X147018487Y-109281252D01*
X146973069Y-109275128D01*
X146911048Y-109268784D01*
X146829162Y-109261750D01*
X146768246Y-109256934D01*
X146482843Y-109234839D01*
X147032305Y-108692435D01*
X147131728Y-108594363D01*
X147227315Y-108500216D01*
X147317310Y-108411715D01*
X147399957Y-108330580D01*
X147473501Y-108258531D01*
X147536184Y-108197288D01*
X147586252Y-108148573D01*
X147621948Y-108114104D01*
X147641495Y-108095621D01*
X147672444Y-108065257D01*
X147694030Y-108039929D01*
X147701223Y-108026305D01*
X147692797Y-108008905D01*
X147671745Y-107983540D01*
X147663171Y-107974942D01*
X147625120Y-107938486D01*
X147421158Y-108139198D01*
X147369199Y-108190404D01*
X147302320Y-108256431D01*
X147223450Y-108334382D01*
X147135514Y-108421362D01*
X147041441Y-108514474D01*
X146944158Y-108610821D01*
X146846593Y-108707508D01*
X146776645Y-108776866D01*
X146670050Y-108882297D01*
X146579807Y-108970871D01*
X146504692Y-109043719D01*
X146443486Y-109101977D01*
X146394966Y-109146775D01*
X146369629Y-109168979D01*
X146369629Y-109347276D01*
X146655055Y-109369599D01*
X146738719Y-109376331D01*
X146815227Y-109382843D01*
X146880581Y-109388766D01*
X146930781Y-109393732D01*
X146961829Y-109397371D01*
X146968773Y-109398542D01*
X146997065Y-109405162D01*
X146997065Y-110354636D01*
X146918106Y-110360974D01*
X146824815Y-110380110D01*
X146742291Y-110420154D01*
X146673538Y-110478582D01*
X146621563Y-110552871D01*
X146590363Y-110636252D01*
X146575728Y-110663302D01*
X146544319Y-110676844D01*
X146542934Y-110677128D01*
X146529674Y-110678753D01*
X146516095Y-110676744D01*
X146499681Y-110669142D01*
X146477911Y-110653984D01*
X146448267Y-110629312D01*
X146408232Y-110593164D01*
X146355285Y-110543580D01*
X146286909Y-110478599D01*
X146282505Y-110474401D01*
X146209111Y-110404507D01*
X146130937Y-110330200D01*
X146053364Y-110256586D01*
X145981775Y-110188771D01*
X145921551Y-110131860D01*
X145908087Y-110119168D01*
X145857320Y-110070513D01*
X145813875Y-110027291D01*
X145780741Y-109992605D01*
X145760905Y-109969556D01*
X145756546Y-109961818D01*
X145765670Y-109950278D01*
X145790700Y-109923290D01*
X145829552Y-109882979D01*
X145880143Y-109831471D01*
X145940388Y-109770891D01*
X146008204Y-109703364D01*
X146064065Y-109648174D01*
X146369629Y-109347276D01*
X146369629Y-109168979D01*
X146357911Y-109179249D01*
X146331099Y-109200529D01*
X146313308Y-109211749D01*
X146305070Y-109214246D01*
X146287090Y-109213300D01*
X146246392Y-109210427D01*
X146185319Y-109205813D01*
X146106213Y-109199642D01*
X146011414Y-109192102D01*
X145903267Y-109183379D01*
X145784112Y-109173657D01*
X145656291Y-109163124D01*
X145554135Y-109154635D01*
X144978174Y-109106604D01*
X144978174Y-109230195D01*
X144990604Y-109230727D01*
X145025610Y-109233231D01*
X145080715Y-109237504D01*
X145153443Y-109243347D01*
X145241314Y-109250557D01*
X145341851Y-109258934D01*
X145452577Y-109268277D01*
X145557705Y-109277242D01*
X145676983Y-109287398D01*
X145789580Y-109296858D01*
X145892805Y-109305404D01*
X145983973Y-109312821D01*
X146060395Y-109318892D01*
X146119383Y-109323399D01*
X146158249Y-109326127D01*
X146173344Y-109326884D01*
X146182738Y-109328065D01*
X146186466Y-109332744D01*
X146182971Y-109342724D01*
X146170699Y-109359810D01*
X146148094Y-109385804D01*
X146113600Y-109422510D01*
X146065662Y-109471733D01*
X146002724Y-109535274D01*
X145935468Y-109602695D01*
X145659977Y-109878399D01*
X145657906Y-109876467D01*
X145657906Y-110058710D01*
X145669280Y-110067016D01*
X145696063Y-110090267D01*
X145735792Y-110126135D01*
X145786007Y-110172287D01*
X145844246Y-110226394D01*
X145908047Y-110286126D01*
X145974949Y-110349152D01*
X146042490Y-110413142D01*
X146108210Y-110475764D01*
X146169646Y-110534690D01*
X146224337Y-110587588D01*
X146269822Y-110632128D01*
X146303638Y-110665980D01*
X146323326Y-110686812D01*
X146327337Y-110692494D01*
X146314391Y-110694366D01*
X146278634Y-110698254D01*
X146222304Y-110703943D01*
X146147640Y-110711219D01*
X146056880Y-110719869D01*
X145952262Y-110729678D01*
X145836026Y-110740434D01*
X145710408Y-110751921D01*
X145609118Y-110761093D01*
X145477779Y-110772826D01*
X145354052Y-110783665D01*
X145240181Y-110793430D01*
X145138411Y-110801937D01*
X145050987Y-110809005D01*
X144980153Y-110814451D01*
X144928153Y-110818092D01*
X144897232Y-110819747D01*
X144889203Y-110819558D01*
X144896354Y-110809666D01*
X144919341Y-110784476D01*
X144955939Y-110746190D01*
X145003922Y-110697011D01*
X145061066Y-110639139D01*
X145125147Y-110574778D01*
X145193938Y-110506129D01*
X145265216Y-110435395D01*
X145336755Y-110364778D01*
X145406330Y-110296480D01*
X145471717Y-110232704D01*
X145530691Y-110175650D01*
X145581027Y-110127522D01*
X145620499Y-110090522D01*
X145646883Y-110066852D01*
X145657906Y-110058710D01*
X145657906Y-109876467D01*
X145549795Y-109775591D01*
X145493877Y-109723232D01*
X145431448Y-109664465D01*
X145364943Y-109601615D01*
X145296798Y-109537005D01*
X145229448Y-109472958D01*
X145165328Y-109411797D01*
X145106872Y-109355847D01*
X145056518Y-109307430D01*
X145016698Y-109268870D01*
X144989850Y-109242491D01*
X144978408Y-109230616D01*
X144978174Y-109230195D01*
X144978174Y-109106604D01*
X144834226Y-109094599D01*
X144202658Y-108494062D01*
X143571089Y-107893525D01*
X143482815Y-107893966D01*
X143394540Y-107894408D01*
X143498166Y-107991417D01*
X143555963Y-108045709D01*
X143623868Y-108109808D01*
X143700072Y-108181984D01*
X143782769Y-108260508D01*
X143870153Y-108343651D01*
X143960415Y-108429681D01*
X144051750Y-108516870D01*
X144142349Y-108603487D01*
X144230407Y-108687803D01*
X144314115Y-108768088D01*
X144391667Y-108842613D01*
X144461257Y-108909646D01*
X144521076Y-108967459D01*
X144569318Y-109014321D01*
X144604176Y-109048504D01*
X144623843Y-109068276D01*
X144627616Y-109072610D01*
X144614492Y-109072908D01*
X144580889Y-109071269D01*
X144531380Y-109067977D01*
X144470537Y-109063318D01*
X144446232Y-109061318D01*
X144268451Y-109046423D01*
X144268451Y-109163045D01*
X144296743Y-109169066D01*
X144319118Y-109172137D01*
X144361217Y-109176452D01*
X144417678Y-109181512D01*
X144483135Y-109186819D01*
X144507362Y-109188656D01*
X144576921Y-109194073D01*
X144641518Y-109199541D01*
X144695048Y-109204512D01*
X144731410Y-109208439D01*
X144738009Y-109209325D01*
X144751556Y-109212666D01*
X144767414Y-109219899D01*
X144787361Y-109232560D01*
X144813173Y-109252189D01*
X144846629Y-109280322D01*
X144889507Y-109318498D01*
X144943583Y-109368254D01*
X145010636Y-109431129D01*
X145092443Y-109508659D01*
X145175450Y-109587749D01*
X145257594Y-109666436D01*
X145333669Y-109739888D01*
X145401825Y-109806276D01*
X145460212Y-109863773D01*
X145506981Y-109910549D01*
X145540282Y-109944776D01*
X145558267Y-109964627D01*
X145560942Y-109968860D01*
X145551241Y-109979997D01*
X145525941Y-110006029D01*
X145487582Y-110044430D01*
X145438700Y-110092672D01*
X145381834Y-110148230D01*
X145340406Y-110188408D01*
X145123500Y-110398169D01*
X145123500Y-109779663D01*
X144884589Y-109779663D01*
X144884589Y-110534119D01*
X144991042Y-110534119D01*
X144853154Y-110672435D01*
X144755340Y-110770553D01*
X144755340Y-110961643D01*
X144770770Y-110963471D01*
X144779367Y-110972723D01*
X144783113Y-110995050D01*
X144783989Y-111036105D01*
X144783995Y-111043376D01*
X144783995Y-111125109D01*
X144564672Y-111125109D01*
X144645679Y-111043376D01*
X144694928Y-110997270D01*
X144732659Y-110969694D01*
X144755340Y-110961643D01*
X144755340Y-110770553D01*
X144715266Y-110810752D01*
X144592452Y-110810752D01*
X144535950Y-110811137D01*
X144500005Y-110812900D01*
X144480030Y-110816950D01*
X144471437Y-110824199D01*
X144469639Y-110835130D01*
X144466998Y-110847288D01*
X144456412Y-110856273D01*
X144433881Y-110863174D01*
X144395409Y-110869076D01*
X144336998Y-110875065D01*
X144315604Y-110876987D01*
X144268451Y-110881148D01*
X144268451Y-109163045D01*
X144268451Y-109046423D01*
X144268451Y-108886891D01*
X144155282Y-108886891D01*
X144155282Y-108954686D01*
X144154196Y-108994338D01*
X144148954Y-109015884D01*
X144145834Y-109018520D01*
X144145834Y-109157384D01*
X144152962Y-109164692D01*
X144155162Y-109190007D01*
X144155282Y-109207092D01*
X144155282Y-109264119D01*
X144155282Y-109476779D01*
X144155282Y-110891302D01*
X144106286Y-110843458D01*
X144045824Y-110769150D01*
X143999191Y-110677184D01*
X143965749Y-110566002D01*
X143947253Y-110455529D01*
X143938622Y-110383227D01*
X144029540Y-110383227D01*
X144029540Y-109804812D01*
X143926393Y-109804812D01*
X143934996Y-109719935D01*
X143942256Y-109660632D01*
X143951879Y-109597449D01*
X143958752Y-109559614D01*
X143973907Y-109484168D01*
X144064595Y-109480474D01*
X144155282Y-109476779D01*
X144155282Y-109264119D01*
X144104985Y-109264119D01*
X144073476Y-109262456D01*
X144055963Y-109258303D01*
X144054688Y-109256629D01*
X144062754Y-109238013D01*
X144082320Y-109210817D01*
X144106444Y-109183552D01*
X144128182Y-109164733D01*
X144131008Y-109163057D01*
X144145834Y-109157384D01*
X144145834Y-109018520D01*
X144136581Y-109026338D01*
X144123104Y-109030558D01*
X144088127Y-109047781D01*
X144046079Y-109080862D01*
X144002856Y-109124107D01*
X143964354Y-109171826D01*
X143944301Y-109203170D01*
X143922351Y-109238877D01*
X143903911Y-109257181D01*
X143882168Y-109263612D01*
X143869218Y-109264106D01*
X143866075Y-109264106D01*
X143866075Y-109905406D01*
X143928946Y-109905406D01*
X143928946Y-110282633D01*
X143866075Y-110282633D01*
X143866075Y-109905406D01*
X143866075Y-109264106D01*
X143828352Y-109264119D01*
X143828352Y-109369952D01*
X143829529Y-109418645D01*
X143832665Y-109456595D01*
X143837171Y-109477692D01*
X143838995Y-109479977D01*
X143841795Y-109493359D01*
X143840648Y-109525926D01*
X143835893Y-109572084D01*
X143831503Y-109603624D01*
X143822878Y-109660812D01*
X143815091Y-109713114D01*
X143809347Y-109752418D01*
X143807715Y-109763945D01*
X143798388Y-109794063D01*
X143783772Y-109804812D01*
X143777820Y-109808080D01*
X143773278Y-109819770D01*
X143769970Y-109842712D01*
X143767715Y-109879735D01*
X143766334Y-109933668D01*
X143765650Y-110007340D01*
X143765480Y-110094020D01*
X143765577Y-110186529D01*
X143766030Y-110256906D01*
X143767090Y-110308164D01*
X143769003Y-110343320D01*
X143772019Y-110365389D01*
X143776385Y-110377385D01*
X143782349Y-110382324D01*
X143789284Y-110383227D01*
X143811295Y-110390921D01*
X143823821Y-110416121D01*
X143828288Y-110462009D01*
X143828352Y-110470264D01*
X143836368Y-110547973D01*
X143858436Y-110636233D01*
X143891584Y-110727085D01*
X143932839Y-110812570D01*
X143979231Y-110884726D01*
X143986582Y-110894072D01*
X144010498Y-110924533D01*
X144020076Y-110942572D01*
X144016980Y-110955169D01*
X144004204Y-110968100D01*
X143979178Y-111006293D01*
X143969571Y-111055998D01*
X143974567Y-111109524D01*
X143993351Y-111159178D01*
X144025106Y-111197267D01*
X144028797Y-111200025D01*
X144088075Y-111228526D01*
X144149434Y-111233828D01*
X144207927Y-111216518D01*
X144258604Y-111177180D01*
X144262789Y-111172370D01*
X144282667Y-111144440D01*
X144291421Y-111116102D01*
X144292053Y-111076263D01*
X144291492Y-111066311D01*
X144290062Y-111027332D01*
X144293339Y-111007254D01*
X144303228Y-110999985D01*
X144312461Y-110999240D01*
X144339244Y-110997716D01*
X144379525Y-110993935D01*
X144403624Y-110991218D01*
X144441901Y-110987277D01*
X144461496Y-110988916D01*
X144468658Y-110998421D01*
X144469639Y-111015351D01*
X144466401Y-111025392D01*
X144455920Y-111041590D01*
X144437048Y-111065145D01*
X144408635Y-111097257D01*
X144369535Y-111139128D01*
X144318597Y-111191957D01*
X144254673Y-111256945D01*
X144176614Y-111335291D01*
X144083272Y-111428197D01*
X143973498Y-111536863D01*
X143920452Y-111589231D01*
X143371267Y-112131049D01*
X143458348Y-112130430D01*
D13*
X123689905Y-93432381D02*
X123118476Y-93432381D01*
X123404191Y-94432381D02*
X123404191Y-93432381D01*
X122785143Y-94432381D02*
X122785143Y-93432381D01*
X122404190Y-93432381D01*
X122308952Y-93480000D01*
X122261333Y-93527619D01*
X122213714Y-93622857D01*
X122213714Y-93765714D01*
X122261333Y-93860952D01*
X122308952Y-93908571D01*
X122404190Y-93956190D01*
X122785143Y-93956190D01*
X121261333Y-94432381D02*
X121832762Y-94432381D01*
X121547048Y-94432381D02*
X121547048Y-93432381D01*
X121642286Y-93575238D01*
X121737524Y-93670476D01*
X121832762Y-93718095D01*
X123689905Y-85431381D02*
X123118476Y-85431381D01*
X123404191Y-86431381D02*
X123404191Y-85431381D01*
X122785143Y-86431381D02*
X122785143Y-85431381D01*
X122404190Y-85431381D01*
X122308952Y-85479000D01*
X122261333Y-85526619D01*
X122213714Y-85621857D01*
X122213714Y-85764714D01*
X122261333Y-85859952D01*
X122308952Y-85907571D01*
X122404190Y-85955190D01*
X122785143Y-85955190D01*
X121832762Y-85526619D02*
X121785143Y-85479000D01*
X121689905Y-85431381D01*
X121451809Y-85431381D01*
X121356571Y-85479000D01*
X121308952Y-85526619D01*
X121261333Y-85621857D01*
X121261333Y-85717095D01*
X121308952Y-85859952D01*
X121880381Y-86431381D01*
X121261333Y-86431381D01*
X123761905Y-102452381D02*
X123190476Y-102452381D01*
X123476191Y-103452381D02*
X123476191Y-102452381D01*
X122857143Y-103452381D02*
X122857143Y-102452381D01*
X122476190Y-102452381D01*
X122380952Y-102500000D01*
X122333333Y-102547619D01*
X122285714Y-102642857D01*
X122285714Y-102785714D01*
X122333333Y-102880952D01*
X122380952Y-102928571D01*
X122476190Y-102976190D01*
X122857143Y-102976190D01*
X121952381Y-102452381D02*
X121333333Y-102452381D01*
X121666667Y-102833333D01*
X121523809Y-102833333D01*
X121428571Y-102880952D01*
X121380952Y-102928571D01*
X121333333Y-103023810D01*
X121333333Y-103261905D01*
X121380952Y-103357143D01*
X121428571Y-103404762D01*
X121523809Y-103452381D01*
X121809524Y-103452381D01*
X121904762Y-103404762D01*
X121952381Y-103357143D01*
X123761905Y-105552381D02*
X123190476Y-105552381D01*
X123476191Y-106552381D02*
X123476191Y-105552381D01*
X122857143Y-106552381D02*
X122857143Y-105552381D01*
X122476190Y-105552381D01*
X122380952Y-105600000D01*
X122333333Y-105647619D01*
X122285714Y-105742857D01*
X122285714Y-105885714D01*
X122333333Y-105980952D01*
X122380952Y-106028571D01*
X122476190Y-106076190D01*
X122857143Y-106076190D01*
X121428571Y-105885714D02*
X121428571Y-106552381D01*
X121666667Y-105504762D02*
X121904762Y-106219048D01*
X121285714Y-106219048D01*
X123861905Y-99452381D02*
X123290476Y-99452381D01*
X123576191Y-100452381D02*
X123576191Y-99452381D01*
X122957143Y-100452381D02*
X122957143Y-99452381D01*
X122576190Y-99452381D01*
X122480952Y-99500000D01*
X122433333Y-99547619D01*
X122385714Y-99642857D01*
X122385714Y-99785714D01*
X122433333Y-99880952D01*
X122480952Y-99928571D01*
X122576190Y-99976190D01*
X122957143Y-99976190D01*
X121480952Y-99452381D02*
X121957143Y-99452381D01*
X122004762Y-99928571D01*
X121957143Y-99880952D01*
X121861905Y-99833333D01*
X121623809Y-99833333D01*
X121528571Y-99880952D01*
X121480952Y-99928571D01*
X121433333Y-100023810D01*
X121433333Y-100261905D01*
X121480952Y-100357143D01*
X121528571Y-100404762D01*
X121623809Y-100452381D01*
X121861905Y-100452381D01*
X121957143Y-100404762D01*
X122004762Y-100357143D01*
X123661905Y-108452381D02*
X123090476Y-108452381D01*
X123376191Y-109452381D02*
X123376191Y-108452381D01*
X122757143Y-109452381D02*
X122757143Y-108452381D01*
X122376190Y-108452381D01*
X122280952Y-108500000D01*
X122233333Y-108547619D01*
X122185714Y-108642857D01*
X122185714Y-108785714D01*
X122233333Y-108880952D01*
X122280952Y-108928571D01*
X122376190Y-108976190D01*
X122757143Y-108976190D01*
X121328571Y-108452381D02*
X121519048Y-108452381D01*
X121614286Y-108500000D01*
X121661905Y-108547619D01*
X121757143Y-108690476D01*
X121804762Y-108880952D01*
X121804762Y-109261905D01*
X121757143Y-109357143D01*
X121709524Y-109404762D01*
X121614286Y-109452381D01*
X121423809Y-109452381D01*
X121328571Y-109404762D01*
X121280952Y-109357143D01*
X121233333Y-109261905D01*
X121233333Y-109023810D01*
X121280952Y-108928571D01*
X121328571Y-108880952D01*
X121423809Y-108833333D01*
X121614286Y-108833333D01*
X121709524Y-108880952D01*
X121757143Y-108928571D01*
X121804762Y-109023810D01*
X123661905Y-111452381D02*
X123090476Y-111452381D01*
X123376191Y-112452381D02*
X123376191Y-111452381D01*
X122757143Y-112452381D02*
X122757143Y-111452381D01*
X122376190Y-111452381D01*
X122280952Y-111500000D01*
X122233333Y-111547619D01*
X122185714Y-111642857D01*
X122185714Y-111785714D01*
X122233333Y-111880952D01*
X122280952Y-111928571D01*
X122376190Y-111976190D01*
X122757143Y-111976190D01*
X121852381Y-111452381D02*
X121185714Y-111452381D01*
X121614286Y-112452381D01*
X123689905Y-89495381D02*
X123118476Y-89495381D01*
X123404191Y-90495381D02*
X123404191Y-89495381D01*
X122785143Y-90495381D02*
X122785143Y-89495381D01*
X122404190Y-89495381D01*
X122308952Y-89543000D01*
X122261333Y-89590619D01*
X122213714Y-89685857D01*
X122213714Y-89828714D01*
X122261333Y-89923952D01*
X122308952Y-89971571D01*
X122404190Y-90019190D01*
X122785143Y-90019190D01*
X121642286Y-89923952D02*
X121737524Y-89876333D01*
X121785143Y-89828714D01*
X121832762Y-89733476D01*
X121832762Y-89685857D01*
X121785143Y-89590619D01*
X121737524Y-89543000D01*
X121642286Y-89495381D01*
X121451809Y-89495381D01*
X121356571Y-89543000D01*
X121308952Y-89590619D01*
X121261333Y-89685857D01*
X121261333Y-89733476D01*
X121308952Y-89828714D01*
X121356571Y-89876333D01*
X121451809Y-89923952D01*
X121642286Y-89923952D01*
X121737524Y-89971571D01*
X121785143Y-90019190D01*
X121832762Y-90114429D01*
X121832762Y-90304905D01*
X121785143Y-90400143D01*
X121737524Y-90447762D01*
X121642286Y-90495381D01*
X121451809Y-90495381D01*
X121356571Y-90447762D01*
X121308952Y-90400143D01*
X121261333Y-90304905D01*
X121261333Y-90114429D01*
X121308952Y-90019190D01*
X121356571Y-89971571D01*
X121451809Y-89923952D01*
M02*
