G04 #@! TF.FileFunction,Soldermask,Top*
%FSLAX46Y46*%
G04 Gerber Fmt 4.6, Leading zero omitted, Abs format (unit mm)*
G04 Created by KiCad (PCBNEW 4.0.5) date 04/10/17 16:46:25*
%MOMM*%
%LPD*%
G01*
G04 APERTURE LIST*
%ADD10C,0.100000*%
%ADD11R,1.050000X1.460000*%
%ADD12R,2.400000X1.600000*%
%ADD13R,1.900000X1.400000*%
%ADD14C,1.900000*%
%ADD15R,1.543000X0.908000*%
%ADD16C,2.540000*%
%ADD17R,1.150000X1.200000*%
%ADD18R,1.200000X1.200000*%
%ADD19R,1.300000X0.900000*%
%ADD20R,0.900000X1.300000*%
%ADD21C,3.900000*%
%ADD22R,2.900000X1.400000*%
%ADD23R,1.650000X1.400000*%
%ADD24R,2.100000X2.100000*%
%ADD25O,2.100000X2.100000*%
%ADD26R,3.400000X1.400000*%
G04 APERTURE END LIST*
D10*
D11*
X120765000Y-87667000D03*
X121715000Y-87667000D03*
X122665000Y-87667000D03*
X122665000Y-85467000D03*
X120765000Y-85467000D03*
D12*
X150300000Y-85000000D03*
D13*
X129300000Y-112000000D03*
X129300000Y-92000000D03*
X129300000Y-89500000D03*
X129300000Y-94500000D03*
X129300000Y-96200000D03*
X129300000Y-97850000D03*
X129300000Y-99500000D03*
X129300000Y-102000000D03*
X129300000Y-104500000D03*
X129300000Y-106950000D03*
X129300000Y-108650000D03*
D12*
X151500000Y-112500000D03*
D14*
X153600000Y-111100000D03*
X153600000Y-86900000D03*
D15*
X125225000Y-97405000D03*
X125225000Y-99945000D03*
X125225000Y-101215000D03*
X125225000Y-102485000D03*
X125225000Y-103755000D03*
X125225000Y-105025000D03*
X125225000Y-106295000D03*
X118875000Y-106295000D03*
X118875000Y-105025000D03*
X118875000Y-103755000D03*
X118875000Y-102485000D03*
X118875000Y-101215000D03*
X118875000Y-99945000D03*
X118875000Y-98675000D03*
X118875000Y-97405000D03*
X125225000Y-98675000D03*
D16*
X114107000Y-84795000D03*
X132900000Y-116200000D03*
D17*
X124650500Y-85292500D03*
X124650500Y-86792500D03*
X127350000Y-99500000D03*
X127350000Y-98000000D03*
D18*
X131407000Y-80264000D03*
X133007000Y-80264000D03*
D19*
X120500000Y-91381000D03*
X120500000Y-89881000D03*
X124714000Y-88150000D03*
X124714000Y-89650000D03*
D20*
X128155000Y-80264000D03*
X129655000Y-80264000D03*
D17*
X122500000Y-91250000D03*
X122500000Y-89750000D03*
D21*
X154250000Y-116250000D03*
X154250000Y-80750000D03*
X113750000Y-116250000D03*
X113750000Y-80750000D03*
D16*
X146200000Y-80300000D03*
D22*
X121000000Y-83000000D03*
X121000000Y-80000000D03*
D23*
X123825000Y-83000000D03*
X123825000Y-81000000D03*
D24*
X114742000Y-107401000D03*
D25*
X114742000Y-109941000D03*
D26*
X112567500Y-91653000D03*
X112567500Y-96733000D03*
X112567500Y-101813000D03*
X115567500Y-89113000D03*
X115567500Y-94193000D03*
X115567500Y-99273000D03*
M02*
